<?xml version="1.0" standalone="no"?>
<!DOCTYPE svg PUBLIC "-//W3C//DTD SVG 20010904//EN"
 "http://www.w3.org/TR/2001/REC-SVG-20010904/DTD/svg10.dtd">
<svg version="1.0" xmlns="http://www.w3.org/2000/svg"
 width="512.000000pt" height="512.000000pt" viewBox="0 0 512.000000 512.000000"
 preserveAspectRatio="xMidYMid meet">
<metadata>
Created by potrace 1.16, written by Peter Selinger 2001-2019
</metadata>
<g transform="translate(0.000000,512.000000) scale(0.100000,-0.100000)"
fill="#000000" stroke="none">
<path d="M0 5070 c0 -27 2 -50 4 -50 2 0 50 22 107 49 l104 50 -107 0 -108 1
0 -50z"/>
<path d="M168 5048 l-168 -71 0 -93 0 -93 158 75 c136 65 479 240 491 250 2 2
-67 4 -155 3 l-159 0 -167 -71z"/>
<path d="M372 4933 l-372 -186 0 -88 c0 -49 2 -89 4 -89 7 0 454 256 540 309
56 35 285 200 320 232 6 5 -18 9 -55 8 -63 -1 -72 -5 -437 -186z"/>
<path d="M2405 5079 c-94 -98 -264 -221 -607 -441 l-116 -75 70 -22 c41 -13
68 -27 65 -34 -6 -20 -133 -112 -402 -291 -364 -243 -457 -297 -495 -290 -25
6 -50 -7 -167 -81 -76 -48 -148 -97 -161 -108 -24 -22 -31 -47 -8 -28 12 10
20 9 38 -3 23 -15 31 -11 233 115 293 183 559 359 770 510 99 71 239 168 310
216 264 175 419 304 555 463 l90 105 -33 3 c-31 3 -42 -5 -119 -80 -116 -116
-280 -243 -420 -327 -64 -38 -42 -17 35 34 127 85 259 189 357 283 83 80 92
91 70 92 -18 0 -39 -13 -65 -41z"/>
<path d="M3356 5071 c-20 -28 -55 -69 -77 -93 -54 -59 -199 -275 -199 -296 1
-11 6 -7 17 13 13 25 113 160 281 381 19 24 30 44 25 44 -5 0 -26 -22 -47 -49z"/>
<path d="M3722 5057 c-110 -102 -260 -228 -372 -312 -126 -94 -275 -222 -350
-301 -33 -35 -18 -23 36 27 119 111 205 181 389 314 230 166 422 335 382 335
-10 0 -48 -28 -85 -63z"/>
<path d="M3888 5043 c-70 -82 -139 -173 -182 -242 -51 -80 -214 -260 -495
-546 -425 -432 -596 -609 -506 -525 55 52 43 36 -41 -50 -66 -69 -154 -161
-195 -205 -41 -44 -130 -138 -199 -210 -152 -157 -211 -237 -88 -117 47 45 89
82 93 82 4 0 -16 -26 -44 -57 -29 -32 -88 -101 -133 -155 -50 -60 -86 -94 -94
-91 -8 3 -14 -1 -14 -11 0 -9 -140 -154 -311 -323 -171 -170 -328 -333 -349
-363 -21 -30 -55 -71 -76 -90 l-38 -35 35 41 c20 22 55 67 79 100 24 32 150
167 280 299 270 274 375 387 390 418 6 12 -116 -106 -271 -263 -156 -157 -276
-276 -269 -265 44 62 163 196 248 277 178 171 399 412 496 541 90 120 107 148
89 146 -5 0 -60 -70 -123 -155 -90 -121 -168 -209 -358 -402 -294 -299 -358
-369 -403 -445 -50 -86 -83 -122 -141 -155 -29 -17 -83 -58 -120 -92 -61 -55
-70 -68 -89 -131 -12 -38 -18 -76 -15 -84 5 -14 9 -14 35 0 29 15 612 565 889
839 78 77 142 136 142 131 0 -6 -34 -44 -76 -85 -42 -41 -124 -129 -182 -195
-67 -75 -113 -119 -124 -118 -9 2 -19 -6 -23 -16 -3 -10 -105 -119 -227 -242
-203 -207 -246 -244 -143 -128 22 25 -4 0 -58 -55 -105 -108 -293 -333 -285
-342 3 -3 52 45 109 107 57 61 264 272 460 468 196 196 425 431 510 522 85 91
211 226 280 300 69 74 153 164 185 200 32 37 114 128 182 202 181 199 184 210
11 41 -85 -83 -174 -166 -199 -184 -25 -18 -74 -61 -110 -94 l-65 -61 55 60
c126 138 234 244 243 238 6 -3 7 -1 4 4 -7 12 26 46 36 38 4 -3 5 -2 2 1 -2 4
39 54 93 111 53 58 97 109 97 113 0 24 522 560 546 560 6 0 -30 -43 -81 -96
-90 -95 -150 -169 -150 -186 0 -19 19 -5 44 33 39 57 437 460 661 668 322 298
375 351 353 351 -23 0 -94 -49 -185 -127 -76 -66 -92 -68 -33 -5 40 42 39 41
-12 -7 -31 -30 -55 -58 -52 -62 2 -4 -31 -38 -73 -75 -43 -37 -164 -154 -269
-258 -105 -105 -199 -198 -210 -206 -18 -14 -18 -14 -4 7 111 163 172 248 215
298 28 33 61 73 73 89 13 16 39 41 60 55 65 44 135 111 204 198 38 47 68 88
68 91 0 8 -13 -6 -93 -104 -63 -77 -118 -129 -181 -169 -24 -16 -20 -7 28 60
31 44 84 110 117 148 33 37 57 67 52 67 -4 0 -38 -35 -75 -77z m-2628 -3016
c0 -2 -19 -21 -42 -42 l-43 -40 40 43 c36 39 45 47 45 39z"/>
<path d="M4239 5033 c-46 -48 -196 -199 -334 -335 -137 -136 -249 -251 -248
-256 1 -5 -14 -24 -32 -42 -19 -19 -35 -30 -35 -25 0 4 -9 0 -20 -10 -11 -10
-20 -23 -20 -30 0 -15 -35 -47 -43 -39 -6 7 -247 -236 -244 -246 1 -4 -43 -58
-98 -121 -55 -62 -127 -145 -160 -184 -73 -88 -297 -335 -302 -335 -7 0 253
306 373 437 120 132 171 193 161 193 -9 0 -432 -455 -493 -530 -33 -41 -88
-114 -122 -162 -39 -54 -108 -129 -180 -195 -133 -123 -357 -343 -327 -322 38
27 331 305 500 474 94 93 233 242 310 330 77 88 169 192 206 231 91 98 150
174 143 185 -3 5 -2 8 3 7 4 -2 49 42 99 97 90 98 173 178 109 105 -17 -19
-60 -66 -96 -105 -36 -38 -99 -113 -140 -165 -42 -52 -83 -101 -93 -109 -26
-22 -63 -76 -44 -65 9 5 67 70 130 144 118 139 325 356 333 349 2 -3 -25 -38
-61 -79 -71 -82 -99 -126 -85 -134 5 -3 11 4 15 17 8 33 143 190 199 233 39
29 48 41 44 60 -4 24 38 71 136 148 l48 38 -16 -38 c-21 -50 -73 -119 -224
-294 -171 -200 -644 -711 -860 -932 -53 -54 -91 -98 -85 -98 20 0 717 733 812
853 19 23 102 116 186 207 159 173 204 231 238 306 11 25 22 43 25 41 7 -8
-32 -91 -68 -144 -19 -26 -103 -125 -189 -219 -85 -94 -184 -204 -220 -245
-109 -124 -469 -506 -618 -654 -265 -264 -497 -490 -642 -625 -307 -287 -750
-733 -794 -800 -25 -37 -62 -88 -84 -113 -22 -25 -90 -117 -151 -204 -61 -87
-152 -210 -203 -273 -50 -63 -125 -157 -166 -208 l-74 -93 40 20 c87 45 255
237 422 485 69 103 140 195 188 243 42 43 89 94 105 113 l27 35 -10 -30 c-6
-17 -39 -56 -74 -87 -44 -40 -103 -115 -199 -255 -76 -109 -182 -250 -237
-313 -56 -63 -134 -158 -174 -210 -40 -52 -243 -268 -449 -480 l-377 -385 0
-62 c0 -35 1 -63 3 -63 2 0 80 82 173 182 93 100 245 263 338 363 273 293 621
701 746 875 61 86 335 431 425 535 33 39 116 139 184 224 125 155 216 255 455
499 119 121 247 239 220 202 -136 -186 -249 -330 -420 -530 -115 -135 -309
-364 -430 -510 -209 -249 -344 -404 -764 -870 -240 -266 -670 -729 -812 -876
-126 -129 -145 -164 -88 -164 24 0 44 15 103 78 275 289 608 665 852 961 88
107 238 284 333 393 96 110 297 346 447 526 150 180 341 408 425 507 83 99
213 261 287 360 75 99 166 214 203 255 37 41 92 109 122 150 30 41 109 131
174 200 66 69 158 170 206 225 117 136 241 265 228 238 -19 -41 -112 -145
-329 -370 -194 -201 -276 -302 -258 -319 10 -10 36 15 77 76 20 30 75 93 121
140 46 47 115 119 153 160 42 46 52 55 26 22 -24 -29 -92 -107 -152 -174 -61
-66 -127 -146 -147 -178 -20 -31 -95 -131 -167 -221 -72 -90 -140 -181 -153
-201 -12 -21 -27 -37 -33 -35 -17 3 -53 -55 -103 -171 -47 -107 -49 -110 -242
-322 -107 -118 -201 -227 -209 -242 -8 -15 -19 -51 -24 -79 -9 -45 -23 -67
-107 -166 -170 -199 -210 -253 -223 -296 -8 -27 -41 -76 -94 -137 -264 -306
-307 -362 -367 -475 -58 -108 -99 -169 -260 -380 -150 -198 -309 -429 -309
-450 0 -30 34 -4 107 81 94 110 346 426 473 594 52 69 131 170 175 225 44 54
85 109 90 122 12 26 248 311 330 398 53 57 59 47 11 -20 -24 -32 -45 -78 -28
-60 5 6 52 66 104 135 52 69 126 165 166 214 59 74 70 93 66 116 -5 23 9 43
113 156 65 71 189 211 274 312 222 264 306 363 374 440 33 37 72 83 87 102 15
19 27 30 28 24 0 -14 -59 -95 -115 -156 -22 -24 -41 -47 -42 -51 -2 -4 -5 -7
-8 -7 -3 0 -32 -30 -65 -67 -58 -67 -71 -94 -28 -57 13 10 -31 -37 -97 -106
-66 -69 -183 -204 -260 -300 -77 -96 -167 -204 -199 -240 l-60 -65 63 60 c34
33 142 154 239 270 98 115 231 266 297 335 66 69 151 165 190 212 38 48 71 85
73 83 5 -5 -80 -166 -153 -290 -78 -132 -211 -319 -670 -945 -127 -173 -275
-378 -330 -455 -76 -107 -784 -1055 -837 -1122 -8 -10 2 -13 43 -13 51 0 55 2
79 37 14 20 73 87 132 149 102 108 297 362 550 715 65 90 238 331 385 534 658
912 761 1062 928 1350 135 234 280 445 594 870 70 94 148 201 175 238 26 38
74 96 105 130 116 125 292 366 524 717 96 146 227 362 227 376 0 2 -8 4 -18 4
-28 0 -242 -232 -242 -263 0 -44 -44 -118 -169 -286 -76 -102 -152 -208 -169
-236 -29 -46 -31 -48 -39 -27 -7 19 -11 20 -24 10 -38 -31 -296 -344 -476
-578 -45 -58 -149 -182 -233 -275 -248 -278 -282 -323 -326 -438 -19 -46 -171
-244 -207 -266 -13 -9 -10 3 14 51 77 154 368 530 524 678 20 19 46 49 57 65
12 17 -17 -6 -63 -51 -46 -45 -111 -102 -145 -127 -80 -60 -175 -163 -343
-371 -76 -94 -178 -214 -227 -268 -97 -105 -193 -194 -176 -163 5 11 19 28 30
38 11 10 45 69 76 130 44 90 86 150 207 302 216 271 335 408 516 590 196 199
425 460 512 583 38 55 18 36 -60 -55 -106 -126 -358 -400 -415 -453 -27 -25
-8 -2 42 50 50 52 108 116 130 141 74 86 288 324 350 389 34 36 82 87 107 115
25 27 49 47 53 43 4 -4 1 -15 -7 -25 -9 -11 -10 -14 -2 -9 7 4 18 16 24 28 9
16 8 19 -3 13 -8 -4 -8 -2 2 7 8 7 27 32 42 54 63 97 488 574 525 589 12 5 14
9 6 12 -16 6 -199 -135 -259 -200 -27 -29 -96 -105 -154 -170 -57 -64 -108
-117 -113 -117 -4 0 39 51 96 113 57 63 121 136 142 163 21 27 75 86 119 132
l81 82 -33 0 c-19 0 -49 -11 -69 -25 -20 -13 -40 -22 -44 -20 -4 3 -36 -28
-70 -68 -35 -39 -55 -65 -44 -57 18 14 19 14 7 -2 -8 -10 -17 -17 -20 -16 -28
5 -166 -111 -337 -286 -27 -28 -86 -82 -130 -120 -44 -38 33 44 170 181 232
231 404 413 392 413 -3 0 -43 -39 -88 -87z m375 -75 c-58 -98 -243 -362 -384
-548 -52 -69 -116 -156 -142 -194 -27 -38 -48 -66 -48 -62 0 24 97 168 285
421 61 83 127 173 145 200 53 79 140 195 146 195 3 0 2 -6 -2 -12z m-361 -180
c-76 -84 -174 -193 -218 -243 -44 -49 -147 -162 -229 -250 -82 -88 -194 -211
-249 -273 -54 -62 -102 -111 -104 -108 -12 11 73 112 392 466 78 87 537 559
543 560 2 0 -59 -69 -135 -152z m-93 9 c0 -2 -10 -12 -22 -23 l-23 -19 19 23
c18 21 26 27 26 19z m-640 -1279 c-12 -39 -46 -91 -113 -171 -29 -34 -96 -116
-149 -182 -154 -192 -154 -192 -174 -179 -25 15 -35 61 -21 95 7 16 88 111
182 211 194 209 235 249 246 242 4 -2 10 0 14 6 14 22 23 8 15 -22z m-871
-411 c-36 -34 -81 -70 -100 -81 l-34 -19 20 21 c37 39 160 141 170 141 6 0
-20 -28 -56 -62z m-270 -224 c-28 -38 -84 -93 -93 -93 -6 0 14 25 44 55 55 55
74 70 49 38z m171 -90 c0 -5 -10 -19 -21 -33 l-21 -25 18 33 c18 32 24 38 24
25z m202 -60 c-5 -10 -7 -25 -5 -33 4 -12 3 -13 -5 -1 -8 11 -13 7 -26 -18 -9
-17 -21 -29 -26 -26 -6 4 -10 -3 -10 -14 0 -18 -68 -104 -264 -331 l-38 -45
28 50 c15 28 42 79 61 115 25 49 64 96 160 192 71 69 129 127 131 127 1 1 -1
-7 -6 -16z m-800 -320 c-10 -15 -35 -53 -54 -83 -37 -58 -149 -199 -207 -259
l-34 -36 29 40 c15 22 56 75 91 118 41 51 63 87 64 105 0 15 4 35 7 45 7 17
114 107 120 101 2 -1 -5 -15 -16 -31z m448 -51 c0 -31 -259 -344 -360 -435
-63 -57 -96 -81 -98 -71 -2 8 14 35 35 60 76 90 86 104 92 133 4 20 54 81 149
180 138 145 182 177 182 133z m-723 -205 c-24 -35 -61 -105 -82 -155 -46 -112
-65 -133 -65 -73 0 47 16 82 73 161 36 49 106 130 114 130 2 0 -17 -29 -40
-63z m-99 -75 c-7 -17 -113 -151 -120 -151 -4 -1 -5 14 -1 32 6 34 87 127 111
127 7 0 12 -4 10 -8z m422 -266 c0 -28 -225 -305 -237 -292 -19 18 135 233
204 285 34 25 33 24 33 7z"/>
<path d="M4370 5105 c-20 -24 -6 -28 15 -5 10 11 13 20 8 20 -6 0 -16 -7 -23
-15z"/>
<path d="M4793 5008 c-39 -62 -117 -189 -173 -283 -57 -93 -178 -285 -270
-425 -92 -140 -200 -313 -240 -385 -40 -71 -90 -155 -110 -185 -63 -94 -177
-285 -318 -530 -74 -129 -191 -321 -261 -427 -69 -105 -148 -233 -176 -284
-27 -51 -84 -138 -125 -194 -381 -519 -489 -681 -710 -1065 -111 -193 -205
-370 -195 -370 2 0 128 186 278 413 274 411 422 615 677 933 75 93 165 210
200 259 58 80 143 195 220 295 15 19 35 57 45 84 11 31 38 70 72 105 55 56 84
94 143 186 l31 50 -43 -48 c-37 -41 -68 -60 -68 -42 0 14 54 110 103 183 30
45 53 82 51 82 -7 0 -79 -104 -157 -225 -65 -102 -156 -223 -131 -175 10 19
188 289 284 430 104 155 502 817 787 1310 72 124 156 265 187 314 31 50 56 94
56 98 0 4 -19 8 -43 8 l-43 0 -71 -112z m-3 -78 c-6 -11 -13 -20 -16 -20 -2 0
0 9 6 20 6 11 13 20 16 20 2 0 0 -9 -6 -20z m-23 -37 c-2 -5 -26 -46 -52 -93
-27 -47 -153 -260 -280 -475 -128 -214 -271 -457 -319 -540 -86 -150 -111
-184 -57 -77 64 127 697 1192 708 1192 2 0 2 -3 0 -7z m-1167 -1997 c0 -2 -8
-10 -17 -17 -16 -13 -17 -12 -4 4 13 16 21 21 21 13z m-218 -298 c-21 -29 -76
-111 -121 -181 -46 -70 -86 -126 -88 -123 -11 11 71 141 174 274 71 91 95 112
35 30z"/>
<path d="M4884 4952 c-145 -264 -234 -438 -234 -455 0 -9 -45 -103 -100 -208
-56 -105 -132 -257 -169 -337 -87 -185 -279 -572 -446 -897 -130 -252 -203
-371 -281 -456 -59 -65 -183 -234 -259 -354 -154 -245 -217 -349 -251 -417
-20 -40 -92 -154 -159 -254 -137 -202 -162 -241 -318 -504 -60 -102 -170 -282
-245 -400 -179 -284 -412 -661 -412 -666 0 -2 60 -4 133 -4 l132 0 201 338
c608 1022 729 1229 926 1587 156 282 316 597 382 750 21 50 63 133 92 185 63
110 306 597 489 980 69 146 169 348 222 449 75 145 93 188 85 201 -8 13 -4 27
17 61 16 24 83 145 151 269 67 124 126 227 131 228 5 2 7 8 3 13 -3 5 0 9 6 9
6 0 9 4 6 9 -3 5 1 11 9 15 21 8 19 26 -2 26 -13 0 -46 -51 -109 -168z m-1177
-2389 c-7 -16 -73 -120 -148 -233 -75 -113 -160 -243 -189 -290 -164 -261
-220 -340 -245 -340 -14 0 -25 2 -25 4 0 3 22 40 49 83 26 43 88 148 136 233
148 261 282 453 379 541 41 38 59 38 43 2z"/>
<path d="M4931 4918 c-55 -113 -109 -224 -120 -247 -12 -22 -19 -41 -16 -41 9
0 247 482 241 488 -3 3 -51 -87 -105 -200z"/>
<path d="M4135 4958 l-40 -43 43 40 c39 36 47 45 39 45 -2 0 -21 -19 -42 -42z"/>
<path d="M5063 4897 c-28 -50 -72 -134 -98 -186 -56 -112 -265 -653 -265 -685
0 -12 18 -57 40 -99 42 -79 48 -109 28 -152 -8 -17 -17 -24 -27 -20 -9 4 -20
7 -25 8 -5 1 -24 -37 -41 -84 -18 -47 -80 -200 -138 -341 -149 -359 -196 -501
-356 -1080 -21 -75 -20 -135 2 -121 6 4 8 -10 5 -41 -3 -27 -2 -44 3 -39 14
14 186 407 266 608 42 105 138 375 213 600 76 226 145 429 155 453 19 46 55
72 101 72 26 0 27 -1 20 -52 -10 -74 -156 -727 -226 -1008 -57 -228 -108 -405
-115 -398 -3 3 13 72 148 638 83 346 120 550 99 550 -13 0 -10 9 -66 -210 -84
-326 -195 -794 -231 -980 -45 -226 -82 -378 -140 -564 -47 -151 -185 -617
-216 -729 -29 -102 -81 -339 -76 -344 3 -2 12 29 22 69 10 40 21 76 25 81 3 4
40 -4 81 -19 108 -38 112 -37 122 16 4 25 7 54 7 65 0 11 20 110 45 220 25
110 74 335 109 500 36 165 79 359 96 430 82 345 244 1055 268 1175 26 134 27
134 36 90 17 -77 11 -138 -38 -378 -26 -128 -46 -237 -44 -243 4 -11 94 440
158 791 23 124 57 294 76 379 20 89 34 174 32 200 -2 34 -16 -22 -56 -224 -30
-149 -67 -335 -83 -415 l-28 -145 4 85 c2 47 22 182 45 300 23 118 45 236 47
261 6 53 17 46 -117 70 -118 20 -170 55 -170 115 0 34 65 227 145 429 51 129
101 233 172 358 24 44 43 81 40 83 -2 2 -26 -38 -54 -89z m-222 -1058 c-16
-46 -50 -147 -76 -224 -142 -426 -223 -651 -232 -642 -3 3 153 465 287 852 43
125 42 121 46 109 3 -6 -9 -48 -25 -95z m-457 -2341 c-7 -150 -61 -346 -106
-383 -16 -14 -33 -25 -38 -25 -4 0 8 55 26 123 45 161 116 397 120 397 1 0 0
-51 -2 -112z"/>
<path d="M3479 4873 c-13 -16 -12 -17 4 -4 16 13 21 21 13 21 -2 0 -10 -8 -17
-17z"/>
<path d="M4059 4873 c-13 -16 -12 -17 4 -4 16 13 21 21 13 21 -2 0 -10 -8 -17
-17z"/>
<path d="M5067 4835 c-24 -50 -20 -58 4 -12 11 22 19 41 17 43 -3 2 -12 -12
-21 -31z"/>
<path d="M3425 4834 l-30 -26 33 22 c17 12 32 23 32 26 0 7 -4 5 -35 -22z"/>
<path d="M2980 4795 c-19 -20 -37 -75 -25 -75 7 0 57 91 53 95 -3 3 -15 -6
-28 -20z"/>
<path d="M3369 4793 c-13 -16 -12 -17 4 -4 16 13 21 21 13 21 -2 0 -10 -8 -17
-17z"/>
<path d="M3329 4763 c-13 -16 -12 -17 4 -4 9 7 17 15 17 17 0 8 -8 3 -21 -13z"/>
<path d="M5001 4684 c-23 -53 -40 -98 -38 -100 2 -2 22 40 45 93 23 53 40 98
38 100 -2 2 -22 -40 -45 -93z"/>
<path d="M3530 4673 l-95 -98 98 95 c53 52 97 96 97 97 0 8 -12 -4 -100 -94z"/>
<path d="M2728 4213 c-190 -197 -384 -401 -430 -453 -132 -150 -206 -220 -347
-324 -72 -54 -131 -100 -131 -102 0 -7 220 146 290 202 37 28 90 80 120 115
103 120 254 284 476 514 204 213 381 405 371 405 -2 0 -159 -161 -349 -357z"/>
<path d="M4946 4555 c-9 -26 -7 -32 5 -12 6 10 9 21 6 23 -2 3 -7 -2 -11 -11z"/>
<path d="M2629 4513 c-13 -16 -12 -17 4 -4 9 7 17 15 17 17 0 8 -8 3 -21 -13z"/>
<path d="M4886 4404 c-26 -64 -45 -118 -43 -121 2 -2 25 49 50 114 26 64 45
119 43 120 -2 2 -25 -49 -50 -113z"/>
<path d="M3244 4458 c-28 -29 -91 -100 -139 -158 -123 -147 -159 -184 -245
-253 -41 -33 -75 -63 -75 -67 0 -3 -18 -28 -41 -56 -22 -27 -73 -97 -112 -156
-73 -109 -148 -191 -214 -236 -46 -30 -51 -42 -6 -14 79 50 160 136 238 255
65 96 117 158 249 292 137 139 411 445 399 445 -2 0 -26 -24 -54 -52z"/>
<path d="M3595 4430 c-38 -38 -65 -70 -59 -70 9 0 75 65 118 118 36 42 10 22
-59 -48z"/>
<path d="M1380 4388 c-100 -62 -271 -155 -902 -494 -241 -129 -439 -225 -450
-218 -6 4 -8 3 -5 -3 4 -6 0 -13 -8 -17 -8 -3 -15 -10 -15 -15 0 -19 358 156
625 306 88 49 210 116 270 148 117 62 543 313 585 345 46 36 15 20 -100 -52z"/>
<path d="M3614 4408 l-29 -33 33 29 c30 28 37 36 29 36 -2 0 -16 -15 -33 -32z"/>
<path d="M5022 4340 c-12 -43 -38 -123 -58 -176 -25 -67 -32 -99 -25 -105 6
-5 9 -7 7 -3 -2 3 9 40 24 82 33 91 83 272 77 278 -2 2 -13 -32 -25 -76z"/>
<path d="M2489 4393 c-13 -16 -12 -17 4 -4 9 7 17 15 17 17 0 8 -8 3 -21 -13z"/>
<path d="M470 4294 l-185 -23 200 6 c241 6 294 9 301 16 6 5 -36 14 -101 21
-16 2 -113 -7 -215 -20z"/>
<path d="M2329 4298 c0 -2 -2 -11 -4 -21 -3 -18 -3 -18 18 0 12 10 24 19 26
20 2 2 -5 3 -17 3 -12 0 -22 -1 -23 -2z"/>
<path d="M3061 3973 c-94 -97 -168 -179 -166 -182 3 -2 14 4 26 15 32 29 321
344 316 344 -3 0 -82 -80 -176 -177z"/>
<path d="M2635 4068 l-70 -73 73 70 c67 64 77 75 69 75 -1 0 -34 -33 -72 -72z"/>
<path d="M1379 4111 c-36 -5 -79 -29 -191 -103 -80 -54 -149 -105 -153 -115
-15 -37 -23 -72 -18 -77 5 -5 144 79 340 206 75 49 127 77 135 72 9 -5 10 -4
3 3 -15 16 -64 21 -116 14z"/>
<path d="M800 3942 c-64 -37 -138 -81 -165 -98 -206 -130 -266 -164 -277 -158
-7 4 -8 3 -4 -4 8 -14 -53 -54 -67 -45 -6 3 -7 1 -4 -4 4 -6 -6 -17 -21 -24
-15 -8 -80 -45 -145 -84 l-117 -70 0 -44 0 -43 28 18 c31 20 200 126 377 234
65 41 142 94 170 120 27 25 113 85 190 135 131 84 164 109 165 128 0 13 -15 6
-130 -61z"/>
<path d="M2687 3926 c-128 -88 -120 -90 13 -3 82 53 87 57 74 56 -5 0 -44 -24
-87 -53z"/>
<path d="M2505 3928 l-40 -43 43 40 c39 36 47 45 39 45 -2 0 -21 -19 -42 -42z"/>
<path d="M1710 3899 c-14 -12 -58 -39 -98 -61 -40 -22 -71 -42 -68 -45 10 -10
181 90 190 112 7 19 6 19 -24 -6z"/>
<path d="M2424 3838 l-19 -23 23 19 c21 18 27 26 19 26 -2 0 -12 -10 -23 -22z"/>
<path d="M4546 3837 c-24 -35 -328 -658 -324 -662 2 -2 80 151 174 340 94 190
169 345 167 345 -1 0 -9 -10 -17 -23z"/>
<path d="M780 3744 c-119 -73 -193 -114 -205 -114 -3 0 -5 11 -5 25 l0 25 -59
-30 c-70 -35 -195 -110 -378 -227 l-133 -85 0 -149 0 -148 122 84 c301 207
565 357 846 481 l132 58 -60 57 c-51 49 -118 99 -132 99 -2 0 -60 -34 -128
-76z"/>
<path d="M2329 3733 l-34 -38 38 34 c34 33 42 41 34 41 -2 0 -19 -17 -38 -37z"/>
<path d="M2259 3653 l-24 -28 28 24 c25 23 32 31 24 31 -2 0 -14 -12 -28 -27z"/>
<path d="M3724 3587 c-290 -437 -434 -662 -425 -665 6 -2 11 -12 11 -23 0 -54
31 -10 318 446 79 127 153 242 163 257 19 27 19 27 0 38 -11 5 -21 10 -23 10
-2 0 -22 -28 -44 -63z"/>
<path d="M1292 3599 c-66 -37 -71 -42 -55 -54 10 -7 20 -10 23 -7 3 4 22 16
43 26 20 11 37 23 37 28 0 5 4 6 10 3 6 -4 7 1 3 12 -6 16 -5 17 13 3 17 -14
18 -13 7 1 -7 9 -10 19 -6 22 13 13 -3 6 -75 -34z"/>
<path d="M2214 3598 l-19 -23 23 19 c21 18 27 26 19 26 -2 0 -12 -10 -23 -22z"/>
<path d="M2174 3548 l-19 -23 23 19 c21 18 27 26 19 26 -2 0 -12 -10 -23 -22z"/>
<path d="M4039 3472 c-57 -88 -170 -295 -152 -277 24 24 166 210 185 241 12
20 18 43 15 56 -3 12 -1 30 4 40 6 11 9 21 7 23 -2 2 -29 -35 -59 -83z"/>
<path d="M1139 3503 c-13 -16 -12 -17 4 -4 9 7 17 15 17 17 0 8 -8 3 -21 -13z"/>
<path d="M2104 3488 l-29 -33 33 29 c30 28 37 36 29 36 -2 0 -16 -15 -33 -32z"/>
<path d="M2279 3455 c-54 -28 -139 -87 -235 -164 -82 -67 -167 -130 -189 -141
-22 -11 -92 -68 -155 -127 -230 -215 -421 -373 -665 -548 -174 -125 -218 -159
-497 -391 -114 -95 -281 -232 -372 -304 -91 -73 -166 -139 -166 -148 0 -13 2
-13 18 0 9 8 136 111 280 229 145 118 309 252 365 297 56 46 183 145 282 220
302 228 592 465 760 621 43 40 37 32 -20 -27 -48 -49 -73 -82 -63 -82 16 0
264 226 261 238 -3 10 29 42 41 42 6 0 0 -9 -14 -20 -14 -11 -22 -20 -17 -20
12 0 178 142 172 148 -7 7 25 42 38 42 6 0 2 -10 -9 -22 l-19 -23 22 19 c13
10 20 22 17 27 -7 12 108 95 189 135 37 19 67 36 67 39 0 7 4 9 -91 -40z
m-223 -183 c-3 -4 -33 -30 -68 -56 l-63 -48 60 56 c53 49 85 71 71 48z m-236
-176 c0 -2 -8 -10 -17 -17 -16 -13 -17 -12 -4 4 13 16 21 21 21 13z"/>
<path d="M3966 3423 c-20 -32 -27 -46 -14 -31 26 30 62 88 55 88 -2 0 -21 -26
-41 -57z"/>
<path d="M888 3367 c-169 -87 -320 -180 -593 -366 -110 -75 -221 -150 -247
-166 -44 -27 -48 -33 -48 -69 0 -32 3 -37 17 -32 9 4 86 55 170 114 84 59 236
164 336 234 173 121 360 239 401 254 15 6 18 4 12 -7 -4 -8 0 -5 9 6 9 11 21
19 26 18 5 -2 9 2 9 8 0 5 5 7 10 4 6 -3 13 1 16 9 3 9 10 14 14 11 5 -3 12 0
16 6 4 8 3 9 -4 5 -16 -9 -15 7 0 22 33 33 -14 16 -144 -51z"/>
<path d="M5093 3254 c-85 -487 -125 -683 -152 -762 -22 -63 -48 -194 -95 -477
-98 -587 -115 -703 -136 -913 -11 -106 -22 -198 -26 -203 -7 -12 -74 -42 -80
-36 -2 2 3 41 11 88 18 102 18 102 3 97 -14 -5 -12 4 -78 -323 -66 -326 -130
-671 -130 -701 0 -24 0 -24 119 -24 l119 0 6 27 c24 113 72 519 92 765 5 75 6
77 35 83 16 4 31 11 34 16 6 8 18 174 50 644 17 259 17 264 51 540 36 296 48
354 87 431 39 78 44 101 87 375 26 167 30 219 28 349 l-3 153 -22 -129z m-256
-1606 c-3 -7 -5 -2 -5 12 0 14 2 19 5 13 2 -7 2 -19 0 -25z m-11 -85 c-19
-194 -89 -649 -102 -663 -18 -19 -19 -31 21 245 38 263 76 485 83 485 3 0 2
-30 -2 -67z"/>
<path d="M2139 3333 c-13 -16 -12 -17 4 -4 16 13 21 21 13 21 -2 0 -10 -8 -17
-17z"/>
<path d="M1644 3320 c-5 -5 -64 -39 -131 -74 -67 -36 -188 -107 -270 -158 -81
-52 -166 -104 -188 -117 -25 -14 -63 -54 -104 -109 -93 -125 -204 -262 -213
-262 -4 0 -14 -12 -22 -27 -8 -16 -43 -59 -77 -98 -70 -79 -173 -215 -167
-220 2 -2 24 24 48 58 76 104 207 226 395 369 99 75 218 169 265 209 114 99
480 430 480 435 0 7 -5 5 -16 -6z"/>
<path d="M4201 2926 c-54 -58 -261 -730 -261 -848 0 -40 -12 -75 -59 -176 -32
-70 -62 -143 -66 -162 -11 -55 -183 -565 -222 -660 -19 -47 -82 -222 -138
-390 -57 -168 -131 -383 -164 -479 -59 -168 -70 -211 -53 -211 4 0 88 240 187
534 99 294 182 531 185 526 6 -9 177 517 216 663 26 98 100 251 139 287 28 27
104 43 160 34 32 -5 38 -4 28 7 -7 7 -47 14 -93 17 -54 3 -80 8 -77 16 58 151
257 808 257 847 0 25 -12 24 -39 -5z"/>
<path d="M5087 2720 c-15 -102 -37 -214 -47 -250 -28 -96 -42 -247 -35 -358
11 -167 -41 -1192 -70 -1367 -3 -16 -9 -174 -15 -350 -5 -176 -13 -337 -16
-358 -6 -32 -4 -37 13 -37 20 0 20 9 26 322 3 178 13 404 21 503 8 99 20 277
26 395 21 411 50 836 70 1025 11 105 29 276 41 381 29 273 21 327 -14 94z"/>
<path d="M3842 2757 c-22 -39 -55 -106 -72 -147 -88 -210 -474 -965 -685
-1340 -76 -135 -179 -319 -230 -410 -128 -229 -415 -766 -415 -777 0 -10 72
117 211 375 114 211 249 455 484 872 237 422 537 1010 644 1260 29 69 66 149
82 179 43 81 29 72 -19 -12z"/>
<path d="M4841 2654 c0 -11 3 -14 6 -6 3 7 2 16 -1 19 -3 4 -6 -2 -5 -13z"/>
<path d="M4531 2611 c-34 -47 -225 -455 -267 -569 -28 -78 -43 -106 -60 -112
-12 -5 -27 -24 -33 -42 -27 -75 -111 -321 -111 -325 0 -2 14 -3 32 -1 l32 3
95 290 c87 263 107 313 217 535 67 135 120 246 119 248 -2 2 -12 -10 -24 -27z"/>
<path d="M4832 2610 c0 -14 2 -19 5 -12 2 6 2 18 0 25 -3 6 -5 1 -5 -13z"/>
<path d="M1015 2586 c-16 -12 -102 -76 -190 -141 -88 -66 -245 -187 -350 -270
-104 -83 -254 -200 -332 -259 l-143 -109 0 -64 0 -65 68 53 c159 126 508 409
697 567 87 72 203 196 267 285 23 32 22 33 -17 3z"/>
<path d="M1293 2466 c-29 -18 -61 -40 -71 -49 -24 -22 -38 -22 -21 0 16 19
-21 -4 -116 -76 -103 -76 -345 -282 -345 -292 0 -6 -4 -8 -9 -5 -11 7 -383
-302 -377 -313 3 -4 -41 -49 -97 -100 l-102 -93 100 96 c55 53 94 96 88 96 -6
0 -86 -73 -178 -162 -160 -158 -165 -164 -165 -203 l0 -40 63 65 c344 362 437
456 518 525 51 44 90 74 85 67 -4 -7 -45 -44 -89 -82 -45 -38 -193 -190 -329
-337 -247 -267 -248 -268 -248 -313 l0 -45 403 401 c492 492 774 756 910 854
26 18 47 35 47 37 0 8 -19 -1 -67 -31z m-366 -324 c-280 -276 -373 -364 -424
-400 -77 -55 -6 46 136 193 53 54 87 92 76 84 -35 -28 -51 -32 -20 -6 16 14
33 23 37 21 4 -3 46 31 94 76 100 92 341 289 356 290 4 0 -111 -116 -255 -258z
m-767 -615 c0 -2 -15 -16 -32 -33 l-33 -29 29 33 c28 30 36 37 36 29z"/>
<path d="M4692 2179 c-93 -391 -123 -530 -177 -825 -44 -233 -50 -272 -41
-263 2 2 34 159 71 349 36 189 102 497 146 684 44 187 78 344 76 349 -1 5 -35
-127 -75 -294z"/>
<path d="M4440 2158 c-6 -18 -57 -165 -111 -327 -55 -162 -107 -307 -115 -323
-14 -28 -16 -28 -103 -28 -59 0 -92 -4 -98 -12 -5 -7 -17 -40 -27 -73 -10 -33
-67 -195 -126 -360 -143 -399 -253 -736 -299 -922 -12 -45 -24 -89 -27 -97 -5
-13 3 -16 53 -16 l58 0 18 88 c27 128 136 561 147 583 13 23 82 64 144 85 25
9 50 23 55 33 4 9 32 94 61 189 37 119 56 169 63 160 6 -9 7 -8 3 5 -8 26 188
647 290 916 47 124 49 131 35 131 -5 0 -14 -15 -21 -32z"/>
<path d="M2164 1884 c-111 -129 -361 -451 -329 -424 23 19 98 109 374 450 49
61 76 100 68 100 -1 0 -52 -57 -113 -126z"/>
<path d="M4096 1794 c-9 -26 -14 -49 -12 -51 2 -2 11 17 20 43 9 26 14 49 12
51 -2 2 -11 -17 -20 -43z"/>
<path d="M3069 1783 c-13 -16 -12 -17 4 -4 9 7 17 15 17 17 0 8 -8 3 -21 -13z"/>
<path d="M2409 1743 c-13 -16 -12 -17 4 -4 9 7 17 15 17 17 0 8 -8 3 -21 -13z"/>
<path d="M3039 1743 c-13 -16 -12 -17 4 -4 9 7 17 15 17 17 0 8 -8 3 -21 -13z"/>
<path d="M2962 1638 c-32 -46 -123 -177 -202 -293 -79 -115 -200 -286 -269
-380 -193 -263 -511 -731 -630 -927 l-23 -38 34 0 c31 0 37 6 87 88 102 163
258 406 356 557 54 83 177 272 273 420 158 245 357 539 420 623 13 17 22 32
19 32 -3 0 -32 -37 -65 -82z"/>
<path d="M4046 1655 c-9 -26 -7 -32 5 -12 6 10 9 21 6 23 -2 3 -7 -2 -11 -11z"/>
<path d="M779 1423 c-48 -49 -193 -209 -324 -358 -130 -148 -286 -322 -346
-387 -60 -64 -109 -120 -109 -124 0 -23 253 251 561 606 106 123 220 252 253
287 32 35 57 63 54 63 -2 0 -42 -39 -89 -87z"/>
<path d="M2210 1460 c-12 -16 -19 -30 -16 -30 2 0 14 14 26 30 12 17 19 30 16
30 -2 0 -14 -13 -26 -30z"/>
<path d="M3960 1414 c0 -8 5 -12 10 -9 6 4 8 11 5 16 -9 14 -15 11 -15 -7z"/>
<path d="M2160 1390 c-12 -16 -19 -30 -16 -30 2 0 14 14 26 30 12 17 19 30 16
30 -2 0 -14 -13 -26 -30z"/>
<path d="M4628 1298 c-6 -87 -4 -98 13 -81 14 14 17 155 3 160 -8 2 -13 -24
-16 -79z"/>
<path d="M2110 1319 c-12 -16 -21 -32 -18 -34 2 -2 13 12 26 31 28 42 21 45
-8 3z"/>
<path d="M2035 1213 c-21 -32 -47 -68 -58 -80 -11 -13 -16 -23 -11 -23 10 0
117 150 111 156 -2 2 -21 -22 -42 -53z"/>
<path d="M4121 1094 c0 -11 3 -14 6 -6 3 7 2 16 -1 19 -3 4 -6 -2 -5 -13z"/>
<path d="M1945 1090 c-3 -5 -1 -10 4 -10 6 0 11 5 11 10 0 6 -2 10 -4 10 -3 0
-8 -4 -11 -10z"/>
<path d="M4461 1064 c0 -11 3 -14 6 -6 3 7 2 16 -1 19 -3 4 -6 -2 -5 -13z"/>
<path d="M1925 1060 c-3 -5 -1 -10 4 -10 6 0 11 5 11 10 0 6 -2 10 -4 10 -3 0
-8 -4 -11 -10z"/>
<path d="M4111 1054 c0 -11 3 -14 6 -6 3 7 2 16 -1 19 -3 4 -6 -2 -5 -13z"/>
<path d="M1892 1009 c-19 -30 -11 -32 11 -3 10 13 14 24 10 24 -5 0 -14 -9
-21 -21z"/>
<path d="M4101 1014 c0 -11 3 -14 6 -6 3 7 2 16 -1 19 -3 4 -6 -2 -5 -13z"/>
<path d="M4061 873 c-17 -65 -67 -264 -111 -443 -45 -179 -87 -349 -94 -377
-7 -29 -10 -53 -5 -53 10 0 16 23 78 300 28 124 78 328 111 454 33 126 59 230
57 233 -2 2 -18 -49 -36 -114z"/>
<path d="M1855 960 c-3 -5 -1 -10 4 -10 6 0 11 5 11 10 0 6 -2 10 -4 10 -3 0
-8 -4 -11 -10z"/>
<path d="M1751 809 c-35 -50 -61 -92 -59 -94 2 -2 32 37 67 86 35 50 61 92 59
94 -2 3 -33 -36 -67 -86z"/>
<path d="M866 713 c-87 -98 -268 -296 -402 -440 -134 -144 -244 -264 -244
-267 0 -3 18 -6 40 -6 37 0 46 6 108 72 269 286 605 677 662 771 18 29 18 47
2 47 -4 0 -79 -80 -166 -177z"/>
<path d="M4862 720 c-7 -63 -31 -249 -52 -412 -22 -164 -40 -300 -40 -303 0
-3 6 -5 13 -5 10 0 18 41 31 153 49 443 66 615 64 647 -2 19 -9 -17 -16 -80z"/>
<path d="M4301 523 c-70 -290 -112 -484 -109 -502 2 -9 23 74 47 184 24 110
61 272 82 359 22 87 38 161 35 163 -2 2 -27 -89 -55 -204z"/>
<path d="M1655 680 c-3 -5 -2 -10 4 -10 5 0 13 5 16 10 3 6 2 10 -4 10 -5 0
-13 -4 -16 -10z"/>
<path d="M4111 664 c0 -11 3 -14 6 -6 3 7 2 16 -1 19 -3 4 -6 -2 -5 -13z"/>
<path d="M1635 650 c-3 -5 -1 -10 4 -10 6 0 11 5 11 10 0 6 -2 10 -4 10 -3 0
-8 -4 -11 -10z"/>
<path d="M4101 624 c0 -11 3 -14 6 -6 3 7 2 16 -1 19 -3 4 -6 -2 -5 -13z"/>
<path d="M1610 609 c0 -5 5 -7 10 -4 6 3 10 8 10 11 0 2 -4 4 -10 4 -5 0 -10
-5 -10 -11z"/>
<path d="M1587 583 c-4 -3 -7 -11 -7 -17 0 -6 5 -5 12 2 6 6 9 14 7 17 -3 3
-9 2 -12 -2z"/>
<path d="M1555 540 c-3 -5 -1 -10 4 -10 6 0 11 5 11 10 0 6 -2 10 -4 10 -3 0
-8 -4 -11 -10z"/>
<path d="M1481 430 c-34 -49 -60 -90 -58 -90 8 0 128 172 124 176 -2 3 -32
-36 -66 -86z"/>
<path d="M970 304 c0 -6 -48 -75 -106 -155 -58 -79 -100 -145 -94 -147 6 -2
12 -2 14 -1 1 2 36 49 77 104 114 151 134 184 121 197 -8 8 -12 8 -12 2z"/>
<path d="M3561 264 c0 -11 3 -14 6 -6 3 7 2 16 -1 19 -3 4 -6 -2 -5 -13z"/>
<path d="M3536 184 c-4 -14 -5 -28 -3 -31 3 -2 8 8 11 23 4 14 5 28 3 31 -3 2
-8 -8 -11 -23z"/>
<path d="M3521 124 c0 -11 3 -14 6 -6 3 7 2 16 -1 19 -3 4 -6 -2 -5 -13z"/>
<path d="M3511 84 c0 -11 3 -14 6 -6 3 7 2 16 -1 19 -3 4 -6 -2 -5 -13z"/>
<path d="M3501 53 c-1 -6 -4 -20 -7 -30 -5 -17 -5 -17 6 0 6 10 9 23 6 30 -3
9 -5 9 -5 0z"/>
</g>
</svg>