<?xml version="1.0" standalone="no"?>
<!DOCTYPE svg PUBLIC "-//W3C//DTD SVG 20010904//EN"
 "http://www.w3.org/TR/2001/REC-SVG-20010904/DTD/svg10.dtd">
<svg version="1.0" xmlns="http://www.w3.org/2000/svg"
 width="512.000000pt" height="512.000000pt" viewBox="0 0 512.000000 512.000000"
 preserveAspectRatio="xMidYMid meet">
<metadata>
Created by potrace 1.16, written by Peter Selinger 2001-2019
</metadata>
<g transform="translate(0.000000,512.000000) scale(0.100000,-0.100000)"
fill="#000000" stroke="none">
<path d="M607 5107 l103 -10 -6 -391 c-4 -215 -10 -407 -14 -426 -5 -19 -8
115 -9 303 -1 217 -5 337 -11 337 -5 0 -11 -20 -11 -45 -1 -25 -3 -49 -4 -55
-1 -5 -3 -136 -4 -290 l-1 -280 -30 0 -30 0 0 274 c0 269 0 274 20 269 19 -5
20 0 20 96 0 60 -4 101 -10 101 -5 0 -9 -8 -8 -17 1 -10 0 -39 0 -64 l-2 -45
-77 8 c-92 9 -231 28 -255 35 -13 3 -18 14 -18 39 0 28 -5 36 -27 45 -15 5
-38 9 -52 7 -23 -3 -27 -9 -31 -48 -5 -45 -5 -45 -48 -48 l-42 -3 0 -57 c0
-31 0 -171 0 -309 1 -230 -1 -253 -16 -253 -16 0 -17 26 -13 327 3 255 1 327
-8 330 -10 4 -13 -65 -13 -320 0 -179 -3 -332 -6 -340 -7 -19 42 -23 386 -37
135 -5 311 -13 393 -16 l147 -6 0 -39 0 -39 -57 5 c-69 6 -400 22 -603 30 -80
3 -173 8 -208 11 -61 6 -62 5 -62 -20 0 -16 6 -26 15 -26 12 0 15 -18 16 -92
2 -108 -1 -181 -8 -188 -2 -2 -8 2 -13 10 -6 10 -10 -34 -10 -122 l0 -138 29
0 c29 0 41 -14 41 -51 0 -15 -7 -19 -35 -19 -19 0 -35 -4 -35 -10 0 -8 465
-16 853 -15 l77 1 0 -35 0 -34 -466 5 -466 5 5 -31 c3 -17 17 -105 31 -196 14
-91 28 -171 31 -178 3 -9 -3 -12 -23 -10 -26 3 -27 6 -33 73 l-5 70 -2 -95 -2
-95 165 3 c142 3 165 1 165 -12 0 -13 -25 -16 -162 -19 l-163 -3 178 0 c164 1
177 0 177 -17 0 -10 -6 -17 -12 -16 -7 1 -88 1 -180 0 -120 -1 -168 -4 -168
-13 0 -8 51 -10 195 -5 l195 5 0 -24 0 -24 -197 -3 -198 -2 198 -3 197 -2 0
-25 c0 -14 -6 -25 -12 -26 -7 0 -95 0 -195 1 -125 1 -183 -2 -183 -9 0 -8 62
-11 191 -11 176 0 190 -1 187 -17 -3 -16 -21 -18 -191 -21 -103 -1 -187 -6
-187 -11 0 -5 251 -10 559 -12 308 -2 563 -7 567 -12 4 -4 3 -11 -2 -16 -5 -5
-258 -13 -566 -17 -307 -4 -558 -10 -558 -15 0 -4 166 -5 368 -2 l368 6 13
-44 c7 -24 19 -51 26 -59 8 -9 13 -36 12 -68 l-2 -53 -108 3 c-122 3 -137 -4
-139 -65 l-1 -37 -49 0 c-47 0 -48 1 -42 25 4 17 1 27 -9 31 -8 3 -13 13 -10
22 2 10 -6 27 -19 39 -18 17 -38 23 -93 25 -67 3 -70 4 -73 29 -4 34 -21 39
-144 39 -81 0 -98 -3 -98 -15 0 -12 19 -15 115 -15 108 0 115 -1 115 -20 0
-19 -7 -20 -109 -20 -63 0 -112 -4 -116 -10 -4 -7 60 -10 184 -10 l190 0 16
-30 16 -30 -123 -1 c-68 -1 -161 -4 -208 -8 -68 -6 -41 -8 133 -9 204 -2 217
-3 217 -21 0 -23 -47 -30 -199 -32 -58 -1 -135 -5 -171 -9 -38 -5 33 -6 173
-3 l237 5 0 -26 0 -26 -113 0 c-63 0 -169 -3 -235 -7 l-122 -6 0 -29 0 -29
227 3 228 3 0 -30 c0 -29 -2 -30 -55 -37 -30 -4 -131 -10 -225 -13 -93 -3
-172 -8 -175 -12 -3 -3 53 -3 123 0 146 6 165 3 169 -26 2 -16 14 -23 53 -32
41 -8 51 -15 59 -38 9 -24 6 -31 -26 -65 -20 -20 -57 -79 -82 -129 -25 -51
-48 -93 -51 -93 -2 0 -14 32 -26 70 -17 58 -21 90 -17 176 l4 105 -103 -2
-103 -1 0 -199 0 -199 80 0 c73 0 80 -2 80 -20 0 -18 -7 -20 -80 -20 -79 0
-80 0 -80 -25 0 -21 4 -25 23 -21 12 3 88 8 170 11 125 5 147 4 147 -8 0 -23
-23 -27 -137 -27 -59 0 -104 -3 -100 -6 3 -4 60 -6 126 -5 116 2 121 1 121
-18 0 -19 -6 -21 -53 -21 -30 0 -109 -3 -175 -7 -112 -6 -122 -8 -122 -26 0
-19 6 -19 120 -15 119 4 120 4 120 -18 0 -25 -9 -27 -163 -40 -42 -3 -77 -10
-77 -15 0 -11 59 -11 240 0 74 5 137 7 139 5 2 -2 -2 -10 -9 -19 -16 -19 -15
-19 40 -32 l45 -11 -50 -1 c-27 -1 -126 -12 -220 -26 -94 -14 -173 -25 -177
-25 -5 0 -8 -54 -8 -119 l0 -119 26 -6 27 -7 -27 -28 c-15 -15 -26 -39 -26
-54 l0 -27 565 0 c559 0 564 0 575 -20 14 -27 -4 -87 -28 -94 -9 -3 -215 -10
-457 -16 -242 -5 -488 -13 -548 -16 -106 -7 -107 -7 -107 -32 l0 -25 238 7
c618 17 898 29 914 37 17 9 108 190 108 213 -1 11 -27 -17 -56 -58 -13 -19
-14 -19 -33 -2 -19 17 -18 19 25 99 55 103 55 110 4 105 -22 -2 -40 -1 -40 2
0 3 18 23 39 44 l39 38 183 -13 c101 -6 185 -13 187 -14 1 -1 -34 -39 -78 -86
-44 -46 -83 -91 -85 -100 -3 -10 -17 -24 -30 -33 -14 -9 -25 -25 -25 -35 0
-10 -27 -51 -60 -90 -70 -83 -74 -101 -26 -101 30 0 37 7 80 70 25 39 84 116
129 173 101 124 101 125 88 141 -8 9 -5 19 14 36 23 21 30 22 107 17 46 -3 91
-8 101 -12 23 -10 12 -23 -78 -90 -85 -63 -189 -169 -286 -290 -40 -49 -78
-94 -87 -99 -8 -4 -44 -5 -81 -2 -66 6 -869 -8 -1143 -20 l-148 -7 0 -59 0
-59 305 2 c196 1 303 5 299 11 -4 5 -15 8 -25 5 -13 -3 -23 2 -30 15 -6 11 -9
22 -6 24 10 10 604 36 720 31 l127 -6 24 47 c62 123 206 283 358 399 95 72 99
73 125 59 92 -48 116 -140 67 -259 -14 -34 -117 -245 -230 -469 l-204 -408 76
0 75 0 -1 63 c-2 69 7 96 102 290 38 76 63 117 73 117 9 0 60 -11 113 -24 87
-22 356 -74 471 -92 42 -6 43 -7 36 -38 -6 -32 -24 -239 -25 -288 l0 -28 184
0 c208 0 196 -5 196 83 0 89 13 220 20 205 4 -7 4 -75 1 -151 l-6 -137 35 0
36 0 28 228 c29 232 48 617 29 597 -5 -5 -17 -41 -27 -80 -10 -38 -50 -153
-91 -254 -95 -241 -106 -221 -35 61 28 111 53 205 56 210 11 17 34 229 34 316
0 100 -6 109 -47 70 l-23 -21 0 99 0 99 -29 -30 c-44 -45 -94 -133 -141 -251
-24 -57 -45 -103 -47 -100 -9 9 67 215 120 326 30 63 54 116 52 118 -2 2 -37
-29 -79 -68 -46 -44 -76 -66 -76 -57 0 21 151 210 190 237 58 41 113 60 181
60 84 0 147 -22 324 -113 161 -83 166 -88 215 -234 45 -134 50 -222 18 -283
-21 -38 -65 -77 -76 -66 -1 2 6 26 17 53 10 27 22 73 26 104 7 59 -9 200 -25
227 -8 13 -10 7 -6 -23 3 -22 7 -67 10 -100 l6 -60 -24 81 c-21 73 -56 155
-42 99 33 -135 33 -254 -2 -320 l-20 -40 5 46 c6 56 -18 108 -119 256 -59 86
-68 104 -59 121 11 20 11 20 96 -3 105 -29 114 -17 10 13 -98 29 -113 28 -121
-4 -9 -36 15 -111 87 -269 32 -72 59 -144 58 -160 0 -27 -2 -25 -20 20 -10 28
-39 86 -64 130 -25 44 -62 113 -81 153 -20 41 -38 71 -41 68 -10 -9 18 -128
39 -169 10 -21 55 -92 98 -158 76 -116 79 -121 86 -197 13 -147 -3 -402 -36
-562 -16 -80 -30 -151 -30 -157 0 -10 25 -13 95 -13 l94 0 36 36 37 36 -8 87
c-3 47 -14 145 -24 216 -9 72 -15 133 -13 138 2 4 15 7 27 7 33 0 43 -34 51
-175 7 -132 21 -177 77 -247 17 -22 50 -53 71 -69 39 -28 42 -29 173 -29 l133
0 35 35 c40 39 55 85 57 165 1 30 4 79 7 108 l7 52 100 -132 c98 -129 152
-189 189 -210 27 -15 14 4 -64 92 -37 41 -104 119 -148 173 l-82 98 3 144 c1
80 5 145 8 145 3 0 27 -35 53 -79 51 -87 158 -196 291 -297 44 -34 141 -114
215 -178 112 -97 140 -116 167 -116 l33 0 0 295 0 295 25 0 25 0 0 -295 0
-295 55 0 55 0 0 346 0 347 -237 -7 c-131 -4 -245 -9 -253 -12 -9 -2 -71 42
-150 109 -180 152 -193 171 -36 53 71 -53 142 -104 157 -112 24 -12 65 -13
269 -6 215 8 263 13 249 26 -2 2 -109 -1 -237 -7 -128 -5 -235 -7 -239 -4 -3
4 -3 13 0 22 6 13 35 15 204 15 236 0 273 5 273 32 0 20 -5 20 -162 13 -90 -4
-197 -11 -238 -15 -54 -6 -77 -5 -82 3 -15 24 -7 56 18 76 20 16 25 26 20 44
l-6 24 168 7 c242 9 282 15 282 37 0 23 -5 23 -135 4 -130 -19 -155 -19 -155
0 0 8 3 15 8 15 4 1 66 9 137 19 72 10 133 17 138 14 4 -2 7 3 7 13 0 14 -6
16 -37 10 -21 -3 -82 -12 -137 -18 -93 -11 -99 -11 -113 8 -7 10 -13 30 -11
44 3 27 -2 25 158 49 l65 10 -78 -5 c-66 -4 -78 -2 -84 12 -14 37 10 49 121
60 100 11 126 17 114 29 -2 3 -59 -2 -126 -11 l-121 -16 -206 68 c-113 38
-205 72 -205 76 0 5 19 8 43 8 23 0 108 9 189 19 144 18 149 18 185 0 21 -10
84 -29 141 -42 l102 -24 0 157 0 157 -62 8 -63 8 58 7 c92 12 79 21 -19 14
-87 -6 -93 -5 -336 61 -135 37 -252 71 -260 76 -20 13 4 44 33 43 13 -1 76
-17 140 -37 142 -43 399 -97 463 -97 68 0 54 23 -20 33 -70 10 -94 28 -94 72
0 31 20 61 33 49 3 -4 33 -12 66 -19 49 -10 61 -10 61 0 0 8 -21 15 -55 20
-30 3 -55 11 -55 17 0 7 19 9 55 4 49 -5 55 -4 55 12 0 10 -5 23 -12 30 -9 9
-9 12 0 12 7 0 12 6 12 14 0 10 -16 17 -45 22 -51 7 -66 25 -58 68 6 27 7 28
54 24 65 -7 68 17 4 27 l-46 6 23 42 c15 27 31 43 46 45 25 4 31 32 7 32 -14
0 -14 3 0 31 10 18 15 48 13 76 l-3 46 -76 -139 c-42 -77 -112 -206 -154 -287
-42 -82 -79 -146 -82 -144 -7 7 240 495 282 556 35 52 35 54 35 160 l0 107
-317 28 c-175 15 -331 31 -348 35 -26 6 -30 12 -33 45 l-3 38 43 -6 c59 -8
234 -23 413 -36 83 -5 171 -13 198 -16 l47 -6 -2 284 -3 283 -2 -242 -3 -243
-25 0 -25 0 0 138 c0 77 3 200 7 275 6 135 6 137 30 137 22 0 23 3 23 76 l0
76 -27 -6 c-16 -2 -68 -8 -118 -11 -115 -8 -470 -44 -513 -52 -47 -8 -28 -23
61 -48 l72 -20 3 -53 3 -52 -45 0 c-54 0 -53 4 -60 -155 -4 -66 -9 -164 -12
-218 l-6 -98 -27 3 c-25 3 -26 6 -31 75 -3 40 -11 78 -17 85 -10 9 -13 142
-13 597 l0 586 83 21 c247 62 643 167 646 170 26 25 -158 -18 -562 -130 -88
-24 -156 -38 -154 -32 4 13 194 67 570 163 l147 37 -1 231 c0 138 -4 222 -9
210 -5 -11 -9 -83 -9 -160 -1 -77 -4 -170 -7 -207 -7 -64 -8 -67 -36 -73 -16
-4 -32 -4 -35 -1 -3 3 -2 111 2 240 l7 234 44 11 c43 11 44 12 44 52 0 38 -2
41 -24 35 -13 -3 -31 -8 -39 -12 -10 -4 -16 4 -19 26 -4 29 -1 34 39 53 41 20
43 23 43 64 l0 43 -194 0 -194 0 -134 -71 c-73 -39 -137 -75 -141 -79 -9 -8
48 -16 203 -26 l95 -6 -3 -39 c-3 -25 -9 -39 -18 -39 -8 0 -19 -9 -26 -20 -9
-13 -24 -20 -45 -20 -40 0 -123 -17 -143 -30 -11 -7 -15 -28 -16 -72 0 -35 -1
-158 -2 -274 -2 -233 3 -217 -68 -234 l-32 -7 -7 301 c-3 165 -5 343 -3 395
l3 95 115 63 c63 35 106 63 95 63 -11 0 -64 -27 -117 -59 l-97 -59 -4 62 c-2
33 -4 -422 -5 -1013 -2 -977 -3 -1073 -18 -1067 -9 3 -27 9 -40 12 l-24 6 -2
1037 -3 1036 -5 -885 c-5 -832 -6 -885 -22 -888 -17 -3 -18 23 -19 430 -1 238
-4 421 -6 407 -4 -25 -12 -29 -121 -58 -162 -44 -228 -66 -367 -123 -107 -45
-323 -118 -346 -118 -5 0 -9 10 -9 23 0 20 32 33 408 160 224 76 391 135 372
132 -35 -7 -157 -47 -530 -173 -113 -38 -215 -73 -227 -76 l-23 -7 0 246 0
246 42 19 c56 26 70 25 66 -2 -2 -15 -15 -25 -45 -36 l-43 -14 0 -214 0 -214
28 6 c15 4 123 40 241 80 118 41 215 74 216 74 1 0 2 15 2 33 -4 145 5 367 13
367 7 0 10 -65 8 -195 -2 -107 -3 -195 -3 -195 0 0 72 25 159 55 88 31 162 58
165 61 6 6 3 716 -3 722 -5 5 -50 -18 -322 -165 -238 -128 -298 -150 -310
-118 -9 24 13 41 134 107 112 60 313 180 357 213 17 12 54 34 84 49 l54 28 -6
-31 c-4 -16 -2 -33 3 -36 6 -4 10 21 10 64 0 41 -4 71 -10 71 -5 0 -10 -11
-10 -24 0 -14 -4 -27 -8 -30 -5 -3 -6 8 -4 25 2 16 0 29 -6 29 -6 0 -13 -19
-15 -42 l-4 -43 -1 43 c-2 32 -6 42 -18 42 -14 0 -16 -8 -11 -50 4 -29 2 -50
-3 -50 -6 0 -10 23 -10 50 0 47 -12 66 -23 38 -4 -10 -6 -10 -6 0 -1 6 -5 12
-11 12 -6 0 -11 -30 -12 -67 l-2 -68 -6 70 -6 70 -2 -75 c-2 -63 -5 -77 -22
-88 -19 -12 -20 -9 -22 75 l-2 88 -5 -94 c-4 -61 -10 -96 -18 -98 -9 -3 -13
22 -16 94 l-3 98 -2 -104 c-1 -57 -5 -101 -9 -98 -4 4 -10 51 -13 105 l-7 97
-1 -117 c-1 -65 -6 -118 -11 -118 -4 0 -13 53 -19 118 l-10 117 5 -122 c3 -85
1 -123 -6 -123 -7 0 -11 40 -11 120 0 114 -1 120 -20 120 -20 0 -20 -4 -14
-133 6 -119 5 -134 -10 -140 -14 -6 -16 8 -18 136 -1 103 -3 127 -8 87 l-7
-55 -1 53 c-2 56 -5 60 -28 37 -9 -8 -22 -15 -30 -15 -8 0 -14 7 -14 15 0 8
-3 15 -7 15 -5 0 -7 -75 -5 -166 3 -161 -2 -194 -29 -194 -5 0 -9 61 -9 135 0
117 2 135 18 144 9 6 11 11 5 11 -8 0 -13 15 -14 38 -1 35 -2 36 -8 7 -4 -18
-19 -38 -40 -52 -42 -28 -48 -29 -57 -1 -5 17 1 28 25 50 l31 28 -46 0 c-45 0
-50 -3 -123 -76 -42 -42 -65 -69 -51 -60 13 9 34 16 45 16 15 0 16 3 7 9 -10
6 1 18 39 46 l52 37 -6 -77 c-4 -43 -8 -128 -9 -189 l-2 -111 -6 95 -6 95 -2
-101 c-2 -100 -2 -101 21 -97 22 4 22 5 13 122 -8 104 -5 163 9 150 2 -2 6
-64 9 -137 6 -129 5 -134 -19 -173 -20 -31 -57 -59 -79 -59 -5 0 -11 100 -11
204 0 81 3 110 13 114 10 3 12 -26 10 -146 -2 -122 -1 -149 10 -143 10 6 14
53 15 199 1 106 -1 192 -5 192 -13 0 -22 -25 -19 -53 2 -20 -3 -29 -20 -35
-22 -8 -22 -12 -19 -123 6 -195 6 -212 -7 -216 -7 -2 -13 8 -15 24 -3 25 -4
24 -9 -10 -5 -37 -4 -38 20 -31 42 12 76 10 73 -3 -1 -7 0 -13 3 -13 3 0 152
77 331 170 179 94 327 170 330 170 2 0 4 -19 4 -42 0 -42 -2 -44 -53 -69 -28
-14 -216 -108 -416 -209 l-364 -183 6 -394 c5 -351 4 -394 -9 -389 -9 3 -18 6
-20 6 -2 0 -5 336 -6 748 l-3 747 -2 -742 c-2 -409 -5 -743 -7 -743 -2 0 -32
9 -67 20 -35 10 -88 24 -118 31 -72 15 -133 54 -203 128 -43 46 -68 64 -102
73 -54 14 -63 40 -28 77 13 14 28 43 34 66 l11 40 181 0 181 -1 -177 3 -178 3
0 56 c0 60 -19 116 -52 151 -20 22 -21 29 -14 171 6 127 4 156 -10 191 -20 50
-62 87 -114 101 -22 6 -40 15 -40 20 0 15 -52 70 -81 85 -46 24 -156 35 -234
24 -77 -11 -157 -44 -254 -107 -72 -47 -92 -51 -120 -23 -17 17 -20 17 -25 4
-3 -8 -4 -18 -1 -23 3 -4 -2 -21 -10 -36 l-16 -29 7 40 7 39 -24 -15 c-34 -22
-110 -152 -116 -199 -3 -23 2 -61 12 -95 15 -46 22 -56 37 -52 10 3 15 1 12
-4 -3 -5 2 -12 10 -15 11 -4 16 -19 16 -48 0 -27 12 -67 35 -115 19 -40 35
-80 35 -89 0 -9 -18 -49 -39 -89 l-40 -72 47 -59 c49 -62 87 -92 119 -92 12 0
30 -24 58 -79 l41 -79 -66 -18 c-36 -9 -107 -39 -157 -65 l-93 -48 0 319 c0
175 -2 325 -5 332 -4 11 -19 12 -63 7 -31 -4 -86 -5 -122 -3 -36 1 -167 6
-292 10 -191 5 -228 9 -228 21 0 13 38 14 288 8 158 -3 297 -8 309 -11 12 -2
25 0 28 6 4 6 -6 10 -23 10 l-28 0 0 183 1 182 -65 0 c-60 0 -65 -2 -68 -22
-3 -19 -10 -23 -39 -23 l-36 0 6 95 5 95 -116 0 c-64 0 -147 3 -184 7 -63 5
-68 8 -68 29 0 28 -1 28 132 10 57 -8 133 -17 169 -20 l67 -5 4 87 c7 124 8
122 -68 122 l-64 0 0 -95 c0 -57 -4 -95 -10 -95 -5 0 -10 3 -10 8 0 4 -21 7
-47 7 -46 0 -48 1 -54 35 -3 19 -11 48 -18 63 -15 37 -15 36 14 47 25 9 25 11
23 107 l-2 98 -3 -97 -4 -98 -64 0 -63 0 -7 78 c-3 42 -7 86 -9 97 -2 11 -4
-433 -5 -987 l-1 -1008 206 0 206 0 -7 -42 c-4 -24 -11 -47 -17 -53 -5 -6 -90
-11 -198 -13 l-189 -4 -4 49 c-2 26 -4 -16 -5 -95 -2 -139 -3 -143 -23 -140
-19 3 -21 11 -25 153 -6 203 -18 247 -27 95 -4 -63 -7 -148 -7 -188 0 -46 -4
-71 -10 -67 -5 3 -10 39 -10 80 0 61 -3 74 -17 77 -15 3 -16 81 -14 1081 l3
1077 -224 -2 c-213 -1 -219 -2 -121 -11z m3213 -152 c0 -90 -4 -145 -10 -145
-6 0 -11 47 -12 118 l-2 117 -6 -124 c-3 -87 -9 -126 -17 -129 -10 -3 -13 29
-13 137 l0 140 28 15 c15 8 28 15 30 16 1 0 2 -65 2 -145z m-136 19 c3 -26 6
-89 6 -140 0 -75 -3 -94 -14 -94 -11 0 -15 20 -18 88 -4 111 1 192 11 192 5 0
11 -21 15 -46z m-41 -121 c3 -73 1 -133 -3 -133 -10 0 -23 257 -14 272 11 17
12 8 17 -139z m1364 -175 c-7 -323 -8 -327 -49 -328 -17 0 -18 21 -18 308 0
328 1 332 49 332 l24 0 -6 -312z m-4769 200 l3 -98 -35 0 c-19 0 -38 5 -41 10
-4 6 -3 51 1 101 l7 90 31 -3 31 -3 3 -97z m4682 -227 c0 -331 2 -321 -49
-321 -16 0 -17 21 -14 303 1 166 3 305 3 309 0 6 23 15 48 17 9 1 12 -67 12
-308z m-3450 198 l0 -90 -52 3 -53 3 -3 88 -3 87 56 0 55 0 0 -91z m2367 9
c-2 -18 -4 -6 -4 27 0 33 2 48 4 33 2 -15 2 -42 0 -60z m999 -35 c-4 -65 -12
-123 -18 -130 -8 -10 -6 -13 6 -13 18 0 21 -15 5 -26 -6 -3 -15 0 -20 7 -5 9
-8 -19 -7 -71 2 -75 2 -78 5 -22 2 34 8 62 14 62 5 0 8 -61 6 -157 -3 -151 -4
-158 -23 -161 -21 -3 -21 2 -27 300 -6 275 -5 304 10 316 9 6 26 12 36 12 19
0 20 -5 13 -117z m-4486 -238 l0 -285 -40 0 -40 0 0 285 0 285 40 0 40 0 0
-285z m848 272 c6 -6 13 -24 17 -40 7 -27 7 -27 -43 -27 -60 0 -81 18 -64 55
9 20 19 25 46 25 18 0 38 -6 44 -13z m1408 -64 c24 -37 13 -34 -28 8 -31 31
-33 36 -13 27 14 -6 32 -22 41 -35z m-2158 -245 l2 -278 -40 0 -40 0 0 281 0
280 38 -3 37 -3 3 -277z m2049 262 c72 -25 113 -61 93 -85 -20 -25 -43 -17
-72 25 -15 21 -44 48 -65 59 -49 26 -32 26 44 1z m-1927 -271 l0 -280 -42 3
-43 3 -3 278 -2 277 45 0 45 0 0 -281z m4178 20 c-3 -261 -3 -262 -25 -270
l-23 -8 0 263 c0 202 3 266 13 269 37 16 37 15 35 -254z m-3878 189 c1 -330 0
-501 -4 -506 -3 -2 -16 -2 -29 2 -34 8 -37 31 -37 317 l0 249 35 0 35 0 0 -62z
m1587 11 c48 -23 82 -64 67 -79 -6 -6 -24 7 -47 35 -22 26 -51 49 -70 54 -19
5 -24 10 -13 10 11 1 39 -9 63 -20z m-2317 -185 l0 -195 -27 3 -28 3 -3 193
-2 192 30 0 30 0 0 -196z m100 -24 l0 -220 -40 0 -40 0 0 220 0 220 40 0 40 0
0 -220z m4301 155 c5 4 9 20 9 36 0 24 4 30 18 27 16 -3 17 -25 20 -257 2
-260 1 -270 -35 -271 -10 0 -14 30 -15 113 l-2 112 -6 -120 c-4 -83 -6 -35 -6
155 0 151 2 258 4 237 2 -20 7 -35 13 -32z m-3761 -185 l0 -240 -27 -1 -28 -2
28 -4 c41 -6 32 -25 -10 -21 -32 3 -38 7 -37 26 0 12 1 126 2 252 l2 230 35 0
35 0 0 -240z m1900 210 c41 -11 94 -63 105 -100 6 -24 6 -24 -19 5 -14 17 -25
33 -26 37 0 11 -70 51 -104 58 -18 5 -23 8 -11 9 11 0 36 -4 55 -9z m-313 -6
c-3 -3 -12 -4 -19 -1 -8 3 -5 6 6 6 11 1 17 -2 13 -5z m2255 -229 c-2 -148 -6
-234 -12 -230 -16 10 -13 465 3 465 9 0 11 -52 9 -235z m-3403 209 c2 -2 0
-23 -3 -48 l-7 -44 -42 4 -42 4 33 -12 32 -11 0 -168 c0 -160 -1 -169 -19
-169 -52 0 -51 -4 -51 235 l0 223 48 -6 c26 -2 49 -6 51 -8z m1222 -6 c35 -20
58 -52 46 -64 -3 -3 -28 15 -56 40 -56 50 -52 59 10 24z m2238 -130 c-1 -79
-4 -177 -8 -218 -6 -69 -7 -64 -14 79 -11 236 -10 281 8 281 13 0 15 -22 14
-142z m-2324 117 c70 -19 95 -38 95 -74 l0 -26 -26 33 c-39 50 -72 62 -171 63
-69 2 -79 3 -48 9 65 12 88 11 150 -5z m-1451 -11 c23 -9 24 -204 1 -204 -12
0 -15 16 -15 83 0 45 -3 92 -6 105 -7 24 -4 25 20 16z m1807 -4 c29 -16 50
-66 48 -113 -1 -23 3 -52 9 -64 22 -40 12 -35 -38 20 -28 30 -69 64 -93 76
-33 16 -37 21 -19 21 31 0 60 -16 100 -53 17 -17 32 -26 32 -20 0 18 -89 111
-113 119 -21 7 -21 7 -2 15 29 11 53 11 76 -1z m-213 -87 c-41 -49 -58 -78
-50 -81 27 -9 75 -58 89 -90 13 -31 12 -90 -3 -144 -7 -25 31 -58 66 -58 17 0
30 -3 30 -6 0 -3 -21 -31 -47 -61 -54 -63 -109 -93 -168 -92 l-40 1 30 13 c17
8 47 14 67 15 43 0 57 14 29 29 -41 23 -118 13 -191 -24 -38 -19 -76 -35 -84
-35 -9 0 -20 14 -25 33 l-9 32 -1 -33 c-1 -26 5 -36 29 -50 23 -14 27 -21 18
-30 -7 -7 -24 -12 -40 -12 -30 0 -43 17 -57 77 l-10 38 3 -47 c3 -46 -2 -57
-18 -40 -4 4 -37 16 -74 27 l-67 21 -1 39 c0 22 -5 69 -11 105 -5 36 -8 84 -5
107 l4 42 30 -15 c17 -9 50 -16 75 -16 37 0 57 8 112 46 36 25 97 56 134 70
79 28 99 44 174 144 30 39 59 72 64 72 5 0 -19 -34 -53 -77z m-90 12 c12 -15
22 -36 22 -48 -1 -20 -2 -20 -16 6 -17 32 -28 36 -19 7 8 -26 0 -25 -59 5 -58
29 -77 30 -158 9 -74 -19 -107 -12 -144 28 l-29 31 32 -22 c45 -31 90 -36 153
-17 62 18 132 21 163 5 15 -7 13 -2 -8 15 l-30 26 35 -10 c19 -5 45 -21 58
-35z m1831 -272 c1 -63 -3 -103 -9 -103 -6 0 -9 75 -8 208 1 183 2 195 8 102
4 -58 8 -151 9 -207z m-2270 214 c57 -47 93 -48 196 -3 66 28 136 34 154 12 9
-11 6 -12 -16 -8 -26 5 -27 4 -13 -13 14 -16 12 -17 -20 -11 l-35 6 39 -15
c54 -21 54 -22 -9 -17 -61 5 -95 -13 -95 -50 0 -16 -5 -14 -42 12 -22 16 -48
30 -58 30 -9 0 -40 12 -69 26 -51 26 -91 72 -91 104 1 8 7 1 14 -15 7 -17 28
-43 45 -58z m2236 53 c0 -13 -6 -25 -12 -27 -9 -3 -13 6 -13 27 0 21 4 30 13
28 6 -3 12 -15 12 -28z m-2795 -175 c0 -167 -2 -195 -15 -195 -13 0 -15 28
-15 195 0 167 2 195 15 195 13 0 15 -28 15 -195z m2560 191 c0 -14 -164 -96
-191 -96 -13 0 -11 44 4 63 6 9 30 21 52 26 40 9 135 14 135 7z m190 -26 c0
-35 -15 -40 -25 -9 -5 14 -2 25 6 30 19 12 19 12 19 -21z m-2918 -92 l2 -113
3 113 c4 109 16 145 28 80 3 -18 5 -94 3 -168 -3 -119 -5 -135 -20 -138 -15
-3 -18 4 -20 40 l-1 43 -4 -37 c-2 -21 -8 -38 -14 -38 -10 0 -13 313 -2 323
18 19 23 -2 25 -105z m78 96 c0 -8 5 -12 10 -9 6 4 8 11 5 16 -4 5 2 9 13 9
18 0 19 -11 21 -190 2 -167 0 -190 -13 -190 -10 0 -17 9 -17 23 l-2 22 -4 -22
c-4 -22 -8 -23 -114 -23 -90 0 -109 3 -109 15 0 12 17 15 93 15 l92 0 -3 160
c-2 89 -1 167 2 175 7 20 26 19 26 -1z m133 -81 c4 -54 7 -142 7 -196 0 -88
-2 -98 -17 -95 -16 3 -18 22 -21 196 -2 157 0 192 11 192 11 0 16 -25 20 -97z
m2657 -118 c0 -112 -4 -206 -9 -209 -16 -10 -19 46 -14 220 l6 172 -24 4 -24
5 25 10 c14 6 28 9 33 6 4 -2 7 -96 7 -208z m-120 -29 c0 -183 -3 -225 -14
-229 -8 -3 -17 -3 -20 0 -8 9 -8 438 1 446 3 4 12 7 20 7 10 0 13 -44 13 -224z
m-2350 111 c0 -57 3 -138 6 -180 l7 -77 -27 0 -26 0 -2 178 -3 177 -2 -177
c-3 -149 -6 -178 -18 -178 -13 0 -15 28 -15 180 l0 180 40 0 40 0 0 -103z
m1048 72 c29 -23 66 -69 60 -75 -3 -2 -17 11 -32 31 -15 19 -44 44 -64 55 -25
14 -29 18 -12 14 14 -4 35 -15 48 -25z m1062 -41 c0 -59 -2 -64 -30 -80 l-30
-17 0 -191 c0 -126 -4 -190 -11 -190 -11 0 -6 386 6 472 7 46 12 51 63 67 1 1
2 -27 2 -61z m180 33 c0 -18 -43 -41 -76 -41 -28 0 -13 28 24 43 49 20 52 20
52 -2z m140 -175 l0 -194 -30 -11 -30 -10 0 190 c0 160 2 189 15 189 12 0 15
-27 18 -157 l3 -158 2 173 c1 106 6 172 12 172 6 0 10 -71 10 -194z m132 2 c2
-82 0 -148 -4 -148 -5 0 -7 78 -7 173 2 198 7 188 11 -25z m-1557 156 c21 -9
55 -36 76 -58 33 -33 39 -47 39 -82 0 -39 -2 -42 -43 -58 -53 -20 -67 -20 -67
-1 0 10 10 15 34 15 29 0 33 3 29 20 -4 14 -17 22 -44 26 -22 4 -42 11 -45 16
-3 5 5 7 18 4 79 -16 98 -17 92 -2 -7 20 -49 46 -81 52 -14 3 -38 11 -54 20
-16 8 -45 18 -66 24 -33 8 -30 8 20 3 31 -3 57 -2 57 1 0 4 -19 16 -42 27
l-43 20 41 -4 c23 -3 58 -13 79 -23z m1535 -144 c0 -107 -4 -170 -10 -170 -6
0 -10 63 -10 170 0 107 4 170 10 170 6 0 10 -63 10 -170z m-2255 110 c41 -17
44 -19 15 -14 -19 4 -44 13 -56 20 -11 8 -23 12 -25 9 -3 -2 -6 5 -6 17 -2 18
-1 19 10 4 7 -9 35 -25 62 -36z m-391 24 c8 -20 8 -258 0 -278 -3 -9 -17 -16
-30 -16 l-24 0 0 155 0 155 24 0 c13 0 27 -7 30 -16z m2275 -214 c-2 -169 -6
-221 -16 -224 -16 -6 -15 -18 -17 227 -1 167 1 200 14 208 8 4 16 9 18 9 2 0
2 -99 1 -220z m-1848 161 c52 1 102 -11 112 -28 3 -4 -33 -6 -79 -3 -76 5 -86
8 -111 34 l-28 28 26 -16 c16 -10 45 -16 80 -15z m1911 -168 c-4 -159 -7 -193
-20 -198 -8 -3 -15 -4 -16 -3 -1 2 0 89 2 195 3 169 6 192 20 196 10 2 17 3
18 3 1 -1 -1 -87 -4 -193z m-242 183 c0 -3 -25 -18 -55 -34 -39 -21 -55 -26
-55 -16 0 15 65 53 93 54 9 0 17 -2 17 -4z m18 -47 c1 -8 -14 -21 -38 -31 -37
-15 -40 -15 -40 0 0 17 47 52 65 48 6 -2 11 -9 13 -17z m101 -125 c2 -144 -8
-254 -23 -254 -8 0 -11 55 -11 185 0 165 2 185 16 185 15 0 17 -16 18 -116z
m-111 -285 c-10 -7 -14 29 -16 173 -2 139 1 183 10 189 10 7 14 -29 16 -173 2
-139 -1 -183 -10 -189z m-126 164 c3 -137 1 -200 -6 -205 -7 -5 -14 24 -22 90
l-11 97 -4 -90 c-3 -71 -7 -90 -19 -90 -13 0 -15 29 -18 188 -2 187 -2 188 20
197 56 22 55 26 60 -187z m98 7 c0 -154 -2 -182 -15 -187 -9 -3 -19 -2 -23 2
-4 3 -8 85 -10 180 -3 184 -5 177 41 184 4 0 7 -80 7 -179z m-3493 140 c16 0
23 -6 23 -20 0 -16 -7 -20 -34 -20 -32 0 -35 2 -34 30 1 22 4 28 12 20 5 -5
20 -10 33 -10z m3428 -342 c-12 -9 -20 318 -8 342 4 8 10 -64 13 -160 3 -111
1 -178 -5 -182z m-3295 312 c0 -17 -7 -20 -45 -20 -38 0 -45 3 -45 20 0 17 7
20 45 20 38 0 45 -3 45 -20z m2520 12 c0 -4 -10 -12 -22 -17 -13 -6 -41 -41
-64 -78 -46 -77 -129 -179 -137 -170 -4 3 11 27 32 52 21 25 57 73 81 106 66
93 110 135 110 107z m-2437 -29 c-13 -2 -35 -2 -50 0 -16 2 -5 4 22 4 28 0 40
-2 28 -4z m2514 -48 c28 -50 29 -98 2 -169 -23 -64 -60 -99 -94 -90 -22 5 -23
3 -18 -43 6 -66 11 -76 12 -25 1 34 4 42 20 42 15 0 20 -10 25 -60 4 -33 14
-83 23 -112 37 -125 -7 -221 -154 -337 -46 -36 -85 -73 -89 -83 -8 -27 -27
-22 -85 24 -49 38 -51 42 -33 52 10 6 45 37 77 69 32 31 60 57 62 57 2 0 1 -9
-2 -20 -9 -33 5 -23 27 19 11 22 38 65 59 96 37 53 72 158 57 172 -3 4 -6 -2
-6 -13 0 -42 -58 -140 -112 -189 -75 -69 -116 -101 -165 -127 -37 -20 -47 -21
-73 -11 -27 10 -30 10 -20 -3 10 -12 7 -14 -20 -14 -20 0 -38 8 -50 23 -11 12
-42 49 -70 82 -28 33 -68 96 -90 139 l-40 79 29 21 c17 12 32 28 35 36 2 8 1
-13 -2 -48 -5 -61 -4 -64 27 -93 36 -33 48 -35 71 -14 14 12 17 12 28 -5 10
-17 8 -20 -23 -26 -19 -3 -42 -4 -50 0 -9 3 -15 0 -15 -9 0 -19 30 -19 105 0
32 9 87 16 121 17 36 2 58 6 51 10 -7 5 -48 8 -92 7 l-80 -2 -6 31 c-7 35 -4
42 22 42 29 0 60 39 48 61 -9 17 -6 19 28 19 43 0 111 28 132 54 8 9 18 39 22
66 6 38 20 63 66 119 l58 72 12 -33 c6 -18 12 -43 12 -55 1 -34 31 -29 32 5 1
15 2 52 3 83 5 120 76 168 123 84z m-1054 -82 c4 -2 7 -147 7 -322 l0 -319
-22 -14 c-57 -37 -108 -42 -393 -43 l-280 0 -3 33 -3 32 320 0 321 0 0 289 0
289 -102 6 c-57 3 -197 9 -313 12 -209 6 -224 9 -225 43 0 12 53 13 343 6 188
-4 345 -9 350 -12z m-1464 -36 c22 -59 23 -66 3 -60 -31 8 -46 -20 -29 -54 33
-64 117 -288 126 -336 5 -29 14 -65 21 -81 6 -16 9 -30 8 -31 -2 -2 -23 -5
-47 -6 l-43 -4 -63 141 c-82 186 -165 389 -165 407 0 16 50 42 60 30 4 -4 47
-116 95 -248 49 -132 92 -244 97 -249 17 -21 6 19 -38 137 -85 226 -124 332
-124 343 0 13 71 45 83 37 5 -3 12 -15 16 -26z m371 -76 l0 -79 -42 -6 c-24
-4 -67 -15 -95 -25 -52 -17 -53 -17 -59 2 -7 23 5 32 69 49 53 13 61 25 20 26
-65 3 -123 15 -134 28 -9 11 -8 15 2 18 103 34 208 65 222 66 15 0 17 -10 17
-79z m90 -227 l0 -264 -30 0 -30 0 0 268 0 269 30 -5 30 -4 0 -264z m-380 152
c17 -43 30 -82 28 -87 -4 -12 -78 165 -78 184 1 18 16 -12 50 -97z m37 37 c17
-38 51 -124 76 -193 25 -69 55 -147 66 -173 12 -27 19 -52 16 -57 -5 -8 -32
-15 -97 -25 -29 -5 -31 -4 -14 7 61 42 60 32 13 156 -24 61 -47 109 -52 105
-4 -5 -5 2 -1 13 4 13 -7 58 -29 119 -39 109 -40 115 -22 115 7 0 26 -30 44
-67z m1063 -208 c0 -248 -1 -255 -20 -255 -19 0 -20 7 -20 248 0 137 3 252 7
255 3 4 12 7 20 7 10 0 13 -49 13 -255z m-1094 90 c34 -82 74 -178 88 -212 14
-34 26 -66 26 -71 0 -8 -51 -36 -54 -30 -12 19 -28 70 -40 120 -9 35 -38 117
-67 183 -66 154 -69 168 -38 163 19 -2 32 -26 85 -153z m1034 -95 c0 -243 -1
-250 -20 -250 -19 0 -20 7 -22 163 l-2 162 -3 -162 -3 -163 -25 0 -25 0 0 128
c0 70 -3 177 -7 239 l-6 111 54 10 c30 5 55 10 57 11 1 0 2 -111 2 -249z m533
226 c7 -18 -1 -26 -25 -26 -21 0 -23 11 -6 28 16 16 25 15 31 -2z m501 4 c23
-8 26 -15 26 -55 0 -40 -4 -47 -32 -65 -21 -13 -51 -20 -81 -20 -42 0 -54 5
-83 34 -56 56 -36 109 26 72 36 -21 57 -20 100 4 l35 19 -45 2 -45 2 35 7 c19
4 36 8 37 9 1 0 13 -3 27 -9z m-1224 -15 c0 -11 -11 -15 -40 -15 -29 0 -40 4
-40 15 0 11 11 15 40 15 29 0 40 -4 40 -15z m2962 -230 c-2 -196 -5 -245 -16
-245 -8 0 -16 16 -20 38 -8 50 -8 437 1 445 3 4 13 7 22 7 14 0 16 -27 13
-245z m-3332 215 c0 -16 -7 -20 -30 -20 -23 0 -30 4 -30 20 0 16 7 20 30 20
23 0 30 -4 30 -20z m-789 -43 c1 -23 5 -53 9 -67 4 -14 5 6 2 48 -7 106 13 91
27 -20 7 -51 27 -153 45 -225 l34 -133 -23 0 c-20 0 -24 10 -50 133 -28 132
-43 187 -44 157 -1 -9 10 -74 24 -145 14 -72 25 -133 25 -137 0 -5 -11 -8 -24
-8 -32 0 -34 12 -42 249 -6 154 -4 202 4 197 7 -4 12 -26 13 -49z m3987 47
c14 -4 22 -14 22 -29 0 -19 -6 -23 -47 -28 -34 -4 -53 -1 -64 9 -11 10 -26 13
-43 8 -20 -5 -26 -2 -26 10 0 9 10 21 23 26 26 10 102 12 135 4z m82 -239 c0
-202 -2 -235 -15 -235 -13 0 -15 33 -15 235 0 202 2 235 15 235 13 0 15 -33
15 -235z m-3053 -73 c-1 -53 -3 -7 -3 103 0 110 2 154 3 97 2 -57 2 -147 0
-200z m33 78 c0 -140 -4 -220 -10 -220 -6 0 -10 80 -10 220 0 140 4 220 10
220 6 0 10 -80 10 -220z m40 0 c0 -140 -4 -220 -10 -220 -6 0 -10 80 -10 220
0 140 4 220 10 220 6 0 10 -80 10 -220z m70 0 l0 -220 -30 0 -30 0 0 220 0
220 30 0 30 0 0 -220z m40 129 c0 -57 -4 -88 -10 -84 -5 3 -10 44 -10 91 0 49
4 84 10 84 6 0 10 -37 10 -91z m30 25 c0 -34 -4 -53 -10 -49 -5 3 -10 31 -10
61 0 34 4 53 10 49 6 -3 10 -31 10 -61z m260 26 c0 -38 -2 -40 -30 -40 -28 0
-30 2 -30 40 0 38 2 40 30 40 28 0 30 -2 30 -40z m50 -191 c0 -204 -1 -220
-17 -217 -16 3 -18 23 -21 217 -3 167 -1 215 9 222 7 4 17 5 21 3 4 -3 8 -104
8 -225z m-750 27 c0 -180 0 -184 -22 -189 -12 -3 -25 -4 -30 -1 -4 3 -8 88 -8
190 l0 184 30 0 30 0 0 -184z m1106 167 c3 -10 14 -37 25 -60 20 -47 11 -56
-28 -28 -23 16 -63 75 -63 94 0 19 60 13 66 -6z m64 7 c0 -5 18 -13 40 -16 33
-5 40 -10 40 -30 0 -24 -45 -67 -64 -61 -12 3 -55 84 -56 105 0 6 9 12 20 12
11 0 20 -4 20 -10z m202 -35 c17 -25 39 -47 49 -50 17 -6 29 -33 29 -67 0 -12
-8 -18 -24 -18 -14 0 -37 -11 -52 -25 -31 -29 -56 -32 -78 -10 -12 12 -14 33
-10 103 7 107 8 112 34 112 13 0 32 -17 52 -45z m-1564 -2 c-3 -36 -4 -37 -63
-50 -71 -16 -89 -22 -84 -28 3 -2 37 4 76 14 l71 17 7 -134 c4 -74 4 -137 -1
-142 -5 -5 -22 -10 -38 -12 -29 -3 -29 -2 -83 142 -77 206 -79 184 14 208 107
28 105 28 101 -15z m3202 17 c0 -13 -9 -22 -25 -26 l-26 -6 3 -199 c3 -196 3
-199 25 -199 54 0 53 -4 53 226 0 123 4 214 9 214 5 0 16 3 25 6 14 5 16 -17
16 -208 0 -118 2 -217 5 -220 3 -3 23 -2 45 2 22 4 40 4 40 -1 0 -4 -15 -10
-32 -13 -48 -8 -178 -26 -213 -29 -17 -2 -36 -7 -43 -11 -6 -4 -26 1 -44 11
l-33 17 30 6 30 5 0 135 1 135 -3 -128 c-4 -126 -4 -128 -26 -125 -21 3 -22 7
-25 156 -2 96 1 152 7 152 7 0 12 -57 14 -142 l3 -143 0 163 c-1 150 0 163 18
168 10 4 22 0 27 -7 7 -12 14 -215 11 -341 0 -34 2 -38 25 -38 l25 0 -7 203
c-4 111 -11 204 -16 205 -5 2 -9 12 -9 22 0 13 9 20 28 23 56 8 62 7 62 -13z
m166 -76 c-3 -8 -19 -14 -36 -14 -26 0 -30 4 -30 25 0 20 8 29 33 40 31 13 32
13 35 -12 2 -13 1 -31 -2 -39z m54 -113 c0 -121 -4 -182 -11 -187 -20 -12 -24
13 -27 190 -3 172 -3 176 17 176 20 0 21 -5 21 -179z m-2412 -8 c-2 -122 -6
-167 -15 -171 -10 -3 -13 35 -13 167 0 147 2 171 15 171 13 0 15 -23 13 -167z
m1965 160 c-7 -2 -19 -2 -25 0 -7 3 -2 5 12 5 14 0 19 -2 13 -5z m227 -183 c0
-162 -2 -190 -15 -190 -13 0 -15 27 -15 183 0 101 3 187 7 190 19 20 23 -9 23
-183z m-2310 14 l0 -165 -27 3 -28 3 -3 163 -2 162 30 0 30 0 0 -166z m2227
-121 c-1 -54 -3 -10 -3 97 0 107 2 151 3 98 2 -54 2 -142 0 -195z m-929 261
c15 -9 42 -36 60 -60 18 -25 56 -59 83 -75 27 -17 49 -34 49 -38 0 -4 6 -8 13
-8 23 -1 162 -34 229 -54 53 -15 67 -24 70 -41 2 -15 15 -25 43 -34 158 -48
218 -69 278 -96 37 -17 67 -34 67 -37 0 -4 -16 -15 -35 -25 -44 -24 -103 -87
-139 -148 -14 -24 -51 -119 -82 -209 -53 -157 -56 -168 -57 -274 -1 -60 0
-141 3 -180 10 -151 -64 -262 -177 -266 -53 -2 -156 11 -174 21 -16 10 -20
118 -6 181 l7 36 93 7 c115 8 208 26 213 40 2 6 0 25 -5 41 l-9 30 -1 -31 c-1
-20 -7 -34 -18 -39 -10 -4 -71 -10 -135 -12 l-117 -6 9 34 c6 19 10 35 10 35
0 1 33 9 73 18 103 24 180 51 185 65 3 10 0 10 -17 1 -22 -11 -183 -49 -212
-50 -14 0 -11 15 17 102 19 57 32 110 29 118 -2 8 0 31 5 50 9 33 9 33 5 -10
-3 -30 -2 -40 4 -30 8 14 23 115 38 257 l5 51 -78 38 c-44 20 -87 36 -96 35
-29 -4 -20 15 17 35 40 21 39 13 20 128 -17 105 -41 192 -55 201 -13 8 -13 3
0 -31 6 -15 20 -80 30 -143 l20 -116 -27 -22 c-38 -31 -59 -29 -123 15 -48 32
-55 41 -53 67 1 17 4 86 5 155 2 113 0 130 -21 177 -15 34 -36 61 -62 79 -21
15 -39 28 -39 30 0 10 35 2 58 -12z m802 -8 c0 -8 -13 -17 -30 -21 l-30 -7 0
-154 c0 -96 -4 -154 -10 -154 -5 0 -11 15 -11 33 -1 23 -3 26 -6 10 -2 -13
-11 -23 -19 -23 -11 0 -14 20 -14 99 0 54 3 125 6 157 6 58 7 60 37 62 17 2
33 5 36 7 10 11 41 4 41 -9z m378 -166 c-3 -147 -7 -159 -50 -160 -16 0 -18
13 -18 144 0 152 0 154 48 155 l24 1 -4 -140z m-411 -2 c-2 -24 -4 -5 -4 42 0
47 2 66 4 43 2 -24 2 -62 0 -85z m35 -33 c2 -119 0 -155 -9 -155 -10 0 -13 38
-13 155 0 205 18 205 22 0z m-802 87 c24 -89 4 -286 -41 -401 -17 -44 -35 -78
-40 -75 -5 3 -6 -2 -3 -10 12 -32 -17 -15 -31 17 -7 18 -34 52 -59 75 l-45 41
64 64 c87 89 130 178 130 268 0 73 8 80 25 21z m669 -91 c1 -102 1 -103 -21
-97 -13 3 -29 6 -36 6 -20 0 -34 51 -27 102 5 38 11 48 25 48 16 0 20 -9 23
-57 2 -43 4 -34 5 33 1 50 5 94 9 98 14 14 22 -30 22 -133z m-107 27 c-2 -51
-6 -95 -8 -97 -2 -2 -10 4 -19 12 -11 11 -15 36 -15 91 0 75 0 77 41 85 3 0 3
-41 1 -91z m-1409 -260 c-37 -55 -72 -106 -78 -114 -6 -9 0 -25 24 -54 18 -23
31 -43 30 -44 -2 -2 -28 -16 -58 -31 l-53 -27 6 -60 c9 -80 56 -330 101 -543
48 -224 57 -274 53 -286 -5 -14 -195 366 -214 429 -11 36 -15 71 -11 109 4 41
3 53 -5 45 -6 -6 -14 -56 -18 -109 l-6 -98 -8 77 c-5 42 -7 144 -5 227 4 156
-4 198 -16 89 -4 -35 -10 -69 -14 -75 -4 -7 -17 36 -30 96 -31 143 -27 227 18
314 l31 62 -39 -41 c-68 -72 -100 -234 -82 -413 6 -57 10 -106 8 -107 -2 -2
-17 24 -33 58 -27 56 -29 70 -29 172 0 81 6 126 19 166 32 94 65 149 107 180
58 41 234 130 299 151 l55 17 8 -45 c8 -44 6 -47 -60 -145z m-1153 146 c0 -7
-18 -14 -40 -16 -31 -3 -40 0 -40 12 0 11 11 15 40 15 25 1 40 -4 40 -11z
m-281 -8 c-2 -2 -18 -7 -34 -10 l-30 -6 30 14 c26 12 46 14 34 2z m508 -8 c-3
-8 -6 -5 -6 6 -1 11 2 17 5 13 3 -3 4 -12 1 -19z m461 -5 c-10 -2 -26 -2 -35
0 -10 3 -2 5 17 5 19 0 27 -2 18 -5z m130 -10 c-10 -2 -26 -2 -35 0 -10 3 -2
5 17 5 19 0 27 -2 18 -5z m2410 -5 c-7 -19 -38 -22 -38 -4 0 10 9 16 21 16 12
0 19 -5 17 -12z m112 -46 l0 -29 -148 -17 c-82 -10 -165 -21 -185 -26 -21 -4
-39 -4 -42 0 -3 4 -22 16 -42 26 l-38 18 100 13 c55 7 143 19 195 27 152 22
160 21 160 -12z m-2037 -163 c-4 -30 -12 -39 -49 -59 l-44 -24 -35 34 c-19 19
-35 41 -35 49 0 9 21 46 46 83 l46 67 38 -57 c30 -46 36 -64 33 -93z m-515
104 c-32 -34 -71 -111 -91 -181 -9 -28 -23 -62 -32 -75 -15 -21 -15 -21 -9 13
16 99 84 232 132 259 27 16 27 13 0 -16z m626 11 c9 -8 16 -19 16 -24 0 -4 16
-27 35 -50 46 -55 44 -59 -7 -16 -23 20 -47 36 -54 36 -7 0 -22 -12 -35 -27
-17 -22 -20 -24 -16 -8 3 11 9 39 12 63 7 45 22 53 49 26z m-2198 -204 l41
-180 -34 0 c-20 0 -33 5 -33 13 0 6 -12 77 -25 157 -30 176 -31 190 -7 190 15
0 24 -28 58 -180z m100 143 c-3 -21 -6 -102 -6 -180 0 -129 -2 -143 -17 -143
-17 0 -18 12 -12 167 4 93 7 174 8 181 1 6 8 12 17 12 14 0 15 -7 10 -37z
m1274 15 c0 -26 -55 -236 -64 -245 -16 -16 -14 10 5 78 11 41 20 85 20 99 -1
49 10 90 24 90 9 0 15 -9 15 -22z m85 -62 c-28 -54 -46 -102 -50 -140 -7 -56
-8 -56 -41 -56 -19 0 -34 2 -34 3 0 2 11 55 25 117 14 62 25 124 25 137 0 22
4 23 60 23 l59 0 -44 -84z m2262 62 c6 -7 18 -38 28 -68 10 -30 31 -88 46
-128 16 -39 34 -105 40 -145 6 -39 20 -84 30 -99 41 -59 17 -103 -120 -218
-122 -102 -180 -170 -231 -275 -29 -58 -41 -74 -46 -62 -20 52 36 189 123 302
86 112 123 166 123 177 0 6 -10 -2 -22 -18 -11 -16 -45 -54 -73 -84 -29 -30
-74 -82 -100 -114 -45 -57 -56 -48 -17 14 14 23 14 24 -1 12 -39 -33 -33 -2
11 60 98 133 163 286 161 377 l-1 46 -13 -45 c-20 -71 -53 -148 -91 -214 -43
-73 -114 -169 -120 -163 -3 3 9 35 26 73 42 93 32 103 -18 19 -51 -85 -55 -66
-7 34 39 80 40 101 4 52 -13 -17 -26 -31 -30 -31 -9 0 55 251 80 312 54 131
178 237 218 186z m411 -25 l-3 -37 -56 3 c-64 3 -69 -3 -69 -91 0 -41 -3 -48
-20 -48 -19 0 -20 7 -20 100 l0 100 25 0 c19 0 25 -6 26 -22 l2 -23 4 22 c5
24 19 30 76 32 38 1 38 1 35 -36z m-1235 -15 c34 -24 64 -45 67 -48 3 -3 49
-23 103 -44 54 -21 101 -44 103 -51 7 -17 -26 -143 -97 -368 -103 -328 -170
-504 -198 -521 -17 -11 -23 15 -8 32 27 31 54 96 101 240 66 206 56 214 -16
12 -37 -104 -101 -245 -117 -254 -6 -4 -35 15 -66 45 -51 48 -55 55 -55 98 0
25 5 74 10 109 6 35 29 206 51 380 22 174 42 338 46 365 3 26 8 47 10 47 2 0
32 -19 66 -42z m-1763 -22 c0 -60 -7 -66 -86 -66 l-41 0 -6 51 c-4 29 -4 56
-1 60 3 5 34 9 70 9 l64 0 0 -54z m2810 31 c0 -13 -6 -31 -12 -40 -16 -21
-130 -40 -140 -23 -14 21 -8 25 50 36 31 6 62 13 67 15 20 7 -31 4 -75 -5 -25
-5 -49 -5 -54 0 -11 11 7 16 157 39 4 0 7 -9 7 -22z m-3158 -142 c4 -272 4
-278 -9 -282 -10 -4 -14 42 -15 204 l-3 208 -2 -207 c-3 -176 -6 -208 -18
-208 -13 0 -15 32 -15 213 0 118 3 217 7 220 3 4 17 7 30 7 l23 0 2 -155z
m458 129 c0 -22 -4 -25 -31 -22 -19 2 -38 12 -47 26 -14 22 -14 22 32 22 43 0
46 -2 46 -26z m-983 -6 c-3 -8 -6 -5 -6 6 -1 11 2 17 5 13 3 -3 4 -12 1 -19z
m443 2 c0 -12 -7 -20 -17 -21 -17 -1 -17 -2 0 -6 15 -4 17 -22 17 -199 0 -160
-2 -194 -14 -194 -9 0 -16 -17 -21 -50 -4 -32 -11 -50 -19 -47 -8 3 -12 80
-14 270 l-2 267 35 0 c28 0 35 -4 35 -20z m1812 -27 c6 -7 19 -11 31 -10 13 1
23 -4 25 -14 4 -21 -57 -46 -131 -55 -50 -6 -56 -4 -88 25 l-34 30 77 1 76 0
13 38 c10 28 14 32 17 17 2 -11 9 -25 14 -32z m2054 -65 c-3 -62 -9 -185 -12
-273 -3 -88 -8 -163 -10 -166 -2 -3 -16 -4 -31 -2 l-28 4 6 147 c4 81 7 204 8
275 l1 127 36 0 36 0 -6 -112z m98 -70 c-2 -101 -7 -225 -10 -275 l-6 -93 -35
0 -36 0 6 137 c4 75 7 198 7 275 l0 138 40 0 39 0 -5 -182z m266 -88 l-1 -270
-40 0 -39 0 0 270 0 270 40 0 40 0 0 -270z m-4315 235 c0 -14 -8 -21 -27 -23
-24 -3 -28 0 -28 23 0 23 4 26 28 23 19 -2 27 -9 27 -23z m4125 -43 c0 -38 -3
-164 -7 -280 -6 -197 -7 -212 -25 -212 -17 0 -18 13 -18 219 0 276 6 341 31
341 17 0 19 -8 19 -68z m-4380 54 c0 -16 32 -385 38 -444 8 -70 7 -73 -12 -70
-17 2 -22 12 -27 53 l-6 50 -1 -52 c-2 -46 -5 -53 -22 -53 -19 0 -20 7 -20
154 0 84 -3 180 -6 214 l-7 61 34 4 34 4 -37 1 c-37 2 -38 3 -38 42 0 39 1 40
35 40 19 0 35 -2 35 -4z m72 -81 c9 -107 15 -435 7 -435 -8 0 -26 130 -44 321
-20 205 -20 201 8 197 20 -3 23 -10 29 -83z m4377 69 c46 -10 40 -34 -9 -34
-33 0 -40 3 -40 20 0 22 3 23 49 14z m-3516 -102 c-22 -72 -28 -82 -49 -82
-21 0 -24 5 -24 34 0 19 5 38 10 41 6 3 10 17 10 29 0 19 -4 22 -25 18 -23 -4
-25 -8 -25 -63 0 -52 -2 -59 -20 -59 -18 0 -20 7 -20 85 0 47 3 85 8 85 4 -1
26 -5 50 -9 23 -5 42 -5 42 0 0 9 52 17 62 9 4 -3 -4 -42 -19 -88z m876 53 c0
-5 -6 -1 -14 9 -8 11 -15 24 -15 30 0 5 7 1 15 -10 8 -10 14 -23 14 -29z
m-2008 25 c5 0 9 -58 9 -130 l0 -130 -25 0 -25 0 0 136 c0 120 2 135 16 130 9
-3 20 -6 25 -6z m3897 -178 l107 2 -102 3 c-96 3 -103 5 -103 24 0 19 4 20 88
13 118 -9 122 -12 122 -83 0 -55 -1 -58 -22 -54 -13 2 -68 7 -123 11 l-100 7
-3 119 c-2 85 1 123 10 134 11 13 13 -1 16 -81 l3 -97 107 2z m82 152 c0 -26
0 -27 -59 -20 l-60 7 -4 -38 c-3 -33 -4 -31 -5 13 -1 28 1 54 5 57 3 4 33 7
65 7 56 0 58 -1 58 -26z m-3528 -219 l3 -235 -27 0 -28 0 0 235 0 235 25 0 24
0 3 -235z m2124 64 c-29 -177 -53 -353 -61 -454 -11 -133 -16 -157 -28 -147
-7 6 -63 24 -125 41 -128 36 -122 37 -235 -42 -65 -45 -97 -90 -97 -134 0 -17
-6 -36 -14 -42 -12 -10 -15 -1 -22 56 -7 69 13 589 23 607 3 5 21 -20 39 -55
18 -35 33 -59 33 -54 0 6 -13 59 -29 120 l-30 109 32 -39 c51 -62 160 -175
193 -198 l30 -22 -15 22 c-84 118 -135 202 -155 253 -21 53 -22 61 -7 53 39
-19 165 -6 256 26 l89 32 31 -30 c44 -43 62 -40 88 14 12 24 23 43 25 41 3 -2
-7 -73 -21 -157z m1164 46 c0 -103 -2 -115 -17 -115 -14 0 -26 25 -51 105 -19
57 -31 109 -27 115 3 5 26 10 51 10 l44 0 0 -115z m-1810 93 c0 -6 3 -8 7 -4
4 4 13 -30 20 -76 8 -58 10 -157 5 -333 -3 -137 -7 -243 -9 -235 -2 8 -7 56
-12 105 -7 77 -9 55 -10 -150 -1 -132 -6 -279 -10 -327 -7 -77 -11 -90 -38
-121 l-30 -35 -7 67 c-4 36 -34 199 -67 361 -70 345 -109 562 -109 605 1 28 8
33 123 91 138 69 137 68 137 52z m2390 -10 c0 -5 0 -17 0 -28 0 -15 -7 -20
-27 -21 l-28 -2 28 -4 29 -5 -7 -151 c-3 -84 -8 -169 -11 -190 -5 -34 -9 -38
-32 -35 l-27 3 3 180 c2 99 5 198 8 221 5 38 8 41 35 40 16 -1 29 -4 29 -8z
m-3350 -53 c0 -52 -1 -55 -25 -55 -22 0 -25 4 -25 33 0 51 11 77 31 77 16 0
19 -8 19 -55z m3710 41 c0 -9 -14 -15 -40 -18 -33 -3 -40 0 -40 14 0 14 8 18
40 18 28 0 40 -4 40 -14z m-4580 -41 c0 -14 -5 -25 -12 -25 -7 0 -5 -5 5 -12
20 -16 37 -208 18 -208 -6 0 -11 17 -11 40 0 26 -5 40 -13 40 -9 0 -17 28 -25
83 -16 109 -16 107 13 107 20 0 25 -5 25 -25z m275 -5 c9 -29 -2 -40 -41 -40
-31 0 -35 3 -29 20 4 11 2 20 -4 20 -6 0 -11 5 -11 10 0 6 18 10 39 10 31 0
41 -4 46 -20z m4305 -68 c0 -49 -3 -137 -7 -196 -6 -101 -7 -107 -27 -104 -16
2 -22 12 -25 43 l-5 40 -6 -40 c-5 -25 -7 10 -8 90 0 97 2 122 9 98 5 -18 12
-33 14 -33 2 0 2 43 -2 95 l-6 95 31 0 32 0 0 -88z m-4630 -38 c0 -24 -4 -44
-10 -44 -5 0 -10 23 -10 51 0 31 4 48 10 44 6 -3 10 -26 10 -51z m320 25 c0
-28 -2 -30 -32 -27 -28 2 -34 8 -36 31 -3 25 -1 27 32 27 33 0 36 -2 36 -31z
m946 -122 c9 -37 14 -70 11 -73 -2 -3 -15 11 -27 31 -12 20 -24 34 -27 31 -11
-10 48 -117 89 -162 26 -28 34 -43 21 -36 -29 16 -90 88 -115 136 -24 47 -21
118 8 182 l18 39 3 -40 c2 -22 11 -71 19 -108z m-950 27 c-3 -26 -6 -80 -6
-120 0 -66 -2 -74 -19 -74 -17 0 -20 11 -26 109 -4 60 -4 114 0 120 3 6 18 11
32 11 25 0 26 -2 19 -46z m2621 -6 c-3 -8 -6 -5 -6 6 -1 11 2 17 5 13 3 -3 4
-12 1 -19z m865 2 c146 -11 218 -28 249 -56 24 -22 25 -86 3 -232 -11 -74 -12
-108 -5 -110 6 -2 12 -13 12 -25 1 -17 2 -18 6 -4 2 9 8 17 13 17 17 0 50 -54
50 -82 0 -54 -23 -217 -30 -213 -4 2 -15 -33 -24 -78 -42 -197 -79 -337 -87
-337 -15 0 -39 65 -39 107 0 41 -42 247 -87 428 -21 84 -46 147 -105 264 -61
120 -75 157 -68 172 15 28 12 64 -8 90 -20 25 -35 69 -24 69 4 0 69 -5 144
-10z m-3762 -10 c0 -5 -4 -10 -10 -10 -5 0 -10 5 -10 10 0 6 5 10 10 10 6 0
10 -4 10 -10z m1110 -8 c0 -27 -30 -32 -202 -32 -142 0 -178 3 -178 13 0 8 3
17 7 20 9 10 373 9 373 -1z m-330 -107 c0 -63 -1 -65 -25 -65 -24 0 -25 2 -25
65 0 63 1 65 25 65 24 0 25 -2 25 -65z m290 58 c0 -23 -24 -90 -38 -105 -13
-15 -33 -18 -129 -18 -94 0 -113 3 -113 15 0 12 20 15 118 16 88 0 111 3 92
10 -14 6 -54 9 -90 7 l-65 -3 -3 37 c-3 33 -1 37 25 41 51 7 203 7 203 0z m40
-69 c0 -64 36 -109 157 -197 73 -52 69 -57 -45 -57 -88 0 -116 -10 -78 -28 26
-12 121 -31 176 -34 l35 -3 -70 -49 c-77 -54 -61 -55 -159 10 -29 20 -71 36
-111 44 -36 7 -65 16 -65 21 0 11 55 112 83 152 l20 29 19 -31 c11 -17 26 -31
34 -31 13 0 13 4 0 28 -21 41 -29 96 -21 147 7 52 25 51 25 -1z m-532 19 c-4
-23 -108 -33 -108 -10 0 22 11 27 62 27 42 0 49 -3 46 -17z m723 -38 c6 -11
-1 -6 -15 10 -14 17 -26 35 -26 40 1 11 27 -20 41 -50z m-102 -47 c7 11 141
-83 141 -98 0 -15 -47 -12 -81 6 -66 33 -150 129 -131 148 4 4 20 -9 36 -29
16 -20 32 -32 35 -27z m-619 32 c0 -18 -7 -20 -60 -20 -53 0 -60 2 -60 20 0
18 7 20 60 20 53 0 60 -2 60 -20z m3094 -127 c29 -60 66 -142 81 -183 38 -108
115 -432 115 -489 0 -27 7 -81 16 -121 29 -129 -10 -246 -96 -290 -62 -32 -70
-24 -24 25 28 29 49 63 59 97 22 69 31 190 17 214 -10 16 -12 13 -12 -21 l-1
-40 -15 40 c-8 22 -12 45 -9 53 3 8 0 10 -7 6 -8 -5 -9 -2 -5 10 7 17 -10 62
-19 53 -3 -2 -17 8 -32 23 -15 15 -53 36 -84 48 -97 36 -117 35 -34 -2 88 -39
119 -64 146 -116 34 -66 40 -108 29 -189 -13 -95 -50 -167 -97 -190 -33 -15
-35 -15 -95 16 -222 114 -377 165 -577 191 l-131 17 25 24 c22 21 26 33 26 80
0 116 -48 248 -100 277 -39 21 -6 16 145 -22 100 -25 187 -39 306 -49 191 -16
254 -34 335 -95 30 -22 54 -37 54 -31 0 16 -73 75 -117 95 -24 10 -43 23 -43
29 0 18 142 2 190 -22 l45 -22 -35 31 c-52 45 -126 66 -181 51 -77 -22 -89
-24 -89 -14 0 12 44 33 70 33 10 0 22 5 26 11 5 8 -15 10 -70 7 -42 -2 -76 0
-76 5 0 18 60 29 140 25 103 -5 181 -40 255 -115 42 -42 46 -44 32 -16 -23 43
-99 107 -166 140 -52 26 -65 28 -179 28 l-124 0 59 27 c70 34 151 37 231 9 51
-18 52 -18 35 1 -9 10 -45 32 -80 50 l-63 31 -52 -23 c-29 -12 -90 -42 -136
-66 -45 -24 -80 -40 -78 -35 3 4 18 60 35 125 33 128 45 150 137 236 32 30 78
76 103 102 25 26 49 47 53 47 4 1 32 -47 62 -106z m887 97 c11 0 19 -7 19 -16
0 -12 -6 -15 -22 -10 -13 3 -29 6 -35 6 -7 0 -13 7 -13 16 0 11 5 14 16 10 9
-3 24 -6 35 -6z m-3540 -33 c-5 -14 -15 -28 -20 -32 -6 -3 -225 -3 -486 1
l-475 7 0 23 0 24 493 2 c270 2 493 2 495 2 1 -1 -2 -13 -7 -27z m3659 18 c0
-11 -11 -15 -40 -15 -29 0 -40 4 -40 15 0 11 11 15 40 15 29 0 40 -4 40 -15z
m68 -7 c3 -13 -3 -18 -22 -18 -20 0 -26 5 -26 21 0 15 5 20 22 17 13 -2 24
-11 26 -20z m-3763 -67 c-9 -8 -155 -17 -180 -11 -16 5 75 17 135 18 33 1 50
-2 45 -7z m-25 -46 c0 -3 -14 -27 -30 -54 -23 -37 -39 -51 -61 -56 -34 -8 -28
-22 11 -25 40 -3 48 2 15 10 -28 7 -28 8 12 9 61 2 142 -18 188 -45 22 -13 69
-50 105 -83 l65 -61 -28 -25 c-18 -16 -40 -25 -62 -25 -21 0 -37 -6 -43 -16
-7 -13 -20 -14 -80 -9 l-72 8 -20 54 c-26 69 -71 135 -111 164 l-32 22 -17
-23 c-15 -20 -21 -22 -33 -11 -9 6 -20 25 -25 41 -12 33 6 67 38 72 18 3 17 4
-5 15 -14 6 -23 8 -20 4 2 -5 -7 -19 -20 -31 -32 -30 -34 -86 -5 -123 l20 -25
-26 -40 c-15 -23 -40 -46 -56 -53 -16 -6 -33 -20 -39 -30 -9 -18 -25 -19 -234
-19 -197 0 -225 -2 -225 -16 0 -13 27 -15 230 -12 192 3 229 1 225 -11 -3 -7
-10 -33 -16 -57 l-11 -44 -84 0 c-81 0 -85 -1 -94 -26 -6 -14 -10 -96 -10
-183 l0 -158 -102 -6 c-78 -4 -106 -3 -117 8 -7 7 -17 44 -21 81 -4 38 -16
100 -25 137 -15 58 -16 86 -9 190 l9 122 120 6 c66 4 144 7 172 8 l53 1 6 40
7 40 58 0 59 0 -20 -41 -21 -40 28 3 c26 3 29 8 42 70 7 37 10 75 6 85 -4 10
-7 27 -6 39 2 24 -13 39 -52 48 -21 5 -27 11 -22 25 5 15 -2 19 -41 25 -65 9
-86 8 -79 -4 3 -5 16 -10 28 -10 20 0 20 -1 4 -17 -15 -15 -19 -15 -31 -3 -8
8 -17 25 -21 38 l-6 22 265 0 c146 0 266 -2 266 -5z m-412 -57 c2 -10 -7 -18
-24 -22 -35 -9 -41 -1 -19 24 20 23 38 22 43 -2z m3603 -4 c53 -6 56 -8 52
-33 -3 -23 -2 -24 6 -6 7 14 10 15 10 5 1 -34 -13 -60 -38 -69 -24 -10 -24
-11 12 -8 34 3 37 1 37 -23 1 -22 2 -23 11 -7 5 9 21 17 34 17 21 0 25 -5 25
-27 0 -23 -2 -25 -11 -13 -8 12 -9 10 -5 -10 3 -14 6 -38 6 -54 0 -42 14 -22
34 49 10 33 20 66 22 74 3 10 16 12 52 6 26 -4 51 -10 55 -15 5 -4 -5 -34 -21
-66 -16 -33 -53 -124 -82 -204 -131 -363 -136 -372 -185 -336 -18 13 -16 20
43 180 34 92 62 179 63 194 l0 27 16 -22 c8 -13 24 -23 34 -23 16 0 17 3 7 25
-6 14 -22 28 -34 31 -13 3 -25 13 -27 22 -3 10 -5 -4 -6 -30 -1 -56 -18 -98
-40 -98 -12 0 -13 -2 -3 -8 10 -7 6 -24 -17 -78 l-30 -69 -1 135 c0 156 -9
248 -21 228 -5 -7 -9 -25 -9 -40 0 -16 -4 -28 -9 -28 -5 0 -11 45 -13 99 -3
94 -5 102 -36 147 -32 44 -32 46 -10 40 13 -3 48 -9 79 -12z m-3531 -34 c8 -5
11 -12 8 -16 -10 -9 -58 4 -58 16 0 13 30 13 50 0z m3833 -15 c20 -3 37 -12
37 -19 0 -9 -18 -12 -67 -11 -38 2 -69 3 -71 4 -1 0 2 10 8 21 7 14 18 19 33
16 12 -3 39 -8 60 -11z m-2153 -36 c50 -11 90 -23 87 -25 -7 -7 110 -129 168
-175 49 -39 55 -48 55 -80 0 -20 -7 -54 -16 -74 -9 -23 -14 -58 -12 -89 l3
-51 -43 -3 c-32 -2 -54 3 -85 22 -41 24 -96 65 -68 50 9 -4 12 -3 7 4 -4 8
-17 6 -42 -4 -19 -8 -50 -15 -70 -16 -25 -1 -33 -5 -32 -17 5 -30 -30 -23 -47
9 -27 53 -15 71 72 108 43 17 84 42 92 53 15 25 22 27 -110 -21 -74 -27 -89
-37 -105 -66 -14 -26 -16 -36 -6 -46 16 -16 -3 -38 -33 -38 -31 0 -67 46 -59
74 13 43 68 117 98 133 17 9 56 24 88 33 52 16 134 67 124 77 -2 3 -22 -5 -43
-16 -21 -11 -64 -26 -95 -31 -49 -10 -65 -19 -110 -64 -29 -29 -87 -76 -129
-105 -79 -53 -186 -157 -209 -201 -7 -14 21 11 62 55 72 77 168 155 168 138 0
-8 -209 -209 -256 -246 -22 -17 -24 -16 -111 54 -66 54 -127 90 -248 149 -88
43 -171 81 -184 85 -14 4 -19 11 -14 16 6 6 60 -13 144 -51 177 -81 230 -111
316 -181 39 -33 74 -59 77 -59 2 0 -14 21 -37 46 -56 62 -142 117 -339 217
l-168 85 32 27 c26 22 38 25 67 20 75 -13 317 -144 392 -213 52 -46 64 -69 48
-88 -8 -10 -8 -14 0 -14 6 0 11 4 11 9 0 20 138 155 211 207 43 30 92 74 108
97 41 60 57 72 136 97 39 13 84 29 100 37 28 13 29 14 3 9 -14 -3 -34 -8 -45
-12 -10 -3 -6 2 10 11 35 20 35 28 0 14 -15 -5 -36 -9 -47 -7 -24 3 -70 -13
-136 -47 -44 -23 -46 -23 -70 -5 -21 16 -22 20 -10 36 8 9 48 39 88 65 61 40
77 47 97 39 13 -5 65 -19 115 -31z m-1674 8 c17 -17 -15 -27 -87 -27 -61 0
-79 3 -79 14 0 8 6 17 13 20 15 7 145 1 153 -7z m3943 -6 c13 -8 10 -21 -13
-80 -27 -68 -37 -78 -69 -65 -13 5 -11 16 10 80 25 75 38 86 72 65z m-3676
-70 c27 -33 61 -123 54 -144 -2 -6 -12 14 -21 46 -12 40 -30 73 -59 104 -25
28 -34 42 -21 35 12 -6 33 -25 47 -41z m3803 18 c55 -21 55 -21 37 -42 -10
-12 -21 -24 -24 -27 -3 -3 -73 -137 -155 -298 l-149 -294 -37 6 c-21 3 -49 11
-63 18 l-25 11 39 71 c107 195 241 470 257 525 19 70 14 69 120 30z m-4066 9
c-1 -33 -17 -39 -91 -36 -68 3 -74 5 -77 26 -3 21 -1 22 82 22 62 0 86 -3 86
-12z m17 -10 c-3 -8 -6 -5 -6 6 -1 11 2 17 5 13 3 -3 4 -12 1 -19z m-207 -57
c0 -17 -4 -33 -10 -36 -6 -4 -10 8 -10 29 0 20 5 36 10 36 6 0 10 -13 10 -29z
m389 23 c34 -7 67 -45 56 -64 -5 -8 -15 -4 -31 11 -13 12 -24 17 -24 11 0 -6
5 -14 10 -17 23 -14 6 -21 -50 -21 -33 1 -60 5 -60 9 0 23 42 76 61 77 4 0 21
-3 38 -6z m-429 -39 l0 -35 -73 0 c-84 0 -113 14 -103 48 7 20 14 22 92 22
l84 0 0 -35z m1620 -15 c0 -4 -10 -12 -22 -18 l-23 -11 23 0 c29 -1 30 -37 0
-68 -35 -38 -51 -30 -42 20 4 23 7 53 6 67 -2 45 5 53 33 34 14 -9 25 -20 25
-24z m-496 -128 l8 -23 -54 27 c-29 14 -54 28 -56 29 -2 2 9 22 25 46 l28 42
21 -49 c12 -27 24 -59 28 -72z m2990 99 c3 -5 -11 -40 -32 -78 -20 -37 -66
-125 -102 -195 -36 -70 -66 -123 -68 -119 -4 12 53 163 110 289 37 83 55 112
69 112 10 0 20 -4 23 -9z m-3823 -23 c-9 -26 -37 -46 -48 -34 -4 4 6 19 22 32
37 29 36 29 26 2z m158 -5 c25 -3 63 -17 85 -32 l39 -26 -44 -8 c-24 -4 -70
-6 -102 -4 -49 3 -56 1 -44 -10 10 -11 51 -15 153 -16 151 -3 204 -16 143 -35
-19 -6 -56 -14 -83 -17 -26 -3 -61 -14 -76 -25 -16 -11 -42 -20 -60 -20 -30 0
-31 2 -25 28 7 32 -5 46 -47 56 -24 5 -29 2 -52 -46 -37 -77 -49 -91 -42 -50
3 19 19 50 36 70 33 41 37 63 15 82 -33 28 -8 76 35 65 14 -4 45 -9 69 -12z
m324 -30 c-7 -2 -19 -2 -25 0 -7 3 -2 5 12 5 14 0 19 -2 13 -5z m1514 -25 c66
-28 102 -94 88 -164 l-6 -33 -62 30 c-46 22 -62 34 -61 49 0 11 1 45 2 75 1
30 4 55 7 55 2 0 17 -5 32 -12z m-2577 -20 c0 -17 -3 -19 -12 -10 -8 8 -64 13
-177 14 -130 1 -150 3 -91 8 41 4 121 7 178 8 99 2 102 1 102 -20z m2708 -18
c64 -46 85 -97 90 -212 2 -54 1 -98 -2 -98 -4 0 -41 16 -83 35 l-75 35 23 37
c33 52 33 142 2 196 -28 46 -12 49 45 7z m-1704 5 c4 -12 2 -13 -12 -7 -9 5
-24 12 -32 15 -9 3 -4 6 11 6 15 1 29 -6 33 -14z m-418 -50 c-11 -8 -31 -15
-45 -14 -22 1 -19 3 14 14 52 17 54 17 31 0z m120 4 c8 -14 -36 -110 -48 -103
-11 7 -10 71 2 95 12 21 35 25 46 8z m432 -29 c70 -28 149 -68 112 -57 -66 19
-210 73 -210 80 0 12 18 8 98 -23z m-111 -5 c3 -9 4 -18 2 -20 -8 -7 -177 -26
-210 -23 l-34 3 25 14 c13 8 61 20 105 27 107 16 105 16 112 -1z m2927 7 c2
-4 7 -24 11 -45 6 -28 4 -37 -6 -37 -29 0 -38 16 -32 53 5 35 16 47 27 29z
m-3935 -247 c5 -33 7 -63 4 -67 -2 -5 -16 -8 -30 -8 l-26 0 7 133 c10 176 19
206 28 92 4 -49 11 -117 17 -150z m1161 196 c36 -16 74 -32 85 -36 12 -4 15
-9 8 -12 -7 -2 -50 7 -97 21 -46 14 -91 26 -100 26 -10 0 -16 8 -16 21 0 18 4
20 28 14 15 -3 56 -19 92 -34z m-403 -21 c61 -14 73 -25 66 -61 -5 -25 -7 -26
-46 -17 -62 13 -91 26 -105 48 -15 24 -5 52 17 46 9 -2 39 -10 68 -16z m223 6
c-20 -8 -54 -17 -76 -20 l-41 -7 8 -42 c4 -23 16 -73 27 -112 20 -68 20 -91 1
-79 -5 3 -9 2 -8 -3 5 -27 -4 -33 -12 -8 -5 17 -6 51 -3 77 6 40 4 48 -15 57
-17 10 -21 21 -21 65 l0 53 73 15 c91 19 112 20 67 4z m-345 -26 c8 0 15 -5
15 -12 0 -6 9 -21 19 -32 l20 -21 -45 3 c-29 3 -44 9 -44 18 0 8 -4 14 -10 14
-5 0 -10 -6 -10 -14 0 -8 -3 -21 -6 -30 -5 -14 8 -16 102 -17 70 0 102 -3 89
-9 -11 -5 -72 -9 -135 -9 -64 -1 -120 -4 -126 -8 -5 -5 0 2 11 13 11 12 36 47
55 78 26 43 36 53 43 41 4 -8 15 -15 22 -15z m1962 -15 c27 -11 34 -18 25 -24
-18 -11 -126 33 -130 53 -4 17 -12 19 105 -29z m-2087 20 c0 -8 7 -15 15 -15
18 0 15 -7 -40 -84 -48 -66 -47 -103 4 -170 21 -28 47 -64 57 -81 10 -16 23
-34 29 -38 13 -10 98 0 160 19 27 7 53 14 59 14 22 0 -20 -20 -77 -36 -32 -9
-60 -21 -63 -25 -7 -12 -174 -12 -174 0 0 5 14 14 30 21 17 7 29 18 27 24 -2
6 -30 30 -63 53 -32 22 -67 54 -76 70 -36 57 -17 130 53 214 42 50 59 60 59
34z m603 -10 c36 -13 102 -29 147 -34 88 -11 110 -22 110 -52 0 -17 -9 -19
-112 -19 -91 0 -122 4 -157 20 -51 24 -57 24 -42 7 6 -8 29 -22 51 -32 52 -23
53 -45 2 -45 -39 0 -62 14 -62 38 0 8 -8 26 -19 40 -29 42 -34 68 -16 86 21
20 21 21 98 -9z m2829 -65 c-3 -57 -7 -68 -33 -92 -54 -51 -57 -43 -33 80 16
80 18 83 43 80 25 -3 26 -4 23 -68z m532 -29 c-56 -108 -81 -123 -28 -19 43
86 65 120 71 114 3 -3 -16 -45 -43 -95z m-814 44 c0 -5 -5 -3 -10 5 -5 8 -10
20 -10 25 0 6 5 3 10 -5 5 -8 10 -19 10 -25z m-1105 -9 c19 -8 35 -17 35 -20
0 -5 -71 22 -79 30 -9 8 11 4 44 -10z m-285 -51 c52 -7 125 -23 162 -35 94
-29 238 -90 238 -101 0 -5 7 -9 15 -9 25 0 17 -13 -22 -40 -21 -14 -72 -51
-115 -82 -43 -32 -80 -58 -83 -58 -3 0 -5 6 -5 13 0 8 -6 14 -12 15 -7 0 -92
15 -188 32 -308 55 -511 50 -675 -15 l-60 -25 -27 30 c-32 36 -41 37 -67 9
-11 -12 -24 -18 -29 -15 -35 21 -147 23 -327 5 -104 -11 -217 -18 -250 -17
l-60 3 119 58 c65 31 135 61 155 66 53 14 428 51 518 51 68 0 89 5 168 39 201
86 346 107 545 76z m-1415 -61 c-17 -27 -18 -27 -103 -21 -76 6 -83 5 -65 -8
11 -8 39 -17 62 -21 23 -4 43 -10 46 -14 2 -4 -16 -4 -40 1 -27 5 -55 5 -71
-1 -39 -15 -141 -12 -174 5 -34 17 -45 46 -30 75 13 24 26 25 91 4 60 -20 211
-14 256 9 37 18 50 5 28 -29z m480 23 c31 -23 8 -37 -61 -37 -70 0 -104 12
-104 35 0 20 138 21 165 2z m-1304 -114 c1 -10 1 -33 0 -51 -2 -27 1 -33 16
-30 14 2 19 -5 21 -35 3 -36 2 -37 -23 -31 -39 10 -65 -19 -65 -73 0 -30 6
-49 21 -64 16 -16 18 -23 9 -29 -18 -11 -38 -2 -51 22 -6 11 -13 82 -16 158
-6 152 -9 146 60 149 19 1 27 -4 28 -16z m3039 -22 c66 -17 318 -106 328 -116
2 -2 -50 -20 -115 -40 -127 -40 -236 -86 -265 -112 -16 -15 -24 -14 -99 16
-107 42 -113 34 -7 -10 l83 -35 40 22 c22 12 120 50 218 83 l178 61 36 -20 36
-19 -54 -24 c-30 -13 -117 -54 -194 -89 -77 -36 -150 -69 -162 -72 -14 -5 -41
4 -85 28 -118 65 -394 156 -477 156 l-36 1 30 25 c65 54 224 156 256 165 51
13 204 2 289 -20z m-2282 -1 c-5 -23 -76 -42 -146 -38 -50 3 -67 9 -87 29
l-25 24 130 0 c111 0 130 -2 128 -15z m3318 -30 c98 -27 215 -60 259 -72 l80
-24 3 -37 c2 -24 -1 -37 -9 -37 -21 0 -513 150 -523 160 -7 7 -1 60 8 60 2 0
84 -22 182 -50z m-3686 -32 c42 -14 40 -33 -2 -22 -50 13 -269 11 -294 -4 -18
-10 -24 -9 -35 6 -7 9 -9 14 -5 10 5 -4 15 -3 22 3 34 28 242 33 314 7z m-57
-35 c64 -10 21 -23 -78 -23 -49 0 -108 3 -130 7 l-40 7 30 7 c40 9 170 10 218
2z m1870 -15 c121 -14 196 -26 194 -33 -5 -15 -825 -19 -843 -4 -11 9 -14 8
-14 -4 0 -24 -32 -37 -87 -37 -49 0 -73 12 -73 38 0 10 4 10 22 -2 32 -23 68
-20 123 9 107 58 358 70 678 33z m-1774 -64 c-15 -79 -32 -110 -70 -123 -43
-15 -178 -14 -209 2 -27 13 -66 81 -76 134 l-6 32 38 -11 c51 -14 237 -4 289
15 22 8 41 14 42 12 2 -1 -2 -28 -8 -61z m906 47 c11 -4 -64 -11 -170 -14
-105 -4 -265 -10 -357 -13 -124 -5 -168 -4 -168 4 0 9 40 12 133 13 72 1 191
5 262 8 181 10 277 11 300 2z m2495 -18 c90 -30 118 -88 58 -119 -51 -26 -171
-43 -358 -49 -208 -7 -260 -17 -306 -57 -44 -39 -49 -70 -29 -219 15 -119 63
-345 71 -336 2 2 -7 82 -21 178 -14 96 -25 197 -25 224 0 67 26 114 81 145 43
24 49 25 203 22 88 -1 160 -3 161 -5 3 -3 -15 -178 -20 -204 -3 -13 -37 -47
-81 -80 -42 -31 -72 -59 -66 -61 6 -2 37 10 70 27 33 17 62 27 66 24 13 -13 5
-172 -13 -258 -31 -147 -45 -356 -32 -471 6 -55 18 -124 26 -154 20 -75 19
-119 -5 -158 -28 -46 -64 -61 -90 -37 -35 31 -78 107 -125 220 -26 61 -62 145
-82 188 -19 43 -33 80 -30 83 3 3 10 -11 17 -30 6 -20 15 -38 20 -41 5 -3 0
20 -11 52 -25 73 -71 258 -94 385 -10 54 -20 96 -23 94 -8 -8 28 -222 53 -315
14 -52 24 -96 22 -98 -9 -8 -68 219 -82 313 -8 56 -16 185 -18 287 -2 213 0
219 88 266 43 22 65 26 158 29 115 4 123 9 92 56 l-15 23 62 6 c71 6 136 27
105 34 -15 4 -11 10 20 34 41 31 63 31 153 2z m-3210 -12 c0 -14 -10 -20 -46
-25 -87 -12 -124 -8 -124 12 0 29 8 32 92 32 69 0 78 -2 78 -19z m-581 -20
c29 -40 26 -50 -5 -16 -17 19 -29 24 -36 17 -18 -18 2 -51 38 -64 32 -11 33
-13 14 -20 -51 -19 -106 62 -68 100 19 19 35 14 57 -17z m1256 9 c-4 -6 -94
-9 -243 -8 -187 2 -214 3 -127 8 196 11 377 11 370 0z m-251 -31 c86 -1 96 -3
66 -11 -128 -38 -411 -117 -440 -123 -19 -4 -66 -22 -105 -41 -80 -39 -165
-54 -305 -54 -114 0 -164 11 -196 41 -39 37 -31 46 34 38 159 -20 322 -3 402
42 30 17 41 19 59 10 15 -8 21 -8 21 -1 0 14 -56 38 -109 46 -23 4 -41 9 -41
13 1 37 117 52 349 45 90 -2 210 -4 265 -5z m3034 -55 c12 -14 22 -29 22 -34
0 -13 -29 -26 -75 -33 l-40 -6 0 63 0 64 35 -14 c19 -8 45 -26 58 -40z m-2770
-13 c8 -5 -54 -32 -174 -76 -103 -38 -199 -79 -214 -92 -16 -13 -31 -23 -34
-23 -12 0 -6 88 7 99 11 8 171 51 352 94 32 8 49 7 63 -2z m-838 -11 c11 -7 4
-10 -25 -10 -29 0 -36 3 -25 10 8 5 20 10 25 10 6 0 17 -5 25 -10z m1530 -31
c23 -6 1 -7 -65 -3 -55 3 -116 9 -135 13 -22 5 2 6 65 3 55 -2 116 -8 135 -13z
m2301 -5 c5 -15 8 -28 7 -29 -5 -3 -260 -35 -329 -42 -46 -4 -68 -2 -74 6 -11
19 -3 22 103 37 54 7 137 22 183 33 46 10 87 20 92 20 4 1 12 -11 18 -25z
m-4422 0 c10 -10 -25 -24 -60 -24 -41 0 -73 25 -42 33 20 6 94 -1 102 -9z m95
-73 c4 -5 -3 -7 -14 -4 -23 6 -26 13 -6 13 8 0 17 -4 20 -9z m774 -45 c21 -12
12 -27 -58 -93 l-66 -62 -28 35 c-16 21 -25 42 -22 51 5 12 2 14 -16 9 -83
-25 -225 -38 -383 -34 -94 2 -177 8 -184 13 -10 6 0 14 35 28 34 13 102 24
219 33 94 8 202 20 241 27 73 12 238 8 262 -7z m-781 -2 c-3 -3 -12 -4 -19 -1
-8 3 -5 6 6 6 11 1 17 -2 13 -5z m43 -4 c0 -5 -8 -10 -17 -10 -15 0 -16 2 -3
10 19 12 20 12 20 0z m4035 -50 l60 -28 -40 4 c-27 2 -3 -9 75 -36 63 -21 110
-39 104 -39 -12 -1 -342 97 -355 105 -5 2 -1 13 9 23 20 21 53 14 147 -29z
m-3317 -18 c-7 -10 -40 -48 -73 -83 -68 -74 -55 -53 24 39 53 61 75 80 49 44z
m921 -203 c19 -25 -2 -8 -48 41 -45 47 -95 103 -112 125 -17 22 4 4 48 -41 43
-44 93 -100 112 -125z m2305 178 c3 4 6 1 6 -5 0 -6 7 -9 17 -5 11 5 14 3 8
-6 -6 -10 -2 -11 15 -6 17 5 21 4 15 -6 -6 -9 -3 -11 9 -6 11 4 15 3 10 -4 -4
-8 1 -9 17 -4 19 5 21 4 9 -4 -12 -9 -13 -11 -1 -11 8 0 12 -2 9 -5 -3 -3 -29
4 -58 15 -29 11 -55 19 -57 16 -2 -2 12 -9 32 -16 20 -7 34 -14 32 -16 -2 -2
-33 5 -68 15 -35 11 -65 19 -67 17 -2 -2 14 -10 35 -16 75 -24 223 -83 219
-87 -3 -3 -138 37 -246 73 -8 3 -11 2 -7 -2 4 -4 55 -26 114 -50 60 -24 104
-43 98 -43 -15 -1 -197 50 -217 60 -21 11 -24 69 -6 98 10 17 14 17 43 5 18
-7 35 -10 39 -7z m-4134 -37 c63 -5 259 -10 436 -10 176 0 323 -3 326 -6 5 -4
-20 -100 -29 -113 -2 -2 -81 -7 -176 -11 l-172 -7 176 -1 176 -2 11 -25 12
-25 -385 -2 c-212 -2 -436 -3 -497 -3 l-113 0 -3 99 c-1 55 0 106 3 114 4 12
17 13 63 8 31 -4 109 -11 172 -16z m2280 4 c0 -8 -5 -25 -12 -37 -6 -12 -19
-66 -30 -122 l-18 -100 4 76 c4 81 33 199 47 199 5 0 9 -7 9 -16z m2070 -39
c19 -7 28 -13 20 -13 -8 0 -31 6 -50 13 -19 7 -28 13 -20 13 8 0 31 -6 50 -13z
m-30 -17 c10 -6 7 -7 -10 -2 -14 3 -32 11 -40 16 -10 6 -7 7 10 2 14 -3 32
-11 40 -16z m-68 -96 c92 -31 164 -58 160 -59 -9 -4 -361 113 -370 122 -10 10
17 2 210 -63z m-3075 -10 c-26 -26 -47 -43 -47 -39 0 12 82 98 88 92 4 -3 -15
-27 -41 -53z m3056 -85 c57 -40 81 -65 30 -31 -16 10 -59 35 -98 57 -38 21
-77 45 -85 54 -23 23 87 -34 153 -80z m-89 15 c33 -21 60 -45 62 -55 2 -15
-10 -11 -64 19 -78 43 -86 49 -52 40 l25 -7 -25 20 c-40 33 -10 23 54 -17z
m10 -67 c93 -64 104 -74 56 -50 -41 21 -150 94 -150 100 0 12 21 1 94 -50z
m-57 -6 c71 -49 175 -129 167 -129 -7 0 -170 108 -213 142 -40 31 -2 20 46
-13z m153 -12 c10 -20 10 -20 -3 -5 -8 10 -16 16 -19 13 -2 -3 -5 2 -5 10 0
19 14 10 27 -18z m-3186 -9 c-17 -29 -88 -108 -96 -108 -5 0 15 27 44 60 51
59 67 73 52 48z m2951 -97 c-8 -7 -45 36 -45 53 0 6 12 -2 26 -18 14 -15 22
-31 19 -35z m-784 -54 c68 -46 72 -149 7 -183 -37 -19 -48 -9 -48 47 0 19 -7
57 -16 82 -26 77 -6 96 57 54z m680 -18 c48 -40 49 -42 49 -96 0 -49 -2 -54
-16 -42 -8 7 -24 29 -34 49 -11 21 -31 51 -46 69 -23 27 -27 61 -8 61 3 0 28
-18 55 -41z m-1873 -8 c32 -17 18 -31 -21 -20 -37 12 -233 15 -268 4 -18 -5
-21 -4 -13 4 28 30 253 39 302 12z m2194 -118 c30 -22 36 -23 194 -16 161 6
164 6 164 -15 0 -23 1 -22 -239 -39 -112 -8 -116 -8 -143 15 l-28 24 0 -29 c0
-17 2 -32 5 -35 3 -3 27 -1 54 3 27 4 97 11 155 15 l106 7 0 -223 0 -222 -72
63 c-108 97 -117 106 -205 238 l-83 122 0 80 0 80 30 -23 c17 -13 45 -33 62
-45z m-2545 -9 c-3 -3 -12 -4 -19 -1 -8 3 -5 6 6 6 11 1 17 -2 13 -5z m66 -11
c-7 -2 -21 -2 -30 0 -10 3 -4 5 12 5 17 0 24 -2 18 -5z m331 -8 c114 -18 150
-30 140 -46 -8 -13 -140 -6 -303 17 -58 8 -106 14 -108 14 -2 0 -3 4 -3 9 0
22 145 25 274 6z m1125 -150 c7 -55 18 -147 25 -205 8 -62 10 -114 5 -128 -18
-47 -29 -9 -29 96 0 59 -7 163 -15 232 -17 145 -17 139 -6 120 5 -8 14 -60 20
-115z"/>
<path d="M4793 4790 c0 -30 2 -43 4 -27 2 15 2 39 0 55 -2 15 -4 2 -4 -28z"/>
<path d="M300 4702 c0 -93 5 -109 27 -91 24 21 13 179 -13 179 -11 0 -14 -20
-14 -88z"/>
<path d="M330 4579 c0 -13 -8 -23 -21 -26 -16 -5 -19 -12 -17 -42 2 -29 8 -37
26 -39 21 -3 22 0 22 62 0 36 -2 66 -5 66 -3 0 -5 -9 -5 -21z"/>
<path d="M503 4683 c9 -2 23 -2 30 0 6 3 -1 5 -18 5 -16 0 -22 -2 -12 -5z"/>
<path d="M531 4598 c1 -29 5 -87 9 -128 6 -72 7 -70 8 47 1 72 -2 124 -8 128
-6 4 -10 -14 -9 -47z"/>
<path d="M498 4293 c6 -2 18 -2 25 0 6 3 1 5 -13 5 -14 0 -19 -2 -12 -5z"/>
<path d="M842 4535 c0 -16 2 -22 5 -12 2 9 2 23 0 30 -3 6 -5 -1 -5 -18z"/>
<path d="M193 4690 c0 -30 2 -43 4 -27 2 15 2 39 0 55 -2 15 -4 2 -4 -28z"/>
<path d="M4550 4508 c4 -154 7 -141 12 50 2 63 -1 102 -7 102 -6 0 -8 -54 -5
-152z"/>
<path d="M2248 4223 c7 -3 16 -2 19 1 4 3 -2 6 -13 5 -11 0 -14 -3 -6 -6z"/>
<path d="M2010 4210 c0 -5 5 -10 11 -10 5 0 7 5 4 10 -3 6 -8 10 -11 10 -2 0
-4 -4 -4 -10z"/>
<path d="M2063 4203 c15 -2 37 -2 50 0 12 2 0 4 -28 4 -27 0 -38 -2 -22 -4z"/>
<path d="M2235 4178 c-16 -5 -77 -13 -135 -17 l-105 -8 85 -1 c77 -2 191 16
207 32 9 9 -17 6 -52 -6z"/>
<path d="M2350 4179 c0 -5 5 -7 10 -4 6 3 10 8 10 11 0 2 -4 4 -10 4 -5 0 -10
-5 -10 -11z"/>
<path d="M2020 4100 c14 -4 34 -8 45 -9 16 -1 17 1 5 9 -8 5 -28 9 -45 9 -29
-1 -29 -1 -5 -9z"/>
<path d="M1252 4335 c0 -16 2 -22 5 -12 2 9 2 23 0 30 -3 6 -5 -1 -5 -18z"/>
<path d="M1321 4414 c0 -11 3 -14 6 -6 3 7 2 16 -1 19 -3 4 -6 -2 -5 -13z"/>
<path d="M3477 4293 c6 -84 10 -87 14 -10 3 44 0 67 -7 67 -7 0 -9 -20 -7 -57z"/>
<path d="M3442 4163 c2 -179 6 -158 10 60 2 64 0 117 -4 117 -5 0 -7 -80 -6
-177z"/>
<path d="M2792 4243 c-15 -6 -46 -63 -33 -63 5 0 17 12 26 27 l17 26 20 -43
c15 -32 19 -57 16 -94 l-5 -51 15 35 c20 48 11 116 -19 145 -13 12 -30 21 -37
18z"/>
<path d="M2745 4160 c-3 -5 1 -20 10 -33 10 -16 13 -34 9 -55 -4 -20 -2 -32 4
-32 17 0 52 51 52 76 0 35 -59 70 -75 44z"/>
<path d="M2611 3854 c0 -11 3 -14 6 -6 3 7 2 16 -1 19 -3 4 -6 -2 -5 -13z"/>
<path d="M2439 3743 c19 -15 41 -33 49 -39 8 -5 20 -35 28 -65 l14 -54 -6 50
c-6 55 -30 87 -86 119 l-33 18 34 -29z"/>
<path d="M2253 3610 c1 -3 9 -18 17 -33 13 -27 17 -28 59 -22 24 4 56 12 70
18 l26 11 -28 4 c-17 2 -27 8 -24 15 3 8 -15 12 -59 12 -35 0 -63 -2 -61 -5z"/>
<path d="M165 4043 c4 -10 16 -42 27 -71 12 -29 23 -51 25 -48 5 5 -47 136
-54 136 -3 0 -2 -8 2 -17z"/>
<path d="M220 3905 c0 -5 5 -17 10 -25 5 -8 10 -10 10 -5 0 6 -5 17 -10 25 -5
8 -10 11 -10 5z"/>
<path d="M240 3855 c0 -5 5 -17 10 -25 5 -8 10 -10 10 -5 0 6 -5 17 -10 25 -5
8 -10 11 -10 5z"/>
<path d="M764 3825 c0 -99 2 -138 3 -87 2 51 2 132 0 180 -1 48 -3 6 -3 -93z"/>
<path d="M426 3771 c10 -39 35 -94 40 -88 3 2 -7 29 -21 58 -13 30 -22 43 -19
30z"/>
<path d="M2435 3930 c-10 -11 -13 -20 -7 -20 6 0 16 9 22 20 6 11 9 20 7 20
-2 0 -12 -9 -22 -20z"/>
<path d="M844 3775 c0 -77 2 -107 3 -67 2 40 2 103 0 140 -2 37 -3 4 -3 -73z"/>
<path d="M3330 3572 c0 -16 50 -72 65 -72 22 0 162 -48 231 -80 l66 -30 -42
-47 c-23 -27 -47 -57 -52 -68 -13 -25 -14 -25 55 56 l55 67 -76 35 c-42 20
-116 48 -165 63 -65 20 -94 34 -112 56 -14 16 -25 25 -25 20z"/>
<path d="M3431 2800 c0 -36 4 -72 9 -80 12 -19 12 34 1 100 -8 45 -9 45 -10
-20z"/>
<path d="M3594 3705 c0 -66 1 -92 3 -57 2 34 2 88 0 120 -2 31 -3 3 -3 -63z"/>
<path d="M1501 3304 c0 -11 3 -14 6 -6 3 7 2 16 -1 19 -3 4 -6 -2 -5 -13z"/>
<path d="M3050 3140 c0 -10 39 -33 78 -44 37 -12 25 12 -18 34 -43 22 -60 25
-60 10z"/>
<path d="M2410 2749 c70 -69 180 -133 245 -144 38 -6 37 -5 -17 18 -85 36
-140 70 -250 156 -31 24 -26 16 22 -30z"/>
<path d="M3961 3163 c0 -13 1 -23 3 -23 2 0 11 -3 20 -6 12 -5 16 0 15 17 0
13 -3 18 -6 12 -7 -18 -21 -16 -26 5 -4 13 -5 11 -6 -5z"/>
<path d="M4358 2903 c-3 -21 -16 -78 -30 -128 -14 -49 -33 -128 -43 -175 -9
-47 -26 -129 -37 -183 -19 -93 -18 -141 2 -121 31 31 142 616 121 637 -5 5
-11 -7 -13 -30z"/>
<path d="M4371 2524 c0 -11 3 -14 6 -6 3 7 2 16 -1 19 -3 4 -6 -2 -5 -13z"/>
<path d="M4361 2484 c0 -11 3 -14 6 -6 3 7 2 16 -1 19 -3 4 -6 -2 -5 -13z"/>
<path d="M4326 2344 c-16 -63 -26 -118 -23 -120 3 -3 17 47 32 111 15 64 25
118 22 121 -2 2 -16 -48 -31 -112z"/>
<path d="M3290 2212 c0 -4 12 -19 26 -33 44 -41 81 -101 124 -205 22 -54 51
-108 62 -119 12 -11 17 -13 10 -5 -6 9 -30 68 -52 132 -28 79 -53 129 -76 157
-38 44 -94 88 -94 73z"/>
<path d="M3498 2133 c7 -3 16 -2 19 1 4 3 -2 6 -13 5 -11 0 -14 -3 -6 -6z"/>
<path d="M3895 2068 c55 -50 90 -105 114 -180 17 -51 71 -124 81 -108 21 35
-47 193 -112 259 -41 41 -104 81 -128 81 -7 0 14 -23 45 -52z"/>
<path d="M1178 2603 c7 -3 16 -2 19 1 4 3 -2 6 -13 5 -11 0 -14 -3 -6 -6z"/>
<path d="M1273 2480 c19 -25 48 -70 66 -100 17 -30 31 -50 31 -45 0 19 -58
110 -95 150 l-37 40 35 -45z"/>
<path d="M1335 2446 c10 -14 19 -26 22 -26 7 0 -17 39 -28 46 -6 3 -3 -5 6
-20z"/>
<path d="M4602 2420 c0 -14 4 -38 8 -55 7 -27 8 -27 8 -5 0 14 -4 39 -8 55 -7
27 -8 27 -8 5z"/>
<path d="M2476 2357 c3 -10 9 -15 12 -12 3 3 0 11 -7 18 -10 9 -11 8 -5 -6z"/>
<path d="M2420 2303 c0 -23 27 -35 49 -21 12 7 21 17 21 22 0 5 -8 2 -18 -7
-17 -15 -19 -15 -35 0 -9 10 -17 12 -17 6z"/>
<path d="M1628 2283 c7 -3 16 -2 19 1 4 3 -2 6 -13 5 -11 0 -14 -3 -6 -6z"/>
<path d="M1757 2239 c7 -7 15 -10 18 -7 3 3 -2 9 -12 12 -14 6 -15 5 -6 -5z"/>
<path d="M2322 2184 c-112 -76 -172 -133 -200 -185 -14 -26 -16 -34 -5 -19 54
75 135 146 255 226 29 18 48 34 42 34 -5 0 -47 -25 -92 -56z"/>
<path d="M1810 2216 c0 -3 31 -21 69 -41 39 -19 96 -55 128 -80 l58 -46 -50
46 c-44 40 -205 135 -205 121z"/>
<path d="M1900 2136 c0 -3 9 -10 20 -16 11 -6 20 -8 20 -6 0 3 -9 10 -20 16
-11 6 -20 8 -20 6z"/>
<path d="M1950 2107 c0 -2 19 -19 43 -37 23 -19 36 -26 28 -17 -15 19 -71 61
-71 54z"/>
<path d="M5000 2420 c0 -5 5 -10 10 -10 6 0 10 5 10 10 0 6 -4 10 -10 10 -5 0
-10 -4 -10 -10z"/>
<path d="M2568 1913 c18 -2 45 -2 60 0 15 2 0 4 -33 4 -33 0 -45 -2 -27 -4z"/>
<path d="M2703 1903 c9 -2 23 -2 30 0 6 3 -1 5 -18 5 -16 0 -22 -2 -12 -5z"/>
<path d="M2763 1893 c9 -2 23 -2 30 0 6 3 -1 5 -18 5 -16 0 -22 -2 -12 -5z"/>
<path d="M2830 1880 c14 -4 34 -8 45 -8 16 0 15 2 -5 8 -14 4 -34 8 -45 8 -16
0 -15 -2 5 -8z"/>
<path d="M2545 1860 c118 -6 260 -25 333 -45 9 -3 1 2 -18 11 -62 29 -176 44
-318 42 l-137 -1 140 -7z"/>
<path d="M2363 1853 c9 -2 23 -2 30 0 6 3 -1 5 -18 5 -16 0 -22 -2 -12 -5z"/>
<path d="M2408 1813 c17 -2 47 -2 65 0 17 2 3 4 -33 4 -36 0 -50 -2 -32 -4z"/>
<path d="M2518 1813 c7 -3 16 -2 19 1 4 3 -2 6 -13 5 -11 0 -14 -3 -6 -6z"/>
<path d="M1848 1783 c18 -2 45 -2 60 0 15 2 0 4 -33 4 -33 0 -45 -2 -27 -4z"/>
<path d="M1748 1773 c7 -3 16 -2 19 1 4 3 -2 6 -13 5 -11 0 -14 -3 -6 -6z"/>
<path d="M2004 1748 l-29 -33 33 29 c30 28 37 36 29 36 -2 0 -16 -15 -33 -32z"/>
<path d="M2242 1760 c-73 -10 -121 -24 -175 -52 -60 -30 -39 -30 44 0 72 26
79 26 304 26 212 0 240 -2 359 -27 124 -27 173 -30 104 -8 -155 49 -490 81
-636 61z"/>
<path d="M1755 1735 c23 -8 149 -12 130 -4 -11 4 -47 8 -80 8 -33 -1 -55 -2
-50 -4z"/>
<path d="M1733 1713 c20 -2 54 -2 75 0 20 2 3 4 -38 4 -41 0 -58 -2 -37 -4z"/>
<path d="M1108 1763 c17 -2 47 -2 65 0 17 2 3 4 -33 4 -36 0 -50 -2 -32 -4z"/>
<path d="M2312 1653 c59 -2 158 -2 220 0 62 1 14 3 -107 3 -121 0 -172 -2
-113 -3z"/>
<path d="M2133 1643 c9 -2 25 -2 35 0 9 3 1 5 -18 5 -19 0 -27 -2 -17 -5z"/>
<path d="M3826 1308 c-15 -56 11 -234 44 -302 11 -23 17 -32 14 -21 -33 107
-59 277 -48 320 3 14 4 25 1 25 -2 0 -7 -10 -11 -22z"/>
<path d="M4400 1244 c0 -7 52 -25 57 -20 2 2 -10 8 -26 14 -17 6 -31 9 -31 6z"/>
<path d="M180 1172 c0 -7 718 -5 765 2 11 2 -157 4 -372 5 -216 0 -393 -3
-393 -7z"/>
<path d="M948 1093 c12 -2 30 -2 40 0 9 3 -1 5 -23 4 -22 0 -30 -2 -17 -4z"/>
<path d="M212 1043 c37 -2 100 -2 140 0 40 1 10 3 -67 3 -77 0 -110 -1 -73 -3z"/>
<path d="M4485 955 c22 -13 45 -24 50 -24 6 0 -8 11 -30 24 -22 14 -44 25 -50
25 -5 0 8 -11 30 -25z"/>
<path d="M1731 5104 c0 -11 3 -14 6 -6 3 7 2 16 -1 19 -3 4 -6 -2 -5 -13z"/>
<path d="M1794 4875 c0 -137 2 -195 3 -128 2 67 2 179 0 250 -1 70 -3 16 -3
-122z"/>
<path d="M3396 5094 c-4 -15 -5 -29 -1 -32 3 -3 5 1 5 9 0 8 12 22 28 31 l27
17 -26 1 c-21 0 -28 -6 -33 -26z"/>
<path d="M3479 5085 c-23 -20 -50 -40 -60 -46 -18 -9 -19 -26 -17 -297 l3
-287 5 281 5 281 58 47 c52 43 64 56 53 56 -2 0 -23 -16 -47 -35z"/>
<path d="M1733 5035 c0 -27 2 -38 4 -22 2 15 2 37 0 50 -2 12 -4 0 -4 -28z"/>
<path d="M2862 4823 l2 -128 3 123 4 122 214 0 215 0 0 -160 0 -159 -62 -4
-63 -3 68 -2 67 -2 0 170 0 170 -225 0 -225 0 2 -127z"/>
<path d="M1732 4920 c0 -14 2 -19 5 -12 2 6 2 18 0 25 -3 6 -5 1 -5 -13z"/>
<path d="M1732 4730 c0 -19 2 -27 5 -17 2 9 2 25 0 35 -3 9 -5 1 -5 -18z"/>
<path d="M3790 4660 c-107 -54 -191 -99 -186 -99 9 -1 386 185 395 195 16 15
-38 -9 -209 -96z"/>
<path d="M2973 4703 c32 -2 81 -2 110 0 29 2 3 3 -58 3 -60 0 -84 -1 -52 -3z"/>
<path d="M3008 4563 l182 -3 0 -210 0 -209 -152 -4 -153 -3 158 -2 157 -2 0
220 0 220 -187 -2 -188 -3 183 -2z"/>
<path d="M3560 4545 c-14 -8 -34 -12 -45 -9 -18 4 -18 4 -3 -6 13 -8 25 -7 48
5 16 8 30 18 30 20 0 7 -2 6 -30 -10z"/>
<path d="M1691 4474 c0 -11 3 -14 6 -6 3 7 2 16 -1 19 -3 4 -6 -2 -5 -13z"/>
<path d="M1724 4360 c0 -63 1 -89 3 -57 2 31 2 83 0 115 -2 31 -3 5 -3 -58z"/>
<path d="M1794 4305 c0 -60 1 -84 3 -52 2 32 2 81 0 110 -2 29 -3 3 -3 -58z"/>
<path d="M1691 4274 c0 -11 3 -14 6 -6 3 7 2 16 -1 19 -3 4 -6 -2 -5 -13z"/>
<path d="M5065 4253 c-529 -125 -625 -150 -625 -162 0 -12 65 -28 160 -41 136
-19 130 -16 130 -54 0 -30 -4 -35 -27 -39 -16 -3 -69 -13 -119 -23 l-92 -17
-7 -188 -7 -188 -26 -3 c-14 -2 -27 -8 -29 -14 -2 -7 27 -6 94 2 54 6 212 22
351 35 189 17 252 26 252 36 0 7 -5 13 -11 13 -12 0 -6 427 6 468 7 20 4 22
-28 22 -25 0 -37 -5 -41 -17 -2 -10 -8 -123 -12 -250 -3 -128 -10 -233 -15
-233 -10 0 -12 378 -3 457 l7 51 46 9 46 8 3 68 c3 72 2 73 -53 60z m18 -400
c-3 -126 -9 -232 -14 -237 -11 -12 -11 98 -2 316 3 87 9 155 13 153 4 -3 5
-107 3 -232z m-168 197 c9 -29 -2 -40 -41 -40 -29 0 -34 3 -34 24 0 38 64 52
75 16z m-129 -57 c-2 -38 -5 -148 -5 -245 -1 -171 -2 -178 -21 -178 -19 0 -20
7 -20 163 0 223 8 315 29 320 9 3 17 5 19 6 1 0 1 -29 -2 -66z m120 -45 c-3
-29 -6 -124 -6 -210 l0 -158 -35 0 -35 0 0 203 c0 112 3 207 7 210 3 4 22 7
41 7 l35 0 -7 -52z m94 28 c0 -16 -7 -26 -22 -30 -36 -9 -38 -8 -38 24 0 27 3
30 30 30 25 0 30 -4 30 -24z m-180 -196 c0 -127 -4 -200 -10 -200 -6 0 -10 73
-10 200 0 127 4 200 10 200 6 0 10 -73 10 -200z m-90 -24 c0 -154 -2 -185 -15
-190 -13 -5 -15 20 -15 184 0 162 2 190 15 190 13 0 15 -27 15 -184z m-53 92
c-4 -46 -7 -129 -7 -185 0 -85 -3 -103 -15 -103 -17 0 -19 51 -8 248 5 99 9
122 21 122 13 0 14 -13 9 -82z m316 -80 c-3 -90 -6 -164 -7 -164 0 -1 -11 -5
-23 -8 l-23 -7 0 170 0 171 29 0 29 0 -5 -162z m-403 126 c0 -8 -7 -14 -15
-14 -15 0 -21 21 -9 33 10 9 24 -2 24 -19z m40 -77 c0 -163 -10 -257 -28 -257
-12 0 -13 12 -8 68 3 37 7 118 7 180 1 89 4 112 15 112 11 0 14 -21 14 -103z
m-90 68 c0 -8 -7 -15 -15 -15 -8 0 -15 7 -15 15 0 8 7 15 15 15 8 0 15 -7 15
-15z m35 -222 c-4 -62 -11 -113 -16 -113 -15 0 -11 294 4 309 17 17 21 -50 12
-196z m-35 42 c0 -148 -1 -155 -20 -155 -19 0 -19 5 -14 143 6 153 8 167 24
167 6 0 10 -55 10 -155z"/>
<path d="M23 1563 c15 -2 37 -2 50 0 12 2 0 4 -28 4 -27 0 -38 -2 -22 -4z"/>
<path d="M4811 1336 c2 -2 22 -6 44 -9 27 -4 35 -3 25 3 -14 9 -79 15 -69 6z"/>
<path d="M4838 1313 c7 -3 16 -2 19 1 4 3 -2 6 -13 5 -11 0 -14 -3 -6 -6z"/>
<path d="M4860 1300 c-20 -6 -21 -8 -5 -8 11 0 29 3 40 8 25 11 -1 11 -35 0z"/>
<path d="M5073 1163 c9 -2 25 -2 35 0 9 3 1 5 -18 5 -19 0 -27 -2 -17 -5z"/>
<path d="M3100 1091 c0 -19 88 -189 156 -302 64 -105 64 -106 74 -210 6 -57 8
-142 5 -189 -6 -75 -37 -307 -51 -367 -2 -13 0 -23 4 -23 5 0 20 66 33 148 20
121 24 181 23 337 -1 187 -1 191 -31 260 -29 70 -213 368 -213 346z"/>
<path d="M5083 933 c9 -2 23 -2 30 0 6 3 -1 5 -18 5 -16 0 -22 -2 -12 -5z"/>
<path d="M4983 923 c9 -2 23 -2 30 0 6 3 -1 5 -18 5 -16 0 -22 -2 -12 -5z"/>
<path d="M0 902 c0 -4 66 -6 148 -4 213 4 223 9 25 11 -95 0 -173 -2 -173 -7z"/>
<path d="M1048 903 c17 -2 47 -2 65 0 17 2 3 4 -33 4 -36 0 -50 -2 -32 -4z"/>
<path d="M5068 893 c12 -2 30 -2 40 0 9 3 -1 5 -23 4 -22 0 -30 -2 -17 -4z"/>
<path d="M4983 883 c9 -2 23 -2 30 0 6 3 -1 5 -18 5 -16 0 -22 -2 -12 -5z"/>
<path d="M33 863 c20 -2 54 -2 75 0 20 2 3 4 -38 4 -41 0 -58 -2 -37 -4z"/>
<path d="M175 843 c-114 -7 -175 -15 -175 -24 0 -5 17 -7 37 -3 21 3 99 11
173 19 120 11 99 17 -35 8z"/>
<path d="M4465 300 c173 -179 298 -300 310 -300 12 0 -144 158 -310 313 l-130
121 130 -134z"/>
<path d="M2313 330 c18 -29 56 -209 59 -279 1 -40 2 -42 5 -11 10 74 -34 277
-64 301 -15 13 -15 12 0 -11z"/>
</g>
</svg>