<?xml version="1.0" standalone="no"?>
<!DOCTYPE svg PUBLIC "-//W3C//DTD SVG 20010904//EN"
 "http://www.w3.org/TR/2001/REC-SVG-20010904/DTD/svg10.dtd">
<svg version="1.0" xmlns="http://www.w3.org/2000/svg"
 width="512.000000pt" height="512.000000pt" viewBox="0 0 512.000000 512.000000"
 preserveAspectRatio="xMidYMid meet">
<metadata>
Created by potrace 1.16, written by Peter Selinger 2001-2019
</metadata>
<g transform="translate(0.000000,512.000000) scale(0.100000,-0.100000)"
fill="#000000" stroke="none">
<path d="M4785 4858 c-170 -128 -420 -312 -555 -410 -254 -185 -324 -238 -260
-196 103 66 1076 783 1120 824 39 38 -20 -5 -305 -218z"/>
<path d="M5039 4953 c-13 -16 -12 -17 4 -4 16 13 21 21 13 21 -2 0 -10 -8 -17
-17z"/>
<path d="M4955 4894 l-30 -26 33 22 c17 12 32 23 32 26 0 7 -4 5 -35 -22z"/>
<path d="M4869 4833 c-13 -16 -12 -17 4 -4 9 7 17 15 17 17 0 8 -8 3 -21 -13z"/>
<path d="M4960 4734 c-74 -47 -290 -183 -480 -302 -190 -118 -349 -219 -355
-225 -17 -18 50 23 625 383 289 180 365 230 350 230 -3 0 -66 -39 -140 -86z"/>
<path d="M4785 4774 l-30 -26 33 22 c17 12 32 23 32 26 0 7 -4 5 -35 -22z"/>
<path d="M110 4746 c0 -3 9 -10 20 -16 11 -6 20 -8 20 -6 0 3 -9 10 -20 16
-11 6 -20 8 -20 6z"/>
<path d="M4729 4733 c-13 -16 -12 -17 4 -4 9 7 17 15 17 17 0 8 -8 3 -21 -13z"/>
<path d="M160 4715 c0 -2 18 -14 40 -25 22 -11 40 -18 40 -15 0 2 -18 14 -40
25 -22 11 -40 18 -40 15z"/>
<path d="M4689 4703 c-13 -16 -12 -17 4 -4 16 13 21 21 13 21 -2 0 -10 -8 -17
-17z"/>
<path d="M270 4655 c0 -2 18 -14 40 -25 22 -11 40 -18 40 -15 0 2 -18 14 -40
25 -22 11 -40 18 -40 15z"/>
<path d="M360 4606 c0 -3 14 -12 30 -21 17 -9 30 -13 30 -11 0 3 -13 12 -30
21 -16 9 -30 13 -30 11z"/>
<path d="M430 4566 c0 -3 14 -12 30 -21 17 -9 30 -13 30 -11 0 3 -13 12 -30
21 -16 9 -30 13 -30 11z"/>
<path d="M110 4505 c14 -8 30 -14 35 -14 6 0 -1 6 -15 14 -14 8 -29 14 -35 14
-5 0 1 -6 15 -14z"/>
<path d="M520 4516 c0 -3 14 -12 30 -21 17 -9 30 -13 30 -11 0 3 -13 12 -30
21 -16 9 -30 13 -30 11z"/>
<path d="M185 4474 c47 -27 287 -135 291 -131 3 3 -286 138 -310 145 -6 2 3
-5 19 -14z"/>
<path d="M590 4476 c0 -3 14 -12 30 -21 17 -9 30 -13 30 -11 0 3 -13 12 -30
21 -16 9 -30 13 -30 11z"/>
<path d="M680 4426 c0 -3 9 -10 20 -16 11 -6 20 -8 20 -6 0 3 -9 10 -20 16
-11 6 -20 8 -20 6z"/>
<path d="M730 4396 c0 -2 8 -10 18 -17 15 -13 16 -12 3 4 -13 16 -21 21 -21
13z"/>
<path d="M520 4320 c19 -11 40 -19 45 -19 6 0 -6 8 -25 19 -19 11 -39 19 -45
19 -5 0 6 -8 25 -19z"/>
<path d="M600 4285 c14 -8 30 -14 35 -14 6 0 -1 6 -15 14 -14 8 -29 14 -35 14
-5 0 1 -6 15 -14z"/>
<path d="M780 4296 c0 -3 14 -12 30 -21 17 -9 30 -13 30 -11 0 3 -13 12 -30
21 -16 9 -30 13 -30 11z"/>
<path d="M680 4250 c8 -5 20 -10 25 -10 6 0 3 5 -5 10 -8 5 -19 10 -25 10 -5
0 -3 -5 5 -10z"/>
<path d="M5060 4230 c-8 -5 -10 -10 -5 -10 6 0 17 5 25 10 8 5 11 10 5 10 -5
0 -17 -5 -25 -10z"/>
<path d="M5010 4210 c-8 -5 -10 -10 -5 -10 6 0 17 5 25 10 8 5 11 10 5 10 -5
0 -17 -5 -25 -10z"/>
<path d="M3853 4179 c-24 -17 -43 -32 -43 -35 0 -3 20 9 45 26 25 17 45 33 45
35 0 7 -2 6 -47 -26z"/>
<path d="M4084 4184 c-18 -14 -18 -15 4 -4 12 6 22 13 22 15 0 8 -5 6 -26 -11z"/>
<path d="M4034 4154 c-18 -14 -18 -15 4 -4 12 6 22 13 22 15 0 8 -5 6 -26 -11z"/>
<path d="M3779 4123 c-13 -16 -12 -17 4 -4 16 13 21 21 13 21 -2 0 -10 -8 -17
-17z"/>
<path d="M4991 4094 c-12 -15 -21 -34 -21 -42 0 -8 -18 -49 -41 -89 -35 -65
-39 -78 -30 -104 6 -19 7 -39 0 -56 -8 -25 -15 -28 -54 -29 -31 -1 -45 3 -45
12 0 7 -7 20 -16 29 -20 20 -34 9 -50 -37 -14 -43 -28 -45 -39 -6 -7 23 -16
33 -30 33 -16 0 -21 -10 -28 -52 -8 -48 -11 -53 -34 -53 -15 0 -35 -7 -45 -16
-26 -24 -47 -3 -45 46 1 42 -32 90 -63 90 -20 0 -82 -80 -75 -98 3 -8 -6 -28
-20 -44 -15 -17 -24 -36 -21 -43 6 -18 -40 -25 -61 -10 -13 10 -23 6 -57 -27
-34 -34 -45 -39 -71 -33 -200 41 -346 42 -588 4 -72 -11 -137 -17 -144 -15 -7
3 -13 16 -13 30 0 40 -19 41 -59 2 -20 -20 -40 -36 -43 -36 -4 0 -8 15 -10 33
-2 24 -8 32 -23 32 -15 0 -22 -10 -29 -37 -10 -42 -38 -57 -62 -37 -13 11 -18
10 -26 -5 -17 -31 -59 -37 -243 -39 l-180 -1 157 -3 c134 -3 156 -6 152 -18
-5 -13 -53 -15 -323 -15 -174 0 -372 5 -441 10 -69 5 -285 14 -480 20 -195 6
-362 13 -371 15 -9 3 -22 19 -29 35 -15 36 -51 41 -73 10 -8 -11 -16 -17 -19
-14 -11 11 -78 -8 -78 -22 0 -11 -25 -14 -127 -14 l-128 0 -17 30 c-10 17 -25
30 -37 30 -18 0 -27 -6 -59 -45 -16 -19 -76 -20 -92 0 -7 8 -21 15 -32 15 -10
0 -21 -7 -24 -15 -10 -26 -22 -17 -44 31 -24 56 -24 61 -5 67 11 4 10 4 -2 3
-10 -1 -26 7 -36 17 -17 17 -21 17 -41 3 -21 -13 -24 -13 -40 5 -21 25 -48 21
-60 -8 -15 -33 -67 -27 -176 22 -127 57 -173 72 -245 79 -54 5 -52 4 27 -13
88 -19 328 -124 328 -144 0 -14 -40 -67 -51 -67 -5 0 -9 16 -9 35 0 23 -8 43
-22 57 l-21 21 -24 -27 c-12 -15 -23 -37 -23 -49 0 -18 -2 -19 -10 -7 -5 8
-10 10 -10 3 0 -12 -101 -11 -132 2 -9 3 -19 21 -22 40 -4 18 -13 39 -22 46
-9 7 -24 30 -35 51 -11 21 -22 38 -24 38 -3 0 -5 -47 -5 -104 l0 -105 48 -6
c107 -14 525 -100 633 -131 272 -77 565 -202 628 -267 58 -61 31 -93 -132
-157 -49 -19 -60 -21 -68 -9 -14 22 -7 29 50 52 66 27 98 65 82 96 -16 29 -49
45 -65 32 -9 -8 -18 -3 -35 20 -16 21 -29 29 -42 26 -10 -3 -23 1 -30 9 -15
18 -29 18 -29 -1 0 -9 -11 -20 -25 -25 -15 -6 -25 -17 -25 -30 0 -12 -16 -32
-41 -49 -33 -24 -45 -28 -65 -21 -25 10 -67 0 -78 -19 -4 -6 -26 -15 -49 -22
-23 -6 -56 -24 -73 -40 l-31 -30 -11 25 c-22 49 -90 85 -194 101 -20 3 -124
51 -231 105 -107 55 -200 100 -206 100 -8 0 -11 -105 -11 -378 l0 -379 113 40
c61 21 254 88 427 147 842 289 923 328 875 420 -18 34 -63 63 -159 102 -51 21
-61 27 -36 24 31 -5 30 -4 -10 9 -25 9 -51 13 -57 10 -7 -2 -13 -1 -13 4 0 11
-88 34 -100 26 -4 -3 -10 -2 -12 3 -1 4 -25 20 -52 36 -27 16 -46 23 -42 17
18 -29 -15 -5 -68 48 l-57 58 173 9 c334 17 1035 1 1418 -32 244 -21 498 -63
599 -98 37 -14 91 -26 268 -61 28 -5 28 -5 3 5 -54 24 -442 121 -575 144
l-140 24 193 1 c105 1 192 -3 192 -8 0 -5 20 -6 45 -3 52 5 60 -9 15 -28 -17
-7 -29 -14 -27 -16 2 -3 28 6 58 20 30 13 112 42 183 65 186 61 348 83 611 85
309 2 417 -16 263 -43 -50 -9 -49 -10 22 -5 41 3 126 12 189 20 62 7 157 16
210 19 53 3 108 8 124 10 15 3 27 1 27 -3 0 -4 -34 -36 -76 -72 -42 -35 -111
-97 -155 -137 -48 -46 -83 -72 -90 -67 -7 4 -9 3 -6 -3 3 -5 -11 -26 -31 -45
l-37 -36 -160 -12 c-190 -13 -312 -38 -457 -92 l-107 -40 -43 30 c-98 67 -397
212 -438 212 -6 0 -10 -4 -10 -10 0 -5 7 -6 17 -3 11 5 14 3 8 -6 -6 -10 -2
-11 15 -6 17 5 21 4 15 -5 -5 -9 -4 -11 3 -6 7 4 36 -5 64 -19 71 -36 228
-126 228 -132 0 -2 -6 -1 -12 2 -45 23 122 -111 294 -236 26 -19 134 -100 240
-180 233 -177 610 -441 923 -645 127 -83 240 -156 253 -163 l22 -12 0 148 0
148 -148 81 c-81 44 -235 135 -342 201 -260 160 -300 186 -270 178 35 -10 148
-68 400 -202 118 -64 248 -133 288 -154 42 -22 72 -33 72 -26 0 7 -128 80
-285 162 -157 82 -285 152 -285 156 0 6 166 75 408 170 l162 64 0 78 c0 60 -3
76 -12 71 -7 -4 -100 -65 -205 -136 -106 -70 -236 -153 -290 -183 l-97 -55
-56 32 c-30 17 -82 57 -114 90 -79 79 -139 109 -241 118 -75 7 -95 14 -297
112 -120 57 -220 107 -224 110 -16 16 160 78 305 108 106 21 349 45 359 36 3
-4 -40 -53 -96 -109 -110 -110 -139 -153 -44 -66 205 190 654 526 900 673
l112 68 0 174 0 174 -24 0 c-14 0 -28 5 -31 10 -12 19 -53 10 -74 -16z m-3961
-614 c15 -5 -31 -8 -118 -9 -93 -1 -141 2 -137 9 7 12 218 12 255 0z m77 -206
c-3 -3 -12 -4 -19 -1 -8 3 -5 6 6 6 11 1 17 -2 13 -5z m2428 -237 c6 -6 -12 2
-40 18 -27 15 -54 32 -60 38 -5 6 13 -2 40 -18 28 -15 55 -32 60 -38z m385
-177 c242 -121 332 -174 455 -265 61 -45 172 -121 248 -169 75 -49 137 -90
137 -92 0 -3 -11 -2 -24 2 -36 9 -28 -21 15 -58 30 -27 31 -28 4 -10 -43 28
-116 64 -121 59 -2 -2 16 -18 41 -36 24 -17 46 -35 49 -40 8 -12 -46 -6 -71 7
-30 17 -42 14 -19 -3 11 -8 16 -15 11 -15 -15 0 28 -41 92 -86 101 -72 73 -61
-44 18 -348 232 -1019 718 -1040 751 -4 7 5 4 21 -6 48 -32 42 -9 -11 42 l-51
49 72 -33 c39 -18 145 -69 236 -115z"/>
<path d="M4666 2363 c-7 -7 22 -43 35 -43 4 0 6 7 5 16 -3 18 -30 37 -40 27z
m29 -21 c-3 -3 -11 0 -18 7 -9 10 -8 11 6 5 10 -3 15 -9 12 -12z"/>
<path d="M3934 4094 c-18 -14 -18 -15 4 -4 12 6 22 13 22 15 0 8 -5 6 -26 -11z"/>
<path d="M3709 4073 c-13 -16 -12 -17 4 -4 16 13 21 21 13 21 -2 0 -10 -8 -17
-17z"/>
<path d="M861 3656 c2 -2 36 -6 74 -9 42 -3 58 -2 40 3 -30 8 -122 13 -114 6z"/>
<path d="M1257 3653 c18 -2 50 -2 70 0 21 2 7 4 -32 4 -38 0 -55 -2 -38 -4z"/>
<path d="M803 3643 c9 -2 25 -2 35 0 9 3 1 5 -18 5 -19 0 -27 -2 -17 -5z"/>
<path d="M1178 3643 c7 -3 16 -2 19 1 4 3 -2 6 -13 5 -11 0 -14 -3 -6 -6z"/>
<path d="M1408 3643 c7 -3 16 -2 19 1 4 3 -2 6 -13 5 -11 0 -14 -3 -6 -6z"/>
<path d="M743 3633 c9 -2 23 -2 30 0 6 3 -1 5 -18 5 -16 0 -22 -2 -12 -5z"/>
<path d="M1040 3625 c46 -18 64 -17 25 0 -16 8 -37 14 -45 14 -8 0 1 -7 20
-14z"/>
<path d="M688 3623 c6 -2 18 -2 25 0 6 3 1 5 -13 5 -14 0 -19 -2 -12 -5z"/>
<path d="M1108 3623 c7 -3 16 -2 19 1 4 3 -2 6 -13 5 -11 0 -14 -3 -6 -6z"/>
<path d="M1558 3593 c6 -2 18 -2 25 0 6 3 1 5 -13 5 -14 0 -19 -2 -12 -5z"/>
<path d="M1618 3583 c6 -2 18 -2 25 0 6 3 1 5 -13 5 -14 0 -19 -2 -12 -5z"/>
<path d="M1668 3573 c6 -2 18 -2 25 0 6 3 1 5 -13 5 -14 0 -19 -2 -12 -5z"/>
<path d="M1718 3563 c7 -3 16 -2 19 1 4 3 -2 6 -13 5 -11 0 -14 -3 -6 -6z"/>
<path d="M1770 3550 c14 -4 34 -8 45 -8 16 0 15 2 -5 8 -14 4 -34 8 -45 8 -16
0 -15 -2 5 -8z"/>
<path d="M1848 3533 c6 -2 18 -2 25 0 6 3 1 5 -13 5 -14 0 -19 -2 -12 -5z"/>
<path d="M2938 3533 c7 -3 16 -2 19 1 4 3 -2 6 -13 5 -11 0 -14 -3 -6 -6z"/>
<path d="M1908 3523 c7 -3 16 -2 19 1 4 3 -2 6 -13 5 -11 0 -14 -3 -6 -6z"/>
<path d="M2748 3523 c7 -3 16 -2 19 1 4 3 -2 6 -13 5 -11 0 -14 -3 -6 -6z"/>
<path d="M1963 3513 c9 -2 25 -2 35 0 9 3 1 5 -18 5 -19 0 -27 -2 -17 -5z"/>
<path d="M2688 3513 c6 -2 18 -2 25 0 6 3 1 5 -13 5 -14 0 -19 -2 -12 -5z"/>
<path d="M3485 3511 c17 -5 50 -9 73 -10 85 -2 250 -43 468 -117 233 -78 290
-93 164 -43 -221 87 -511 165 -646 173 -56 3 -78 2 -59 -3z"/>
<path d="M2073 3503 c9 -2 23 -2 30 0 6 3 -1 5 -18 5 -16 0 -22 -2 -12 -5z"/>
<path d="M2628 3503 c6 -2 18 -2 25 0 6 3 1 5 -13 5 -14 0 -19 -2 -12 -5z"/>
<path d="M3968 3503 c7 -3 16 -2 19 1 4 3 -2 6 -13 5 -11 0 -14 -3 -6 -6z"/>
<path d="M2173 3493 c15 -2 39 -2 55 0 15 2 2 4 -28 4 -30 0 -43 -2 -27 -4z"/>
<path d="M2458 3493 c28 -2 76 -2 105 0 28 2 5 3 -53 3 -58 0 -81 -1 -52 -3z"/>
<path d="M1260 3437 c-83 -11 -84 -11 -40 -18 25 -4 63 -8 85 -8 22 -1 47 -6
55 -12 12 -8 10 -9 -7 -4 -13 3 -23 2 -23 -3 0 -5 42 -17 93 -27 132 -26 274
-69 375 -116 91 -42 212 -116 212 -129 0 -7 -191 -110 -203 -110 -3 0 -8 11
-11 25 -8 30 -56 87 -100 117 -20 14 -15 6 16 -23 48 -45 86 -115 71 -129 -4
-5 -129 -72 -278 -150 -148 -78 -283 -150 -300 -160 -16 -10 -147 -81 -290
-158 -143 -77 -350 -193 -461 -259 -110 -65 -258 -149 -327 -188 -70 -38 -126
-76 -127 -82 0 -7 3 -13 6 -13 3 0 157 88 342 196 326 190 901 508 1282 709
102 54 232 122 290 153 106 56 190 108 190 119 0 3 -10 -2 -22 -11 -52 -36
-61 -36 -25 1 40 42 44 60 23 101 -22 42 -98 77 -231 106 -66 15 -130 29 -142
31 -12 3 -24 1 -28 -4 -6 -10 4 -13 146 -50 148 -39 239 -83 239 -116 0 -10
-25 -2 -82 25 -97 45 -188 71 -393 114 -114 24 -150 35 -153 47 -4 24 26 29
178 29 190 0 437 -50 583 -119 32 -15 56 -23 54 -17 -7 21 -104 60 -231 92
-72 18 -123 33 -113 33 35 2 381 -71 409 -85 58 -30 28 -72 -127 -172 -55 -36
-163 -106 -240 -157 -745 -490 -1319 -859 -1730 -1110 -231 -141 -232 -142
-224 -149 3 -3 91 47 195 112 194 121 236 146 195 115 -31 -24 -283 -186 -343
-221 l-48 -27 0 -268 0 -268 83 68 c45 37 159 130 252 207 564 464 967 805
960 815 -2 4 10 21 28 37 l32 29 -29 -32 c-17 -18 -25 -33 -19 -33 6 0 16 7
24 16 7 9 100 88 206 176 106 88 190 165 186 171 -3 5 -1 7 5 3 6 -3 48 26 93
65 46 39 108 90 138 112 30 22 71 55 91 73 19 17 77 69 129 115 52 47 97 91
99 99 4 11 -2 9 -19 -5 l-24 -20 24 27 c13 15 27 25 32 23 11 -7 88 84 95 112
17 67 -27 102 -173 138 -175 43 -310 55 -601 54 -147 -1 -305 -7 -352 -12z
m618 -4 c-10 -2 -26 -2 -35 0 -10 3 -2 5 17 5 19 0 27 -2 18 -5z m312 -375
c-63 -57 -317 -246 -382 -285 -29 -17 -64 -34 -78 -38 -40 -10 36 53 168 137
61 40 160 107 220 150 59 42 109 76 112 77 3 0 -15 -18 -40 -41z m-234 -106
c-6 -10 -194 -138 -251 -172 -69 -40 -32 -12 111 86 137 93 150 101 140 86z
m-316 -256 c0 -2 -66 -50 -147 -107 -196 -137 -445 -320 -678 -499 -104 -80
-228 -176 -275 -211 -47 -36 -121 -91 -165 -121 -80 -56 -249 -159 -230 -140
24 24 129 104 230 177 138 99 236 171 550 405 278 207 473 346 614 439 91 59
101 65 101 57z m-230 -300 c0 -2 -8 -10 -17 -17 -16 -13 -17 -12 -4 4 13 16
21 21 21 13z m-130 -109 c0 -2 -12 -14 -27 -28 l-28 -24 24 28 c23 25 31 32
31 24z m-60 -50 c0 -2 -10 -12 -22 -23 l-23 -19 19 23 c18 21 26 27 26 19z
m-75 -66 c-42 -39 -389 -322 -365 -298 29 29 373 316 380 317 2 0 -4 -8 -15
-19z m-340 -206 c-96 -79 -768 -525 -790 -525 -17 1 23 28 271 190 132 85 307
201 389 257 152 103 184 122 130 78z m-55 -118 c0 -2 -12 -14 -27 -28 l-28
-24 24 28 c23 25 31 32 31 24z m-60 -51 c0 -2 -28 -27 -62 -56 l-63 -52 60 56
c60 55 65 60 65 52z m-130 -109 c0 -2 -12 -14 -27 -28 l-28 -24 24 28 c23 25
31 32 31 24z m-60 -50 c0 -2 -10 -12 -22 -23 l-23 -19 19 23 c18 21 26 27 26
19z m-60 -50 c0 -2 -10 -12 -22 -23 l-23 -19 19 23 c18 21 26 27 26 19z m-50
-41 c0 -2 -24 -23 -52 -46 l-53 -42 50 46 c50 46 55 49 55 42z m-110 -89 c0
-2 -10 -12 -22 -23 l-23 -19 19 23 c18 21 26 27 26 19z m-50 -40 c0 -2 -12
-14 -27 -28 l-28 -24 24 28 c23 25 31 32 31 24z m-70 -60 c0 -2 -12 -14 -27
-28 l-28 -24 24 28 c23 25 31 32 31 24z m-60 -50 c0 -2 -10 -12 -22 -23 l-23
-19 19 23 c18 21 26 27 26 19z"/>
<path d="M1123 3433 c9 -2 23 -2 30 0 6 3 -1 5 -18 5 -16 0 -22 -2 -12 -5z"/>
<path d="M2208 3423 c7 -3 16 -2 19 1 4 3 -2 6 -13 5 -11 0 -14 -3 -6 -6z"/>
<path d="M910 3411 c0 -13 41 -41 60 -41 9 0 4 9 -15 25 -32 26 -45 31 -45 16z"/>
<path d="M2359 3394 c62 -13 117 -21 122 -18 5 3 9 0 9 -5 0 -6 9 -11 19 -11
36 0 146 -39 193 -69 84 -54 107 -135 82 -298 -15 -103 -49 -267 -78 -377 -8
-31 -12 -66 -10 -79 3 -13 1 -16 -3 -7 -4 9 -33 -90 -69 -230 -327 -1288 -444
-1702 -495 -1743 -12 -10 -24 -16 -26 -14 -2 2 13 64 33 136 19 73 33 135 30
138 -3 4 -69 -55 -145 -130 -77 -76 -145 -137 -150 -137 -19 0 -47 -71 -121
-305 -40 -126 -74 -233 -77 -237 -2 -5 54 -8 124 -8 l129 0 79 250 79 251 48
29 c44 27 48 34 68 102 12 40 46 150 76 243 57 177 259 971 338 1325 25 113
50 219 55 235 21 69 8 -6 -34 -199 -25 -113 -47 -227 -50 -253 l-5 -48 15 45
c24 70 59 239 129 610 94 500 99 560 54 639 -26 46 -18 48 12 4 23 -34 25 -45
24 -152 -1 -177 -113 -834 -199 -1165 -49 -189 -108 -491 -92 -476 2 3 24 91
47 195 22 105 54 240 70 300 39 150 178 873 181 944 1 25 2 25 9 -4 7 -25 8
-21 9 25 0 30 0 97 0 149 1 52 -4 112 -9 133 -12 42 -66 111 -81 102 -5 -3 -9
0 -9 6 0 14 -97 57 -162 72 -34 8 -45 14 -36 21 9 6 7 7 -5 3 -10 -3 -68 3
-130 14 -153 28 -187 24 -48 -6z m328 -916 c-3 -8 -6 -5 -6 6 -1 11 2 17 5 13
3 -3 4 -12 1 -19z"/>
<path d="M2728 3373 c7 -3 16 -2 19 1 4 3 -2 6 -13 5 -11 0 -14 -3 -6 -6z"/>
<path d="M2840 3341 c169 -55 303 -136 495 -302 66 -56 167 -144 225 -193 116
-100 245 -216 450 -405 162 -148 304 -267 505 -423 83 -64 209 -164 280 -223
72 -59 174 -143 228 -186 l97 -80 0 153 0 153 -107 70 c-317 207 -771 532
-1086 776 -106 82 -196 149 -201 149 -4 0 17 -27 48 -61 53 -57 69 -93 45
-101 -6 -2 29 -35 77 -73 48 -39 123 -99 165 -135 98 -83 113 -94 129 -98 7
-2 27 -13 44 -25 30 -21 29 -16 -7 37 l-20 28 21 -11 c36 -19 316 -232 335
-254 10 -12 15 -16 11 -8 -5 10 -3 12 5 7 7 -5 10 -11 6 -14 -3 -3 9 -21 27
-39 43 -44 30 -42 -45 8 l-62 42 35 -37 35 -37 -30 11 c-54 21 -240 167 -635
501 -185 157 -227 196 -223 207 2 4 -5 7 -15 7 -9 0 -16 5 -15 12 1 6 -5 17
-15 25 -16 12 -16 11 -3 -7 8 -11 -3 -2 -23 20 -21 22 -34 34 -30 26 4 -8 -11
3 -32 25 -40 40 -303 247 -404 318 -30 21 -70 45 -88 53 -26 11 -32 18 -27 33
7 23 2 25 -28 8 -20 -10 -21 -10 -8 5 14 18 13 18 -46 21 -10 1 -20 4 -23 7
-6 7 -140 39 -160 38 -8 0 23 -13 70 -28z m1953 -1360 c7 -8 -14 5 -45 28 -32
24 -58 45 -58 48 0 7 89 -59 103 -76z m38 -28 c13 -16 12 -17 -3 -4 -17 13
-22 21 -14 21 2 0 10 -8 17 -17z"/>
<path d="M2713 3340 c62 -24 109 -60 136 -104 32 -51 77 -287 52 -272 -8 5
-10 -54 -9 -216 1 -123 4 -191 5 -153 2 39 8 74 14 79 5 6 9 18 9 29 0 11 4
15 11 11 9 -5 10 9 6 52 l-7 59 20 -65 c11 -36 20 -76 20 -90 1 -14 4 -19 7
-12 2 7 -4 72 -16 145 -11 72 -27 178 -35 234 -9 56 -25 126 -36 155 -23 62
-23 61 -8 52 7 -5 8 -3 4 5 -5 7 -10 10 -13 7 -3 -3 -26 12 -50 34 -24 21 -65
46 -90 54 -64 22 -79 19 -20 -4z m199 -502 c-5 -114 -9 -122 -11 -20 0 50 3
92 7 92 4 0 6 -33 4 -72z"/>
<path d="M2420 3316 c0 -2 8 -10 18 -17 15 -13 16 -12 3 4 -13 16 -21 21 -21
13z"/>
<path d="M2452 3239 c-2 -36 -11 -61 -44 -110 -57 -85 -341 -365 -415 -408
-32 -19 -94 -65 -138 -101 -44 -37 -119 -97 -167 -134 -86 -66 -97 -79 -79
-90 8 -5 254 185 280 217 7 9 18 17 24 17 6 0 -11 -22 -38 -50 -27 -27 -46
-50 -42 -50 8 0 179 164 431 415 163 161 199 217 193 292 l-3 48 -2 -46z
m-482 -562 c0 -2 -12 -14 -27 -28 l-28 -24 24 28 c23 25 31 32 31 24z"/>
<path d="M1285 3228 c98 -34 161 -64 184 -87 15 -15 20 -18 11 -6 -8 12 -3 8
13 -7 15 -16 27 -36 26 -46 0 -14 -2 -14 -9 3 -8 18 -9 17 -9 -7 -1 -30 -17
-41 -274 -182 -222 -123 -653 -328 -1007 -481 -80 -34 -162 -71 -183 -81 l-37
-18 0 -143 c0 -79 2 -143 4 -143 13 0 485 278 616 363 85 55 245 154 355 220
434 260 521 318 571 384 31 41 37 90 14 118 -8 9 -34 27 -59 40 -53 26 -217
85 -234 84 -7 0 2 -5 18 -11z m230 -195 c-3 -16 -16 -38 -27 -50 -20 -21 -22
-21 -34 -6 -10 15 -7 21 22 41 19 12 34 27 34 32 0 6 3 10 6 10 3 0 3 -12 -1
-27z"/>
<path d="M2904 3203 c31 -62 67 -180 91 -301 14 -70 34 -154 45 -187 18 -59
19 -59 13 -15 -10 85 -54 288 -77 357 -24 70 -72 173 -81 173 -3 0 1 -12 9
-27z"/>
<path d="M1571 3216 c10 -9 69 -36 69 -32 0 6 -55 36 -66 36 -4 0 -5 -2 -3 -4z"/>
<path d="M1860 3196 c0 -3 9 -10 20 -16 11 -6 20 -8 20 -6 0 3 -9 10 -20 16
-11 6 -20 8 -20 6z"/>
<path d="M1910 3166 c0 -2 14 -14 30 -26 17 -12 30 -19 30 -16 0 2 -13 14 -30
26 -16 12 -30 19 -30 16z"/>
<path d="M2591 3154 c0 -11 3 -14 6 -6 3 7 2 16 -1 19 -3 4 -6 -2 -5 -13z"/>
<path d="M4885 3019 c-307 -162 -337 -176 -430 -193 l-80 -15 64 6 c95 8 141
27 416 172 220 117 281 151 265 151 -3 0 -108 -55 -235 -121z"/>
<path d="M2576 3115 c-9 -26 -7 -32 5 -12 6 10 9 21 6 23 -2 3 -7 -2 -11 -11z"/>
<path d="M2535 3030 c-9 -16 -13 -30 -11 -30 3 0 12 14 21 30 9 17 13 30 11
30 -3 0 -12 -13 -21 -30z"/>
<path d="M2630 2908 c-18 -45 -104 -225 -191 -400 -87 -175 -156 -318 -154
-318 3 0 72 135 155 299 145 291 236 488 228 497 -2 2 -19 -33 -38 -78z"/>
<path d="M3180 2960 c6 -11 13 -20 16 -20 2 0 0 9 -6 20 -6 11 -13 20 -16 20
-2 0 0 -9 6 -20z"/>
<path d="M2124 2908 l-29 -33 33 29 c30 28 37 36 29 36 -2 0 -16 -15 -33 -32z"/>
<path d="M3295 2920 c10 -11 20 -20 23 -20 3 0 -3 9 -13 20 -10 11 -20 20 -23
20 -3 0 3 -9 13 -20z"/>
<path d="M2169 2697 c-113 -127 -293 -342 -399 -477 -221 -279 -253 -317 -479
-565 -312 -342 -430 -449 -736 -670 -235 -169 -555 -442 -555 -472 0 -9 29 11
71 48 136 122 285 242 514 413 266 200 379 298 525 457 58 63 161 175 230 249
175 189 210 231 441 525 112 143 280 347 373 453 153 174 234 272 224 272 -2
0 -96 -105 -209 -233z"/>
<path d="M3215 2900 c9 -16 18 -30 21 -30 2 0 -2 14 -11 30 -9 17 -18 30 -21
30 -2 0 2 -13 11 -30z"/>
<path d="M3477 2813 c43 -50 145 -165 226 -254 82 -89 189 -211 239 -271 50
-59 92 -108 94 -108 27 0 -274 347 -542 625 l-96 100 79 -92z"/>
<path d="M3335 2870 c10 -11 20 -20 23 -20 3 0 -3 9 -13 20 -10 11 -20 20 -23
20 -3 0 3 -9 13 -20z"/>
<path d="M2049 2843 c-13 -16 -12 -17 4 -4 9 7 17 15 17 17 0 8 -8 3 -21 -13z"/>
<path d="M3255 2830 c9 -16 18 -30 21 -30 2 0 -2 14 -11 30 -9 17 -18 30 -21
30 -2 0 2 -13 11 -30z"/>
<path d="M2364 2803 c-21 -26 -33 -44 -27 -40 14 9 77 87 70 87 -3 0 -22 -21
-43 -47z"/>
<path d="M3375 2820 c10 -11 20 -20 23 -20 3 0 -3 9 -13 20 -10 11 -20 20 -23
20 -3 0 3 -9 13 -20z"/>
<path d="M2817 2740 c-4 -47 -19 -156 -33 -244 -14 -87 -23 -164 -21 -170 11
-31 72 414 65 471 -2 15 -7 -10 -11 -57z"/>
<path d="M3292 2770 c8 -14 27 -46 42 -72 15 -27 30 -48 33 -48 6 0 -49 96
-71 123 l-18 22 14 -25z"/>
<path d="M3427 2753 c245 -318 403 -512 468 -577 43 -45 70 -67 58 -51 -12 17
-38 46 -58 65 -20 19 -60 64 -88 100 -155 197 -400 500 -404 500 -3 0 8 -17
24 -37z"/>
<path d="M3725 2750 c10 -11 20 -20 23 -20 3 0 -3 9 -13 20 -10 11 -20 20 -23
20 -3 0 3 -9 13 -20z"/>
<path d="M2309 2733 c-13 -16 -12 -17 4 -4 9 7 17 15 17 17 0 8 -8 3 -21 -13z"/>
<path d="M3395 2670 c9 -16 20 -30 26 -30 5 0 0 14 -13 30 -12 17 -23 30 -25
30 -2 0 3 -13 12 -30z"/>
<path d="M2986 2580 c2 -36 9 -144 14 -240 5 -96 12 -200 16 -230 6 -52 5 -56
-19 -69 -28 -15 -47 -57 -47 -105 0 -56 -20 -6 -21 54 0 30 -4 75 -7 99 l-7
43 -19 -21 c-18 -20 -20 -43 -25 -256 -4 -129 -5 -235 -4 -235 1 0 13 4 26 9
l24 9 6 -135 c4 -75 7 -174 7 -220 0 -75 2 -83 19 -83 25 0 28 -21 41 -281 7
-138 8 -224 1 -240 -5 -13 -33 -56 -63 -95 l-53 -71 2 206 1 206 -13 -185 c-8
-102 -18 -291 -24 -420 -6 -129 -14 -254 -17 -277 l-6 -43 91 0 91 0 0 243 0
243 68 93 67 93 7 -78 c3 -44 11 -160 17 -259 6 -99 14 -215 17 -257 l7 -78
63 0 c35 0 64 4 64 10 0 5 -13 71 -30 147 -49 226 -75 406 -170 1173 -33 262
-89 835 -100 1025 -6 99 -15 205 -20 235 l-9 55 5 -65z"/>
<path d="M360 2620 c-8 -5 -10 -10 -5 -10 6 0 17 5 25 10 8 5 11 10 5 10 -5 0
-17 -5 -25 -10z"/>
<path d="M3420 2626 c0 -4 63 -133 140 -289 100 -204 170 -329 250 -452 61
-93 146 -228 189 -300 43 -71 114 -188 158 -260 44 -71 104 -168 132 -215 56
-90 71 -110 71 -94 0 9 -39 75 -242 404 -52 85 -116 193 -143 240 -26 47 -97
162 -158 255 -97 149 -374 661 -364 672 2 2 55 -78 116 -178 62 -99 115 -178
117 -176 11 11 -231 387 -253 395 -7 2 -13 1 -13 -2z m28 -31 c-3 -3 -9 2 -12
12 -6 14 -5 15 5 6 7 -7 10 -15 7 -18z"/>
<path d="M1849 2518 c-23 -18 -49 -44 -58 -58 -10 -16 7 -5 47 28 34 30 62 56
62 58 0 8 -10 3 -51 -28z"/>
<path d="M2567 2363 c-2 -10 -34 -121 -70 -248 -82 -290 -137 -497 -136 -510
2 -17 36 101 130 439 49 180 88 330 86 333 -3 2 -7 -4 -10 -14z"/>
<path d="M2220 2330 c-6 -11 -8 -20 -6 -20 3 0 10 9 16 20 6 11 8 20 6 20 -3
0 -10 -9 -16 -20z"/>
<path d="M1498 2231 c-51 -49 -113 -117 -137 -152 -24 -35 -35 -55 -24 -44
174 177 274 285 266 285 -6 0 -53 -40 -105 -89z"/>
<path d="M2137 2188 c-129 -225 -208 -372 -190 -353 5 6 57 96 115 200 58 105
116 207 128 228 12 20 20 37 17 37 -3 0 -34 -51 -70 -112z"/>
<path d="M3411 2295 c0 -5 6 -21 14 -35 8 -14 14 -20 14 -15 0 6 -6 21 -14 35
-8 14 -14 21 -14 15z"/>
<path d="M3441 2228 c-1 -3 19 -51 43 -105 24 -54 85 -190 134 -303 50 -113
117 -263 150 -335 145 -317 193 -428 187 -433 -18 -18 -47 34 -123 212 -47
108 -86 195 -89 193 -2 -2 28 -80 67 -173 137 -325 180 -433 180 -454 0 -28
-23 -35 -60 -17 -24 13 -30 13 -30 2 0 -7 61 -192 135 -411 74 -219 135 -399
135 -401 0 -2 57 -3 126 -3 l125 0 -7 23 c-4 12 -29 74 -56 137 -176 408 -176
406 -135 412 32 4 26 32 -38 172 -30 65 -52 123 -48 129 4 6 1 7 -7 2 -10 -6
-12 -4 -7 9 5 11 3 15 -5 10 -8 -5 -9 -2 -5 10 5 11 3 15 -5 10 -8 -5 -9 -2
-5 9 3 9 2 16 -4 14 -5 -1 -71 114 -146 255 -75 141 -141 254 -147 251 -5 -4
-7 1 -3 10 3 10 2 17 -4 17 -6 0 -7 5 -4 10 3 6 1 10 -5 10 -6 0 -8 5 -5 10 3
6 1 10 -6 10 -7 0 -10 3 -6 6 3 4 -1 13 -9 21 -8 9 -13 22 -10 30 3 8 2 12 -3
9 -9 -6 -3 -19 -131 269 -113 253 -178 393 -179 383z m605 -1433 c-13 -34 -26
-12 -25 43 l1 57 15 -43 c8 -23 12 -49 9 -57z m194 -435 c31 -69 60 -135 64
-148 l7 -22 -37 25 c-21 14 -43 33 -49 43 -12 18 -75 204 -95 280 -6 24 -14
51 -17 60 -13 41 75 -124 127 -238z"/>
<path d="M4214 2013 c166 -200 217 -256 165 -180 -39 55 -255 310 -300 352
-23 22 38 -56 135 -172z"/>
<path d="M3799 2125 c71 -127 178 -272 520 -706 125 -157 278 -352 341 -434
167 -216 209 -265 225 -265 40 0 51 -15 -471 636 -221 276 -450 569 -509 652
-117 165 -158 210 -106 117z"/>
<path d="M2762 2110 c0 -14 2 -19 5 -12 2 6 2 18 0 25 -3 6 -5 1 -5 -13z"/>
<path d="M2751 2076 c-1 -5 -21 -110 -46 -235 -25 -124 -60 -315 -79 -423
l-33 -198 -45 -48 c-52 -56 -82 -126 -109 -259 -10 -51 -30 -132 -43 -180 -43
-153 -197 -598 -229 -659 -38 -75 -38 -74 61 -74 76 0 91 3 97 18 24 58 74
215 130 402 85 291 141 564 170 835 9 78 78 502 111 674 14 73 23 138 20 145
-2 6 -5 7 -5 2z"/>
<path d="M2766 1907 c-10 -76 -16 -141 -12 -144 3 -3 6 0 6 8 0 7 7 62 16 121
8 59 14 118 12 130 -2 13 -12 -39 -22 -115z"/>
<path d="M2375 1938 c-65 -137 -242 -624 -232 -635 3 -2 15 26 27 64 44 135
183 500 220 581 21 45 36 82 34 82 -3 0 -25 -42 -49 -92z"/>
<path d="M3311 1954 c0 -11 3 -14 6 -6 3 7 2 16 -1 19 -3 4 -6 -2 -5 -13z"/>
<path d="M3321 1914 c0 -11 3 -14 6 -6 3 7 2 16 -1 19 -3 4 -6 -2 -5 -13z"/>
<path d="M4401 1875 c147 -169 297 -324 483 -497 121 -115 224 -208 229 -208
44 0 -62 106 -668 670 -38 36 -58 51 -44 35z"/>
<path d="M3331 1880 c0 -8 4 -24 9 -35 5 -13 9 -14 9 -5 0 8 -4 24 -9 35 -5
13 -9 14 -9 5z"/>
<path d="M3350 1817 c0 -3 18 -79 40 -169 22 -90 68 -305 101 -478 101 -527
223 -1079 236 -1067 2 3 -12 74 -32 159 -70 298 -125 557 -184 868 -65 339
-161 749 -161 687z"/>
<path d="M4378 1734 c32 -57 735 -831 740 -815 4 13 -6 25 -258 296 -97 105
-219 237 -270 295 -132 149 -224 246 -212 224z"/>
<path d="M3864 1693 c10 -25 319 -561 378 -655 19 -31 34 -45 44 -41 8 3 14
11 14 18 0 7 -43 84 -96 171 -53 88 -146 241 -206 342 -67 113 -115 182 -124
182 -11 0 -14 -5 -10 -17z"/>
<path d="M2013 1688 c-25 -33 -98 -227 -78 -206 7 6 95 218 91 218 -2 0 -8 -6
-13 -12z"/>
<path d="M1920 1614 c0 -5 -29 -61 -64 -124 l-65 -114 -12 28 c-12 26 -11 34
20 90 51 94 19 53 -42 -54 -29 -52 -123 -214 -209 -360 -164 -281 -346 -611
-497 -902 l-93 -178 46 0 45 0 99 132 c170 228 237 322 301 427 50 81 72 106
103 122 l40 20 -8 -23 c-8 -26 -157 -384 -232 -558 -27 -63 -45 -117 -40 -119
15 -5 16 -2 154 329 69 168 162 390 206 494 77 183 121 296 113 296 -4 0 -53
-103 -112 -237 -44 -101 -46 -103 -87 -113 -22 -6 -51 -15 -64 -20 -13 -6 -27
-10 -32 -10 -5 0 29 63 75 141 143 240 377 720 360 737 -3 3 -5 1 -5 -4z"/>
<path d="M1840 1580 c-6 -11 -8 -20 -6 -20 3 0 10 9 16 20 6 11 8 20 6 20 -3
0 -10 -9 -16 -20z"/>
<path d="M3680 1595 c0 -5 5 -17 10 -25 5 -8 10 -10 10 -5 0 6 -5 17 -10 25
-5 8 -10 11 -10 5z"/>
<path d="M2351 1574 c0 -11 3 -14 6 -6 3 7 2 16 -1 19 -3 4 -6 -2 -5 -13z"/>
<path d="M3711 1525 c0 -5 6 -21 14 -35 8 -14 14 -20 14 -15 0 6 -6 21 -14 35
-8 14 -14 21 -14 15z"/>
<path d="M1157 1248 c-35 -46 -142 -184 -237 -308 -192 -248 -403 -520 -459
-590 -20 -25 -28 -39 -19 -31 10 7 107 128 215 268 109 140 249 321 312 401
174 225 262 342 257 342 -3 0 -34 -37 -69 -82z"/>
<path d="M2102 1193 c-15 -48 -8 -55 8 -8 7 20 10 38 8 41 -3 2 -10 -13 -16
-33z"/>
<path d="M2884 1145 c0 -49 1 -71 3 -48 2 23 2 64 0 90 -2 26 -3 8 -3 -42z"/>
<path d="M3581 974 c0 -11 3 -14 6 -6 3 7 2 16 -1 19 -3 4 -6 -2 -5 -13z"/>
<path d="M4417 943 c11 -29 139 -255 253 -448 59 -99 147 -251 196 -337 49
-87 95 -157 103 -158 8 0 11 6 7 15 -12 32 -555 945 -561 945 -3 0 -1 -8 2
-17z"/>
<path d="M3591 934 c0 -11 3 -14 6 -6 3 7 2 16 -1 19 -3 4 -6 -2 -5 -13z"/>
<path d="M3601 894 c0 -11 3 -14 6 -6 3 7 2 16 -1 19 -3 4 -6 -2 -5 -13z"/>
<path d="M4300 810 c58 -86 201 -356 360 -679 l64 -131 53 0 53 0 -26 53
c-127 252 -395 746 -430 793 -13 18 -36 34 -52 37 -16 3 -42 9 -57 13 -26 6
-24 2 35 -86z"/>
<path d="M3611 860 c-2 -29 96 -374 98 -348 1 7 -86 333 -94 353 -2 6 -4 3 -4
-5z"/>
<path d="M380 250 c-23 -27 -40 -50 -37 -50 3 0 24 23 47 50 23 28 40 50 37
50 -3 0 -24 -22 -47 -50z"/>
<path d="M319 173 c-13 -16 -12 -17 4 -4 9 7 17 15 17 17 0 8 -8 3 -21 -13z"/>
</g>
</svg>