<?xml version="1.0" standalone="no"?>
<!DOCTYPE svg PUBLIC "-//W3C//DTD SVG 20010904//EN"
 "http://www.w3.org/TR/2001/REC-SVG-20010904/DTD/svg10.dtd">
<svg version="1.0" xmlns="http://www.w3.org/2000/svg"
 width="512.000000pt" height="512.000000pt" viewBox="0 0 512.000000 512.000000"
 preserveAspectRatio="xMidYMid meet">
<metadata>
Created by potrace 1.16, written by Peter Selinger 2001-2019
</metadata>
<g transform="translate(0.000000,512.000000) scale(0.100000,-0.100000)"
fill="#000000" stroke="none">
<path d="M1062 4763 c-10 -4 -11 -82 -7 -376 3 -205 8 -640 10 -967 7 -942 17
-1805 21 -1809 2 -2 4 707 4 1577 0 870 -3 1582 -7 1581 -5 0 -14 -3 -21 -6z"/>
<path d="M912 4480 c0 -140 3 -277 8 -305 4 -31 7 45 8 205 0 140 -3 278 -8
305 -4 31 -7 -45 -8 -205z"/>
<path d="M969 4453 c-1 -153 -2 -831 -3 -1508 -1 -716 -5 -1238 -10 -1249 -6
-12 -6 -17 0 -14 14 9 19 -664 5 -691 -10 -17 -9 -21 4 -21 13 0 15 196 15
1880 0 1034 -2 1880 -5 1880 -3 0 -6 -125 -6 -277z"/>
<path d="M868 4714 c-5 -4 -8 -142 -8 -306 0 -171 -4 -297 -9 -294 -8 5 -17
-13 -36 -69 -3 -11 -8 -53 -11 -95 -3 -41 -7 -81 -9 -88 -3 -7 -7 -561 -10
-1230 -6 -1098 -13 -1498 -30 -1587 -13 -63 -113 -253 -164 -309 -14 -16 27
19 93 78 69 63 130 109 146 112 l28 6 6 1677 c4 922 9 1762 12 1866 6 198 4
252 -8 239z"/>
<path d="M2827 4615 c12 -16 34 -41 49 -55 19 -17 15 -10 -10 20 -53 61 -63
71 -39 35z"/>
<path d="M2666 4550 c-30 -92 -76 -167 -135 -222 l-56 -53 -6 30 -6 30 -7 -37
c-6 -28 -13 -38 -27 -38 -11 0 -19 -7 -19 -16 0 -11 6 -15 19 -11 17 4 20 -1
23 -37 l3 -41 13 40 c8 27 23 48 48 64 80 55 143 151 165 251 17 79 7 106 -15
40z"/>
<path d="M2872 4476 c55 -53 91 -76 212 -136 81 -40 164 -85 185 -100 21 -16
56 -37 77 -48 54 -28 115 -78 106 -87 -4 -5 -2 -5 5 -2 15 9 164 -140 239
-239 110 -146 182 -314 204 -470 14 -104 -1 -243 -35 -329 -26 -65 -31 -117
-15 -160 14 -36 95 -121 130 -135 33 -14 36 -20 18 -40 -7 -7 4 0 24 16 l38
29 -33 16 c-45 24 -107 86 -123 125 -20 47 -18 77 13 163 21 60 27 100 31 192
5 134 -11 230 -59 365 -33 89 -127 255 -149 262 -7 3 -4 -6 8 -18 12 -13 19
-27 16 -31 -3 -5 -27 17 -54 50 -177 213 -357 349 -645 486 -71 34 -159 83
-195 109 l-65 47 67 -65z"/>
<path d="M2940 4515 c0 -7 81 -47 86 -43 2 3 -17 14 -41 26 -25 12 -45 20 -45
17z"/>
<path d="M2730 4486 c0 -25 88 -151 135 -195 60 -54 81 -62 88 -33 3 9 5 -4 6
-30 1 -50 15 -64 25 -26 8 33 24 11 28 -37 2 -28 8 -41 21 -43 21 -4 23 26 2
34 -20 8 -20 60 1 68 8 3 12 11 9 16 -5 8 -11 7 -21 -1 -15 -12 -19 -6 -27 41
-4 24 -4 24 -6 -3 -2 -41 -21 -23 -22 21 -1 37 -1 37 -11 10 -5 -16 -14 -28
-20 -28 -18 0 -130 105 -169 159 -22 30 -39 51 -39 47z"/>
<path d="M2727 4345 c-4 -11 -18 -33 -32 -50 l-24 -30 -26 30 c-26 29 -26 29
-20 5 3 -14 9 -42 12 -62 3 -21 8 -38 12 -38 21 0 94 122 89 148 -4 14 -5 14
-11 -3z"/>
<path d="M2377 4343 c-13 -21 -20 -101 -12 -167 7 -69 20 -86 29 -38 7 38 -7
219 -17 205z"/>
<path d="M2258 4288 c-37 -21 -38 -24 -38 -79 0 -82 35 -108 87 -67 28 22 22
88 -7 88 -6 0 -5 -9 2 -20 24 -39 -32 -81 -61 -46 -15 18 7 71 45 107 44 42
30 51 -28 17z"/>
<path d="M3123 4245 c-17 -7 -37 -24 -44 -36 -13 -25 -16 -83 -5 -117 13 -40
25 -23 19 27 -5 41 -2 52 16 70 43 43 118 19 162 -53 l19 -31 0 36 c0 44 -31
86 -76 105 -41 17 -50 17 -91 -1z"/>
<path d="M3420 4246 c0 -2 8 -10 18 -17 15 -13 16 -12 3 4 -13 16 -21 21 -21
13z"/>
<path d="M2812 4228 c-15 -15 3 -38 29 -38 27 0 29 13 4 32 -16 12 -25 14 -33
6z"/>
<path d="M2109 4201 c-52 -53 -32 -121 43 -141 47 -13 128 -5 155 16 16 12 6
13 -78 14 -82 0 -98 3 -114 20 -12 13 -15 27 -11 45 6 22 12 27 32 24 9 -1 24
23 24 39 0 20 -20 14 -51 -17z"/>
<path d="M3490 4185 c13 -14 26 -25 28 -25 3 0 -5 11 -18 25 -13 14 -26 25
-28 25 -3 0 5 -11 18 -25z"/>
<path d="M2655 4135 c-49 -74 -135 -144 -241 -196 -144 -72 -220 -61 -109 16
66 45 124 107 106 113 -7 2 -25 -7 -39 -20 -15 -13 -45 -37 -67 -53 -22 -15
-55 -42 -73 -59 -33 -31 -34 -31 -49 -11 -14 18 -15 18 -9 1 12 -36 51 -75 81
-81 37 -8 96 13 195 67 91 50 181 117 204 153 l18 27 20 -33 c11 -19 36 -53
54 -76 68 -83 78 -150 33 -207 -28 -36 -7 -33 30 4 58 59 51 133 -23 224 -64
78 -77 101 -84 148 l-7 43 -40 -60z"/>
<path d="M2490 4181 c0 -22 19 -59 33 -64 24 -9 28 19 6 47 -21 26 -39 34 -39
17z"/>
<path d="M2863 4140 c-29 -12 -29 -27 -2 -35 32 -10 71 3 67 23 -4 20 -33 25
-65 12z"/>
<path d="M3210 4130 c0 -6 16 -27 35 -48 38 -41 47 -27 15 26 -19 30 -50 44
-50 22z"/>
<path d="M1909 4091 c-23 -18 -23 -20 -10 -77 26 -116 28 -108 -25 -142 -26
-18 -51 -32 -55 -32 -4 0 -10 17 -12 38 -2 22 -4 10 -5 -31 l-2 -68 48 32 c89
61 232 185 232 202 0 4 -8 6 -19 2 -13 -4 -20 0 -24 15 -5 19 -33 37 -43 28
-2 -3 3 -19 13 -37 l18 -31 -30 -25 c-16 -13 -34 -23 -40 -21 -10 3 -34 88
-35 122 0 12 10 26 23 32 16 8 17 11 6 11 -9 1 -27 -8 -40 -18z"/>
<path d="M2470 4085 c17 -18 27 -22 34 -14 12 12 -17 39 -43 39 -10 0 -8 -7 9
-25z"/>
<path d="M2765 4080 c10 -11 20 -20 23 -20 3 0 -3 9 -13 20 -10 11 -20 20 -23
20 -3 0 3 -9 13 -20z"/>
<path d="M3146 4085 c-3 -9 -6 -62 -6 -118 0 -118 -17 -123 -27 -8 -4 43 -12
79 -21 87 -8 8 -16 13 -18 11 -7 -6 16 -239 31 -329 19 -104 19 -116 3 -100
-20 20 -76 14 -131 -15 -46 -24 -49 -28 -27 -31 14 -2 49 2 78 9 49 11 54 11
75 -9 13 -12 27 -22 31 -22 5 0 7 62 4 139 l-3 138 37 -5 c33 -4 42 0 73 31
31 31 35 41 35 84 0 37 -5 55 -20 68 -24 22 -36 14 -21 -13 19 -35 13 -89 -11
-112 -26 -24 -63 -26 -72 -4 -9 25 -7 125 4 164 10 35 -2 65 -14 35z"/>
<path d="M2996 4042 c-3 -26 -2 -100 3 -164 12 -140 4 -178 -42 -207 -64 -39
-166 -40 -183 -1 -5 12 -10 -242 -12 -643 -3 -745 -9 -694 71 -685 57 7 112
34 134 66 15 23 19 53 21 180 3 107 1 152 -7 152 -6 0 -16 -11 -21 -24 -5 -13
-14 -27 -19 -31 -7 -4 -11 -51 -11 -120 0 -63 -5 -125 -11 -138 -20 -44 -94
-73 -116 -44 -7 7 -13 242 -17 613 l-7 600 49 0 c100 0 193 62 207 136 6 30
-20 346 -29 355 -2 2 -6 -18 -10 -45z"/>
<path d="M3610 4065 c13 -14 26 -25 28 -25 3 0 -5 11 -18 25 -13 14 -26 25
-28 25 -3 0 5 -11 18 -25z"/>
<path d="M3415 3980 c10 -141 28 -159 23 -23 -2 66 -8 107 -17 115 -10 11 -11
-6 -6 -92z"/>
<path d="M2806 4061 c-4 -5 -2 -12 3 -15 5 -4 12 -2 15 3 4 5 2 12 -3 15 -5 4
-12 2 -15 -3z"/>
<path d="M2641 4020 c-18 -32 -20 -152 -2 -212 15 -54 67 -111 77 -85 3 9 -7
37 -22 63 -25 42 -29 62 -34 153 -5 97 -6 104 -19 81z"/>
<path d="M3685 3973 c27 -35 50 -63 52 -63 7 0 -60 89 -80 107 -11 10 2 -10
28 -44z"/>
<path d="M1769 4003 c-13 -15 -12 -15 9 -4 23 12 28 21 13 21 -5 0 -15 -7 -22
-17z"/>
<path d="M2136 4011 c-4 -7 -5 -15 -2 -18 9 -9 19 4 14 18 -4 11 -6 11 -12 0z"/>
<path d="M2400 4000 c0 -5 5 -10 11 -10 5 0 7 5 4 10 -3 6 -8 10 -11 10 -2 0
-4 -4 -4 -10z"/>
<path d="M2470 4000 c0 -5 5 -10 10 -10 6 0 10 5 10 10 0 6 -4 10 -10 10 -5 0
-10 -4 -10 -10z"/>
<path d="M2835 3999 c-10 -15 3 -25 16 -12 7 7 7 13 1 17 -6 3 -14 1 -17 -5z"/>
<path d="M2870 3981 c0 -21 6 -30 22 -35 36 -9 45 10 18 39 -30 32 -40 32 -40
-4z"/>
<path d="M2957 3919 c8 -134 24 -159 19 -30 -2 57 -9 108 -15 114 -7 7 -8 -19
-4 -84z"/>
<path d="M3483 3983 c-7 -2 -13 -9 -13 -14 0 -4 7 -6 15 -3 20 8 20 -20 -1
-52 -16 -23 -16 -24 2 -18 52 19 71 64 35 84 -11 5 -21 10 -23 9 -2 0 -9 -3
-15 -6z"/>
<path d="M1761 3950 c-11 -19 -14 -59 -12 -170 2 -141 2 -146 -21 -167 -54
-51 -118 -37 -118 25 l-1 37 -15 -28 c-34 -64 11 -126 82 -112 44 8 99 58 110
99 3 15 3 98 -2 184 -8 143 -10 155 -23 132z"/>
<path d="M3335 3950 c-18 -20 -18 -21 1 -14 16 7 17 5 6 -8 -10 -12 -10 -18 2
-28 22 -18 39 -2 31 29 -10 39 -19 44 -40 21z"/>
<path d="M2138 3944 c-5 -4 -8 -50 -8 -101 0 -71 3 -94 13 -91 6 3 13 22 15
44 3 52 -11 158 -20 148z"/>
<path d="M2710 3917 c0 -16 -5 -37 -10 -47 -12 -22 3 -36 17 -17 19 23 21 43
7 68 l-13 24 -1 -28z"/>
<path d="M1609 3913 c-13 -16 -12 -17 4 -4 9 7 17 15 17 17 0 8 -8 3 -21 -13z"/>
<path d="M2537 3915 c-20 -19 -21 -26 -6 -22 7 1 17 -18 24 -43 7 -25 19 -62
28 -83 21 -49 14 -63 -58 -106 -67 -41 -81 -37 -107 30 l-17 44 0 -51 c-1 -38
-5 -54 -17 -58 -43 -16 -109 3 -117 35 -3 10 -3 38 -1 61 4 41 4 40 -18 -20
l-22 -62 20 -27 c27 -36 81 -47 137 -28 25 9 43 11 45 5 11 -31 115 20 167 82
30 36 30 34 4 95 -11 26 -26 74 -33 107 -11 55 -13 57 -29 41z"/>
<path d="M2020 3895 c0 -24 24 -44 37 -31 9 8 -14 56 -27 56 -5 0 -10 -11 -10
-25z"/>
<path d="M2867 3877 c-5 -27 -6 -51 -3 -54 8 -8 18 42 14 73 -3 24 -5 20 -11
-19z"/>
<path d="M2742 3860 c-1 -14 -5 -36 -8 -50 -5 -19 -4 -22 5 -14 7 7 11 28 8
50 -2 22 -4 28 -5 14z"/>
<path d="M3560 3871 c0 -5 7 -14 15 -21 25 -21 17 -43 -36 -103 -53 -60 -76
-68 -105 -40 -15 16 -17 16 -30 -1 -21 -29 -1 -56 43 -56 31 0 46 10 114 77
44 42 79 85 79 95 0 24 -35 58 -60 58 -11 0 -20 -4 -20 -9z"/>
<path d="M1980 3849 c0 -6 9 -22 20 -36 28 -36 25 -60 -10 -78 -38 -20 -89
-19 -112 2 -17 15 -18 15 -18 -10 0 -34 32 -67 66 -67 15 0 41 9 59 20 69 42
86 112 39 155 -29 27 -44 32 -44 14z"/>
<path d="M1656 3810 c-22 -17 -36 -30 -32 -30 9 0 96 50 96 56 0 12 -30 0 -64
-26z"/>
<path d="M2400 3822 c0 -33 10 -51 26 -45 20 7 17 27 -6 48 -19 18 -20 17 -20
-3z"/>
<path d="M2457 3827 c-3 -7 -1 -20 3 -28 7 -11 10 -10 16 4 4 10 2 23 -3 28
-7 7 -12 6 -16 -4z"/>
<path d="M1917 3805 c-10 -14 -13 -25 -7 -25 5 0 10 -9 10 -20 0 -11 5 -20 10
-20 6 0 10 20 10 45 0 25 -1 45 -2 45 -2 0 -11 -12 -21 -25z"/>
<path d="M2086 3821 c-3 -4 -10 -21 -16 -37 l-10 -29 20 24 c11 13 20 29 20
37 0 16 -6 18 -14 5z"/>
<path d="M3408 3800 c-23 -22 -23 -30 1 -30 24 0 35 15 24 34 -7 11 -11 10
-25 -4z"/>
<path d="M3498 3809 c-20 -11 -24 -39 -7 -39 7 0 18 8 25 18 24 31 15 41 -18
21z"/>
<path d="M2520 3795 c0 -8 5 -15 10 -15 6 0 10 7 10 15 0 8 -4 15 -10 15 -5 0
-10 -7 -10 -15z"/>
<path d="M2460 3766 c0 -8 5 -18 10 -21 6 -3 10 1 10 9 0 8 -4 18 -10 21 -5 3
-10 -1 -10 -9z"/>
<path d="M2896 3755 c-4 -14 -13 -25 -21 -25 -8 0 -15 -5 -15 -11 0 -8 13 -10
37 -6 50 8 61 22 38 47 -24 26 -32 25 -39 -5z"/>
<path d="M3202 3703 c10 -43 22 -89 25 -103 5 -20 8 -13 14 30 5 30 5 64 2 75
-7 25 -42 75 -52 75 -4 0 1 -35 11 -77z"/>
<path d="M3260 3760 c0 -16 41 -33 52 -22 6 6 7 15 4 21 -9 14 -56 15 -56 1z"/>
<path d="M2160 3730 c-14 -4 -40 -8 -57 -9 -42 -1 -44 -21 -3 -21 31 0 100 24
100 34 0 7 -8 6 -40 -4z"/>
<path d="M2300 3714 c0 -29 15 -54 32 -54 16 0 7 47 -12 65 -20 18 -20 17 -20
-11z"/>
<path d="M3631 3724 c0 -11 3 -14 6 -6 3 7 2 16 -1 19 -3 4 -6 -2 -5 -13z"/>
<path d="M3630 3673 l-65 -64 50 30 c76 47 109 76 101 89 -11 18 -16 15 -86
-55z"/>
<path d="M1680 3711 c-7 -15 -7 -21 0 -21 12 0 25 28 17 36 -3 3 -10 -4 -17
-15z"/>
<path d="M2476 3683 c-11 -11 -6 -23 9 -23 8 0 15 4 15 9 0 13 -16 22 -24 14z"/>
<path d="M2611 3658 c-13 -16 -21 -31 -19 -33 7 -7 51 42 47 53 -2 5 -15 -4
-28 -20z"/>
<path d="M2669 3651 c-14 -33 -28 -44 -90 -74 -41 -19 -96 -43 -123 -52 -58
-21 -116 -69 -116 -97 0 -18 4 -16 38 14 22 19 72 47 123 66 49 19 104 48 128
68 l42 37 -3 -53 -3 -53 -85 -27 c-47 -14 -95 -32 -107 -39 -29 -15 -31 -51
-3 -51 11 0 43 -22 70 -48 l50 -48 2 -250 c0 -137 0 -259 -1 -271 l-2 -22 27
22 c14 12 40 34 58 49 l31 26 0 411 c0 260 -4 414 -10 420 -7 7 -15 -3 -26
-28z m1 -489 l0 -298 -35 -34 -35 -34 0 253 0 252 -52 50 c-28 27 -49 51 -46
54 7 7 140 53 156 54 9 1 12 -65 12 -297z"/>
<path d="M2612 3388 c5 -15 28 -23 28 -10 0 5 -7 13 -16 16 -10 4 -14 1 -12
-6z"/>
<path d="M3325 3644 c-34 -52 -30 -174 7 -174 7 0 8 18 3 55 -4 34 -2 69 5 90
16 48 8 64 -15 29z"/>
<path d="M3635 3624 c-27 -13 -58 -22 -67 -20 -10 2 -22 -2 -29 -10 -6 -8 -19
-14 -28 -15 -10 0 -8 -3 7 -10 39 -15 202 47 187 71 -8 13 -12 12 -70 -16z"/>
<path d="M3737 3630 c4 -14 -4 -29 -26 -49 -37 -34 -30 -49 10 -20 29 20 41
71 20 83 -5 4 -7 -3 -4 -14z"/>
<path d="M1966 3608 c-11 -57 -62 -133 -129 -192 -66 -57 -90 -67 -101 -41 -7
20 -36 8 -36 -15 0 -25 25 -43 50 -35 38 12 177 123 199 159 14 22 25 60 28
96 6 64 -1 81 -11 28z"/>
<path d="M2079 3610 l-24 -19 40 -1 c22 0 49 -3 60 -5 11 -3 26 -1 34 4 12 8
12 12 2 25 -19 23 -83 20 -112 -4z"/>
<path d="M1850 3580 c0 -5 5 -10 10 -10 6 0 10 5 10 10 0 6 -4 10 -10 10 -5 0
-10 -4 -10 -10z"/>
<path d="M2028 3567 c-23 -54 16 -93 101 -103 59 -6 61 -7 54 -32 l-6 -26 34
20 c22 13 35 29 37 44 3 25 2 25 -81 25 -94 0 -123 14 -129 64 -3 22 -4 23
-10 8z"/>
<path d="M3458 3536 c-5 -24 -1 -31 26 -45 53 -28 108 -87 104 -113 -3 -20
-22 -29 -155 -73 -156 -51 -189 -71 -221 -130 -15 -27 -18 -92 -22 -570 -5
-490 -7 -544 -23 -580 l-18 -39 27 24 c14 14 35 42 45 62 18 35 19 65 19 535
0 306 4 512 10 535 19 67 70 100 246 158 169 55 236 87 255 122 l12 22 -29
-19 c-16 -10 -45 -27 -64 -36 l-35 -17 -21 47 c-24 53 -51 77 -106 91 -26 8
-38 17 -40 33 -3 19 -4 19 -10 -7z"/>
<path d="M1780 3540 c0 -5 5 -10 10 -10 6 0 10 5 10 10 0 6 -4 10 -10 10 -5 0
-10 -4 -10 -10z"/>
<path d="M3603 3537 c-7 -12 17 -26 34 -20 21 8 15 32 -8 30 -11 -1 -23 -5
-26 -10z"/>
<path d="M2395 3530 c3 -5 10 -10 16 -10 5 0 9 5 9 10 0 6 -7 10 -16 10 -8 0
-12 -4 -9 -10z"/>
<path d="M2826 3531 c-10 -16 5 -41 25 -41 21 0 25 20 7 38 -14 14 -25 15 -32
3z"/>
<path d="M3774 3518 c21 -73 38 -191 34 -249 -4 -80 -31 -122 -102 -159 l-46
-25 2 -630 c2 -346 4 -546 5 -442 2 113 7 187 13 187 20 0 90 73 90 93 0 18
-3 16 -23 -11 -13 -17 -36 -41 -50 -53 l-27 -20 0 53 c0 49 3 55 35 81 19 15
42 41 50 57 18 34 7 41 -13 9 -13 -20 -14 -20 -33 -3 -20 18 -20 17 -10 -8 8
-22 6 -31 -9 -50 -19 -23 -19 -21 -20 199 l0 223 38 24 c20 13 54 29 74 36 42
13 55 27 40 42 -12 12 -96 -23 -129 -54 l-23 -21 0 130 0 131 33 11 c148 49
198 239 111 419 -26 52 -52 72 -40 30z"/>
<path d="M2332 3504 c-1 -19 -9 -34 -18 -38 -8 -3 -12 -11 -8 -17 13 -21 36
16 31 52 l-4 34 -1 -31z"/>
<path d="M3021 3469 c-1 -58 -4 -68 -29 -92 -32 -31 -67 -35 -94 -10 -15 14
-18 14 -18 1 0 -23 33 -48 63 -48 36 0 95 54 102 93 3 18 -1 52 -9 77 l-14 45
-1 -66z"/>
<path d="M1558 3480 c22 -15 40 -20 57 -16 36 9 31 24 -7 23 -18 -1 -44 2 -58
7 -21 6 -20 4 8 -14z"/>
<path d="M2961 3474 c-23 -29 -26 -40 -12 -48 12 -8 27 13 35 47 8 34 3 34
-23 1z"/>
<path d="M1510 3477 c0 -18 31 -67 49 -77 26 -13 77 -13 104 1 34 18 67 51 67
68 0 10 -9 6 -30 -14 -22 -21 -42 -29 -81 -33 -50 -5 -54 -3 -80 29 -16 19
-29 30 -29 26z"/>
<path d="M1780 3455 c0 -8 7 -15 15 -15 8 0 15 7 15 15 0 8 -7 15 -15 15 -8 0
-15 -7 -15 -15z"/>
<path d="M3173 3464 c-27 -11 -12 -34 29 -45 54 -14 121 3 116 29 -3 14 -16
17 -68 19 -36 1 -71 -1 -77 -3z"/>
<path d="M3673 3463 c-14 -5 -18 -33 -5 -33 4 0 13 9 20 20 12 20 8 23 -15 13z"/>
<path d="M3113 3416 c-14 -44 -4 -79 26 -95 31 -17 102 -13 149 9 46 21 58 36
16 20 -14 -6 -47 -10 -73 -10 -64 0 -99 27 -103 78 l-3 37 -12 -39z"/>
<path d="M1997 3434 c-10 -10 23 -44 42 -44 9 1 27 7 40 14 23 13 23 14 5 19
-45 13 -80 17 -87 11z"/>
<path d="M3453 3410 c-17 -26 -6 -50 23 -50 27 0 32 24 10 53 -17 21 -18 21
-33 -3z"/>
<path d="M1740 3404 c0 -8 5 -12 10 -9 6 3 10 10 10 16 0 5 -4 9 -10 9 -5 0
-10 -7 -10 -16z"/>
<path d="M1940 3369 c-47 -40 -177 -102 -272 -130 -43 -13 -78 -27 -78 -31 0
-17 48 -6 136 30 l91 38 1 -245 c4 -448 13 -522 75 -590 28 -30 93 -61 132
-61 l30 0 -5 -129 c-5 -120 -7 -131 -30 -156 -28 -29 -114 -58 -162 -53 l-33
3 -5 235 -6 235 0 -280 c-1 -154 1 -268 3 -253 4 24 7 26 37 21 45 -7 134 13
173 39 58 41 67 68 71 223 3 94 9 149 18 168 17 33 12 34 -26 6 -15 -12 -40
-21 -54 -21 -45 0 -101 46 -132 108 l-28 58 -4 355 -4 356 45 32 c25 17 51 41
57 52 14 27 12 26 -30 -10z"/>
<path d="M1616 3362 c-3 -6 -35 -27 -71 -47 -36 -20 -65 -38 -65 -41 0 -9 43
8 102 40 40 23 54 36 49 45 -6 8 -11 9 -15 3z"/>
<path d="M2056 3340 c-30 -27 -35 -29 -39 -13 -2 10 -2 2 0 -18 3 -24 -1 -42
-11 -52 -24 -24 -19 -29 9 -11 14 9 25 22 25 29 0 6 14 31 30 53 36 50 33 52
-14 12z"/>
<path d="M2320 3330 c-41 -21 -88 -52 -105 -70 l-30 -31 0 -396 c0 -364 -1
-396 -17 -407 -17 -13 -25 -36 -12 -36 3 0 33 20 65 44 32 24 96 63 143 87 48
24 86 46 86 50 0 10 -120 -44 -178 -81 l-47 -29 -7 52 c-3 29 -6 196 -7 372
-1 375 -6 355 113 429 42 26 76 49 76 52 0 6 3 7 -80 -36z"/>
<path d="M2199 3334 c-12 -14 -11 -16 5 -13 11 2 21 10 24 17 5 17 -13 15 -29
-4z"/>
<path d="M2460 3341 c0 -6 8 -23 17 -38 16 -23 17 -61 15 -397 l-3 -371 -28
-25 c-15 -14 -60 -42 -100 -63 -101 -53 -133 -108 -91 -158 l19 -24 1 25 c1
39 30 68 131 129 137 82 129 52 129 482 0 353 0 356 -22 389 -26 38 -68 69
-68 51z"/>
<path d="M2110 3318 c-54 -44 -60 -63 -59 -198 2 -174 11 -273 27 -278 9 -3
12 41 12 196 0 194 1 200 25 247 14 26 24 49 23 50 -2 2 -14 -6 -28 -17z"/>
<path d="M2834 3324 c3 -9 6 -22 6 -30 0 -8 11 -26 25 -39 33 -34 81 -33 131
3 80 58 85 88 9 47 -64 -34 -99 -32 -137 5 -33 34 -43 38 -34 14z"/>
<path d="M1461 3282 c0 -29 6 -69 15 -90 22 -53 65 -124 71 -118 3 3 -4 17
-15 33 -31 44 -53 103 -61 168 l-8 60 -2 -53z"/>
<path d="M1950 3319 c0 -9 -7 -22 -15 -29 -22 -18 -18 -30 9 -30 30 0 37 17
19 50 -8 16 -13 19 -13 9z"/>
<path d="M1373 3250 c0 -30 2 -43 4 -27 2 15 2 39 0 55 -2 15 -4 2 -4 -28z"/>
<path d="M3056 3273 c10 -24 22 -182 23 -333 l2 -125 46 -50 c42 -45 45 -46
25 -14 -21 35 -22 48 -22 257 l0 220 -35 31 c-40 35 -51 39 -39 14z"/>
<path d="M3663 3205 c0 -44 2 -61 4 -37 2 23 2 59 0 80 -2 20 -4 1 -4 -43z"/>
<path d="M2329 3250 c-20 -10 -43 -30 -53 -44 -28 -44 -21 -67 44 -127 l60
-55 0 -212 c0 -192 6 -242 24 -196 3 9 6 103 6 210 0 220 -1 222 -74 294 -25
24 -46 49 -46 56 0 18 34 43 66 49 28 6 43 -1 106 -47 22 -16 32 -5 19 21 -14
25 -80 71 -101 71 -8 -1 -31 -9 -51 -20z"/>
<path d="M3545 3242 c-124 -27 -184 -44 -202 -59 -17 -14 -17 -14 2 -8 11 4
56 10 100 15 44 5 88 12 98 15 17 7 17 -27 15 -699 l-3 -705 -23 -23 c-12 -12
-39 -27 -59 -33 -54 -15 -55 -35 -1 -35 53 0 101 28 124 71 24 47 26 122 17
834 l-8 640 -60 -13z"/>
<path d="M3745 3232 l-19 -26 -7 24 c-6 20 -7 21 -8 5 0 -11 3 -26 8 -34 7
-11 13 -9 30 8 11 11 21 28 21 36 0 20 -2 19 -25 -13z"/>
<path d="M2805 3218 c-16 -40 33 -78 101 -78 37 0 102 28 122 53 9 10 1 9 -27
-5 -71 -35 -162 -22 -181 25 -7 19 -9 20 -15 5z"/>
<path d="M1730 3186 c0 -9 5 -16 10 -16 6 0 10 4 10 9 0 6 -4 13 -10 16 -5 3
-10 -1 -10 -9z"/>
<path d="M1635 3144 c-59 -22 -66 -34 -19 -34 58 0 84 10 84 31 0 22 -11 23
-65 3z"/>
<path d="M3017 3130 c-4 -14 -7 -82 -7 -152 0 -126 0 -127 -27 -148 -36 -28
-79 -46 -132 -55 -34 -6 -40 -9 -30 -21 30 -36 163 9 199 68 17 29 20 49 19
153 -1 66 -4 134 -8 150 l-7 30 -7 -25z"/>
<path d="M3358 3103 c-49 -30 -49 -39 -47 -472 3 -530 3 -525 -27 -588 -28
-58 -68 -94 -164 -146 -76 -42 -149 -62 -280 -78 -95 -11 -125 -22 -113 -42 9
-15 163 -1 256 23 98 25 165 61 237 126 79 73 104 128 108 235 l4 87 39 6 c50
8 106 57 119 104 6 22 10 170 10 355 0 341 -2 356 -52 391 -29 20 -56 20 -90
-1z m76 -62 c15 -17 17 -50 14 -356 l-3 -337 -28 -24 c-16 -14 -41 -24 -58
-24 l-31 0 4 361 3 361 24 19 c29 24 53 24 75 0z"/>
<path d="M3362 2480 c-17 -28 -15 -31 12 -19 14 7 22 17 19 25 -7 19 -16 17
-31 -6z"/>
<path d="M3367 2434 c-8 -8 1 -24 14 -24 5 0 9 7 9 15 0 15 -12 20 -23 9z"/>
<path d="M1981 3081 c-12 -22 -7 -41 11 -41 5 0 7 7 4 16 -5 12 -1 14 17 9 15
-4 18 -4 8 3 -7 5 -17 15 -21 22 -6 9 -11 7 -19 -9z"/>
<path d="M2850 3080 c0 -5 5 -10 10 -10 6 0 10 5 10 10 0 6 -4 10 -10 10 -5 0
-10 -4 -10 -10z"/>
<path d="M1629 3057 c-19 -12 -44 -42 -56 -67 -23 -44 -23 -47 -23 -513 0
-523 -2 -506 70 -571 36 -33 92 -56 133 -56 18 0 19 22 15 583 -5 620 -5 619
-54 637 -36 14 -47 13 -85 -13z m71 -57 c19 -19 20 -33 20 -223 l0 -203 -42
-35 c-51 -42 -87 -63 -96 -54 -3 3 -5 104 -3 223 3 231 9 266 52 296 31 21 45
20 69 -4z m20 -770 c0 -357 2 -347 -67 -294 -68 52 -77 85 -81 305 l-4 196 25
7 c14 3 47 28 74 55 26 27 49 49 51 50 1 1 2 -143 2 -319z"/>
<path d="M1645 2930 c-3 -5 -1 -10 4 -10 6 0 11 5 11 10 0 6 -2 10 -4 10 -3 0
-8 -4 -11 -10z"/>
<path d="M1634 2840 c2 -30 10 -68 17 -85 13 -30 13 -30 16 -5 2 14 -6 52 -17
85 l-20 60 4 -55z"/>
<path d="M1656 2685 c-15 -25 -33 -45 -41 -45 -8 0 -15 -5 -15 -11 0 -6 10 -9
23 -7 15 2 29 18 46 51 31 62 21 71 -13 12z"/>
<path d="M1630 2680 c-8 -5 -12 -12 -9 -15 4 -3 12 1 19 10 14 17 11 19 -10 5z"/>
<path d="M1650 2580 c-12 -7 -12 -12 -2 -22 9 -9 15 -9 24 0 8 8 9 15 2 22 -5
5 -15 6 -24 0z"/>
<path d="M1660 2406 c0 -9 5 -16 10 -16 6 0 10 4 10 9 0 6 -4 13 -10 16 -5 3
-10 -1 -10 -9z"/>
<path d="M1652 2288 c-17 -17 -15 -35 4 -42 31 -12 43 8 21 37 -10 14 -15 15
-25 5z"/>
<path d="M1660 2200 c0 -5 5 -10 10 -10 6 0 10 5 10 10 0 6 -4 10 -10 10 -5 0
-10 -4 -10 -10z"/>
<path d="M1660 2150 c0 -5 4 -10 9 -10 6 0 13 5 16 10 3 6 -1 10 -9 10 -9 0
-16 -4 -16 -10z"/>
<path d="M2950 3055 c0 -8 4 -15 10 -15 5 0 7 7 4 15 -4 8 -8 15 -10 15 -2 0
-4 -7 -4 -15z"/>
<path d="M2250 3028 c0 -7 7 -22 15 -32 12 -16 18 -17 27 -8 9 9 8 12 -5 12
-9 0 -17 6 -17 14 0 8 -4 18 -10 21 -5 3 -10 0 -10 -7z"/>
<path d="M2867 2964 c-8 -88 0 -163 14 -129 9 24 9 139 0 180 -5 23 -9 11 -14
-51z"/>
<path d="M2950 2950 c0 -45 4 -69 10 -65 6 3 10 33 10 65 0 32 -4 62 -10 65
-6 4 -10 -20 -10 -65z"/>
<path d="M3700 2990 c0 -19 11 -26 23 -14 8 8 -3 34 -14 34 -5 0 -9 -9 -9 -20z"/>
<path d="M1468 2965 c-12 -63 -10 -1134 2 -1177 32 -114 145 -102 440 47 163
83 230 138 271 222 20 40 25 67 27 158 2 61 8 114 13 120 11 12 12 25 0 25
-17 0 -30 -57 -33 -155 -3 -71 -9 -111 -23 -139 -41 -86 -133 -146 -375 -246
-133 -55 -215 -71 -253 -51 -53 28 -52 12 -57 646 -3 325 -8 572 -12 550z"/>
<path d="M2307 2933 c-11 -11 -8 -373 3 -373 6 0 10 70 10 190 0 105 -1 190
-3 190 -2 0 -7 -3 -10 -7z"/>
<path d="M1390 2886 c0 -14 5 -26 10 -26 6 0 10 9 10 19 0 11 -4 23 -10 26 -6
4 -10 -5 -10 -19z"/>
<path d="M1412 2830 c0 -14 2 -19 5 -12 2 6 2 18 0 25 -3 6 -5 1 -5 -13z"/>
<path d="M3861 2793 c9 -28 7 -40 -15 -85 -14 -29 -31 -61 -38 -70 -10 -13 -7
-23 15 -55 56 -81 57 -90 57 -393 0 -269 -1 -286 -26 -383 -44 -177 -116 -308
-233 -431 l-66 -70 55 46 c113 94 206 242 265 423 46 140 58 255 53 518 -3
211 -3 212 -31 259 -15 26 -37 54 -48 61 -13 10 -17 17 -10 22 15 8 61 100 61
119 0 8 -11 28 -25 43 l-25 28 11 -32z"/>
<path d="M2674 2753 l-29 -38 -5 -220 c-8 -367 0 -785 15 -785 7 0 20 15 29
34 13 28 16 72 16 249 l0 215 -29 24 -28 23 28 36 28 36 3 214 c2 118 7 222
12 232 15 31 -11 18 -40 -20z"/>
<path d="M2041 2740 c-12 -22 -20 -46 -18 -53 3 -6 15 10 27 36 27 60 21 71
-9 17z"/>
<path d="M3055 2749 c13 -25 16 -59 13 -184 l-3 -154 -30 -32 c-40 -42 -117
-77 -188 -85 -31 -4 -60 -10 -62 -14 -3 -4 10 -15 28 -23 54 -26 173 7 244 67
60 50 73 95 73 249 l0 136 -35 36 c-44 43 -61 45 -40 4z"/>
<path d="M3750 2740 c0 -11 -5 -20 -11 -20 -6 0 -8 7 -5 16 3 8 2 12 -4 9 -6
-3 -10 -15 -10 -26 0 -20 30 -26 64 -13 20 8 20 18 0 38 -21 22 -34 20 -34 -4z"/>
<path d="M3965 2679 c-9 -17 -15 -33 -13 -35 3 -2 12 12 21 31 21 43 13 47 -8
4z"/>
<path d="M2080 2698 c0 -2 7 -25 15 -52 17 -55 12 -91 -18 -123 -31 -34 -69
-30 -106 12 -35 40 -41 37 -11 -5 83 -117 226 12 149 136 -17 29 -29 42 -29
32z"/>
<path d="M2858 2624 c-2 -38 -8 -78 -12 -89 -7 -17 -5 -17 13 4 16 17 21 37
21 75 0 82 -18 90 -22 10z"/>
<path d="M1933 2620 c0 -25 2 -35 4 -22 2 12 2 32 0 45 -2 12 -4 2 -4 -23z"/>
<path d="M3742 2538 c31 -60 33 -69 36 -200 3 -108 1 -138 -9 -138 -9 0 -10
-3 -3 -10 16 -16 6 -368 -12 -402 -18 -35 -59 -63 -112 -77 -27 -8 -42 -17
-42 -28 0 -13 8 -15 46 -10 61 6 123 50 152 107 21 43 22 53 22 346 0 333 -3
351 -63 430 -46 62 -52 54 -15 -18z"/>
<path d="M2866 2521 c-4 -7 -5 -15 -2 -18 9 -9 19 4 14 18 -4 11 -6 11 -12 0z"/>
<path d="M2553 2415 c-18 -18 -64 -53 -103 -76 -80 -47 -110 -80 -109 -118 0
-14 3 -20 6 -13 3 7 40 38 83 68 77 53 140 115 140 135 0 6 4 8 8 5 4 -2 8 4
8 15 0 10 0 19 -1 19 0 0 -14 -16 -32 -35z"/>
<path d="M3536 2345 c-9 -48 -60 -103 -121 -131 l-50 -23 35 0 c69 -1 132 60
145 141 9 50 0 61 -9 13z"/>
<path d="M1910 2350 c0 -5 5 -10 10 -10 6 0 10 5 10 10 0 6 -4 10 -10 10 -5 0
-10 -4 -10 -10z"/>
<path d="M1937 2300 c-26 -16 -47 -32 -47 -35 0 -4 94 30 112 41 13 8 9 24 -5
24 -7 0 -34 -13 -60 -30z"/>
<path d="M3157 2306 c-25 -37 -103 -87 -169 -107 -32 -10 -101 -22 -153 -25
-52 -4 -95 -10 -95 -13 0 -36 122 -42 223 -11 36 11 86 35 113 53 46 31 113
111 102 122 -3 3 -13 -6 -21 -19z"/>
<path d="M3710 2285 c-7 -9 -8 -15 -2 -15 5 0 12 7 16 15 3 8 4 15 2 15 -2 0
-9 -7 -16 -15z"/>
<path d="M2519 2290 c-1 -3 -5 -101 -8 -218 -6 -209 -7 -214 -30 -233 -30 -25
-103 -26 -127 -2 -14 14 -16 30 -10 102 l6 86 -41 45 -40 45 5 -38 c3 -20 14
-49 25 -64 35 -43 22 -170 -20 -196 -29 -18 -23 -30 14 -23 20 3 39 0 51 -9
49 -37 161 -1 191 61 22 46 22 401 0 430 -8 10 -15 17 -16 14z"/>
<path d="M2468 2250 c-10 -24 -16 -110 -8 -115 5 -3 6 -15 3 -28 -4 -19 -3
-20 7 -5 6 10 10 49 8 90 -2 40 -6 66 -10 58z"/>
<path d="M2268 2220 c-7 -43 10 -80 55 -129 54 -57 70 -87 64 -112 -7 -24 5
-24 27 0 16 17 16 22 1 56 -8 21 -39 68 -69 104 -29 36 -58 75 -64 86 -10 18
-10 18 -14 -5z"/>
<path d="M1941 2206 c-15 -18 -10 -29 12 -24 9 2 12 9 8 21 -6 17 -8 18 -20 3z"/>
<path d="M3151 2201 c-7 -5 -10 -14 -6 -20 5 -9 10 -9 21 0 26 22 14 38 -15
20z"/>
<path d="M1875 2150 c-3 -5 -1 -10 4 -10 6 0 11 5 11 10 0 6 -2 10 -4 10 -3 0
-8 -4 -11 -10z"/>
<path d="M3072 2134 c-8 -14 -5 -28 9 -56 44 -86 15 -136 -94 -166 -36 -10
-38 -10 -31 11 l6 22 -24 -22 c-13 -13 -29 -23 -35 -23 -20 0 -44 68 -37 104
3 19 2 41 -2 48 -12 18 -22 -24 -23 -94 -1 -51 2 -59 24 -74 33 -22 104 -11
185 27 47 22 64 36 75 63 15 37 12 59 -23 135 -17 38 -21 41 -30 25z"/>
<path d="M3501 2090 c-1 -84 -16 -105 -89 -126 -31 -9 -64 -23 -72 -31 -13
-14 -11 -15 26 -10 99 12 154 65 153 147 -1 77 -17 94 -18 20z"/>
<path d="M3706 2134 c-4 -10 -1 -14 6 -12 15 5 23 28 10 28 -5 0 -13 -7 -16
-16z"/>
<path d="M3437 2126 c-6 -15 1 -26 15 -26 11 0 10 27 -1 34 -5 3 -11 0 -14 -8z"/>
<path d="M3374 2088 c-1 -24 1 -35 3 -25 3 9 11 17 19 17 17 0 18 22 2 38 -20
20 -24 14 -24 -30z"/>
<path d="M2789 1995 c-3 -66 -4 -122 -2 -124 10 -14 13 20 11 125 l-3 119 -6
-120z"/>
<path d="M2894 2095 c-9 -21 3 -45 21 -45 16 0 19 17 9 44 -8 20 -23 21 -30 1z"/>
<path d="M3000 2089 c0 -11 5 -17 10 -14 6 3 10 13 10 21 0 8 -4 14 -10 14 -5
0 -10 -9 -10 -21z"/>
<path d="M2750 2000 c0 -58 4 -89 10 -85 6 3 10 42 10 85 0 43 -4 82 -10 85
-6 4 -10 -27 -10 -85z"/>
<path d="M3002 2023 c2 -27 8 -39 21 -41 25 -5 31 23 10 52 -25 36 -35 32 -31
-11z"/>
<path d="M3700 2031 c-14 -27 -13 -31 9 -31 24 0 33 13 25 34 -8 21 -21 20
-34 -3z"/>
<path d="M3361 2024 c0 -11 3 -14 6 -6 3 7 2 16 -1 19 -3 4 -6 -2 -5 -13z"/>
<path d="M2196 2021 c-5 -7 -11 -107 -14 -222 -6 -237 -9 -250 -83 -288 -43
-22 -43 -23 -11 -17 46 8 86 39 106 80 14 30 16 67 14 248 -2 129 -7 208 -12
199z"/>
<path d="M2446 1984 c-3 -8 1 -25 9 -38 18 -27 11 -52 -15 -59 -21 -5 -45 9
-53 33 -4 10 -6 9 -6 -5 -1 -28 17 -45 49 -45 14 0 31 5 38 12 15 15 16 64 2
73 -6 4 -8 15 -5 26 7 23 -10 26 -19 3z"/>
<path d="M1889 1972 c-14 -12 -18 -21 -11 -26 6 -3 23 5 39 19 21 18 24 24 12
25 -9 0 -27 -8 -40 -18z"/>
<path d="M3710 1950 c0 -5 5 -10 10 -10 6 0 10 5 10 10 0 6 -4 10 -10 10 -5 0
-10 -4 -10 -10z"/>
<path d="M2126 1904 c-4 -10 -1 -14 6 -12 15 5 23 28 10 28 -5 0 -13 -7 -16
-16z"/>
<path d="M2569 1840 c-9 -46 -17 -64 -32 -69 -12 -5 -16 -10 -10 -14 17 -11 3
-45 -30 -73 -20 -17 -27 -28 -20 -35 12 -12 55 38 73 86 17 44 42 157 36 162
-2 3 -10 -23 -17 -57z"/>
<path d="M3438 1884 c-26 -13 -38 -34 -20 -34 12 1 57 38 52 43 -3 3 -17 -1
-32 -9z"/>
<path d="M3280 1869 l-35 -20 48 6 c34 5 47 3 47 -6 0 -7 3 -10 6 -6 9 9 -6
47 -19 47 -7 -1 -28 -10 -47 -21z"/>
<path d="M3700 1879 c0 -5 5 -7 10 -4 6 3 10 8 10 11 0 2 -4 4 -10 4 -5 0 -10
-5 -10 -11z"/>
<path d="M2070 1865 c0 -8 5 -15 10 -15 6 0 10 7 10 15 0 8 -4 15 -10 15 -5 0
-10 -7 -10 -15z"/>
<path d="M3380 1836 c0 -44 -1 -45 -40 -56 -24 -6 -38 -15 -34 -21 7 -13 61
-4 81 12 15 13 18 95 3 104 -6 4 -10 -11 -10 -39z"/>
<path d="M2255 1860 c3 -5 8 -10 11 -10 2 0 4 5 4 10 0 6 -5 10 -11 10 -5 0
-7 -4 -4 -10z"/>
<path d="M3701 1836 c-9 -10 -9 -16 -1 -21 17 -10 37 12 24 25 -8 8 -15 6 -23
-4z"/>
<path d="M2078 1835 c-3 -5 -9 -57 -13 -115 -7 -107 -22 -153 -50 -164 -25 -9
-74 -7 -95 4 -23 12 -41 64 -35 99 5 25 4 25 -9 -4 -19 -38 -19 -58 -2 -99 38
-91 187 -62 216 43 17 60 7 266 -12 236z"/>
<path d="M3346 1815 c-9 -26 -7 -32 5 -12 6 10 9 21 6 23 -2 3 -7 -2 -11 -11z"/>
<path d="M1985 1810 c-3 -5 1 -10 9 -10 9 0 16 5 16 10 0 6 -4 10 -9 10 -6 0
-13 -4 -16 -10z"/>
<path d="M3109 1794 c-12 -14 -11 -16 5 -13 11 2 21 10 24 17 5 17 -13 15 -29
-4z"/>
<path d="M3188 1797 c-5 -10 -8 -51 -7 -90 1 -68 2 -70 10 -32 11 47 8 150 -3
122z"/>
<path d="M1828 1771 c-50 -32 -67 -67 -69 -135 0 -23 -3 -35 -6 -28 -8 20 -59
42 -97 42 -44 0 -56 -17 -19 -26 15 -3 49 -13 75 -22 43 -14 47 -19 54 -56 9
-59 36 -106 87 -153 44 -41 105 -78 113 -70 2 2 -13 16 -34 31 -71 49 -122
140 -130 232 -6 76 10 125 55 175 42 46 33 49 -29 10z"/>
<path d="M2004 1766 c-10 -8 -16 -17 -13 -20 3 -3 14 3 24 14 21 23 17 26 -11
6z"/>
<path d="M2929 1748 c-1 -7 -1 -20 0 -29 7 -67 -321 -209 -517 -225 -67 -6
-81 -4 -96 11 -25 26 -12 74 30 108 30 26 34 34 34 78 0 27 -4 49 -9 49 -5 0
-17 -21 -26 -47 -10 -27 -28 -73 -41 -104 -28 -65 -31 -111 -9 -129 24 -20
175 -6 280 25 101 29 276 109 330 151 43 33 66 73 58 102 -6 23 -32 30 -34 10z"/>
<path d="M1996 1726 c-27 -26 -27 -28 -11 -47 18 -19 18 -19 32 1 8 11 13 32
11 46 l-3 26 -29 -26z"/>
<path d="M3106 1733 c-4 -9 -2 -41 5 -71 13 -66 7 -104 -26 -154 -21 -31 -48
-49 -151 -99 -150 -73 -225 -137 -313 -269 l-58 -86 -27 51 c-50 96 -186 211
-319 270 -74 32 -239 87 -245 80 -3 -2 26 -19 64 -36 323 -145 407 -209 500
-383 l32 -59 17 34 c34 65 114 177 164 228 40 41 77 64 175 111 130 61 204
117 226 170 14 33 10 100 -11 178 -14 54 -23 63 -33 35z"/>
<path d="M2785 1731 c-4 -7 -1 -18 5 -26 10 -12 9 -20 -4 -40 -17 -26 -9 -34
12 -13 14 14 16 57 3 77 -6 9 -10 10 -16 2z"/>
<path d="M3032 1719 c-11 -18 -11 -24 2 -38 9 -10 16 -26 16 -37 1 -16 2 -17
10 -4 9 17 2 100 -9 100 -3 0 -12 -9 -19 -21z"/>
<path d="M3220 1714 c0 -14 5 -34 11 -45 8 -16 13 -18 25 -8 20 17 17 57 -5
69 -28 14 -31 13 -31 -16z"/>
<path d="M2991 1704 c0 -11 3 -14 6 -6 3 7 2 16 -1 19 -3 4 -6 -2 -5 -13z"/>
<path d="M2420 1658 c0 -32 4 -58 10 -58 13 0 13 80 0 100 -7 11 -10 -2 -10
-42z"/>
<path d="M3370 1678 c-8 -21 -9 -21 -9 -3 -1 15 -6 11 -19 -15 -10 -19 -23
-34 -30 -32 -7 1 -12 -2 -12 -8 0 -5 9 -10 19 -10 21 0 71 53 71 76 0 21 -9
17 -20 -8z"/>
<path d="M3516 1690 c-2 -8 -8 -46 -11 -85 -7 -65 -10 -73 -49 -112 -45 -45
-99 -63 -145 -47 -34 12 -61 67 -61 124 -1 70 -23 21 -24 -53 -1 -55 2 -61 33
-89 31 -28 38 -30 95 -26 117 8 190 85 190 203 0 61 -17 116 -28 85z"/>
<path d="M3462 1643 c-7 -24 -22 -47 -32 -53 -11 -6 -20 -17 -20 -26 0 -12 4
-12 20 -4 27 14 52 65 48 98 -3 24 -4 22 -16 -15z"/>
<path d="M2265 1638 c-10 -18 -31 -49 -47 -68 -22 -27 -28 -45 -28 -82 0 -61
16 -70 31 -16 6 23 21 63 34 88 21 42 41 110 33 110 -2 0 -12 -15 -23 -32z"/>
<path d="M2740 1656 c0 -8 5 -18 10 -21 6 -3 10 1 10 9 0 8 -4 18 -10 21 -5 3
-10 -1 -10 -9z"/>
<path d="M2696 1644 c-4 -9 -4 -19 -1 -22 2 -3 7 3 11 12 4 9 4 19 1 22 -2 3
-7 -3 -11 -12z"/>
<path d="M2616 1643 c-11 -11 -6 -23 9 -23 8 0 15 4 15 9 0 13 -16 22 -24 14z"/>
<path d="M2524 1623 c-13 -21 -7 -43 11 -43 16 0 26 25 19 45 -8 20 -17 19
-30 -2z"/>
<path d="M2970 1623 c0 -15 2 -16 10 -3 8 12 10 9 10 -12 0 -40 -49 -93 -79
-83 -12 4 -26 16 -31 28 -8 20 -9 19 -9 -9 -1 -51 44 -78 90 -54 40 22 64 111
37 138 -17 17 -28 15 -28 -5z"/>
<path d="M2440 1570 c0 -5 5 -10 11 -10 5 0 7 5 4 10 -3 6 -8 10 -11 10 -2 0
-4 -4 -4 -10z"/>
<path d="M3320 1565 c0 -8 4 -15 9 -15 5 0 14 7 21 15 10 13 9 15 -9 15 -12 0
-21 -6 -21 -15z"/>
<path d="M2780 1509 c0 -37 16 -69 35 -69 23 0 23 23 1 62 -26 46 -36 48 -36
7z"/>
<path d="M1620 1445 c35 -36 67 -65 69 -65 3 0 -24 29 -59 65 -35 36 -67 65
-69 65 -3 0 24 -29 59 -65z"/>
<path d="M2730 1490 c-12 -8 -12 -10 -1 -10 10 0 12 -9 7 -36 -8 -39 13 -84
39 -84 27 0 28 23 2 44 -18 14 -27 33 -29 58 -2 31 -6 36 -18 28z"/>
<path d="M2525 1446 c-18 -27 -52 -202 -41 -213 15 -16 37 28 51 102 8 44 19
92 25 108 12 35 -12 38 -35 3z"/>
<path d="M2576 1385 c-26 -105 -17 -126 23 -54 17 30 21 49 17 74 -11 55 -23
49 -40 -20z"/>
<path d="M2350 1390 c-13 -9 -13 -11 0 -20 19 -12 47 -13 55 -1 3 6 -3 15 -14
20 -24 13 -22 13 -41 1z"/>
<path d="M3164 1365 c-55 -21 -174 -82 -174 -90 0 -2 33 11 73 29 39 19 93 37
119 40 48 7 68 21 52 36 -5 5 -36 -2 -70 -15z"/>
<path d="M1710 1366 c0 -2 8 -10 18 -17 15 -13 16 -12 3 4 -13 16 -21 21 -21
13z"/>
<path d="M3239 1330 l-24 -19 77 -1 c83 0 106 12 56 29 -46 16 -83 13 -109 -9z"/>
<path d="M2130 1260 c8 -5 20 -10 25 -10 6 0 3 5 -5 10 -8 5 -19 10 -25 10 -5
0 -3 -5 5 -10z"/>
<path d="M2171 1246 c10 -9 89 -46 89 -41 0 5 -75 45 -86 45 -4 0 -5 -2 -3 -4z"/>
<path d="M2587 1205 c-29 -36 -33 -50 -17 -60 9 -6 55 83 47 91 -1 2 -15 -12
-30 -31z"/>
<path d="M2270 1197 c0 -3 12 -12 26 -22 15 -9 23 -12 20 -6 -7 11 -46 35 -46
28z"/>
<path d="M2715 1129 c-20 -22 -50 -61 -65 -86 -29 -46 -76 -170 -68 -179 3 -2
11 15 18 38 20 67 64 149 115 211 54 66 54 75 0 16z"/>
<path d="M2381 1105 c62 -66 83 -102 111 -185 13 -39 17 -45 13 -20 -9 63 -61
153 -122 210 l-57 55 55 -60z"/>
<path d="M2662 889 c-23 -17 -42 -33 -42 -35 0 -3 20 9 45 27 40 29 51 39 42
39 -2 0 -22 -14 -45 -31z"/>
<path d="M2674 856 c-41 -41 -44 -47 -44 -98 0 -56 23 -108 34 -78 3 8 5 26 5
40 -3 46 1 71 10 66 5 -3 15 2 22 12 11 14 11 15 0 5 -10 -9 -16 -9 -26 0 -14
13 -9 37 7 37 6 0 7 -7 4 -16 -6 -14 -4 -15 9 -4 15 12 15 14 0 23 -14 7 -12
12 12 33 15 13 24 24 19 24 -5 0 -28 -20 -52 -44z"/>
<path d="M2720 859 c0 -5 5 -7 10 -4 6 3 10 8 10 11 0 2 -4 4 -10 4 -5 0 -10
-5 -10 -11z"/>
<path d="M1505 813 c-202 -24 -965 -188 -896 -192 10 -1 8 -8 -9 -26 -27 -29
-25 -30 22 -11 18 8 104 26 190 40 87 14 235 44 330 66 95 22 234 54 308 70
74 16 169 38 210 49 l75 20 -55 -1 c-30 0 -109 -7 -175 -15z"/>
<path d="M2505 747 c3 -18 7 -103 11 -190 3 -86 9 -159 13 -161 3 -2 5 81 3
184 -2 149 -6 189 -17 193 -10 5 -13 -2 -10 -26z"/>
<path d="M3120 772 c0 -5 -14 -9 -31 -10 -44 -1 -240 -101 -323 -163 -67 -51
-142 -135 -173 -194 -12 -23 -3 -17 38 25 76 78 171 141 334 222 77 38 148 77
158 85 19 17 23 43 7 43 -5 0 -10 -4 -10 -8z"/>
<path d="M2695 740 c-3 -6 1 -7 9 -4 18 7 21 14 7 14 -6 0 -13 -4 -16 -10z"/>
<path d="M1490 705 c-83 -12 -612 -108 -830 -151 -98 -19 -112 -34 -16 -18 41
7 110 15 153 18 67 4 408 58 453 71 8 3 89 14 179 25 285 35 498 24 668 -34
97 -33 261 -118 330 -172 31 -24 58 -42 61 -40 9 10 -54 79 -112 122 -115 87
-275 151 -446 179 -113 18 -308 18 -440 0z"/>
<path d="M2745 710 c-3 -6 1 -7 9 -4 18 7 21 14 7 14 -6 0 -13 -4 -16 -10z"/>
<path d="M2674 658 l-19 -23 23 19 c21 18 27 26 19 26 -2 0 -12 -10 -23 -22z"/>
<path d="M3215 669 c-154 -20 -367 -96 -475 -167 -38 -25 -68 -47 -66 -49 1
-2 50 19 107 46 100 47 213 84 344 113 41 9 131 13 280 12 212 -2 226 -3 385
-38 181 -39 153 -39 -100 0 -145 23 -187 25 -345 21 -135 -3 -203 -10 -271
-25 -165 -39 -349 -115 -415 -173 l-34 -29 49 26 c66 35 200 80 316 105 74 16
145 22 320 26 201 5 246 2 425 -20 110 -14 252 -31 315 -37 63 -6 176 -18 251
-25 152 -17 338 -20 324 -6 -6 5 -68 14 -140 21 -71 6 -132 14 -135 17 -3 3
45 2 105 -2 61 -4 108 -5 105 -2 -3 3 -68 13 -145 22 -164 19 -394 64 -515
100 l-85 25 63 -3 c34 -2 62 1 62 6 0 5 -35 8 -80 5 -44 -2 -80 0 -80 3 0 4
-15 7 -32 7 -18 1 -55 6 -83 12 -69 14 -365 21 -450 9z m782 -125 c-3 -3 -12
-4 -19 -1 -8 3 -5 6 6 6 11 1 17 -2 13 -5z"/>
<path d="M2642 615 c0 -16 2 -22 5 -12 2 9 2 23 0 30 -3 6 -5 -1 -5 -18z"/>
<path d="M1520 619 c-102 -12 -496 -73 -710 -111 -101 -18 -211 -31 -260 -31
-79 0 -81 -1 -35 -9 69 -11 464 8 670 32 94 11 224 25 290 31 161 15 487 6
585 -16 119 -26 249 -73 322 -114 57 -33 69 -37 79 -25 10 12 9 18 -6 32 -18
16 -18 16 -4 -3 12 -17 10 -16 -18 4 -18 12 -33 27 -33 32 0 6 -4 7 -10 4 -5
-3 -10 -2 -10 3 0 14 -195 107 -275 131 -158 49 -378 63 -585 40z"/>
<path d="M3973 620 c15 -5 62 -11 105 -14 l77 -5 -75 14 c-41 8 -88 14 -105
14 l-30 -1 28 -8z"/>
<path d="M295 406 c-116 -112 -206 -208 -202 -212 5 -5 140 -10 300 -11 161
-2 447 -7 637 -13 190 -6 512 -15 715 -20 340 -8 377 -10 450 -31 73 -21 101
-23 335 -23 243 -1 257 0 300 21 42 21 66 23 385 33 187 5 475 15 640 20 165
6 476 12 690 14 215 3 400 5 413 5 35 1 27 35 -15 67 -21 15 -90 71 -153 124
-142 118 -150 124 -150 116 0 -8 117 -125 200 -200 l65 -58 -70 5 c-38 4 -478
9 -976 13 -970 7 -1043 5 -1032 -37 9 -32 -14 -21 -52 25 -44 54 -125 110
-182 127 -33 9 -52 9 -82 1 -51 -16 -127 -73 -175 -132 -22 -28 -44 -46 -51
-43 -8 2 -12 10 -9 17 12 33 -24 38 -303 46 -229 7 -997 1 -1666 -13 l-137 -2
112 113 c62 62 131 128 153 145 39 31 38 30 -12 -27 -28 -32 -51 -67 -50 -77
1 -9 5 -15 9 -13 5 3 6 10 3 15 -4 5 -1 9 4 9 6 0 21 15 33 34 100 148 110
166 90 166 -4 0 -102 -92 -217 -204z"/>
<path d="M4178 593 c6 -2 18 -2 25 0 6 3 1 5 -13 5 -14 0 -19 -2 -12 -5z"/>
<path d="M610 515 c-73 -11 -78 -13 -35 -13 28 -1 79 5 115 12 81 17 34 17
-80 1z"/>
<path d="M1579 510 c-58 -5 -195 -20 -305 -34 -275 -34 -326 -38 -599 -46
l-240 -7 225 -1 c250 -2 418 8 650 39 195 26 543 37 661 20 116 -17 267 -56
373 -97 99 -38 124 -39 49 -1 -210 107 -505 153 -814 127z"/>
<path d="M3230 514 c-19 -2 -76 -9 -126 -15 -109 -12 -262 -49 -356 -85 -89
-34 -98 -49 -11 -20 90 31 226 61 343 78 146 20 471 15 670 -11 91 -11 233
-27 315 -35 182 -18 606 -31 585 -18 -8 5 -85 12 -170 15 -203 8 -468 32 -710
63 -182 23 -459 38 -540 28z"/>
<path d="M478 453 c12 -2 30 -2 40 0 9 3 -1 5 -23 4 -22 0 -30 -2 -17 -4z"/>
<path d="M1580 454 c-302 -38 -553 -54 -847 -56 -228 -1 -290 -3 -218 -8 143
-11 529 -10 670 0 231 18 703 23 835 11 117 -12 307 -49 357 -71 30 -13 39 4
9 18 -43 19 -240 71 -331 87 -87 16 -402 28 -475 19z"/>
<path d="M3175 449 c-55 -5 -149 -18 -210 -29 -106 -20 -281 -68 -274 -75 2
-2 42 5 89 16 253 56 618 68 1065 35 121 -9 360 -18 530 -20 171 -2 263 -2
205 0 -299 9 -602 27 -745 45 -291 36 -474 44 -660 28z"/>
<path d="M3065 370 c-134 -12 -335 -42 -335 -50 0 -3 57 0 128 8 158 17 498
19 1266 9 425 -6 596 -5 591 2 -4 7 -93 11 -268 11 -144 1 -374 5 -512 10
-408 15 -763 19 -870 10z"/>
<path d="M1210 359 c-107 -5 -337 -8 -510 -5 -270 3 -295 3 -175 -6 174 -12
450 -14 1080 -8 428 4 505 2 610 -13 206 -30 230 -20 34 14 -110 19 -166 22
-484 24 -198 2 -448 -1 -555 -6z"/>
<path d="M339 343 c-13 -16 -12 -17 4 -4 9 7 17 15 17 17 0 8 -8 3 -21 -13z"/>
<path d="M500 320 l-155 -6 185 -2 c122 -1 180 2 170 8 -8 5 -22 9 -30 8 -8
-1 -85 -5 -170 -8z"/>
<path d="M728 296 c-223 -6 -410 -15 -415 -20 -4 -4 144 -4 337 0 420 11 1576
12 1645 2 29 -4 44 -4 35 1 -55 31 -765 39 -1602 17z"/>
<path d="M2980 300 c-74 -4 -155 -8 -180 -9 -29 -1 -40 -4 -30 -10 8 -4 67 -4
130 1 123 10 1675 2 1819 -9 55 -4 82 -3 78 4 -3 5 -81 13 -174 17 -241 10
-1483 15 -1643 6z"/>
</g>
</svg>