<?xml version="1.0" standalone="no"?>
<!DOCTYPE svg PUBLIC "-//W3C//DTD SVG 20010904//EN"
 "http://www.w3.org/TR/2001/REC-SVG-20010904/DTD/svg10.dtd">
<svg version="1.0" xmlns="http://www.w3.org/2000/svg"
 width="512.000000pt" height="512.000000pt" viewBox="0 0 512.000000 512.000000"
 preserveAspectRatio="xMidYMid meet">
<metadata>
Created by potrace 1.16, written by Peter Selinger 2001-2019
</metadata>
<g transform="translate(0.000000,512.000000) scale(0.100000,-0.100000)"
fill="#000000" stroke="none">
<path d="M2 5106 c2 -8 202 -216 444 -463 243 -247 443 -456 445 -466 2 -9
107 -121 233 -247 l229 -231 -5 -43 c-3 -25 -15 -58 -27 -74 -32 -45 -42 -119
-41 -295 l0 -157 -32 14 c-97 42 -128 58 -128 67 0 5 -45 31 -100 56 -99 46
-99 46 -105 87 -4 22 -5 72 -3 109 l3 68 105 -63 105 -64 3 -84 c3 -79 12
-110 34 -110 5 0 2 7 -6 16 -12 11 -16 36 -16 95 l0 79 -42 31 c-24 17 -71 47
-106 66 -70 39 -75 46 -70 95 l3 33 51 -51 c28 -28 88 -75 135 -104 46 -29 99
-63 117 -77 18 -13 31 -19 30 -11 -4 15 -47 48 -160 118 l-87 55 -3 64 c-2 40
-8 66 -16 69 -8 2 -12 -9 -12 -37 0 -46 -5 -49 -37 -22 -22 18 -23 26 -23 169
0 123 3 152 15 162 13 11 13 15 3 21 -8 5 -9 9 -2 9 15 0 44 -23 194 -154 165
-143 159 -137 175 -182 l14 -39 1 35 c0 42 -8 51 -224 239 -97 85 -146 121
-160 119 -21 -3 -21 -10 -28 -332 -4 -181 -11 -333 -16 -338 -5 -5 -26 -2 -51
8 -65 26 -81 73 -34 96 l28 13 3 300 c2 165 0 319 -3 343 -4 23 -17 55 -30 70
l-24 27 24 -49 c25 -49 25 -50 25 -356 0 -351 1 -345 -73 -316 -23 9 -202 95
-397 190 l-355 173 -3 -36 c-2 -24 2 -39 13 -47 17 -13 169 -83 509 -235 186
-84 230 -109 214 -125 -6 -6 -323 129 -681 290 -37 17 -57 22 -55 14 5 -13
368 -176 654 -292 89 -37 226 -95 305 -129 l144 -63 3 -253 c2 -216 0 -255
-13 -265 -10 -7 -12 -16 -5 -26 5 -8 13 -11 17 -6 4 4 10 124 13 266 l5 257
79 -36 78 -36 2 -152 c2 -173 8 -162 -83 -141 l-51 11 -2 131 -1 131 -7 -115
c-4 -63 -8 -271 -9 -462 0 -192 -3 -348 -5 -348 -3 0 -161 -29 -161 -30 0 0 1
171 3 379 3 427 11 388 -77 393 -54 3 -66 -12 -75 -90 -6 -57 4 -147 19 -160
5 -4 5 1 2 11 -4 11 -3 16 3 12 6 -3 10 -13 10 -21 0 -8 5 -14 11 -14 5 0 7 5
3 12 -4 6 -3 8 4 4 6 -3 29 0 51 8 l41 14 0 -254 c0 -139 -4 -264 -9 -277 -8
-20 -21 -26 -73 -36 -78 -16 -611 -150 -765 -193 -71 -20 -113 -36 -113 -45 0
-19 9 -18 215 41 234 67 739 200 820 216 33 6 68 14 77 16 15 5 16 -9 11 -178
-3 -115 -10 -187 -17 -194 -6 -7 -43 -25 -83 -42 l-71 -29 -6 136 c-3 75 -6
142 -7 149 -3 19 -30 13 -296 -68 -364 -110 -638 -205 -641 -221 -2 -11 82 14
290 83 161 54 298 96 305 93 10 -3 13 -45 13 -165 l0 -161 -117 -55 c-468
-219 -510 -241 -490 -260 3 -3 94 40 203 94 305 152 504 244 518 239 10 -4 13
-39 12 -145 -1 -125 -3 -144 -22 -169 -11 -15 -176 -131 -367 -258 -281 -186
-347 -234 -347 -252 0 -19 23 -6 167 94 301 209 494 333 518 333 51 0 71 -54
63 -171 -4 -49 -11 -76 -24 -91 -11 -11 -80 -73 -154 -136 -237 -203 -453
-393 -513 -451 -52 -51 -57 -59 -57 -99 l0 -44 74 69 c41 37 149 137 240 221
212 197 405 362 422 362 10 0 14 -41 16 -195 3 -195 3 -196 -22 -228 -13 -18
-92 -113 -175 -212 -169 -201 -174 -208 -152 -203 13 3 239 268 357 420 209
267 428 530 447 534 13 4 46 33 74 65 l51 59 1233 0 1233 0 33 -42 c18 -24 37
-49 42 -56 8 -9 -118 -12 -622 -12 l-631 0 0 46 c0 27 -4 43 -10 39 -6 -3 -10
-24 -10 -45 l0 -40 -422 -3 c-233 -1 56 -3 642 -5 l1066 -2 136 -197 c263
-380 525 -741 551 -757 44 -28 17 18 -110 186 -179 236 -339 458 -335 465 2 3
-1 9 -6 12 -16 10 -213 294 -207 299 2 3 11 0 19 -7 8 -6 31 -13 52 -15 34 -3
45 -12 100 -80 34 -42 78 -109 99 -149 21 -40 70 -110 109 -157 108 -128 363
-421 394 -452 15 -16 27 -31 27 -35 0 -5 15 -23 34 -40 l33 -33 169 0 169 0 0
89 c0 72 -3 91 -18 102 -16 13 -16 13 -2 -5 14 -18 13 -19 -2 -13 -10 3 -18 2
-18 -3 0 -6 -7 -10 -16 -10 -9 0 -12 -5 -8 -12 5 -7 2 -9 -8 -5 -9 3 -25 -3
-35 -13 -19 -17 -103 -33 -103 -19 0 4 -17 1 -37 -7 -21 -7 -52 -13 -70 -14
-20 0 -33 -6 -35 -15 -3 -15 -511 555 -535 600 -7 12 -12 114 -14 251 -3 188
-1 234 10 248 8 9 20 15 27 12 13 -5 422 -334 689 -555 77 -64 148 -122 158
-130 16 -12 17 -9 17 37 l0 51 -167 130 c-93 71 -275 213 -405 315 -131 102
-238 181 -238 176 0 -6 -3 -10 -8 -10 -11 0 -187 140 -185 148 1 4 -7 16 -17
27 -19 21 -20 46 -15 1145 3 619 8 1153 11 1186 5 54 10 66 45 102 70 73 514
398 524 383 6 -10 -63 -65 -275 -216 -91 -65 -167 -119 -170 -122 -2 -2 2 -14
9 -26 12 -18 12 -23 -4 -32 -10 -5 -33 -23 -52 -39 l-33 -28 0 -224 c0 -123 2
-224 5 -224 12 0 90 43 97 54 4 6 8 54 8 106 l0 95 435 225 435 224 0 38 c0
21 -2 38 -5 38 -3 0 -101 -52 -218 -116 -332 -182 -610 -332 -629 -339 -15 -6
-17 5 -20 93 l-3 100 50 34 c210 144 508 352 652 456 l173 124 0 55 0 55 -52
-38 c-29 -21 -62 -46 -74 -56 -17 -15 -26 -17 -47 -9 -24 9 -32 5 -83 -39 -32
-28 -61 -50 -66 -50 -4 0 -8 56 -8 125 l0 124 165 153 165 152 0 53 c0 29 -3
53 -7 53 -5 0 -119 -111 -255 -247 -135 -135 -246 -240 -245 -232 1 8 -5 39
-14 69 -16 56 -34 137 -49 223 -5 26 -21 86 -36 135 -25 79 -31 102 -36 140
-1 6 -5 12 -10 12 -4 0 -8 7 -8 15 0 13 -39 15 -290 15 l-291 0 123 -120 c68
-66 115 -117 106 -114 -23 8 -22 2 2 -43 l19 -37 -30 -27 c-17 -15 -28 -32
-24 -38 3 -6 0 -11 -7 -11 -15 0 -40 -48 -32 -61 3 -5 -3 -6 -13 -2 -10 3 -15
3 -11 -2 4 -4 0 -14 -10 -21 -14 -11 -15 -16 -4 -33 19 -33 2 -25 -47 22 -25
23 -10 4 32 -41 42 -46 106 -128 142 -181 59 -90 135 -235 135 -260 0 -28 -20
-4 -53 62 -124 250 -395 504 -692 647 -281 135 -560 193 -925 193 -277 -1
-500 -34 -725 -109 -126 -41 -366 -157 -338 -163 22 -4 54 -31 48 -41 -2 -4 6
-16 18 -27 37 -34 58 -63 52 -73 -4 -6 -1 -10 5 -10 7 0 10 -7 6 -15 -4 -13
-2 -14 14 -5 16 9 22 8 26 -5 3 -8 10 -12 15 -9 5 3 9 0 9 -5 0 -6 9 -11 19
-11 11 0 27 -10 36 -22 8 -13 16 -22 18 -21 6 7 46 -11 41 -18 -3 -5 2 -9 11
-9 12 0 15 -6 10 -20 -5 -17 2 -15 68 15 165 76 344 115 565 122 189 6 262 -2
427 -44 253 -65 532 -209 650 -334 40 -43 40 -43 5 -16 -152 117 -321 212
-473 266 -155 54 -262 72 -472 78 -215 6 -384 -13 -550 -62 -110 -32 -275
-103 -282 -121 -3 -8 -8 -12 -12 -10 -3 3 -5 -14 -4 -36 1 -23 -5 -54 -13 -69
-8 -16 -13 -32 -12 -37 2 -5 -31 -36 -72 -69 -41 -32 -95 -82 -119 -109 -48
-54 -153 -203 -196 -277 l-28 -49 -211 218 c-116 119 -214 229 -218 243 -4 14
-90 109 -190 211 -101 102 -203 206 -227 232 l-44 47 27 85 c32 103 102 211
187 290 l60 56 -361 0 c-307 0 -361 -2 -358 -14z m4163 -276 c3 -6 -1 -7 -9
-4 -18 7 -21 14 -7 14 6 0 13 -4 16 -10z m-1422 -17 c-7 -2 -21 -2 -30 0 -10
3 -4 5 12 5 17 0 24 -2 18 -5z m233 -23 c205 -35 419 -118 589 -228 79 -51
197 -160 260 -242 47 -62 132 -211 161 -282 10 -27 23 -48 27 -48 5 0 6 -4 2
-9 -3 -5 1 -16 9 -24 13 -13 11 -18 -15 -43 -16 -16 -36 -42 -44 -58 -14 -27
-14 -28 2 -14 87 73 589 526 713 642 l75 71 3 -119 c1 -66 7 -125 12 -131 7
-8 1 -19 -18 -36 l-27 -24 24 28 c14 15 21 27 18 27 -4 0 -58 -38 -120 -84
-61 -45 -191 -141 -289 -212 -191 -140 -368 -282 -368 -295 0 -16 16 -9 40 16
45 48 48 37 43 -122 -3 -87 -10 -154 -17 -162 -8 -11 -8 -13 2 -7 9 5 12 -16
12 -94 l0 -101 -30 -10 c-16 -6 -30 -16 -30 -21 0 -6 12 -8 30 -5 l30 6 0 -58
c0 -54 -2 -59 -24 -65 -13 -3 -31 -8 -39 -12 -12 -4 -15 37 -22 288 l-7 293
-43 92 c-24 50 -40 95 -37 98 11 11 9 74 -2 68 -5 -4 -7 1 -3 11 4 10 7 22 7
28 0 6 7 7 16 4 8 -3 12 -2 9 4 -3 6 -2 10 2 10 5 0 17 14 26 30 10 17 14 30
8 30 -6 0 -7 7 -4 17 5 12 3 14 -7 8 -9 -5 -11 -4 -6 4 8 13 -66 148 -121 221
-55 72 -171 188 -237 235 -179 126 -435 224 -721 274 -93 16 -102 20 -58 20
28 1 104 -8 169 -19z m-104 -440 c76 -11 179 -34 229 -50 99 -33 289 -125 354
-172 123 -88 178 -138 275 -249 36 -41 68 -76 73 -77 4 -2 5 -7 2 -11 -2 -5
20 -35 50 -69 30 -33 55 -65 55 -70 0 -5 7 -15 15 -22 8 -7 12 -16 9 -21 -3
-5 0 -9 5 -9 6 0 10 -3 9 -7 -1 -5 3 -18 10 -31 10 -18 12 -134 10 -525 -2
-276 -7 -508 -12 -515 -4 -8 -8 -152 -7 -320 1 -169 -3 -332 -8 -363 -5 -31
-11 -119 -12 -195 -2 -127 -4 -139 -21 -144 -11 -3 -20 -10 -20 -15 -1 -5 -7
-14 -13 -20 -7 -5 -18 -27 -25 -47 -6 -21 -13 -38 -16 -38 -5 0 4 1269 12
1590 4 164 2 242 -4 235 -7 -6 -13 -370 -18 -1025 -5 -558 -10 -1003 -12 -987
-4 34 -25 35 -58 2 -14 -14 -36 -33 -50 -41 -13 -9 -24 -23 -24 -30 0 -8 -4
-14 -10 -14 -7 0 -10 323 -11 948 0 521 -3 965 -7 986 -4 22 -6 -394 -4 -924
l3 -963 -43 64 -43 64 -945 0 -945 0 943 -5 942 -5 40 -60 c45 -67 48 -80 22
-94 -18 -10 -956 -17 -1689 -13 l-423 2 -2 933 c-1 512 -5 867 -8 787 -4 -80
-8 -499 -9 -932 -1 -673 -3 -788 -15 -788 -8 0 -17 6 -19 13 -9 21 4 1878 13
1982 20 219 93 402 222 559 l73 90 95 34 c98 35 253 72 305 72 25 0 18 -6 -50
-45 -121 -69 -111 -70 22 -3 l119 60 130 3 c71 2 228 4 350 5 l220 3 84 -42
c162 -81 325 -216 415 -346 53 -77 79 -107 51 -60 -84 138 -213 264 -378 368
l-93 58 45 -6 c156 -23 262 -69 345 -152 65 -66 173 -199 260 -320 33 -45 61
-81 63 -79 7 7 -40 134 -78 208 -46 92 -96 170 -150 230 l-39 45 22 20 c12 11
35 28 50 38 l28 18 -50 51 c-48 49 -66 76 -38 60 35 -21 -23 31 -77 70 -63 45
-245 146 -262 146 -5 0 32 -22 81 -48 101 -54 249 -151 242 -159 -3 -2 -14 0
-25 6 -12 6 -32 11 -45 11 -14 0 -56 19 -93 42 -143 87 -304 147 -452 168
-119 18 -391 8 -507 -19 -226 -51 -461 -168 -610 -306 -38 -35 -26 -28 54 30
164 120 371 211 584 257 83 18 136 22 282 22 202 1 270 -10 435 -71 72 -27
219 -99 237 -116 1 -1 -290 0 -645 1 -478 3 -657 1 -686 -8 -52 -16 -211 -144
-283 -229 -133 -155 -212 -309 -255 -495 -21 -87 -22 -120 -25 -738 -3 -428
-7 -648 -14 -648 -6 0 -8 4 -5 9 3 4 -6 13 -21 20 -14 6 -23 15 -19 18 3 4 -2
15 -11 26 -13 15 -14 18 -3 12 10 -6 9 -2 -3 12 -10 12 -20 27 -21 35 -1 7 -8
24 -16 38 -14 24 -15 20 -21 -65 -3 -49 -6 100 -7 333 -2 321 1 421 10 416 8
-5 9 -2 2 12 -5 10 -10 183 -12 384 l-2 365 30 61 c19 39 30 77 30 103 0 24 4
40 9 36 12 -7 20 3 81 95 187 286 461 463 825 534 207 41 394 46 597 16z
m1825 -133 c0 -8 -6 -14 -14 -14 -9 0 -10 4 -2 14 6 7 12 13 14 13 1 0 2 -6 2
-13z m-457 -524 l0 -98 -36 -38 c-19 -20 -40 -35 -45 -32 -5 4 -9 47 -9 97 l0
91 42 39 c23 21 43 38 45 38 1 0 3 -44 3 -97z m-11 -270 l1 -83 -41 -20 -40
-21 2 74 c3 116 8 136 38 151 34 19 39 6 40 -101z m-159 -478 l0 -125 -24 0
c-13 0 -31 -3 -40 -6 -14 -5 -16 9 -16 114 l0 120 28 10 c53 20 52 21 52 -113z
m-3126 -51 c9 -3 16 -14 16 -24 0 -13 -6 -16 -26 -12 -21 4 -25 1 -22 -14 2
-12 12 -19 26 -18 18 0 22 -5 22 -28 0 -22 -5 -28 -22 -29 l-23 -2 23 -4 c12
-2 22 -9 22 -14 0 -5 -10 -9 -22 -9 -18 0 -20 -2 -8 -9 8 -6 18 -7 22 -5 4 3
8 -2 8 -11 0 -12 -7 -15 -27 -13 -28 3 -28 3 -33 96 -3 52 -3 96 -1 98 6 6 27
5 45 -2z m256 -83 c19 -5 47 -12 63 -15 l27 -6 -2 -173 -3 -172 -65 -5 -65 -5
-3 -132 c-3 -133 -3 -133 20 -132 13 0 41 7 63 15 l40 13 -40 -5 c-22 -3 -48
-7 -57 -10 -17 -5 -18 5 -18 120 l0 126 65 0 65 0 0 -375 0 -375 -52 -30 -53
-30 -6 78 -5 77 -2 -96 c-1 -58 -7 -102 -14 -112 -7 -10 -80 -59 -163 -111
l-150 -94 -5 137 -6 136 -2 -141 c-1 -78 -5 -169 -9 -204 -4 -47 -3 -61 5 -56
7 4 12 29 12 56 l0 48 153 98 c178 114 187 121 187 148 1 15 17 30 55 53 l55
31 0 -133 0 -134 -62 -54 c-55 -48 -228 -195 -408 -349 l-55 -46 0 112 c0 91
-3 117 -18 139 -16 25 -16 29 -2 49 22 33 22 356 0 364 -8 4 -22 1 -30 -6 -12
-10 -21 -10 -40 -2 -25 12 -25 12 -25 156 l0 145 88 26 c48 14 100 30 116 35
16 6 40 10 52 10 24 0 24 0 25 -137 0 -76 0 -188 -1 -249 -1 -71 3 -114 9
-119 8 -4 11 28 11 105 l0 111 87 42 c68 32 89 48 94 67 4 14 7 249 8 523 1
390 4 497 14 497 6 0 28 -4 47 -9z m2853 -18 c-7 -2 -21 -2 -30 0 -10 3 -4 5
12 5 17 0 24 -2 18 -5z m15 -195 c0 -112 -4 -165 -8 -138 l-7 45 -1 -47 c-1
-27 3 -48 8 -48 6 0 10 -16 10 -35 0 -30 -3 -35 -24 -35 -57 0 -56 -5 -56 220
0 227 -3 216 58 219 l22 1 -2 -182z m-101 -155 c-3 -10 -5 -4 -5 12 0 17 2 24
5 18 2 -7 2 -21 0 -30z m112 -129 c2 -2 2 -7 -2 -10 -8 -8 -87 6 -87 16 0 7
80 2 89 -6z m-25 -40 c12 -11 16 -35 15 -92 -1 -69 -15 -156 -18 -109 -1 9 -4
17 -8 17 -5 0 -4 -35 0 -77 18 -185 21 -277 14 -422 -9 -151 -10 -155 -39
-192 -23 -28 -29 -44 -25 -70 l4 -34 1 36 c1 20 10 43 20 53 18 15 20 15 36
-2 14 -17 16 -44 14 -236 l-3 -217 -37 50 c-28 38 -38 60 -38 89 0 20 -8 48
-17 61 -12 18 -18 53 -21 126 -6 141 8 575 19 575 5 0 9 -44 9 -97 0 -54 3
-142 7 -196 5 -86 9 -99 27 -109 21 -11 21 -10 3 10 -15 16 -17 29 -12 66 5
29 11 44 19 40 6 -3 1 3 -11 13 -21 18 -21 22 -23 376 l-1 357 25 0 c13 0 32
-7 40 -16z m-107 -521 c-3 -10 -5 -4 -5 12 0 17 2 24 5 18 2 -7 2 -21 0 -30z
m-2667 -522 l0 -129 -134 -170 c-128 -162 -215 -271 -298 -369 l-38 -44 0 191
c0 185 -1 192 -20 197 -12 3 -20 9 -18 14 4 10 491 437 501 438 4 1 7 -57 7
-128z m2893 35 l47 -38 -20 -33 c-18 -29 -20 -50 -20 -184 l0 -151 -27 0 c-14
0 -35 7 -45 17 -16 15 -18 36 -18 236 0 209 1 219 18 205 9 -8 38 -32 65 -52z
m-2893 -219 c0 -2 -10 -12 -22 -23 l-23 -19 19 23 c18 21 26 27 26 19z m-590
-203 c0 -8 -5 -12 -10 -9 -6 4 -8 11 -5 16 9 14 15 11 15 -7z"/>
<path d="M4699 4463 c-13 -16 -12 -17 4 -4 16 13 21 21 13 21 -2 0 -10 -8 -17
-17z"/>
<path d="M4681 4392 c-1 -46 1 -53 17 -50 10 2 18 14 20 32 3 22 0 27 -12 23
-10 -4 -16 2 -19 21 -2 15 -5 3 -6 -26z"/>
<path d="M4017 3373 c-4 -3 -7 -36 -7 -71 0 -36 3 -62 7 -59 4 4 5 33 4 64 -2
38 2 59 11 64 7 5 8 9 2 9 -6 0 -14 -3 -17 -7z"/>
<path d="M2483 4293 c9 -2 25 -2 35 0 9 3 1 5 -18 5 -19 0 -27 -2 -17 -5z"/>
<path d="M2758 4293 c6 -2 18 -2 25 0 6 3 1 5 -13 5 -14 0 -19 -2 -12 -5z"/>
<path d="M2418 4283 c7 -3 16 -2 19 1 4 3 -2 6 -13 5 -11 0 -14 -3 -6 -6z"/>
<path d="M2828 4283 c7 -3 16 -2 19 1 4 3 -2 6 -13 5 -11 0 -14 -3 -6 -6z"/>
<path d="M2358 4273 c7 -3 16 -2 19 1 4 3 -2 6 -13 5 -11 0 -14 -3 -6 -6z"/>
<path d="M2878 4273 c7 -3 16 -2 19 1 4 3 -2 6 -13 5 -11 0 -14 -3 -6 -6z"/>
<path d="M2318 4263 c7 -3 16 -2 19 1 4 3 -2 6 -13 5 -11 0 -14 -3 -6 -6z"/>
<path d="M2230 4240 c-18 -12 -2 -12 25 0 13 6 15 9 5 9 -8 0 -22 -4 -30 -9z"/>
<path d="M3089 4209 c24 -11 46 -18 48 -15 4 4 -73 36 -85 35 -4 0 13 -9 37
-20z"/>
<path d="M2110 4195 c-14 -8 -20 -14 -15 -14 6 0 21 6 35 14 14 8 21 14 15 14
-5 0 -21 -6 -35 -14z"/>
<path d="M1998 4139 c-21 -11 -38 -22 -38 -24 0 -3 18 4 40 15 22 11 40 23 40
25 0 7 0 7 -42 -16z"/>
<path d="M1919 4089 l-24 -20 28 17 c15 9 27 18 27 20 0 8 -8 4 -31 -17z"/>
<path d="M1818 4008 c-57 -55 -58 -57 -9 -14 81 72 86 76 79 76 -3 0 -35 -28
-70 -62z"/>
<path d="M1709 3913 l-24 -28 28 24 c25 23 32 31 24 31 -2 0 -14 -12 -28 -27z"/>
<path d="M3580 3886 c0 -2 8 -10 18 -17 15 -13 16 -12 3 4 -13 16 -21 21 -21
13z"/>
<path d="M2469 3845 c-358 -58 -673 -319 -783 -646 l-26 -77 0 -903 0 -904
960 -3 960 -2 0 867 c0 726 -3 879 -15 938 -57 270 -270 526 -543 652 -164 76
-380 107 -553 78z m129 -1263 l2 -1252 -400 0 -400 1 0 835 c0 940 -1 919 74
1079 24 51 72 127 110 175 55 70 58 75 17 30 -73 -78 -139 -187 -175 -288
l-31 -87 -5 -550 c-3 -302 -7 -527 -8 -498 -1 28 -8 58 -16 65 -34 32 -53 44
-64 40 -7 -2 -12 1 -12 8 0 6 -4 8 -10 5 -7 -4 -10 159 -9 482 0 268 3 482 6
474 7 -17 102 85 130 139 10 19 22 37 26 39 16 6 76 148 93 220 17 71 19 75
83 125 139 111 267 169 456 210 11 2 45 3 75 3 l55 -2 3 -1253z m262 1228 c83
-24 173 -60 178 -72 2 -5 9 -5 14 -2 7 4 8 2 4 -5 -8 -13 11 -81 24 -81 4 0
11 -11 14 -24 3 -14 45 -60 92 -103 190 -173 276 -347 273 -552 l-2 -86 -7
100 c-4 55 -13 120 -20 145 -25 94 -101 237 -119 225 -5 -2 -17 5 -27 18 l-19
22 23 -19 c12 -11 22 -15 22 -9 0 13 -45 55 -52 48 -2 -3 -13 5 -24 17 l-19
23 23 -19 c12 -11 22 -15 22 -9 0 14 -45 54 -53 47 -4 -4 -9 1 -13 10 -3 9
-10 14 -14 11 -4 -3 -14 3 -21 12 -12 14 -12 16 1 8 8 -4 13 -6 10 -2 -3 3 -9
5 -13 6 -5 0 -15 8 -24 18 -8 10 -11 11 -7 3 4 -8 -4 -4 -17 10 -47 50 -239
136 -341 154 l-38 7 0 -500 0 -500 -32 -3 -33 -3 -5 -140 c-3 -77 -2 -148 3
-157 9 -21 53 -24 60 -5 3 6 6 -214 6 -490 1 -277 4 -503 9 -503 4 0 6 513 4
1141 -3 1091 -2 1140 15 1136 10 -3 40 -11 66 -17 33 -9 44 -16 35 -21 -9 -6
-9 -9 -1 -9 6 0 20 -3 30 -6 15 -5 15 -4 3 5 -19 14 -11 14 28 0 18 -6 29 -15
26 -20 -3 -5 3 -6 12 -2 13 5 15 3 9 -7 -5 -9 -4 -11 4 -6 10 7 101 -38 101
-50 0 -3 -20 7 -45 22 -25 14 -45 24 -45 21 0 -3 20 -17 45 -32 25 -14 76 -54
113 -88 62 -57 64 -57 17 -9 -27 29 -44 52 -38 52 24 0 163 -164 201 -239 82
-158 77 -81 79 -1053 2 -477 0 -874 -3 -882 -5 -14 -51 -16 -390 -16 l-384 0
-2 668 c-3 645 -3 1092 0 1601 l2 244 83 -6 c45 -4 116 -16 157 -27z m237
-257 c-4 -3 -1 -13 6 -21 10 -13 9 -14 -12 -3 -19 10 -21 15 -10 22 17 10 25
12 16 2z m233 -233 c6 -11 8 -20 6 -20 -3 0 -10 9 -16 20 -6 11 -8 20 -6 20 3
0 10 -9 16 -20z m40 -85 c0 -5 -5 -3 -10 5 -5 8 -10 20 -10 25 0 6 5 3 10 -5
5 -8 10 -19 10 -25z m56 -1030 l1 -870 -8 840 c-8 748 -12 887 -34 995 -3 14
5 -2 18 -35 l22 -60 1 -870z m34 -105 l-5 -775 -5 730 c-3 455 -1 748 5 777 5
26 10 46 10 45 0 -1 -2 -351 -5 -777z m-730 486 c0 -33 -20 -53 -41 -40 -15 9
-10 46 9 60 26 20 32 17 32 -20z"/>
<path d="M2405 3676 c-158 -51 -263 -126 -374 -265 -44 -55 -94 -130 -111
-166 -60 -126 -60 -122 -60 -999 0 -487 4 -805 10 -815 6 -10 10 279 10 802 0
910 -2 877 68 1014 49 95 142 212 222 280 67 56 218 136 280 148 19 4 42 11
50 16 30 17 -23 9 -95 -15z"/>
<path d="M2468 3653 c7 -3 16 -2 19 1 4 3 -2 6 -13 5 -11 0 -14 -3 -6 -6z"/>
<path d="M2345 3611 c-191 -91 -350 -270 -422 -476 l-28 -80 -3 -813 c-2 -657
0 -813 10 -817 7 -3 148 -6 313 -8 l300 -2 1 75 1 75 -4 -68 -4 -67 -302 2
-302 3 -3 760 c-1 492 1 784 8 828 38 247 227 487 467 592 43 19 71 34 63 34
-8 0 -51 -17 -95 -38z"/>
<path d="M2457 2644 c-4 -4 -7 -63 -7 -131 l0 -123 30 0 c38 0 42 14 38 150
-3 104 -3 105 -28 108 -14 2 -29 0 -33 -4z m53 -99 c0 -52 -4 -95 -9 -95 -14
0 -21 39 -21 118 0 57 3 72 15 72 12 0 15 -17 15 -95z"/>
<path d="M3210 3396 c0 -2 8 -10 18 -17 15 -13 16 -12 3 4 -13 16 -21 21 -21
13z"/>
<path d="M3255 3336 c10 -14 19 -26 22 -26 7 0 -17 39 -28 46 -6 3 -3 -5 6
-20z"/>
<path d="M2750 2617 c0 -52 3 -128 6 -169 l7 -74 31 4 c47 7 56 19 56 78 l0
54 38 0 c49 0 75 19 75 55 0 36 -26 55 -75 55 -33 0 -38 3 -43 28 -10 46 -21
57 -59 60 l-36 3 0 -94z m175 -37 c14 -22 -6 -50 -36 -50 -31 0 -46 19 -35 45
6 17 61 21 71 5z"/>
<path d="M2760 1429 c0 -4 7 -10 16 -13 27 -10 602 -7 609 4 4 6 -109 10 -310
12 -173 2 -315 0 -315 -3z"/>
<path d="M3671 3764 c18 -26 54 -88 80 -138 54 -101 67 -111 18 -13 -35 69
-116 197 -124 197 -3 0 8 -21 26 -46z"/>
<path d="M3531 3380 c14 -31 19 -36 19 -24 0 6 -7 19 -16 30 -14 18 -14 18 -3
-6z"/>
<path d="M3570 3295 c0 -5 5 -17 10 -25 5 -8 10 -10 10 -5 0 6 -5 17 -10 25
-5 8 -10 11 -10 5z"/>
<path d="M3601 3215 c1 -19 18 -51 18 -35 0 8 -4 22 -9 30 -5 8 -9 11 -9 5z"/>
<path d="M3632 3110 c0 -14 2 -19 5 -12 2 6 2 18 0 25 -3 6 -5 1 -5 -13z"/>
<path d="M1565 2515 c0 -275 1 -386 2 -247 2 139 2 364 0 500 -1 136 -2 22 -2
-253z"/>
<path d="M3850 2404 c0 -61 3 -75 12 -66 7 7 25 12 40 12 l29 0 -3 63 -3 62
-37 3 -38 3 0 -77z"/>
<path d="M3852 2248 c3 -41 5 -43 37 -46 18 -2 38 1 44 7 8 8 -1 11 -31 11
-23 0 -42 5 -42 10 0 6 18 10 40 10 22 0 40 5 40 10 0 6 -18 10 -40 10 -51 0
-53 17 -2 23 l37 4 -43 1 -43 2 3 -42z"/>
<path d="M1564 1620 c0 -113 2 -159 3 -102 2 56 2 148 0 205 -1 56 -3 10 -3
-103z"/>
<path d="M3883 1793 l-33 -4 0 -63 0 -62 35 4 35 4 0 64 c0 35 -1 63 -2 62 -2
0 -18 -3 -35 -5z"/>
<path d="M1569 1137 c4 -4 392 -6 862 -5 l854 3 -862 5 c-474 3 -859 2 -854
-3z"/>
<path d="M4200 3448 c0 -17 -8 -40 -17 -51 -17 -19 -17 -20 5 -8 17 9 22 20
22 51 0 22 -2 40 -5 40 -3 0 -5 -14 -5 -32z"/>
<path d="M1210 2091 c-22 -6 -25 -13 -28 -54 -3 -50 1 -53 42 -37 19 7 26 17
26 36 0 23 -3 25 -25 20 -19 -5 -25 -2 -25 10 0 12 7 15 25 12 17 -4 25 -1 25
8 0 15 -3 15 -40 5z m30 -49 c0 -4 -9 -13 -20 -20 -17 -10 -20 -10 -20 2 0 8
8 17 18 19 9 3 18 5 20 6 1 0 2 -2 2 -7z"/>
<path d="M1188 1964 c-5 -4 -8 -29 -8 -56 l0 -49 30 23 c34 25 40 49 11 41
-15 -4 -20 1 -23 22 -2 15 -6 23 -10 19z"/>
<path d="M1182 1805 c0 -16 2 -22 5 -12 2 9 2 23 0 30 -3 6 -5 -1 -5 -18z"/>
<path d="M1203 1537 c-32 -21 -33 -24 -33 -94 0 -39 4 -74 9 -77 15 -10 61 53
61 82 l-1 27 -20 -27 c-28 -38 -39 -35 -39 11 0 33 6 44 38 70 43 35 33 40
-15 8z"/>
<path d="M1222 1515 c4 -4 3 -14 -4 -22 -8 -11 -7 -12 6 -7 19 7 21 20 4 30
-7 4 -10 4 -6 -1z"/>
<path d="M1154 1415 c0 -49 1 -71 3 -48 2 23 2 64 0 90 -2 26 -3 8 -3 -42z"/>
<path d="M4031 1504 c0 -11 3 -14 6 -6 3 7 2 16 -1 19 -3 4 -6 -2 -5 -13z"/>
<path d="M1007 1082 c-10 -10 -14 -22 -11 -25 4 -4 -1 -9 -10 -13 -18 -7 -20
-13 -6 -34 8 -12 14 -10 40 15 31 29 41 75 17 75 -8 0 -21 -8 -30 -18z"/>
<path d="M1580 5107 c14 -8 24 -19 23 -25 -2 -7 2 -12 8 -12 6 0 9 -6 6 -14
-3 -7 1 -23 9 -34 8 -11 11 -27 8 -36 -3 -8 -1 -23 5 -33 6 -11 11 -13 11 -5
0 7 4 11 8 8 4 -2 28 4 52 15 78 35 212 80 340 114 l125 33 -310 1 c-262 1
-306 -1 -285 -12z"/>
<path d="M2563 5113 c15 -2 39 -2 55 0 15 2 2 4 -28 4 -30 0 -43 -2 -27 -4z"/>
<path d="M2398 5103 c12 -2 30 -2 40 0 9 3 -1 5 -23 4 -22 0 -30 -2 -17 -4z"/>
<path d="M2 4328 l3 -83 250 -168 c248 -167 489 -323 536 -347 51 -26 -3 12
-171 123 -359 236 -405 271 -398 300 2 11 57 -23 183 -114 99 -71 183 -129
186 -129 3 0 9 3 13 7 4 4 17 8 29 8 47 0 30 128 -22 164 -42 30 -50 26 -53
-28 l-3 -48 -246 176 c-136 97 -261 187 -278 199 l-32 24 3 -84z m622 -267
c11 -12 21 -42 24 -73 l5 -51 -41 29 c-40 28 -42 31 -42 82 0 47 2 52 18 43 9
-5 26 -19 36 -30z"/>
<path d="M580 4041 c0 -20 25 -51 41 -51 13 0 11 44 -3 58 -18 18 -38 14 -38
-7z"/>
<path d="M4894 4098 c-4 -7 -3 -8 4 -4 8 5 12 -6 12 -35 0 -45 -14 -44 -23 1
-3 17 -5 13 -4 -10 2 -24 7 -36 19 -38 22 -4 42 42 33 75 -6 24 -29 31 -41 11z"/>
<path d="M211 3942 c-5 -9 -6 -52 -3 -95 5 -78 5 -78 41 -96 49 -25 81 -34 81
-24 0 5 -20 19 -45 31 l-45 22 0 81 0 80 55 -31 c67 -39 73 -33 8 7 -68 42
-81 45 -92 25z"/>
<path d="M260 3863 c1 -43 4 -50 33 -68 l32 -21 0 50 c0 46 -3 51 -32 69 l-33
19 0 -49z"/>
<path d="M4428 3846 c-13 -9 -18 -26 -17 -57 1 -39 2 -40 8 -14 7 34 24 37 31
4 5 -19 7 -20 18 -6 18 21 12 81 -8 84 -8 2 -23 -3 -32 -11z"/>
<path d="M4825 3729 c-154 -71 -286 -137 -292 -146 -18 -24 -19 -583 -1 -601
7 -7 8 -12 4 -12 -4 0 -64 -9 -132 -21 -153 -26 -154 -25 -154 76 0 39 -3 113
-6 162 l-7 91 -59 -20 c-33 -11 -57 -22 -54 -25 3 -3 26 2 52 11 26 9 49 16
51 16 2 0 3 -12 3 -26 0 -14 -3 -23 -8 -20 -11 6 -72 -21 -72 -33 0 -6 16 -4
36 5 20 8 38 13 41 10 3 -2 5 -69 6 -149 2 -159 8 -177 59 -177 26 0 29 -2 18
-15 -19 -23 -14 -519 6 -550 12 -19 30 -24 108 -35 52 -7 99 -9 105 -6 12 8
15 311 5 439 -5 60 -10 74 -21 70 -12 -5 -12 -7 -2 -14 15 -9 27 -465 13 -478
-5 -4 -49 -3 -98 3 -67 9 -91 16 -102 31 -11 15 -14 71 -14 272 l0 253 23 5
c87 20 752 96 771 89 11 -4 14 9 15 61 l0 67 -42 -6 c-23 -3 -146 -23 -274
-43 -193 -31 -234 -34 -247 -24 -14 12 -16 51 -16 291 0 250 2 280 18 298 9
12 109 62 222 113 113 50 235 105 273 122 37 16 67 34 67 38 0 5 -3 9 -7 8 -5
0 -134 -59 -288 -130z m258 -756 c-7 -2 -21 -2 -30 0 -10 3 -4 5 12 5 17 0 24
-2 18 -5z m-70 -10 c-7 -2 -21 -2 -30 0 -10 3 -4 5 12 5 17 0 24 -2 18 -5z
m-80 -10 c-7 -2 -19 -2 -25 0 -7 3 -2 5 12 5 14 0 19 -2 13 -5z m-70 -10 c-7
-2 -21 -2 -30 0 -10 3 -4 5 12 5 17 0 24 -2 18 -5z m-80 -10 c-7 -2 -21 -2
-30 0 -10 3 -4 5 12 5 17 0 24 -2 18 -5z m-80 -10 c-7 -2 -21 -2 -30 0 -10 3
-4 5 12 5 17 0 24 -2 18 -5z m-70 -10 c-7 -2 -21 -2 -30 0 -10 3 -4 5 12 5 17
0 24 -2 18 -5z m-80 -10 c-7 -2 -19 -2 -25 0 -7 3 -2 5 12 5 14 0 19 -2 13 -5z
m-66 -9 c-3 -3 -12 -4 -19 -1 -8 3 -5 6 6 6 11 1 17 -2 13 -5z m-60 -10 c-3
-3 -12 -4 -19 -1 -8 3 -5 6 6 6 11 1 17 -2 13 -5z"/>
<path d="M1160 3742 c0 -14 5 -20 14 -16 11 4 16 -4 19 -33 l4 -38 1 36 c1 25
-4 42 -18 54 -19 18 -20 17 -20 -3z"/>
<path d="M5037 3742 c-21 -23 -22 -75 -3 -91 18 -15 25 -4 24 38 -1 18 5 36
12 41 12 8 6 30 -9 30 -4 0 -15 -8 -24 -18z"/>
<path d="M697 3693 c-10 -9 3 -85 19 -110 27 -44 74 -23 74 32 0 34 -26 65
-53 65 -9 0 -17 5 -17 10 0 11 -13 13 -23 3z m76 -105 l-10 -23 -12 23 c-9 17
-9 27 0 44 l12 23 10 -23 c7 -14 7 -30 0 -44z"/>
<path d="M5112 3675 c0 -16 2 -22 5 -12 2 9 2 23 0 30 -3 6 -5 -1 -5 -18z"/>
<path d="M1162 3574 c-2 -71 -2 -72 32 -98 48 -36 59 -33 14 4 -35 29 -37 34
-41 98 l-3 67 -2 -71z"/>
<path d="M5110 3631 c0 -4 -42 -23 -92 -41 -185 -65 -293 -111 -310 -132 -14
-16 -18 -39 -18 -108 0 -108 10 -140 44 -140 21 0 254 49 360 76 21 5 26 12
26 35 0 16 -3 29 -6 29 -4 0 -89 -21 -190 -47 -215 -55 -214 -55 -214 42 0 35
3 70 6 79 3 9 83 41 205 81 l199 67 0 34 c0 19 -2 34 -5 34 -3 0 -5 -4 -5 -9z"/>
<path d="M4990 3420 c0 -33 3 -60 8 -60 19 1 30 18 32 50 4 61 1 70 -20 70
-18 0 -20 -7 -20 -60z"/>
<path d="M5090 3460 c-8 -5 -10 -10 -5 -10 6 0 17 5 25 10 8 5 11 10 5 10 -5
0 -17 -5 -25 -10z"/>
<path d="M4850 3417 c-32 -11 -35 -16 -38 -56 -3 -42 -2 -43 22 -37 69 17 76
24 76 66 0 44 -4 46 -60 27z m48 -29 c-4 -41 -28 -50 -28 -10 0 16 3 32 7 35
15 16 24 5 21 -25z m-38 -12 c0 -25 -5 -35 -20 -39 -17 -4 -20 0 -20 28 0 24
5 35 18 38 9 3 18 5 20 6 1 0 2 -14 2 -33z"/>
<path d="M0 3313 c0 -18 1 -33 3 -33 2 0 107 -27 233 -60 202 -52 300 -79 449
-123 66 -20 65 -16 63 -444 -3 -329 -5 -384 -18 -398 -23 -22 -274 -53 -294
-36 -11 9 -16 38 -19 94 -3 80 -3 79 -3 -12 1 -76 4 -96 18 -104 12 -8 55 -6
152 7 107 15 139 23 153 38 17 19 18 52 21 432 2 307 0 417 -9 434 -9 16 -33
28 -83 43 -39 12 -205 61 -368 109 l-298 87 0 -34z"/>
<path d="M4842 3203 c17 -3 25 -9 22 -18 -4 -10 -13 -11 -35 -5 l-29 9 1 -63
c1 -79 7 -88 47 -80 l32 7 0 78 0 79 -32 -1 c-30 -2 -30 -2 -6 -6z m14 -119
c-3 -8 -12 -14 -21 -14 -21 0 -19 40 3 56 15 11 17 10 20 -7 2 -11 1 -27 -2
-35z"/>
<path d="M921 3053 c-1 -76 3 -123 9 -123 12 0 12 196 0 225 -5 13 -9 -25 -9
-102z"/>
<path d="M40 3151 c8 -5 85 -23 170 -41 85 -18 163 -37 173 -42 15 -8 17 -25
17 -140 l0 -131 -137 7 c-76 3 -166 9 -200 12 -40 4 -63 3 -63 -4 0 -9 161
-21 350 -26 l55 -1 3 141 c2 105 -1 144 -10 152 -12 9 -332 82 -360 82 -9 -1
-8 -3 2 -9z"/>
<path d="M4142 2975 c-2 -137 1 -186 9 -178 8 8 8 62 1 189 l-9 179 -1 -190z"/>
<path d="M440 3131 c-6 -13 -10 -152 -10 -383 0 -446 -11 -414 133 -404 131 9
156 15 168 38 10 18 7 19 -48 14 -32 -3 -90 -8 -130 -11 l-72 -6 -5 363 c-2
200 -6 373 -8 386 -4 27 -14 28 -28 3z"/>
<path d="M1172 2978 l3 -93 36 -5 c28 -5 35 -3 36 11 1 12 -8 19 -30 23 -26 5
-32 11 -32 31 0 15 6 25 15 25 13 0 13 2 1 9 -13 9 -27 51 -17 51 3 0 16 -4
30 -10 14 -5 26 -7 26 -4 0 3 -13 10 -30 15 -16 6 -30 15 -30 20 0 5 16 2 37
-6 20 -8 38 -14 40 -11 4 3 -71 36 -83 36 -2 0 -3 -42 -2 -92z"/>
<path d="M80 2968 l0 -55 61 -7 c103 -10 99 -12 99 43 l0 48 -51 7 c-29 4 -65
10 -80 13 l-29 6 0 -55z"/>
<path d="M310 2980 c0 -5 10 -10 21 -10 18 0 19 -3 9 -15 -14 -17 -4 -78 13
-72 17 5 21 88 5 98 -18 12 -48 11 -48 -1z"/>
<path d="M4895 2870 c-3 -11 -3 -29 0 -40 6 -18 15 -20 83 -20 42 0 84 5 92
10 10 6 -13 7 -67 3 -73 -5 -83 -4 -89 12 -4 10 -2 26 5 36 9 15 8 19 -3 19
-8 0 -18 -9 -21 -20z"/>
<path d="M4692 2643 c-1 -133 1 -244 6 -246 4 -3 6 68 4 156 -4 302 -8 333
-10 90z"/>
<path d="M4824 2866 c-8 -21 -1 -69 11 -73 23 -7 34 13 28 50 -6 37 -28 51
-39 23z"/>
<path d="M4180 2746 l0 -86 30 0 31 0 -3 83 c-3 81 -3 82 -30 85 l-28 3 0 -85z
m50 -1 c0 -58 -2 -65 -20 -65 -18 0 -20 7 -20 65 0 58 2 65 20 65 18 0 20 -7
20 -65z"/>
<path d="M4557 2774 c-4 -4 -7 -83 -7 -174 l0 -167 42 -7 c23 -4 45 -3 50 2 5
5 7 85 6 178 l-3 169 -40 3 c-23 2 -44 0 -48 -4z m61 -66 c-3 -60 -4 -63 -30
-66 -28 -3 -28 -3 -28 57 0 60 5 69 43 70 16 1 18 -7 15 -61z m-10 -212 c3
-51 1 -58 -13 -52 -9 3 -21 6 -26 6 -5 0 -9 25 -9 56 0 52 1 55 23 52 20 -3
22 -10 25 -62z"/>
<path d="M4404 2744 c-10 -8 -13 -13 -7 -9 7 3 32 10 55 14 l43 9 -36 1 c-19
1 -44 -6 -55 -15z"/>
<path d="M4818 2731 c-43 -3 -83 -12 -90 -19 -11 -11 -8 -11 15 -3 16 6 70 11
120 12 51 0 112 4 137 8 41 8 38 8 -30 8 -41 0 -110 -3 -152 -6z"/>
<path d="M57 2703 c-4 -3 -7 -53 -7 -110 l0 -103 33 0 c60 1 273 19 290 25 12
5 18 -2 25 -27 6 -22 7 3 4 77 -3 80 -9 115 -20 128 -13 15 -35 17 -167 17
-83 0 -155 -3 -158 -7z m323 -20 c3 -3 5 -37 5 -76 l0 -72 -65 -7 c-36 -3
-104 -8 -153 -10 l-87 -3 0 77 c0 42 -3 83 -6 92 -5 14 12 15 148 9 84 -3 155
-8 158 -10z"/>
<path d="M4417 2693 c-4 -3 -7 -57 -7 -120 0 -120 0 -120 50 -125 l25 -3 3
103 c3 97 2 102 -18 102 -17 0 -20 -6 -20 -40 0 -29 4 -40 15 -40 12 0 15 -13
15 -55 0 -56 -6 -63 -44 -49 -13 5 -16 25 -16 110 l0 104 30 0 c17 0 30 5 30
10 0 11 -53 14 -63 3z"/>
<path d="M4340 2570 c0 -44 4 -80 8 -80 4 0 6 16 4 36 -4 33 -3 36 17 29 19
-6 21 -3 21 30 0 30 -3 36 -16 31 -12 -4 -14 -1 -9 14 5 14 2 20 -9 20 -13 0
-16 -14 -16 -80z"/>
<path d="M4161 2594 c-20 -25 -21 -38 -21 -209 l0 -183 31 -26 c17 -14 43 -26
57 -26 15 0 52 -7 82 -15 30 -8 62 -14 70 -14 8 0 -15 9 -53 19 -122 32 -127
44 -127 285 0 158 2 185 15 185 13 0 15 -22 15 -141 0 -126 2 -145 21 -175 11
-19 30 -36 42 -39 12 -3 144 -25 292 -50 149 -24 329 -55 400 -69 124 -23 147
-24 132 -9 -11 11 -500 102 -716 133 -81 12 -129 23 -140 34 -13 14 -17 46
-21 169 l-5 152 -26 3 c-19 2 -33 -4 -48 -24z m27 -186 c-3 -174 -5 -193 -20
-196 -17 -3 -18 10 -18 173 0 168 7 215 31 215 7 0 9 -66 7 -192z"/>
<path d="M1038 2585 c-14 -30 3 -75 27 -75 15 0 15 1 1 16 -19 18 -21 55 -4
72 9 9 9 12 0 12 -7 0 -18 -11 -24 -25z"/>
<path d="M1062 2564 c2 -15 9 -29 16 -32 10 -3 13 4 10 24 -2 15 -9 29 -16 32
-10 3 -13 -4 -10 -24z"/>
<path d="M4730 2460 c0 -26 54 -42 197 -55 199 -20 193 -20 193 10 0 14 -3 25
-7 25 -5 0 -87 7 -183 15 -211 18 -200 17 -200 5z"/>
<path d="M5052 2253 c-9 -15 -19 -15 -98 -6 -87 10 -103 9 -91 -3 11 -11 221
-34 230 -25 10 10 -8 51 -23 51 -5 0 -13 -8 -18 -17z"/>
<path d="M4288 2103 c6 -2 18 -2 25 0 6 3 1 5 -13 5 -14 0 -19 -2 -12 -5z"/>
<path d="M4132 2063 c2 -31 7 -39 26 -41 21 -3 23 0 20 35 -2 31 -7 39 -26 41
-21 3 -23 0 -20 -35z m30 -17 c-3 -5 -9 -1 -12 10 -4 10 -5 23 -2 28 3 5 9 1
12 -10 4 -10 5 -23 2 -28z"/>
<path d="M4338 2093 c7 -3 16 -2 19 1 4 3 -2 6 -13 5 -11 0 -14 -3 -6 -6z"/>
<path d="M4740 1994 c206 -51 377 -94 380 -94 37 2 -242 77 -583 156 -271 62
-177 34 203 -62z"/>
<path d="M4442 1978 c2 -35 7 -44 25 -46 14 -2 23 3 27 16 9 28 -13 72 -36 72
-16 0 -19 -6 -16 -42z m19 -15 c-9 -15 -10 -12 -10 17 0 29 1 32 10 18 7 -12
7 -24 0 -35z"/>
<path d="M4126 1962 c-3 -4 68 -37 157 -71 89 -35 268 -104 397 -154 129 -50
238 -97 243 -103 4 -7 35 -32 68 -56 34 -23 56 -44 51 -46 -8 -2 -8 -12 -1
-28 5 -14 9 -110 9 -214 0 -158 -3 -191 -16 -204 -8 -9 -21 -16 -27 -16 -19 0
-105 43 -192 95 -44 26 -159 93 -255 148 -96 55 -231 136 -299 179 -126 78
-145 86 -156 68 -3 -5 0 -7 9 -4 8 3 64 -28 134 -75 108 -72 624 -386 697
-424 17 -8 55 -17 85 -18 45 -3 54 0 61 16 12 31 11 410 -2 441 -10 28 -10 28
10 9 17 -15 21 -15 21 -3 0 23 -100 112 -156 141 -27 13 -220 89 -429 167
-209 78 -385 146 -392 152 -6 5 -14 5 -17 0z m844 -350 c-7 -3 -19 3 -28 13
-16 15 -15 16 12 4 15 -7 23 -15 16 -17z"/>
<path d="M32 1557 c-40 -42 -21 -117 28 -117 24 0 57 34 63 66 11 61 -49 96
-91 51z m71 -8 c7 -26 -12 -81 -26 -76 -15 5 -31 62 -24 81 9 23 44 20 50 -5z"/>
<path d="M1244 873 c-63 -76 -409 -529 -642 -840 -19 -26 -21 -33 -9 -33 8 0
32 24 53 53 133 183 605 811 642 854 l45 53 211 3 211 2 -215 3 -216 2 -80
-97z"/>
<path d="M2148 863 l452 -3 1 -158 c1 -86 5 -278 8 -427 l7 -270 2 433 2 432
-462 -2 -463 -3 453 -2z"/>
<path d="M3575 764 c50 -75 69 -97 37 -41 -52 89 -64 107 -72 107 -4 0 11 -30
35 -66z"/>
<path d="M0 580 c0 -5 6 -10 14 -10 8 0 18 -6 22 -12 4 -7 4 -10 -1 -6 -18 17
-35 -16 -35 -68 0 -42 3 -52 14 -48 35 14 46 125 14 145 -18 12 -28 11 -28 -1z"/>
</g>
</svg>