<?xml version="1.0" standalone="no"?>
<!DOCTYPE svg PUBLIC "-//W3C//DTD SVG 20010904//EN"
 "http://www.w3.org/TR/2001/REC-SVG-20010904/DTD/svg10.dtd">
<svg version="1.0" xmlns="http://www.w3.org/2000/svg"
 width="512.000000pt" height="512.000000pt" viewBox="0 0 512.000000 512.000000"
 preserveAspectRatio="xMidYMid meet">
<metadata>
Created by potrace 1.16, written by Peter Selinger 2001-2019
</metadata>
<g transform="translate(0.000000,512.000000) scale(0.100000,-0.100000)"
fill="#000000" stroke="none">
<path d="M2275 4780 c-343 -12 -676 -57 -821 -112 -82 -31 -148 -98 -169 -171
-9 -31 -13 -67 -9 -81 3 -15 31 -51 60 -82 41 -42 54 -62 54 -85 0 -78 -47
-104 -200 -113 -346 -19 -476 -32 -600 -63 -182 -44 -337 -185 -400 -365 -44
-127 -49 -239 -20 -463 28 -216 55 -340 110 -506 130 -395 309 -655 675 -977
66 -58 185 -171 265 -251 l145 -146 5 -180 c5 -166 8 -184 31 -235 53 -112
161 -231 292 -319 129 -88 336 -162 558 -201 156 -28 493 -38 661 -21 303 32
594 128 773 256 115 82 223 214 267 324 27 67 25 -14 37 1896 5 721 12 1321
16 1334 6 18 5 23 -5 19 -21 -7 -50 -70 -60 -134 -6 -35 -13 -665 -18 -1545
l-7 -1486 -43 -87 c-54 -109 -171 -232 -279 -295 -349 -202 -923 -274 -1400
-175 -176 36 -373 114 -479 189 -71 51 -170 151 -215 218 -64 97 -69 127 -78
484 -8 298 -10 324 -35 417 l-27 99 29 31 c35 37 46 58 79 145 l24 66 -4 -195
c-5 -185 -4 -192 9 -130 22 104 34 542 37 1330 l2 735 -24 52 c-37 83 -54 86
-29 6 20 -64 21 -88 20 -398 -2 -345 -17 -919 -32 -1185 -6 -116 -14 -171 -30
-218 -12 -35 -25 -60 -29 -57 -3 4 -8 329 -11 723 l-5 717 -28 57 c-17 34 -48
75 -78 101 l-49 43 15 69 c12 60 12 78 -1 144 -19 102 -19 101 19 101 41 1
102 23 129 47 31 27 58 92 58 141 0 37 3 43 18 38 62 -18 150 -37 232 -50 147
-24 514 -46 498 -31 -2 3 -108 23 -234 45 -446 79 -624 137 -624 205 0 40 18
45 76 19 69 -30 182 -59 314 -78 282 -42 875 -64 1277 -47 469 19 697 50 864
117 48 19 91 34 98 34 6 0 13 -11 17 -25 22 -88 -174 -148 -811 -248 l-90 -14
150 -2 c83 -1 156 -5 164 -10 12 -7 16 -52 23 -203 12 -300 50 -753 64 -767
12 -12 -8 872 -22 924 -7 27 -11 52 -8 54 7 7 208 21 223 16 11 -4 9 -11 -10
-31 l-24 -26 3 -446 c3 -452 18 -880 31 -895 5 -4 11 68 14 160 10 270 27 544
38 599 7 38 20 62 53 98 50 54 49 49 75 286 27 234 33 250 132 356 62 66 74
94 66 153 -22 166 -173 231 -647 275 -321 31 -720 39 -1145 26z m1080 -84
c306 -30 515 -72 567 -116 28 -23 22 -29 -62 -61 -90 -34 -157 -48 -317 -69
-271 -35 -470 -43 -963 -37 -464 6 -627 14 -836 42 -174 24 -334 72 -334 100
0 8 24 25 53 39 92 45 306 85 562 106 72 5 150 12 175 14 25 2 257 2 515 1
346 -2 515 -7 640 -19z m-2188 -668 c13 -24 18 -56 18 -121 0 -81 -2 -90 -24
-108 -30 -24 -101 -25 -289 -3 -240 28 -340 10 -414 -75 -62 -70 -73 -111 -72
-261 0 -147 16 -252 69 -475 77 -323 191 -555 385 -788 116 -139 211 -209 387
-282 32 -14 47 -28 62 -59 43 -90 68 -310 37 -322 -9 -3 -60 40 -138 118 -67
69 -180 172 -249 230 -281 237 -480 531 -593 878 -103 315 -153 711 -111 873
30 117 109 227 212 299 107 73 343 120 640 127 61 1 63 0 80 -31z m-180 -332
c260 -38 276 -44 313 -121 12 -25 26 -76 31 -113 4 -37 9 -366 9 -732 1 -660
1 -665 -19 -682 -29 -23 -91 -31 -139 -19 -149 41 -390 315 -521 591 -93 199
-160 453 -197 749 -13 103 -14 137 -5 183 15 71 56 129 112 156 62 31 139 29
416 -12z"/>
<path d="M2305 4563 c-186 -12 -650 -62 -642 -69 7 -8 372 -35 582 -44 305
-13 538 -13 818 0 231 11 599 38 606 46 2 2 -1 4 -7 4 -7 0 -103 11 -215 25
-111 13 -274 29 -362 35 -144 9 -654 11 -780 3z"/>
<path d="M2428 3125 c-100 -16 -242 -67 -323 -116 -94 -56 -215 -177 -287
-286 -61 -93 -99 -157 -61 -103 40 58 182 193 250 241 150 103 301 157 503
179 234 26 463 -26 679 -153 99 -57 245 -197 282 -268 12 -24 24 -39 26 -33 8
25 -94 179 -180 270 -211 226 -535 324 -889 269z"/>
<path d="M2420 2944 c-198 -42 -311 -103 -523 -282 -75 -64 -86 -77 -82 -100
2 -15 7 -57 10 -93 11 -130 84 -296 187 -426 140 -176 325 -266 573 -280 233
-12 442 55 592 191 140 126 262 380 263 542 0 34 5 56 15 64 23 19 19 26 -27
53 -24 14 -95 64 -158 111 -162 121 -299 185 -472 220 -95 20 -288 20 -378 0z
m538 -125 c132 -53 251 -124 360 -216 72 -61 74 -67 56 -154 -49 -236 -271
-431 -566 -495 -98 -21 -292 -22 -381 0 -135 32 -263 103 -376 210 -68 64 -71
60 -13 -13 74 -91 240 -189 387 -227 94 -24 302 -25 399 -1 147 37 292 111
389 200 45 42 46 39 8 -17 -50 -72 -155 -162 -233 -200 -133 -63 -174 -71
-363 -71 -158 1 -176 2 -250 28 -111 37 -197 90 -279 172 -124 123 -208 259
-239 385 -33 134 -36 122 51 189 148 112 288 193 401 232 30 11 58 19 62 19 5
0 -9 -27 -31 -61 -99 -154 -49 -356 111 -444 49 -27 63 -30 144 -30 74 0 97 4
132 23 104 55 163 145 170 262 5 74 -20 160 -62 216 -14 18 -25 35 -25 38 0 7
68 -13 148 -45z m-254 7 c48 -28 81 -70 102 -128 50 -143 -51 -288 -204 -290
-176 -2 -284 165 -206 320 58 117 200 162 308 98z"/>
<path d="M2519 2737 c-41 -27 -59 -60 -59 -107 0 -95 106 -158 191 -115 62 33
91 139 53 194 -37 52 -129 66 -185 28z"/>
<path d="M3527 2377 c-125 -458 -433 -696 -898 -697 -142 0 -209 10 -324 47
-108 35 -202 83 -272 139 -32 26 -67 54 -78 63 -11 8 3 -9 30 -38 93 -98 234
-178 390 -221 119 -33 356 -39 485 -12 369 76 621 339 685 716 9 54 15 99 13
101 -2 2 -16 -42 -31 -98z"/>
<path d="M3681 1249 c-13 -46 -32 -106 -42 -135 -57 -151 -206 -270 -444 -356
l-80 -28 55 5 c131 11 331 106 427 200 48 48 65 73 77 116 17 54 41 250 34
271 -2 6 -14 -27 -27 -73z"/>
<path d="M2392 1028 c-65 -81 -122 -136 -196 -187 -136 -94 -281 -95 -471 -2
l-80 39 41 -37 c113 -101 309 -149 435 -106 86 29 218 163 296 299 18 31 30
56 28 56 -2 0 -26 -28 -53 -62z"/>
</g>
</svg>