<?xml version="1.0" standalone="no"?>
<!DOCTYPE svg PUBLIC "-//W3C//DTD SVG 20010904//EN"
 "http://www.w3.org/TR/2001/REC-SVG-20010904/DTD/svg10.dtd">
<svg version="1.0" xmlns="http://www.w3.org/2000/svg"
 width="512.000000pt" height="512.000000pt" viewBox="0 0 512.000000 512.000000"
 preserveAspectRatio="xMidYMid meet">
<metadata>
Created by potrace 1.16, written by Peter Selinger 2001-2019
</metadata>
<g transform="translate(0.000000,512.000000) scale(0.100000,-0.100000)"
fill="#000000" stroke="none">
<path d="M1396 4818 c22 -43 30 -80 41 -188 18 -178 72 -426 117 -538 31 -76
36 -101 36 -168 0 -71 5 -90 45 -182 35 -84 42 -109 34 -129 -5 -13 -9 -42 -9
-64 0 -24 -12 -62 -29 -97 -16 -32 -33 -75 -36 -95 -4 -21 -16 -49 -27 -63
l-20 -25 28 7 29 7 -39 -41 c-31 -33 -35 -40 -17 -35 27 7 27 -1 -1 -27 -24
-22 -18 -26 13 -9 18 9 19 8 11 -8 -6 -10 -8 -29 -5 -43 3 -16 -4 -38 -21 -62
l-25 -37 25 9 c14 6 28 10 31 10 8 0 -7 -129 -18 -158 -8 -20 -7 -23 6 -18 20
7 19 -2 -6 -44 -16 -25 -17 -31 -5 -21 24 20 31 6 12 -23 -21 -33 -20 -39 5
-25 21 11 21 9 15 -25 -4 -23 -3 -36 4 -36 15 0 12 -26 -5 -40 -25 -21 -9 -23
21 -3 31 20 28 8 -10 -36 l-21 -25 27 17 c25 16 28 16 36 1 9 -15 16 -15 98 1
105 20 499 33 554 18 25 -7 -30 -10 -190 -10 -159 0 -253 -5 -321 -17 -111
-18 -162 -35 -139 -45 28 -12 71 -55 66 -67 -4 -9 12 -12 60 -11 35 1 64 5 64
8 0 21 229 80 298 78 25 -1 29 -3 12 -5 -118 -18 -265 -53 -257 -61 2 -2 34 4
71 12 77 18 257 45 301 45 23 0 27 -3 15 -10 -8 -5 -37 -10 -63 -10 -92 0
-356 -53 -410 -81 -12 -7 -22 -7 -31 0 -13 11 -15 8 -19 -44 -1 -13 -9 -29
-17 -35 -8 -5 -51 -33 -94 -62 -44 -28 -109 -80 -145 -116 l-66 -64 63 56 c52
46 159 124 219 160 12 7 -14 -66 -39 -109 -9 -17 -9 -18 3 -9 83 66 187 135
257 171 99 52 232 107 239 99 3 -3 -3 -9 -13 -12 -49 -17 -164 -69 -203 -92
l-45 -26 40 -18 c36 -16 41 -16 64 0 41 27 110 64 110 59 0 -2 -27 -21 -60
-41 -35 -22 -58 -42 -54 -48 4 -6 2 -8 -3 -5 -16 10 -122 -73 -210 -166 -43
-45 -71 -73 -63 -62 52 71 103 125 170 179 l77 62 -41 17 c-23 9 -46 17 -53
17 -16 0 -203 -139 -203 -151 0 -6 -4 -8 -9 -4 -5 3 -13 0 -17 -6 -4 -8 -3 -9
4 -5 16 10 15 0 -3 -37 -23 -50 -65 -237 -65 -292 -1 -68 -18 -112 -76 -190
-161 -218 -201 -298 -259 -522 -32 -126 -40 -144 -104 -242 -121 -188 -162
-267 -236 -461 -66 -171 -103 -284 -123 -367 l-19 -83 958 0 c702 0 959 3 959
11 0 6 -23 51 -51 100 -58 100 -75 144 -85 217 -10 76 3 133 43 198 20 33 56
95 79 139 24 44 44 78 44 75 0 -13 -45 -120 -86 -202 -87 -174 -83 -261 23
-415 35 -52 62 -101 59 -108 -4 -12 51 -14 318 -15 l323 0 7 42 c19 116 90
385 108 404 12 13 15 23 9 25 -7 3 -1 20 14 42 25 36 23 49 -5 24 -8 -6 -3 4
11 23 39 54 42 61 25 54 -25 -9 -19 21 7 40 l22 17 -22 -11 c-13 -6 -23 -9
-23 -7 0 2 -18 -12 -39 -32 -22 -20 -61 -51 -88 -69 l-48 -33 45 37 c142 119
216 232 245 372 22 106 18 128 -9 47 -36 -107 -53 -143 -112 -231 -58 -88
-102 -133 -164 -164 -53 -27 -59 -25 -28 8 39 41 68 94 68 125 0 20 5 27 19
27 27 0 51 37 51 77 0 28 -5 35 -32 47 -33 14 -33 14 20 9 44 -5 52 -3 52 11
0 9 8 16 19 16 11 0 23 5 26 10 3 6 -1 10 -11 10 -13 0 -14 3 -4 15 7 8 10 22
6 30 -3 9 -2 14 2 11 4 -2 19 4 32 15 23 17 23 19 5 19 -17 0 -15 4 11 25 38
30 107 134 130 195 9 25 20 72 24 105 5 33 14 87 20 120 20 102 8 216 -34 327
-20 53 -36 100 -35 105 1 4 -1 20 -4 36 -4 15 -9 39 -12 55 l-5 27 25 -30 26
-30 -24 55 c-14 30 -28 66 -32 80 -7 23 -7 24 11 10 18 -14 -1 11 -76 103 -32
39 -32 40 -4 15 l30 -28 -4 35 c-6 51 10 43 98 -45 41 -41 64 -60 51 -42 -34
49 -132 142 -142 136 -5 -3 -9 -1 -9 4 0 12 -127 100 -205 142 l-60 32 40 -33
c22 -19 69 -62 105 -98 l65 -64 -60 54 c-166 151 -242 192 -356 190 -42 -1
-85 2 -97 6 -12 5 22 7 78 7 78 -1 111 -6 155 -24 30 -12 55 -26 55 -30 0 -5
8 -6 18 -3 11 2 64 -26 137 -75 114 -76 120 -78 123 -56 2 13 10 24 18 24 32
0 -15 31 -132 87 -93 45 -118 53 -125 42 -7 -11 -9 -10 -9 4 0 9 5 17 10 17 6
0 61 -23 123 -51 106 -48 163 -67 153 -50 -7 11 88 81 110 81 13 0 15 3 7 11
-16 16 -143 47 -215 53 -55 5 -58 4 -23 -4 98 -23 166 -43 162 -46 -2 -2 -38
5 -81 16 -42 10 -122 26 -179 34 -153 22 -231 37 -237 43 -3 3 16 2 42 -1 26
-4 80 -12 120 -18 40 -6 100 -10 133 -9 67 1 212 -23 262 -44 32 -13 33 -13
50 16 20 33 24 34 63 14 17 -9 30 -13 30 -11 0 3 -14 12 -30 21 -29 15 -29 17
-15 39 15 22 14 24 -7 31 -13 4 -140 9 -282 11 -143 3 -261 6 -263 8 -2 2 65
6 149 10 134 6 370 -5 418 -19 11 -4 16 3 18 19 1 13 6 36 12 51 10 27 11 27
26 9 14 -18 15 -18 10 4 -4 12 -9 32 -12 44 -6 21 -5 22 11 8 20 -16 20 -18
-1 34 -6 15 -4 17 6 11 10 -6 12 -4 7 9 -4 10 -10 30 -14 44 -5 23 -4 25 8 15
13 -11 15 -4 11 50 -2 34 -9 71 -15 82 -7 14 -2 12 18 -8 28 -28 48 -30 26 -3
-18 22 -26 157 -10 167 10 6 10 11 -1 24 -11 13 -11 18 -2 24 9 5 7 13 -9 27
-11 10 -25 27 -31 38 -9 16 -7 18 6 13 53 -22 52 -22 33 0 -10 12 -21 36 -23
55 -3 18 -16 57 -29 86 -13 29 -20 50 -14 46 6 -3 4 7 -5 24 -8 16 -20 50 -26
75 -9 42 -7 51 25 114 44 87 69 184 61 239 -4 32 3 63 30 139 47 132 91 358
105 540 10 132 15 156 39 202 21 39 24 50 11 44 -9 -5 -48 -11 -87 -13 -123
-9 -160 -36 -524 -385 -110 -106 -214 -200 -231 -209 -31 -15 -31 -15 -24 8
16 50 15 52 -5 15 -21 -38 -46 -45 -44 -13 2 16 1 16 -17 0 -24 -22 -25 -41
-1 -23 16 12 16 12 0 -6 -9 -10 -27 -20 -40 -22 -101 -14 -132 -14 -216 6
-113 26 -221 27 -343 1 -119 -25 -184 -25 -232 -1 -20 10 -34 14 -30 7 4 -6
-1 -4 -12 4 -10 8 -27 14 -38 12 -10 -2 -30 7 -44 19 -18 18 -22 19 -17 6 3
-9 3 -17 -1 -17 -5 0 -119 109 -254 243 -322 318 -351 340 -480 356 -37 5 -77
14 -89 20 -33 18 -34 14 -6 -41z m385 -265 l34 -37 -37 30 c-20 16 -37 32 -37
37 -2 12 4 8 40 -30z m39 -87 c0 -2 -9 -2 -20 1 -11 3 -20 9 -20 15 0 5 9 4
20 -2 11 -6 20 -12 20 -14z m1925 6 c-14 -12 -65 -32 -65 -26 0 3 15 11 33 19
37 17 45 18 32 7z m-1960 -53 c37 -11 65 -22 63 -24 -4 -5 -137 31 -145 39
-11 11 14 6 82 -15z m1962 -32 c0 -7 -20 -20 -44 -29 -55 -20 -56 -8 0 19 23
12 42 22 43 22 0 1 1 -5 1 -12z m166 -24 c-13 -2 -33 -2 -45 0 -13 2 -3 4 22
4 25 0 35 -2 23 -4z m-2106 -19 c-3 -3 -12 -4 -19 -1 -8 3 -5 6 6 6 11 1 17
-2 13 -5z m23 -15 c-12 -8 -9 -10 12 -6 17 2 25 0 21 -6 -4 -6 0 -8 8 -5 8 3
20 -1 28 -9 12 -13 11 -14 -5 -9 -39 12 -128 26 -178 28 -41 1 -36 3 29 8 44
3 85 7 90 8 6 1 3 -3 -5 -9z m1910 1 c-8 -5 -19 -10 -25 -10 -5 0 -3 5 5 10 8
5 20 10 25 10 6 0 3 -5 -5 -10z m-140 -14 c0 -2 -8 -10 -17 -17 -16 -13 -17
-12 -4 4 13 16 21 21 21 13z m-1660 -26 c0 -5 -5 -10 -11 -10 -5 0 -7 5 -4 10
3 6 8 10 11 10 2 0 4 -4 4 -10z m40 -20 c8 -5 11 -10 5 -10 -5 0 -17 5 -25 10
-8 5 -10 10 -5 10 6 0 17 -5 25 -10z m-123 -6 c-3 -3 -12 -4 -19 -1 -8 3 -5 6
6 6 11 1 17 -2 13 -5z m1832 -22 c-37 -10 -95 -35 -130 -56 -79 -48 -79 -48
-79 -43 0 8 123 85 160 101 19 8 53 15 75 15 37 0 35 -2 -26 -17z m-1778 -42
c21 -9 20 -9 -9 -4 -18 3 -63 10 -100 14 l-67 9 76 -4 c42 -3 87 -9 100 -15z
m104 10 c3 -6 -1 -7 -9 -4 -18 7 -21 14 -7 14 6 0 13 -4 16 -10z m-292 -7 c-7
-2 -21 -2 -30 0 -10 3 -4 5 12 5 17 0 24 -2 18 -5z m635 -28 c-3 -3 -9 2 -12
12 -6 14 -5 15 5 6 7 -7 10 -15 7 -18z m-473 -5 c3 -5 1 -10 -4 -10 -6 0 -11
5 -11 10 0 6 2 10 4 10 3 0 8 -4 11 -10z m1908 3 c-7 -2 -19 -2 -25 0 -7 3 -2
5 12 5 14 0 19 -2 13 -5z m-1773 -13 c8 -5 11 -10 5 -10 -5 0 -17 5 -25 10 -8
5 -10 10 -5 10 6 0 17 -5 25 -10z m1772 -8 c5 -5 -20 -7 -64 -4 -40 2 -91 -1
-112 -6 -22 -6 -35 -7 -30 -2 26 26 182 36 206 12z m-645 -44 c-3 -7 -5 -2 -5
12 0 14 2 19 5 13 2 -7 2 -19 0 -25z m-770 -10 c-3 -7 -5 -2 -5 12 0 14 2 19
5 13 2 -7 2 -19 0 -25z m1487 13 c-2 -3 3 -16 12 -29 16 -24 15 -26 -15 -50
l-32 -24 45 -44 c28 -27 46 -52 46 -66 0 -21 -2 -20 -20 9 -11 19 -41 43 -72
59 -29 14 -55 28 -58 31 -2 2 8 15 22 28 14 13 28 22 31 19 2 -3 7 2 11 11 4
11 -3 19 -22 26 -39 16 -169 13 -224 -4 -27 -8 -48 -13 -48 -11 0 9 78 35 125
43 51 8 206 10 199 2z m-1919 -26 l30 -14 -30 7 c-38 9 -148 9 -200 0 -22 -4
-32 -4 -22 -2 9 3 17 9 17 13 0 15 173 12 205 -4z m1192 -77 c-2 -18 -4 -6 -4
27 0 33 2 48 4 33 2 -15 2 -42 0 -60z m-750 20 c-3 -7 -5 -2 -5 12 0 14 2 19
5 13 2 -7 2 -19 0 -25z m190 -5 c-3 -10 -5 -4 -5 12 0 17 2 24 5 18 2 -7 2
-21 0 -30z m-665 -11 c10 -4 -21 -7 -67 -7 -46 0 -77 3 -67 7 9 4 40 7 67 7
28 0 58 -3 67 -7z m635 -14 c-3 -8 -6 -5 -6 6 -1 11 2 17 5 13 3 -3 4 -12 1
-19z m1080 -24 c-3 -3 -12 -4 -19 -1 -8 3 -5 6 6 6 11 1 17 -2 13 -5z m-122
-20 c-108 -21 -208 -76 -291 -158 -39 -39 -78 -82 -88 -96 -14 -21 -14 -19 1
6 28 47 44 65 107 122 87 79 224 141 306 141 24 -1 13 -5 -35 -15z m-1188 -26
c-3 -7 -5 -2 -5 12 0 14 2 19 5 13 2 -7 2 -19 0 -25z m830 0 c-3 -7 -5 -2 -5
12 0 14 2 19 5 13 2 -7 2 -19 0 -25z m-438 -50 c1 -5 -3 -8 -9 -8 -5 0 -10 12
-9 28 0 24 1 25 9 7 5 -11 9 -23 9 -27z m-382 10 c-3 -8 -6 -5 -6 6 -1 11 2
17 5 13 3 -3 4 -12 1 -19z m846 -2 c7 4 9 4 5 0 -3 -4 -9 -6 -13 -4 -4 2 -18
-17 -31 -42 -28 -51 -28 -45 1 23 11 26 21 40 23 32 2 -8 9 -12 15 -9z m-593
-5 c0 -5 -7 -11 -14 -14 -10 -4 -13 -1 -9 9 6 15 23 19 23 5z m147 -28 c-3
-10 -5 -4 -5 12 0 17 2 24 5 18 2 -7 2 -21 0 -30z m-759 20 c-10 -2 -26 -2
-35 0 -10 3 -2 5 17 5 19 0 27 -2 18 -5z m137 -3 c13 -6 5 -7 -25 -3 -25 3
-47 7 -49 9 -9 8 55 2 74 -6z m-250 -84 c55 -36 37 -33 -24 4 -27 17 -57 43
-66 58 -17 26 -17 26 16 -4 19 -17 52 -43 74 -58z m503 9 c0 -5 -6 4 -13 20
-8 17 -14 37 -14 45 0 8 7 -1 14 -20 7 -19 13 -39 13 -45z m-622 29 c5 -27 4
-28 -9 -9 -8 10 -12 25 -10 33 7 17 13 10 19 -24z m466 10 c46 -24 127 -103
149 -146 27 -52 18 -47 -20 12 -33 51 -92 105 -146 133 -16 9 -26 16 -22 17 4
0 22 -7 39 -16z m765 -6 c-3 -8 -6 -5 -6 6 -1 11 2 17 5 13 3 -3 4 -12 1 -19z
m40 -15 c-3 -10 -5 -4 -5 12 0 17 2 24 5 18 2 -7 2 -21 0 -30z m661 -10 c-21
-20 -40 -35 -42 -32 -8 8 51 69 66 69 7 0 -4 -17 -24 -37z m143 23 c11 6 11 4
0 -10 -14 -17 -74 -46 -95 -46 -6 0 7 16 29 34 24 20 43 30 46 24 4 -6 13 -7
20 -2z m-1318 -97 c-3 -136 -13 -140 -13 -6 0 59 3 107 8 107 4 0 6 -46 5
-101z m79 -23 c-3 -5 -12 8 -19 30 -9 25 -10 40 -3 42 5 2 11 16 11 30 1 15 5
0 9 -33 5 -33 5 -64 2 -69z m125 102 c-3 -8 -6 -5 -6 6 -1 11 2 17 5 13 3 -3
4 -12 1 -19z m-39 -65 l-3 -28 -12 33 c-7 18 -8 30 -3 27 6 -4 11 4 11 17 l2
23 4 -22 c2 -13 3 -35 1 -50z m61 5 c-1 -48 -2 -50 -9 -20 -7 30 -3 72 6 72 2
0 4 -24 3 -52z m68 5 c-3 -10 -5 -2 -5 17 0 19 2 27 5 18 2 -10 2 -26 0 -35z
m296 -31 c-14 -34 -28 -60 -31 -58 -2 3 9 32 24 65 15 34 29 60 30 58 2 -2 -8
-31 -23 -65z m-695 -22 c0 -8 -6 1 -13 20 -7 19 -13 42 -13 50 0 8 6 -1 13
-20 7 -19 13 -42 13 -50z m613 17 c-14 -14 -25 -2 -15 15 5 7 9 16 10 21 4 20
7 20 11 -2 3 -13 0 -28 -6 -34z m387 38 c-76 -21 -140 -56 -188 -105 -45 -45
-39 -31 9 23 39 44 152 96 206 95 11 0 -1 -6 -27 -13z m-1250 -22 c-10 -2 -28
-2 -40 0 -13 2 -5 4 17 4 22 1 32 -1 23 -4z m279 -15 c2 -17 0 -19 -7 -8 -5 8
-6 18 -4 22 8 12 10 10 11 -14z m110 -10 c-3 -7 -5 -2 -5 12 0 14 2 19 5 13 2
-7 2 -19 0 -25z m-281 -8 c33 -16 75 -46 94 -67 35 -37 35 -38 3 -9 -18 17
-33 27 -33 23 0 -3 -12 5 -26 18 -15 14 -49 33 -78 44 -28 11 -44 20 -35 20 9
1 42 -12 75 -29z m531 -32 c-3 -7 -5 -2 -5 12 0 14 2 19 5 13 2 -7 2 -19 0
-25z m221 -2 c2 -15 -1 -33 -7 -40 -8 -10 -7 -17 4 -26 19 -16 19 -30 0 -30
-9 0 -12 6 -9 15 4 8 1 15 -6 15 -8 0 -9 6 -5 18 10 22 10 32 1 61 -6 17 -5
22 5 19 8 -3 15 -17 17 -32z m-408 -3 c0 -22 -2 -25 -10 -13 -13 20 -13 40 0
40 6 0 10 -12 10 -27z m267 -35 c-2 -13 -4 -3 -4 22 0 25 2 35 4 23 2 -13 2
-33 0 -45z m686 35 c-7 -2 -19 -2 -25 0 -7 3 -2 5 12 5 14 0 19 -2 13 -5z
m-496 -45 c-3 -7 -5 -2 -5 12 0 14 2 19 5 13 2 -7 2 -19 0 -25z m208 14 c-6
-4 -28 -21 -50 -37 l-40 -28 25 27 c14 16 34 32 45 36 26 11 31 12 20 2z
m-1052 -19 c-7 -2 -19 -2 -25 0 -7 3 -2 5 12 5 14 0 19 -2 13 -5z m74 -18 c20
-8 34 -18 31 -20 -3 -3 -25 4 -49 15 -51 23 -36 27 18 5z m1013 4 c-14 -6 -47
-29 -75 -52 -27 -22 -41 -30 -30 -18 29 35 95 81 114 80 9 0 6 -4 -9 -10z
m-960 -81 c15 -21 17 -28 6 -19 -16 13 -41 51 -33 51 2 0 14 -15 27 -32z m690
22 c0 -5 -5 -10 -11 -10 -5 0 -7 5 -4 10 3 6 8 10 11 10 2 0 4 -4 4 -10z
m-811 -192 c-5 -82 14 -181 31 -161 14 15 40 106 40 139 0 27 -3 31 -20 27
-17 -5 -20 0 -20 31 0 30 4 36 21 36 11 0 17 -4 14 -10 -3 -5 0 -7 9 -4 21 8
100 -49 125 -90 27 -43 26 -65 -2 -107 -56 -84 -149 -103 -248 -51 -72 37
-113 101 -113 177 -1 29 2 56 6 60 14 14 85 34 123 35 l40 0 -6 -82z m1200 61
c48 -17 62 -65 41 -141 -28 -100 -148 -166 -250 -138 -48 13 -104 65 -115 107
-10 42 31 93 108 134 l39 20 -7 -53 c-5 -41 -2 -64 13 -103 11 -27 24 -51 29
-52 6 -2 18 28 28 66 16 66 14 98 -5 86 -4 -3 -10 5 -14 18 -8 31 -8 34 10 51
18 19 77 21 123 5z m184 -6 c-7 -2 -19 -2 -25 0 -7 3 -2 5 12 5 14 0 19 -2 13
-5z m-1566 -75 c-3 -7 -5 -2 -5 12 0 14 2 19 5 13 2 -7 2 -19 0 -25z m1440
-80 c-37 -88 -113 -139 -217 -144 l-65 -3 66 9 c79 10 112 25 161 77 42 43 57
77 60 131 l1 37 4 -37 c2 -20 -2 -51 -10 -70z m156 75 c-7 -2 -21 -2 -30 0
-10 3 -4 5 12 5 17 0 24 -2 18 -5z m-1586 -45 c-3 -8 -6 -5 -6 6 -1 11 2 17 5
13 3 -3 4 -12 1 -19z m106 -128 c29 -16 47 -30 41 -30 -38 0 -144 100 -144
136 0 5 12 -10 26 -34 16 -27 44 -53 77 -72z m1508 83 c13 -16 12 -17 -3 -4
-17 13 -22 21 -14 21 2 0 10 -8 17 -17z m-666 -12 c3 -5 1 -12 -5 -16 -5 -3
-10 1 -10 9 0 18 6 21 15 7z m-458 -87 c-3 -42 -11 -82 -17 -88 -9 -8 -11 -2
-9 24 2 19 7 40 12 47 4 6 6 30 4 52 -2 23 0 41 6 41 6 0 8 -29 4 -76z m-24
40 c-7 -19 -10 -18 -16 5 -3 13 -1 18 9 14 7 -2 10 -11 7 -19z m-88 -34 c-3
-5 -12 -10 -18 -10 -7 0 -6 4 3 10 19 12 23 12 15 0z m710 -10 c13 -6 15 -9 5
-9 -8 0 -22 4 -30 9 -18 12 -2 12 25 0z m-125 -47 c0 -27 -4 -43 -8 -36 -8 12
-4 83 4 83 2 0 4 -21 4 -47z m-773 31 c-3 -3 -12 -4 -19 -1 -8 3 -5 6 6 6 11
1 17 -2 13 -5z m106 -1 c-7 -2 -19 -2 -25 0 -7 3 -2 5 12 5 14 0 19 -2 13 -5z
m844 1 c-3 -3 -12 -4 -19 -1 -8 3 -5 6 6 6 11 1 17 -2 13 -5z m-894 -11 c-7
-2 -21 -2 -30 0 -10 3 -4 5 12 5 17 0 24 -2 18 -5z m-207 -54 c8 -14 -10 -11
-32 6 -18 13 -18 14 4 8 12 -3 25 -9 28 -14z m1377 -116 c-7 -2 -19 -2 -25 0
-7 3 -2 5 12 5 14 0 19 -2 13 -5z m-1528 -23 c10 -11 16 -20 13 -20 -3 0 -13
9 -23 20 -10 11 -16 20 -13 20 3 0 13 -9 23 -20z m1156 -37 c13 -16 12 -17 -3
-4 -17 13 -22 21 -14 21 2 0 10 -8 17 -17z m215 -11 c-10 -2 -22 0 -28 6 -6 6
0 7 19 4 21 -5 23 -7 9 -10z m-1153 -9 c-13 -2 -35 -2 -50 0 -16 2 -5 4 22 4
28 0 40 -2 28 -4z m1544 -30 c3 -10 18 -31 32 -48 14 -16 19 -24 9 -17 -11 9
-18 10 -23 2 -4 -7 -22 -2 -52 16 -46 27 -94 29 -148 9 -11 -5 -17 -5 -13 -1
12 14 132 55 161 55 18 1 30 -5 34 -16z m-1602 -48 c25 -20 18 -18 -42 11 -40
20 -73 37 -73 39 0 10 89 -29 115 -50z m827 -52 c30 -27 23 -43 -12 -30 -22 8
-38 8 -63 -1 -42 -15 -131 -15 -173 0 -27 9 -37 9 -58 -6 -23 -14 -26 -14 -26
-1 0 8 9 24 20 35 18 18 33 20 157 20 113 0 140 -3 155 -17z m-537 -233 c-27
-3 -74 -18 -103 -33 -29 -14 -61 -23 -70 -20 -13 4 -14 3 -4 -5 10 -7 -6 -23
-67 -62 -44 -30 -78 -57 -75 -62 3 -4 -1 -8 -8 -8 -21 0 -222 -194 -294 -283
-57 -70 -69 -93 -65 -119 0 -5 -4 -8 -10 -8 -7 0 -9 10 -5 28 l7 27 -26 -30
c-18 -21 -14 -11 12 32 21 34 43 60 49 58 7 -2 35 25 63 60 29 35 69 78 89 96
20 17 69 62 107 98 39 36 103 88 143 115 45 31 68 52 60 57 -7 4 5 12 30 18
22 6 60 20 84 31 25 11 62 19 88 18 l45 -1 -50 -7z m-499 -108 c-3 -2 -18 5
-34 17 -16 11 -31 18 -34 16 -3 -3 -5 1 -5 8 0 9 13 6 39 -11 21 -14 36 -27
34 -30z m284 44 c0 -2 -7 -7 -16 -10 -8 -3 -12 -2 -9 4 6 10 25 14 25 6z
m1101 -21 c85 -44 239 -218 264 -300 3 -11 -4 -2 -16 20 -46 83 -142 193 -223
253 -51 39 -48 24 8 -43 53 -62 102 -142 93 -151 -2 -3 -10 9 -17 26 -17 42
-99 146 -112 142 -5 -1 -7 2 -4 7 8 12 -51 61 -72 61 -12 0 -2 -15 29 -44 25
-24 61 -64 80 -87 19 -24 -5 -4 -53 45 -49 48 -88 90 -88 92 0 13 68 0 111
-21z m-1024 -44 c-121 -83 -186 -141 -253 -224 -67 -83 -80 -98 -69 -77 18 32
106 137 157 187 53 51 223 173 242 173 5 0 -29 -27 -77 -59z m182 50 c-31 -3
-64 -12 -73 -20 -22 -18 -140 -196 -183 -276 -18 -33 -33 -56 -33 -52 0 13 29
67 88 160 38 61 51 91 43 96 -8 5 -5 13 11 27 19 16 20 16 9 1 -8 -9 -11 -20
-9 -23 9 -8 48 47 41 59 -3 6 -1 7 5 3 6 -3 16 3 22 14 9 17 20 20 73 19 l62
-2 -56 -6z m604 2 c-7 -2 -21 -2 -30 0 -10 3 -4 5 12 5 17 0 24 -2 18 -5z
m110 0 c-7 -2 -21 -2 -30 0 -10 3 -4 5 12 5 17 0 24 -2 18 -5z m412 -46 c16
-15 -48 20 -70 38 -11 9 -2 7 20 -6 22 -12 45 -26 50 -32z m-1760 33 c-3 -5
-12 -10 -18 -10 -7 0 -6 4 3 10 19 12 23 12 15 0z m1800 -58 c-3 -3 -11 0 -18
7 -9 10 -8 11 6 5 10 -3 15 -9 12 -12z m-1202 -5 c-4 -7 -30 -44 -57 -81 -27
-38 -64 -96 -82 -130 -19 -33 -34 -56 -34 -51 0 24 161 275 177 275 2 0 0 -6
-4 -13z m-83 -65 c-23 -32 -53 -72 -67 -88 -24 -28 24 45 75 114 42 55 35 35
-8 -26z m-160 -58 c-50 -48 -107 -113 -127 -144 -49 -73 -61 -85 -32 -31 13
24 54 81 92 128 39 49 64 89 60 96 -5 9 -3 9 8 0 11 -9 21 -6 49 17 63 52 42
24 -50 -66z m1210 -4 c12 -16 19 -30 16 -30 -2 0 -14 14 -26 30 -12 17 -19 30
-16 30 2 0 14 -13 26 -30z m42 -58 c-3 -9 -1 -13 5 -9 7 4 21 -19 37 -58 31
-78 33 -99 4 -35 -12 25 -20 48 -20 53 1 4 -3 7 -9 7 -5 0 -7 5 -4 10 3 6 2
10 -4 10 -6 0 -15 8 -20 18 -7 14 -6 19 4 19 7 0 11 -7 7 -15z m-1204 -39
c-27 -47 -28 -49 -28 -37 0 11 38 74 45 74 2 0 -5 -17 -17 -37z m787 -38 c-68
-44 -126 -58 -140 -35 -3 6 1 10 9 10 8 0 50 16 93 35 107 47 121 44 38 -10z
m-372 -2 c66 -26 69 -28 39 -31 -24 -2 -46 5 -79 27 -57 38 -50 39 40 4z m967
-55 c0 -16 -3 -19 -11 -11 -6 6 -8 16 -5 22 11 17 16 13 16 -11z m-1373 -70
c-2 -18 -4 -6 -4 27 0 33 2 48 4 33 2 -15 2 -42 0 -60z m-80 50 c-3 -8 -6 -5
-6 6 -1 11 2 17 5 13 3 -3 4 -12 1 -19z m361 -28 c-22 -30 -35 -41 -22 -17 9
16 36 47 41 47 2 0 -6 -13 -19 -30z m989 8 c-3 -8 -6 -5 -6 6 -1 11 2 17 5 13
3 -3 4 -12 1 -19z m-1360 -30 c-3 -7 -5 -2 -5 12 0 14 2 19 5 13 2 -7 2 -19 0
-25z m1259 -43 c13 -27 24 -61 23 -75 0 -19 -4 -15 -13 17 -8 23 -25 63 -40
88 -17 31 -20 43 -9 34 9 -8 27 -36 39 -64z m-1239 33 c-3 -8 -6 -5 -6 6 -1
11 2 17 5 13 3 -3 4 -12 1 -19z m522 -10 c-18 -32 -15 -144 5 -197 9 -24 14
-46 12 -49 -8 -7 -46 129 -46 164 0 34 29 119 37 110 3 -2 -1 -15 -8 -28z
m691 -42 c0 -5 -1 -7 -3 -5 -2 2 -15 22 -31 44 l-27 40 30 -35 c17 -19 31 -39
31 -44z m137 42 c-3 -7 -5 -2 -5 12 0 14 2 19 5 13 2 -7 2 -19 0 -25z m-1546
-5 c-12 -20 -14 -14 -5 12 4 9 9 14 11 11 3 -2 0 -13 -6 -23z m1374 -93 l5
-35 -13 35 c-8 19 -24 51 -36 70 -32 53 -25 61 9 10 16 -25 32 -61 35 -80z
m-208 58 c-3 -7 -5 -2 -5 12 0 14 2 19 5 13 2 -7 2 -19 0 -25z m30 -5 c-3 -10
-5 -4 -5 12 0 17 2 24 5 18 2 -7 2 -21 0 -30z m-1030 -50 c-2 -16 -4 -3 -4 27
0 30 2 43 4 28 2 -16 2 -40 0 -55z m1460 45 c-3 -8 -6 -5 -6 6 -1 11 2 17 5
13 3 -3 4 -12 1 -19z m-1935 -56 c-5 -67 19 -196 55 -297 32 -87 103 -225 116
-225 6 0 7 -3 4 -7 -4 -3 -2 -12 4 -19 9 -10 7 -15 -5 -20 -9 -3 -13 -11 -9
-17 3 -6 1 -7 -6 -3 -6 4 -9 12 -5 17 3 6 -2 19 -12 30 -9 10 -14 19 -10 19 4
0 -2 12 -12 28 -11 15 -27 43 -35 62 l-16 35 6 -35 c4 -19 13 -45 21 -57 16
-26 6 -30 -24 -8 -17 11 -23 29 -28 92 -4 43 -16 117 -26 164 -23 100 -35 236
-26 273 10 41 13 31 8 -32z m57 -26 c1 -57 -5 -40 -12 29 -3 37 -2 51 3 35 4
-14 8 -43 9 -64z m748 42 c-3 -7 -5 -2 -5 12 0 14 2 19 5 13 2 -7 2 -19 0 -25z
m854 -58 c23 -68 62 -134 113 -188 l51 -56 -47 33 c-61 41 -88 77 -138 183
-47 101 -53 140 -15 93 14 -16 30 -46 36 -65z m-196 -46 c16 -27 21 -43 12
-36 -26 22 -57 95 -56 133 1 34 2 34 8 -7 4 -22 20 -62 36 -90z m75 48 c0 -13
-3 -12 -14 3 -8 11 -11 26 -8 34 3 9 1 12 -6 7 -6 -3 -14 -1 -18 5 -4 8 -3 9
4 5 8 -4 12 0 12 11 1 22 30 -42 30 -65z m-665 -107 c4 -16 21 -56 37 -87 15
-32 26 -58 23 -58 -9 0 -58 106 -71 155 -8 28 -13 77 -12 110 l1 60 7 -75 c4
-41 11 -88 15 -105z m392 123 c-3 -7 -5 -2 -5 12 0 14 2 19 5 13 2 -7 2 -19 0
-25z m-160 -10 c-3 -8 -6 -5 -6 6 -1 11 2 17 5 13 3 -3 4 -12 1 -19z m-990
-94 c-3 -3 -12 -4 -19 -1 -8 3 -5 6 6 6 11 1 17 -2 13 -5z m883 -15 c0 -6 -4
-7 -10 -4 -5 3 -10 11 -10 16 0 6 5 7 10 4 6 -3 10 -11 10 -16z m267 -11 c-3
-7 -5 -2 -5 12 0 14 2 19 5 13 2 -7 2 -19 0 -25z m-947 -53 c35 -36 38 -49 4
-17 -23 20 -48 52 -42 52 2 0 19 -16 38 -35z m789 -25 c23 -30 41 -57 41 -61
0 -4 9 -9 19 -12 12 -3 19 -13 18 -25 0 -11 -5 -18 -9 -16 -5 3 -6 10 -3 15 4
5 0 12 -8 15 -8 3 -33 31 -54 62 -70 101 -72 113 -4 22z m398 38 c-3 -8 -6 -5
-6 6 -1 11 2 17 5 13 3 -3 4 -12 1 -19z m-540 -30 c-3 -8 -6 -5 -6 6 -1 11 2
17 5 13 3 -3 4 -12 1 -19z m411 -131 c79 -122 137 -244 151 -320 19 -106 -24
-312 -85 -404 -19 -29 -36 -53 -39 -53 -2 0 8 26 23 58 25 52 27 70 31 207 9
282 7 314 -21 375 -14 30 -55 104 -92 164 -36 60 -66 114 -66 120 1 6 8 -2 17
-19 9 -16 45 -74 81 -128z m-210 117 c9 -16 8 -21 -4 -21 -8 0 -14 10 -14 25
0 28 2 27 18 -4z m378 -18 c0 -32 -1 -33 -13 -15 -13 17 -8 33 13 49 0 0 0
-15 0 -34z m201 -53 c-2 -1 -16 2 -33 6 -19 6 -22 10 -10 10 17 1 15 6 -14 39
-28 29 -25 28 12 -7 26 -25 46 -46 45 -48z m-184 -82 c37 -39 38 -42 10 -22
-54 37 -100 100 -118 161 -4 14 10 -2 30 -35 20 -33 55 -80 78 -104z m-1348
129 c10 -11 16 -20 13 -20 -3 0 -13 9 -23 20 -10 11 -16 20 -13 20 3 0 13 -9
23 -20z m213 -55 c-3 -4 -16 9 -28 27 l-23 33 28 -27 c16 -15 26 -30 23 -33z
m592 0 c13 -14 21 -25 18 -25 -2 0 -15 11 -28 25 -13 14 -21 25 -18 25 2 0 15
-11 28 -25z m-729 1 c5 3 9 0 9 -6 0 -15 -23 -7 -26 8 -1 7 0 8 3 2 2 -5 9 -8
14 -4z m849 -33 c75 -85 137 -187 185 -304 73 -180 61 -163 -42 57 -27 59 -61
111 -100 154 -32 35 -52 61 -45 56 29 -18 9 24 -25 53 -21 17 -33 30 -26 31 6
0 30 -21 53 -47z m-800 -10 c0 -13 -3 -13 -15 -3 -8 7 -15 16 -15 21 0 5 7 6
15 3 8 -4 15 -13 15 -21z m650 2 c13 -14 21 -25 18 -25 -2 0 -15 11 -28 25
-13 14 -21 25 -18 25 2 0 15 -11 28 -25z m71 -12 c13 -16 12 -17 -3 -4 -17 13
-22 21 -14 21 2 0 10 -8 17 -17z m166 0 c-9 -2 -14 -9 -11 -15 4 -7 2 -8 -5
-4 -15 10 -4 26 17 25 15 -1 15 -2 -1 -6z m-846 -30 c13 -16 12 -17 -3 -4 -17
13 -22 21 -14 21 2 0 10 -8 17 -17z m882 -44 c-5 -5 -9 -1 -9 9 -1 9 -4 26 -8
37 -4 11 0 7 9 -9 10 -16 13 -32 8 -37z m-1430 26 c-3 -9 -8 -14 -10 -11 -3 3
-2 9 2 15 9 16 15 13 8 -4z m1321 -50 l16 -40 -20 24 c-11 13 -20 32 -20 44 0
26 4 21 24 -28z m-704 -10 c13 -14 21 -25 18 -25 -2 0 -15 11 -28 25 -13 14
-21 25 -18 25 2 0 15 -11 28 -25z m-360 -47 c0 -5 5 -6 12 -2 6 4 8 3 5 -4 -8
-12 -40 -9 -44 5 -2 5 3 10 12 10 8 0 15 -4 15 -9z m794 -80 c20 -27 35 -48
31 -48 -11 0 -74 74 -79 93 -3 11 -2 16 3 11 4 -5 24 -30 45 -56z m-42 -36
l27 -57 -29 35 c-16 19 -30 41 -30 48 0 6 -4 12 -10 12 -5 0 -10 7 -10 15 0
30 27 3 52 -53z m78 33 c13 -14 21 -25 18 -25 -2 0 -15 11 -28 25 -13 14 -21
25 -18 25 2 0 15 -11 28 -25z m-683 -22 c0 -10 -4 -10 -11 -3 -17 17 -29 11
-15 -7 13 -16 12 -17 -3 -4 -10 7 -15 17 -13 21 8 14 42 7 42 -7z m1479 -12
c0 -11 -4 -17 -8 -15 -14 9 -9 -13 6 -25 17 -14 27 -58 14 -65 -5 -2 -3 -3 4
-2 7 2 12 10 10 20 -4 20 14 22 21 2 4 -9 -12 -28 -40 -50 -26 -20 -48 -35
-49 -33 -2 2 -4 30 -5 64 -2 49 2 67 20 92 26 37 27 37 27 12z m-686 -37 c0
-3 -9 0 -19 6 -33 17 -46 12 -26 -10 10 -11 16 -20 13 -20 -2 0 -15 12 -29 27
-13 14 -18 23 -10 18 11 -6 13 -4 8 8 -5 13 0 12 29 -5 19 -11 34 -22 34 -24z
m-232 7 l22 -30 -28 16 c-16 9 -29 22 -29 30 0 21 11 15 35 -16z m325 -19 c32
-33 35 -38 17 -37 -12 1 -33 14 -48 30 -18 19 -19 23 -4 11 26 -22 30 -11 5
16 -30 34 -7 18 30 -20z m-158 -12 c21 -22 37 -40 34 -40 -3 0 -23 18 -44 40
-21 22 -37 40 -34 40 3 0 23 -18 44 -40z m268 -62 c-2 -4 7 -14 21 -23 23 -15
48 -53 26 -40 -13 8 -8 -22 9 -55 l12 -25 -19 22 c-11 12 -22 20 -24 17 -9 -9
-33 29 -34 55 -3 41 -3 43 -16 35 -10 -6 -10 -4 0 8 11 14 10 17 -8 23 -11 3
-18 10 -15 15 3 5 0 12 -7 17 -7 4 -22 19 -33 33 -11 14 5 3 36 -25 30 -27 54
-53 52 -57z m-1106 20 c-7 -4 -17 6 -24 24 -20 48 -15 56 11 18 16 -24 20 -37
13 -42z m33 27 c19 -19 32 -35 29 -35 -3 0 -20 16 -39 35 -19 19 -32 35 -29
35 3 0 20 -16 39 -35z m-340 2 c0 -7 -7 -22 -15 -33 -13 -17 -13 -16 -3 14 13
34 18 40 18 19z m451 -4 c13 -16 12 -17 -3 -4 -17 13 -22 21 -14 21 2 0 10 -8
17 -17z m1539 13 c0 -2 -8 -10 -17 -17 -16 -13 -17 -12 -4 4 13 16 21 21 21
13z m-750 -40 c22 -27 -5 -17 -31 10 -21 24 -22 26 -3 16 11 -6 26 -18 34 -26z
m64 -6 c-7 13 -5 13 9 1 18 -15 23 -26 7 -16 -15 9 -12 -1 11 -48 23 -46 21
-44 -34 25 -24 30 -33 48 -24 51 6 2 18 -3 25 -12 10 -12 12 -13 6 -1z m51
-10 c-3 -4 0 -11 5 -13 6 -3 5 -4 -1 -3 -7 1 -13 10 -15 19 -1 9 2 15 7 11 5
-3 7 -9 4 -14z m-999 -22 l29 -33 -32 29 c-31 28 -38 36 -30 36 2 0 16 -15 33
-32z m-297 -226 c12 -29 17 -51 12 -47 -20 11 -50 114 -55 186 l-6 74 14 -80
c7 -44 23 -104 35 -133z m-103 141 c-11 -11 -17 4 -9 23 7 18 8 18 11 1 2 -10
1 -21 -2 -24z m-11 -23 c3 -5 1 -10 -4 -10 -6 0 -11 5 -11 10 0 6 2 10 4 10 3
0 8 -4 11 -10z m418 -63 c-6 -10 -25 10 -45 48 -7 14 -1 11 20 -9 17 -16 29
-34 25 -39z m-433 -6 c-11 -41 -24 -57 -18 -23 1 9 -1 23 -6 31 -6 9 -5 12 1
8 6 -4 13 3 16 15 4 12 9 19 12 16 4 -3 1 -24 -5 -47z m49 -6 c0 -5 -4 -3 -9
5 -5 8 -9 22 -9 30 0 16 17 -16 18 -35z m1222 -12 c-12 -20 -14 -14 -5 12 4 9
9 14 11 11 3 -2 0 -13 -6 -23z m-1244 -25 c-3 -7 -5 -2 -5 12 0 14 2 19 5 13
2 -7 2 -19 0 -25z m1205 -50 c-59 -86 -149 -151 -269 -195 -93 -34 -100 -28
-12 11 132 57 237 133 279 202 12 19 24 33 27 30 3 -2 -9 -24 -25 -48z m135
20 c-3 -7 -5 -2 -5 12 0 14 2 19 5 13 2 -7 2 -19 0 -25z m-1372 2 c4 -11 11
-18 16 -15 5 4 9 -4 9 -17 -1 -21 -2 -21 -11 -5 -6 9 -14 15 -18 12 -5 -2 -15
3 -22 13 -13 15 -12 16 4 3 19 -15 24 -2 5 17 -9 9 -9 12 -1 12 7 0 15 -9 18
-20z m1374 -53 c0 -21 -1 -21 -9 -2 -12 28 -12 37 0 30 6 -3 10 -16 9 -28z
m-1368 -7 c5 0 9 -5 9 -10 0 -6 -11 -3 -25 6 -14 9 -25 21 -25 26 0 5 7 2 16
-6 8 -9 20 -16 25 -16z m-30 -17 c13 -16 12 -17 -3 -4 -17 13 -22 21 -14 21 2
0 10 -8 17 -17z m1904 -57 c20 13 25 13 25 3 0 -8 9 -3 20 11 16 21 20 22 20
7 0 -27 -35 -89 -66 -117 l-28 -25 19 30 c13 22 1 14 -43 -27 -66 -64 -84 -73
-57 -30 l18 27 -27 -25 c-15 -13 -24 -30 -22 -37 3 -7 0 -12 -6 -10 -6 1 -17
-16 -23 -38 l-12 -40 -10 35 -10 35 -7 -47 c-8 -50 -35 -69 -37 -25 -1 18 -2
17 -8 -6 -4 -18 -23 -41 -53 -64 -53 -38 -58 -33 -38 36 5 19 8 36 6 39 -6 5
-24 -58 -31 -111 -7 -53 -19 -55 -29 -3 -9 47 8 115 50 202 39 80 53 98 47 56
-3 -21 -2 -24 6 -11 6 9 30 32 55 52 44 36 44 36 41 12 -2 -20 0 -23 11 -14 8
6 12 15 9 19 -3 4 3 14 13 21 15 13 16 12 3 -3 -7 -10 -9 -18 -3 -18 14 0 71
79 79 108 5 21 7 19 34 -18 29 -39 30 -40 54 -24z m112 27 c-3 -10 -5 -4 -5
12 0 17 2 24 5 18 2 -7 2 -21 0 -30z m-630 5 c-3 -8 -6 -5 -6 6 -1 11 2 17 5
13 3 -3 4 -12 1 -19z m-937 -3 c7 -9 8 -15 2 -15 -5 0 -12 7 -16 15 -3 8 -4
15 -2 15 2 0 9 -7 16 -15z m927 -37 c-3 -8 -6 -5 -6 6 -1 11 2 17 5 13 3 -3 4
-12 1 -19z m-1327 2 c0 -5 -5 -10 -11 -10 -5 0 -7 5 -4 10 3 6 8 10 11 10 2 0
4 -4 4 -10z m37 -22 c-3 -8 -6 -5 -6 6 -1 11 2 17 5 13 3 -3 4 -12 1 -19z
m-10 -60 c-3 -7 -5 -2 -5 12 0 14 2 19 5 13 2 -7 2 -19 0 -25z m82 -113 c6
-22 11 -51 10 -65 0 -14 -9 9 -19 50 -11 41 -19 91 -18 110 0 32 1 32 8 -10 4
-25 13 -63 19 -85z m-92 73 c-3 -8 -6 -5 -6 6 -1 11 2 17 5 13 3 -3 4 -12 1
-19z m-60 -30 c-3 -7 -5 -2 -5 12 0 14 2 19 5 13 2 -7 2 -19 0 -25z m-30 -10
c-3 -8 -6 -5 -6 6 -1 11 2 17 5 13 3 -3 4 -12 1 -19z m1544 -16 c-29 -56 -51
-151 -52 -223 -1 -63 -1 -63 -11 -24 -14 59 -1 134 37 214 19 39 37 71 40 71
3 0 -3 -17 -14 -38z m-1474 -14 c-3 -7 -5 -2 -5 12 0 14 2 19 5 13 2 -7 2 -19
0 -25z m30 -20 c-3 -7 -5 -2 -5 12 0 14 2 19 5 13 2 -7 2 -19 0 -25z m-40 -60
c-3 -7 -5 -2 -5 12 0 14 2 19 5 13 2 -7 2 -19 0 -25z m140 -55 c-3 -10 -5 -4
-5 12 0 17 2 24 5 18 2 -7 2 -21 0 -30z m553 23 c0 -2 -8 -10 -17 -17 -16 -13
-17 -12 -4 4 13 16 21 21 21 13z m1090 -50 c0 -2 -8 -10 -17 -17 -16 -13 -17
-12 -4 4 13 16 21 21 21 13z m-1009 -33 c13 -16 12 -17 -3 -4 -17 13 -22 21
-14 21 2 0 10 -8 17 -17z m653 -156 c14 -29 33 -63 43 -77 10 -16 1 -10 -26
15 -56 52 -71 89 -70 172 l1 68 13 -63 c8 -35 25 -86 39 -115z m-594 103 c30
-43 18 -37 -16 7 -15 20 -23 33 -16 29 6 -3 21 -20 32 -36z m872 -19 c-57 -90
-64 -99 -46 -61 18 38 72 120 79 120 3 0 -12 -26 -33 -59z m-1775 27 c-3 -8
-6 -5 -6 6 -1 11 2 17 5 13 3 -3 4 -12 1 -19z"/>
<path d="M1695 1974 c-9 -14 -15 -27 -13 -30 2 -2 12 10 22 26 21 37 15 40 -9
4z"/>
<path d="M2129 2223 c-13 -16 -12 -17 4 -4 9 7 17 15 17 17 0 8 -8 3 -21 -13z"/>
<path d="M1775 1280 c10 -11 20 -20 23 -20 3 0 -3 9 -13 20 -10 11 -20 20 -23
20 -3 0 3 -9 13 -20z"/>
<path d="M2850 986 c0 -2 8 -10 18 -17 15 -13 16 -12 3 4 -13 16 -21 21 -21
13z"/>
<path d="M2936 395 c-3 -9 -6 -22 -5 -28 0 -7 5 -1 10 12 5 13 8 26 5 28 -2 2
-6 -3 -10 -12z"/>
<path d="M2922 330 c0 -14 2 -19 5 -12 2 6 2 18 0 25 -3 6 -5 1 -5 -13z"/>
<path d="M2280 4285 c0 -5 5 -17 10 -25 5 -8 10 -10 10 -5 0 6 -5 17 -10 25
-5 8 -10 11 -10 5z"/>
<path d="M3898 2613 c7 -3 16 -2 19 1 4 3 -2 6 -13 5 -11 0 -14 -3 -6 -6z"/>
<path d="M3948 2603 c7 -3 16 -2 19 1 4 3 -2 6 -13 5 -11 0 -14 -3 -6 -6z"/>
<path d="M3988 2593 c7 -3 16 -2 19 1 4 3 -2 6 -13 5 -11 0 -14 -3 -6 -6z"/>
<path d="M1598 2543 c7 -3 16 -2 19 1 4 3 -2 6 -13 5 -11 0 -14 -3 -6 -6z"/>
<path d="M1558 2533 c7 -3 16 -2 19 1 4 3 -2 6 -13 5 -11 0 -14 -3 -6 -6z"/>
<path d="M3900 2517 c0 -3 26 -24 58 -48 31 -23 52 -36 45 -28 -14 17 -103 83
-103 76z"/>
<path d="M3856 2422 c32 -21 91 -64 129 -96 l70 -58 -60 56 c-61 58 -170 136
-188 136 -6 0 16 -17 49 -38z"/>
<path d="M1633 2405 c-51 -24 -93 -46 -93 -49 0 -4 190 81 199 90 14 13 -26
-2 -106 -41z"/>
<path d="M4030 2416 c0 -2 8 -10 18 -17 15 -13 16 -12 3 4 -13 16 -21 21 -21
13z"/>
<path d="M3840 2355 c19 -19 36 -35 39 -35 3 0 -10 16 -29 35 -19 19 -36 35
-39 35 -3 0 10 -16 29 -35z"/>
<path d="M3680 2366 c0 -2 7 -7 16 -10 8 -3 12 -2 9 4 -6 10 -25 14 -25 6z"/>
<path d="M1504 2334 c-18 -14 -18 -15 4 -4 12 6 22 13 22 15 0 8 -5 6 -26 -11z"/>
<path d="M3670 2312 c79 -55 183 -150 221 -202 45 -62 65 -81 34 -32 -40 61
-101 126 -178 187 -45 36 -86 65 -92 64 -5 0 1 -8 15 -17z"/>
<path d="M3810 2296 c0 -2 8 -10 18 -17 15 -13 16 -12 3 4 -13 16 -21 21 -21
13z"/>
<path d="M3850 2266 c0 -2 8 -10 18 -17 15 -13 16 -12 3 4 -13 16 -21 21 -21
13z"/>
<path d="M4070 2236 c0 -2 8 -10 18 -17 15 -13 16 -12 3 4 -13 16 -21 21 -21
13z"/>
<path d="M3956 2007 c3 -10 9 -15 12 -12 3 3 0 11 -7 18 -10 9 -11 8 -5 -6z"/>
</g>
</svg>