<?xml version="1.0" standalone="no"?>
<!DOCTYPE svg PUBLIC "-//W3C//DTD SVG 20010904//EN"
 "http://www.w3.org/TR/2001/REC-SVG-20010904/DTD/svg10.dtd">
<svg version="1.0" xmlns="http://www.w3.org/2000/svg"
 width="512.000000pt" height="512.000000pt" viewBox="0 0 512.000000 512.000000"
 preserveAspectRatio="xMidYMid meet">
<metadata>
Created by potrace 1.16, written by Peter Selinger 2001-2019
</metadata>
<g transform="translate(0.000000,512.000000) scale(0.100000,-0.100000)"
fill="#000000" stroke="none">
<path d="M2735 4753 c-11 -2 -54 -16 -95 -29 -45 -16 -113 -29 -171 -33 -117
-9 -171 -33 -232 -101 -25 -27 -53 -73 -64 -102 -26 -68 -43 -177 -34 -220 l7
-33 8 37 c4 21 11 40 16 43 14 9 13 -137 -1 -172 -16 -42 -12 -140 9 -213 26
-90 17 -119 -48 -154 -41 -22 -50 -32 -50 -54 0 -15 7 -36 15 -46 8 -11 15
-30 15 -43 0 -13 6 -38 14 -56 10 -26 11 -46 3 -91 -15 -84 6 -347 38 -468 44
-167 82 -285 104 -324 20 -36 21 -46 12 -117 -6 -56 -15 -83 -28 -93 -35 -28
-98 -63 -125 -69 -15 -4 -30 -15 -33 -24 -3 -10 -44 -36 -93 -59 -228 -106
-661 -280 -757 -303 -118 -29 -184 -140 -215 -360 -7 -46 -28 -130 -47 -186
-47 -141 -63 -223 -62 -323 l1 -85 18 115 c19 126 68 325 100 408 11 30 29 91
40 136 28 123 56 188 95 226 19 18 37 31 40 29 2 -3 -7 -33 -21 -67 -69 -171
-50 -568 37 -761 16 -35 29 -66 29 -69 0 -2 -45 -3 -100 0 -56 2 -96 0 -91 -5
5 -5 55 -26 112 -48 56 -21 106 -44 111 -51 4 -7 8 -30 8 -50 0 -37 -1 -37
-97 -87 -54 -28 -111 -62 -128 -75 l-30 -24 55 18 c32 11 83 19 121 20 72 0
78 -6 79 -67 0 -28 -116 -123 -232 -190 -43 -25 -78 -47 -78 -49 0 -6 142 47
185 69 22 11 58 32 81 48 l40 27 -3 -31 c-2 -18 -13 -93 -23 -167 -11 -74 -27
-197 -35 -274 -9 -76 -18 -143 -21 -147 -3 -5 39 -9 93 -9 l98 1 35 44 c37 48
48 44 49 -17 1 -16 6 -28 12 -28 26 0 -5 190 -126 765 -46 223 -65 384 -66
580 0 88 -3 155 -5 149 -3 -7 -10 -85 -17 -175 l-12 -164 -23 81 c-40 146 -56
277 -56 469 -1 174 0 182 25 230 28 56 4 44 309 159 80 30 230 91 333 136 104
45 191 79 194 76 3 -3 -41 -58 -97 -123 -57 -65 -111 -126 -119 -136 -15 -18
-14 -21 14 -43 17 -13 36 -24 43 -24 6 0 12 -4 12 -10 0 -15 -31 -12 -95 10
-32 11 -60 18 -62 16 -5 -5 84 -46 99 -46 27 0 -8 -30 -92 -80 l-93 -55 7
-100 c18 -294 139 -896 230 -1148 68 -189 213 -512 248 -554 26 -32 25 -7 -2
46 -77 153 -232 552 -279 718 -68 240 -161 731 -185 970 l-5 52 79 45 c66 38
200 127 300 198 49 36 12 25 -49 -13 -57 -37 -65 -40 -92 -29 -59 25 -57 29
66 171 147 171 148 172 225 231 62 48 65 49 68 27 2 -13 -27 -91 -63 -173 -99
-223 -113 -292 -135 -696 -15 -263 -36 -497 -46 -488 -10 11 -144 564 -155
642 l-12 88 29 24 29 24 -30 -12 c-57 -23 -58 -25 -51 -118 17 -215 79 -540
136 -715 16 -49 37 -139 45 -200 33 -222 111 -552 177 -742 20 -58 24 -63 51
-63 l29 0 -9 53 c-13 81 -9 441 5 535 8 46 11 86 9 88 -8 8 -46 -218 -53 -314
-4 -51 -10 -90 -14 -85 -11 11 -77 347 -89 453 -25 203 -41 471 -35 580 5 98
33 307 50 375 4 17 3 17 -9 -3 -34 -59 -36 28 -2 192 34 171 70 289 113 370
l36 69 12 -84 c7 -46 26 -136 41 -200 l29 -117 64 39 c84 51 92 50 84 -3 -10
-68 -30 -118 -99 -257 -68 -136 -120 -275 -130 -351 -5 -33 3 -18 29 57 19 56
75 181 125 277 49 97 94 198 101 225 7 31 18 51 29 54 15 4 16 -3 8 -82 -5
-47 -17 -135 -27 -194 -16 -93 -25 -120 -65 -188 -26 -46 -50 -102 -55 -132
-31 -167 -70 -537 -57 -537 9 0 34 122 62 299 15 100 32 177 43 195 10 17 53
77 94 133 42 56 82 119 88 139 9 27 11 78 7 177 -7 153 -4 168 51 221 24 22
36 27 57 22 33 -8 30 -16 -24 -57 -25 -19 -46 -40 -49 -47 -4 -14 39 10 135
76 l52 35 21 -24 c11 -13 18 -33 15 -44 -2 -11 -11 -48 -19 -83 -8 -34 -10
-60 -5 -56 15 9 10 -3 -21 -53 -61 -96 -117 -270 -229 -718 -39 -154 -96 -372
-126 -484 -30 -113 -55 -212 -54 -220 0 -18 98 252 135 374 14 44 45 166 70
270 106 452 159 622 341 1095 70 185 67 179 84 139 7 -18 40 -60 73 -92 50
-49 61 -67 72 -114 7 -31 11 -60 8 -65 -7 -12 -52 -10 -76 3 -15 8 -19 8 -13
-1 4 -6 28 -20 53 -31 l45 -20 -42 -43 -42 -43 18 -32 c17 -31 17 -32 -2 -47
-19 -14 -19 -16 -3 -76 l17 -62 -34 -32 c-37 -34 -41 -44 -25 -74 8 -16 -2
-43 -50 -141 -34 -66 -106 -225 -161 -352 -133 -308 -251 -534 -390 -749 -165
-256 -155 -238 -131 -238 21 0 173 212 287 400 59 96 179 331 230 450 16 36
29 66 30 67 2 4 397 84 400 81 6 -6 78 -183 87 -213 5 -16 30 -124 55 -240 56
-252 61 -347 24 -433 -13 -29 -40 -66 -60 -82 l-36 -30 158 0 158 0 -14 28
c-13 24 -127 374 -230 702 -25 78 -81 206 -177 400 -78 157 -145 289 -150 294
-16 16 -12 31 15 56 l24 23 165 -334 c151 -304 249 -489 261 -489 6 0 0 16
-69 178 -55 131 -220 582 -214 586 2 2 48 32 103 68 55 36 126 84 157 107 l57
42 70 -138 c39 -76 70 -135 70 -132 2 13 -62 157 -95 218 -24 44 -32 67 -25
74 6 6 12 9 14 6 3 -2 36 -67 76 -144 71 -140 71 -140 77 -240 4 -62 0 -162
-10 -264 -18 -190 -20 -306 -6 -382 13 -66 72 -261 77 -255 3 2 -6 53 -19 113
-31 149 -32 361 -1 478 27 102 34 180 25 279 -6 56 -5 74 3 61 5 -10 30 -44
55 -77 94 -125 153 -217 209 -328 32 -63 62 -126 66 -140 4 -14 16 -36 26 -49
16 -19 19 -41 19 -118 0 -60 4 -92 10 -88 6 3 10 27 10 53 l1 47 25 -47 c29
-57 54 -148 54 -200 0 -20 -25 -110 -55 -199 -30 -89 -55 -167 -55 -173 2 -41
100 218 100 264 0 10 5 22 12 26 28 17 -6 -190 -47 -288 -6 -15 -2 -18 28 -18
l34 0 34 98 c30 88 33 108 33 217 1 138 -11 184 -93 348 -26 53 -44 97 -39 97
5 0 34 -24 64 -54 30 -30 54 -53 54 -50 0 2 -39 80 -87 173 -75 146 -110 202
-213 345 -15 20 -15 20 15 -1 51 -36 111 -104 176 -198 34 -49 58 -79 54 -65
-13 45 -17 169 -7 199 10 29 8 33 -31 66 -54 47 -122 78 -240 111 -53 15 -97
30 -97 35 0 5 19 18 42 30 58 30 157 23 222 -15 61 -36 58 -47 -6 -25 -63 21
-178 36 -178 23 0 -5 31 -14 69 -20 115 -19 281 -110 281 -155 0 -12 -8 -43
-17 -69 l-17 -47 57 -179 c62 -195 72 -241 93 -414 l13 -115 -4 105 c-6 141
-27 253 -80 427 l-44 146 30 56 c36 66 33 97 -10 146 l-28 33 4 113 c3 63 1
132 -4 154 -7 31 -5 52 10 95 16 45 18 73 14 155 -5 115 -24 171 -71 213 -62
55 -230 129 -374 167 -33 8 -141 56 -242 105 -150 75 -181 94 -175 108 20 51
57 169 80 256 14 54 32 111 40 127 19 35 19 61 0 123 -9 28 -13 64 -9 82 4 20
-1 53 -11 85 -43 129 -52 187 -39 262 11 61 10 76 -2 94 -8 12 -14 29 -14 37
0 27 -79 133 -115 152 -19 10 -35 19 -35 20 0 16 91 267 103 286 50 74 73 205
51 294 -10 44 -49 116 -74 139 -12 11 -35 47 -50 81 -36 80 -89 137 -156 170
-49 24 -62 26 -124 20 -45 -4 -70 -2 -70 4 0 14 -69 89 -94 102 -17 9 -15 5 7
-21 22 -27 27 -42 27 -87 l0 -54 36 15 c72 30 79 17 16 -29 -33 -25 -63 -53
-66 -64 -4 -10 -13 -19 -21 -19 -18 0 -18 0 -4 31 17 36 -5 105 -48 156 -39
45 -71 64 -123 74 l-35 7 40 -22 c57 -30 75 -48 96 -94 33 -72 16 -172 -37
-216 -17 -13 -17 -13 -1 11 9 14 21 49 28 79 26 124 -54 224 -196 244 l-40 6
25 -17 c61 -40 97 -89 115 -157 16 -58 17 -74 6 -114 -19 -74 -76 -131 -206
-207 -21 -12 -12 -11 150 6 122 13 155 4 222 -62 66 -64 87 -101 79 -139 -3
-16 -2 -29 3 -29 4 0 20 -17 34 -37 26 -37 37 -31 17 7 -6 11 -7 38 -4 60 l7
41 18 -28 c23 -34 24 -54 4 -47 -11 5 -13 2 -9 -10 9 -24 -5 -88 -19 -83 -7 2
-21 21 -32 42 -14 27 -21 33 -23 21 -2 -10 6 -29 19 -42 18 -20 20 -28 11 -46
-7 -16 -11 -18 -11 -7 -1 9 -10 24 -21 34 -17 16 -20 16 -20 2 0 -9 4 -19 10
-22 5 -3 15 -16 22 -28 10 -20 10 -21 -5 -8 -32 26 -19 -12 29 -87 26 -41 48
-89 51 -111 5 -39 5 -40 -33 -50 -102 -28 -154 -34 -181 -20 -22 12 -27 11
-37 -2 -10 -14 -23 -9 -111 37 -55 30 -95 54 -89 54 49 1 196 -35 233 -57 40
-23 45 -24 56 -9 7 9 18 16 26 16 11 1 11 3 -2 13 -8 7 -30 33 -48 59 -49 73
-72 81 -173 62 -123 -23 -235 -29 -253 -14 -10 8 -15 31 -15 64 -1 44 -2 48
-12 31 -18 -30 -14 -109 5 -139 l17 -26 -47 7 c-81 10 -100 28 -67 64 19 22
34 82 26 111 -4 17 -8 13 -21 -23 -14 -36 -22 -45 -45 -47 -45 -5 -68 4 -140
58 -73 54 -82 54 -133 8 l-22 -20 21 63 c11 35 28 96 39 136 10 39 29 94 43
120 27 55 102 129 140 139 27 7 103 -23 125 -49 20 -25 79 -22 109 6 l25 22
-18 -27 c-22 -35 -16 -35 57 4 192 102 236 333 83 428 -33 20 -46 22 -123 17
-48 -3 -98 -10 -112 -15 -20 -9 -7 -11 65 -12 74 0 97 -4 130 -23 82 -46 116
-174 66 -248 -12 -19 -20 -25 -15 -14 37 102 8 203 -71 248 -11 6 -83 14 -160
18 -140 6 -195 15 -195 29 0 4 44 10 98 13 73 4 114 11 167 32 57 23 86 28
160 28 139 1 215 -41 279 -153 l26 -45 0 33 c0 69 -60 136 -155 171 -42 16
-77 21 -143 20 -48 -1 -96 -3 -107 -6z m-129 -154 c80 -20 144 -117 144 -215
0 -36 -32 -124 -45 -124 -3 0 1 13 10 30 23 45 19 122 -9 178 -14 27 -30 53
-38 59 -7 6 -60 27 -118 47 l-105 35 58 1 c32 0 78 -5 103 -11z m-109 -30
c106 -19 184 -86 182 -159 l-1 -35 -8 33 c-10 41 -53 89 -100 108 -19 9 -85
19 -145 23 -121 8 -165 21 -105 32 57 10 109 10 177 -2z m490 -66 c-3 -10 -5
-2 -5 17 0 19 2 27 5 18 2 -10 2 -26 0 -35z m-483 8 c16 -17 14 -18 -41 -25
-70 -9 -203 -16 -203 -10 0 10 49 27 113 39 100 18 112 18 131 -4z m-64 -88
c40 -16 64 -37 93 -78 l20 -30 -30 32 c-47 49 -109 76 -183 79 -80 3 -84 5
-40 14 42 9 92 3 140 -17z m858 9 c-86 -31 -167 -103 -115 -102 9 0 9 2 -1 8
-8 6 6 16 41 30 60 25 81 28 53 7 -19 -14 -18 -15 15 -16 35 -1 31 -3 -36 -15
l-40 -6 37 -14 c40 -14 132 -73 125 -80 -2 -2 -30 8 -62 22 -40 19 -82 29
-131 32 -67 4 -76 2 -128 -27 -68 -40 -73 -34 -8 10 26 18 71 54 99 81 59 55
123 88 168 87 27 0 25 -2 -17 -17z m-141 -29 c-18 -20 -77 -57 -77 -49 0 6 80
66 88 66 3 0 -2 -8 -11 -17z m-480 -65 c-3 -8 -6 -5 -6 6 -1 11 2 17 5 13 3
-3 4 -12 1 -19z m-286 -29 c-13 -5 -37 -19 -54 -31 -17 -12 -27 -16 -23 -9 11
18 68 51 86 50 8 0 4 -5 -9 -10z m930 -79 c78 -40 129 -38 196 9 l45 32 -21
-29 c-48 -68 -133 -79 -234 -31 -51 23 -76 29 -114 27 l-48 -3 39 -14 c75 -26
223 -102 186 -96 -19 4 -59 18 -89 31 -30 13 -56 23 -58 20 -7 -7 98 -78 145
-98 l47 -19 -45 6 c-24 3 -62 14 -85 24 -38 17 -183 129 -184 142 -1 4 16 14
37 23 51 22 109 15 183 -24z m-1021 -15 c0 -3 -9 -24 -21 -46 -11 -23 -29 -78
-38 -123 -16 -71 -19 -78 -26 -52 -5 18 -3 36 4 49 10 15 10 17 0 11 -12 -7
-10 9 6 49 6 13 3 16 -9 11 -15 -6 -15 -3 -5 22 17 40 89 104 89 79z m10 -452
c35 -23 38 -28 23 -34 -15 -6 -14 -8 7 -8 14 -1 32 -6 40 -11 11 -7 -1 -10
-40 -10 -69 0 -100 -8 -100 -26 0 -10 12 -14 39 -14 22 0 44 -6 51 -15 8 -9
29 -15 56 -15 48 0 94 -17 94 -35 0 -20 -40 -64 -73 -81 -22 -12 -45 -15 -84
-10 -59 7 -142 41 -150 62 -3 8 0 35 5 61 6 27 14 65 17 86 6 40 35 77 59 77
8 0 33 -12 56 -27z m-123 -9 c-3 -3 -12 -4 -19 -1 -8 3 -5 6 6 6 11 1 17 -2
13 -5z m-28 -101 c-1 -54 -2 -56 -11 -26 -10 29 -5 83 7 83 3 0 5 -26 4 -57z
m435 -29 c8 -3 36 -48 61 -101 44 -91 49 -96 98 -118 67 -31 156 -42 197 -25
17 7 38 26 46 41 15 31 41 37 75 19 13 -8 19 -7 19 0 0 6 -16 18 -35 27 -48
23 -44 33 13 33 26 0 74 7 107 15 33 8 66 14 73 15 18 0 15 -76 -8 -181 -23
-103 -30 -119 -71 -162 -16 -16 -29 -33 -29 -38 0 -4 -15 -17 -34 -29 -19 -11
-48 -44 -64 -73 -27 -47 -76 -107 -87 -107 -14 0 55 143 89 185 41 49 96 135
96 149 0 5 -16 -5 -35 -24 l-35 -34 -11 34 -12 34 -33 -40 c-39 -45 -41 -54
-14 -54 26 0 25 -3 -9 -64 -16 -28 -36 -75 -46 -104 -11 -34 -32 -69 -58 -95
l-41 -42 -7 63 c-8 66 -38 141 -66 164 -14 12 -14 10 0 -19 32 -61 20 -69 -30
-22 -27 24 -65 53 -85 64 l-38 19 43 21 c37 17 42 24 41 51 -2 36 -45 108 -74
124 -16 8 -24 6 -40 -10 -21 -21 -26 -40 -11 -40 5 0 13 9 16 20 12 37 40 16
51 -37 8 -38 -9 -50 -41 -29 -30 20 -65 20 -91 1 -27 -21 -68 -18 -89 5 -17
19 -18 26 -7 67 7 25 11 47 10 49 -4 4 -98 -132 -98 -141 0 -3 13 3 29 14 l30
21 6 -21 c4 -12 19 -33 33 -46 l26 -24 -26 10 c-51 19 -134 -15 -167 -70 l-19
-30 -6 63 c-4 35 -16 79 -26 98 l-19 35 5 -60 c17 -217 26 -287 44 -343 11
-35 20 -71 19 -80 0 -16 -7 3 -63 187 -15 46 -31 122 -36 170 -11 94 -13 313
-4 348 l6 22 39 -20 c90 -45 205 -45 254 1 l24 22 -15 -47 c-16 -56 -17 -68
-5 -61 5 3 16 37 26 74 27 112 56 146 109 126z m208 -69 c35 -4 59 -2 63 4 10
18 35 13 66 -13 l29 -25 -45 -7 c-25 -3 -62 -4 -82 0 -34 5 -35 4 -13 -5 14
-6 54 -9 93 -5 54 4 69 2 74 -10 7 -20 -16 -73 -38 -84 -47 -26 -178 1 -216
43 -11 12 -27 44 -36 70 l-16 48 32 -5 c18 -3 57 -8 89 -11z m672 -32 c-45
-60 -81 -130 -99 -196 l-14 -52 0 42 c-1 64 36 150 87 205 57 61 73 62 26 1z
m-404 19 c0 -12 -23 -32 -37 -32 -9 0 -8 6 5 19 18 21 32 26 32 13z m393 -98
c-15 -26 -38 -75 -50 -109 l-24 -60 5 48 c6 51 36 119 69 154 30 34 31 22 0
-33z m203 -58 c3 -13 4 -35 1 -47 -4 -20 -5 -19 -6 6 -1 23 -3 27 -11 15 -19
-29 -10 -113 25 -241 19 -71 35 -151 35 -177 l0 -47 -35 40 c-18 22 -57 82
-86 134 l-52 93 11 57 c21 98 32 130 58 161 31 36 52 38 60 6z m-178 -220 c12
-10 45 -59 74 -109 29 -50 76 -114 104 -143 28 -29 54 -62 57 -73 6 -23 -46
-222 -93 -356 -18 -49 -42 -124 -55 -165 -17 -54 -25 -70 -30 -57 -9 21 -1 96
25 261 11 66 18 121 16 123 -3 4 -44 -56 -66 -97 -17 -32 -39 -134 -40 -182 0
-40 22 -102 75 -213 52 -109 52 -110 4 -124 -33 -10 -40 -16 -36 -32 3 -10 1
-17 -3 -14 -5 3 -10 0 -12 -5 -2 -6 -49 -30 -104 -54 l-102 -43 -5 46 c-3 25
-17 82 -31 126 -14 43 -24 81 -21 83 2 2 15 -4 29 -13 45 -30 28 -1 -33 57
-67 62 -67 63 -75 223 -9 159 19 261 84 304 20 14 23 14 18 1 -4 -8 -23 -51
-42 -95 -19 -44 -38 -105 -41 -135 l-6 -55 29 80 c60 165 105 255 131 262 l25
6 -23 9 c-21 7 -23 13 -18 48 4 30 1 43 -14 56 -10 9 -19 26 -19 37 0 16 -5
18 -26 13 -17 -5 -37 0 -60 13 -33 20 -34 20 -34 1 0 -21 -42 -58 -78 -67 -13
-3 -38 1 -55 9 l-31 15 44 42 c89 84 112 95 214 99 l91 4 37 -54 c42 -60 105
-124 95 -95 -9 26 -87 140 -105 155 -36 28 -242 4 -284 -35 -17 -15 -18 -14
-18 14 0 53 42 69 208 77 130 6 116 14 191 -104 41 -65 85 -110 106 -110 4 0
-9 19 -28 43 -19 23 -54 75 -78 114 l-44 73 -85 2 c-47 2 -109 2 -137 2 -29
-1 -53 1 -53 4 0 3 10 16 22 30 22 23 27 23 154 20 112 -3 135 -6 152 -22z
m-973 -66 c3 -5 42 -28 86 -51 44 -23 78 -43 76 -46 -2 -2 -31 10 -63 27 -50
27 -65 30 -105 25 -33 -5 -56 -2 -76 8 -19 10 -34 12 -44 6 -8 -5 -25 -8 -39
-8 -23 1 -22 2 10 16 21 9 48 13 71 9 26 -4 40 -2 49 9 14 17 26 19 35 5z
m-118 -74 c21 -3 79 -12 128 -21 50 -10 117 -20 150 -24 59 -6 60 -7 63 -38 2
-25 -5 -40 -32 -71 l-36 -39 20 -26 c20 -25 26 -47 13 -47 -4 0 -22 14 -40 32
l-33 32 10 -33 c9 -33 -4 -81 -22 -81 -11 0 -10 14 2 26 22 22 1 40 -40 36
-23 -2 -47 1 -55 8 -13 11 -20 1 -50 -61 l-36 -74 6 48 c6 42 4 47 -14 47 -11
0 -23 -5 -27 -11 -10 -17 -24 11 -24 51 l-1 35 -29 -32 c-16 -18 -32 -33 -35
-33 -8 0 24 72 40 90 22 24 18 31 -10 18 -14 -6 -27 -9 -30 -7 -2 3 -10 40
-16 83 -9 62 -9 82 1 102 13 23 15 23 37 9 12 -9 40 -17 60 -19z m589 -187
c-21 -24 -26 -41 -26 -84 0 -30 5 -66 10 -81 9 -24 9 -25 -5 -14 -18 15 -35
72 -35 119 0 24 8 44 27 63 38 39 62 37 29 -3z m64 18 c0 -2 -18 -20 -39 -41
-32 -32 -39 -35 -34 -17 5 21 47 61 64 61 5 0 9 -1 9 -3z m-720 -228 c0 -6 10
-33 21 -60 17 -38 39 -64 97 -110 71 -58 123 -94 182 -127 l25 -14 -26 6 c-44
10 -99 -56 -201 -235 l-54 -97 -27 127 c-43 203 -58 379 -41 484 6 33 24 53
24 26z m725 -40 c-34 -35 -128 -88 -211 -120 -22 -8 -23 -7 -15 9 5 9 38 45
74 80 59 58 66 62 88 52 20 -9 33 -8 60 3 19 9 36 16 39 16 2 1 -14 -17 -35
-40z m-652 3 c3 -4 8 -23 12 -42 7 -32 6 -33 -9 -21 -19 16 -46 64 -46 81 0
11 34 -3 43 -18z m736 -65 c-6 -38 -32 -102 -73 -185 -59 -118 -126 -293 -126
-329 0 -8 -39 36 -86 98 -47 63 -109 138 -137 166 -28 29 -49 54 -46 56 27 24
161 94 260 135 68 29 144 68 169 86 25 18 46 33 46 32 1 0 -2 -27 -7 -59z
m-645 33 c77 -26 115 -55 137 -105 19 -43 16 -85 -6 -85 -16 0 -125 72 -149
99 -15 16 -51 111 -42 111 2 0 28 -9 60 -20z m202 -324 c18 -14 17 -18 -41
-133 -57 -112 -83 -141 -105 -116 -4 4 -11 56 -15 116 l-7 107 44 20 c51 23
97 25 124 6z m1438 -177 c43 -11 95 -28 115 -39 32 -16 34 -19 16 -25 -67 -21
-133 -62 -195 -121 -58 -55 -80 -85 -116 -159 -24 -50 -44 -96 -44 -103 0 -33
-23 2 -107 166 l-93 178 68 44 c84 56 179 90 235 83 23 -3 77 -13 121 -24z
m-478 -111 c11 -32 10 -38 -6 -53 -11 -10 -101 -50 -201 -90 l-181 -72 -19 31
c-10 17 -18 36 -16 41 6 19 369 186 396 182 8 -1 20 -19 27 -39z m727 -2 c47
-44 77 -135 77 -234 0 -49 -16 -122 -27 -122 -3 0 -31 12 -62 27 -65 32 -132
34 -196 8 -32 -14 -37 -14 -27 -2 20 24 130 68 188 76 30 4 57 11 61 15 11 11
-53 66 -77 66 -28 0 -66 -18 -143 -69 -62 -39 -121 -100 -184 -186 -12 -17
-24 -27 -28 -24 -12 12 35 182 70 254 66 138 163 215 271 215 40 0 57 -5 77
-24z m-832 -130 c-6 -7 -46 -40 -89 -71 -42 -32 -93 -71 -114 -86 l-36 -28
-15 37 c-8 20 -14 38 -12 40 3 3 265 119 274 121 2 1 -2 -5 -8 -13z m77 -143
c-14 -18 -328 -227 -332 -222 -1 2 -12 21 -24 41 l-21 37 57 50 c31 27 111 92
177 143 l120 94 18 -64 c14 -52 15 -67 5 -79z m-358 -62 c-1 -12 -39 64 -39
79 0 8 8 -5 19 -29 11 -24 20 -46 20 -50z m1075 -10 c16 -7 13 -9 -20 -15 -60
-12 -89 -31 -129 -85 -36 -48 -63 -64 -163 -95 -35 -11 -28 -1 33 48 65 54 62
58 -12 15 -30 -17 -54 -26 -54 -21 0 18 87 100 129 121 70 36 168 50 216 32z
m60 -57 c24 -26 45 -99 45 -159 0 -64 -6 -66 -67 -29 -31 18 -75 41 -99 50
l-43 16 62 73 c34 41 66 74 70 74 4 1 19 -11 32 -25z m-1205 -220 c7 -19 10
-37 8 -39 -1 -1 -22 -6 -46 -10 l-43 -7 26 51 c14 29 30 49 35 46 5 -3 14 -21
20 -41z m68 -136 l20 -47 -56 -11 c-31 -7 -82 -18 -113 -26 -31 -8 -60 -14
-64 -14 -8 0 0 28 26 96 l20 51 62 10 c72 11 76 8 105 -59z m59 -128 l21 -40
-36 -10 c-34 -9 -317 -70 -327 -70 -3 0 6 23 18 52 l23 52 119 27 c159 36 156
36 182 -11z"/>
<path d="M2254 3715 c-10 -8 -14 -15 -8 -15 6 0 17 7 24 15 16 19 9 19 -16 0z"/>
<path d="M2267 3579 c6 -6 33 -13 60 -15 l48 -4 -55 15 c-68 18 -66 17 -53 4z"/>
<path d="M2744 3491 c19 -36 64 -51 151 -50 l60 1 -68 13 c-38 8 -89 26 -113
40 l-45 27 15 -31z"/>
<path d="M3500 2833 c17 -24 20 -35 12 -50 -6 -11 -14 -44 -17 -74 l-7 -54 31
63 c37 76 38 83 9 109 -39 35 -52 37 -28 6z"/>
<path d="M3661 2798 c-7 -30 -24 -99 -40 -154 -45 -157 -45 -179 -1 -54 79
220 82 232 66 248 -12 12 -16 7 -25 -40z"/>
<path d="M3631 2795 c-1 -11 -4 -31 -7 -45 -5 -22 -4 -23 6 -7 6 10 9 30 7 45
-3 18 -5 20 -6 7z"/>
<path d="M2390 2960 c-20 -12 9 -70 38 -76 15 -3 46 -9 69 -15 62 -14 65 -12
58 19 -5 26 -2 29 46 50 29 12 51 24 48 26 -2 2 -30 -1 -62 -6 -37 -6 -81 -7
-122 -1 -36 5 -69 7 -75 3z"/>
<path d="M2445 4010 c77 -32 283 -71 365 -69 46 1 -8 16 -105 28 -49 7 -123
21 -164 32 -79 20 -136 26 -96 9z"/>
<path d="M2384 3955 c33 -14 62 -23 64 -20 7 7 -80 45 -103 44 -11 0 7 -11 39
-24z"/>
<path d="M2951 3937 c10 -9 89 -36 89 -31 0 6 -65 34 -81 34 -7 0 -10 -2 -8
-3z"/>
<path d="M2514 3921 c18 -29 173 -52 206 -31 11 7 6 10 -21 10 -34 0 -135 16
-173 27 -12 3 -16 1 -12 -6z"/>
<path d="M2840 3871 c-11 -8 4 -11 55 -11 39 0 86 -4 105 -10 32 -9 33 -9 17
7 -20 21 -152 30 -177 14z"/>
<path d="M3029 1598 c-64 -127 -260 -599 -258 -622 0 -6 4 -2 9 9 18 39 119
282 163 390 25 61 66 154 91 208 25 53 43 97 41 97 -3 0 -23 -37 -46 -82z"/>
<path d="M2270 1589 c0 -3 -9 -45 -19 -94 -22 -102 -75 -485 -91 -656 -6 -71
-7 -125 -1 -144 l9 -30 1 37 c2 70 61 574 86 727 13 85 22 157 20 160 -3 2 -5
2 -5 0z"/>
<path d="M3530 1430 c-11 -11 -20 -24 -20 -29 0 -10 57 -159 99 -259 17 -40
62 -128 100 -195 38 -67 73 -131 79 -142 9 -16 11 -9 11 40 0 33 -5 83 -10
110 -5 28 -12 73 -16 100 -3 28 -10 56 -16 64 -6 7 -10 28 -8 46 2 26 -4 37
-26 55 -21 16 -27 28 -24 52 3 33 -22 68 -50 68 -15 0 -17 6 -12 33 4 28 1 37
-22 55 -34 27 -59 28 -85 2z m43 -70 c3 -11 1 -18 -4 -14 -5 3 -9 12 -9 20 0
20 7 17 13 -6z m67 -142 c9 -3 10 -7 3 -11 -6 -4 -19 3 -29 16 -11 12 -12 17
-4 11 8 -6 22 -13 30 -16z m28 -75 c1 -24 0 -25 -9 -10 -5 9 -7 22 -4 27 9 15
10 13 13 -17z m57 -43 c-3 -5 -14 -10 -23 -9 -14 0 -13 2 3 9 27 11 27 11 20
0z"/>
<path d="M2271 1274 c0 -11 3 -14 6 -6 3 7 2 16 -1 19 -3 4 -6 -2 -5 -13z"/>
<path d="M903 992 c-48 -60 -53 -76 -51 -159 2 -97 -9 -124 -132 -313 -125
-192 -160 -276 -160 -385 0 -24 -6 -35 -26 -46 -28 -14 -74 -65 -74 -80 0 -17
17 -9 29 15 7 13 32 35 56 50 42 27 43 29 54 104 8 55 20 91 43 127 193 308
238 392 238 443 0 22 6 16 30 -34 17 -34 41 -69 54 -77 22 -15 22 -13 -10 62
-19 43 -41 108 -50 144 l-17 66 28 56 c15 31 25 58 23 61 -3 2 -18 -13 -35
-34z"/>
<path d="M4111 1010 c0 -3 15 -50 34 -105 19 -55 35 -91 35 -79 0 25 -32 120
-54 160 -8 16 -15 27 -15 24z"/>
<path d="M942 970 c0 -14 4 -36 8 -50 6 -20 8 -21 8 -5 0 11 -4 34 -8 50 -7
27 -8 27 -8 5z"/>
<path d="M4217 727 c-4 -37 -15 -102 -23 -143 -16 -79 -15 -113 3 -79 15 28
43 167 42 207 -1 18 -4 44 -8 58 -6 19 -9 9 -14 -43z"/>
<path d="M1481 734 c0 -11 3 -14 6 -6 3 7 2 16 -1 19 -3 4 -6 -2 -5 -13z"/>
<path d="M1491 688 c-1 -9 15 -95 35 -190 20 -95 48 -245 63 -332 14 -88 31
-161 38 -163 12 -4 -9 125 -62 372 -55 252 -73 331 -74 313z"/>
<path d="M4038 470 c-3 -221 1 -295 15 -345 18 -63 33 301 17 411 -20 140 -30
121 -32 -66z"/>
<path d="M4473 572 c18 -38 33 -65 35 -61 3 8 -55 129 -63 129 -2 0 10 -31 28
-68z"/>
<path d="M4247 417 c-19 -51 -45 -130 -57 -176 -25 -98 -38 -241 -22 -241 15
0 19 18 36 140 19 133 30 186 62 283 14 43 24 80 21 83 -2 2 -20 -37 -40 -89z"/>
<path d="M3173 385 c0 -22 2 -30 4 -17 2 12 2 30 0 40 -3 9 -5 -1 -4 -23z"/>
<path d="M1022 348 c5 -29 22 -82 39 -117 16 -35 29 -67 29 -72 0 -5 -12 -9
-27 -10 -16 0 -46 -7 -68 -14 l-40 -13 35 1 c19 1 56 -2 83 -7 46 -7 47 -7 47
19 0 14 -11 47 -24 73 -13 26 -34 76 -46 112 -30 85 -40 94 -28 28z"/>
<path d="M4532 305 c-2 -78 -21 -159 -56 -247 -17 -43 -20 -58 -11 -58 33 0
78 190 73 305 l-4 70 -2 -70z"/>
<path d="M3156 223 c-4 -65 -8 -140 -10 -168 -3 -30 -1 -42 3 -30 9 21 25 315
17 315 -2 0 -7 -53 -10 -117z"/>
<path d="M701 40 c-67 -24 -94 -47 -41 -34 36 8 51 8 275 0 l130 -5 -60 29
c-54 27 -69 30 -155 30 -68 -1 -110 -6 -149 -20z"/>
</g>
</svg>