<?xml version="1.0" standalone="no"?>
<!DOCTYPE svg PUBLIC "-//W3C//DTD SVG 20010904//EN"
 "http://www.w3.org/TR/2001/REC-SVG-20010904/DTD/svg10.dtd">
<svg version="1.0" xmlns="http://www.w3.org/2000/svg"
 width="512.000000pt" height="512.000000pt" viewBox="0 0 512.000000 512.000000"
 preserveAspectRatio="xMidYMid meet">
<metadata>
Created by potrace 1.16, written by Peter Selinger 2001-2019
</metadata>
<g transform="translate(0.000000,512.000000) scale(0.100000,-0.100000)"
fill="#000000" stroke="none">
<path d="M161 4913 c1 -115 5 -260 9 -323 6 -100 7 -84 8 119 l2 234 108 -104
c112 -110 179 -165 188 -157 3 3 -63 71 -146 150 l-150 145 0 71 c0 41 -4 72
-10 72 -6 0 -10 -75 -9 -207z"/>
<path d="M662 3786 l3 -1333 -35 3 c-56 6 -380 34 -395 34 -13 0 -15 109 -17
788 l-3 787 -104 62 c-58 34 -107 60 -109 58 -10 -10 20 -33 97 -76 l81 -44 2
-110 2 -110 3 103 c2 58 8 102 14 102 6 0 8 -269 5 -777 -4 -751 -5 -778 -22
-776 -132 13 -184 14 -184 5 0 -10 19 -13 152 -28 l58 -6 0 -337 0 -337 -101
-24 c-90 -22 -119 -34 -107 -45 4 -4 143 26 191 41 16 5 17 -31 19 -643 l3
-648 5 650 5 650 60 13 c100 22 135 32 135 41 0 8 -50 0 -168 -25 l-32 -7 0
337 0 336 37 -5 c21 -3 121 -12 222 -20 101 -8 185 -16 187 -18 2 -2 4 -378 4
-836 l1 -832 -98 -66 c-245 -166 -573 -405 -573 -420 0 -18 11 -12 121 67 111
80 430 304 511 359 l78 52 0 -65 0 -65 -82 -63 c-176 -133 -491 -388 -503
-408 -3 -6 2 -10 12 -10 18 0 513 389 596 468 23 22 150 129 282 237 470 385
486 397 509 391 11 -3 75 -6 141 -6 l119 0 -70 -72 c-39 -40 -145 -154 -234
-253 -90 -99 -304 -331 -476 -515 -172 -184 -322 -347 -334 -362 l-21 -28 32
0 c25 0 39 9 68 42 34 40 149 167 457 504 71 78 237 264 369 412 l240 271 198
1 c108 0 197 -2 197 -5 0 -3 -27 -60 -60 -127 -52 -109 -127 -283 -278 -653
-24 -60 -73 -186 -107 -278 l-63 -168 36 3 36 3 52 145 c29 80 69 192 91 250
l39 105 465 3 466 2 12 -222 c16 -299 14 -288 62 -288 l39 0 0 43 c0 42 -23
301 -36 414 l-6 53 140 0 140 0 10 -32 c6 -18 39 -133 73 -256 l62 -222 29 0
c15 0 28 5 28 11 0 17 -156 521 -190 614 -16 44 -31 105 -34 135 -3 31 -13 77
-22 103 l-16 47 -527 0 c-290 0 -530 3 -534 6 -5 6 27 86 97 237 l35 77 96 0
95 0 0 -55 0 -55 -42 -2 -43 -1 38 -4 c35 -4 37 -6 37 -42 0 -46 14 -61 60
-61 44 0 80 33 80 73 l0 27 233 3 232 2 -232 3 -233 2 0 39 c0 77 -38 71 450
71 l438 0 203 -214 c112 -117 206 -212 208 -210 5 5 -85 107 -247 281 l-133
143 83 0 84 0 282 -282 c156 -156 291 -296 301 -313 30 -50 228 -245 248 -245
11 1 95 -78 208 -196 144 -149 195 -195 210 -192 16 3 -27 52 -213 245 l-233
241 3 101 3 100 225 -205 c265 -242 415 -374 424 -374 27 0 -15 51 -110 136
-61 55 -206 185 -323 289 l-213 190 6 125 c3 69 11 338 18 597 7 275 16 473
21 473 17 0 280 -72 426 -116 79 -24 146 -42 149 -40 2 3 -61 25 -140 50 -124
39 -211 64 -405 115 l-43 12 0 70 c0 67 1 69 23 65 12 -3 105 -22 207 -42 175
-34 333 -68 373 -80 12 -4 17 0 17 13 0 16 -21 23 -132 47 -170 36 -444 86
-470 86 l-21 0 8 806 c7 759 6 806 -11 825 -9 10 -22 19 -28 19 -6 0 -48 -25
-94 -55 l-82 -55 0 63 c0 55 3 65 20 73 12 5 49 35 83 67 34 33 121 100 192
151 l130 93 5 -356 c4 -309 7 -356 20 -353 8 1 97 42 197 90 130 62 183 92
183 104 0 13 -41 -3 -184 -73 -102 -49 -187 -89 -190 -89 -3 0 -6 156 -6 348
l1 347 62 45 c208 149 317 234 317 247 0 17 -21 6 -90 -47 -19 -15 -41 -30
-49 -35 -12 -7 -13 49 -7 398 3 226 3 407 -2 407 -8 0 -21 -427 -23 -719 l0
-116 -102 -72 -102 -73 -3 118 c-2 64 0 253 3 420 l7 303 44 53 c57 69 56 82
-1 26 l-45 -44 0 36 c0 43 -8 68 -22 68 -6 0 -8 -21 -6 -50 3 -33 1 -53 -7
-58 -13 -7 -145 -169 -145 -177 0 -11 9 -1 80 87 52 64 76 87 78 75 2 -10 -25
-52 -65 -100 -115 -136 -239 -291 -247 -307 -13 -25 71 69 179 200 149 183
140 182 132 16 -4 -77 -7 -262 -7 -411 l0 -272 -137 -99 c-76 -55 -167 -127
-203 -161 -36 -35 -68 -63 -72 -63 -4 0 -8 15 -10 32 -2 20 -9 34 -19 36 -14
3 -210 -142 -301 -222 l-38 -33 0 -507 c0 -401 3 -508 13 -512 21 -8 307 32
320 45 9 9 12 127 12 487 l0 476 78 54 77 55 0 -1061 c0 -583 -2 -1060 -4
-1060 -2 0 -79 35 -172 78 -93 43 -244 111 -336 152 l-168 74 0 74 0 74 33 -8
c56 -12 429 -140 517 -177 62 -26 88 -33 97 -25 9 7 13 40 13 104 0 105 -7
115 -84 130 -47 8 -56 -2 -56 -71 0 -60 7 -73 47 -84 37 -11 43 -2 43 65 0 34
-4 44 -17 44 -9 0 -14 3 -10 6 3 3 15 3 26 -1 19 -6 21 -14 21 -86 0 -43 -3
-79 -6 -79 -3 0 -99 31 -213 70 -113 38 -252 83 -308 100 -85 25 -103 34 -103
50 0 11 -4 20 -10 20 -5 0 -11 -44 -12 -99 -3 -95 -4 -98 -24 -91 l-20 8 2
1167 c2 1001 4 1169 17 1183 27 32 204 317 332 537 174 298 178 305 172 311
-3 3 -24 -27 -48 -68 -151 -262 -284 -483 -368 -612 l-96 -150 -3 153 c-2 122
0 156 11 165 15 11 43 62 192 349 76 147 84 168 65 165 -17 -2 -46 -51 -139
-233 l-117 -230 -1108 -5 -1108 -5 -154 220 c-193 276 -179 257 -202 253 -17
-3 -6 -23 78 -139 54 -75 137 -193 184 -263 l86 -126 0 -217 0 -218 -29 30
c-15 17 -151 172 -302 345 -150 173 -308 354 -351 401 -76 84 -78 88 -78 138
l0 51 -36 0 -35 0 3 -1334z m506 691 l322 -367 0 -570 c0 -450 -3 -570 -12
-569 -7 0 -69 19 -138 43 l-125 43 -3 41 c-2 22 -8 45 -15 50 -7 6 -56 27
-110 47 -78 29 -101 34 -112 25 -12 -10 -15 -54 -15 -246 0 -279 -10 -261 145
-266 l100 -3 3 163 c1 89 4 162 5 162 1 0 63 -20 137 -44 l135 -43 2 -749 2
-749 -177 -118 c-97 -65 -262 -177 -367 -248 -104 -71 -193 -129 -197 -129 -5
0 -8 49 -8 109 l0 110 58 34 c60 36 263 148 522 288 92 49 148 85 137 87 -17
4 -212 -95 -537 -272 l-175 -95 -3 426 c-1 234 -1 427 0 429 4 3 470 84 486
84 8 0 12 -18 12 -57 0 -31 2 -54 6 -51 3 3 5 93 4 200 l0 195 107 7 c98 6
123 11 112 19 -2 2 -114 -5 -249 -14 -182 -13 -211 -17 -112 -14 l132 4 0
-135 c0 -131 -1 -134 -22 -138 -13 -3 -124 -22 -248 -44 l-225 -39 -7 186 c-5
102 -7 549 -5 992 l2 806 155 -114 c85 -63 199 -144 252 -180 l98 -66 3 -326
2 -326 3 331 2 331 -260 194 -260 194 0 431 0 432 58 -61 c32 -34 203 -227
380 -430z m2495 16 c4 -54 7 -122 7 -151 l0 -52 -1067 2 -1068 3 -3 148 -3
147 1064 0 1064 0 6 -97z m-17 -288 c-28 -47 -26 -57 6 -28 17 16 18 -23 18
-1228 0 -684 -3 -1342 -7 -1461 l-6 -218 -61 3 -61 2 -7 535 c-9 730 -23 1298
-32 1307 -4 5 -5 -408 0 -916 6 -776 5 -923 -7 -919 -11 4 -13 231 -11 1394
l3 1389 24 37 c14 20 33 42 43 47 18 10 19 -13 26 -753 4 -420 4 -896 1 -1057
-5 -192 -4 -291 2 -284 19 19 36 982 28 1559 -4 304 -11 549 -16 558 -5 10
-16 18 -23 18 -17 0 -121 -111 -141 -151 l-16 -29 -814 0 -815 0 -61 75 c-75
92 -93 96 -85 23 7 -65 20 -1563 18 -2033 -1 -187 -5 -442 -8 -568 l-7 -227
-42 0 -42 0 -5 97 c-7 140 -10 2852 -3 2864 4 5 414 9 1067 9 l1060 0 -26 -45z
m-1936 -989 c0 -675 -2 -816 -13 -816 -11 0 -15 131 -20 733 -4 402 -10 786
-13 852 l-6 120 26 -37 26 -37 0 -815z m1057 723 c-3 -12 -2 -32 3 -45 l10
-24 227 2 228 3 3 43 3 42 85 0 84 0 0 -470 c0 -258 -1 -470 -3 -470 -1 0 -18
4 -36 10 -61 17 -61 17 -61 -278 0 -174 3 -263 10 -256 6 6 11 114 12 263 2
206 6 255 17 259 22 7 6 -526 -17 -550 -8 -10 -19 -18 -24 -18 -6 0 -7 262 -2
673 4 371 4 686 0 702 l-7 28 -687 -7 c-378 -4 -694 -5 -703 -1 -9 3 -37 31
-63 61 l-47 54 487 0 486 0 -5 -21z m443 -19 c0 -19 -7 -20 -205 -20 -198 0
-205 1 -205 20 0 19 7 20 205 20 198 0 205 -1 205 -20z m-1260 -840 l0 -687
-31 -7 c-17 -3 -53 -6 -80 -6 l-49 0 0 778 1 777 79 -84 80 -84 0 -687z m2300
721 c0 -13 -271 -214 -278 -206 -8 7 22 32 167 142 95 72 111 81 111 64z
m-2220 -556 c0 -400 -3 -555 -11 -555 -7 0 -9 -13 -5 -37 9 -56 9 -57 2 -74
-4 -10 -1 -23 8 -32 10 -9 16 -33 16 -59 0 -38 -5 -48 -30 -66 l-30 -23 0 701
0 700 25 0 25 0 0 -555z m130 16 l0 -539 -22 1 c-13 0 -38 -3 -55 -7 l-33 -8
0 546 0 546 55 0 55 0 0 -539z m390 -95 l0 -635 -42 -5 c-90 -11 -104 -14
-149 -26 -44 -13 -79 -10 -109 9 -12 8 -12 14 -2 33 11 20 10 29 -2 53 -9 17
-16 39 -16 49 0 11 -7 27 -15 37 -14 15 -16 86 -18 568 l-2 551 178 0 177 0 0
-634z m130 -1 l0 -635 -45 0 -45 0 0 635 0 635 45 0 45 0 0 -635z m543 627
c16 -4 17 -46 17 -698 l0 -694 -186 0 c-121 0 -193 4 -207 12 -12 6 -46 31
-74 56 l-53 44 0 638 c0 350 3 640 6 643 8 7 468 6 497 -1z m1027 -51 c0 -9
-55 -52 -175 -137 -91 -65 -98 -69 -94 -55 4 11 248 199 262 200 4 1 7 -3 7
-8z m-3 -561 c0 -286 -3 -522 -6 -525 -7 -4 -234 -35 -258 -35 -10 0 -13 87
-13 438 l0 439 125 88 c69 48 130 94 136 101 6 8 12 14 14 14 1 0 2 -234 2
-520z m-3152 -29 c70 -25 80 -32 83 -54 l3 -26 -72 24 c-84 29 -89 30 -89 11
0 -14 106 -56 142 -56 16 0 18 -12 18 -136 l0 -136 -62 7 c-35 3 -75 8 -90 11
l-28 6 0 189 c0 104 3 189 8 189 4 0 43 -13 87 -29z m2292 -523 c-1 -68 -3
-13 -3 122 0 135 2 190 3 123 2 -68 2 -178 0 -245z m-2239 127 c20 0 32 -5 32
-14 0 -13 -48 -11 -147 6 -58 9 -36 24 25 16 31 -4 72 -8 90 -8z m1053 -162
c6 -16 13 -41 15 -58 1 -16 6 -46 9 -67 6 -31 4 -38 -15 -48 -11 -6 -31 -10
-43 -8 -24 3 -69 64 -65 87 5 23 37 26 53 4 15 -19 20 -7 9 21 -7 18 -54 22
-71 5 -7 -7 -14 -2 -21 21 -9 23 -8 32 1 34 7 2 32 10 57 18 61 21 59 21 71
-9z m-121 -124 c0 -4 -7 -9 -15 -13 -12 -4 -15 3 -15 32 l1 37 14 -25 c8 -14
14 -28 15 -31z m673 -25 c31 -25 57 -50 57 -54 0 -5 -9 -14 -20 -20 -15 -8
-29 -4 -67 20 -43 28 -54 30 -103 25 -132 -14 -137 -15 -148 -39 -13 -29 -7
-39 100 -158 90 -102 113 -142 122 -218 l7 -55 -38 64 c-21 35 -79 107 -129
160 -49 53 -105 117 -124 143 -18 27 -36 46 -38 43 -9 -9 53 -90 118 -155 41
-40 51 -53 27 -35 -61 45 -124 124 -168 208 -36 70 -38 78 -22 83 10 3 34 12
53 19 23 9 82 14 175 14 l140 1 58 -46z m657 -555 l0 -601 -51 44 -51 44 2
514 1 514 42 41 c23 23 45 43 50 43 4 1 7 -268 7 -599z m-1110 519 c18 -59
107 -187 171 -249 33 -31 59 -62 59 -68 0 -7 -26 -24 -57 -39 -61 -28 -147
-36 -224 -19 l-36 7 -12 -52 c-7 -29 -15 -81 -18 -115 -4 -44 -10 -63 -20 -63
-19 0 -21 7 -38 188 -19 203 -19 236 1 323 13 58 18 68 30 58 8 -6 14 -18 14
-25 0 -8 13 -60 29 -117 16 -56 32 -114 35 -128 4 -20 17 -31 47 -43 46 -19
59 -13 79 33 10 26 7 37 -39 123 -28 52 -51 101 -51 110 0 8 -8 23 -19 32 -18
17 -18 18 3 56 23 43 28 42 46 -12z m-184 -1 c2 -7 -5 -39 -17 -72 -13 -36
-23 -97 -26 -152 -5 -83 -8 -93 -25 -93 -30 0 -30 19 -3 109 14 47 25 94 25
105 l-1 21 -17 -21 c-14 -17 -34 -23 -94 -28 -42 -4 -97 -4 -122 -1 -44 7 -46
9 -46 41 l0 34 63 0 c82 1 131 13 176 44 38 28 79 34 87 13z m94 -37 c0 -5 -4
-10 -10 -10 -5 0 -10 5 -10 10 0 6 5 10 10 10 6 0 10 -4 10 -10z m644 -5 c14
-14 13 -18 -5 -36 -19 -19 -23 -20 -37 -5 -14 14 -14 17 3 36 22 24 20 24 39
5z m-1112 -20 c-5 -28 -6 -29 -33 -15 -29 16 -24 40 10 40 25 0 28 -3 23 -25z
m806 -15 l2 -35 -24 29 c-26 32 -25 49 2 44 11 -2 18 -15 20 -38z m132 -77 c0
-113 -1 -117 -17 -93 -9 14 -29 40 -45 58 -24 28 -28 41 -28 92 l0 60 45 0 45
0 0 -117z m554 97 c4 -5 9 -427 7 -677 l-1 -93 -72 0 -73 0 3 352 c3 348 1
404 -18 393 -6 -4 -10 -148 -10 -376 l0 -369 -170 0 -170 0 0 74 0 75 33 3 32
3 -1 75 c-1 57 -10 101 -38 184 -33 100 -36 118 -36 226 0 64 3 120 6 123 12
11 64 -34 78 -67 10 -24 22 -35 42 -39 63 -12 103 37 71 87 -9 13 -13 27 -9
31 8 8 317 3 326 -5z m-997 -22 c16 -23 96 -229 90 -234 -17 -17 -48 24 -76
102 -17 47 -36 95 -42 105 -16 31 8 54 28 27z m-527 -545 c0 -494 0 -503 -20
-503 -19 0 -19 6 -14 293 9 527 16 740 25 726 5 -8 9 -240 9 -516z m1186 516
c8 -13 -3 -24 -33 -34 -18 -5 -23 -2 -23 13 0 10 3 22 7 25 10 11 41 8 49 -4z
m-988 -59 l42 0 0 -429 0 -429 -59 -51 c-32 -28 -68 -51 -80 -51 l-21 0 0 486
0 487 38 -7 c20 -3 56 -6 80 -6z m106 -22 c-3 -12 -13 -35 -20 -52 l-13 -31
-1 37 c0 46 8 68 27 68 10 0 12 -6 7 -22z m-21 -129 c-4 -15 0 -22 16 -26 21
-5 21 -7 21 -319 l0 -314 -25 0 -25 0 0 340 c0 197 4 340 9 340 5 0 7 -9 4
-21z m667 -140 c17 -38 20 -66 20 -207 l0 -163 -47 3 -48 3 -3 238 -2 238 30
-34 c16 -19 39 -54 50 -78z m-586 79 c2 -13 9 -61 15 -108 12 -90 33 -133 68
-138 19 -3 21 -13 27 -95 3 -51 8 -129 12 -174 l7 -83 -77 0 -76 0 0 310 c0
196 4 310 10 310 5 0 12 -10 14 -22z m460 -30 c3 -24 8 -206 11 -405 6 -355 6
-362 -14 -372 -43 -24 -51 -15 -51 53 0 121 -21 361 -43 491 l-22 130 -45 2
c-41 2 -42 1 -18 -8 20 -8 29 -20 34 -46 10 -53 -2 -149 -23 -191 -34 -64
-121 -107 -137 -66 -8 22 -9 289 0 362 l6 60 30 -10 c48 -17 179 -5 219 19 19
12 37 22 41 22 4 1 9 -18 12 -41z m1796 -19 c0 -16 -4 -29 -9 -29 -10 0 -19
40 -13 58 7 21 22 2 22 -29z m-1561 -149 c10 -59 7 -70 -13 -70 -18 0 -26 46
-25 139 l1 76 14 -45 c8 -25 18 -70 23 -100z m974 -146 l0 -199 10 193 c5 105
13 192 18 192 11 0 257 -110 422 -189 78 -37 166 -78 196 -91 l53 -25 -7 -415
c-4 -228 -10 -432 -14 -453 l-6 -38 -92 94 -93 94 0 105 c0 176 -13 529 -19
522 -3 -3 -8 -155 -11 -337 l-5 -332 -105 96 c-126 114 -135 121 -127 88 4
-16 -41 24 -133 116 l-139 141 0 332 0 332 26 -14 27 -14 -1 -198z m-1358
-210 c10 -8 25 -14 32 -14 7 0 13 -7 13 -15 0 -12 -18 -15 -105 -15 l-105 0 0
53 0 53 40 1 c21 1 52 9 67 17 l28 14 6 -40 c3 -23 14 -47 24 -54z m281 66
c10 0 14 -15 14 -55 l0 -55 -45 0 -45 0 0 61 0 62 31 -7 c17 -3 38 -6 45 -6z
m582 -19 c2 -13 1 -39 -3 -57 l-6 -34 -253 0 c-282 0 -266 -4 -266 70 l0 39
53 4 c28 2 147 3 262 3 l210 -1 3 -24z m-1758 -178 l0 -68 -83 -66 c-45 -37
-208 -168 -361 -293 -154 -124 -284 -226 -288 -226 -4 0 -8 51 -8 113 l1 112
212 143 c117 79 281 190 364 248 84 57 155 104 158 104 3 0 5 -30 5 -67z m940
27 c0 -19 -7 -20 -97 -21 l-98 -2 98 -10 c71 -7 97 -13 97 -23 0 -8 -8 -15
-17 -15 -17 -1 -17 -2 0 -6 9 -2 17 -9 17 -14 0 -5 -115 -9 -280 -9 l-281 0
68 60 68 59 213 1 c205 0 212 -1 212 -20z m882 -40 l69 -60 -395 0 -396 0 0
35 0 35 208 2 207 2 -205 6 c-185 4 -205 7 -208 23 -3 16 17 17 323 17 l327 0
70 -60z m838 -525 c30 -32 46 -53 35 -47 -11 6 -58 50 -105 98 -61 63 -71 76
-35 47 28 -23 75 -67 105 -98z m-980 8 c16 -75 47 -204 56 -226 6 -16 -7 -17
-153 -17 l-160 0 -6 63 c-10 101 -29 218 -35 212 -7 -7 -3 -197 5 -242 l5 -33
-447 0 c-422 0 -447 1 -441 18 59 165 103 265 121 272 11 4 250 9 532 9 l511
2 12 -58z m1249 -233 c0 -22 -11 -13 -84 64 -62 66 -85 97 -85 115 1 23 11 15
85 -64 60 -64 85 -97 84 -115z m1 -74 c0 -13 -98 83 -112 109 -6 11 17 -7 51
-40 33 -33 61 -64 61 -69z"/>
<path d="M1244 3975 c0 -115 2 -161 3 -102 2 59 2 154 0 210 -1 56 -3 8 -3
-108z"/>
<path d="M3076 4457 c-14 -10 -17 -21 -12 -41 l6 -26 218 2 217 3 0 35 0 35
-205 3 c-161 2 -210 -1 -224 -11z m411 -34 c-3 -4 -79 -7 -169 -6 -239 3 -247
7 -28 13 107 3 197 4 199 3 1 -1 1 -5 -2 -10z"/>
<path d="M1795 4450 c-12 -5 51 -9 163 -9 115 -1 182 3 182 9 0 12 -316 12
-345 0z"/>
<path d="M2278 4163 c215 -2 569 -2 785 0 215 1 39 2 -393 2 -432 0 -608 -1
-392 -2z"/>
<path d="M1772 4118 c4 -10 179 -14 821 -16 724 -2 816 0 811 13 -5 13 -104
15 -821 15 -647 0 -814 -3 -811 -12z"/>
<path d="M1582 2275 c0 -16 2 -22 5 -12 2 9 2 23 0 30 -3 6 -5 -1 -5 -18z"/>
<path d="M3544 1460 c0 -69 1 -97 3 -62 2 34 2 90 0 125 -2 34 -3 6 -3 -63z"/>
<path d="M2110 2820 c0 -5 5 -10 10 -10 6 0 10 5 10 10 0 6 -4 10 -10 10 -5 0
-10 -4 -10 -10z"/>
<path d="M3077 3540 c-13 -173 -4 -1003 11 -1008 9 -3 12 72 11 355 -1 197 -5
448 -8 558 l-6 200 -8 -105z"/>
<path d="M4104 3531 c-44 -28 -86 -56 -92 -64 -14 -17 -19 -614 -5 -628 9 -9
191 35 205 49 5 5 7 161 6 348 -3 292 -5 339 -18 342 -8 1 -51 -20 -96 -47z
m86 -306 l0 -304 -66 -21 c-36 -11 -72 -20 -80 -20 -12 0 -14 47 -14 279 l0
279 72 46 c39 25 75 46 80 46 4 0 8 -137 8 -305z"/>
<path d="M1020 2922 l0 -70 48 -7 c26 -3 57 -9 70 -12 21 -5 22 -3 22 61 l0
65 -38 10 c-21 6 -52 14 -70 17 l-32 7 0 -71z m103 11 c4 -2 7 -18 7 -35 0
-27 -3 -30 -22 -24 -13 3 -31 6 -40 6 -14 0 -18 8 -18 36 0 35 1 35 33 29 17
-4 35 -9 40 -12z"/>
<path d="M2850 1721 c0 -69 4 -122 10 -126 6 -4 10 38 10 119 0 77 -4 126 -10
126 -6 0 -10 -46 -10 -119z"/>
<path d="M3078 1343 c12 -2 30 -2 40 0 9 3 -1 5 -23 4 -22 0 -30 -2 -17 -4z"/>
<path d="M4491 4918 c0 -123 4 -195 9 -183 12 29 12 385 0 385 -6 0 -10 -74
-9 -202z"/>
<path d="M948 5080 c19 -31 329 -453 360 -489 59 -70 -138 209 -282 399 -89
118 -109 141 -78 90z"/>
<path d="M3767 4952 c-82 -170 -109 -233 -102 -240 2 -3 19 26 36 64 17 38 56
122 86 187 30 66 53 121 50 123 -2 2 -33 -58 -70 -134z"/>
<path d="M4278 4643 c-200 -268 -275 -373 -265 -373 3 0 96 123 208 273 111
149 207 278 212 285 5 7 8 15 5 17 -3 3 -75 -88 -160 -202z"/>
<path d="M0 4557 c1 -24 37 -52 355 -276 169 -120 275 -185 260 -161 -7 11
-338 260 -425 320 -19 13 -70 50 -112 82 -70 51 -78 55 -78 35z"/>
<path d="M100 4424 c0 -3 23 -26 50 -51 l50 -45 0 -88 c0 -49 5 -92 10 -95 13
-8 13 170 0 195 -10 18 -110 95 -110 84z"/>
<path d="M3946 4344 c-10 -27 -7 -314 4 -314 6 0 10 62 10 165 0 91 -2 165 -4
165 -2 0 -7 -7 -10 -16z"/>
<path d="M3808 4002 l-68 -73 0 -124 c0 -68 -5 -136 -10 -151 -6 -15 -8 -29
-5 -32 3 -4 9 5 13 18 4 14 9 -63 12 -170 4 -165 3 -197 -10 -208 -13 -12 -13
-13 0 -9 19 6 190 116 190 123 0 11 -24 0 -94 -46 l-76 -50 0 58 1 57 65 44
c35 24 63 46 60 48 -2 3 -32 -14 -65 -36 l-61 -42 0 259 c0 251 1 259 21 278
36 33 101 113 97 122 -1 4 -33 -26 -70 -66z"/>
<path d="M3845 3890 c-44 -44 -75 -80 -70 -80 6 0 46 36 90 80 44 44 75 80 70
80 -6 0 -46 -36 -90 -80z"/>
<path d="M283 3419 c31 -18 201 -79 237 -85 56 -9 18 10 -114 55 -116 40 -158
51 -123 30z"/>
<path d="M3812 3239 c-61 -39 -62 -40 -61 -82 1 -23 4 -67 9 -97 7 -51 7 -48
9 40 l1 95 43 27 42 27 5 -57 6 -57 5 70 c2 39 4 71 4 72 0 1 -28 -16 -63 -38z"/>
<path d="M3821 3024 c-53 -28 -65 -39 -28 -25 38 15 87 41 87 46 0 8 -13 3
-59 -21z"/>
<path d="M4340 2831 c-14 -27 4 -71 29 -71 26 0 45 35 37 66 -8 30 -50 33 -66
5z m40 -31 c0 -5 -4 -10 -10 -10 -5 0 -10 5 -10 10 0 6 5 10 10 10 6 0 10 -4
10 -10z"/>
<path d="M4344 2727 c-3 -9 -4 -28 -2 -44 2 -22 8 -28 28 -28 23 0 25 4 25 40
0 34 -3 40 -23 43 -13 2 -24 -3 -28 -11z m36 -37 c0 -5 -4 -10 -10 -10 -5 0
-10 5 -10 10 0 6 5 10 10 10 6 0 10 -4 10 -10z"/>
<path d="M4660 2684 c-140 -15 -172 -21 -119 -23 39 -1 327 27 344 34 22 8
-107 2 -225 -11z"/>
<path d="M3782 2593 l-33 -4 3 -122 3 -122 33 -3 c60 -6 72 16 72 133 0 98 -8
127 -34 123 -6 0 -26 -3 -44 -5z m48 -38 c0 -10 -10 -15 -30 -15 -16 0 -30 4
-30 9 0 8 10 12 53 20 4 0 7 -6 7 -14z m0 -76 c0 -14 -7 -19 -30 -19 -25 0
-30 4 -30 23 0 20 4 23 30 19 21 -3 30 -10 30 -23z m0 -74 c0 -21 -5 -25 -30
-25 -25 0 -30 4 -30 25 0 21 5 25 30 25 25 0 30 -4 30 -25z"/>
<path d="M4055 2545 c-5 -2 -40 -6 -77 -10 -38 -4 -68 -10 -68 -14 0 -9 198
13 207 23 7 6 -44 7 -62 1z"/>
<path d="M4342 2432 c-9 -6 -12 -33 -10 -97 3 -97 13 -113 62 -101 l27 7 -3
97 -3 97 -30 3 c-16 1 -36 -2 -43 -6z m48 -92 c0 -56 -3 -70 -15 -70 -12 0
-15 14 -15 70 0 56 3 70 15 70 12 0 15 -14 15 -70z"/>
<path d="M3720 2291 c0 -5 17 -12 38 -15 99 -17 497 -64 501 -60 12 11 -25 19
-231 45 -123 15 -242 30 -265 33 -24 3 -43 2 -43 -3z"/>
<path d="M4190 1845 c0 -7 109 -55 124 -55 6 0 4 5 -4 10 -26 15 -120 50 -120
45z"/>
<path d="M4516 1541 c27 -25 604 -310 604 -299 0 7 -133 79 -295 161 -266 132
-339 165 -309 138z"/>
<path d="M3193 1168 c32 -25 448 -693 629 -1013 83 -147 94 -162 103 -153 11
11 -365 641 -580 969 -118 182 -138 209 -156 209 -9 0 -7 -4 4 -12z"/>
<path d="M2200 960 c38 -12 738 -12 745 0 4 7 -125 10 -382 9 -213 -1 -377 -5
-363 -9z"/>
<path d="M1718 716 c-124 -203 -391 -666 -405 -703 -4 -11 1 -14 21 -11 25 3
42 31 183 298 85 162 198 369 249 459 52 90 93 168 92 173 -2 4 -65 -93 -140
-216z"/>
<path d="M2010 885 c-19 -44 -50 -153 -50 -171 1 -5 12 18 26 51 26 62 55 165
48 165 -3 0 -13 -20 -24 -45z"/>
<path d="M415 130 c109 -12 313 -11 320 0 4 7 -62 9 -192 8 -146 -1 -180 -3
-128 -8z"/>
</g>
</svg>