<?xml version="1.0" standalone="no"?>
<!DOCTYPE svg PUBLIC "-//W3C//DTD SVG 20010904//EN"
 "http://www.w3.org/TR/2001/REC-SVG-20010904/DTD/svg10.dtd">
<svg version="1.0" xmlns="http://www.w3.org/2000/svg"
 width="512.000000pt" height="512.000000pt" viewBox="0 0 512.000000 512.000000"
 preserveAspectRatio="xMidYMid meet">
<metadata>
Created by potrace 1.16, written by Peter Selinger 2001-2019
</metadata>
<g transform="translate(0.000000,512.000000) scale(0.100000,-0.100000)"
fill="#000000" stroke="none">
<path d="M2495 4562 c-60 -29 -121 -86 -148 -139 -31 -59 -68 -201 -107 -404
-22 -115 -40 -220 -40 -232 0 -21 12 -26 113 -55 106 -31 120 -32 282 -32 239
0 616 -17 770 -35 181 -20 408 -56 418 -65 14 -12 -154 -49 -303 -66 -74 -9
-139 -20 -144 -25 -26 -24 325 3 473 36 80 19 117 32 155 58 20 15 28 16 24 6
-7 -24 -111 -69 -209 -90 -67 -15 -148 -22 -279 -26 -306 -9 -516 26 -1034
172 -166 46 -335 92 -376 100 -88 19 -223 22 -263 6 -16 -6 -34 -8 -40 -4 -7
3 -9 3 -5 -1 3 -4 -2 -16 -13 -27 -39 -39 -20 -107 48 -170 56 -53 92 -75 174
-108 l74 -30 7 -51 c10 -64 59 -192 98 -253 16 -25 26 -48 22 -50 -4 -3 -32
-12 -62 -22 -75 -25 -116 -52 -180 -122 -104 -112 -167 -280 -155 -409 l7 -72
-54 -39 c-29 -22 -120 -81 -203 -133 -361 -226 -559 -375 -627 -474 -13 -19 4
-7 43 31 64 60 399 288 549 372 93 53 89 49 -88 -84 -79 -59 -163 -127 -187
-151 -24 -24 -52 -44 -62 -44 -10 0 -46 -13 -81 -30 -80 -38 -166 -122 -216
-213 -36 -64 -111 -265 -103 -273 2 -3 25 44 51 102 59 134 99 194 180 273
123 118 242 145 362 84 166 -86 349 -327 471 -622 51 -122 48 -83 -4 59 -66
180 -167 342 -289 464 -61 61 -161 132 -201 142 -21 6 -20 8 21 42 23 21 58
50 77 65 l34 28 -45 -28 c-25 -15 -64 -42 -88 -61 -24 -19 -46 -32 -49 -28
-19 18 92 93 316 212 l154 83 59 -72 c63 -77 72 -101 112 -284 13 -61 27 -116
30 -122 15 -24 77 -9 259 61 59 22 110 38 113 35 10 -9 -64 -138 -138 -242
l-69 -96 24 -52 c26 -57 94 -149 276 -373 66 -81 119 -149 118 -150 -3 -3
-280 79 -393 116 l-90 30 12 73 c15 91 25 247 15 227 -5 -8 -11 -35 -15 -60
-4 -25 -16 -85 -27 -133 l-21 -89 -32 29 -31 28 28 -31 c33 -37 33 -42 2 -104
-19 -38 -22 -50 -11 -50 14 0 50 38 71 75 10 16 23 13 170 -33 88 -28 206 -65
263 -82 l102 -32 79 -96 c43 -54 119 -143 170 -199 82 -91 89 -102 70 -108
-25 -8 -52 -66 -42 -92 24 -68 109 -72 134 -5 10 25 12 23 65 -64 30 -49 83
-144 117 -211 l62 -123 43 0 c23 0 42 3 42 6 0 11 -184 289 -200 301 -8 7 -10
13 -5 13 6 0 6 3 0 8 -18 12 -56 70 -60 91 -4 22 -54 111 -62 111 -2 0 10 -26
28 -57 36 -66 29 -62 -25 15 -21 28 -41 50 -46 47 -4 -3 -7 3 -6 12 0 10 -5
18 -12 18 -6 0 -51 50 -98 110 -47 61 -91 113 -96 116 -6 4 -7 12 -4 18 4 6 2
10 -4 9 -18 -4 -207 223 -377 454 -81 110 -154 210 -162 222 -13 20 -10 28 48
106 84 113 194 299 187 317 -8 19 -19 15 -201 -67 -187 -84 -233 -99 -245 -79
-10 15 -89 336 -135 544 -27 120 -46 333 -27 307 5 -7 10 -39 11 -71 2 -85
157 -718 181 -745 5 -4 59 15 120 44 94 43 188 82 325 135 12 4 15 9 8 12 -7
2 -50 -11 -96 -29 l-84 -34 -11 59 c-6 33 -14 62 -18 66 -9 9 -143 -135 -158
-169 -12 -29 -13 -27 -46 68 -38 109 -84 220 -75 182 3 -14 18 -74 34 -135 37
-145 43 -185 27 -185 -22 0 -182 611 -192 735 -11 120 41 264 129 358 35 38
36 39 14 7 -37 -53 -55 -93 -67 -146 -5 -27 -13 -60 -16 -74 -3 -15 9 -1 30
32 19 32 43 69 54 83 l20 25 11 -50 c16 -76 77 -187 207 -380 206 -308 276
-412 281 -426 3 -8 -13 -42 -35 -77 -22 -34 -75 -127 -117 -207 -43 -80 -87
-158 -98 -173 l-20 -29 127 -186 c147 -217 266 -374 286 -379 12 -3 12 -1 -1
9 -9 7 -17 18 -19 23 -2 6 -40 60 -85 120 -110 148 -275 390 -275 404 0 6 24
55 54 108 29 54 86 158 126 232 l73 133 28 -46 c175 -281 338 -640 497 -1096
13 -39 64 -118 266 -415 l48 -70 -44 50 c-23 27 -53 61 -66 75 -12 14 -2 -11
24 -55 67 -117 117 -218 154 -317 l33 -88 44 0 c40 0 44 2 38 20 -4 11 -2 20
4 20 6 0 -2 35 -18 77 -36 96 -60 153 -65 153 -4 0 27 -90 63 -184 7 -16 10
-30 8 -32 -4 -4 -120 209 -150 278 -33 74 -132 245 -218 379 -48 74 -80 136
-103 205 -90 262 -239 575 -449 944 -32 58 -71 125 -85 150 l-25 45 33 -30
c51 -47 134 -154 226 -293 119 -177 375 -610 353 -597 -13 9 36 -115 143 -355
62 -141 155 -317 189 -360 l19 -25 -9 25 c-5 14 -21 52 -35 84 -14 33 -24 61
-22 64 8 7 95 -186 142 -317 l45 -124 -14 -63 -15 -64 159 0 c87 0 159 2 159
5 0 3 -9 45 -20 93 -10 49 -35 183 -55 298 -92 533 -161 773 -360 1254 -43
102 -90 217 -105 257 l-28 71 22 6 c11 3 30 11 40 19 18 13 17 16 -25 63 l-44
48 56 -47 c31 -26 60 -47 64 -47 11 0 -3 64 -26 117 -11 25 -51 95 -91 155
-39 60 -68 111 -65 115 15 14 135 -164 202 -297 26 -52 58 -110 72 -128 l25
-33 -52 26 c-29 14 -54 25 -56 22 -2 -2 3 -25 12 -51 16 -46 18 -48 133 -105
64 -32 148 -70 186 -86 39 -16 73 -31 77 -34 6 -5 29 -203 57 -501 5 -52 18
-120 30 -150 11 -30 20 -79 21 -107 0 -29 4 -53 9 -53 12 0 28 21 33 45 12 51
51 -110 41 -169 -7 -45 -23 -58 -23 -18 0 33 -29 136 -36 129 -3 -3 0 -43 7
-91 8 -60 16 -86 26 -86 8 0 13 -12 13 -33 0 -56 -30 -399 -40 -462 -5 -33
-10 -85 -11 -115 -2 -96 -38 173 -50 380 -20 347 -27 359 -24 45 2 -223 6
-324 19 -395 23 -133 25 -140 40 -140 8 0 17 10 19 23 l4 22 2 -22 c1 -23 3
-23 151 -23 83 0 150 3 150 7 0 3 -22 48 -50 99 l-50 92 12 82 c14 101 8 126
-67 292 -50 110 -55 127 -55 192 0 65 -32 229 -59 299 -8 22 -7 54 5 130 52
325 -46 644 -240 776 -50 34 -196 115 -196 108 0 -3 30 -23 68 -45 83 -49 168
-130 214 -203 45 -69 91 -192 112 -293 23 -111 20 -356 -4 -356 -10 0 -37 102
-45 170 -12 102 -54 338 -65 361 -6 13 -54 58 -106 99 -82 64 -100 85 -136
150 -22 41 -49 86 -59 99 -10 13 -17 27 -14 31 3 4 -7 15 -21 25 l-26 17 26
-44 c39 -63 108 -199 103 -204 -2 -2 -19 23 -38 57 -98 175 -201 341 -262 421
l-68 91 22 51 c12 28 39 85 60 127 21 42 50 123 64 180 15 56 40 141 57 188
26 75 31 102 34 215 2 90 8 135 18 151 8 12 16 37 18 56 l3 33 99 13 c216 27
370 93 352 151 -11 33 -56 43 -234 52 -96 5 -176 10 -178 12 -2 2 -11 55 -20
118 -9 63 -20 117 -25 120 -5 3 -18 59 -29 124 -24 139 -89 344 -134 418 -35
58 -86 94 -152 104 -24 3 -95 -2 -167 -13 l-125 -19 -73 24 c-55 18 -103 25
-189 29 -111 4 -117 3 -175 -25z m300 -42 c39 -10 132 -41 208 -69 187 -70
255 -67 302 11 9 16 22 27 28 25 29 -9 107 -195 122 -292 l6 -40 -22 40 c-12
22 -40 81 -61 130 -52 119 -62 127 -55 43 3 -51 20 -103 70 -229 37 -90 65
-164 64 -166 -2 -1 -22 5 -46 13 -176 60 -728 77 -991 30 -47 -9 -88 -16 -92
-16 -45 -1 30 348 98 452 59 91 186 115 369 68z m393 -25 c52 -21 41 -35 -29
-35 -44 0 -140 27 -176 50 -30 19 155 5 205 -15z m-126 -475 l36 0 -29 -112
c-16 -62 -34 -126 -40 -141 l-12 -28 -94 3 -93 3 5 40 c8 60 25 218 25 234 0
11 15 13 83 8 45 -4 99 -7 119 -7z m438 -192 c21 -137 22 -148 12 -148 -5 0
-12 15 -15 33 -10 56 -20 187 -14 187 3 0 10 -33 17 -72z m-987 -242 c29 -8
71 -20 95 -26 l42 -11 -45 -59 c-25 -32 -45 -61 -45 -64 0 -13 35 -5 92 21
l59 26 67 -21 c37 -12 104 -30 148 -41 45 -10 91 -24 103 -31 44 -23 101 7
101 54 0 9 -10 5 -29 -15 -19 -19 -39 -29 -58 -28 -16 0 -21 3 -13 6 32 12 39
24 29 50 -9 25 -8 25 22 19 18 -3 76 -9 130 -13 55 -3 99 -9 99 -12 -1 -10
-73 -41 -82 -35 -4 3 -8 12 -8 20 0 8 -5 12 -11 8 -6 -3 -8 -16 -5 -29 4 -15
-2 -29 -19 -45 -14 -13 -25 -33 -25 -44 0 -12 14 -95 31 -185 35 -180 34 -206
-15 -229 -26 -13 -33 -11 -88 17 -39 21 -71 31 -94 29 -53 -3 -73 50 -38 100
9 13 14 25 12 28 -5 4 -149 -151 -178 -191 -7 -11 19 11 58 50 43 42 72 63 72
54 0 -31 40 -69 71 -69 17 0 43 -7 59 -15 l28 -15 -16 -50 c-14 -45 -14 -52
-2 -60 24 -15 27 -13 47 35 15 37 23 45 44 45 14 0 44 14 67 32 45 34 52 60
32 113 -10 27 -37 183 -45 254 l-3 37 86 -9 c80 -8 87 -7 102 11 12 14 24 18
44 15 26 -5 27 -4 17 16 -7 11 -13 21 -14 21 -1 0 -20 7 -42 15 l-40 14 74 1
c66 0 72 -2 66 -17 -5 -10 -11 -74 -15 -143 -7 -108 -13 -138 -44 -225 -20
-54 -46 -135 -57 -180 -11 -44 -42 -127 -69 -185 -26 -58 -60 -133 -75 -167
-44 -101 -56 -108 -188 -108 -93 0 -120 4 -157 21 -58 27 -386 289 -440 352
-48 56 -71 124 -96 283 -10 63 -21 118 -26 123 -5 6 -8 3 -8 -6 0 -20 -26 -48
-45 -48 -19 0 -73 48 -89 79 -24 46 -30 74 -15 67 8 -4 6 -1 -3 7 -33 27 -66
119 -63 173 4 45 3 46 -5 14 -7 -29 -8 -23 -6 32 2 71 25 119 59 126 23 5 103
-73 128 -125 17 -35 20 -55 16 -95 -9 -77 2 -138 24 -138 17 0 19 8 19 64 0
49 5 69 20 87 11 13 29 54 40 91 24 80 48 138 56 138 3 0 29 -7 57 -14z m860
-252 c9 -10 -4 -34 -19 -34 -8 0 -14 6 -14 13 0 22 19 35 33 21z m-1054 -400
c21 -148 39 -181 200 -374 l46 -54 -64 44 c-90 63 -207 179 -227 225 -23 55
-11 245 16 245 14 0 19 -16 29 -86z m-27 -233 c68 -75 174 -166 318 -274 74
-55 201 -154 282 -219 l146 -117 -64 -141 c-35 -77 -64 -145 -64 -150 0 -27
-32 6 -174 183 -86 105 -210 255 -277 332 -148 170 -231 281 -270 357 -35 69
-35 79 -7 122 l22 34 24 -41 c13 -22 42 -61 64 -86z m918 -471 c12 -47 41
-155 65 -240 23 -85 46 -168 49 -185 4 -16 9 -39 12 -50 13 -46 -97 127 -131
208 -35 82 -87 147 -117 147 -7 0 -5 7 4 18 26 29 57 99 69 153 6 28 15 47 19
42 5 -4 18 -46 30 -93z m-153 46 c6 -6 -31 -116 -39 -116 -13 0 -86 52 -133
95 l-40 36 105 -6 c58 -4 106 -8 107 -9z m54 -27 l-10 -24 0 26 c-1 14 2 29 6
33 12 12 14 -9 4 -35z m-16 -179 c-3 -5 -14 -10 -23 -9 -14 0 -13 2 3 9 27 11
27 11 20 0z m256 -27 c13 -16 12 -17 -3 -4 -17 13 -22 21 -14 21 2 0 10 -8 17
-17z m-442 -303 c4 0 14 14 23 32 l15 32 46 -93 c51 -100 58 -105 28 -20 -10
30 -21 72 -25 94 l-6 40 28 -33 c27 -31 29 -39 35 -150 4 -65 10 -133 13 -152
6 -33 3 -30 -53 40 -101 127 -335 423 -372 470 -19 25 32 -24 113 -107 81 -84
151 -153 155 -153z m290 113 c6 -39 11 -74 11 -77 0 -3 -30 -6 -67 -6 -48 0
-64 3 -53 10 8 5 35 10 60 10 34 0 41 3 32 12 -7 7 -12 41 -12 83 1 85 13 71
29 -32z m102 -222 c61 -120 66 -113 18 23 -16 44 -27 81 -25 83 2 2 11 -8 20
-22 19 -29 42 -34 31 -7 -4 12 -3 14 4 7 18 -18 107 -246 160 -408 56 -175 84
-295 142 -627 72 -411 71 -403 54 -505 -9 -49 -17 -90 -18 -92 -2 -1 -18 100
-36 225 -45 313 -104 571 -192 840 -54 164 -41 92 24 -139 61 -213 123 -487
115 -511 -2 -6 -23 61 -47 148 -24 88 -102 330 -173 539 -196 574 -194 565
-177 575 21 14 37 -6 100 -129z m-111 -510 c1 -76 -57 203 -64 304 -5 66 0 47
29 -105 19 -102 35 -191 35 -199z m778 -24 c26 -55 38 -117 23 -117 -6 0 -11
6 -11 14 0 8 -11 46 -24 85 -26 77 -20 86 12 18z m-769 -77 c11 -30 19 -55 18
-57 -2 -1 -20 35 -40 80 -22 48 -29 72 -17 57 10 -14 28 -50 39 -80z m940
-537 c20 -60 28 -154 15 -188 -19 -49 -101 271 -88 342 l7 37 22 -65 c12 -35
32 -92 44 -126z"/>
<path d="M2512 4465 c-24 -7 -52 -21 -62 -30 -39 -35 -72 -194 -51 -247 8 -21
17 -28 39 -28 29 0 340 102 425 139 55 24 97 65 97 95 -1 16 -4 14 -15 -11
-21 -49 -106 -86 -328 -143 -135 -34 -159 -36 -181 -14 -18 17 -23 79 -5 69 6
-4 8 -13 5 -20 -5 -14 11 -14 47 0 11 5 17 2 17 -6 0 -9 3 -10 8 -4 4 6 16 12
27 13 11 2 23 9 27 15 4 7 8 9 8 5 0 -4 19 0 43 9 23 9 105 32 181 52 77 20
141 42 143 48 2 6 -30 20 -77 32 -158 43 -268 51 -348 26z m-75 -117 c-3 -8
-6 -5 -6 6 -1 11 2 17 5 13 3 -3 4 -12 1 -19z"/>
<path d="M2120 3511 c-5 -11 -10 -28 -9 -38 1 -13 3 -11 9 7 6 18 9 4 10 -50
2 -74 2 -75 15 -40 7 19 14 47 14 63 1 35 13 34 46 -4 29 -35 43 -33 25 3 -20
37 -62 78 -82 78 -9 0 -22 -9 -28 -19z"/>
<path d="M2687 3406 c-62 -17 -69 -26 -15 -19 l43 6 -30 -27 -30 -26 27 6 c19
4 35 0 54 -15 21 -16 41 -21 88 -21 33 0 71 3 84 6 22 6 22 8 6 25 -12 14 -13
19 -4 19 18 0 100 -53 100 -65 0 -5 -15 -24 -32 -43 -25 -26 -27 -32 -11 -23
25 13 63 58 63 75 0 12 -70 68 -118 95 -35 19 -167 24 -225 7z m190 -34 c6 -4
13 -16 15 -27 3 -18 -3 -20 -60 -23 -34 -2 -70 1 -80 7 -12 7 -5 8 25 4 39 -5
42 -4 49 21 6 26 27 33 51 18z m-67 -12 c0 -5 -4 -10 -10 -10 -5 0 -10 5 -10
10 0 6 5 10 10 10 6 0 10 -4 10 -10z"/>
<path d="M2203 3375 c-44 -31 -36 -91 21 -144 22 -21 26 -22 26 -7 0 9 -5 26
-11 38 -8 14 -7 28 1 49 12 28 7 79 -8 79 -4 0 -17 -7 -29 -15z"/>
<path d="M2580 3320 c-20 -6 -21 -8 -5 -8 11 0 29 3 40 8 25 11 -1 11 -35 0z"/>
<path d="M2430 3268 c0 -25 37 -114 65 -156 13 -20 57 -59 96 -87 101 -70 111
-86 111 -176 -1 -90 15 -65 24 40 5 55 3 76 -14 113 -17 40 -29 51 -91 83 -73
39 -119 85 -146 147 -8 18 -14 29 -15 24 0 -6 -7 -1 -15 10 -13 17 -14 17 -15
2z"/>
<path d="M2728 3253 c7 -3 16 -2 19 1 4 3 -2 6 -13 5 -11 0 -14 -3 -6 -6z"/>
<path d="M2838 3253 c6 -2 18 -2 25 0 6 3 1 5 -13 5 -14 0 -19 -2 -12 -5z"/>
<path d="M3260 3251 c8 -5 29 -11 45 -14 l30 -6 -30 14 c-34 16 -72 21 -45 6z"/>
<path d="M3097 3190 c3 -36 7 -67 9 -69 7 -8 2 73 -6 104 -5 19 -6 6 -3 -35z"/>
<path d="M3304 3166 c11 -9 31 -16 45 -15 24 1 24 2 -5 8 -17 4 -37 11 -45 15
-8 4 -5 0 5 -8z"/>
<path d="M3111 3094 c0 -11 3 -14 6 -6 3 7 2 16 -1 19 -3 4 -6 -2 -5 -13z"/>
<path d="M3286 2953 c4 -38 15 -93 24 -123 l18 -55 1 83 c1 65 -3 91 -19 122
-11 22 -23 40 -25 40 -3 0 -3 -30 1 -67z"/>
<path d="M2604 2805 c3 -119 13 -152 66 -215 l30 -35 -25 56 c-26 57 -47 137
-64 244 -9 55 -10 51 -7 -50z"/>
<path d="M2802 2767 c-32 -34 -28 -49 8 -31 24 13 40 13 87 4 32 -6 126 -13
208 -16 l150 -4 -24 20 c-24 21 -78 26 -116 11 -12 -5 -33 -3 -53 5 -23 9 -60
11 -132 7 -91 -5 -100 -4 -94 10 9 24 -9 21 -34 -6z"/>
<path d="M3250 2764 c0 -5 7 -19 15 -30 8 -10 15 -14 15 -8 0 5 -7 19 -15 30
-8 10 -15 14 -15 8z"/>
<path d="M2752 2715 c0 -16 2 -22 5 -12 2 9 2 23 0 30 -3 6 -5 -1 -5 -18z"/>
<path d="M3302 2690 c0 -14 2 -19 5 -12 2 6 2 18 0 25 -3 6 -5 1 -5 -13z"/>
<path d="M2958 2655 c23 -15 42 -33 42 -40 0 -7 -15 -23 -34 -34 -19 -12 -40
-29 -47 -39 -13 -15 -12 -15 11 1 89 63 176 63 244 -1 25 -24 27 -24 17 -5 -6
12 -25 31 -42 43 -28 20 -29 24 -15 39 24 26 20 31 -26 31 -45 0 -138 14 -173
25 -11 3 -1 -6 23 -20z"/>
<path d="M3280 1547 c0 -21 56 -119 83 -144 l30 -28 -32 60 c-32 59 -81 128
-81 112z"/>
<path d="M2249 2278 c12 -18 44 -72 73 -120 29 -48 54 -85 56 -83 7 6 -135
235 -145 235 -3 0 4 -15 16 -32z"/>
<path d="M3544 1836 c31 -26 191 -115 242 -135 31 -12 31 -13 48 -134 22 -168
36 -382 36 -570 0 -117 3 -156 12 -151 22 14 -5 605 -38 815 -5 35 -10 39 -87
74 -45 20 -118 57 -162 81 -49 27 -69 35 -51 20z"/>
<path d="M1466 1734 c33 -34 89 -103 123 -155 68 -101 81 -118 61 -79 -45 88
-147 218 -204 262 -31 24 -26 17 20 -28z"/>
<path d="M3636 1696 c3 -8 29 -24 58 -36 47 -19 55 -26 67 -63 11 -35 14 -38
17 -18 7 46 -7 70 -61 101 -56 32 -90 39 -81 16z"/>
<path d="M921 1508 c-83 -94 -146 -201 -157 -268 l-6 -35 26 30 c56 64 116
154 171 258 31 59 55 107 52 107 -2 0 -41 -42 -86 -92z"/>
<path d="M1703 1383 c14 -27 44 -99 67 -161 24 -62 45 -110 47 -108 11 10
-117 316 -132 316 -3 0 5 -21 18 -47z"/>
<path d="M930 1281 c-55 -18 -120 -48 -120 -56 0 -2 33 7 73 21 39 14 99 31
132 39 l60 13 -45 0 c-25 1 -70 -7 -100 -17z"/>
<path d="M706 1129 c-33 -67 -33 -112 -1 -302 23 -138 24 -151 10 -210 -8 -34
-15 -109 -15 -166 0 -91 -4 -118 -34 -210 -48 -151 -67 -241 -51 -241 7 0 18
26 25 63 7 34 30 120 51 191 51 171 89 342 89 401 0 25 -16 99 -35 163 -47
155 -53 219 -27 297 11 33 19 61 17 63 -1 2 -14 -21 -29 -49z"/>
<path d="M874 1075 c3 -38 10 -109 16 -157 11 -95 5 -139 -30 -228 -11 -28
-20 -53 -20 -57 0 -3 36 49 80 115 l80 122 -55 105 c-30 58 -55 113 -55 123 0
9 -5 24 -11 32 -8 11 -9 -4 -5 -55z"/>
<path d="M3904 1015 c0 -60 1 -84 3 -52 2 32 2 81 0 110 -2 29 -3 3 -3 -58z"/>
<path d="M1711 1073 c6 -15 49 -127 95 -248 46 -121 83 -214 84 -207 2 72 -72
291 -137 409 -37 67 -60 92 -42 46z"/>
<path d="M2040 949 c-28 -51 -70 -196 -85 -292 -44 -274 -41 -263 -108 -401
-35 -73 -81 -158 -101 -190 -20 -31 -36 -59 -36 -61 0 -8 330 -6 330 3 0 4 7
46 15 93 15 98 58 519 53 525 -2 2 -19 -64 -38 -146 -25 -106 -37 -144 -44
-133 -14 25 0 477 17 553 16 71 15 84 -3 49z"/>
<path d="M2901 615 c18 -25 34 -43 37 -40 5 4 -56 85 -64 85 -3 0 9 -20 27
-45z"/>
<path d="M1019 553 c-107 -112 -158 -199 -214 -363 -18 -52 -36 -104 -40 -115
-4 -12 3 -7 20 12 25 31 30 33 90 33 l64 0 -7 33 c-4 17 -7 77 -6 133 0 114
12 142 102 251 87 105 83 112 -9 16z"/>
<path d="M2980 560 c6 -11 13 -20 16 -20 2 0 0 9 -6 20 -6 11 -13 20 -16 20
-2 0 0 -9 6 -20z"/>
<path d="M3456 297 c3 -10 9 -15 12 -12 3 3 0 11 -7 18 -10 9 -11 8 -5 -6z"/>
<path d="M1510 276 c-170 -51 -287 -112 -399 -208 l-75 -63 52 -3 c37 -2 57 1
68 12 62 63 250 185 378 247 90 44 85 48 -24 15z"/>
</g>
</svg>