<?xml version="1.0" standalone="no"?>
<!DOCTYPE svg PUBLIC "-//W3C//DTD SVG 20010904//EN"
 "http://www.w3.org/TR/2001/REC-SVG-20010904/DTD/svg10.dtd">
<svg version="1.0" xmlns="http://www.w3.org/2000/svg"
 width="512.000000pt" height="512.000000pt" viewBox="0 0 512.000000 512.000000"
 preserveAspectRatio="xMidYMid meet">
<metadata>
Created by potrace 1.16, written by Peter Selinger 2001-2019
</metadata>
<g transform="translate(0.000000,512.000000) scale(0.100000,-0.100000)"
fill="#000000" stroke="none">
<path d="M2385 4870 c-38 -11 -81 -20 -95 -20 -23 -1 -24 -2 -5 -11 17 -8 16
-8 -5 -3 -62 15 -79 14 -132 -6 -127 -47 -265 -223 -299 -380 -7 -33 -21 -62
-36 -76 l-25 -23 26 -34 c14 -19 26 -46 26 -61 0 -15 7 -61 16 -102 14 -72 14
-76 -5 -108 -28 -44 -28 -144 -1 -245 27 -99 57 -152 97 -171 35 -17 43 -34
43 -100 0 -45 14 -146 25 -180 4 -13 -31 -51 -143 -154 -118 -109 -168 -148
-240 -187 -93 -49 -356 -212 -402 -248 -14 -11 -21 -23 -17 -27 10 -11 76 23
195 100 56 36 132 83 169 104 38 21 81 47 98 58 l30 19 -23 -35 c-58 -89 -152
-301 -152 -343 0 -32 9 -38 102 -71 43 -16 76 -32 73 -36 -11 -17 -56 -20 -86
-4 -47 24 -109 44 -109 35 0 -4 26 -19 58 -33 l57 -25 -96 -45 c-112 -53 -142
-84 -134 -137 4 -20 42 -146 85 -281 44 -135 98 -305 121 -379 47 -148 105
-269 207 -429 83 -129 99 -159 153 -293 23 -57 43 -109 45 -115 3 -6 -8 -9
-29 -6 -27 3 -38 -1 -51 -19 -22 -32 -20 -75 4 -99 28 -28 57 -25 91 9 l29 29
0 -38 c0 -105 -99 -381 -176 -495 -8 -11 -14 -23 -14 -27 0 -5 36 -8 80 -8
l81 0 20 48 c95 220 124 565 80 928 -27 222 -98 683 -156 1009 -53 300 -66
468 -45 626 7 55 16 99 20 99 4 0 10 -57 12 -127 3 -102 8 -138 25 -174 11
-26 26 -50 32 -53 6 -4 34 11 62 35 l50 42 27 -33 28 -32 33 28 33 28 -25 -50
c-41 -81 -57 -151 -57 -249 0 -132 50 -294 113 -362 l20 -23 -47 -50 c-46 -49
-46 -50 -33 -83 35 -82 138 -233 226 -329 l52 -57 -56 -110 c-57 -115 -255
-677 -255 -725 0 -15 12 -49 26 -76 23 -45 25 -53 14 -87 -15 -45 -41 -90 -92
-159 -21 -28 -38 -54 -38 -57 0 -10 183 -8 198 2 8 4 29 68 48 142 30 115 35
156 40 289 6 174 1 178 -42 33 -27 -90 -44 -117 -44 -70 0 55 44 195 95 303
57 121 63 140 44 146 -7 2 -1 19 15 42 l26 39 0 -459 c0 -252 4 -454 8 -449 5
6 17 89 26 185 13 141 15 200 7 305 -6 72 -11 208 -11 303 0 202 -6 183 127
380 47 70 96 148 109 174 l23 46 -25 63 c-14 35 -39 90 -56 122 -16 33 -27 61
-25 64 3 2 34 10 70 18 78 16 154 53 207 102 22 19 40 31 40 27 -1 -27 -36
-152 -93 -329 -69 -211 -78 -253 -127 -539 -36 -215 -38 -332 -11 -537 11 -79
23 -204 27 -277 4 -73 10 -135 15 -137 15 -10 21 112 13 269 -5 89 -9 229 -8
311 1 136 3 158 29 235 45 140 86 209 184 314 91 98 137 161 183 248 l25 48 5
-43 c3 -23 19 -64 36 -91 19 -30 33 -68 37 -101 6 -42 19 -73 62 -137 88 -135
104 -172 130 -313 13 -71 39 -171 58 -221 35 -94 49 -161 60 -279 6 -67 20
-165 31 -213 2 -13 9 -20 14 -17 6 4 10 91 10 215 0 114 3 216 6 225 5 12 20
-5 56 -61 93 -146 217 -246 321 -260 54 -8 86 8 148 73 79 83 252 295 271 332
22 43 24 135 3 183 -11 27 -12 44 -4 73 8 28 6 65 -10 158 -37 224 -42 273
-39 388 3 108 2 116 -24 160 -20 35 -27 58 -27 102 0 46 -6 69 -31 114 -31 54
-32 58 -21 111 21 105 10 171 -36 223 -7 9 -15 43 -17 75 -5 88 -34 174 -70
210 -37 37 -118 56 -331 79 -113 12 -152 21 -202 45 -47 22 -63 34 -63 49 0
20 56 254 80 331 15 51 12 98 -7 130 -15 26 -15 39 -4 124 8 63 9 101 3 113
-22 41 -134 135 -194 163 -88 40 -94 47 -102 111 -7 56 -40 139 -76 189 -11
15 -20 35 -20 43 0 8 -24 37 -53 64 l-54 49 30 74 c16 41 42 91 58 110 16 19
29 46 29 59 0 13 8 33 17 43 11 12 19 41 21 82 4 53 0 74 -23 125 -46 101
-153 177 -257 183 -44 3 -48 6 -64 41 -33 72 -134 142 -249 173 -74 20 -245
17 -330 -6z m352 -72 c95 -41 193 -138 193 -192 0 -14 -7 -7 -21 22 -23 46
-98 116 -169 156 -48 27 -49 34 -3 14z m-174 -15 c-7 -2 -21 -2 -30 0 -10 3
-4 5 12 5 17 0 24 -2 18 -5z m-353 -53 c33 -14 87 -10 192 13 166 37 349 -31
383 -143 5 -18 -1 -13 -24 18 -38 52 -76 76 -160 102 -81 25 -147 25 -256 -1
-69 -16 -93 -18 -118 -9 -34 11 -77 47 -77 64 0 6 7 1 15 -10 8 -12 28 -27 45
-34z m456 26 c111 -52 171 -135 155 -217 l-9 -44 -1 43 c-1 24 -8 59 -17 78
-23 49 -106 120 -167 143 -29 11 -43 20 -32 20 11 1 43 -10 71 -23z m-68 -62
c58 -29 109 -86 124 -140 13 -48 6 -52 -23 -9 -13 19 -44 49 -69 67 -37 26
-41 27 -24 7 42 -47 58 -95 22 -63 -20 18 -21 18 -15 1 20 -54 17 -69 -4 -27
-51 96 -169 130 -336 96 -127 -26 -237 -21 -257 13 -4 5 8 3 25 -6 43 -21 124
-12 230 27 101 37 195 40 289 11 48 -15 58 -16 49 -5 -22 27 -53 38 -124 44
l-70 7 66 2 c52 1 75 -4 117 -25z m228 -36 c23 -45 12 -43 -15 4 -12 22 -18
37 -12 34 6 -4 18 -21 27 -38z m-86 -75 c0 -12 -8 -6 -21 17 -12 19 -28 44
-37 55 -8 11 1 3 21 -17 21 -21 37 -46 37 -55z m351 27 c49 -14 71 -38 29 -32
-18 3 -30 0 -30 -7 0 -6 -17 -10 -41 -9 -37 1 -39 3 -20 13 24 12 18 25 -13
26 -21 0 -21 1 -1 9 27 12 34 12 76 0z m-594 -40 c34 -17 66 -37 73 -45 6 -8
-12 -1 -42 15 -95 51 -207 57 -289 15 -17 -9 -33 -14 -36 -11 -4 4 51 32 97
49 8 3 42 6 76 6 49 1 73 -5 121 -29z m-473 -55 c37 -9 43 -13 23 -14 -28 -1
-97 23 -97 34 0 3 5 3 11 -1 6 -4 35 -12 63 -19z m156 15 c-8 -5 -22 -9 -30
-9 -10 0 -8 3 5 9 27 12 43 12 25 0z m960 -7 c34 -22 80 -65 80 -74 0 -4 -12
-1 -27 7 -40 20 -49 17 -22 -7 23 -20 18 -20 -25 -3 -15 6 -14 1 8 -37 l27
-44 -43 47 c-24 26 -54 52 -68 58 -24 10 -23 10 8 6 23 -4 32 -2 32 9 0 20
-32 35 -77 36 -34 1 -35 2 -13 9 42 14 94 11 120 -7z m-1017 -10 c-7 -2 -21
-2 -30 0 -10 3 -4 5 12 5 17 0 24 -2 18 -5z m312 -38 c27 -13 52 -22 57 -19 4
3 11 -2 14 -11 4 -8 11 -14 18 -13 6 2 28 -8 49 -21 21 -13 40 -21 43 -19 2 3
9 25 14 49 l9 44 -2 -42 c-3 -51 14 -57 38 -15 l16 27 -6 -29 c-5 -25 -4 -28
12 -21 10 3 51 17 91 31 40 13 86 31 101 40 27 16 31 16 67 -2 71 -36 79 -56
79 -218 0 -90 4 -148 11 -157 18 -22 25 -67 18 -106 -7 -39 3 -37 -114 -15
l-45 8 37 13 c34 11 41 11 69 -10 l31 -22 -20 39 c-11 22 -32 50 -46 63 l-26
24 -70 -32 c-63 -29 -174 -55 -192 -45 -3 2 -4 -6 0 -18 3 -14 2 -19 -6 -14
-7 4 -12 23 -12 42 0 23 -4 33 -11 28 -7 -4 -9 -22 -4 -50 l6 -44 -48 7 c-56
7 -61 9 -45 25 7 7 11 23 11 37 -2 23 -2 23 -6 5 -6 -30 -35 -55 -52 -44 -11
6 -10 13 8 35 12 16 21 41 20 59 l-1 31 -12 -35 c-12 -33 -16 -35 -61 -38 -38
-3 -61 4 -119 32 -40 20 -80 36 -88 36 -33 0 -104 -39 -136 -74 -31 -35 -70
-46 -65 -19 2 7 -6 15 -17 18 -39 12 -17 92 42 152 l43 44 6 93 c10 153 29
172 175 175 57 1 80 -4 119 -24z m-326 -9 c-2 -2 -29 -6 -59 -9 -37 -4 -50 -3
-40 3 14 9 109 15 99 6z m-34 -44 c-6 -5 -46 -25 -90 -46 -84 -38 -69 -17 20
28 47 25 90 35 70 18z m1075 -53 l35 -30 -38 16 -37 15 31 -57 31 -58 -29 33
c-16 19 -41 56 -56 83 l-28 48 28 -10 c15 -5 44 -23 63 -40z m-1067 -11 c-5
-23 -3 -29 6 -23 7 4 5 -5 -5 -20 -14 -21 -15 -28 -4 -35 7 -4 9 -13 6 -19 -4
-6 -1 -11 6 -12 10 0 10 -2 0 -6 -6 -2 -10 -9 -7 -14 3 -4 -21 -22 -55 -39
-67 -34 -79 -33 -23 1 35 22 36 24 14 29 l-23 5 27 28 c42 42 9 33 -69 -18
-38 -25 -63 -38 -55 -29 7 9 39 33 70 55 63 42 73 58 59 93 -10 27 -2 34 37
35 20 1 22 -3 16 -31z m1063 -105 c18 -41 18 -48 -1 -33 -12 10 -13 7 -5 -22
13 -44 12 -47 -6 -23 -14 19 -15 18 -12 -12 1 -17 -3 -37 -9 -45 -8 -9 -9 -19
-3 -28 6 -8 10 -22 10 -29 0 -8 -13 6 -30 32 -36 57 -38 67 -8 41 12 -11 18
-13 13 -4 -14 23 -17 72 -4 64 8 -5 10 5 7 30 -3 27 -1 35 9 32 17 -7 16 6 -2
30 -22 29 -18 40 6 18 12 -10 28 -33 35 -51z m-1156 -37 c0 -2 -7 -6 -15 -10
-8 -3 -15 -1 -15 4 0 6 7 10 15 10 8 0 15 -2 15 -4z m-25 -230 c8 -20 11 -49
8 -75 l-6 -43 -14 33 c-17 40 -60 99 -74 99 -5 0 -10 -28 -10 -62 l-2 -63 -7
45 c-9 55 -3 101 18 117 22 18 70 -10 87 -51z m270 34 c-3 -5 -21 -10 -38 -9
-27 0 -29 2 -12 9 28 12 57 12 50 0z m-95 -39 c0 -5 -7 -11 -15 -15 -15 -5
-20 5 -8 17 9 10 23 9 23 -2z m-31 -120 c11 -32 30 -66 40 -75 63 -57 248 -62
320 -8 14 10 39 42 54 70 34 62 59 79 93 63 23 -10 24 -15 24 -119 0 -60 3
-130 6 -155 6 -42 4 -49 -24 -76 -39 -39 -68 -39 -115 0 -21 17 -44 29 -51 26
-22 -9 -28 23 -11 49 18 28 28 30 49 8 9 -8 16 -11 16 -6 0 5 -9 17 -20 27
-18 16 -22 16 -42 3 -45 -30 -110 -103 -135 -151 -13 -27 -23 -51 -20 -53 2
-2 20 20 41 50 20 29 45 61 55 71 18 15 20 15 25 -2 4 -11 24 -30 46 -42 37
-21 40 -26 40 -65 0 -52 18 -73 49 -56 12 6 21 17 21 25 0 9 8 6 25 -10 42
-43 51 -36 95 83 7 17 15 32 19 32 4 0 21 -30 39 -66 18 -37 36 -64 39 -61 3
4 -8 33 -25 65 -46 88 -70 165 -77 245 l-7 72 23 -31 c42 -57 82 -77 167 -82
68 -3 81 -1 111 20 19 12 45 43 58 67 33 63 36 62 14 -1 -27 -77 -36 -92 -95
-157 -47 -51 -53 -63 -65 -129 -13 -75 -31 -105 -31 -53 0 58 -16 39 -17 -22
-2 -50 -9 -76 -38 -132 l-37 -70 31 29 c39 37 93 142 120 233 21 71 62 135 77
120 10 -10 -29 -205 -51 -251 -23 -49 -171 -205 -232 -245 -53 -36 -133 -43
-163 -16 -13 12 -23 13 -44 5 -45 -17 -108 -11 -161 14 -65 30 -203 135 -253
191 -51 58 -60 95 -73 315 -9 143 -9 200 1 271 l13 90 27 -26 c16 -15 37 -53
49 -84z m171 102 c-41 -7 -90 -24 -90 -31 1 -9 79 -58 108 -67 25 -7 82 2 82
15 0 4 -26 10 -59 14 -32 4 -66 13 -76 20 -18 13 -18 14 5 21 16 5 25 3 32 -9
13 -23 64 -20 85 4 22 26 29 25 70 -6 38 -29 44 -22 11 14 l-23 25 23 -12 c21
-11 50 -57 41 -64 -2 -2 -34 -11 -71 -20 -65 -15 -156 -69 -150 -88 3 -11 -43
-1 -80 17 -18 10 -31 28 -39 55 -24 78 14 120 106 117 28 0 39 -3 25 -5z
m-364 -44 c3 -6 1 -16 -5 -22 -16 -16 -14 -73 4 -107 18 -36 40 -41 31 -7 -4
12 -9 40 -12 62 -4 30 -3 36 5 25 6 -8 11 -21 11 -29 0 -8 6 -22 14 -30 8 -10
16 -44 18 -86 2 -58 0 -70 -13 -73 -24 -4 -53 42 -78 123 -19 61 -20 76 -10
113 12 42 22 51 35 31z m1060 -14 c55 -24 56 -25 49 -57 -22 -102 -107 -149
-215 -117 -43 13 -44 13 -15 17 17 2 35 7 40 12 6 4 30 14 55 20 51 14 59 9
-80 49 -41 11 -84 22 -95 23 -22 4 -32 35 -16 51 7 7 8 3 4 -12 -6 -25 -6 -25
40 -6 45 19 51 19 44 1 -10 -26 16 -36 59 -25 21 6 44 15 51 21 8 6 19 6 32
-1 32 -18 36 -13 12 13 -13 14 -38 27 -55 29 l-31 4 32 1 c18 1 58 -9 89 -23z
m200 -14 c-6 -37 -4 -41 24 -58 35 -20 37 -35 10 -83 -17 -29 -19 -31 -14 -9
4 20 0 29 -20 42 -23 16 -26 16 -36 -1 -10 -14 -11 -13 -6 8 3 14 11 51 17 83
13 64 35 80 25 18z m-398 22 c-10 -2 -28 -2 -40 0 -13 2 -5 4 17 4 22 1 32 -1
23 -4z m289 -18 c8 -22 -6 -33 -17 -15 -13 20 -12 30 0 30 6 0 13 -7 17 -15z
m40 -87 c-3 -8 -6 -5 -6 6 -1 11 2 17 5 13 3 -3 4 -12 1 -19z m-671 -23 c-11
-8 -29 -15 -40 -14 -15 0 -10 4 14 13 46 18 48 18 26 1z m661 -17 c-3 -8 -6
-5 -6 6 -1 11 2 17 5 13 3 -3 4 -12 1 -19z m186 -26 c20 -35 36 -172 20 -172
-6 0 -13 22 -17 50 -4 31 -16 60 -32 80 -19 23 -24 37 -20 56 8 32 25 27 49
-14z m-593 -148 c0 -8 -4 -14 -10 -14 -5 0 -10 9 -10 21 0 11 5 17 10 14 6 -3
10 -13 10 -21z m683 -44 c14 -12 50 -31 79 -44 33 -15 77 -49 116 -89 l64 -64
-7 -79 c-4 -44 -9 -83 -12 -87 -7 -12 -40 35 -73 105 -57 122 -68 134 -149
165 -83 31 -121 67 -98 91 13 12 19 12 45 -2 43 -22 53 -20 17 4 -16 11 -25
20 -19 20 6 0 23 -9 37 -20z m-126 -78 c9 -36 -4 -38 -45 -5 -36 30 -40 43
-26 83 4 11 13 6 35 -20 16 -19 32 -45 36 -58z m127 -82 c6 0 0 10 -14 21
l-25 20 39 -16 c33 -13 106 -60 106 -68 0 -1 -39 -1 -86 -1 -104 2 -116 10
-124 93 l-6 59 50 -54 c27 -30 54 -54 60 -54z m-326 60 c17 -14 38 -20 64 -18
28 1 44 -4 64 -23 24 -22 25 -28 19 -83 -3 -33 -18 -95 -32 -139 -15 -49 -23
-91 -19 -109 7 -34 6 -33 -74 28 -30 23 -75 63 -99 90 -39 43 -42 50 -30 68
35 54 59 113 65 157 4 27 9 49 11 49 3 0 16 -9 31 -20z m248 -107 c13 -5 6
-10 -27 -19 -52 -16 -61 -11 -22 10 34 18 28 17 49 9z m217 -75 c70 -75 137
-173 137 -202 0 -18 -3 -17 -27 11 -16 16 -48 45 -73 63 -25 19 -59 47 -77 63
-29 27 -38 30 -111 31 -55 1 -78 -2 -75 -10 2 -6 -18 -28 -46 -48 -27 -20 -51
-40 -54 -44 -2 -4 -2 0 1 8 2 8 13 44 23 79 10 36 22 68 27 73 10 10 139 35
187 37 24 1 40 -11 88 -61z m-1457 -110 c21 -42 138 -162 227 -235 37 -30 67
-58 67 -62 0 -4 -28 -31 -62 -59 -35 -28 -87 -74 -117 -102 -63 -59 -59 -60
-131 47 l-50 75 0 121 c0 69 7 152 15 192 8 38 15 86 16 105 l1 35 8 -42 c5
-23 16 -56 26 -75z m219 -103 c44 -35 102 -73 128 -86 47 -23 48 -24 42 -64
-5 -32 -2 -44 15 -62 l21 -23 -23 0 c-29 0 -67 25 -115 75 -21 22 -79 76 -128
121 -91 82 -136 145 -150 214 -7 33 -5 32 61 -39 38 -41 105 -102 149 -136z
m-326 98 c-37 -109 -71 -303 -78 -455 -4 -81 -9 -149 -11 -151 -3 -3 -84 -43
-180 -89 -96 -46 -181 -92 -189 -102 -12 -15 -13 -27 -2 -77 12 -59 51 -172
57 -166 2 1 -7 37 -20 79 -13 42 -27 95 -31 117 l-7 41 184 88 c115 56 185 85
189 78 4 -6 9 -48 12 -94 4 -45 27 -205 51 -355 49 -297 117 -759 140 -957 15
-121 19 -200 16 -305 l-1 -50 -28 85 c-41 126 -94 229 -188 369 -160 237 -196
315 -263 558 -22 84 -68 232 -101 329 -70 210 -78 247 -55 272 15 17 164 92
280 142 l50 21 -24 16 c-12 9 -59 30 -104 48 -65 26 -80 36 -78 51 5 33 110
239 162 317 28 42 91 114 142 161 50 47 92 86 94 86 1 0 -6 -26 -17 -57z
m1530 13 c80 -49 118 -82 137 -117 17 -34 9 -86 -10 -70 -9 8 -11 4 -8 -17 2
-15 -10 -89 -27 -165 -17 -76 -31 -147 -31 -157 0 -17 -7 -20 -45 -20 l-46 0
14 28 c35 69 28 129 -21 170 l-27 24 35 -7 c51 -9 17 11 -42 25 -48 12 -85 41
-74 59 3 5 20 12 36 16 53 12 42 23 -18 18 -42 -4 -67 -1 -89 11 -30 15 -32
15 -38 -4 -4 -11 -18 -28 -31 -37 -22 -14 -27 -14 -39 -2 -12 12 -9 25 23 88
52 105 61 109 177 83 97 -23 163 -29 135 -13 -8 5 -64 21 -123 36 l-109 27
-25 -24 c-22 -20 -24 -20 -15 -3 12 23 58 67 87 83 37 21 108 8 174 -32z
m-467 -58 c11 3 128 -86 128 -97 0 -5 -6 -26 -14 -48 -18 -50 -7 -69 45 -83
22 -6 48 -19 59 -30 10 -10 21 -15 25 -12 3 4 3 -1 0 -11 -6 -14 -9 -14 -21
-3 -12 12 -147 33 -158 25 -2 -2 -16 7 -30 20 -17 16 -34 51 -47 95 -11 39
-31 105 -44 146 l-24 75 35 -40 c20 -22 40 -39 46 -37z m-166 -3 c-10 -38 -49
-78 -158 -160 l-103 -78 97 92 c58 55 110 114 130 149 32 56 48 55 34 -3z m65
-165 c6 -58 7 -137 3 -176 l-6 -71 -57 33 c-31 18 -62 37 -69 41 -10 6 -4 24
24 77 40 75 73 174 75 221 1 61 19 -15 30 -125z m-87 28 c-9 -29 -32 -84 -51
-121 l-34 -68 -52 7 c-85 10 -118 18 -119 29 -1 5 36 37 82 70 46 32 106 80
134 106 28 26 52 43 54 38 2 -5 -4 -33 -14 -61z m187 -368 c65 -89 82 -135 85
-225 l3 -80 -9 61 c-17 122 -22 131 -136 291 -14 19 -15 37 -8 115 l8 93 9
-100 c8 -95 10 -103 48 -155z m-571 183 c0 -10 -8 -11 -27 -6 -16 4 -36 7 -45
7 -23 0 -23 22 -1 35 21 11 73 -15 73 -36z m875 25 c28 -13 32 -38 14 -100
-11 -44 -27 -47 -64 -15 l-25 22 17 53 c18 56 20 58 58 40z m-241 -47 c-11
-51 -27 -96 -31 -86 -2 6 3 33 11 60 22 73 11 67 -14 -7 -20 -62 -21 -62 -16
-17 3 25 10 58 16 73 9 23 13 26 25 16 10 -8 13 -22 9 -39z m155 0 c-6 -18
-13 -30 -15 -28 -2 2 1 18 7 36 6 18 13 30 15 28 2 -2 -1 -18 -7 -36z m-1171
-79 l44 -54 -38 -39 c-34 -35 -40 -38 -50 -24 -15 20 -34 127 -33 181 l0 39
17 -25 c9 -14 37 -49 60 -78z m627 77 c123 -23 226 -93 275 -188 30 -59 9 -50
-34 14 -43 65 -104 107 -195 135 -209 65 -407 -35 -499 -252 -24 -57 -26 -75
-26 -183 0 -108 2 -125 25 -175 15 -30 45 -76 67 -101 41 -46 41 -46 21 -65
-24 -22 -26 -20 -73 81 -83 176 -85 348 -6 511 84 174 253 259 445 223z m444
-8 c12 -8 12 -16 -3 -55 -19 -49 -27 -54 -45 -32 -9 11 -8 23 5 55 17 43 21
46 43 32z m47 -41 c-10 -54 -48 -132 -59 -121 -16 16 37 151 60 151 3 0 3 -14
-1 -30z m-452 -10 c83 -23 133 -56 173 -113 51 -71 74 -136 86 -240 9 -84 8
-105 -6 -151 -20 -62 -80 -135 -141 -171 -43 -25 -164 -61 -173 -51 -3 3 14
10 38 16 63 16 123 60 127 92 5 40 -14 68 -46 68 -55 0 -70 -53 -28 -95 l24
-24 -27 -9 c-114 -43 -182 -52 -214 -28 -17 13 -17 15 10 28 33 16 41 49 19
84 -30 45 -90 21 -88 -35 l1 -31 -30 20 c-37 27 -37 54 2 77 21 13 29 23 25
37 -4 17 -3 17 17 -2 32 -30 128 -53 181 -43 84 15 168 93 182 168 6 31 6 31
25 12 10 -10 24 -19 31 -19 20 0 48 32 48 55 0 38 -29 52 -85 43 -13 -2 -20 4
-23 17 -2 11 -18 42 -35 68 -24 36 -47 55 -95 79 -55 27 -69 30 -119 25 -40
-4 -69 -15 -99 -35 l-42 -30 -22 30 c-19 26 -27 29 -54 24 -17 -3 -37 -14 -44
-24 -15 -20 -12 -64 5 -69 7 -3 9 3 6 16 -7 28 38 57 66 41 12 -6 21 -19 21
-30 0 -22 -51 -61 -57 -44 -5 16 -55 4 -80 -19 -41 -37 -22 -122 20 -89 6 5
24 12 39 16 18 4 33 19 48 50 11 24 28 50 37 58 15 12 15 10 1 -17 -39 -76
-29 -170 26 -234 17 -20 22 -29 11 -21 -25 19 -46 46 -65 84 -8 17 -28 37 -44
44 -25 13 -31 12 -55 -5 -16 -12 -27 -32 -29 -50 -5 -53 78 -186 106 -169 5 3
12 -7 15 -24 5 -21 19 -36 52 -55 46 -27 63 -45 23 -24 -199 104 -292 297
-228 468 73 195 262 289 464 231z m475 -27 c-6 -21 -21 -56 -31 -78 -25 -51
-17 -9 13 71 23 61 38 67 18 7z m81 -18 c29 -19 58 -35 66 -35 23 0 16 -24
-14 -53 l-28 -27 -50 16 c-27 9 -53 20 -57 24 -7 6 21 110 29 110 1 0 25 -16
54 -35z m268 -141 c7 -47 15 -98 18 -114 5 -22 -1 -36 -32 -69 -20 -23 -51
-52 -68 -64 l-31 -22 27 33 c56 67 76 213 39 285 l-19 37 27 0 c26 0 27 -2 39
-86z m128 37 c62 -23 110 -32 210 -40 159 -13 194 -20 194 -37 0 -12 4 -12 21
-2 18 11 23 10 39 -10 25 -30 39 -80 47 -162 4 -49 14 -79 39 -121 40 -67 44
-117 14 -204 -22 -63 -25 -95 -10 -95 13 0 58 -49 76 -83 19 -36 7 -52 -47
-69 -22 -6 -39 -13 -39 -16 0 -3 34 -37 75 -76 l75 -71 0 -117 c0 -65 -4 -118
-8 -118 -5 0 -1 -37 9 -82 25 -112 24 -117 -11 -83 -16 15 -27 31 -25 35 2 4
-10 20 -28 36 l-32 29 30 -34 c34 -38 33 -38 -51 6 -59 31 -128 93 -165 149
-30 47 -32 92 -6 191 l23 92 51 -29 c28 -16 75 -57 104 -90 56 -63 75 -67 59
-10 -12 40 -55 87 -133 145 l-58 43 33 6 c35 6 104 44 96 52 -3 2 -30 -7 -60
-21 -30 -13 -68 -28 -85 -31 -30 -6 -31 -5 -52 57 -30 91 -29 98 36 144 63 45
133 127 133 156 0 23 -13 25 -30 5 -19 -24 -191 -139 -197 -132 -3 3 20 36 50
74 57 70 101 152 113 210 11 53 -11 37 -57 -43 -23 -41 -44 -73 -46 -72 -8 9
22 178 43 241 13 38 22 71 20 73 -7 7 -57 -135 -86 -246 -16 -61 -37 -125 -47
-143 l-17 -33 -7 35 c-3 19 -7 31 -8 25 -1 -5 -19 30 -41 78 -50 113 -72 143
-114 157 -18 6 -39 22 -46 36 -8 13 -29 34 -47 45 -18 11 -41 33 -52 48 -11
14 -31 33 -45 41 -21 11 -26 21 -26 52 0 21 1 38 3 38 2 0 39 -13 83 -29z
m-941 -27 c59 -30 105 -95 105 -147 0 -87 -67 -181 -145 -207 -81 -27 -186 21
-229 105 -43 84 -12 215 61 254 50 28 150 25 208 -5z m279 -72 c18 -65 22
-162 6 -162 -5 0 -10 17 -10 38 0 20 -9 66 -20 102 -24 77 -24 80 -6 80 8 0
20 -24 30 -58z m136 29 c13 -26 13 -31 -4 -31 -18 0 -39 27 -31 40 10 16 23
12 35 -9z m-765 -75 c0 -10 -7 -22 -15 -26 -8 -4 -25 -12 -37 -18 -19 -10 -23
-8 -28 9 -9 28 22 61 54 57 18 -2 26 -9 26 -22z m1270 -13 c4 -16 13 -40 21
-55 8 -14 14 -30 14 -36 0 -17 -306 -232 -331 -232 -3 0 -14 9 -24 20 -10 11
-13 20 -7 20 13 0 213 177 253 224 26 30 26 30 33 8 9 -28 23 -28 31 -1 4 13
1 27 -10 39 -9 10 -14 24 -10 29 11 19 24 12 30 -16z m55 -77 c0 -12 -5 -7
-19 24 -11 24 -11 24 3 6 9 -11 16 -24 16 -30z m-1312 -38 c2 -12 -5 -21 -21
-27 -14 -6 -28 -15 -32 -20 -12 -21 -25 -11 -25 19 0 32 23 51 55 47 11 -1 21
-10 23 -19z m1403 12 c25 -14 62 -89 144 -295 114 -286 129 -346 109 -422 -11
-42 -21 -24 -27 51 -4 41 -19 115 -35 163 -33 104 -167 402 -198 440 l-21 27
-25 -20 c-52 -40 -131 -115 -127 -119 3 -2 36 25 75 60 l71 64 88 -197 c131
-291 142 -337 154 -622 5 -115 9 -145 15 -115 15 79 16 79 84 -2 40 -46 90
-92 134 -120 114 -74 187 -163 188 -230 0 -20 -2 -20 -30 9 -17 17 -33 28 -36
25 -3 -3 9 -35 26 -71 29 -59 32 -72 28 -139 -3 -67 -7 -81 -41 -130 -56 -81
-191 -222 -231 -241 -19 -9 -58 -16 -88 -16 -98 1 -152 41 -223 165 -15 28
-69 93 -119 145 -50 53 -104 120 -120 149 -16 30 -25 52 -20 49 5 -2 39 -19
76 -37 65 -32 187 -60 258 -60 31 0 25 4 -49 35 -46 19 -105 49 -130 67 -112
77 -228 210 -352 408 -40 63 -87 133 -107 157 -21 25 -29 42 -21 42 8 0 23 3
34 6 17 4 33 -12 87 -83 36 -48 87 -122 112 -163 80 -130 100 -143 39 -25 -70
137 -112 204 -162 258 -41 44 -58 97 -67 202 -5 56 -8 59 64 -57 58 -94 191
-288 197 -288 9 0 -60 130 -129 245 -97 161 -163 345 -124 345 24 0 127 71
219 151 47 41 118 102 158 137 73 63 88 70 122 52z m-584 -82 c-2 -13 -4 -5
-4 17 -1 22 1 32 4 23 2 -10 2 -28 0 -40z m53 5 c0 -27 3 -65 6 -85 6 -33 4
-38 -12 -38 -17 0 -19 9 -21 85 -2 70 0 85 12 85 11 0 15 -12 15 -47z m-846 1
c24 -9 19 -27 -14 -56 -27 -24 -30 -24 -45 -8 -38 41 3 86 59 64z m803 -106
c-2 -13 -4 -5 -4 17 -1 22 1 32 4 23 2 -10 2 -28 0 -40z m-82 -28 l45 0 -1
-37 c-1 -21 4 -83 11 -138 16 -141 9 -182 -47 -263 -25 -37 -48 -69 -52 -72
-4 -3 -38 -43 -76 -90 -38 -47 -82 -100 -99 -117 -16 -18 -27 -35 -24 -38 3
-3 27 20 53 52 26 32 50 58 54 58 15 1 30 17 26 28 -3 7 20 41 51 77 30 36 67
85 82 109 40 68 38 32 -4 -51 -59 -118 -97 -170 -201 -280 -76 -79 -110 -125
-146 -193 -78 -150 -58 -50 63 322 91 276 122 390 145 525 22 131 21 129 51
118 14 -6 45 -10 69 -10z m-599 -46 c-11 -8 -26 -14 -34 -14 -13 0 -12 3 1 18
10 10 17 25 17 32 0 11 4 10 18 -3 16 -17 16 -19 -2 -33z m761 -38 c-22 -18
-22 -18 -25 9 -2 15 -1 34 3 43 5 15 9 13 25 -8 20 -25 20 -25 -3 -44z m-54
19 c-6 -18 -34 -16 -41 3 -2 7 6 12 22 12 19 0 24 -4 19 -15z m-703 -64 c36
-6 83 -12 105 -14 28 -3 23 -4 -20 -5 -86 -2 -209 35 -231 69 -4 6 13 0 37
-14 24 -14 73 -30 109 -36z m695 19 c3 -5 -1 -10 -9 -10 -9 0 -16 5 -16 10 0
6 4 10 9 10 6 0 13 -4 16 -10z m-851 -114 c-3 -33 -9 -113 -12 -176 l-7 -115
-46 70 c-25 39 -58 92 -72 120 l-27 49 39 41 c21 22 48 55 60 72 21 32 23 32
47 17 23 -15 24 -20 18 -78z m866 64 c0 -5 -7 -10 -15 -10 -8 0 -15 5 -15 10
0 6 7 10 15 10 8 0 15 -4 15 -10z m-775 -51 c5 -8 -61 -268 -71 -278 -6 -7 -5
196 2 256 l7 51 28 -10 c16 -5 31 -14 34 -19z m786 -7 c-16 -5 -41 5 -41 17 0
7 10 6 26 -1 15 -7 21 -14 15 -16z m4 -42 c8 -13 -5 -13 -25 0 -13 8 -13 10 2
10 9 0 20 -4 23 -10z m5 -52 c0 -13 -32 -6 -37 9 -3 7 3 9 16 6 12 -3 21 -10
21 -15z m-709 -152 c-34 -76 -67 -148 -74 -162 l-13 -25 -13 24 c-11 21 -9 29
17 68 16 24 53 93 83 153 30 59 55 101 57 93 2 -8 -24 -76 -57 -151z m683 118
c9 -3 14 -10 11 -15 -7 -10 -35 0 -35 12 0 11 3 11 24 3z m-540 -176 c-3 -10
-37 -66 -75 -124 l-70 -107 -25 36 c-13 20 -24 40 -24 44 0 4 29 52 64 106 40
60 69 117 77 150 l12 52 24 -70 c13 -38 20 -77 17 -87z m546 122 c13 -8 13
-10 -2 -10 -9 0 -20 5 -23 10 -8 13 5 13 25 0z m5 -50 c19 -8 19 -9 -2 -9 -12
-1 -25 4 -28 9 -7 12 2 12 30 0z m15 -49 c0 -5 -9 -7 -20 -4 -11 3 -20 7 -20
9 0 2 9 4 20 4 11 0 20 -4 20 -9z m0 -41 c0 -5 -9 -10 -20 -10 -11 0 -20 5
-20 10 0 6 9 10 20 10 11 0 20 -4 20 -10z m-1274 -785 c7 -18 -14 -47 -27 -39
-5 3 -9 16 -9 30 0 27 27 34 36 9z"/>
<path d="M2370 4270 c30 -4 88 -17 128 -28 105 -30 173 -34 287 -18 l100 15
-130 -5 c-117 -4 -141 -2 -228 21 -56 14 -121 24 -155 24 l-57 -2 55 -7z"/>
<path d="M2325 4221 c17 -4 54 -20 83 -35 57 -29 82 -29 38 -1 -36 24 -96 44
-126 44 -23 -1 -22 -2 5 -8z"/>
<path d="M2190 4169 c-25 -32 -28 -39 -11 -30 22 12 57 58 49 66 -3 3 -20 -13
-38 -36z"/>
<path d="M2554 4172 c10 -16 111 -26 133 -13 14 8 7 10 -37 11 -30 0 -66 3
-79 7 -16 4 -22 3 -17 -5z"/>
<path d="M2970 4145 c13 -14 26 -25 28 -25 3 0 -5 11 -18 25 -13 14 -26 25
-28 25 -3 0 5 -11 18 -25z"/>
<path d="M2745 4126 c-30 -14 -29 -14 15 -8 64 7 96 21 50 21 -19 0 -48 -6
-65 -13z"/>
<path d="M2072 3743 c6 -21 30 -81 53 -134 24 -53 49 -125 55 -160 15 -83 56
-174 92 -204 41 -35 56 -31 20 4 -40 41 -69 106 -94 214 -17 78 -117 317 -132
317 -3 0 0 -17 6 -37z"/>
<path d="M2220 3483 c0 -38 5 -75 10 -83 7 -10 10 11 10 68 0 48 -4 82 -10 82
-6 0 -10 -29 -10 -67z"/>
<path d="M2392 3409 c-93 -16 -96 -28 -7 -29 44 0 129 -5 188 -10 152 -15 162
-16 178 -25 8 -4 4 2 -7 15 -23 24 -73 34 -158 31 -29 0 -59 5 -72 14 -26 16
-43 17 -122 4z"/>
<path d="M2443 3325 c33 -19 34 -28 4 -52 -23 -18 -23 -18 57 -18 45 0 92 -4
105 -9 23 -8 23 -8 8 15 -15 20 -15 25 -2 39 14 16 9 18 -67 24 -46 4 -94 9
-108 12 -25 5 -25 5 3 -11z"/>
<path d="M2370 3914 c-17 -9 -20 -14 -9 -14 9 0 22 7 29 15 15 18 13 18 -20
-1z"/>
<path d="M2831 3839 c8 -5 25 -9 39 -9 14 0 31 4 39 9 9 6 -5 9 -39 9 -34 0
-48 -3 -39 -9z"/>
<path d="M1631 1904 c0 -11 3 -14 6 -6 3 7 2 16 -1 19 -3 4 -6 -2 -5 -13z"/>
<path d="M1642 1855 c0 -16 2 -22 5 -12 2 9 2 23 0 30 -3 6 -5 -1 -5 -18z"/>
<path d="M1652 1795 c0 -16 2 -22 5 -12 2 9 2 23 0 30 -3 6 -5 -1 -5 -18z"/>
<path d="M1661 1744 c0 -11 3 -14 6 -6 3 7 2 16 -1 19 -3 4 -6 -2 -5 -13z"/>
<path d="M1872 1273 c24 -32 56 -77 71 -100 34 -53 47 -57 16 -5 -26 42 -118
162 -125 162 -3 0 14 -26 38 -57z"/>
<path d="M2001 1060 c12 -22 24 -38 26 -36 4 4 -37 76 -44 76 -2 0 6 -18 18
-40z"/>
<path d="M3525 3005 c4 -11 11 -56 14 -100 6 -76 7 -77 12 -33 7 55 -3 125
-21 141 -10 10 -11 8 -5 -8z"/>
<path d="M2575 2685 c-14 -13 -25 -29 -25 -35 0 -18 20 -50 30 -50 6 0 5 9 -2
20 -11 17 -9 23 9 42 19 18 27 20 50 12 40 -14 40 -58 0 -62 -27 -3 -29 -22
-1 -22 19 0 54 36 54 55 0 23 -46 65 -70 65 -11 0 -32 -11 -45 -25z"/>
<path d="M2437 2652 c-21 -23 -22 -56 -1 -73 21 -18 83 -17 95 2 13 20 11 63
-3 77 -18 18 -73 14 -91 -6z m82 -26 c26 -31 -20 -67 -59 -46 -25 13 -26 36
-2 49 24 14 48 13 61 -3z"/>
<path d="M2710 2649 c-27 -49 25 -104 75 -81 31 14 34 61 7 85 -26 24 -69 22
-82 -4z"/>
<path d="M2873 2512 c-48 -8 -37 -82 11 -82 28 0 46 18 46 47 0 26 -25 41 -57
35z"/>
<path d="M2852 2228 c-7 -7 -12 -24 -12 -39 0 -22 4 -26 24 -22 13 3 27 0 30
-6 5 -7 -2 -11 -18 -11 -14 0 -26 -4 -26 -10 0 -5 11 -10 25 -10 30 0 31 -6 8
-34 -13 -15 -10 -14 10 3 15 14 27 30 27 37 0 6 7 17 15 24 21 18 19 57 -4 70
-26 14 -64 13 -79 -2z"/>
<path d="M2615 2076 c-8 -19 -15 -38 -15 -42 0 -4 -8 -13 -17 -20 -17 -12 -16
-13 3 -8 12 3 25 1 28 -5 4 -6 12 -11 18 -11 6 0 4 8 -6 19 -14 16 -15 20 -2
30 12 10 21 9 45 -4 29 -15 32 -14 38 1 10 27 -19 69 -50 72 -23 3 -30 -2 -42
-32z"/>
<path d="M4001 2214 c0 -11 3 -14 6 -6 3 7 2 16 -1 19 -3 4 -6 -2 -5 -13z"/>
<path d="M3981 2149 c-7 -22 -11 -43 -8 -45 2 -2 9 14 16 37 7 22 11 43 8 45
-2 2 -9 -14 -16 -37z"/>
<path d="M4170 1597 c0 -9 117 -154 130 -162 22 -13 8 16 -29 62 -42 53 -101
111 -101 100z"/>
<path d="M2545 2510 c-53 -27 -77 -63 -83 -121 -12 -122 108 -228 222 -198 88
24 143 99 134 184 -14 120 -160 192 -273 135z m139 -14 c51 -21 76 -54 76 -98
0 -35 -3 -40 -37 -54 -41 -17 -70 -15 -163 13 -54 16 -60 20 -60 44 0 50 67
108 128 109 12 0 38 -6 56 -14z"/>
<path d="M3465 2004 c-103 -83 -107 -88 -102 -119 10 -60 106 -246 180 -348
83 -115 93 -133 167 -304 28 -67 58 -127 66 -134 8 -6 14 -9 14 -6 0 22 -65
180 -135 327 -46 96 -113 241 -150 323 -38 81 -70 145 -72 143 -3 -2 26 -72
62 -156 37 -83 64 -154 61 -157 -3 -3 -15 16 -27 43 -11 27 -48 105 -81 172
-50 103 -58 126 -47 136 8 7 51 43 97 80 70 58 96 86 78 86 -2 0 -52 -39 -111
-86z"/>
<path d="M3744 1955 c-13 -13 -24 -29 -24 -34 0 -5 -15 -11 -32 -13 -27 -2
-35 -9 -43 -35 -7 -27 -14 -33 -37 -33 -47 0 -61 -68 -22 -101 21 -17 62 4 70
35 4 17 14 26 32 28 17 2 34 15 47 35 14 22 28 32 46 33 32 0 49 17 49 51 0
49 -50 70 -86 34z m54 -32 c-2 -14 -9 -28 -16 -31 -7 -2 -10 2 -6 12 3 9 1 23
-6 31 -10 13 -9 15 9 15 18 0 22 -5 19 -27z m-84 -78 c-8 -19 -35 -28 -48 -15
-8 8 -6 9 5 5 24 -9 34 13 15 34 -9 10 -13 21 -9 25 11 11 43 -32 37 -49z
m-91 -78 c-8 -13 -33 14 -33 37 0 20 1 20 19 -4 11 -13 17 -28 14 -33z"/>
<path d="M3592 1648 c-17 -17 -15 -32 8 -61 18 -23 24 -25 45 -15 29 13 30 19
10 58 -16 31 -42 39 -63 18z"/>
<path d="M3660 1520 c-18 -11 -4 -57 22 -74 31 -19 42 6 22 48 -19 39 -22 40
-44 26z"/>
<path d="M3720 1423 c0 -6 19 -50 41 -99 23 -49 52 -113 65 -143 13 -30 27
-52 29 -49 5 5 -118 284 -130 296 -3 3 -5 1 -5 -5z"/>
<path d="M4140 1223 c0 -4 7 -62 15 -128 23 -184 19 -405 -10 -533 -11 -48 14
-10 37 56 20 57 23 86 22 192 0 69 -6 154 -13 189 -7 34 -10 65 -8 67 6 6 55
-145 67 -209 13 -64 32 -72 40 -17 4 27 7 31 16 19 7 -8 19 -34 27 -59 l16
-45 1 54 c0 46 -6 65 -44 130 -24 42 -66 122 -94 178 -46 91 -72 130 -72 106z"/>
<path d="M4252 755 c0 -16 2 -22 5 -12 2 9 2 23 0 30 -3 6 -5 -1 -5 -18z"/>
<path d="M2582 1470 c-20 -32 -28 -60 -18 -60 10 0 47 71 43 83 -2 7 -13 -3
-25 -23z"/>
<path d="M1458 2813 c-73 -59 -188 -166 -188 -173 0 -31 158 97 211 171 25 36
20 37 -23 2z"/>
<path d="M1210 2686 c-14 -7 -59 -21 -100 -31 -162 -39 -227 -97 -280 -255
-17 -50 -21 -79 -17 -126 5 -53 2 -67 -24 -118 -22 -45 -29 -73 -29 -116 0
-32 -7 -74 -15 -93 -44 -105 -228 -908 -212 -924 12 -11 59 34 96 91 44 71
124 226 119 232 -2 2 -41 -53 -86 -123 -45 -69 -82 -121 -82 -114 0 39 174
694 215 811 9 24 20 76 26 114 5 40 21 90 36 118 25 46 26 53 16 103 -22 105
35 257 117 308 14 9 68 30 121 46 91 29 149 61 149 82 0 13 -20 11 -50 -5z"/>
<path d="M1033 2552 c-21 -13 -62 -127 -73 -199 -24 -166 -12 -270 56 -495 20
-64 34 -125 32 -135 -5 -26 -63 59 -139 202 -41 77 -65 113 -67 101 -5 -23 78
-195 148 -306 58 -92 89 -156 90 -181 0 -8 -6 -24 -14 -34 -13 -17 -20 -12
-120 85 -58 57 -106 100 -106 96 0 -20 68 -102 135 -162 83 -75 88 -84 109
-229 8 -55 24 -129 35 -165 26 -81 27 -131 3 -160 -18 -22 -21 -23 -86 -10
-96 18 -294 -8 -342 -46 -17 -13 -16 -13 11 -3 35 12 95 6 213 -21 73 -18 199
-67 190 -75 -2 -2 -36 8 -76 21 -177 60 -400 27 -456 -67 -22 -36 -16 -36 35
0 66 49 131 66 239 65 120 -1 235 -36 298 -90 47 -40 53 -59 20 -68 -42 -11
-64 -6 -122 25 -116 63 -190 68 -328 23 -62 -20 -168 -89 -168 -110 0 -18 -4
-20 84 30 76 43 155 66 231 66 78 0 86 -16 12 -23 -57 -5 -153 -34 -144 -43 1
-2 24 3 49 11 26 7 78 17 117 21 66 6 74 5 138 -27 l68 -34 -55 -2 c-227 -11
-373 -62 -416 -144 l-14 -29 42 30 c80 55 218 74 368 49 81 -13 141 -39 199
-87 25 -20 64 -49 87 -63 22 -15 80 -63 127 -108 48 -44 89 -81 92 -81 12 0
-51 77 -122 150 -65 67 -73 80 -71 110 1 19 -1 52 -5 73 -11 51 3 46 36 -13
58 -103 51 -67 -33 175 -42 120 -178 651 -200 778 -10 55 -9 112 5 304 17 228
16 395 -3 428 -6 11 -12 -21 -21 -97 -21 -191 -34 -278 -42 -278 -10 0 -68
163 -85 240 -28 130 -14 311 36 454 10 31 18 56 17 56 -1 0 -8 -4 -14 -8z
m216 -1849 c-1 -54 -2 -56 -10 -23 -8 33 -5 80 6 80 3 0 5 -26 4 -57z m20
-206 c21 -53 13 -60 -29 -26 -54 44 -59 64 -23 101 l28 29 6 -38 c3 -21 11
-51 18 -66z"/>
<path d="M2135 1381 c35 -60 132 -153 156 -149 38 5 32 25 -18 59 -26 18 -73
53 -103 78 l-54 46 19 -34z"/>
<path d="M1400 1388 c0 -8 11 -69 24 -134 34 -168 73 -393 85 -499 17 -136 18
-145 20 -103 2 53 -34 290 -80 533 -37 193 -49 243 -49 203z"/>
<path d="M2620 1250 c-69 -51 -89 -77 -90 -117 0 -42 24 -56 67 -38 34 14 64
55 41 55 -7 0 -24 -9 -38 -20 -14 -11 -33 -20 -42 -20 -35 0 -17 31 52 87 39
32 70 65 70 75 0 10 -1 18 -2 18 -2 0 -28 -19 -58 -40z"/>
<path d="M730 1119 c-118 -88 -178 -158 -232 -266 -36 -75 -51 -118 -55 -161
-6 -68 10 -155 35 -186 16 -22 17 -18 17 108 0 129 0 132 34 196 58 112 121
202 194 278 39 39 68 72 66 72 -2 0 -29 -19 -59 -41z"/>
<path d="M2536 958 c-33 -47 -10 -98 43 -98 32 0 46 13 56 52 14 55 -67 92
-99 46z m74 -28 c0 -5 -9 -14 -20 -20 -15 -8 -20 -8 -20 3 0 8 3 17 7 20 10
10 33 8 33 -3z"/>
<path d="M1532 560 c0 -19 2 -27 5 -17 2 9 2 25 0 35 -3 9 -5 1 -5 -18z"/>
<path d="M945 451 c-51 -13 -110 -48 -143 -86 -45 -51 -40 -63 10 -21 23 20
78 50 125 67 105 40 110 65 8 40z"/>
<path d="M1025 420 c-22 -11 -58 -36 -80 -55 l-40 -35 65 29 c53 24 190 60
227 61 4 0 1 5 -7 10 -27 17 -122 11 -165 -10z"/>
<path d="M2555 345 c-36 -35 -29 -81 16 -106 38 -20 101 24 91 64 -1 4 5 7 14
7 8 0 12 5 9 11 -4 6 -9 8 -12 5 -3 -3 -19 6 -35 19 -37 31 -53 31 -83 0z m82
-42 c5 -13 -32 -27 -47 -18 -8 5 -7 11 1 21 14 17 40 15 46 -3z"/>
<path d="M1097 310 c-76 -29 -187 -120 -148 -120 4 0 39 20 76 45 37 25 87 51
112 58 24 6 42 16 40 22 -6 17 -29 15 -80 -5z"/>
</g>
</svg>