<?xml version="1.0" standalone="no"?>
<!DOCTYPE svg PUBLIC "-//W3C//DTD SVG 20010904//EN"
 "http://www.w3.org/TR/2001/REC-SVG-20010904/DTD/svg10.dtd">
<svg version="1.0" xmlns="http://www.w3.org/2000/svg"
 width="512.000000pt" height="512.000000pt" viewBox="0 0 512.000000 512.000000"
 preserveAspectRatio="xMidYMid meet">
<metadata>
Created by potrace 1.16, written by Peter Selinger 2001-2019
</metadata>
<g transform="translate(0.000000,512.000000) scale(0.100000,-0.100000)"
fill="#000000" stroke="none">
<path d="M105 5094 c10 -16 29 -46 43 -66 l24 -37 -16 -228 c-9 -125 -23 -327
-32 -448 -8 -121 -18 -262 -22 -313 l-7 -93 -47 47 c-48 47 -48 47 -48 20 0
-23 34 -62 178 -205 97 -98 215 -210 262 -248 47 -39 138 -125 203 -190 64
-66 117 -116 117 -110 0 8 -217 236 -365 382 -129 128 -116 127 20 -1 88 -83
201 -188 252 -232 122 -109 136 -128 130 -173 -4 -34 -1 -41 62 -100 142 -137
147 -141 148 -119 1 11 -1 20 -5 20 -7 0 0 276 14 588 7 151 3 150 73 21 23
-41 41 -71 42 -66 5 26 3 35 -17 62 -44 63 -97 159 -104 189 -4 19 -7 -9 -8
-69 0 -55 -4 -236 -8 -403 l-7 -303 -28 27 c-16 15 -29 33 -29 40 0 7 -25 40
-56 74 l-57 61 12 202 c6 111 13 294 16 407 l4 205 -13 -240 c-7 -132 -16
-305 -20 -385 l-7 -145 -78 75 c-43 42 -168 154 -277 250 -109 96 -230 205
-268 241 -68 65 -69 67 -68 115 3 81 62 946 68 983 l5 33 44 -67 c24 -37 47
-75 50 -86 4 -11 11 -16 17 -13 7 4 8 2 4 -4 -9 -14 12 -55 24 -47 5 3 12 0
16 -6 4 -8 3 -9 -4 -5 -18 11 -15 -3 9 -40 11 -19 25 -32 29 -29 5 3 12 0 16
-6 4 -8 3 -9 -4 -5 -7 4 -12 5 -12 1 0 -7 72 -115 77 -115 2 0 1 6 -3 13 -4 7
-3 8 2 4 5 -5 9 -16 9 -25 0 -9 5 -17 12 -17 6 0 15 -4 20 -9 5 -5 2 -6 -6 -1
-9 5 -12 3 -9 -5 4 -12 38 -24 38 -13 0 26 -400 624 -423 632 -6 2 -3 -9 8
-25z m265 -394 c6 -11 8 -20 6 -20 -3 0 -10 9 -16 20 -6 11 -8 20 -6 20 3 0
10 -9 16 -20z m50 -80 c6 -11 8 -20 6 -20 -3 0 -10 9 -16 20 -6 11 -8 20 -6
20 3 0 10 -9 16 -20z m-340 -725 c13 -14 21 -25 18 -25 -2 0 -15 11 -28 25
-13 14 -21 25 -18 25 2 0 15 -11 28 -25z m105 -105 c38 -38 67 -70 64 -70 -2
0 -36 32 -74 70 -38 39 -67 70 -64 70 2 0 36 -31 74 -70z"/>
<path d="M220 5114 c0 -27 249 -356 389 -512 54 -61 0 11 -114 152 -131 162
-247 324 -240 335 2 4 -5 12 -16 19 -10 7 -19 9 -19 6z"/>
<path d="M649 5098 c16 -41 85 -187 220 -464 l131 -271 0 -96 c0 -53 -4 -106
-9 -120 -9 -22 1 -58 13 -46 3 3 7 66 8 140 l3 134 -107 219 c-60 120 -106
222 -103 226 3 5 1 10 -5 12 -5 1 -39 66 -75 143 -36 77 -70 142 -75 143 -7 3
-7 -5 -1 -20z"/>
<path d="M680 5110 c0 -11 299 -608 330 -657 11 -18 24 -33 30 -33 14 0 -333
699 -347 699 -7 1 -13 -3 -13 -9z"/>
<path d="M998 4944 c70 -140 87 -184 82 -204 -11 -40 -22 -300 -13 -300 5 0
19 -20 31 -45 19 -40 22 -62 22 -183 0 -75 -3 -181 -7 -235 l-6 -98 -45 78
c-44 77 -136 218 -155 238 -15 15 40 -78 128 -218 96 -154 92 -160 94 126 0
108 4 197 9 197 4 0 40 -64 80 -143 l72 -143 0 -102 c0 -56 -4 -102 -8 -102
-5 0 -12 -138 -16 -307 -4 -170 -13 -477 -21 -683 -8 -206 -17 -449 -20 -540
-3 -91 -8 -198 -11 -238 -5 -68 -7 -72 -27 -67 -21 5 -21 5 1 -6 21 -11 22
-19 22 -110 0 -54 -4 -100 -8 -103 -4 -2 -37 2 -72 9 -36 7 -91 18 -122 25
l-57 11 -4 82 -3 82 -2 -83 c-2 -80 -3 -82 -24 -77 -13 3 -66 14 -118 24 l-95
18 -3 79 c-3 72 9 316 39 814 6 102 12 243 12 313 l2 128 -60 57 c-33 31 -108
100 -166 152 -59 52 -202 187 -318 299 -141 136 -211 197 -211 185 0 -31 310
-330 624 -603 l108 -93 -6 -77 c-3 -42 -8 -128 -11 -191 -3 -63 -12 -239 -20
-390 -8 -151 -17 -348 -21 -437 -4 -104 -10 -163 -17 -163 -16 0 -272 78 -329
101 -28 11 -113 37 -189 58 -122 34 -139 36 -139 21 0 -13 28 -24 133 -50 243
-62 532 -148 531 -159 -1 -6 -2 -17 -2 -24 -2 -9 -78 0 -312 39 -171 29 -319
54 -330 57 -12 3 -20 0 -20 -8 0 -9 63 -22 207 -45 175 -27 816 -137 906 -156
24 -5 27 -10 27 -49 0 -25 -5 -45 -12 -48 -10 -4 -10 -6 0 -6 6 -1 12 -7 12
-15 0 -9 -8 -12 -25 -8 -25 4 -35 31 -12 33 30 2 -1024 109 -1077 109 -16 0
-27 -2 -24 -5 3 -3 149 -19 324 -36 176 -16 413 -40 529 -52 l210 -22 -3 -260
c-1 -143 -6 -318 -10 -389 l-7 -130 -205 -83 c-113 -46 -290 -119 -395 -162
-104 -43 -246 -100 -315 -126 -69 -26 -127 -50 -129 -52 -34 -28 192 57 494
185 95 40 521 215 584 240 8 3 12 -1 10 -12 -3 -10 -46 -36 -114 -67 -149 -69
-522 -233 -565 -249 -69 -26 -395 -172 -404 -181 -5 -5 -7 -12 -3 -15 4 -4 51
13 104 38 201 94 933 425 970 439 22 8 23 6 23 -35 l0 -44 -237 -128 c-131
-70 -357 -191 -503 -270 -146 -78 -286 -152 -313 -165 -30 -15 -47 -29 -47
-41 0 -10 3 -18 6 -18 6 0 460 249 774 425 91 51 213 119 273 151 59 32 107
64 107 70 0 11 219 133 317 176 l53 23 0 68 0 67 105 0 c79 0 105 -3 105 -13
0 -7 -45 -35 -100 -62 -55 -27 -98 -50 -96 -52 2 -2 52 20 112 48 236 110 261
121 284 118 31 -3 72 10 65 21 -3 4 4 6 14 3 20 -5 35 -59 19 -67 -5 -2 -3 -3
3 -2 7 1 12 25 13 61 1 67 -9 60 105 71 45 5 62 3 57 -4 -4 -6 -14 -9 -24 -6
-12 4 -14 3 -4 -4 10 -6 -4 -20 -52 -52 -36 -23 -66 -45 -66 -47 0 -6 35 16
103 63 32 23 58 34 82 34 35 0 35 0 35 -44 0 -62 7 -76 41 -76 l29 0 0 74 0
73 48 -9 c26 -5 103 -8 172 -6 l125 3 19 -53 c10 -29 21 -51 23 -49 2 3 -5 28
-16 56 l-19 51 114 0 114 0 0 -54 0 -54 35 -4 35 -4 0 58 0 58 35 0 35 0 2
-62 c0 -35 3 -48 5 -30 5 35 14 40 33 17 7 -8 17 -15 22 -15 5 0 -5 12 -22 26
-24 20 -28 29 -18 35 19 13 25 11 48 -13 l20 -22 0 27 0 26 55 -37 c30 -20 54
-42 55 -48 0 -14 63 -24 160 -25 71 -1 81 -4 180 -57 58 -30 134 -76 170 -101
35 -25 80 -50 100 -56 20 -5 91 -39 158 -75 85 -45 122 -70 122 -82 0 -15 -9
-18 -52 -18 -64 0 -57 -11 11 -15 32 -3 63 -12 81 -25 16 -12 35 -18 41 -14 7
4 9 3 6 -3 -4 -6 49 -46 126 -93 188 -116 710 -431 723 -437 8 -3 11 29 10
107 l-1 111 -410 201 c-225 110 -414 203 -418 208 -5 4 -7 24 -5 44 l3 36 195
-79 c182 -74 361 -149 558 -235 46 -20 82 -31 80 -24 -5 13 -65 40 -428 188
-441 180 -418 168 -424 215 -4 32 -18 520 -20 739 l-1 49 300 53 c165 29 362
63 437 75 76 12 138 25 138 30 0 5 -3 9 -8 9 -8 0 -683 -121 -800 -143 l-73
-14 3 51 3 51 125 33 c140 36 591 144 688 163 66 14 89 36 25 24 -32 -5 -750
-182 -820 -201 -23 -6 -23 -5 -23 83 l0 90 33 11 c162 55 430 151 422 151 -19
1 -92 -22 -273 -86 -101 -36 -184 -64 -186 -62 -2 2 -8 146 -15 319 -6 173
-14 353 -17 400 l-5 85 113 93 c62 50 140 117 173 148 33 30 -16 -8 -110 -86
l-170 -142 -6 59 c-4 32 -10 146 -14 255 l-7 196 94 109 c110 126 266 315 322
390 22 29 42 50 46 48 4 -2 18 8 31 23 13 14 17 21 8 14 -9 -6 -18 -9 -21 -6
-4 3 -52 -52 -109 -123 -183 -228 -362 -434 -369 -426 -5 4 -11 163 -14 353
-7 399 -15 641 -22 688 -5 32 -5 32 -62 32 -68 0 -77 5 -85 45 -6 35 8 75 133
365 119 279 112 260 95 260 -8 0 -15 -4 -15 -9 0 -5 -53 -132 -117 -283 -110
-258 -116 -276 -115 -335 2 -60 0 -66 -139 -345 -78 -155 -174 -355 -214 -443
-40 -88 -94 -204 -119 -258 -45 -95 -55 -132 -37 -139 5 -2 12 -465 16 -1050
7 -961 6 -1048 -9 -1048 -13 0 -16 11 -16 53 1 305 -24 2045 -29 2054 -3 6 -5
-141 -3 -328 l4 -339 -51 0 -51 0 -2 273 c-3 402 0 429 50 442 17 4 28 2 31
-6 2 -6 10 6 17 27 15 45 13 54 -6 20 -8 -17 -23 -26 -44 -28 -28 -3 -33 -8
-54 -68 -12 -36 -45 -117 -72 -180 -27 -63 -75 -178 -108 -255 l-59 -140 -379
0 -379 0 0 45 c0 36 6 50 27 72 15 14 33 28 40 31 7 3 -44 6 -113 6 -100 1
-129 4 -139 16 -7 8 -18 15 -24 15 -14 0 -79 167 -71 181 10 15 522 12 528 -3
4 -10 6 -10 6 0 1 9 67 12 294 13 160 1 280 4 265 6 -20 3 -26 9 -22 21 5 15
4 15 -6 0 -10 -16 -34 -18 -270 -18 l-259 0 -4 58 -3 57 -2 -57 -2 -58 -282 0
c-156 0 -278 -4 -272 -8 13 -9 35 -92 24 -92 -25 0 -55 27 -52 48 4 26 -13 29
-28 5 -10 -17 -11 -16 -8 2 2 10 14 22 28 26 24 7 23 7 -6 8 -28 1 -34 7 -67
79 -20 42 -63 141 -96 220 -83 195 -168 361 -339 667 -81 143 -234 435 -342
649 -107 214 -201 391 -208 394 -7 2 27 -76 76 -174z m192 -385 c43 -86 120
-230 171 -320 241 -428 286 -512 336 -616 84 -176 225 -506 224 -526 0 -11 5
-15 12 -11 8 5 7 2 -1 -7 -11 -12 -14 -12 -22 1 -7 10 -10 11 -10 3 0 -7 -6
-13 -14 -13 -10 0 -16 13 -18 37 -3 37 -5 38 -51 47 -35 6 -52 16 -67 37 -12
15 -92 169 -179 341 -87 172 -187 367 -223 433 -36 66 -111 211 -167 322 -97
193 -101 204 -101 266 0 99 11 191 22 175 5 -7 44 -83 88 -169z m2934 -161 c5
-33 11 -203 21 -563 6 -214 18 -528 40 -1035 8 -190 19 -450 25 -579 5 -129
10 -299 10 -378 l0 -143 -27 -1 -28 -2 27 -4 c25 -4 27 -8 32 -76 5 -62 26
-714 26 -812 0 -33 0 -33 -34 -23 l-34 11 -6 141 c-3 77 -11 429 -16 781 -6
352 -13 655 -17 674 -3 20 -1 36 6 40 9 6 9 57 1 212 -17 334 -40 870 -47
1082 -3 108 -10 197 -15 197 -4 0 -8 -9 -8 -21 0 -11 -5 -30 -11 -41 -7 -12
-7 -18 -1 -14 13 8 25 -120 20 -218 -2 -46 0 -72 6 -68 18 11 -37 -61 -141
-185 l-103 -122 0 -73 c0 -40 5 -138 10 -218 5 -80 16 -338 25 -575 8 -236 17
-487 21 -557 6 -126 6 -128 -15 -128 -19 0 -21 5 -21 63 0 118 -20 723 -35
1057 -21 448 -23 654 -8 668 11 11 202 326 210 347 6 17 -18 -20 -129 -196
l-108 -170 11 -312 c6 -172 13 -510 16 -752 3 -242 9 -431 13 -420 11 25 13
-91 4 -158 -6 -42 -10 -47 -45 -61 -22 -9 -41 -16 -43 -16 -1 0 -6 116 -9 258
-4 141 -10 379 -14 527 l-8 270 -6 -160 c-3 -88 -4 4 -1 205 l4 365 -77 -103
c-77 -102 -105 -128 -64 -58 31 52 17 44 -19 -11 -17 -27 -39 -59 -48 -73 -9
-14 -2 -9 15 10 41 47 39 31 -3 -24 l-34 -45 -1 187 c-1 103 -4 201 -7 217 -4
22 6 54 40 122 25 51 68 143 97 205 28 62 126 265 217 451 l166 337 57 0 c58
0 58 0 63 -32z m-2627 -768 l107 -204 -2 -86 c-1 -47 -5 -118 -8 -158 l-6 -73
-34 49 c-18 28 -77 119 -130 204 -53 84 -103 164 -111 176 -8 13 -17 22 -19
19 -3 -3 38 -73 90 -157 53 -83 96 -153 96 -156 0 -2 25 -42 55 -88 l56 -83
-3 -72 -3 -72 -66 103 c-37 57 -101 158 -144 226 -42 68 -79 121 -82 118 -7
-7 284 -461 294 -459 4 1 7 -122 5 -273 l-3 -274 42 -43 41 -42 -36 46 c-36
46 -36 46 -36 146 0 55 3 154 6 220 l7 121 49 6 c65 9 96 24 101 50 2 12 7 0
12 -29 7 -44 -1 -425 -22 -1017 l-6 -178 -110 0 -110 0 6 416 5 417 -61 56
c-33 31 -87 87 -119 124 l-58 68 4 282 4 282 -9 -310 c-5 -170 -13 -330 -18
-355 -6 -25 -12 -155 -14 -290 -2 -135 -2 -208 0 -163 4 79 5 82 23 70 19 -11
20 -24 20 -264 0 -218 -2 -253 -15 -253 -8 0 -24 9 -35 20 -11 11 -20 15 -20
10 0 -5 -5 -10 -11 -10 -9 0 -10 53 -5 198 11 313 44 1175 51 1307 4 66 6 170
6 230 0 109 13 339 25 444 l7 53 39 -73 c21 -41 87 -166 145 -279z m2513 -380
c0 -12 -97 -12 -125 0 -14 6 3 9 53 9 42 1 72 -3 72 -9z m-90 -40 c17 -17 30
-34 30 -39 0 -4 11 -13 25 -19 19 -9 25 -9 26 1 1 6 5 -13 9 -43 5 -30 8 -209
9 -397 1 -189 5 -353 10 -367 6 -13 6 -26 2 -28 -5 -2 -5 -218 0 -481 6 -306
6 -485 -1 -496 -5 -10 -6 -21 -3 -25 3 -3 2 -6 -4 -6 -8 0 -31 -56 -39 -97 -1
-7 -11 -24 -22 -38 -14 -18 -22 -22 -26 -13 -3 7 -4 -5 -1 -27 3 -22 5 -63 5
-92 0 -46 3 -52 23 -56 16 -3 14 -5 -10 -6 -30 -1 -32 1 -37 42 -7 49 -24 660
-19 666 9 11 12 -21 21 -229 l10 -225 -4 285 c-3 157 -9 402 -14 545 -5 143
-12 337 -15 430 -3 94 -10 251 -15 350 -20 384 -20 395 -4 395 8 0 28 -14 44
-30z m87 -32 c-3 -7 -5 -2 -5 12 0 14 2 19 5 13 2 -7 2 -19 0 -25z m-686 -518
c2 -135 5 -199 6 -142 l4 102 49 0 c48 0 49 -1 55 -32 3 -18 6 -234 8 -481 l2
-447 -71 0 -71 0 -7 163 c-3 89 -7 406 -8 705 -2 298 -5 542 -8 542 -3 0 -22
-38 -44 -85 -49 -108 -76 -132 -32 -29 18 44 41 105 51 136 12 39 22 55 31 51
8 -3 15 1 16 8 4 35 16 -271 19 -491z m353 438 c-21 -29 -58 -77 -82 -107 -48
-59 -46 -67 22 -81 21 -4 32 -13 37 -30 6 -21 7 -18 8 15 1 25 4 35 9 27 5 -7
16 -10 25 -6 13 5 17 0 17 -19 0 -16 -15 -39 -44 -68 l-45 -43 6 -117 c6 -110
5 -117 -14 -123 -23 -7 -102 -86 -86 -86 6 0 25 16 42 36 18 20 39 34 49 32
16 -3 18 -39 26 -441 7 -344 6 -440 -4 -452 -7 -9 -29 -15 -51 -15 l-39 0 -2
103 -2 102 -3 -97 c-4 -95 -10 -112 -31 -85 -6 7 -11 244 -14 634 -5 567 -4
622 11 629 9 4 20 6 24 5 5 -1 6 3 3 8 -3 5 20 42 52 82 32 41 71 93 87 117
15 23 30 40 33 38 2 -3 -13 -29 -34 -58z m-1837 32 c22 0 25 -3 20 -27 -3 -17
4 -45 18 -75 13 -27 20 -46 15 -43 -15 9 -20 -27 -18 -133 l2 -107 6 115 6
115 2 -106 c1 -75 6 -110 15 -118 8 -6 17 -8 20 -4 4 3 7 1 7 -6 0 -7 5 -9 10
-6 6 4 10 -11 10 -39 0 -55 -13 -66 -30 -26 -7 17 -15 28 -18 26 -2 -3 7 -25
22 -50 18 -32 26 -60 27 -98 1 -29 3 -45 6 -35 4 15 11 17 43 12 l39 -7 4 44
c2 24 5 -54 7 -172 l4 -215 3 165 c3 143 6 167 21 178 11 9 19 33 23 75 4 34
5 -48 3 -183 -2 -144 0 -233 5 -215 5 17 9 109 10 207 l1 176 47 16 c26 9 48
16 50 16 1 0 4 -98 6 -217 l2 -218 3 228 c1 172 5 229 15 232 6 2 48 6 92 9
44 3 107 9 140 13 78 9 386 10 448 0 120 -18 137 -18 147 6 5 13 9 -261 9
-679 l1 -702 -32 -5 c-18 -2 -34 -4 -34 -3 -1 0 -4 300 -6 666 l-3 665 -355
-1 -355 0 0 -305 c0 -167 -1 -465 -2 -662 l-3 -358 -32 3 -33 3 -3 428 -2 428
-21 -12 c-12 -6 -37 -9 -55 -6 l-34 6 0 -142 c0 -78 -3 -267 -7 -419 -6 -267
-7 -278 -26 -278 -19 0 -19 9 -16 422 3 331 1 422 -8 425 -7 3 -13 10 -13 17
0 7 -16 27 -35 46 l-35 34 0 103 c0 57 4 103 8 103 4 0 14 -6 22 -12 8 -7 6
-3 -5 10 -15 18 -20 20 -27 9 -4 -8 -12 -200 -18 -428 -5 -228 -12 -488 -14
-579 l-4 -165 -29 -11 -28 -12 -5 276 -5 277 -3 -281 c-2 -241 -4 -283 -17
-288 -13 -5 -15 45 -12 437 2 243 2 326 0 185 -3 -236 -5 -258 -21 -259 -16
-1 -16 -2 1 -6 9 -2 17 -13 17 -24 0 -15 -7 -19 -35 -19 -31 0 -35 3 -35 25 0
14 6 25 13 25 9 0 8 3 -2 9 -11 7 -12 57 0 327 7 176 13 518 13 762 0 376 2
442 14 437 7 -3 25 -5 39 -5z m-1090 -92 c-2 -13 -4 -3 -4 22 0 25 2 35 4 23
2 -13 2 -33 0 -45z m1316 -48 c3 -11 1 -20 -4 -20 -5 0 -9 2 -9 4 0 2 -3 11
-6 20 -3 9 -2 16 4 16 5 0 12 -9 15 -20z m-1326 -112 c-2 -18 -4 -6 -4 27 0
33 2 48 4 33 2 -15 2 -42 0 -60z m2968 -357 c0 -276 -2 -332 -15 -343 -12 -11
-12 -11 -2 4 10 12 10 53 2 186 -6 93 -7 178 -3 188 6 17 5 18 -12 4 -17 -14
-18 -14 -7 7 7 13 12 65 11 131 -1 65 3 118 10 131 7 11 13 21 14 21 1 0 2
-148 2 -329z m-437 123 c-1 -52 -6 -98 -10 -100 -4 -3 -8 -78 -8 -168 l0 -162
-35 -34 -35 -34 0 227 c0 169 3 229 13 236 59 49 67 60 67 95 0 20 2 36 5 36
3 0 4 -43 3 -96z m836 -99 c4 -105 3 -174 -3 -165 -17 29 -23 368 -6 348 1 -2
5 -84 9 -183z m-978 71 c14 -4 29 -4 34 -1 6 4 10 -86 10 -239 0 -236 -1 -245
-20 -251 -19 -6 -20 -15 -20 -189 0 -179 7 -276 19 -276 3 0 6 67 6 149 0 82
3 147 7 145 4 -3 8 -153 8 -333 l0 -329 -32 -5 c-18 -2 -36 -3 -40 0 -5 2 -7
316 -7 696 1 381 4 680 6 665 3 -18 12 -28 29 -32z m-1816 -12 c0 -8 5 -12 10
-9 6 4 45 -25 88 -63 l77 -70 -3 -141 -3 -141 -65 57 -64 57 0 94 c0 84 -3 97
-23 122 l-23 27 -4 -36 c-1 -20 -3 -79 -4 -131 l-1 -95 70 -40 c111 -63 112
-65 116 -118 2 -26 2 -47 -2 -47 -3 0 -29 11 -57 25 -51 25 -52 26 -52 70 0
41 -3 46 -45 75 l-45 31 0 164 c0 90 3 170 6 179 7 19 24 11 24 -10z m1640
-156 l0 -118 -299 0 -298 0 -7 31 c-7 36 -8 193 -1 200 2 3 139 5 305 5 l300
-1 0 -117z m329 -660 c0 -140 -3 -218 -9 -218 -6 0 -11 47 -11 118 -1 81 -4
105 -9 77 -4 -22 -8 58 -9 183 -1 170 -4 221 -13 216 -7 -4 -2 6 10 23 20 28
22 44 24 180 1 120 3 100 8 -107 4 -140 8 -353 9 -472z m-1941 594 l-3 -94 40
-36 40 -35 -55 31 -55 31 -3 68 c-2 37 0 87 3 111 6 37 9 41 21 31 12 -10 15
-32 12 -107z m188 -39 c-3 -82 -7 -248 -8 -369 l-3 -222 -26 3 c-14 2 -51 15
-83 29 l-57 25 7 151 c5 107 4 150 -4 150 -7 0 -12 -27 -15 -67 l-3 -68 -2 83
-2 83 22 -20 c12 -12 30 -23 41 -27 17 -5 18 -16 15 -145 -3 -145 -2 -150 40
-148 12 0 10 4 -7 12 -23 11 -23 12 -16 127 7 117 15 144 37 122 34 -34 38
-16 38 186 0 200 4 242 22 242 7 0 8 -51 4 -147z m2206 -301 c2 -105 0 -192
-4 -192 -5 0 -7 134 -6 298 2 295 6 262 10 -106z m371 196 c4 -66 6 -164 6
-217 -1 -85 -2 -90 -9 -46 -11 70 -20 385 -11 385 5 0 11 -55 14 -122z m-1163
-478 l0 -500 -27 0 -28 0 3 485 2 484 -235 3 -235 3 0 -141 c0 -77 -3 -297 -7
-487 l-6 -347 -24 0 -23 0 0 500 0 500 290 0 290 0 0 -500z m-920 381 l0 -24
-25 23 -24 23 -4 -69 c-2 -53 -3 -44 -5 36 l-1 105 29 -35 c16 -19 30 -46 30
-59z m1188 -440 c1 -2 11 -1 22 2 17 4 20 0 20 -29 0 -19 -3 -34 -7 -34 -5 0
-18 -3 -30 -6 l-23 -6 2 258 2 259 6 -220 c3 -121 7 -222 8 -224z m512 144 c6
-11 11 -70 13 -132 l2 -111 -39 -6 c-46 -8 -55 -2 -38 24 7 12 12 57 12 107 1
90 13 254 27 353 7 46 8 32 11 -80 1 -74 7 -144 12 -155z m-30 250 c0 -8 -4
-15 -10 -15 -5 0 -10 7 -10 15 0 8 5 15 10 15 6 0 10 -7 10 -15z m-1683 -237
c-1 -46 -3 -9 -3 82 0 91 2 128 3 83 2 -46 2 -120 0 -165z m142 15 c-1 -151
-6 -230 -13 -235 -6 -4 8 -8 32 -8 l42 0 0 -175 c0 -133 -3 -175 -12 -175 -7
0 -30 3 -52 7 l-38 6 6 296 c8 372 16 511 28 511 6 0 9 -86 7 -227z m-113
-250 c-3 -7 -16 -13 -28 -13 -19 0 -20 -2 -8 -11 13 -9 13 -10 0 -5 -8 3 -23
9 -32 12 -15 5 -18 18 -18 68 0 91 6 107 37 95 13 -5 29 -9 34 -9 5 0 10 72
11 168 2 148 3 142 5 -63 2 -126 1 -235 -1 -242z m149 437 c-15 -7 -16 -9 -4
-9 25 -1 29 -30 29 -208 0 -167 -3 -193 -25 -193 -22 0 -25 26 -25 226 l0 194
23 -1 c21 0 21 -1 2 -9z m-198 -212 c-2 -35 -3 -9 -3 57 0 66 1 94 3 63 2 -32
2 -86 0 -120z m-660 50 c-3 -7 -5 -2 -5 12 0 14 2 19 5 13 2 -7 2 -19 0 -25z
m2533 -138 c0 -38 -3 -70 -7 -70 -5 0 -7 31 -5 70 2 38 6 70 8 70 2 0 4 -31 4
-70z m-2475 16 c28 -10 70 -23 94 -29 l44 -11 -6 -156 c-4 -85 -7 -234 -7
-332 l0 -176 -47 -16 c-26 -9 -48 -16 -50 -16 -1 0 -4 75 -6 168 l-3 167 -2
-171 -2 -171 -25 -11 c-14 -7 -29 -12 -32 -12 -3 0 -2 133 2 295 5 213 4 299
-4 309 -9 11 -7 15 9 19 17 4 20 13 20 60 0 56 -15 82 -31 56 -6 -11 -9 -9 -9
8 0 12 -3 30 -6 40 -3 10 -2 14 3 8 4 -5 31 -18 58 -29z m2443 -111 c-1 -89
-2 -95 -22 -96 -31 -2 -87 -8 -123 -13 -18 -3 -35 -1 -38 4 -6 9 10 15 68 26
l37 6 0 70 c0 68 0 69 33 83 17 8 35 14 39 15 4 0 7 -43 6 -95z m-2555 55 c34
-10 37 -14 37 -49 l0 -38 -80 16 -80 15 0 39 0 40 43 -6 c23 -4 59 -11 80 -17z
m1215 -8 c-20 -2 -28 -9 -28 -23 0 -10 -4 -19 -10 -19 -5 0 -10 13 -10 28 0
27 2 28 38 23 32 -5 34 -6 10 -9z m1396 -219 c3 -109 9 -282 12 -385 5 -155 4
-188 -7 -188 -35 1 -36 13 -44 384 -7 373 -6 385 26 386 4 0 10 -89 13 -197z
m-2631 136 c37 -6 67 -15 67 -20 0 -10 -25 -10 -96 0 l-51 7 -7 -120 c-3 -65
-6 -185 -6 -265 0 -180 -10 -311 -23 -311 -6 0 -8 58 -4 168 4 92 10 256 13
365 6 174 9 197 23 193 9 -3 46 -10 84 -17z m2197 6 c0 -8 -10 -16 -22 -16
l-23 -2 23 -4 c32 -6 27 -30 -9 -37 -53 -10 -117 -7 -122 7 -3 9 -2 52 2 65 1
1 35 2 76 2 60 0 75 -3 75 -15z m-1700 -5 c0 -6 -43 -10 -110 -10 -67 0 -110
4 -110 10 0 6 43 10 110 10 67 0 110 -4 110 -10z m1790 -222 c0 -178 -2 -208
-15 -208 -11 0 -15 13 -15 53 0 30 -3 129 -7 221 l-6 168 21 -13 c21 -13 22
-19 22 -221z m-289 160 c1 -35 4 -51 6 -35 2 15 9 27 14 27 5 0 8 -60 7 -142
l-2 -143 -6 105 -6 105 -2 -102 c-2 -100 -3 -103 -24 -103 -13 0 -28 4 -34 8
-7 4 -13 69 -17 169 l-7 162 22 4 c48 9 48 9 49 -55z m-2125 44 c8 -5 8 -102
-2 -355 -6 -192 -14 -350 -16 -351 -1 -2 -13 -7 -26 -11 -23 -7 -23 -5 -18 37
3 23 8 135 11 248 11 423 15 456 51 432z m545 -12 c72 0 79 -2 79 -20 0 -19
-7 -20 -110 -20 l-110 0 0 26 c0 24 3 26 31 20 17 -3 67 -6 110 -6z m1967 -2
c-6 -18 -88 -24 -88 -5 0 9 15 14 46 16 34 1 45 -1 42 -11z m-2363 -5 l48 -6
-8 -266 c-4 -146 -7 -278 -6 -293 1 -24 -6 -31 -49 -53 -93 -47 -100 -48 -100
-17 0 24 7 30 66 51 36 13 63 25 60 28 -2 3 -30 -4 -60 -16 l-56 -21 0 164 c0
89 3 224 7 299 7 155 -1 144 98 130z m765 -28 c0 -19 -2 -35 -4 -35 -2 0 -6
16 -8 35 -2 19 0 35 4 35 4 0 8 -16 8 -35z m1590 -161 c0 -121 -3 -163 -11
-158 -8 5 -10 -1 -5 -19 7 -31 -4 -40 -39 -31 l-25 6 0 184 0 184 40 0 40 0 0
-166z m-180 16 l0 -140 -75 0 -75 0 0 140 0 140 75 0 75 0 0 -140z m374 124
c3 -9 6 -103 6 -210 0 -203 -2 -212 -42 -181 -23 17 -38 384 -17 398 22 14 46
11 53 -7z m-2084 -164 l0 -170 -105 0 -105 0 0 170 0 170 105 0 105 0 0 -170z
m2010 145 c0 -23 -3 -25 -49 -25 l-50 0 -4 -42 c-3 -34 -4 -31 -5 19 -2 60 -1
62 26 66 71 11 82 8 82 -18z m-1932 -142 l-3 -156 -28 -10 c-16 -5 -30 -7 -33
-4 -3 3 -2 77 2 166 l7 161 29 0 29 0 -3 -157z m1934 -20 c2 -65 4 -119 3
-120 -1 -2 -21 3 -46 10 l-44 13 -3 107 -3 107 45 0 44 0 4 -117z m-474 -152
l4 -23 -32 18 c-17 10 -26 20 -20 22 7 3 4 12 -7 25 l-18 21 35 -20 c21 -12
36 -29 38 -43z m132 33 c0 -26 -1 -26 -55 -22 -62 5 -68 8 -59 32 5 12 19 16
60 16 52 0 54 -1 54 -26z m306 -5 c41 -11 44 -14 44 -44 l0 -33 -37 10 c-21 5
-43 14 -49 19 -6 5 -14 6 -17 2 -4 -3 -7 8 -7 25 0 36 3 37 66 21z m-1842 -11
c-5 -7 -7 -28 -5 -48 2 -34 0 -36 -54 -63 -30 -15 -58 -27 -60 -27 -3 0 -5 24
-5 53 l0 52 63 21 c34 12 63 22 65 23 2 0 0 -4 -4 -11z m383 6 c-3 -3 -12 -4
-19 -1 -8 3 -5 6 6 6 11 1 17 -2 13 -5z m1152 -30 c10 -9 -11 -17 -55 -22 -43
-5 -63 5 -64 30 0 6 111 -1 119 -8z m-1669 -44 l0 -30 -105 0 -105 0 0 30 0
30 105 0 105 0 0 -30z m1864 10 c13 -13 -3 -30 -30 -30 -34 0 -64 17 -64 37 0
13 7 14 43 9 23 -4 46 -11 51 -16z m104 -5 c32 -10 52 -21 52 -30 0 -8 -6 -15
-12 -15 -23 1 -98 39 -98 50 0 13 -3 13 58 -5z m122 -57 c0 -10 -5 -18 -11
-18 -22 0 -49 22 -49 39 0 17 3 18 30 8 18 -7 30 -19 30 -29z m-97 0 c19 -7
27 -17 27 -34 l0 -24 -55 27 c-30 15 -55 31 -55 36 0 4 5 5 10 2 6 -3 10 -1
10 5 0 8 7 9 18 5 9 -4 29 -12 45 -17z m92 -46 c-3 -8 -5 -20 -5 -28 0 -8 -4
-14 -9 -14 -18 0 -41 31 -41 55 0 22 2 23 30 12 19 -7 28 -17 25 -25z m222
-39 c-3 -10 -5 -2 -5 17 0 19 2 27 5 18 2 -10 2 -26 0 -35z m-2537 -3 c0 -27
-7 -33 -80 -70 -44 -22 -82 -40 -85 -40 -3 0 -5 18 -5 40 0 36 3 41 38 56 38
17 111 42 125 43 4 1 7 -12 7 -29z m2537 -26 c-3 -3 -12 -4 -19 -1 -8 3 -5 6
6 6 11 1 17 -2 13 -5z m-2741 -100 c-3 -7 -37 -29 -76 -49 l-70 -35 0 53 0 53
73 36 72 35 3 -39 c2 -22 1 -46 -2 -54z m2798 62 c38 -10 50 -18 53 -35 3 -21
1 -20 -60 10 -34 17 -64 33 -66 35 -8 7 24 3 73 -10z m-24 -36 c46 -23 80 -47
80 -55 0 -8 -3 -15 -6 -15 -10 0 -194 101 -194 106 0 14 51 -1 120 -36z m480
-417 c337 -194 410 -238 401 -241 -6 -2 -129 66 -273 151 -145 85 -284 166
-310 181 -27 16 -51 33 -54 38 -4 6 13 -1 37 -15 24 -14 114 -65 199 -114z"/>
<path d="M3814 3780 c0 -102 2 -143 3 -92 2 50 2 134 0 185 -1 50 -3 9 -3 -93z"/>
<path d="M3854 3750 c0 -63 1 -89 3 -57 2 31 2 83 0 115 -2 31 -3 5 -3 -58z"/>
<path d="M3754 3670 c0 -74 1 -105 3 -67 2 37 2 97 0 135 -2 37 -3 6 -3 -68z"/>
<path d="M4014 3478 c-32 -40 -83 -102 -113 -138 -31 -36 -48 -59 -38 -51 18
15 197 225 211 249 20 33 -9 4 -60 -60z"/>
<path d="M3708 3468 c-22 -34 -42 -74 -31 -63 14 15 55 85 50 85 -3 0 -11 -10
-19 -22z"/>
<path d="M3679 3355 c-48 -104 -50 -123 -4 -35 54 104 40 50 -20 -77 -30 -64
-55 -119 -54 -122 0 -3 25 41 55 99 53 101 55 103 50 60 -3 -26 -1 -39 3 -30
9 15 21 190 14 190 -3 0 -22 -38 -44 -85z"/>
<path d="M3503 3258 l0 -47 28 37 c16 20 28 42 29 47 0 6 -10 -6 -23 -25 l-22
-35 -6 35 c-6 32 -7 31 -6 -12z"/>
<path d="M3618 3232 c3 -10 1 -13 -7 -8 -6 4 -11 4 -10 -1 3 -18 -2 -31 -21
-53 -11 -13 -20 -27 -20 -33 0 -18 27 12 53 61 19 35 23 49 13 49 -8 0 -12 -6
-8 -15z"/>
<path d="M1490 3508 c0 -9 5 -20 10 -23 13 -8 13 5 0 25 -8 13 -10 13 -10 -2z"/>
<path d="M1493 3420 c0 -30 2 -43 4 -27 2 15 2 39 0 55 -2 15 -4 2 -4 -28z"/>
<path d="M1254 1935 c0 -82 2 -115 3 -72 2 43 2 110 0 150 -1 40 -3 5 -3 -78z"/>
<path d="M3528 2433 c-2 -5 -1 -132 2 -283 l6 -275 1 283 c1 155 0 282 -2 282
-2 0 -5 -3 -7 -7z"/>
<path d="M1876 2731 c-7 -11 -8 -722 -1 -729 3 -3 5 109 6 249 1 234 12 430
19 339 1 -21 4 -28 7 -16 3 10 -3 45 -12 78 -9 33 -14 66 -11 74 6 15 0 19 -8
5z"/>
<path d="M1841 2154 c0 -11 3 -14 6 -6 3 7 2 16 -1 19 -3 4 -6 -2 -5 -13z"/>
<path d="M2510 2400 c0 -6 54 -10 141 -10 91 0 138 4 134 10 -4 6 -62 10 -141
10 -83 0 -134 -4 -134 -10z"/>
<path d="M3249 2188 c-2 -7 -1 -53 2 -103 l5 -90 2 103 c2 95 -1 120 -9 90z"/>
<path d="M1463 2043 c15 -18 18 -38 16 -137 -1 -65 1 -120 5 -123 3 -4 6 52 6
123 0 123 -1 130 -22 143 -23 14 -23 13 -5 -6z"/>
<path d="M1414 1595 c0 -88 2 -123 3 -77 2 46 2 118 0 160 -1 42 -3 5 -3 -83z"/>
<path d="M1370 5114 c0 -6 32 -109 70 -229 39 -121 87 -272 106 -335 20 -63
41 -119 46 -125 12 -12 16 -27 -66 240 -69 226 -142 445 -151 453 -3 3 -5 1
-5 -4z"/>
<path d="M4407 5043 c-20 -43 -70 -152 -113 -243 -127 -275 -143 -310 -139
-310 7 0 72 131 182 365 120 253 125 265 115 265 -5 0 -25 -35 -45 -77z"/>
<path d="M4416 4933 c-49 -104 -108 -230 -132 -280 -24 -51 -41 -93 -38 -93 6
0 274 540 274 552 0 32 -28 -17 -104 -179z"/>
<path d="M4791 5039 c-46 -86 -170 -295 -372 -629 -187 -308 -189 -310 -189
-247 0 17 -5 98 -10 180 -9 127 -8 151 5 177 9 17 13 30 11 30 -3 0 -13 -14
-22 -31 -14 -29 -15 -51 -5 -213 7 -99 14 -182 16 -185 3 -2 -9 -29 -26 -60
-57 -102 -3 -28 108 149 204 323 361 582 455 750 87 153 90 160 80 160 -4 0
-28 -36 -51 -81z"/>
<path d="M4996 4949 c-65 -93 -132 -184 -149 -202 -17 -17 -30 -35 -29 -40 1
-4 -1 -6 -5 -6 -5 1 -11 0 -15 -1 -5 -1 -13 -3 -20 -4 -6 0 -13 -7 -16 -15 -3
-9 0 -11 8 -6 9 5 11 4 6 -4 -4 -6 -11 -9 -15 -6 -5 2 -25 -21 -46 -53 -21
-31 -65 -93 -98 -137 -116 -154 -100 -142 40 31 54 67 133 161 177 210 43 49
112 136 152 193 41 57 74 96 74 88 0 -20 28 -329 39 -427 l8 -75 -67 -85 c-37
-47 -122 -157 -190 -245 -67 -88 -127 -166 -132 -172 -6 -7 -8 -13 -5 -13 3 0
96 115 206 255 l201 255 -20 213 c-11 116 -23 235 -26 263 -6 44 -3 58 21 98
58 99 14 48 -99 -115z"/>
<path d="M3716 4885 c-9 -26 -7 -32 5 -12 6 10 9 21 6 23 -2 3 -7 -2 -11 -11z"/>
<path d="M3681 4789 c-6 -18 -9 -34 -7 -36 2 -2 9 10 15 28 6 18 9 34 7 36 -2
2 -9 -10 -15 -28z"/>
<path d="M4797 4732 c-19 -20 -23 -37 -7 -27 10 6 33 45 27 45 -2 0 -11 -8
-20 -18z"/>
<path d="M480 4625 c0 -14 199 -293 275 -385 48 -58 97 -126 111 -152 13 -26
49 -83 79 -128 30 -44 55 -87 55 -95 0 -8 5 -17 10 -20 27 -16 -9 58 -78 164
-42 64 -75 124 -75 134 1 10 -5 21 -13 24 -7 3 -12 9 -9 13 4 7 -163 252 -188
275 -20 19 26 -52 148 -225 21 -30 32 -48 23 -40 -47 47 -133 157 -188 240
-61 90 -150 207 -150 195z"/>
<path d="M670 4524 c0 -10 136 -188 209 -274 26 -30 58 -70 71 -87 13 -18 25
-31 28 -29 2 3 -56 80 -130 173 -74 92 -144 181 -156 197 -12 16 -22 25 -22
20z"/>
<path d="M500 4473 c0 -9 89 -131 99 -135 11 -4 120 -150 167 -224 38 -60 42
-97 25 -269 -5 -49 -12 -115 -15 -145 -4 -44 -2 -40 9 20 7 41 17 136 21 210
l7 136 -75 110 c-103 152 -169 239 -178 239 -5 0 -12 4 -17 9 -5 5 -3 6 5 2
16 -10 15 4 -3 28 -14 18 -45 31 -45 19z m38 -38 c-3 -3 -9 2 -12 12 -6 14 -5
15 5 6 7 -7 10 -15 7 -18z"/>
<path d="M4663 4395 c0 -22 2 -30 4 -17 2 12 2 30 0 40 -3 9 -5 -1 -4 -23z"/>
<path d="M3775 4274 c-20 -44 -73 -162 -117 -264 -44 -102 -111 -252 -150
-334 -38 -81 -67 -150 -65 -152 4 -4 161 315 162 331 1 5 6 21 12 35 6 14 40
93 76 175 36 83 80 179 97 213 17 35 29 66 26 69 -3 3 -22 -30 -41 -73z"/>
<path d="M4672 4315 c0 -22 3 -65 8 -95 6 -48 7 -50 8 -15 0 22 -3 65 -8 95
-6 48 -7 50 -8 15z"/>
<path d="M1828 4313 c45 -2 119 -2 165 0 45 1 8 3 -83 3 -91 0 -128 -2 -82 -3z"/>
<path d="M1603 4299 c3 -10 11 -35 18 -58 7 -23 16 -41 20 -41 7 0 -28 101
-38 110 -4 3 -4 -2 0 -11z"/>
<path d="M3461 4294 c0 -11 3 -14 6 -6 3 7 2 16 -1 19 -3 4 -6 -2 -5 -13z"/>
<path d="M4384 4118 c-126 -181 -149 -217 -120 -183 23 27 181 250 200 283 4
6 5 12 3 12 -2 0 -39 -51 -83 -112z"/>
<path d="M3756 4163 c-31 -62 -56 -123 -51 -123 5 0 61 109 75 146 16 40 2 27
-24 -23z"/>
<path d="M3426 4138 c-29 -78 -97 -301 -93 -305 2 -2 21 50 41 114 20 65 45
143 56 173 11 30 18 56 16 58 -2 2 -11 -16 -20 -40z"/>
<path d="M4693 4125 c0 -22 2 -30 4 -17 2 12 2 30 0 40 -3 9 -5 -1 -4 -23z"/>
<path d="M4703 4035 c0 -22 2 -30 4 -17 2 12 2 30 0 40 -3 9 -5 -1 -4 -23z"/>
<path d="M1118 3732 c4 -135 9 -148 11 -30 0 59 -2 109 -6 111 -5 3 -7 -34 -5
-81z"/>
<path d="M3311 3779 c-7 -22 -11 -43 -8 -45 2 -2 9 14 16 37 7 22 11 43 8 45
-2 2 -9 -14 -16 -37z"/>
<path d="M4614 3733 c-101 -116 -117 -138 -46 -64 66 68 127 141 119 141 -2 0
-35 -35 -73 -77z"/>
<path d="M2515 3760 c-7 -11 34 -23 66 -18 12 2 24 9 27 16 5 15 -84 17 -93 2z
m63 -7 c-10 -2 -26 -2 -35 0 -10 3 -2 5 17 5 19 0 27 -2 18 -5z"/>
<path d="M1935 3750 c3 -5 20 -10 36 -10 18 0 28 4 24 10 -3 6 -20 10 -36 10
-18 0 -28 -4 -24 -10z"/>
<path d="M4937 3609 c-97 -87 -172 -147 -179 -143 -6 4 -8 3 -4 -4 3 -6 -13
-30 -36 -53 l-43 -41 41 33 c44 36 355 308 389 340 11 11 15 19 10 19 -6 0
-86 -68 -178 -151z"/>
<path d="M4733 3715 c0 -22 2 -30 4 -17 2 12 2 30 0 40 -3 9 -5 -1 -4 -23z"/>
<path d="M3287 3701 c-3 -13 -17 -21 -46 -26 -23 -4 -40 -9 -37 -12 2 -3 23
-2 45 2 28 5 42 13 46 27 4 11 5 22 2 24 -2 3 -7 -4 -10 -15z"/>
<path d="M4979 3602 c-74 -64 -155 -133 -178 -152 l-43 -35 16 -210 c9 -116
21 -289 26 -385 6 -96 17 -240 25 -320 8 -80 17 -185 20 -235 9 -135 15 -175
28 -175 7 0 65 12 130 27 99 22 117 30 117 46 0 15 -5 18 -32 13 l-33 -5 33
11 c30 10 32 14 32 60 0 42 -3 49 -17 44 -125 -36 -174 -48 -179 -43 -7 6 -43
507 -44 598 l0 56 59 27 c32 14 64 26 71 26 10 0 12 -22 7 -97 -3 -64 -2 -89
4 -73 6 18 7 8 4 -35 -3 -33 0 -139 7 -236 l11 -176 35 10 35 11 -7 76 c-9
120 -27 409 -29 480 -1 36 -5 67 -9 70 -3 3 -11 59 -17 125 -6 66 -13 141 -16
167 -5 46 -5 47 40 78 44 30 45 32 45 86 l0 55 -79 -61 c-44 -34 -101 -84
-127 -112 l-47 -50 5 -172 c3 -101 2 -140 -2 -96 -9 95 -12 303 -4 324 3 9 60
57 126 107 66 50 122 97 124 104 3 7 4 25 2 40 -3 26 -6 24 -113 -60 -120 -95
-189 -145 -201 -145 -15 0 44 54 178 163 133 108 138 113 138 150 0 20 -1 37
-2 37 -2 0 -64 -53 -139 -118z m-194 -192 c3 -5 1 -10 -4 -10 -6 0 -11 5 -11
10 0 6 2 10 4 10 3 0 8 -4 11 -10z m177 -309 c2 -41 -1 -66 -8 -68 -19 -6 -33
153 -17 194 9 22 19 -31 25 -126z m-155 47 c-2 -13 -4 -3 -4 22 0 25 2 35 4
23 2 -13 2 -33 0 -45z m10 -140 c-2 -18 -4 -4 -4 32 0 36 2 50 4 33 2 -18 2
-48 0 -65z m10 -155 c-2 -21 -4 -6 -4 32 0 39 2 55 4 38 2 -18 2 -50 0 -70z
m10 -225 c-2 -18 -4 -6 -4 27 0 33 2 48 4 33 2 -15 2 -42 0 -60z m200 5 c-3
-10 -5 -4 -5 12 0 17 2 24 5 18 2 -7 2 -21 0 -30z m-190 -120 c-3 -10 -5 -2
-5 17 0 19 2 27 5 18 2 -10 2 -26 0 -35z m200 5 c-3 -7 -5 -2 -5 12 0 14 2 19
5 13 2 -7 2 -19 0 -25z m-190 -110 c-2 -13 -4 -5 -4 17 -1 22 1 32 4 23 2 -10
2 -28 0 -40z m10 -90 c-3 -8 -6 -5 -6 6 -1 11 2 17 5 13 3 -3 4 -12 1 -19z
m180 -154 c-3 -3 -12 -4 -19 -1 -8 3 -5 6 6 6 11 1 17 -2 13 -5z"/>
<path d="M2098 3663 c117 -2 306 -2 420 0 114 1 18 2 -213 2 -231 0 -324 -1
-207 -2z"/>
<path d="M2813 3663 c9 -2 23 -2 30 0 6 3 -1 5 -18 5 -16 0 -22 -2 -12 -5z"/>
<path d="M4743 3605 c0 -33 2 -45 4 -27 2 18 2 45 0 60 -2 15 -4 0 -4 -33z"/>
<path d="M763 3590 c0 -30 2 -43 4 -27 2 15 2 39 0 55 -2 15 -4 2 -4 -28z"/>
<path d="M1911 3504 c0 -11 3 -14 6 -6 3 7 2 16 -1 19 -3 4 -6 -2 -5 -13z"/>
<path d="M1131 3494 c0 -11 3 -14 6 -6 3 7 2 16 -1 19 -3 4 -6 -2 -5 -13z"/>
<path d="M1922 3470 c0 -8 6 -31 13 -50 7 -19 13 -28 13 -20 0 8 -6 31 -13 50
-7 19 -13 28 -13 20z"/>
<path d="M3383 3429 c-12 -21 -18 -39 -14 -39 8 0 44 70 39 76 -2 1 -13 -15
-25 -37z"/>
<path d="M1128 3408 c5 -71 10 -77 11 -15 0 31 -2 57 -7 57 -4 0 -6 -19 -4
-42z"/>
<path d="M3191 3414 c0 -11 3 -14 6 -6 3 7 2 16 -1 19 -3 4 -6 -2 -5 -13z"/>
<path d="M3181 3374 c0 -11 3 -14 6 -6 3 7 2 16 -1 19 -3 4 -6 -2 -5 -13z"/>
<path d="M1951 3368 c0 -7 4 -22 8 -32 8 -20 8 -20 13 0 3 11 -1 25 -9 32 -10
10 -13 10 -12 0z"/>
<path d="M4639 3343 l-24 -28 28 24 c25 23 32 31 24 31 -2 0 -14 -12 -28 -27z"/>
<path d="M470 3336 c0 -7 31 -41 69 -75 59 -52 67 -57 55 -31 -9 16 -20 30
-25 30 -5 0 -9 8 -9 18 0 9 -18 29 -39 45 -44 31 -51 33 -51 13z"/>
<path d="M1976 3285 c10 -41 53 -153 54 -139 0 12 -49 157 -57 164 -2 3 -1 -9
3 -25z"/>
<path d="M1116 3279 c-2 -13 -10 -181 -16 -374 -6 -192 -14 -429 -17 -525 -3
-96 -3 -173 0 -170 9 9 50 1078 41 1089 -2 2 -5 -7 -8 -20z"/>
<path d="M210 3270 c80 -62 473 -341 461 -327 -17 21 -466 347 -478 347 -4 0
3 -9 17 -20z"/>
<path d="M3151 3283 c-1 -6 -4 -20 -7 -30 -5 -17 -5 -17 6 0 6 10 9 23 6 30
-3 9 -5 9 -5 0z"/>
<path d="M4515 3188 l-90 -93 93 90 c85 83 97 95 89 95 -1 0 -43 -42 -92 -92z"/>
<path d="M3126 3194 c-4 -14 -5 -28 -3 -31 3 -2 8 8 11 23 4 14 5 28 3 31 -3
2 -8 -8 -11 -23z"/>
<path d="M796 3040 c-3 -47 -11 -195 -17 -330 -5 -135 -16 -366 -23 -515 -8
-148 -12 -273 -10 -277 6 -9 84 -31 90 -25 3 2 -16 10 -42 17 -44 13 -46 15
-40 43 3 16 6 56 6 87 l0 58 53 -19 c28 -11 71 -26 94 -35 36 -13 42 -20 45
-47 4 -47 28 624 28 793 0 89 4 140 9 135 6 -6 11 -30 14 -55 l4 -45 1 46 c2
43 -1 48 -40 79 -72 58 -150 134 -158 155 -5 13 -10 -11 -14 -65z m35 -54 c8
-9 14 14 10 38 -1 5 26 -15 61 -46 l63 -56 -2 -168 c-2 -189 -21 -696 -27
-701 -2 -2 -21 3 -41 11 l-38 16 6 108 c16 271 20 452 9 452 -6 0 -24 12 -41
26 l-31 26 0 128 c0 75 4 131 10 135 13 8 33 -44 24 -64 -4 -9 -6 -52 -5 -96
2 -66 6 -84 24 -103 30 -32 35 -16 38 117 l3 113 -42 37 c-34 29 -42 42 -41
66 l2 30 4 -30 c3 -16 9 -34 14 -39z m2 -338 c18 -13 33 -23 34 -24 6 -1 -25
-525 -30 -531 -4 -3 -21 0 -38 7 l-32 14 7 150 c13 293 19 406 23 406 2 0 18
-10 36 -22z"/>
<path d="M4369 3053 l-34 -38 38 34 c34 33 42 41 34 41 -2 0 -19 -17 -38 -37z"/>
<path d="M4294 2988 l-19 -23 23 19 c21 18 27 26 19 26 -2 0 -12 -10 -23 -22z"/>
<path d="M345 2983 c12 -12 204 -140 260 -173 77 -45 19 -2 -110 82 -147 95
-165 106 -150 91z"/>
<path d="M3045 2980 c-3 -5 -1 -10 4 -10 6 0 11 5 11 10 0 6 -2 10 -4 10 -3 0
-8 -4 -11 -10z"/>
<path d="M3030 2950 c0 -5 5 -10 11 -10 5 0 7 5 4 10 -3 6 -8 10 -11 10 -2 0
-4 -4 -4 -10z"/>
<path d="M3025 2920 c3 -5 8 -10 11 -10 2 0 4 5 4 10 0 6 -5 10 -11 10 -5 0
-7 -4 -4 -10z"/>
<path d="M5002 2895 c0 -16 2 -22 5 -12 2 9 2 23 0 30 -3 6 -5 -1 -5 -18z"/>
<path d="M1004 2685 c0 -55 1 -76 3 -47 2 29 2 74 0 100 -2 26 -3 2 -3 -53z"/>
<path d="M10 2521 c35 -20 653 -282 656 -278 7 7 -639 287 -660 287 -6 0 -4
-5 4 -9z"/>
<path d="M993 2465 c0 -38 2 -53 4 -32 2 20 2 52 0 70 -2 17 -4 1 -4 -38z"/>
<path d="M2 2258 c3 -7 49 -28 104 -46 54 -19 187 -65 294 -103 108 -38 200
-69 205 -68 13 0 2 5 -175 74 -143 55 -417 155 -427 155 -2 0 -3 -6 -1 -12z"/>
<path d="M1072 2049 c-2 -34 1 -38 38 -53 55 -22 65 -19 13 4 -35 16 -42 24
-46 52 l-4 33 -1 -36z"/>
<path d="M4945 1739 c-38 -5 -200 -27 -358 -49 -158 -22 -292 -40 -298 -40 -6
0 -7 -101 -4 -277 8 -390 14 -503 29 -503 7 0 82 -29 167 -64 397 -165 631
-257 637 -251 4 3 0 10 -8 15 -24 15 -770 310 -784 310 -10 0 -14 56 -19 257
-4 141 -7 309 -7 374 l0 118 33 5 c85 14 715 96 735 96 12 0 22 5 22 10 0 12
-46 11 -145 -1z"/>
<path d="M45 1670 c58 -10 515 -41 566 -39 44 2 -512 48 -571 47 l-45 0 50 -8z"/>
<path d="M4900 1649 c-233 -21 -486 -49 -518 -56 -54 -13 -6 -12 134 1 82 8
246 22 364 31 229 17 240 19 240 35 0 5 -6 9 -12 9 -7 -1 -101 -10 -208 -20z"/>
<path d="M683 1623 c15 -2 39 -2 55 0 15 2 2 4 -28 4 -30 0 -43 -2 -27 -4z"/>
<path d="M0 1551 c0 -10 143 -19 445 -26 121 -3 257 -8 303 -11 56 -4 82 -2
82 5 0 7 -28 11 -77 11 -43 0 -213 7 -378 15 -355 17 -375 18 -375 6z"/>
<path d="M4350 1292 c0 -5 51 -15 113 -21 61 -7 211 -26 332 -42 233 -31 285
-35 269 -20 -11 11 -343 55 -524 71 -69 5 -140 13 -157 16 -18 2 -33 1 -33 -4z"/>
<path d="M4510 1180 c85 -16 237 -48 338 -71 101 -22 186 -39 188 -36 13 12
-504 121 -625 132 -31 3 14 -8 99 -25z"/>
<path d="M3180 1175 c0 -5 5 -17 10 -25 5 -8 10 -10 10 -5 0 6 -5 17 -10 25
-5 8 -10 11 -10 5z"/>
<path d="M2212 1125 c0 -16 2 -22 5 -12 2 9 2 23 0 30 -3 6 -5 -1 -5 -18z"/>
<path d="M2561 1134 c0 -11 3 -14 6 -6 3 7 2 16 -1 19 -3 4 -6 -2 -5 -13z"/>
<path d="M735 1034 c-137 -35 -356 -89 -485 -120 -129 -31 -239 -60 -244 -65
-21 -19 5 -17 109 11 61 15 287 74 504 129 217 56 397 104 400 106 11 12 -49
-1 -284 -61z"/>
<path d="M3191 1096 c2 -2 29 -6 59 -9 36 -4 46 -3 30 3 -25 8 -97 13 -89 6z"/>
<path d="M2298 994 c5 -76 35 -61 56 29 6 25 4 27 -26 27 l-33 0 3 -56z"/>
<path d="M2780 1049 c0 -10 70 -159 75 -159 3 0 -1 15 -8 33 -19 43 -66 134
-67 126z"/>
<path d="M2043 995 c0 -27 2 -38 4 -22 2 15 2 37 0 50 -2 12 -4 0 -4 -28z"/>
<path d="M2941 998 c1 -35 2 -38 8 -18 4 14 12 26 19 26 7 1 17 2 22 3 6 0 10
8 10 16 0 10 -10 15 -30 15 -29 0 -30 -2 -29 -42z"/>
<path d="M3247 992 c32 -26 96 -75 143 -108 300 -213 306 -218 280 -225 -23
-7 -23 -7 6 -8 38 -1 65 -19 219 -145 66 -55 176 -144 244 -200 68 -56 180
-147 249 -204 68 -57 130 -102 137 -100 17 4 -44 54 -385 323 -146 115 -290
229 -320 255 -58 49 -168 130 -262 195 -31 22 -54 44 -51 50 4 5 3 7 -2 3 -8
-8 -88 46 -222 149 -96 74 -121 84 -36 15z"/>
<path d="M3474 1019 c-17 -4 7 -7 58 -8 47 0 95 -4 105 -7 12 -5 15 -4 8 4
-12 12 -130 20 -171 11z"/>
<path d="M2083 985 c0 -22 2 -30 4 -17 2 12 2 30 0 40 -3 9 -5 -1 -4 -23z"/>
<path d="M4355 992 c6 -5 145 -51 310 -101 165 -50 335 -102 378 -115 62 -20
77 -22 77 -10 0 8 -2 14 -5 14 -4 0 -598 172 -750 216 -13 4 -17 3 -10 -4z"/>
<path d="M3450 986 c0 -2 8 -10 18 -17 15 -13 16 -12 3 4 -13 16 -21 21 -21
13z"/>
<path d="M3643 983 c9 -14 66 -22 73 -11 3 4 -6 8 -20 8 -13 0 -32 3 -42 7
-11 4 -15 3 -11 -4z"/>
<path d="M1640 960 c-9 -6 -10 -10 -3 -10 6 0 15 5 18 10 8 12 4 12 -15 0z"/>
<path d="M1779 943 c-13 -16 -12 -17 4 -4 16 13 21 21 13 21 -2 0 -10 -8 -17
-17z"/>
<path d="M3490 955 c0 -2 48 -37 106 -76 59 -39 154 -107 213 -151 58 -43 88
-63 66 -43 -72 64 -385 284 -385 270z"/>
<path d="M3615 953 c9 -8 201 -138 230 -156 6 -3 12 4 12 16 2 15 0 18 -6 8
-6 -10 -25 -2 -80 35 -39 26 -71 49 -71 52 0 2 20 2 45 0 25 -3 48 -2 51 3 3
5 -23 9 -57 9 -45 0 -71 6 -98 22 -20 11 -31 17 -26 11z"/>
<path d="M1574 924 c-18 -14 -18 -15 4 -4 12 6 22 13 22 15 0 8 -5 6 -26 -11z"/>
<path d="M1625 824 c-71 -58 -183 -148 -247 -200 -65 -52 -118 -97 -118 -100
0 -8 427 333 485 387 46 44 1 11 -120 -87z"/>
<path d="M4370 920 c0 -4 35 -20 78 -35 42 -15 209 -76 371 -136 161 -61 296
-108 299 -105 5 6 12 3 -223 93 -247 95 -525 191 -525 183z"/>
<path d="M3800 894 c0 -2 9 -13 20 -24 19 -19 20 -19 20 -1 0 10 -9 21 -20 24
-11 3 -20 3 -20 1z"/>
<path d="M3851 878 c-1 -15 4 -30 9 -33 12 -7 12 12 0 40 -8 18 -9 17 -9 -7z"/>
<path d="M2168 823 c34 -2 88 -2 120 0 31 2 3 3 -63 3 -66 0 -92 -1 -57 -3z"/>
<path d="M2891 784 c0 -11 3 -14 6 -6 3 7 2 16 -1 19 -3 4 -6 -2 -5 -13z"/>
<path d="M1304 764 c-18 -14 -18 -15 4 -4 12 6 22 13 22 15 0 8 -5 6 -26 -11z"/>
<path d="M3900 766 c0 -2 53 -37 118 -77 64 -39 119 -75 122 -80 3 -4 19 -10
35 -14 22 -5 13 3 -31 28 -33 19 -91 55 -130 79 -79 51 -114 71 -114 64z"/>
<path d="M2906 740 c4 -14 13 -38 20 -55 11 -24 13 -25 8 -5 -4 14 -13 39 -20
55 -11 24 -13 25 -8 5z"/>
<path d="M1235 724 c-51 -34 -69 -52 -29 -29 35 20 82 54 74 55 -3 0 -23 -12
-45 -26z"/>
<path d="M1144 664 c-18 -14 -18 -15 4 -4 12 6 22 13 22 15 0 8 -5 6 -26 -11z"/>
<path d="M3568 663 c6 -2 18 -2 25 0 6 3 1 5 -13 5 -14 0 -19 -2 -12 -5z"/>
<path d="M3920 646 c0 -2 8 -10 18 -17 15 -13 16 -12 3 4 -13 16 -21 21 -21
13z"/>
<path d="M2940 634 c1 -48 145 -453 157 -440 2 2 -21 67 -51 143 -30 77 -64
176 -76 219 -21 75 -30 99 -30 78z"/>
<path d="M4003 593 c6 -10 291 -220 570 -421 56 -40 132 -96 170 -123 37 -28
74 -49 83 -47 14 3 -337 260 -631 462 -55 38 -122 85 -150 105 -27 19 -46 31
-42 24z"/>
<path d="M2452 565 c0 -16 2 -22 5 -12 2 9 2 23 0 30 -3 6 -5 -1 -5 -18z"/>
<path d="M4246 581 c-6 -9 39 -38 134 -86 30 -15 87 -49 125 -75 122 -82 245
-160 245 -155 0 11 -314 214 -404 261 -56 29 -92 54 -85 57 9 3 10 6 2 6 -6 1
-14 -3 -17 -8z"/>
<path d="M930 492 c-125 -73 -735 -485 -723 -489 13 -5 96 47 243 151 58 41
204 140 325 221 121 81 222 149 224 151 11 11 -10 0 -69 -34z"/>
<path d="M2442 495 c0 -16 2 -22 5 -12 2 9 2 23 0 30 -3 6 -5 -1 -5 -18z"/>
<path d="M1054 308 c-228 -210 -338 -316 -308 -296 21 13 514 469 514 475 0 8
-20 -9 -206 -179z"/>
<path d="M2432 430 c0 -19 2 -27 5 -17 2 9 2 25 0 35 -3 9 -5 1 -5 -18z"/>
<path d="M2422 365 c0 -16 2 -22 5 -12 2 9 2 23 0 30 -3 6 -5 -1 -5 -18z"/>
<path d="M2412 295 c0 -16 2 -22 5 -12 2 9 2 23 0 30 -3 6 -5 -1 -5 -18z"/>
<path d="M1180 160 l-205 -6 227 -2 c142 -1 229 2 233 8 4 6 -5 9 -22 7 -15
-1 -120 -4 -233 -7z"/>
</g>
</svg>