<?xml version="1.0" standalone="no"?>
<!DOCTYPE svg PUBLIC "-//W3C//DTD SVG 20010904//EN"
 "http://www.w3.org/TR/2001/REC-SVG-20010904/DTD/svg10.dtd">
<svg version="1.0" xmlns="http://www.w3.org/2000/svg"
 width="512.000000pt" height="512.000000pt" viewBox="0 0 512.000000 512.000000"
 preserveAspectRatio="xMidYMid meet">
<metadata>
Created by potrace 1.16, written by Peter Selinger 2001-2019
</metadata>
<g transform="translate(0.000000,512.000000) scale(0.100000,-0.100000)"
fill="#000000" stroke="none">
<path d="M2435 4173 c-73 -11 -208 -45 -291 -74 -84 -30 -284 -124 -284 -134
0 -6 40 10 102 41 82 41 252 100 368 126 86 19 134 23 265 23 170 0 218 -8
378 -56 133 -41 233 -88 348 -164 267 -178 501 -484 642 -840 42 -106 79 -277
75 -347 l-3 -49 -95 65 c-97 66 -175 136 -135 122 32 -12 135 -35 135 -30 0 2
-19 13 -42 25 -63 32 -107 68 -268 223 -80 76 -181 167 -225 203 -365 295
-757 424 -1160 384 -236 -24 -434 -75 -818 -210 -327 -115 -420 -135 -521
-112 -59 14 -30 -6 49 -32 l68 -23 -92 -48 c-51 -26 -116 -56 -144 -66 -69
-24 -41 -24 85 0 131 25 252 63 518 162 233 87 438 158 455 158 5 0 -37 -21
-95 -46 -152 -65 -235 -109 -411 -217 -189 -115 -256 -150 -374 -193 -121 -44
-98 -42 65 5 l135 40 -45 -42 c-25 -23 -76 -69 -113 -102 l-69 -60 84 -1 c96
-2 131 -13 366 -123 255 -118 477 -190 735 -237 116 -21 358 -30 430 -15 90
19 186 73 249 139 65 68 95 122 113 206 7 33 14 49 14 35 1 -40 -28 -128 -62
-188 -124 -220 -399 -316 -718 -251 -122 25 -303 79 -417 125 -47 19 -87 33
-89 31 -8 -8 254 -105 377 -140 167 -48 281 -66 409 -66 176 0 278 38 384 142
101 100 157 259 143 408 -3 36 -9 76 -13 89 -6 23 -7 24 -15 5 -6 -15 -7 -13
-6 11 4 65 -105 232 -163 250 -11 4 -19 16 -19 29 0 15 -18 40 -49 69 -45 42
-47 46 -23 42 15 -2 54 -6 87 -9 137 -13 386 -119 523 -222 17 -14 37 -22 44
-18 6 4 8 3 5 -3 -7 -11 50 -60 65 -55 5 1 7 -1 4 -6 -5 -8 50 -56 64 -57 3 0
52 -47 110 -105 58 -58 94 -96 81 -85 -18 16 -11 -5 33 -90 62 -122 72 -157
84 -295 l7 -95 13 65 c7 36 16 109 19 162 l6 97 31 -24 c39 -29 166 -95 185
-95 32 0 -14 -262 -76 -425 -141 -376 -432 -699 -791 -879 -189 -95 -362 -136
-572 -136 -361 0 -692 131 -1039 410 -193 156 -353 361 -447 577 -44 102 -43
78 2 -45 109 -293 281 -496 615 -722 227 -154 427 -242 628 -275 141 -24 408
-16 531 14 386 98 748 383 985 777 106 176 170 352 202 553 l16 107 101 -4
101 -3 -57 24 c-31 13 -76 36 -101 50 l-44 26 -7 84 c-18 216 -113 469 -264
702 -253 390 -605 635 -1004 700 -85 14 -299 18 -373 8z m-90 -724 c-32 -20
-52 -43 -65 -73 -12 -26 -35 -54 -60 -71 -96 -67 -160 -201 -160 -339 0 -130
48 -240 141 -320 l44 -38 -60 6 c-113 13 -230 38 -381 82 -227 66 -396 134
-520 212 -39 24 -41 28 -31 51 6 14 28 47 49 73 21 26 38 52 38 58 0 6 4 9 9
5 6 -3 15 4 21 16 7 11 14 19 16 16 3 -3 16 5 29 17 27 25 215 142 222 138 2
-1 11 4 19 13 9 8 24 15 35 15 11 0 22 6 25 14 3 9 12 12 21 9 12 -5 14 -3 8
7 -5 9 -4 11 3 6 6 -4 26 0 43 9 78 41 262 100 349 112 19 3 37 7 39 9 3 3 51
4 108 3 l104 -1 -46 -29z m159 -43 c44 -18 76 -61 76 -102 0 -19 11 -49 25
-70 70 -104 -15 -258 -143 -258 -94 0 -181 78 -182 162 0 38 27 101 46 109 9
3 10 12 2 33 -13 40 12 90 60 118 43 25 70 27 116 8z m433 -453 c-3 -10 -5 -2
-5 17 0 19 2 27 5 18 2 -10 2 -26 0 -35z"/>
<path d="M1764 3834 c-96 -60 -201 -143 -249 -195 -17 -20 -9 -14 21 12 67 61
200 159 268 199 49 27 65 40 53 40 -2 0 -44 -25 -93 -56z"/>
<path d="M1474 3838 l-19 -23 23 19 c21 18 27 26 19 26 -2 0 -12 -10 -23 -22z"/>
<path d="M1384 3758 l-29 -33 33 29 c30 28 37 36 29 36 -2 0 -16 -15 -33 -32z"/>
<path d="M1310 3673 c-23 -27 -55 -68 -72 -93 -16 -25 -19 -32 -6 -16 13 16
47 58 76 93 61 74 63 85 2 16z"/>
<path d="M3281 3567 c154 -77 294 -169 419 -277 137 -118 169 -136 65 -36
-114 109 -260 221 -350 268 -66 34 -240 108 -254 108 -3 0 51 -29 120 -63z"/>
<path d="M1560 2660 c19 -11 40 -19 45 -19 6 0 -6 8 -25 19 -19 11 -39 19 -45
19 -5 0 6 -8 25 -19z"/>
<path d="M3761 2404 c0 -11 3 -14 6 -6 3 7 2 16 -1 19 -3 4 -6 -2 -5 -13z"/>
<path d="M4242 2395 c0 -16 2 -22 5 -12 2 9 2 23 0 30 -3 6 -5 -1 -5 -18z"/>
<path d="M4232 2320 c0 -14 2 -19 5 -12 2 6 2 18 0 25 -3 6 -5 1 -5 -13z"/>
<path d="M4221 2264 c0 -11 3 -14 6 -6 3 7 2 16 -1 19 -3 4 -6 -2 -5 -13z"/>
<path d="M4211 2214 c0 -11 3 -14 6 -6 3 7 2 16 -1 19 -3 4 -6 -2 -5 -13z"/>
<path d="M4196 2164 c-4 -14 -5 -28 -3 -31 3 -2 8 8 11 23 4 14 5 28 3 31 -3
2 -8 -8 -11 -23z"/>
<path d="M4171 2083 c-1 -6 -4 -20 -7 -30 -5 -17 -5 -17 6 0 6 10 9 23 6 30
-3 9 -5 9 -5 0z"/>
<path d="M4126 1966 c-69 -160 -194 -341 -341 -495 -254 -266 -553 -436 -902
-513 -135 -30 -473 -33 -603 -5 -203 43 -417 134 -597 253 -54 35 -84 53 -68
39 144 -123 416 -252 645 -307 109 -25 396 -36 525 -19 268 36 521 138 755
304 128 91 352 321 432 442 80 120 204 365 186 365 -2 0 -16 -29 -32 -64z"/>
</g>
</svg>