<?xml version="1.0" standalone="no"?>
<!DOCTYPE svg PUBLIC "-//W3C//DTD SVG 20010904//EN"
 "http://www.w3.org/TR/2001/REC-SVG-20010904/DTD/svg10.dtd">
<svg version="1.0" xmlns="http://www.w3.org/2000/svg"
 width="512.000000pt" height="512.000000pt" viewBox="0 0 512.000000 512.000000"
 preserveAspectRatio="xMidYMid meet">
<metadata>
Created by potrace 1.16, written by Peter Selinger 2001-2019
</metadata>
<g transform="translate(0.000000,512.000000) scale(0.100000,-0.100000)"
fill="#000000" stroke="none">
<path d="M590 5091 c0 -16 -4 -41 -9 -54 -7 -18 -5 -30 5 -46 14 -19 13 -21
-3 -22 -10 -1 -21 -1 -24 -1 -9 1 -82 -78 -94 -102 -11 -21 -18 -25 -118 -71
-208 -96 -298 -373 -190 -589 33 -66 111 -146 175 -181 80 -43 94 -62 94 -126
l-1 -54 65 -17 c36 -9 67 -17 69 -17 2 -1 -2 -8 -9 -16 -10 -11 -9 -18 3 -30
16 -15 16 -26 -2 -137 -9 -53 -9 -53 60 -42 l37 6 -25 62 c-37 90 -43 114 -30
119 9 3 9 8 0 18 -21 21 -16 25 41 38 65 14 80 30 74 73 -7 48 6 69 70 108
158 96 242 226 242 375 0 79 -19 165 -51 227 -29 57 -124 150 -176 173 -23 10
-40 23 -36 28 8 14 -64 113 -103 139 -18 12 -34 31 -34 41 0 10 -6 20 -14 23
-11 4 -13 17 -9 55 3 27 3 49 -1 49 -3 0 -6 -13 -6 -29z m71 -161 l24 -20 -73
4 c-71 4 -90 14 -55 27 34 14 81 9 104 -11z m2 -67 c-7 -2 -19 -2 -25 0 -7 3
-2 5 12 5 14 0 19 -2 13 -5z m44 -9 c-3 -3 -12 -4 -19 -1 -8 3 -5 6 6 6 11 1
17 -2 13 -5z m-45 -50 c15 -10 55 -98 69 -154 7 -30 13 -104 13 -165 0 -161
-37 -311 -104 -415 -29 -46 -30 -46 -77 -40 -44 5 -48 7 -57 40 -14 52 -11
571 4 650 18 100 22 104 87 96 31 -4 60 -9 65 -12z m-169 -81 c-18 -117 -21
-558 -5 -637 7 -33 10 -62 7 -65 -9 -8 -75 61 -103 108 -104 176 -76 481 60
645 48 59 56 49 41 -51z m-113 59 c-54 -35 -123 -117 -153 -179 -25 -55 -31
-81 -35 -163 -6 -120 7 -181 60 -279 l39 -74 -33 25 c-41 31 -94 116 -113 182
-29 95 -15 219 35 315 29 58 113 141 170 168 54 26 64 28 30 5z m26 -41 c-50
-76 -87 -198 -93 -308 -9 -148 23 -264 100 -365 30 -39 34 -48 19 -48 -26 0
-106 53 -129 86 -123 175 -132 389 -22 553 35 53 144 149 156 137 2 -2 -12
-27 -31 -55z m400 14 c164 -95 241 -343 161 -519 -59 -128 -195 -224 -309
-218 l-27 2 39 73 c63 118 81 192 87 352 6 162 -9 241 -65 347 -6 12 72 -13
114 -37z m-218 -792 c-26 -2 -71 -2 -100 0 -29 2 -8 3 47 3 55 0 79 -1 53 -3z
m85 -10 c-7 -2 -19 -2 -25 0 -7 3 -2 5 12 5 14 0 19 -2 13 -5z m0 -19 c31 -9
19 -27 -14 -20 -17 3 -71 6 -120 6 -83 0 -118 12 -66 23 25 6 172 -1 200 -9z
m16 -40 c14 -13 -21 -15 -131 -8 -82 5 -115 10 -98 15 24 7 220 1 229 -7z"/>
<path d="M871 4354 c0 -11 3 -14 6 -6 3 7 2 16 -1 19 -3 4 -6 -2 -5 -13z"/>
<path d="M836 4225 c-9 -26 -7 -32 5 -12 6 10 9 21 6 23 -2 3 -7 -2 -11 -11z"/>
<path d="M785 4124 c-16 -25 -48 -58 -69 -75 -22 -16 -36 -29 -31 -29 26 0
147 131 133 145 -1 2 -16 -17 -33 -41z"/>
<path d="M1027 5088 c-36 -48 -57 -94 -56 -120 1 -24 4 -19 13 23 3 15 22 49
41 78 39 56 40 70 2 19z"/>
<path d="M1198 5079 c-18 -62 -15 -280 5 -341 11 -36 12 -48 3 -48 -18 0 -60
48 -90 100 -14 25 -26 41 -26 35 0 -15 39 -76 68 -107 20 -22 22 -28 9 -28
-17 0 -80 57 -111 100 -17 24 -17 24 0 -5 9 -16 26 -40 37 -52 30 -33 8 -28
-38 9 -23 19 -32 23 -21 10 31 -35 109 -83 125 -77 9 3 12 3 9 -1 -4 -3 -1
-19 7 -35 8 -15 15 -39 15 -54 0 -18 5 -25 19 -25 24 0 33 -34 21 -85 -14 -58
-12 -65 11 -65 19 0 20 5 17 73 l-3 72 27 -2 c23 -1 29 3 35 25 3 15 13 32 22
39 9 7 12 13 8 13 -14 0 18 27 41 34 59 19 183 142 182 180 -1 6 -9 -5 -20
-24 -21 -41 -77 -96 -86 -87 -4 4 -1 15 7 24 7 10 -7 -2 -31 -27 -58 -58 -102
-70 -50 -13 l35 38 -40 -37 c-23 -21 -47 -38 -54 -38 -9 0 -6 11 9 38 12 20
14 28 6 17 -47 -62 -48 -63 -42 -30 5 28 5 28 -6 8 -17 -34 -62 -31 -77 5 -31
75 -39 227 -17 332 16 76 13 91 -6 29z m-48 -395 c0 -2 -9 0 -20 6 -11 6 -20
13 -20 16 0 2 9 0 20 -6 11 -6 20 -13 20 -16z m188 -21 c-10 -2 -28 -2 -40 0
-13 2 -5 4 17 4 22 1 32 -1 23 -4z m-15 -30 c-7 -2 -19 -2 -25 0 -7 3 -2 5 12
5 14 0 19 -2 13 -5z m-13 -34 c0 -17 -4 -20 -22 -15 -13 3 -35 6 -50 6 -18 0
-28 5 -28 15 0 11 12 15 50 15 44 0 50 -2 50 -21z"/>
<path d="M1332 5100 c0 -14 2 -19 5 -12 2 6 2 18 0 25 -3 6 -5 1 -5 -13z"/>
<path d="M1461 5100 c14 -31 19 -36 19 -24 0 6 -7 19 -16 30 -14 18 -14 18 -3
-6z"/>
<path d="M1536 5095 c24 -39 24 -40 24 -28 0 6 -9 21 -21 34 l-20 24 17 -30z"/>
<path d="M1833 5075 c0 -27 2 -38 4 -22 2 15 2 37 0 50 -2 12 -4 0 -4 -28z"/>
<path d="M1911 5104 c0 -11 3 -14 6 -6 3 7 2 16 -1 19 -3 4 -6 -2 -5 -13z"/>
<path d="M2255 5109 c-4 -6 -5 -12 -2 -15 2 -3 7 2 10 11 7 17 1 20 -8 4z"/>
<path d="M2668 4721 l-3 -400 -35 -36 c-28 -29 -35 -43 -35 -76 0 -34 6 -46
33 -70 17 -16 32 -33 32 -39 0 -19 -125 -134 -178 -165 -28 -16 -52 -33 -52
-37 0 -5 25 -8 55 -8 63 0 68 -10 40 -78 -20 -46 -47 -76 -100 -106 -61 -36
-125 -110 -125 -144 0 -24 -8 -32 -62 -59 -209 -103 -337 -278 -368 -500 -8
-59 -7 -97 2 -149 6 -38 14 -193 18 -344 l6 -275 3 240 2 240 19 -43 c61 -136
189 -270 345 -361 38 -22 72 -46 77 -53 4 -7 8 -34 8 -59 0 -45 1 -47 43 -63
23 -9 58 -16 77 -17 19 0 29 -3 23 -6 -28 -11 -12 -32 30 -39 l42 -7 -37 -10
c-40 -10 -52 -27 -18 -27 17 0 20 -7 20 -52 0 -29 3 -70 6 -90 6 -36 5 -38
-25 -44 -17 -4 -31 -12 -31 -18 0 -8 70 -11 245 -10 231 1 280 5 241 20 -24 9
-24 191 1 209 15 11 12 14 -27 23 -39 8 -41 10 -15 11 43 1 73 33 43 44 -7 2
-4 3 7 1 35 -5 99 14 117 36 11 14 15 31 12 49 -7 31 -13 25 145 142 229 170
339 432 287 680 -18 82 -46 139 -127 252 -70 99 -144 171 -224 219 -44 26 -55
38 -60 66 -8 42 -80 122 -152 168 -59 38 -101 94 -110 147 -5 36 -5 36 36 43
23 4 44 10 46 14 3 4 -21 21 -52 36 -31 16 -81 51 -111 79 l-54 49 25 21 c59
48 63 111 12 162 -19 19 -35 41 -35 48 0 8 -4 17 -10 20 -6 4 -10 143 -10 386
0 369 -1 379 -19 379 -19 0 -20 -11 -23 -399z m2 -494 c0 -24 4 -28 23 -25 18
2 21 8 19 35 -3 35 9 47 39 38 46 -15 40 -108 -9 -134 -84 -45 -176 55 -111
120 25 25 39 13 39 -34z m215 -476 c26 -5 -21 -8 -130 -8 -93 0 -186 -4 -205
-8 -19 -4 -32 -4 -28 0 19 21 279 32 363 16z m69 -52 c28 -5 55 -14 61 -21 7
-8 5 -9 -8 -4 -87 30 -421 32 -539 3 -32 -8 -55 -11 -53 -7 8 12 101 32 190
41 91 8 275 2 349 -12z m-274 -622 c0 -277 3 -559 7 -625 l6 -122 -72 0 c-66
0 -74 2 -97 27 -36 39 -88 135 -118 221 -85 240 -73 589 29 807 61 130 128
195 202 195 l43 0 0 -503z m171 461 c96 -132 139 -360 119 -638 -15 -211 -52
-366 -121 -505 l-33 -66 -51 3 -50 3 -6 135 c-4 74 -7 354 -8 623 l-1 487 60
0 c59 0 60 -1 91 -42z m91 10 c50 -35 119 -121 153 -192 104 -218 103 -504 -3
-739 -63 -138 -166 -267 -225 -281 l-28 -7 35 68 c121 241 160 682 85 953 -19
68 -60 159 -95 207 -16 23 -16 23 17 17 19 -4 46 -15 61 -26z m-445 -27 c-77
-82 -123 -194 -153 -372 -23 -138 -15 -379 15 -492 30 -109 68 -200 108 -259
42 -61 18 -51 -48 19 -89 96 -152 221 -184 368 -25 112 -17 314 19 449 14 55
28 109 31 120 13 55 -38 -77 -56 -143 -31 -111 -37 -322 -14 -427 22 -100 65
-210 111 -281 47 -73 118 -148 155 -163 38 -16 21 -30 -36 -30 -31 0 -59 11
-115 46 -127 78 -199 161 -257 299 -54 127 -68 204 -68 370 0 149 0 151 33
219 64 136 228 260 404 306 40 10 79 19 87 19 7 1 -7 -21 -32 -48z m578 5
c158 -73 301 -253 346 -436 19 -79 17 -279 -4 -360 -41 -156 -128 -276 -268
-369 -77 -51 -94 -56 -163 -41 l-56 11 44 55 c162 199 247 473 216 704 -22
173 -83 318 -174 418 -50 54 -50 55 -21 48 17 -4 53 -18 80 -30z m-992 -169
c-78 -89 -103 -170 -103 -332 0 -257 96 -504 242 -626 68 -56 65 -61 -9 -19
-101 58 -197 171 -258 303 -41 89 -55 156 -55 255 0 162 53 290 174 420 39 42
46 42 9 -1z m1248 -14 c13 -16 12 -17 -3 -4 -17 13 -22 21 -14 21 2 0 10 -8
17 -17z m88 -133 c48 -97 65 -190 58 -319 -4 -81 -32 -209 -43 -198 -2 2 3 35
11 73 19 88 19 229 0 319 -8 39 -32 105 -54 148 -22 43 -33 73 -25 66 8 -6 31
-46 53 -89z m101 -216 c10 -77 0 -198 -21 -264 -35 -107 -137 -253 -222 -318
-85 -64 -87 -59 -5 17 85 79 158 181 197 275 23 56 25 74 26 211 0 83 -3 166
-7 185 l-7 35 15 -33 c8 -19 19 -67 24 -108z m-790 -714 c-147 -8 -233 -20
-315 -44 -25 -8 -42 -10 -39 -5 18 29 200 57 379 56 l120 0 -145 -7z m130 -89
c50 -5 17 -8 -140 -13 -113 -4 -221 -9 -240 -12 l-35 -6 34 11 c75 23 257 33
381 20z m-123 -47 c-3 -3 -12 -4 -19 -1 -8 3 -5 6 6 6 11 1 17 -2 13 -5z
m-109 -11 c-10 -2 -26 -2 -35 0 -10 3 -2 5 17 5 19 0 27 -2 18 -5z m285 0
c-13 -2 -33 -2 -45 0 -13 2 -3 4 22 4 25 0 35 -2 23 -4z m-366 -9 c-3 -3 -12
-4 -19 -1 -8 3 -5 6 6 6 11 1 17 -2 13 -5z m263 -164 c0 -83 -1 -90 -20 -90
-19 0 -20 7 -20 90 0 83 1 90 20 90 19 0 20 -7 20 -90z m70 -5 c0 -95 0 -95
-25 -95 -25 0 -25 0 -25 95 0 95 0 95 25 95 25 0 25 0 25 -95z m-296 -7 c7
-84 6 -88 -13 -88 -20 0 -21 6 -21 84 0 58 4 86 13 89 6 2 13 4 13 3 1 0 4
-40 8 -88z m66 8 c0 -74 -2 -84 -19 -89 -26 -6 -31 9 -31 99 0 72 1 74 25 74
25 0 25 -1 25 -84z m50 -1 c0 -69 -3 -85 -15 -85 -12 0 -15 16 -15 85 0 69 3
85 15 85 12 0 15 -16 15 -85z m44 69 c3 -9 6 -47 6 -85 0 -55 -3 -69 -15 -69
-12 0 -15 16 -15 85 0 79 10 107 24 69z m189 -45 c6 -73 -1 -131 -17 -126 -7
2 -12 39 -14 95 -2 74 0 92 11 92 10 0 16 -18 20 -61z"/>
<path d="M3232 5018 c-2 -96 -4 -107 -21 -113 -25 -8 -35 -38 -21 -65 9 -17 7
-22 -15 -30 -14 -5 -25 -16 -25 -25 0 -8 -5 -15 -11 -15 -30 0 -126 -60 -164
-102 -58 -65 -79 -129 -73 -223 8 -116 70 -200 184 -251 50 -22 53 -26 59 -68
7 -43 9 -45 48 -52 l41 -6 -23 -19 c-13 -11 -19 -19 -13 -19 21 0 21 -34 -3
-101 l-24 -69 60 0 c68 0 68 2 28 82 -21 41 -24 74 -9 83 8 5 7 11 -1 21 -9
11 -8 15 2 18 8 2 22 7 31 10 9 3 22 23 28 45 9 36 17 44 64 66 96 45 170 146
182 248 13 111 -41 216 -147 285 -36 24 -55 42 -47 45 19 7 0 22 -45 37 -29 9
-37 16 -32 29 8 19 8 20 6 44 0 9 -12 22 -26 29 -23 10 -24 15 -28 117 l-3
106 -2 -107z m38 -132 c15 -20 9 -61 -10 -61 -10 0 -16 12 -18 38 -3 39 7 47
28 23z m-50 -26 c0 -16 -4 -30 -9 -30 -13 0 -21 27 -15 45 10 25 24 17 24 -15z
m-2 -77 c-10 -2 -26 -2 -35 0 -10 3 -2 5 17 5 19 0 27 -2 18 -5z m97 -3 l20
-9 -20 1 c-11 0 -33 4 -50 8 l-30 8 30 0 c17 0 39 -3 50 -8z m-103 -122 l2
-103 3 103 c3 90 6 103 20 100 10 -2 37 -41 61 -88 24 -47 41 -74 37 -60 -4
14 -22 53 -41 88 l-34 62 28 -6 c15 -4 32 -11 38 -16 7 -5 22 -11 34 -13 35
-7 87 -43 125 -88 105 -122 74 -315 -66 -409 -30 -20 -65 -40 -79 -43 -24 -7
-24 -6 5 16 17 13 32 27 33 31 2 5 9 5 14 2 6 -4 8 -3 5 3 -3 5 5 36 18 69 14
32 24 68 24 79 0 11 -8 -5 -18 -35 -10 -30 -25 -69 -34 -87 -20 -37 -72 -71
-109 -71 l-28 1 -2 106 -2 106 -3 -107 c-4 -125 -14 -135 -61 -60 -96 149
-126 322 -76 441 27 64 42 81 74 81 l30 0 2 -102z m-105 50 c-25 -38 -40 -135
-32 -207 10 -94 39 -178 85 -249 l40 -62 -28 0 c-81 0 -193 73 -234 153 -29
58 -35 151 -13 217 26 78 133 185 165 165 5 -3 12 0 15 6 4 5 9 8 12 6 2 -3
-2 -16 -10 -29z m171 -560 c8 -10 -3 -12 -54 -10 -35 2 -62 8 -58 13 8 14 100
11 112 -3z m-10 -24 c41 -11 23 -20 -43 -21 -36 0 -65 3 -65 8 0 15 67 23 108
13z"/>
<path d="M3360 4711 c0 -5 6 -14 14 -20 8 -6 19 -25 26 -42 7 -16 15 -27 18
-25 5 5 -45 96 -53 96 -3 0 -5 -4 -5 -9z"/>
<path d="M3422 4600 c0 -8 4 -26 8 -40 6 -20 8 -21 8 -5 0 11 -3 29 -8 40 -5
12 -8 14 -8 5z"/>
<path d="M3341 4564 c0 -11 3 -14 6 -6 3 7 2 16 -1 19 -3 4 -6 -2 -5 -13z"/>
<path d="M3222 4520 c0 -19 2 -27 5 -17 2 9 2 25 0 35 -3 9 -5 1 -5 -18z"/>
<path d="M3352 4515 c0 -16 2 -22 5 -12 2 9 2 23 0 30 -3 6 -5 -1 -5 -18z"/>
<path d="M3443 4475 c0 -33 2 -45 4 -27 2 18 2 45 0 60 -2 15 -4 0 -4 -33z"/>
<path d="M3232 4440 c0 -19 2 -27 5 -17 2 9 2 25 0 35 -3 9 -5 1 -5 -18z"/>
<path d="M3362 4450 c0 -14 2 -19 5 -12 2 6 2 18 0 25 -3 6 -5 1 -5 -13z"/>
<path d="M3349 4377 c-4 -26 -20 -76 -37 -110 -19 -38 -23 -53 -12 -39 28 34
61 131 58 166 -3 25 -4 22 -9 -17z"/>
<path d="M3459 4283 c-13 -16 -12 -17 4 -4 16 13 21 21 13 21 -2 0 -10 -8 -17
-17z"/>
<path d="M3072 4708 c-16 -21 -53 -99 -50 -106 2 -4 17 21 35 56 31 61 35 74
15 50z"/>
<path d="M3011 4564 c0 -11 3 -14 6 -6 3 7 2 16 -1 19 -3 4 -6 -2 -5 -13z"/>
<path d="M3003 4460 c0 -41 2 -58 4 -37 2 20 2 54 0 75 -2 20 -4 3 -4 -38z"/>
<path d="M3011 4354 c0 -11 3 -14 6 -6 3 7 2 16 -1 19 -3 4 -6 -2 -5 -13z"/>
<path d="M3885 5046 c-9 -90 12 -204 51 -284 31 -63 141 -184 183 -201 21 -9
27 -17 24 -35 -3 -16 2 -25 22 -34 14 -7 23 -17 20 -22 -4 -6 -3 -16 2 -23 5
-7 11 -44 12 -84 3 -68 1 -74 -25 -98 -15 -14 -25 -26 -23 -28 2 -1 82 0 178
3 150 4 172 7 158 19 -13 10 -17 30 -17 76 0 41 -4 65 -12 68 -10 4 -10 6 0 6
7 1 12 15 12 36 0 29 5 37 25 45 14 5 25 16 25 24 0 8 25 26 56 40 109 50 214
185 250 321 15 53 19 231 7 238 -5 3 -8 -41 -8 -96 -1 -105 -25 -209 -61 -253
-13 -16 -13 -15 1 13 37 77 52 196 39 297 -12 81 -23 49 -17 -47 9 -144 -23
-246 -108 -348 -21 -25 -36 -49 -33 -52 3 -3 -3 -4 -13 -3 -10 0 -17 -4 -16
-11 2 -8 -4 -10 -14 -6 -12 5 -14 3 -8 -7 5 -9 4 -11 -3 -6 -7 4 -12 2 -12 -5
0 -7 -3 -10 -6 -6 -4 3 -13 0 -21 -8 -8 -8 -19 -15 -23 -15 -5 0 11 19 35 42
58 52 121 178 135 268 12 80 13 250 1 250 -5 0 -6 -20 -4 -44 7 -55 -12 -214
-32 -282 -20 -70 -86 -167 -136 -204 -23 -16 -44 -28 -46 -26 -3 2 7 26 20 53
62 123 112 375 92 468 -8 33 -10 18 -16 -90 -8 -152 -34 -259 -86 -357 -25
-47 -41 -68 -54 -68 -23 0 -23 -3 -3 73 40 157 71 477 45 477 -7 0 -11 -29
-11 -89 0 -115 -24 -300 -50 -385 l-21 -66 -69 0 -68 0 -7 63 c-4 34 -5 155
-3 270 2 114 -1 207 -5 207 -4 0 -6 -119 -5 -265 2 -146 2 -265 1 -265 -10 0
-67 133 -85 197 -18 62 -22 105 -23 206 0 128 -14 180 -17 65 -5 -168 17 -288
72 -406 35 -75 35 -76 16 -80 -22 -5 -86 58 -123 120 -48 79 -73 189 -73 322
-1 86 -3 107 -12 92 -7 -12 -9 -59 -5 -135 7 -162 51 -283 135 -373 38 -42 14
-34 -48 15 -66 52 -122 130 -152 212 -18 49 -22 82 -23 177 0 65 -3 118 -7
118 -3 0 -9 -33 -13 -74z m845 -340 c0 -2 -8 -10 -17 -17 -16 -13 -17 -12 -4
4 13 16 21 21 21 13z m-483 -177 c-21 -5 -47 -14 -59 -20 -15 -8 -19 -8 -13 1
10 16 45 29 80 28 28 0 27 -1 -8 -9z m176 4 c-7 -2 -19 -2 -25 0 -7 3 -2 5 12
5 14 0 19 -2 13 -5z m-8 -54 c18 -4 -6 -6 -60 -2 -49 3 -92 7 -94 9 -8 7 124
2 154 -7z m-178 -35 c-3 -3 -12 -4 -19 -1 -8 3 -5 6 6 6 11 1 17 -2 13 -5z
m159 -21 c43 -7 36 -9 -61 -13 -114 -6 -136 -3 -114 11 17 11 110 12 175 2z
m-158 -98 c-4 -64 -28 -74 -28 -12 0 54 9 82 22 69 5 -5 8 -31 6 -57z m42 5
c0 -33 -4 -50 -12 -50 -9 0 -12 15 -10 50 5 65 22 65 22 0z m68 3 c-3 -41 -6
-48 -25 -51 -21 -3 -23 0 -23 47 0 48 2 51 26 51 24 0 25 -2 22 -47z m58 16
c-3 -17 -6 -40 -6 -50 0 -11 -7 -19 -15 -19 -11 0 -15 12 -15 50 0 44 2 50 21
50 19 0 21 -4 15 -31z m44 -19 c0 -27 -4 -50 -10 -50 -5 0 -10 23 -10 50 0 28
5 50 10 50 6 0 10 -22 10 -50z"/>
<path d="M1501 5084 c0 -11 3 -14 6 -6 3 7 2 16 -1 19 -3 4 -6 -2 -5 -13z"/>
<path d="M2081 5084 c0 -11 3 -14 6 -6 3 7 2 16 -1 19 -3 4 -6 -2 -5 -13z"/>
<path d="M2271 5074 c0 -11 3 -14 6 -6 3 7 2 16 -1 19 -3 4 -6 -2 -5 -13z"/>
<path d="M3820 5081 c0 -6 4 -13 10 -16 6 -3 7 1 4 9 -7 18 -14 21 -14 7z"/>
<path d="M1903 5030 c0 -25 2 -35 4 -22 2 12 2 32 0 45 -2 12 -4 2 -4 -23z"/>
<path d="M1344 4975 c0 -49 1 -71 3 -48 2 23 2 64 0 90 -2 26 -3 8 -3 -42z"/>
<path d="M1391 5044 c0 -11 3 -14 6 -6 3 7 2 16 -1 19 -3 4 -6 -2 -5 -13z"/>
<path d="M2093 5025 c0 -22 2 -30 4 -17 2 12 2 30 0 40 -3 9 -5 -1 -4 -23z"/>
<path d="M2162 5035 c0 -16 2 -22 5 -12 2 9 2 23 0 30 -3 6 -5 -1 -5 -18z"/>
<path d="M1056 5035 c-9 -26 -7 -32 5 -12 6 10 9 21 6 23 -2 3 -7 -2 -11 -11z"/>
<path d="M1513 5015 c0 -22 2 -30 4 -17 2 12 2 30 0 40 -3 9 -5 -1 -4 -23z"/>
<path d="M2272 5030 c0 -14 2 -19 5 -12 2 6 2 18 0 25 -3 6 -5 1 -5 -13z"/>
<path d="M1081 5014 c0 -11 3 -14 6 -6 3 7 2 16 -1 19 -3 4 -6 -2 -5 -13z"/>
<path d="M2247 5005 c-3 -17 -1 -34 4 -40 7 -7 8 -3 3 9 -5 13 -4 17 4 12 13
-8 14 0 3 29 -7 17 -9 16 -14 -10z"/>
<path d="M1492 5000 c0 -14 2 -19 5 -12 2 6 2 18 0 25 -3 6 -5 1 -5 -13z"/>
<path d="M1571 5004 c0 -11 3 -14 6 -6 3 7 2 16 -1 19 -3 4 -6 -2 -5 -13z"/>
<path d="M1752 4995 c0 -16 2 -22 5 -12 2 9 2 23 0 30 -3 6 -5 -1 -5 -18z"/>
<path d="M1403 4940 c0 -41 2 -58 4 -37 2 20 2 54 0 75 -2 20 -4 3 -4 -38z"/>
<path d="M2002 4980 c0 -19 2 -27 5 -17 2 9 2 25 0 35 -3 9 -5 1 -5 -18z"/>
<path d="M1036 4974 c-4 -14 -5 -28 -3 -31 3 -2 8 8 11 23 4 14 5 28 3 31 -3
2 -8 -8 -11 -23z"/>
<path d="M1731 4993 c-1 -6 -4 -20 -7 -30 -5 -17 -5 -17 6 0 6 10 9 23 6 30
-3 9 -5 9 -5 0z"/>
<path d="M1841 4984 c0 -11 3 -14 6 -6 3 7 2 16 -1 19 -3 4 -6 -2 -5 -13z"/>
<path d="M1073 4935 c0 -33 2 -45 4 -27 2 18 2 45 0 60 -2 15 -4 0 -4 -33z"/>
<path d="M1583 4940 c0 -25 2 -35 4 -22 2 12 2 32 0 45 -2 12 -4 2 -4 -23z"/>
<path d="M2081 4968 c0 -9 -4 -25 -7 -35 -5 -17 -5 -17 6 0 6 10 9 25 7 35 -4
15 -5 15 -6 0z"/>
<path d="M1912 4950 c0 -14 2 -19 5 -12 2 6 2 18 0 25 -3 6 -5 1 -5 -13z"/>
<path d="M1757 4941 c-4 -17 -3 -21 5 -13 5 5 8 16 6 23 -3 8 -7 3 -11 -10z"/>
<path d="M1851 4944 c0 -11 3 -14 6 -6 3 7 2 16 -1 19 -3 4 -6 -2 -5 -13z"/>
<path d="M2231 4956 c4 -4 -5 -20 -20 -35 -27 -30 -111 -86 -111 -75 0 3 -16
-8 -35 -25 -32 -28 -65 -41 -65 -25 0 3 9 20 21 37 20 30 20 31 0 9 l-20 -23
-4 38 c-3 36 -4 36 -5 -8 -2 -37 -6 -48 -24 -56 -18 -8 -26 -5 -46 16 -14 14
-19 18 -12 9 34 -48 -66 16 -113 71 -15 18 -27 27 -27 21 0 -6 -5 -8 -12 -4
-9 5 -9 3 1 -9 7 -9 17 -15 21 -12 4 3 13 -2 20 -10 7 -8 9 -15 5 -15 -4 0 -2
-7 5 -15 7 -8 16 -13 20 -10 5 3 10 2 12 -3 1 -4 18 -17 37 -29 32 -20 34 -23
35 -84 1 -63 1 -64 31 -69 26 -4 30 -9 29 -35 0 -16 -4 -47 -8 -67 -8 -37 -7
-38 19 -38 26 0 27 1 20 43 -4 23 -7 44 -7 47 -1 33 5 48 21 53 18 4 29 47 32
124 1 13 5 21 9 18 5 -3 12 1 17 8 4 7 35 32 68 54 78 53 111 88 93 99 -7 4
-10 4 -7 0z m-228 -203 c-13 -2 -33 -2 -45 0 -13 2 -3 4 22 4 25 0 35 -2 23
-4z m17 -48 c0 -15 -6 -25 -14 -25 -7 0 -28 -3 -45 -6 -29 -6 -31 -5 -31 25 0
30 1 31 45 31 41 0 45 -2 45 -25z"/>
<path d="M1023 4895 c0 -22 2 -30 4 -17 2 12 2 30 0 40 -3 9 -5 -1 -4 -23z"/>
<path d="M1513 4895 c0 -22 2 -30 4 -17 2 12 2 30 0 40 -3 9 -5 -1 -4 -23z"/>
<path d="M972 4895 c0 -16 2 -22 5 -12 2 9 2 23 0 30 -3 6 -5 -1 -5 -18z"/>
<path d="M1491 4908 c0 -9 -4 -25 -7 -35 -5 -17 -5 -17 6 0 6 10 9 25 7 35 -4
15 -5 15 -6 0z"/>
<path d="M1921 4904 c0 -11 3 -14 6 -6 3 7 2 16 -1 19 -3 4 -6 -2 -5 -13z"/>
<path d="M2050 4890 c-6 -11 -8 -20 -6 -20 3 0 10 9 16 20 6 11 8 20 6 20 -3
0 -10 -9 -16 -20z"/>
<path d="M1571 4874 c0 -11 3 -14 6 -6 3 7 2 16 -1 19 -3 4 -6 -2 -5 -13z"/>
<path d="M1870 4884 c0 -6 7 -19 16 -30 14 -18 14 -18 3 6 -14 31 -19 36 -19
24z"/>
<path d="M1081 4854 c0 -11 3 -14 6 -6 3 7 2 16 -1 19 -3 4 -6 -2 -5 -13z"/>
<path d="M1332 4845 c0 -16 2 -22 5 -12 2 9 2 23 0 30 -3 6 -5 -1 -5 -18z"/>
<path d="M981 4855 c0 -5 5 -30 12 -54 9 -29 16 -39 20 -29 3 9 3 19 -1 23 -4
3 -12 21 -19 38 -6 18 -12 28 -12 22z"/>
<path d="M1391 4834 c0 -11 3 -14 6 -6 3 7 2 16 -1 19 -3 4 -6 -2 -5 -13z"/>
<path d="M1461 4823 c-10 -26 -10 -27 4 -9 8 11 15 23 15 28 0 15 -7 8 -19
-19z"/>
<path d="M1501 4834 c0 -11 3 -14 6 -6 3 7 2 16 -1 19 -3 4 -6 -2 -5 -13z"/>
<path d="M1950 4821 c0 -6 4 -13 10 -16 6 -3 7 1 4 9 -7 18 -14 21 -14 7z"/>
<path d="M1316 4779 c-8 -42 0 -50 9 -9 4 17 5 34 2 36 -2 3 -7 -10 -11 -27z"/>
<path d="M1486 4793 c-6 -14 -5 -15 5 -6 7 7 10 15 7 18 -3 3 -9 -2 -12 -12z"/>
<path d="M1366 4773 c-6 -14 -5 -15 5 -6 7 7 10 15 7 18 -3 3 -9 -2 -12 -12z"/>
<path d="M1429 4773 c-13 -16 -12 -17 4 -4 16 13 21 21 13 21 -2 0 -10 -8 -17
-17z"/>
<path d="M4231 4210 c-22 -10 -22 -11 -7 -33 36 -50 69 -125 76 -172 7 -45 8
-46 9 -13 1 46 30 112 70 162 20 25 28 43 22 49 -14 14 -142 19 -170 7z"/>
<path d="M1022 3917 c-2 -205 -5 -251 -17 -263 -8 -9 -15 -26 -15 -40 0 -18
-7 -25 -27 -30 -48 -10 -53 -13 -47 -28 3 -9 -3 -17 -15 -21 -12 -3 -21 -11
-21 -16 0 -6 -5 -7 -11 -4 -16 11 -106 -88 -114 -125 -8 -39 4 -197 15 -181 4
8 12 1 20 -19 7 -17 14 -29 16 -27 3 2 -5 24 -16 49 -29 67 -36 147 -16 190
16 32 96 121 96 105 0 -4 18 2 40 13 51 26 56 25 36 -5 -9 -13 -16 -28 -16
-32 0 -4 10 7 21 25 12 18 30 33 42 34 54 4 116 3 109 -2 -5 -3 3 -23 16 -45
13 -22 21 -31 17 -20 -12 33 -14 65 -4 65 20 0 85 -32 109 -53 18 -16 21 -17
10 -3 -8 11 -14 22 -12 25 1 3 -27 17 -63 30 -36 13 -65 29 -65 36 0 7 -14 18
-31 24 -39 13 -49 14 -29 1 11 -7 7 -10 -17 -10 -28 0 -33 4 -33 24 0 33 20
44 37 21 10 -15 13 -15 13 -4 0 8 -4 19 -10 25 -6 6 -11 113 -13 259 l-2 250
-3 -248z m-9 -354 c-7 -2 -21 -2 -30 0 -10 3 -4 5 12 5 17 0 24 -2 18 -5z"/>
<path d="M4303 3655 c0 -33 2 -45 4 -27 2 18 2 45 0 60 -2 15 -4 0 -4 -33z"/>
<path d="M1160 3495 c40 -48 43 -51 32 -30 -6 11 -21 29 -34 40 -22 19 -22 19
2 -10z"/>
<path d="M1282 3478 c14 -13 36 -34 48 -48 l21 -25 -17 28 c-9 15 -31 37 -48
48 l-31 21 27 -24z"/>
<path d="M855 3479 c-4 -6 -5 -12 -2 -15 2 -3 7 2 10 11 7 17 1 20 -8 4z"/>
<path d="M911 3433 c-6 -21 -10 -76 -9 -123 l1 -85 7 105 c4 58 11 113 15 123
4 9 5 17 2 17 -4 0 -11 -17 -16 -37z"/>
<path d="M841 3434 c0 -11 3 -14 6 -6 3 7 2 16 -1 19 -3 4 -6 -2 -5 -13z"/>
<path d="M1142 3440 c0 -8 4 -26 8 -40 6 -20 8 -21 8 -5 0 11 -3 29 -8 40 -5
12 -8 14 -8 5z"/>
<path d="M4774 3350 c0 -58 1 -81 3 -52 2 28 2 76 0 105 -2 28 -3 5 -3 -53z"/>
<path d="M1211 3404 c0 -11 3 -14 6 -6 3 7 2 16 -1 19 -3 4 -6 -2 -5 -13z"/>
<path d="M827 3343 c-4 -38 -7 -110 -7 -160 0 -54 -4 -93 -10 -93 -12 0 -40
-53 -40 -78 0 -21 -45 -64 -75 -73 -17 -5 -20 -13 -18 -57 l2 -52 -54 -25
c-63 -30 -152 -123 -187 -194 -33 -67 -33 -206 0 -273 36 -73 104 -142 176
-179 50 -26 66 -39 68 -58 l3 -25 119 3 c71 2 116 -1 112 -7 -3 -5 -51 -8
-106 -7 l-101 1 7 -40 c3 -23 7 -41 8 -42 0 0 19 -5 40 -10 46 -11 61 -34 22
-34 -33 0 -33 -13 -2 -28 22 -10 24 -15 16 -42 -5 -18 -21 -52 -36 -77 -21
-37 -24 -47 -13 -54 17 -11 99 -12 99 -1 0 4 -7 32 -15 62 -21 79 -19 98 10
112 31 14 32 28 3 28 l-23 1 24 19 c13 11 33 20 46 20 19 0 23 7 28 42 3 23
13 47 21 54 9 6 16 19 16 27 0 11 27 30 71 53 84 42 162 115 192 182 34 74 30
178 -10 264 -17 37 -50 87 -72 111 -41 44 -163 117 -196 117 -10 0 -13 5 -9
11 12 20 14 82 2 96 -6 7 -19 13 -29 13 -11 0 -19 7 -19 14 0 8 -12 21 -27 28
-19 9 -29 22 -31 41 -2 15 -1 27 2 27 3 0 39 -17 81 -37 51 -26 75 -43 75 -55
0 -10 4 -18 9 -18 5 0 11 -9 14 -19 2 -11 15 -21 28 -23 32 -4 36 -34 7 -58
l-23 -19 48 -1 c51 0 58 9 27 40 -28 28 -25 43 5 38 20 -4 26 -1 31 18 3 12
13 25 21 28 8 4 13 12 10 20 -4 9 9 19 37 30 60 23 122 79 151 137 14 26 25
54 25 61 0 7 -11 -9 -24 -37 -23 -48 -64 -94 -116 -128 -31 -22 -46 -22 -29
-1 9 12 3 10 -21 -5 -19 -11 -47 -21 -61 -21 l-26 0 48 97 c27 53 49 104 48
112 0 12 -3 10 -9 -4 -6 -15 -9 -8 -12 30 -4 46 -5 44 -6 -18 -2 -66 -22 -122
-71 -196 l-15 -24 -7 24 c-7 23 -7 23 -8 2 -1 -23 -7 -25 -71 -25 -13 -1 -57
17 -97 38 -69 37 -73 41 -73 74 l0 35 24 -30 c22 -28 116 -102 116 -91 0 3
-20 19 -45 37 -79 57 -90 85 -89 222 1 64 1 117 -1 117 -1 0 -5 -30 -8 -67z
m-7 -313 c0 -33 -3 -40 -20 -40 -22 0 -27 28 -10 61 17 31 30 22 30 -21z m325
-40 c-3 -5 -30 -9 -58 -8 l-52 1 50 7 c28 4 54 8 58 8 5 1 5 -2 2 -8z m-265
-31 c0 -5 -30 -9 -67 -9 -78 0 -79 6 -2 18 56 9 69 7 69 -9z m208 -6 c-10 -2
-28 -2 -40 0 -13 2 -5 4 17 4 22 1 32 -1 23 -4z m-208 -32 c0 -8 -179 -21
-190 -13 -2 1 2 7 9 11 19 12 181 14 181 2z m48 -9 c3 -9 -2 -13 -14 -10 -9 1
-19 9 -22 16 -3 9 2 13 14 10 9 -1 19 -9 22 -16z m-66 -119 c15 -44 18 -402 5
-546 l-9 -88 -46 3 -47 3 -12 50 c-48 192 -43 451 11 580 13 30 19 35 50 35
31 0 36 -4 48 -37z m32 26 c54 -25 90 -145 90 -299 0 -166 -37 -304 -95 -356
l-22 -19 7 50 c29 212 29 460 1 580 -7 30 -11 55 -9 55 2 0 14 -5 28 -11z
m-144 -2 c0 -2 -10 -39 -21 -83 -25 -93 -31 -327 -10 -433 22 -115 -7 -81 -39
46 -25 96 -28 294 -5 370 15 51 48 103 66 103 5 0 9 -2 9 -3z m-70 -45 c-61
-117 -51 -397 19 -534 37 -72 16 -66 -43 13 -63 83 -91 171 -91 284 0 107 22
166 88 233 22 23 42 42 44 42 1 0 -6 -17 -17 -38z m350 -34 c43 -59 61 -128
61 -235 0 -108 -22 -180 -78 -261 -32 -46 -80 -92 -97 -92 -3 0 7 26 23 58 48
94 55 135 56 302 0 159 -1 163 -50 284 -14 33 52 -9 85 -56z m-405 31 c-41
-49 -64 -102 -76 -176 -22 -129 30 -291 126 -390 39 -41 47 -53 32 -53 -10 0
-48 29 -83 64 -86 87 -126 170 -132 279 -8 142 20 212 112 278 50 37 54 36 21
-2z m492 -62 c73 -71 107 -149 108 -247 0 -55 -5 -86 -20 -115 -31 -64 -116
-142 -191 -175 -36 -17 -67 -30 -68 -30 -1 0 19 22 44 48 85 89 126 209 118
353 -4 90 -37 179 -81 228 l-22 24 30 -18 c17 -10 53 -41 82 -68z m-640 -121
c-21 -135 28 -280 126 -378 l52 -51 -44 24 c-65 36 -146 128 -167 191 -27 80
-24 163 10 232 16 32 29 56 31 54 1 -2 -2 -34 -8 -72z m256 -453 c-7 -2 -21
-2 -30 0 -10 3 -4 5 12 5 17 0 24 -2 18 -5z m170 0 c-13 -2 -35 -2 -50 0 -16
2 -5 4 22 4 28 0 40 -2 28 -4z m-42 -110 c28 -7 20 -9 -46 -13 -88 -6 -90 -6
-80 9 7 13 77 14 126 4z"/>
<path d="M1356 3387 c3 -10 9 -15 12 -12 3 3 0 11 -7 18 -10 9 -11 8 -5 -6z"/>
<path d="M4291 3359 c-2 -46 -29 -99 -50 -99 -19 0 -37 -32 -27 -48 3 -5 -20
-19 -50 -31 -74 -31 -158 -110 -197 -185 -30 -57 -32 -68 -32 -161 0 -90 3
-106 29 -160 33 -67 111 -150 170 -180 21 -11 44 -29 50 -40 6 -11 17 -24 24
-28 15 -10 16 -49 0 -65 -9 -9 -6 -12 13 -12 39 0 52 -37 28 -80 -27 -52 -25
-78 9 -82 51 -6 102 3 102 18 0 8 -9 32 -20 54 -26 52 -25 60 8 60 25 0 29 -6
45 -61 14 -47 29 -72 66 -109 26 -26 62 -55 80 -64 18 -10 41 -26 52 -37 10
-10 24 -19 29 -19 6 0 10 -13 10 -30 0 -26 5 -31 43 -42 46 -13 87 -36 87 -48
0 -4 -9 -10 -20 -13 -11 -3 -20 -10 -20 -15 0 -6 9 -14 20 -17 24 -8 24 -5 0
-83 -25 -79 -25 -86 0 -79 11 3 20 1 20 -4 0 -5 12 -9 26 -9 23 0 25 3 20 23
-3 12 -9 50 -13 84 l-6 63 32 6 c35 7 37 26 2 34 l-23 5 24 21 c13 12 38 25
56 29 28 6 32 10 32 41 0 30 3 34 25 34 17 0 25 5 25 18 0 10 17 26 43 40 59
31 117 80 117 99 0 10 -13 4 -40 -20 -47 -43 -130 -87 -162 -87 -15 1 -2 10
39 30 64 29 163 112 163 136 0 8 -18 -6 -40 -30 -49 -54 -142 -104 -207 -112
-52 -7 -52 -6 14 45 59 45 134 161 162 250 25 78 32 188 19 271 l-8 45 31 -55
c22 -40 28 -47 24 -26 -4 16 -27 61 -52 100 -46 71 -43 72 30 7 20 -18 27 -21
27 -10 0 33 -114 110 -191 130 -40 11 -49 17 -49 35 0 13 -5 26 -10 29 -6 4
-17 22 -25 41 -8 19 -25 39 -39 45 -20 9 -26 21 -29 53 l-4 41 -1 -42 c-1 -30
-6 -43 -16 -43 -20 0 -46 -39 -46 -67 0 -37 -16 -26 -35 25 -29 75 -123 162
-212 196 -65 25 -73 31 -74 54 -2 56 -6 74 -24 90 -17 16 -17 16 0 -10 23 -37
12 -50 -33 -42 -20 4 -40 8 -44 11 -14 8 10 48 33 54 23 7 23 7 2 8 -14 1 -23
9 -26 24 -4 20 -4 19 -6 -4z m83 -201 c37 -51 56 -129 56 -240 0 -87 -3 -103
-29 -155 -16 -32 -44 -102 -62 -155 -31 -92 -34 -98 -60 -98 -22 0 -29 6 -38
33 -25 81 -34 131 -46 252 -7 72 -13 108 -14 80 -1 -83 17 -228 38 -295 11
-35 18 -66 16 -69 -11 -10 -44 34 -69 89 -84 187 -69 440 33 549 36 39 49 36
28 -6 -9 -16 -18 -47 -21 -68 -6 -35 -4 -33 12 15 31 94 37 100 87 100 38 0
47 -4 69 -32z m76 -3 c62 -32 119 -121 134 -207 6 -34 5 -38 -14 -38 -26 0
-77 -25 -108 -53 l-22 -21 6 31 c3 16 1 69 -5 117 -9 73 -20 110 -59 190 -5 9
32 -1 68 -19z m-294 -38 c-77 -131 -73 -386 9 -549 l25 -51 -27 18 c-49 31
-84 69 -108 115 -65 127 -54 310 25 424 25 38 80 86 98 86 2 0 -8 -19 -22 -43z
m418 -36 c16 -17 33 -28 37 -25 4 2 11 -1 15 -7 4 -8 3 -9 -4 -5 -17 10 -15
-9 1 -23 16 -12 52 -89 46 -95 -2 -2 -18 -7 -35 -10 -31 -7 -31 -6 -37 39 -7
50 -38 117 -71 154 -20 22 -20 23 -1 13 11 -6 33 -24 49 -41z m-518 -18 c-38
-58 -59 -162 -53 -260 9 -132 58 -220 150 -273 29 -16 44 -30 34 -30 -33 0
-92 38 -140 89 -136 145 -137 336 -4 488 38 44 46 36 13 -14z m722 -85 c-2
-28 -7 -33 -28 -33 -30 0 -38 26 -15 49 28 27 47 20 43 -16z m52 1 c16 -28 12
-39 -13 -39 -19 0 -23 6 -25 35 -2 28 0 33 13 29 9 -4 20 -15 25 -25z m-32
-66 c-10 -2 -28 -2 -40 0 -13 2 -5 4 17 4 22 1 32 -1 23 -4z m-81 -9 c-3 -3
-12 -4 -19 -1 -8 3 -5 6 6 6 11 1 17 -2 13 -5z m136 -1 c-7 -2 -19 -2 -25 0
-7 3 -2 5 12 5 14 0 19 -2 13 -5z m-263 -39 c0 -25 -7 -44 -22 -59 -32 -31
-118 -141 -118 -150 0 -5 16 9 35 31 l35 39 -14 -37 c-8 -21 -13 -38 -11 -38
2 0 -6 -10 -18 -22 l-22 -23 -6 25 c-4 14 -7 61 -8 106 -1 76 0 82 28 108 24
23 87 54 114 56 4 0 7 -16 7 -36z m70 8 c0 -21 -7 -32 -25 -40 -24 -11 -25
-11 -25 28 0 36 3 40 25 40 21 0 25 -5 25 -28z m231 -44 c21 -14 45 -46 64
-82 26 -54 29 -68 29 -160 -1 -199 -70 -369 -179 -438 -27 -18 -28 -19 -5 -13
41 12 99 76 136 150 47 97 68 205 62 330 -5 104 -21 154 -68 203 -26 27 -20
28 29 2 67 -34 101 -120 101 -253 0 -121 -56 -267 -137 -357 -49 -55 -143
-107 -155 -86 -14 24 -59 412 -65 551 -7 171 -5 175 91 175 49 0 71 -5 97 -22z
m-168 -533 c14 -99 23 -182 21 -184 -10 -10 -59 49 -89 109 -58 114 -79 202
-80 320 0 99 2 109 32 170 18 36 43 81 55 100 l23 35 7 -185 c3 -105 17 -263
31 -365z m-87 498 c-30 -55 -38 -61 -32 -23 6 31 20 49 39 50 4 0 1 -12 -7
-27z m-51 -50 c-7 -59 -56 -167 -80 -176 -22 -9 23 158 57 206 11 15 22 27 25
27 3 0 2 -26 -2 -57z m-157 -73 c-3 -52 -11 -75 -36 -114 l-32 -50 0 50 c0 56
19 131 46 188 17 36 19 37 22 15 2 -13 2 -53 0 -89z m52 -89 c-11 -41 -30 -65
-30 -37 0 8 -3 22 -7 32 -4 11 -2 15 4 11 5 -4 15 5 22 20 17 37 24 22 11 -26z
m-130 -31 c0 -30 -4 -40 -16 -40 -11 0 -14 5 -10 16 3 9 9 27 12 40 9 35 14
29 14 -16z m211 -88 c19 -128 71 -260 130 -327 l31 -35 -24 0 c-63 0 -178 137
-224 268 -35 99 -32 118 24 172 46 44 47 44 49 20 2 -14 8 -58 14 -98z m-131
79 c0 -21 -6 -32 -21 -36 -11 -4 -23 -5 -26 -2 -4 5 36 67 44 67 2 0 3 -13 3
-29z m-152 -58 c-10 -2 -28 -2 -40 0 -13 2 -5 4 17 4 22 1 32 -1 23 -4z m152
-27 c0 -18 -9 -45 -20 -59 -29 -36 -25 -48 5 -12 l24 30 1 -25 c0 -14 9 -60
19 -103 l19 -79 -34 32 c-18 18 -37 44 -42 59 -25 70 -32 100 -32 135 0 29 5
39 23 46 35 14 37 12 37 -24z m-140 -25 c0 -11 3 -26 6 -35 4 -12 0 -16 -15
-16 -16 0 -21 6 -21 28 0 16 3 32 7 35 12 13 23 7 23 -12z m60 0 c0 -11 3 -26
6 -35 4 -12 0 -16 -15 -16 -17 0 -21 6 -21 35 0 24 5 35 15 35 8 0 15 -9 15
-19z m-100 -27 c0 -13 -4 -24 -10 -24 -5 0 -10 14 -10 31 0 17 4 28 10 24 6
-3 10 -17 10 -31z m115 -54 c4 -6 -6 -10 -22 -9 -25 0 -26 1 -8 9 11 5 21 9
22 9 1 1 5 -3 8 -9z m221 -196 l51 -53 -38 20 c-76 38 -105 73 -118 140 -7 34
-15 68 -17 78 -3 9 12 -17 33 -58 21 -41 61 -98 89 -127z m-4 -43 c24 -11 53
-21 64 -22 16 0 15 -2 -5 -10 -36 -14 -116 29 -180 95 -72 77 -64 90 13 19 35
-33 84 -70 108 -82z m298 -82 c11 -8 -1 -9 -45 -5 -33 3 -87 1 -120 -3 -63 -9
-79 -6 -55 9 21 13 202 12 220 -1z m-170 -59 c8 -5 11 -10 5 -10 -5 0 -17 5
-25 10 -8 5 -10 10 -5 10 6 0 17 -5 25 -10z m130 -3 c-19 -6 -39 -17 -43 -24
-11 -17 -22 -16 -42 3 -23 24 -3 34 65 33 55 -1 55 -1 20 -12z"/>
<path d="M4193 2985 c0 -27 2 -38 4 -22 2 15 2 37 0 50 -2 12 -4 0 -4 -28z"/>
<path d="M1163 3335 c0 -22 2 -30 4 -17 2 12 2 30 0 40 -3 9 -5 -1 -4 -23z"/>
<path d="M1312 3325 c0 -16 2 -22 5 -12 2 9 2 23 0 30 -3 6 -5 -1 -5 -18z"/>
<path d="M1383 3280 c0 -30 2 -43 4 -27 2 15 2 39 0 55 -2 15 -4 2 -4 -28z"/>
<path d="M1212 3300 c0 -14 2 -19 5 -12 2 6 2 18 0 25 -3 6 -5 1 -5 -13z"/>
<path d="M1201 3254 c0 -11 3 -14 6 -6 3 7 2 16 -1 19 -3 4 -6 -2 -5 -13z"/>
<path d="M1312 3220 c0 -19 2 -27 5 -17 2 9 2 25 0 35 -3 9 -5 1 -5 -18z"/>
<path d="M911 3204 c0 -11 3 -14 6 -6 3 7 2 16 -1 19 -3 4 -6 -2 -5 -13z"/>
<path d="M1052 3180 c0 -14 2 -19 5 -12 2 6 2 18 0 25 -3 6 -5 1 -5 -13z"/>
<path d="M921 3170 c0 -8 4 -22 9 -30 12 -18 12 -2 0 25 -6 13 -9 15 -9 5z"/>
<path d="M1292 3146 c-7 -20 -25 -51 -40 -69 -23 -28 -23 -29 -3 -12 26 22 64
91 59 106 -2 6 -9 -6 -16 -25z"/>
<path d="M1062 3090 c0 -19 2 -27 5 -17 2 9 2 25 0 35 -3 9 -5 1 -5 -18z"/>
<path d="M958 3085 c6 -11 25 -33 44 -50 l33 -30 -35 40 c-19 22 -39 45 -44
50 -5 6 -4 1 2 -10z"/>
<path d="M0 2936 c0 -4 11 -22 24 -39 113 -151 134 -430 41 -542 l-25 -30 17
40 c40 98 32 221 -23 333 -34 69 -42 62 -10 -9 14 -30 31 -86 37 -125 15 -85
2 -162 -37 -219 -13 -20 -24 -48 -24 -62 l0 -27 40 39 c67 65 93 132 98 251 5
115 -11 193 -58 289 -25 53 -80 122 -80 101z"/>
<path d="M3927 2423 c-4 -29 -14 -53 -21 -56 -8 -3 -22 -22 -31 -41 -9 -19
-22 -34 -28 -32 -7 1 -8 1 -4 -2 4 -2 2 -11 -5 -20 -7 -10 -1 -7 13 6 21 18
38 22 100 24 l74 2 -75 6 c-41 4 -64 8 -50 9 18 3 20 5 7 8 -27 7 -10 23 25
23 23 0 29 -4 24 -15 -3 -9 0 -15 10 -15 8 0 12 5 9 10 -3 6 -1 10 6 10 7 0 1
12 -13 28 -18 18 -28 41 -30 67 l-3 40 -8 -52z"/>
<path d="M4046 2279 c21 -23 21 -23 21 -5 0 8 -9 17 -20 20 -18 4 -18 4 -1
-15z"/>
<path d="M4110 2252 c19 -17 38 -31 42 -32 4 0 5 -8 2 -17 -5 -15 -4 -16 5 -3
9 12 5 20 -17 38 -42 36 -71 48 -32 14z"/>
<path d="M3871 2254 c0 -11 3 -14 6 -6 3 7 2 16 -1 19 -3 4 -6 -2 -5 -13z"/>
<path d="M3748 2243 c-22 -26 -41 -64 -34 -71 3 -3 6 -1 6 5 0 6 11 27 25 47
26 39 28 47 3 19z"/>
<path d="M3984 2170 c0 -52 1 -74 3 -47 2 26 2 68 0 95 -2 26 -3 4 -3 -48z"/>
<path d="M3864 2135 c0 -49 1 -71 3 -48 2 23 2 64 0 90 -2 26 -3 8 -3 -42z"/>
<path d="M1886 2194 c-3 -9 -6 -27 -6 -41 0 -16 -7 -27 -19 -30 -11 -3 -22
-16 -25 -29 -4 -13 -12 -24 -20 -24 -7 0 -41 -14 -75 -31 -67 -34 -125 -98
-114 -126 4 -10 2 -14 -4 -10 -15 9 -33 -46 -33 -98 0 -82 26 -141 93 -209 34
-34 76 -69 94 -76 35 -16 53 -46 53 -90 0 -26 4 -30 29 -30 36 0 42 -20 34
-107 -6 -60 -5 -63 16 -63 24 0 25 10 11 80 -13 65 -4 90 31 90 26 0 29 3 29
33 0 57 9 71 58 92 51 21 147 109 137 125 -3 6 -2 10 4 10 6 0 7 7 4 17 -4 10
-2 14 5 9 6 -3 13 2 16 11 5 17 -8 170 -15 178 -2 2 -4 -36 -4 -83 0 -100 -20
-156 -75 -209 -46 -45 -59 -42 -21 4 17 21 31 42 31 47 0 5 -15 -11 -32 -35
-18 -24 -32 -46 -31 -49 1 -3 -7 -6 -17 -6 -16 0 -15 4 7 31 29 33 63 102 62
125 0 8 -9 -8 -20 -36 -19 -51 -86 -134 -107 -134 -6 0 2 28 18 63 17 34 30
69 29 77 0 13 -1 13 -6 0 -28 -79 -58 -130 -76 -130 -15 0 -18 5 -13 23 3 12
8 47 11 77 4 49 3 47 -9 -18 -8 -41 -16 -75 -18 -77 -2 -2 -14 -5 -27 -7 -19
-2 -26 3 -32 22 -7 24 -7 24 -8 3 -1 -33 -28 -28 -51 10 -11 17 -20 27 -20 22
0 -6 7 -21 16 -33 17 -24 4 -31 -16 -8 -6 8 -18 12 -26 9 -13 -5 -86 62 -91
84 -1 4 -9 24 -18 43 -15 33 -16 21 -1 -25 3 -11 -3 0 -15 25 -26 53 -34 114
-24 167 l8 38 7 -30 8 -30 1 29 c2 45 39 113 77 142 38 29 117 56 140 47 11
-4 14 -15 10 -37 l-5 -31 10 31 c10 29 15 32 53 32 29 1 48 -6 66 -21 l25 -22
-19 23 c-24 27 -11 28 32 2 19 -12 31 -16 27 -10 -3 5 -4 10 -1 10 3 0 21 -28
40 -62 20 -35 36 -59 36 -54 0 5 -12 30 -27 55 -25 43 -25 45 -4 26 40 -35 55
-77 62 -170 l7 -90 -2 93 c-1 71 2 89 10 77 10 -14 12 -14 17 0 4 8 3 14 -1
13 -15 -3 -42 15 -36 24 3 5 13 4 22 -4 10 -6 -1 7 -23 31 -22 23 -68 56 -102
73 -39 19 -63 37 -63 47 0 9 -9 22 -20 29 -12 7 -20 23 -20 40 0 44 -40 72
-54 36z m42 -22 c3 -17 -2 -22 -17 -22 -14 0 -21 6 -21 18 0 38 33 41 38 4z
m0 -89 c-10 -2 -28 -2 -40 0 -13 2 -5 4 17 4 22 1 32 -1 23 -4z m207 -113 c10
-11 16 -20 13 -20 -3 0 -13 9 -23 20 -10 11 -16 20 -13 20 3 0 13 -9 23 -20z
m62 -262 c-3 -8 -6 -5 -6 6 -1 11 2 17 5 13 3 -3 4 -12 1 -19z m-249 -195
c-21 -2 -57 -2 -80 0 -24 2 -7 4 37 4 44 0 63 -2 43 -4z m20 -55 l3 -28 -65 0
-65 0 1 30 1 31 61 -3 c58 -3 61 -4 64 -30z"/>
<path d="M4190 2186 c0 -2 8 -10 18 -17 15 -13 16 -12 3 4 -13 16 -21 21 -21
13z"/>
<path d="M3781 2164 c0 -11 3 -14 6 -6 3 7 2 16 -1 19 -3 4 -6 -2 -5 -13z"/>
<path d="M3701 2144 c0 -11 3 -14 6 -6 3 7 2 16 -1 19 -3 4 -6 -2 -5 -13z"/>
<path d="M532 1678 c-1 -287 -6 -478 -11 -478 -5 0 -11 -10 -13 -22 -2 -13
-13 -27 -26 -33 -12 -5 -25 -17 -28 -27 -3 -9 -15 -18 -27 -20 -17 -2 -23 -11
-25 -35 -3 -26 -8 -33 -25 -33 -42 0 -147 -59 -197 -110 -94 -96 -136 -220
-127 -373 4 -76 10 -99 41 -162 41 -83 106 -149 183 -185 54 -25 63 -35 63
-68 0 -12 7 -25 15 -28 11 -4 15 -21 15 -55 l0 -49 130 0 130 0 0 33 c0 37 8
51 33 60 10 4 17 17 17 31 0 36 10 56 28 56 24 0 107 57 151 105 160 174 159
441 -2 612 -54 57 -123 105 -177 122 -31 10 -35 15 -35 43 0 27 -4 34 -22 36
-15 2 -23 10 -23 23 0 10 -4 19 -10 19 -5 0 -10 6 -10 13 0 8 -9 22 -20 32
-19 17 -20 33 -23 494 l-2 476 -3 -477z m26 -500 c19 -19 14 -28 -13 -28 -18
0 -25 5 -25 20 0 22 20 26 38 8z m22 -58 c0 -6 -26 -10 -57 -10 -41 0 -54 3
-43 10 20 13 100 13 100 0z m39 -46 c2 -2 -40 -3 -95 -3 -75 1 -89 4 -59 9 37
7 144 2 154 -6z m-144 -71 c-76 -178 -79 -451 -9 -776 5 -25 3 -27 -27 -27
-45 0 -108 69 -160 174 -73 149 -88 327 -39 457 38 102 135 188 214 189 23 0
27 -3 21 -17z m123 -20 c33 -74 18 -448 -28 -715 -12 -68 -12 -68 -45 -68 -19
0 -35 6 -38 14 -3 8 -16 72 -28 142 -30 170 -33 444 -5 544 29 105 40 120 87
120 37 0 41 -3 57 -37z m126 -5 c64 -32 125 -87 162 -143 111 -174 96 -385
-38 -531 -40 -44 -121 -104 -140 -104 -5 0 17 22 49 49 69 58 105 96 127 136
17 30 17 30 -1 5 -33 -46 -63 -71 -75 -64 -6 4 -8 3 -5 -3 14 -23 -128 -126
-166 -121 l-25 3 38 82 c55 118 59 145 7 38 -45 -90 -76 -139 -77 -120 0 6 9
73 19 150 44 311 49 522 17 617 l-14 39 41 -6 c22 -4 59 -16 81 -27z m-421
-20 c-149 -153 -141 -475 18 -684 37 -49 44 -64 31 -64 -53 0 -209 147 -248
233 -82 184 -3 428 170 527 70 41 77 37 29 -12z m-58 -707 c23 -18 30 -27 16
-20 -31 15 -119 97 -133 124 -6 11 9 0 33 -25 24 -26 62 -61 84 -79z m258 -78
c-23 -2 -64 -2 -90 0 -26 2 -7 3 42 3 50 0 71 -1 48 -3z m130 -10 c-13 -2 -35
-2 -50 0 -16 2 -5 4 22 4 28 0 40 -2 28 -4z m-8 -23 c17 -4 -31 -5 -105 -2
-74 3 -137 6 -139 8 -8 7 214 2 244 -6z m-15 -91 c0 -42 -1 -43 -62 -33 -35 6
-38 9 -38 39 0 38 6 42 61 37 38 -4 39 -5 39 -43z m-120 6 l0 -35 -50 0 -50 0
0 35 0 35 50 0 50 0 0 -35z"/>
<path d="M645 993 c6 -5 31 -26 57 -46 25 -20 65 -64 87 -98 48 -71 56 -69 10
3 -31 48 -105 120 -144 140 -11 6 -15 6 -10 1z"/>
<path d="M831 775 c1 -19 18 -51 18 -35 0 8 -4 22 -9 30 -5 8 -9 11 -9 5z"/>
<path d="M852 700 c0 -14 2 -19 5 -12 2 6 2 18 0 25 -3 6 -5 1 -5 -13z"/>
<path d="M862 625 c0 -16 2 -22 5 -12 2 9 2 23 0 30 -3 6 -5 -1 -5 -18z"/>
<path d="M941 564 c0 -11 3 -14 6 -6 3 7 2 16 -1 19 -3 4 -6 -2 -5 -13z"/>
<path d="M852 530 c0 -14 2 -19 5 -12 2 6 2 18 0 25 -3 6 -5 1 -5 -13z"/>
<path d="M932 510 c0 -14 2 -19 5 -12 2 6 2 18 0 25 -3 6 -5 1 -5 -13z"/>
<path d="M841 474 c0 -11 3 -14 6 -6 3 7 2 16 -1 19 -3 4 -6 -2 -5 -13z"/>
<path d="M916 465 c-9 -26 -7 -32 5 -12 6 10 9 21 6 23 -2 3 -7 -2 -11 -11z"/>
<path d="M831 424 c0 -11 3 -14 6 -6 3 7 2 16 -1 19 -3 4 -6 -2 -5 -13z"/>
<path d="M3773 2085 c0 -27 2 -38 4 -22 2 15 2 37 0 50 -2 12 -4 0 -4 -28z"/>
<path d="M4122 2090 c0 -19 2 -27 5 -17 2 9 2 25 0 35 -3 9 -5 1 -5 -18z"/>
<path d="M3693 2070 c0 -25 2 -35 4 -22 2 12 2 32 0 45 -2 12 -4 2 -4 -23z"/>
<path d="M4183 2055 c0 -33 2 -45 4 -27 2 18 2 45 0 60 -2 15 -4 0 -4 -33z"/>
<path d="M1200 1740 c-3 -179 -2 -326 3 -328 15 -7 6 -32 -12 -32 -10 0 -24
-7 -31 -14 -6 -8 -28 -20 -48 -27 -55 -18 -119 -67 -152 -118 -33 -48 -35 -57
-20 -66 6 -4 7 1 3 11 -4 12 -3 15 5 10 8 -5 10 -1 5 10 -5 13 -3 15 7 9 8 -5
11 -4 7 2 -4 6 0 14 9 17 8 3 14 9 12 13 -2 5 11 22 29 40 18 17 33 29 33 27
0 -3 10 2 21 10 36 25 51 10 28 -27 -10 -18 -19 -36 -19 -42 1 -5 8 4 17 20
28 54 51 72 93 73 34 2 42 -2 55 -28 8 -16 19 -53 24 -82 7 -43 9 -46 9 -18 1
19 -5 53 -13 74 -14 40 -12 56 6 56 6 0 8 -4 4 -9 -3 -5 0 -13 6 -17 8 -5 9
-3 4 6 -5 8 -3 11 6 8 8 -3 14 -10 14 -15 0 -6 4 -15 9 -20 6 -5 6 -2 1 6 -6
11 -4 13 11 8 18 -7 18 -7 0 8 -31 23 2 18 36 -6 16 -12 31 -19 34 -16 6 6
-60 45 -90 53 -13 3 -26 14 -29 25 -3 13 -14 19 -32 19 -21 0 -26 4 -21 16 4
9 2 22 -4 29 -6 7 -11 135 -12 326 l-3 314 -5 -325z m43 -387 c-13 -2 -33 -2
-45 0 -13 2 -3 4 22 4 25 0 35 -2 23 -4z"/>
<path d="M1781 2005 c-22 -24 -41 -50 -41 -57 0 -7 9 1 19 18 10 17 34 43 52
57 19 15 29 27 23 27 -6 0 -30 -20 -53 -45z"/>
<path d="M3972 2025 c0 -16 2 -22 5 -12 2 9 2 23 0 30 -3 6 -5 -1 -5 -18z"/>
<path d="M3631 2014 c0 -11 3 -14 6 -6 3 7 2 16 -1 19 -3 4 -6 -2 -5 -13z"/>
<path d="M3873 1995 c0 -22 2 -30 4 -17 2 12 2 30 0 40 -3 9 -5 -1 -4 -23z"/>
<path d="M1719 1993 l-24 -28 28 24 c25 23 32 31 24 31 -2 0 -14 -12 -28 -27z"/>
<path d="M3781 2004 c0 -11 3 -14 6 -6 3 7 2 16 -1 19 -3 4 -6 -2 -5 -13z"/>
<path d="M4122 1995 c0 -16 2 -22 5 -12 2 9 2 23 0 30 -3 6 -5 -1 -5 -18z"/>
<path d="M3700 2000 c0 -24 44 -112 74 -147 16 -19 24 -38 20 -44 -4 -8 -3 -9
4 -5 7 4 12 2 12 -5 0 -7 3 -10 6 -6 3 3 13 -2 23 -11 14 -14 14 -19 4 -30
-18 -19 -7 -32 26 -32 15 0 32 -5 39 -12 8 -8 15 -8 26 1 8 7 28 11 43 9 22
-2 29 1 31 19 2 14 20 29 57 47 29 15 59 34 66 44 13 15 12 16 -3 3 -10 -7
-18 -10 -18 -6 0 4 -14 -5 -31 -19 -17 -14 -34 -26 -39 -26 -5 0 -17 -3 -27
-6 -11 -4 -2 10 22 37 l40 44 -45 -42 c-62 -58 -79 -57 -82 5 l-1 47 -4 -42
c-4 -44 -27 -60 -36 -25 -4 15 -5 15 -6 -2 -1 -16 -3 -17 -18 -5 -11 10 -14
10 -9 2 13 -22 -18 -14 -46 12 -44 41 -79 92 -104 152 -13 32 -24 51 -24 43z"/>
<path d="M2011 1980 c14 -31 19 -36 19 -24 0 6 -7 19 -16 30 -14 18 -14 18 -3
-6z"/>
<path d="M1842 1955 c0 -16 2 -22 5 -12 2 9 2 23 0 30 -3 6 -5 -1 -5 -18z"/>
<path d="M3791 1964 c0 -11 3 -14 6 -6 3 7 2 16 -1 19 -3 4 -6 -2 -5 -13z"/>
<path d="M3962 1955 c0 -16 2 -22 5 -12 2 9 2 23 0 30 -3 6 -5 -1 -5 -18z"/>
<path d="M4162 1943 c-6 -20 -7 -32 -2 -27 10 10 25 64 18 64 -3 0 -10 -16
-16 -37z"/>
<path d="M1685 1949 c-4 -6 -5 -12 -2 -15 2 -3 7 2 10 11 7 17 1 20 -8 4z"/>
<path d="M4111 1944 c0 -11 3 -14 6 -6 3 7 2 16 -1 19 -3 4 -6 -2 -5 -13z"/>
<path d="M1941 1934 c0 -11 3 -14 6 -6 3 7 2 16 -1 19 -3 4 -6 -2 -5 -13z"/>
<path d="M3800 1935 c0 -5 5 -17 10 -25 5 -8 10 -10 10 -5 0 6 -5 17 -10 25
-5 8 -10 11 -10 5z"/>
<path d="M3882 1910 c0 -19 2 -27 5 -17 2 9 2 25 0 35 -3 9 -5 1 -5 -18z"/>
<path d="M1726 1908 c-3 -13 -5 -50 -4 -83 1 -59 1 -58 8 20 7 84 6 100 -4 63z"/>
<path d="M4294 1660 c0 -151 2 -213 3 -137 2 75 2 199 0 275 -1 75 -3 13 -3
-138z"/>
<path d="M1834 1785 c0 -77 2 -107 3 -67 2 40 2 103 0 140 -2 37 -3 4 -3 -73z"/>
<path d="M3952 1895 c0 -16 2 -22 5 -12 2 9 2 23 0 30 -3 6 -5 -1 -5 -18z"/>
<path d="M1954 1805 c0 -60 1 -84 3 -52 2 32 2 81 0 110 -2 29 -3 3 -3 -58z"/>
<path d="M2043 1820 c0 -47 2 -66 4 -42 2 23 2 61 0 85 -2 23 -4 4 -4 -43z"/>
<path d="M3710 1865 c19 -19 36 -35 39 -35 3 0 -10 16 -29 35 -19 19 -36 35
-39 35 -3 0 10 -16 29 -35z"/>
<path d="M4174 1868 l-29 -33 33 29 c30 28 37 36 29 36 -2 0 -16 -15 -33 -32z"/>
<path d="M1662 1870 c0 -14 2 -19 5 -12 2 6 2 18 0 25 -3 6 -5 1 -5 -13z"/>
<path d="M2123 1830 c0 -36 2 -50 4 -32 2 17 2 47 0 65 -2 17 -4 3 -4 -33z"/>
<path d="M3892 1840 c0 -14 2 -19 5 -12 2 6 2 18 0 25 -3 6 -5 1 -5 -13z"/>
<path d="M2213 1800 c0 -25 2 -35 4 -22 2 12 2 32 0 45 -2 12 -4 2 -4 -23z"/>
<path d="M1617 1785 c3 -27 7 -52 9 -54 7 -8 2 54 -6 79 -6 17 -7 9 -3 -25z"/>
<path d="M2573 1793 c-13 -2 -23 -7 -23 -10 0 -3 23 -31 52 -62 28 -31 64 -84
81 -118 37 -80 57 -83 91 -14 14 27 50 79 80 117 31 38 56 72 56 75 0 13 -66
19 -189 18 -69 -1 -136 -4 -148 -6z"/>
<path d="M1662 1760 c0 -14 2 -19 5 -12 2 6 2 18 0 25 -3 6 -5 1 -5 -13z"/>
<path d="M1731 1750 c-1 -19 19 -93 24 -88 2 2 -2 26 -10 53 -7 28 -14 43 -14
35z"/>
<path d="M2111 1734 c0 -11 3 -14 6 -6 3 7 2 16 -1 19 -3 4 -6 -2 -5 -13z"/>
<path d="M2141 1714 c0 -11 3 -14 6 -6 3 7 2 16 -1 19 -3 4 -6 -2 -5 -13z"/>
<path d="M2031 1704 c0 -11 3 -14 6 -6 3 7 2 16 -1 19 -3 4 -6 -2 -5 -13z"/>
<path d="M1680 1694 c0 -15 55 -100 72 -110 7 -4 6 1 -4 12 -9 10 -28 39 -42
64 -14 25 -26 40 -26 34z"/>
<path d="M3934 1650 c-12 -12 -3 -100 11 -103 6 -1 11 23 12 56 2 56 -3 67
-23 47z"/>
<path d="M1760 1645 c0 -5 5 -17 10 -25 5 -8 10 -10 10 -5 0 6 -5 17 -10 25
-5 8 -10 11 -10 5z"/>
<path d="M1842 1615 c0 -16 2 -22 5 -12 2 9 2 23 0 30 -3 6 -5 -1 -5 -18z"/>
<path d="M4664 1622 c-119 -41 -239 -151 -294 -269 -18 -38 -35 -75 -39 -83
-5 -8 -17 -16 -29 -18 -16 -3 -21 4 -27 37 -8 46 -1 63 21 54 14 -5 14 -3 3
14 -8 13 -16 17 -23 12 -6 -5 -23 -18 -38 -30 -32 -23 -39 -78 -13 -99 21 -17
19 -30 -5 -30 -14 0 -20 -7 -20 -23 0 -17 -10 -28 -39 -41 -58 -25 -138 -102
-168 -160 -19 -38 -27 -71 -31 -129 -4 -71 -2 -82 27 -141 21 -44 53 -85 104
-133 46 -44 73 -77 72 -89 -2 -23 -31 -82 -54 -107 -15 -18 -16 -18 -22 5 -6
20 -7 19 -8 -8 -1 -41 -27 -66 -34 -32 -3 16 -5 12 -6 -12 -1 -38 -54 -128
-93 -159 -12 -10 -23 -24 -24 -32 -2 -8 -14 -44 -28 -82 -14 -37 -21 -67 -16
-67 6 0 10 8 11 18 0 15 2 14 10 -3 7 -15 7 -11 3 14 -5 25 -3 32 6 26 9 -5
11 -4 6 3 -7 12 28 102 40 102 7 0 -2 -94 -13 -139 -4 -15 -2 -22 4 -18 6 4
14 32 18 63 9 77 13 84 42 84 l25 0 -6 -77 c-5 -55 -4 -74 3 -63 6 8 11 38 11
65 0 63 8 74 55 82 33 5 37 4 32 -10 -13 -34 -19 -115 -10 -132 8 -13 11 0 15
52 7 96 23 126 71 131 l37 3 1 -103 2 -103 8 104 c4 56 9 105 11 106 2 2 24
-1 48 -6 25 -6 69 -8 98 -5 l52 6 0 -100 c0 -67 4 -100 11 -100 8 0 10 31 7
100 -4 106 -2 110 47 110 27 0 33 -15 41 -127 4 -46 11 -83 15 -83 5 0 9 6 9
13 -1 23 -19 156 -25 180 -6 22 -2 25 34 35 23 5 43 7 45 3 11 -18 46 -168 46
-198 0 -18 5 -33 11 -33 12 0 4 65 -21 162 -10 38 -15 68 -11 68 20 0 111
-165 111 -202 0 -9 5 -20 11 -24 21 -12 0 65 -36 135 -39 77 -162 201 -238
241 -47 24 -48 26 -41 60 4 19 6 45 6 58 -2 20 2 22 21 17 19 -5 20 -4 5 5
-12 7 -18 23 -18 48 1 30 9 45 46 82 65 66 97 136 97 218 1 37 -3 75 -9 84 -6
11 -8 -9 -6 -62 4 -68 1 -86 -21 -134 -14 -31 -29 -56 -32 -56 -3 0 -1 10 6
21 19 36 7 177 -19 231 -36 72 -94 139 -155 178 -44 28 -54 39 -50 56 3 13 -1
23 -11 27 -14 5 -14 9 -1 34 8 15 26 55 40 87 61 142 184 249 335 292 25 7 36
12 25 13 -11 0 -43 -8 -71 -17z m-411 -324 c-7 -50 -8 -52 -22 -43 -14 8 -14
41 -1 66 18 32 28 21 23 -23z m-79 -177 c-66 -38 -138 -119 -158 -178 -9 -26
-16 -78 -16 -117 0 -86 23 -142 83 -206 l42 -45 -43 40 c-24 22 -57 62 -75 90
-30 46 -32 55 -32 140 0 81 3 95 30 144 42 76 148 161 200 161 13 0 3 -10 -31
-29z m81 2 l-5 -28 11 28 c15 39 35 34 70 -20 30 -45 32 -45 13 1 -12 32 27 4
89 -63 80 -87 110 -154 112 -252 1 -49 -2 -76 -9 -72 -5 4 -7 -1 -3 -11 4 -10
3 -15 -3 -11 -6 3 -10 2 -10 -4 0 -5 -11 -22 -24 -38 -13 -15 -25 -32 -27 -38
-2 -5 -12 -9 -22 -8 -17 3 -62 -18 -117 -53 -23 -15 -23 -15 -6 0 11 9 16 16
12 16 -5 0 -4 6 2 13 43 52 68 343 36 432 -7 22 -11 29 -8 15 16 -67 16 -231
-1 -312 -17 -88 -44 -154 -60 -151 -24 4 -63 180 -74 333 -8 102 -8 103 -10
30 -1 -87 20 -226 49 -320 11 -36 20 -66 20 -66 0 -1 -30 -2 -67 -2 -63 1
-112 13 -100 25 3 2 14 0 25 -6 11 -6 -8 18 -43 52 -72 73 -95 127 -95 227 0
55 6 78 31 128 30 61 86 119 144 149 l30 16 -33 -37 c-43 -49 -58 -81 -73
-153 -11 -52 -10 -70 4 -128 19 -78 69 -172 122 -230 l36 -40 -40 55 c-143
197 -151 370 -24 510 42 47 55 50 48 13z m123 8 c57 -30 127 -109 161 -181 25
-52 31 -78 31 -130 0 -36 -4 -70 -8 -77 -4 -6 -7 19 -7 56 0 55 -6 78 -34 135
-36 74 -154 201 -177 192 -15 -6 -27 8 -17 18 9 8 9 8 51 -13z m38 -576 c-11
-8 -31 -15 -45 -15 -25 1 -25 1 -7 15 11 8 31 15 45 15 25 -1 25 -1 7 -15z
m38 -20 c-4 -8 -13 -15 -22 -15 -13 0 -12 3 4 15 24 18 25 18 18 0z m-185 -18
c-2 -2 -19 -11 -36 -20 -27 -12 -33 -13 -33 -2 0 7 8 16 18 18 21 6 57 8 51 4z
m70 -24 c-13 -17 -13 -17 7 0 45 38 62 14 31 -45 -21 -40 -25 -43 -62 -43 -35
0 -40 3 -43 24 -3 21 -1 23 25 18 26 -6 26 -6 6 5 -39 19 -21 58 25 58 22 0
23 -2 11 -17z m-77 -52 c-10 -40 -24 -69 -43 -87 l-29 -28 0 55 c0 44 4 58 22
74 17 15 50 39 64 45 0 0 -6 -27 -14 -59z m188 49 c0 -5 -6 -10 -14 -10 -8 0
-18 5 -21 10 -3 6 3 10 14 10 12 0 21 -4 21 -10z m-27 -26 c11 -11 -16 -54
-35 -54 -17 0 -18 2 -3 30 15 29 26 36 38 24z m37 -126 l-1 -133 -44 50 c-25
27 -45 56 -45 65 0 9 16 40 35 70 19 30 35 60 35 67 0 7 5 13 10 13 6 0 10
-51 10 -132z m-281 25 c-1 -38 1 -75 5 -84 4 -9 0 -25 -11 -38 -24 -30 -53
-19 -53 19 0 16 -4 31 -8 34 -4 2 -6 -11 -4 -30 4 -35 -7 -44 -27 -20 -6 7
-22 11 -36 8 l-25 -4 27 48 c23 40 28 44 34 28 6 -16 8 -15 8 7 1 28 40 74 42
48 0 -11 2 -11 6 1 6 16 33 50 40 50 3 0 3 -30 2 -67z m111 21 c0 -2 -9 -18
-20 -36 -11 -18 -20 -50 -20 -70 0 -21 -3 -38 -8 -38 -15 0 -42 41 -42 64 0
26 40 70 41 45 0 -8 5 -3 11 11 6 14 10 28 10 32 -1 4 5 5 13 2 8 -4 15 -8 15
-10z m100 11 c0 -17 -35 -73 -43 -68 -6 3 -7 1 -3 -5 4 -6 2 -22 -4 -34 -10
-21 -10 -21 3 -5 8 9 17 17 20 17 3 0 20 -20 36 -44 33 -48 29 -56 -27 -56
-39 0 -56 14 -49 40 4 17 3 20 -5 12 -9 -9 -17 -7 -32 6 -21 17 -21 17 -3 -4
23 -27 22 -43 -3 -37 -17 4 -20 13 -19 52 2 48 22 101 40 101 6 0 8 4 4 9 -5
9 18 15 68 20 9 0 17 -1 17 -4z m162 -50 c23 -15 36 -30 32 -37 -4 -6 -3 -8 4
-4 6 3 20 -6 32 -21 l22 -28 -29 -12 c-49 -21 -58 -17 -76 40 -9 29 -23 62
-31 72 -9 11 -4 -7 9 -40 30 -73 31 -95 6 -95 -11 0 -26 -3 -35 -6 -14 -5 -16
6 -16 79 0 83 1 86 22 82 11 -3 39 -16 60 -30z m-322 -110 l23 -25 -41 0 c-41
0 -41 1 -30 25 6 14 14 25 18 25 4 0 17 -11 30 -25z m-180 -15 c0 -11 2 -12 8
-3 9 14 79 7 88 -9 11 -17 -17 -36 -56 -40 -34 -3 -40 -1 -41 17 -2 18 -2 17
-6 -2 -3 -17 -11 -23 -29 -23 -14 0 -22 4 -19 10 3 6 -1 7 -9 4 -22 -8 -20 3
7 36 24 30 57 36 57 10z"/>
<path d="M4236 1068 c-3 -13 -5 -32 -5 -43 1 -11 5 -2 10 19 10 42 6 62 -5 24z"/>
<path d="M4220 431 c0 -6 4 -13 10 -16 6 -3 7 1 4 9 -7 18 -14 21 -14 7z"/>
<path d="M4110 320 c0 -5 5 -10 11 -10 5 0 7 5 4 10 -3 6 -8 10 -11 10 -2 0
-4 -4 -4 -10z"/>
<path d="M4601 273 c7 -12 15 -20 18 -17 3 2 -3 12 -13 22 -17 16 -18 16 -5
-5z"/>
<path d="M4807 1606 c35 -31 36 -34 16 -40 -12 -4 -24 -14 -27 -23 -5 -13 -4
-14 9 -3 8 7 25 10 40 6 24 -6 25 -10 27 -89 l2 -82 3 78 c3 57 7 76 16 70 7
-4 7 0 -2 10 -35 43 47 -4 86 -50 l25 -28 -22 33 c-12 17 -31 37 -42 43 -20
11 -19 12 18 26 25 9 61 12 104 9 53 -4 59 -3 35 5 -16 5 -61 8 -100 5 -38 -3
-77 -1 -85 4 -10 7 -11 10 -2 10 6 0 12 7 12 15 0 20 -6 19 -40 -5 l-29 -20
-34 30 c-47 41 -56 38 -10 -4z"/>
<path d="M66 1561 c96 -48 193 -167 194 -237 0 -12 -16 -54 -36 -94 -35 -70
-87 -132 -149 -179 -16 -12 -23 -19 -15 -15 85 41 210 213 210 288 0 83 -139
234 -240 260 -14 4 2 -7 36 -23z"/>
<path d="M5015 1535 c28 -7 51 -12 53 -10 6 5 -61 25 -82 24 -12 0 2 -6 29
-14z"/>
<path d="M4800 1519 c-110 -66 -171 -173 -171 -302 0 -91 35 -166 129 -271 81
-92 125 -161 158 -249 16 -40 22 -50 18 -27 -9 48 -65 155 -113 215 -22 27
-39 50 -38 52 2 1 23 -5 47 -14 58 -20 192 -22 248 -4 60 20 52 31 -10 14 -79
-21 -214 -12 -275 18 -96 48 -159 169 -151 288 8 105 62 200 151 263 l29 21
-7 -24 c-8 -27 -6 -25 18 14 21 32 14 34 -33 6z"/>
<path d="M37 1484 c18 -13 44 -39 58 -57 15 -18 22 -23 16 -11 -11 22 -86 94
-99 94 -4 0 7 -12 25 -26z"/>
<path d="M4801 1454 c0 -11 3 -14 6 -6 3 7 2 16 -1 19 -3 4 -6 -2 -5 -13z"/>
<path d="M5032 1385 c18 -35 34 -63 36 -61 4 5 -56 126 -63 126 -3 0 10 -29
27 -65z"/>
<path d="M4793 1365 c0 -38 2 -53 4 -32 2 20 2 52 0 70 -2 17 -4 1 -4 -38z"/>
<path d="M4882 1350 c0 -14 2 -19 5 -12 2 6 2 18 0 25 -3 6 -5 1 -5 -13z"/>
<path d="M143 1285 c0 -33 2 -45 4 -27 2 18 2 45 0 60 -2 15 -4 0 -4 -33z"/>
<path d="M4896 1290 c4 -19 10 -42 15 -50 11 -18 1 34 -13 65 -5 13 -6 9 -2
-15z"/>
<path d="M1059 1273 l-34 -38 38 34 c20 19 37 36 37 38 0 8 -8 0 -41 -34z"/>
<path d="M1156 1295 c-3 -9 -6 -22 -5 -28 0 -7 5 -1 10 12 5 13 8 26 5 28 -2
2 -6 -3 -10 -12z"/>
<path d="M1369 1263 c12 -18 24 -33 27 -33 9 0 -15 37 -33 51 -12 10 -11 5 6
-18z"/>
<path d="M1410 1270 c0 -5 5 -10 11 -10 5 0 7 5 4 10 -3 6 -8 10 -11 10 -2 0
-4 -4 -4 -10z"/>
<path d="M5082 1270 c0 -8 8 -37 18 -65 10 -27 18 -43 18 -35 0 8 -8 38 -18
65 -10 28 -18 43 -18 35z"/>
<path d="M4810 1257 c0 -14 108 -222 126 -242 11 -12 15 -14 9 -6 -5 7 -38 68
-72 135 -34 67 -62 118 -63 113z"/>
<path d="M1141 1234 c0 -11 3 -14 6 -6 3 7 2 16 -1 19 -3 4 -6 -2 -5 -13z"/>
<path d="M1439 1216 c9 -18 18 -29 19 -25 2 5 9 6 15 2 7 -4 -1 7 -18 25 -16
18 -31 32 -31 32 -1 0 6 -15 15 -34z"/>
<path d="M1465 1230 c10 -11 20 -20 23 -20 3 0 -3 9 -13 20 -10 11 -20 20 -23
20 -3 0 3 -9 13 -20z"/>
<path d="M1010 1209 c-7 -11 -10 -23 -7 -25 2 -2 9 7 15 21 14 30 7 33 -8 4z"/>
<path d="M127 1198 c-4 -14 -19 -41 -34 -60 -23 -27 -23 -30 -4 -13 27 24 54
72 48 88 -2 7 -7 0 -10 -15z"/>
<path d="M4926 1200 c3 -14 11 -32 16 -40 6 -10 7 -7 2 10 -3 14 -11 32 -16
40 -6 10 -7 7 -2 -10z"/>
<path d="M2670 1127 c0 -104 -6 -121 -63 -178 -53 -53 -67 -77 -67 -119 0 -54
47 -119 96 -134 26 -8 33 -39 24 -100 -7 -44 -6 -46 18 -46 23 0 24 2 17 49
-9 64 -1 86 35 101 17 7 44 28 60 47 25 28 30 42 30 84 0 44 -4 55 -32 84
-106 105 -105 104 -107 201 -2 114 -11 123 -11 11z m-14 -206 c-4 -5 -2 -20 3
-33 9 -21 10 -21 10 10 1 36 23 44 41 15 10 -16 11 -16 6 -1 -3 12 1 16 15 15
51 -4 70 -80 36 -146 -9 -19 -15 -36 -12 -39 4 -4 31 50 48 98 4 12 6 12 6 -2
2 -28 -19 -71 -46 -100 -36 -37 -46 -26 -23 25 21 44 26 122 11 146 -6 10 -8
1 -4 -26 7 -50 -19 -143 -47 -168 -20 -18 -20 -18 -20 5 0 22 -1 23 -13 6 -12
-16 -14 -16 -26 -2 -7 9 -18 13 -24 9 -5 -3 -7 -1 -3 5 3 6 1 31 -6 56 -9 34
-9 54 0 82 6 21 10 40 7 42 -2 2 -9 -15 -16 -38 -10 -32 -10 -52 -1 -83 13
-49 1 -68 -22 -36 -26 37 -21 106 9 138 24 24 84 43 71 22z"/>
<path d="M2571 834 c-1 -33 4 -57 15 -70 15 -19 16 -19 8 1 -4 11 -10 43 -14
70 l-7 50 -2 -51z"/>
<path d="M2632 815 c-1 -22 6 -53 14 -70 8 -16 12 -21 8 -10 -3 11 -10 43 -14
70 -7 49 -8 49 -8 10z"/>
<path d="M2682 780 c0 -14 2 -19 5 -12 2 6 2 18 0 25 -3 6 -5 1 -5 -13z"/>
<path d="M1133 1165 c0 -22 2 -30 4 -17 2 12 2 30 0 40 -3 9 -5 -1 -4 -23z"/>
<path d="M1062 1170 c0 -14 2 -19 5 -12 2 6 2 18 0 25 -3 6 -5 1 -5 -13z"/>
<path d="M1371 1164 c0 -11 3 -14 6 -6 3 7 2 16 -1 19 -3 4 -6 -2 -5 -13z"/>
<path d="M1486 1167 c3 -10 9 -15 12 -12 3 3 0 11 -7 18 -10 9 -11 8 -5 -6z"/>
<path d="M991 1154 c0 -11 3 -14 6 -6 3 7 2 16 -1 19 -3 4 -6 -2 -5 -13z"/>
<path d="M1421 1154 c0 -11 3 -14 6 -6 3 7 2 16 -1 19 -3 4 -6 -2 -5 -13z"/>
<path d="M1462 1150 c0 -14 2 -19 5 -12 2 6 2 18 0 25 -3 6 -5 1 -5 -13z"/>
<path d="M914 1125 c-4 -15 -2 -41 4 -58 11 -29 11 -28 6 18 -3 36 -2 46 5 35
9 -13 11 -13 11 2 0 28 -19 30 -26 3z"/>
<path d="M983 1060 c0 -41 2 -58 4 -37 2 20 2 54 0 75 -2 20 -4 3 -4 -38z"/>
<path d="M1053 1065 c0 -38 2 -53 4 -32 2 20 2 52 0 70 -2 17 -4 1 -4 -38z"/>
<path d="M1382 1100 c0 -14 2 -19 5 -12 2 6 2 18 0 25 -3 6 -5 1 -5 -13z"/>
<path d="M1433 1060 c0 -36 2 -50 4 -32 2 17 2 47 0 65 -2 17 -4 3 -4 -33z"/>
<path d="M4960 1114 c0 -6 7 -19 16 -30 14 -18 14 -18 3 6 -14 31 -19 36 -19
24z"/>
<path d="M1513 1050 c0 -36 2 -50 4 -32 2 17 2 47 0 65 -2 17 -4 3 -4 -33z"/>
<path d="M1273 1045 c0 -33 2 -45 4 -27 2 18 2 45 0 60 -2 15 -4 0 -4 -33z"/>
<path d="M1541 1054 c0 -11 3 -14 6 -6 3 7 2 16 -1 19 -3 4 -6 -2 -5 -13z"/>
<path d="M1372 1030 c0 -14 2 -19 5 -12 2 6 2 18 0 25 -3 6 -5 1 -5 -13z"/>
<path d="M14 1014 c-18 -14 -18 -15 4 -4 12 6 22 13 22 15 0 8 -5 6 -26 -11z"/>
<path d="M910 1018 c0 -28 36 -117 64 -157 14 -20 46 -50 71 -65 33 -21 45
-35 45 -52 0 -19 5 -24 25 -24 22 0 25 -4 25 -35 0 -32 2 -35 29 -35 44 0 48
-23 25 -142 -5 -26 -3 -28 26 -28 28 0 32 3 27 23 -16 62 -19 127 -7 127 7 0
10 7 6 15 -4 11 2 15 24 15 26 0 30 4 30 29 0 20 6 30 20 34 11 3 20 13 20 22
0 10 31 46 69 82 39 35 73 73 76 84 4 10 9 17 13 15 4 -2 8 10 8 27 l2 32 -15
-37 c-9 -21 -20 -38 -24 -38 -5 0 -9 -6 -9 -13 0 -7 -16 -28 -35 -47 -29 -28
-37 -32 -48 -21 -7 9 -7 11 -1 8 13 -7 29 20 25 42 -1 7 2 10 8 6 7 -4 8 0 4
11 -4 11 -3 15 4 11 7 -5 9 0 6 14 -5 19 -7 17 -20 -12 -8 -19 -15 -38 -16
-43 -4 -17 -71 -86 -83 -86 -10 0 -8 9 6 33 11 17 20 37 20 42 0 6 -12 -9 -26
-32 -18 -32 -32 -43 -49 -43 -24 0 -24 0 -10 41 8 23 15 49 14 58 0 9 -8 -9
-17 -39 l-18 -55 -44 0 c-41 0 -46 3 -67 40 -28 50 -30 38 -3 -15 11 -22 17
-40 14 -40 -10 0 -79 64 -81 75 -2 6 -6 10 -10 10 -5 0 -15 4 -23 8 -8 5 5
-10 29 -32 24 -23 38 -41 32 -41 -16 0 -92 72 -95 90 -1 8 -12 31 -24 50 -12
19 -22 44 -22 55 0 11 -5 27 -10 35 -8 13 -10 12 -10 -2z m470 -206 c0 -4 -10
-13 -22 -21 -23 -14 -23 -14 -4 8 20 22 26 25 26 13z m-197 -59 c-13 -2 -33
-2 -45 0 -13 2 -3 4 22 4 25 0 35 -2 23 -4z m107 -52 c0 -5 -29 -11 -65 -13
-47 -2 -65 0 -65 10 0 8 20 12 65 12 36 0 65 -4 65 -9z"/>
<path d="M1461 1014 c0 -11 3 -14 6 -6 3 7 2 16 -1 19 -3 4 -6 -2 -5 -13z"/>
<path d="M1133 980 c0 -25 2 -35 4 -22 2 12 2 32 0 45 -2 12 -4 2 -4 -23z"/>
<path d="M5035 990 c10 -11 20 -20 23 -20 3 0 -3 9 -13 20 -10 11 -20 20 -23
20 -3 0 3 -9 13 -20z"/>
<path d="M1361 984 c0 -11 3 -14 6 -6 3 7 2 16 -1 19 -3 4 -6 -2 -5 -13z"/>
<path d="M1451 983 c-1 -6 -4 -20 -7 -30 -5 -17 -5 -17 6 0 6 10 9 23 6 30 -3
9 -5 9 -5 0z"/>
<path d="M1062 960 c0 -14 2 -19 5 -12 2 6 2 18 0 25 -3 6 -5 1 -5 -13z"/>
<path d="M1421 964 c0 -11 3 -14 6 -6 3 7 2 16 -1 19 -3 4 -6 -2 -5 -13z"/>
<path d="M4982 955 c15 -16 29 -27 31 -24 3 2 -10 15 -27 28 l-31 24 27 -28z"/>
<path d="M1263 935 c0 -22 2 -30 4 -17 2 12 2 30 0 40 -3 9 -5 -1 -4 -23z"/>
<path d="M1071 914 c0 -11 3 -14 6 -6 3 7 2 16 -1 19 -3 4 -6 -2 -5 -13z"/>
<path d="M1141 914 c-1 -22 28 -128 34 -122 1 1 -5 35 -15 73 -11 39 -19 61
-19 49z"/>
<path d="M1341 914 c0 -11 3 -14 6 -6 3 7 2 16 -1 19 -3 4 -6 -2 -5 -13z"/>
<path d="M1010 905 c0 -5 5 -17 10 -25 5 -8 10 -10 10 -5 0 6 -5 17 -10 25 -5
8 -10 11 -10 5z"/>
<path d="M3623 715 c-13 -9 -23 -22 -23 -29 0 -8 10 -21 23 -29 l22 -16 -23 0
c-14 -1 -20 -5 -17 -12 4 -6 21 -8 38 -5 24 5 27 4 12 -3 -34 -15 -103 -88
-133 -141 -19 -33 -32 -47 -36 -38 -3 7 -3 3 0 -9 3 -13 1 -23 -5 -23 -6 0
-11 -15 -10 -32 1 -31 1 -31 8 -8 16 52 64 134 103 177 52 55 77 70 89 52 5
-8 9 -9 9 -4 0 6 9 11 19 12 24 2 37 -28 55 -132 8 -44 14 -66 15 -50 0 38
-22 144 -37 171 -9 18 -8 24 7 38 9 9 28 17 42 17 15 1 18 3 7 6 -23 6 -32 33
-10 34 17 1 -62 27 -108 35 -14 3 -35 -2 -47 -11z m70 -2 c11 -11 -45 -34 -66
-27 -20 6 -20 7 -2 20 20 15 57 19 68 7z m62 -34 c8 -12 -20 -45 -43 -51 -9
-2 -25 4 -34 14 -16 16 -16 18 5 33 25 17 63 20 72 4z"/>
<path d="M3818 683 c6 -2 18 -2 25 0 6 3 1 5 -13 5 -14 0 -19 -2 -12 -5z"/>
<path d="M3880 666 c0 -2 7 -7 16 -10 8 -3 12 -2 9 4 -6 10 -25 14 -25 6z"/>
<path d="M3843 639 c20 -5 55 -18 76 -28 43 -22 102 -85 97 -103 -1 -7 -1 -10
1 -5 3 4 10 4 16 0 13 -8 -9 24 -48 68 -33 37 -119 80 -157 78 -15 -1 -10 -4
15 -10z"/>
<path d="M3920 646 c0 -2 8 -10 18 -17 15 -13 16 -12 3 4 -13 16 -21 21 -21
13z"/>
<path d="M3768 623 c7 -3 16 -2 19 1 4 3 -2 6 -13 5 -11 0 -14 -3 -6 -6z"/>
<path d="M4943 595 c0 -22 2 -30 4 -17 2 12 2 30 0 40 -3 9 -5 -1 -4 -23z"/>
<path d="M3559 583 l-34 -38 38 34 c20 19 37 36 37 38 0 8 -8 0 -41 -34z"/>
<path d="M3885 570 c10 -11 20 -20 23 -20 3 0 -3 9 -13 20 -10 11 -20 20 -23
20 -3 0 3 -9 13 -20z"/>
<path d="M4952 530 c0 -14 2 -19 5 -12 2 6 2 18 0 25 -3 6 -5 1 -5 -13z"/>
<path d="M3510 519 c-7 -11 -10 -23 -7 -25 2 -2 9 7 15 21 14 30 7 33 -8 4z"/>
<path d="M3646 525 c-9 -26 -7 -32 5 -12 6 10 9 21 6 23 -2 3 -7 -2 -11 -11z"/>
<path d="M3924 390 c0 -69 1 -97 3 -62 2 34 2 90 0 125 -2 34 -3 6 -3 -63z"/>
<path d="M4540 500 c8 -6 24 -16 35 -22 20 -11 20 -11 1 11 -11 11 -26 21 -35
21 -14 0 -14 -2 -1 -10z"/>
<path d="M4057 455 c9 -19 18 -33 21 -31 4 5 -26 66 -33 66 -3 0 3 -16 12 -35z"/>
<path d="M4027 440 c3 -25 7 -47 9 -49 8 -9 2 55 -6 74 -6 13 -7 5 -3 -25z"/>
<path d="M4614 458 c10 -7 40 -28 65 -47 34 -25 40 -27 23 -9 -12 13 -41 34
-65 47 -23 12 -33 16 -23 9z"/>
<path d="M4941 434 c0 -11 3 -14 6 -6 3 7 2 16 -1 19 -3 4 -6 -2 -5 -13z"/>
<path d="M3391 424 c0 -11 3 -14 6 -6 3 7 2 16 -1 19 -3 4 -6 -2 -5 -13z"/>
<path d="M3613 345 c0 -44 2 -61 4 -37 2 23 2 59 0 80 -2 20 -4 1 -4 -43z"/>
<path d="M3773 350 c0 -25 2 -35 4 -22 2 12 2 32 0 45 -2 12 -4 2 -4 -23z"/>
<path d="M2632 324 c-2 -46 -7 -68 -24 -90 -26 -32 -31 -51 -16 -61 7 -3 8 -1
4 5 -4 7 -1 12 8 12 20 0 20 -9 1 -34 -8 -11 -15 -27 -15 -35 1 -9 7 -1 15 17
8 17 19 33 25 33 5 1 15 3 20 4 6 1 21 3 35 4 l25 1 -32 36 c-28 31 -34 45
-39 102 l-5 67 -2 -61z"/>
<path d="M4755 340 c10 -11 20 -20 23 -20 3 0 -3 9 -13 20 -10 11 -20 20 -23
20 -3 0 3 -9 13 -20z"/>
<path d="M3392 330 c0 -14 2 -19 5 -12 2 6 2 18 0 25 -3 6 -5 1 -5 -13z"/>
<path d="M1783 303 c-13 -19 -23 -39 -23 -44 0 -5 -14 -9 -32 -9 -38 0 -34 -5
10 -13 21 -4 31 -3 27 3 -3 6 -1 10 4 10 6 0 10 5 9 11 -5 19 30 35 49 23 28
-17 26 -32 -4 -37 -20 -3 -16 -4 15 -6 33 -1 40 2 32 12 -6 6 -23 28 -38 48
l-27 35 -22 -33z"/>
<path d="M3462 310 c0 -19 2 -27 5 -17 2 9 2 25 0 35 -3 9 -5 1 -5 -18z"/>
<path d="M3552 285 c0 -16 2 -22 5 -12 2 9 2 23 0 30 -3 6 -5 -1 -5 -18z"/>
<path d="M3782 270 c0 -19 2 -27 5 -17 2 9 2 25 0 35 -3 9 -5 1 -5 -18z"/>
<path d="M3410 264 c0 -22 75 -122 118 -158 44 -36 58 -44 48 -27 -4 5 0 12 6
15 7 3 2 3 -11 0 -18 -5 -22 -3 -16 7 5 8 5 11 1 7 -13 -11 -85 62 -117 117
-16 28 -29 45 -29 39z"/>
<path d="M3471 260 c0 -8 4 -22 9 -30 12 -18 12 -2 0 25 -6 13 -9 15 -9 5z"/>
<path d="M1302 248 c-7 -7 -12 -22 -12 -34 0 -12 -11 -29 -25 -38 -14 -9 -23
-21 -20 -26 3 -4 -11 -18 -30 -30 -19 -12 -35 -24 -35 -27 0 -2 15 5 34 16 18
12 37 21 41 21 4 0 5 -26 2 -58 l-6 -57 12 55 c11 48 15 55 37 55 18 0 30 -10
47 -40 12 -22 23 -35 23 -30 0 6 -9 25 -20 43 l-20 32 30 0 c16 0 32 -5 35
-10 4 -6 11 -7 17 -4 17 11 -14 24 -62 25 -25 0 -56 5 -70 10 -18 6 -9 8 33 5
31 -3 57 -3 57 -1 0 3 -14 12 -31 21 -23 11 -28 19 -20 27 13 13 15 44 3 51
-5 3 -14 0 -20 -6z"/>
<path d="M3621 244 c0 -11 3 -14 6 -6 3 7 2 16 -1 19 -3 4 -6 -2 -5 -13z"/>
<path d="M1891 238 c2 -2 24 -21 49 -43 31 -27 36 -30 17 -9 -15 17 -24 34
-20 39 5 4 2 5 -4 1 -7 -4 -13 -2 -13 3 0 6 -7 11 -17 11 -9 0 -14 -1 -12 -2z"/>
<path d="M1783 215 c0 -5 -4 -19 -7 -30 -5 -15 -4 -15 5 3 7 12 20 22 31 22
10 0 21 1 26 2 4 0 15 -14 24 -33 10 -19 18 -29 18 -22 0 16 -21 63 -29 64
-37 5 -68 2 -68 -6z"/>
<path d="M3791 214 c0 -11 3 -14 6 -6 3 7 2 16 -1 19 -3 4 -6 -2 -5 -13z"/>
<path d="M3630 212 c0 -19 61 -82 79 -82 11 0 8 4 -9 13 -13 7 -35 28 -47 46
-13 19 -23 29 -23 23z"/>
<path d="M1594 178 l-29 -33 33 29 c30 28 37 36 29 36 -2 0 -16 -15 -33 -32z"/>
<path d="M1684 188 l-19 -23 23 19 c12 11 22 21 22 23 0 8 -8 2 -26 -19z"/>
<path d="M1974 201 c7 -11 46 -35 46 -28 0 3 -12 12 -26 22 -15 9 -23 12 -20
6z"/>
<path d="M4771 156 c36 -55 71 -140 62 -150 -4 -3 -1 -6 5 -6 7 0 12 6 12 13
0 21 -57 131 -85 162 -22 25 -21 22 6 -19z"/>
<path d="M3520 165 c13 -14 26 -25 28 -25 3 0 -5 11 -18 25 -13 14 -26 25 -28
25 -3 0 5 -11 18 -25z"/>
<path d="M3800 181 c0 -6 4 -13 10 -16 6 -3 7 1 4 9 -7 18 -14 21 -14 7z"/>
<path d="M2508 159 c-21 -10 -45 -33 -54 -51 -15 -29 -14 -29 23 10 48 50 81
58 37 9 -21 -24 -19 -23 8 4 20 20 39 34 42 31 3 -3 6 0 6 6 0 17 -19 14 -62
-9z"/>
<path d="M2681 150 c14 -31 19 -36 19 -24 0 6 -7 19 -16 30 -14 18 -14 18 -3
-6z"/>
<path d="M2751 166 c2 -2 15 -9 29 -15 24 -11 24 -11 6 3 -16 13 -49 24 -35
12z"/>
<path d="M2046 125 c10 -16 19 -31 20 -33 1 -2 5 5 8 15 4 9 4 14 0 11 -3 -4
-15 3 -26 15 -19 22 -19 22 -2 -8z"/>
<path d="M1883 95 c0 -27 2 -38 4 -22 2 15 2 37 0 50 -2 12 -4 0 -4 -28z"/>
<path d="M2830 115 c13 -14 26 -25 28 -25 3 0 -5 11 -18 25 -13 14 -26 25 -28
25 -3 0 5 -11 18 -25z"/>
<path d="M3592 131 c-9 -5 -4 -11 15 -20 26 -13 27 -14 8 -21 -15 -6 -10 -7
17 -7 21 1 36 1 35 1 -1 1 -16 13 -32 28 -19 17 -35 24 -43 19z"/>
<path d="M3868 133 c7 -3 16 -2 19 1 4 3 -2 6 -13 5 -11 0 -14 -3 -6 -6z"/>
<path d="M1094 96 c-21 -19 -47 -48 -57 -65 -25 -43 -14 -39 14 5 12 20 40 49
62 65 22 16 36 29 30 29 -5 0 -27 -15 -49 -34z"/>
<path d="M1752 105 c0 -16 2 -22 5 -12 2 9 2 23 0 30 -3 6 -5 -1 -5 -18z"/>
<path d="M3748 123 c6 -2 18 -2 25 0 6 3 1 5 -13 5 -14 0 -19 -2 -12 -5z"/>
<path d="M1461 91 c20 -16 42 -44 49 -61 7 -17 15 -29 17 -26 13 12 -47 90
-82 108 -11 6 -4 -4 16 -21z"/>
<path d="M2701 94 c0 -11 3 -14 6 -6 3 7 2 16 -1 19 -3 4 -6 -2 -5 -13z"/>
<path d="M2582 75 c0 -16 2 -22 5 -12 2 9 2 23 0 30 -3 6 -5 -1 -5 -18z"/>
<path d="M1632 70 c0 -14 2 -19 5 -12 2 6 2 18 0 25 -3 6 -5 1 -5 -13z"/>
<path d="M1150 48 c-11 -18 -20 -37 -20 -42 0 -12 1 -10 28 37 26 45 19 50 -8
5z"/>
<path d="M2466 65 c-3 -9 -6 -24 -5 -33 0 -9 5 -4 10 12 9 32 6 48 -5 21z"/>
<path d="M1441 50 c14 -31 19 -36 19 -24 0 6 -7 19 -16 30 -14 18 -14 18 -3
-6z"/>
<path d="M1531 54 c0 -11 3 -14 6 -6 3 7 2 16 -1 19 -3 4 -6 -2 -5 -13z"/>
<path d="M2021 54 c0 -11 3 -14 6 -6 3 7 2 16 -1 19 -3 4 -6 -2 -5 -13z"/>
<path d="M2426 55 c-3 -9 -6 -22 -5 -28 0 -7 5 -1 10 12 5 13 8 26 5 28 -2 2
-6 -3 -10 -12z"/>
<path d="M2712 30 c0 -19 2 -27 5 -17 2 9 2 25 0 35 -3 9 -5 1 -5 -18z"/>
<path d="M2761 44 c0 -11 3 -14 6 -6 3 7 2 16 -1 19 -3 4 -6 -2 -5 -13z"/>
<path d="M2102 25 c0 -17 2 -22 5 -12 2 9 2 23 0 30 -3 6 -5 -1 -5 -18z"/>
<path d="M1372 20 c0 -14 2 -19 5 -12 2 6 2 18 0 25 -3 6 -5 1 -5 -13z"/>
<path d="M1871 24 c0 -11 3 -14 6 -6 3 7 2 16 -1 19 -3 4 -6 -2 -5 -13z"/>
<path d="M2880 19 c0 -11 4 -18 10 -14 5 3 7 12 3 20 -7 21 -13 19 -13 -6z"/>
<path d="M1741 14 c0 -11 3 -14 6 -6 3 7 2 16 -1 19 -3 4 -6 -2 -5 -13z"/>
<path d="M2391 14 c0 -11 3 -14 6 -6 3 7 2 16 -1 19 -3 4 -6 -2 -5 -13z"/>
</g>
</svg>