<?xml version="1.0" standalone="no"?>
<!DOCTYPE svg PUBLIC "-//W3C//DTD SVG 20010904//EN"
 "http://www.w3.org/TR/2001/REC-SVG-20010904/DTD/svg10.dtd">
<svg version="1.0" xmlns="http://www.w3.org/2000/svg"
 width="512.000000pt" height="512.000000pt" viewBox="0 0 512.000000 512.000000"
 preserveAspectRatio="xMidYMid meet">
<metadata>
Created by potrace 1.16, written by Peter Selinger 2001-2019
</metadata>
<g transform="translate(0.000000,512.000000) scale(0.100000,-0.100000)"
fill="#000000" stroke="none">
<path d="M2422 4208 c-19 -19 -14 -89 8 -126 11 -18 20 -34 20 -37 0 -2 -25
-20 -55 -39 -79 -51 -130 -108 -172 -193 -33 -67 -38 -86 -41 -167 -5 -99 5
-134 53 -192 l26 -32 -51 -42 c-81 -68 -63 -76 57 -26 121 51 270 52 416 1 48
-16 67 -19 67 -10 0 7 15 28 33 47 60 64 71 150 37 282 -43 164 -136 289 -258
347 -49 24 -62 34 -57 47 15 39 17 74 5 102 -19 45 -62 64 -88 38z m56 -30
c14 -14 16 -76 3 -96 -10 -16 -24 -1 -41 42 -18 49 7 85 38 54z m103 -199
c118 -60 229 -265 231 -425 0 -78 -41 -164 -79 -164 -8 0 -53 27 -100 61 -47
33 -92 63 -99 66 -8 3 -14 10 -14 15 0 5 -9 22 -20 37 l-19 28 30 29 c27 25
30 34 26 69 -4 38 -57 175 -67 175 -10 0 -70 -156 -70 -183 0 -19 10 -39 30
-57 28 -26 29 -30 18 -57 -15 -33 -33 -49 -110 -103 l-56 -40 -31 42 c-43 59
-58 131 -42 216 23 126 81 213 193 289 81 55 76 55 179 2z"/>
<path d="M1921 3369 c-35 -16 -83 -44 -105 -63 -114 -93 -148 -293 -64 -377
29 -28 36 -30 89 -27 65 3 71 -1 60 -53 -5 -27 -12 -35 -33 -37 -16 -2 -61
-38 -129 -104 l-104 -100 -92 5 c-76 4 -93 3 -93 -9 0 -17 51 -44 84 -44 l26
0 -19 -47 c-40 -103 -56 -235 -56 -463 1 -224 10 -308 60 -570 55 -280 153
-478 246 -497 25 -5 29 -10 29 -39 0 -20 6 -37 16 -42 14 -8 14 -11 -7 -26
-13 -9 -38 -16 -56 -16 -55 0 -71 -74 -22 -101 36 -19 618 -33 982 -23 328 9
329 9 348 33 24 29 24 43 2 68 -17 19 -27 19 -312 10 -282 -9 -295 -8 -308 9
-13 18 -5 19 239 26 139 4 270 12 291 18 35 10 48 32 27 45 -5 3 -10 22 -10
41 0 31 -5 36 -45 56 -25 12 -45 25 -45 29 0 4 28 45 63 91 139 185 233 430
271 707 24 170 20 423 -9 572 -6 34 -5 36 34 54 41 18 53 38 27 48 -21 8 -169
122 -191 147 -11 12 -63 53 -116 91 -71 50 -100 77 -108 100 -14 40 -14 39 3
39 16 0 66 38 66 51 0 11 -50 56 -102 92 -26 17 -54 27 -78 27 -26 0 -49 9
-78 32 -36 28 -42 37 -42 70 0 35 3 39 40 54 44 18 49 32 22 57 -58 53 -211
86 -320 69 -75 -11 -181 -53 -207 -82 -15 -17 -15 -19 7 -34 12 -9 35 -16 50
-16 26 0 28 -3 28 -39 0 -39 0 -39 -72 -70 -40 -16 -126 -47 -190 -68 l-117
-38 -3 -45 c-3 -42 -5 -45 -41 -53 -54 -13 -84 3 -109 60 -16 37 -19 58 -15
103 13 125 75 201 232 285 66 34 35 31 -44 -6z m497 -111 c-3 -46 -6 -53 -25
-56 -21 -3 -23 0 -23 47 0 49 4 54 43 60 4 0 7 -23 5 -51z m136 46 c12 -4 16
-20 16 -55 0 -42 -3 -49 -20 -49 -18 0 -20 7 -20 55 0 30 2 55 4 55 2 0 11 -3
20 -6z m-214 -63 c0 -34 -4 -51 -15 -55 -12 -4 -15 5 -15 49 0 42 3 55 15 55
11 0 15 -12 15 -49z m290 -18 c0 -76 -24 -67 -28 10 -3 48 -1 56 13 51 11 -5
15 -21 15 -61z m-96 -88 c133 -14 188 -26 115 -24 -63 1 -268 25 -275 32 -10
9 0 9 160 -8z m81 -165 c110 -11 203 -20 206 -20 4 0 9 -18 11 -41 l4 -41 -46
6 c-25 3 -141 13 -257 22 l-213 18 0 44 0 44 48 -6 c26 -4 137 -15 247 -26z
m-327 -22 c-3 -40 -5 -42 -53 -58 -74 -25 -314 -75 -321 -67 -4 4 -3 21 2 38
9 32 11 33 179 80 94 26 176 47 183 48 9 1 12 -11 10 -41z m315 -113 c111 -8
214 -17 229 -20 24 -4 227 -114 253 -137 6 -5 -28 7 -75 27 l-85 37 -320 20
c-176 11 -321 21 -323 22 -1 2 1 17 4 34 6 31 8 32 61 32 29 0 145 -7 256 -15z
m-353 -27 c0 -7 -3 -23 -6 -34 -7 -26 -21 -31 -293 -84 -112 -23 -209 -43
-215 -46 -6 -3 12 15 39 41 28 25 66 50 85 55 27 7 343 72 383 79 4 0 7 -5 7
-11z m380 -113 c135 -8 248 -15 253 -15 4 0 7 -8 7 -17 0 -14 41 -31 199 -83
109 -36 193 -66 186 -68 -7 -2 -88 22 -181 53 -184 62 -153 58 -616 81 l-138
7 0 28 c0 35 -29 33 290 14z m-460 -64 c-8 -5 -42 -12 -75 -15 -75 -9 -478
-76 -487 -82 -13 -8 -47 -183 -59 -304 -7 -72 -9 -173 -5 -238 11 -203 59
-490 108 -655 29 -98 32 -77 3 27 -103 375 -127 811 -59 1073 8 31 17 59 19
62 3 2 51 8 107 12 57 5 184 20 283 33 99 14 181 23 184 20 10 -10 -15 -16
-165 -39 -88 -14 -190 -30 -228 -37 l-69 -13 -2 -35 c-1 -19 -9 -87 -19 -150
-15 -92 -17 -153 -13 -300 10 -377 80 -608 241 -792 45 -52 87 -90 106 -96 17
-6 61 -9 98 -7 63 4 64 4 17 -5 -27 -4 -93 -9 -146 -9 -85 -1 -101 -4 -132
-25 l-36 -25 -47 52 c-25 28 -61 81 -80 117 -19 36 -32 54 -28 40 9 -37 51
-109 95 -162 46 -55 49 -67 12 -42 -84 54 -154 216 -206 474 -79 387 -83 764
-10 981 17 51 20 53 68 66 91 23 441 79 515 81 19 1 21 -1 10 -7z m77 -163
c-2 -29 -3 -8 -3 47 0 55 1 79 3 53 2 -26 2 -71 0 -100z m407 79 c171 -10 210
-15 213 -27 3 -10 2 -11 -4 -4 -5 7 -82 14 -208 19 -110 4 -236 11 -280 15
l-80 7 75 1 c41 0 169 -5 284 -11z m-271 -13 l37 -7 0 -85 0 -85 -46 7 c-26 3
-55 6 -65 6 -21 0 -24 25 -13 118 7 57 10 58 87 46z m724 -62 c17 -10 16 -11
-7 -20 -60 -23 -172 -62 -176 -62 -2 0 -4 33 -4 74 l0 75 84 -29 c47 -15 93
-33 103 -38z m-392 40 l120 -7 3 -62 c3 -73 9 -70 -135 -76 -72 -2 -93 0 -93
10 0 7 -7 13 -15 13 -8 0 -15 -7 -15 -15 0 -12 -13 -15 -55 -15 l-55 0 0 85 0
84 63 -5 c34 -3 116 -9 182 -12z m-535 -73 l0 -82 -37 6 c-72 12 -264 78 -270
93 -3 8 -4 17 -1 19 6 6 236 43 276 44 l32 1 0 -81z m697 -26 c-2 -16 -4 -5
-4 22 0 28 2 40 4 28 2 -13 2 -35 0 -50z m-1035 6 c29 -12 98 -36 153 -54
l100 -32 7 -129 c4 -71 7 -196 8 -279 0 -94 6 -174 15 -215 9 -36 20 -123 25
-195 5 -71 12 -152 16 -178 l6 -48 -38 7 c-215 38 -297 220 -313 694 l-8 205
-1 -187 c-2 -193 14 -360 44 -468 45 -158 140 -251 273 -267 55 -6 61 -14 61
-94 0 -55 -7 -59 -86 -59 -70 0 -98 15 -165 87 -97 105 -145 217 -184 428 -50
272 -56 483 -20 684 24 138 20 135 107 100z m1345 -26 c4 -21 8 -141 7 -268 0
-246 -9 -309 -69 -521 -47 -164 -197 -432 -267 -478 -13 -8 -42 -19 -65 -24
l-43 -10 19 27 c67 95 142 293 160 426 30 212 32 568 5 751 l-6 41 119 45 c65
25 121 46 125 47 4 0 11 -16 15 -36z m-341 -140 c10 -126 -3 -435 -26 -595
-32 -230 -72 -360 -135 -442 -34 -45 -116 -86 -172 -86 l-43 0 0 230 c0 192
-3 236 -16 262 -11 21 -18 27 -24 19 -14 -24 -20 83 -20 370 0 186 -4 289 -10
289 -7 0 -10 -203 -10 -590 l0 -590 -34 0 c-32 0 -35 3 -40 38 -12 72 -26 511
-26 835 l0 327 63 0 64 0 6 -315 c6 -295 8 -318 28 -358 31 -62 48 -77 85 -77
24 0 39 9 63 35 37 42 48 83 61 212 14 140 13 142 -20 171 l-30 26 0 158 0
157 78 4 c42 1 93 4 114 5 l36 2 8 -87z m-276 -88 l0 -164 34 -16 c19 -9 36
-24 38 -33 6 -26 -10 -217 -22 -263 -6 -22 -23 -54 -39 -71 -50 -56 -99 -21
-115 81 -4 24 -4 176 0 337 l7 294 49 0 48 0 0 -165z m-390 -40 c0 -122 -4
-195 -10 -195 -6 0 -8 -33 -5 -87 12 -215 13 -287 6 -268 -4 11 -14 96 -21
189 -10 135 -10 170 0 176 8 5 9 13 4 21 -4 8 -7 30 -6 49 1 22 -1 29 -6 18
-4 -9 -7 31 -8 90 0 59 -4 128 -8 155 l-7 47 30 0 31 0 0 -195z m707 13 c-2
-18 -4 -4 -4 32 0 36 2 50 4 33 2 -18 2 -48 0 -65z m42 -348 c-12 -210 -24
-295 -59 -397 -29 -87 -93 -206 -141 -263 l-30 -35 -187 -1 -187 -1 150 6
c140 6 153 8 197 34 158 92 220 318 245 882 l8 180 7 -120 c3 -66 2 -194 -3
-285z m-802 313 c-3 -10 -5 -2 -5 17 0 19 2 27 5 18 2 -10 2 -26 0 -35z m123
-370 c0 -222 14 -582 25 -673 4 -32 3 -40 -4 -29 -26 40 -57 929 -33 929 9 0
12 -62 12 -227z m-73 -320 c-2 -27 -3 -5 -3 47 0 52 1 74 3 48 2 -27 2 -69 0
-95z m240 -100 c-2 -37 -3 -9 -3 62 0 72 1 102 3 68 2 -34 2 -93 0 -130z
m-230 -15 c-3 -7 -5 -2 -5 12 0 14 2 19 5 13 2 -7 2 -19 0 -25z m230 -140 c-2
-13 -4 -3 -4 22 0 25 2 35 4 23 2 -13 2 -33 0 -45z m-203 -127 c3 -4 -22 -11
-56 -15 -84 -8 -283 -8 -274 2 4 4 67 10 139 13 73 3 144 6 159 7 15 1 29 -2
32 -7z m574 -8 c-87 -2 -229 -2 -315 0 -87 1 -16 3 157 3 173 0 244 -2 158 -3z
m202 -93 c10 -6 -108 -10 -341 -10 l-356 0 -28 -40 c-15 -22 -30 -38 -32 -36
-9 8 7 41 32 69 l26 27 342 0 c204 0 348 -4 357 -10z m-847 -7 c-51 -2 -136
-2 -190 0 -54 1 -12 3 92 3 105 0 149 -2 98 -3z m55 -55 c-2 -14 -10 -23 -20
-22 -10 0 -85 1 -168 2 -122 2 -150 5 -150 16 0 22 15 24 183 25 l158 1 -3
-22z"/>
<path d="M1822 2245 c0 -16 2 -22 5 -12 2 9 2 23 0 30 -3 6 -5 -1 -5 -18z"/>
</g>
</svg>