<?xml version="1.0" standalone="no"?>
<!DOCTYPE svg PUBLIC "-//W3C//DTD SVG 20010904//EN"
 "http://www.w3.org/TR/2001/REC-SVG-20010904/DTD/svg10.dtd">
<svg version="1.0" xmlns="http://www.w3.org/2000/svg"
 width="512.000000pt" height="512.000000pt" viewBox="0 0 512.000000 512.000000"
 preserveAspectRatio="xMidYMid meet">
<metadata>
Created by potrace 1.16, written by Peter Selinger 2001-2019
</metadata>
<g transform="translate(0.000000,512.000000) scale(0.100000,-0.100000)"
fill="#000000" stroke="none">
<path d="M2325 4863 c-382 -46 -570 -97 -799 -216 -136 -70 -339 -230 -481
-377 -66 -69 -27 -47 52 29 260 249 599 428 948 499 116 24 367 61 440 65 28
2 10 4 -40 4 -49 0 -103 -2 -120 -4z"/>
<path d="M2615 4860 c28 -4 76 -9 107 -9 31 -1 112 -10 180 -22 246 -41 328
-63 480 -128 251 -107 435 -233 667 -456 57 -55 99 -91 93 -80 -13 25 -163
171 -263 257 -78 67 -241 180 -339 235 -141 80 -397 162 -579 187 -117 16
-431 31 -346 16z"/>
<path d="M2474 4727 c-48 -50 -73 -86 -82 -116 -8 -23 -11 -45 -8 -48 3 -3 8
8 12 23 13 54 34 83 89 124 34 25 55 48 55 60 0 31 11 24 69 -46 56 -67 81
-130 81 -204 0 -20 6 -45 14 -55 12 -17 15 -15 40 27 31 53 32 61 7 53 -23 -7
-39 14 -20 26 12 8 7 13 -12 11 -3 -1 -11 16 -19 36 -17 48 -74 126 -115 157
-17 14 -34 25 -37 25 -3 0 -36 -33 -74 -73z"/>
<path d="M2900 4766 c0 -2 6 -9 14 -15 10 -9 15 -8 20 4 4 10 -1 15 -14 15
-11 0 -20 -2 -20 -4z"/>
<path d="M2960 4754 c0 -8 5 -12 10 -9 6 4 8 11 5 16 -9 14 -15 11 -15 -7z"/>
<path d="M2780 4730 c0 -5 5 -10 10 -10 6 0 10 5 10 10 0 6 -4 10 -10 10 -5 0
-10 -4 -10 -10z"/>
<path d="M2777 4687 c-2 -7 6 -33 18 -57 l23 -45 -5 45 c-2 25 -6 51 -9 58 -5
16 -20 16 -27 -1z"/>
<path d="M2018 4655 c57 -18 119 -43 138 -54 76 -45 87 -18 13 30 -60 38 -133
59 -204 59 l-50 -1 103 -34z"/>
<path d="M2170 4666 c0 -2 7 -6 15 -10 8 -3 15 -1 15 4 0 6 -7 10 -15 10 -8 0
-15 -2 -15 -4z"/>
<path d="M2310 4635 c-6 -8 -10 -19 -8 -26 2 -6 9 0 16 15 13 29 10 33 -8 11z"/>
<path d="M2944 4640 c-12 -5 -25 -14 -29 -20 -4 -7 7 -4 24 4 17 9 31 19 31
21 0 6 1 6 -26 -5z"/>
<path d="M1885 4579 c-20 -18 -40 -40 -46 -51 -10 -19 -9 -19 21 -3 18 9 41
15 51 12 22 -6 24 -3 34 41 9 43 -12 43 -60 1z"/>
<path d="M1961 4562 c0 -47 0 -47 54 -73 l54 -25 12 25 c21 41 22 47 5 27 -13
-16 -19 -17 -28 -8 -10 10 -10 17 0 33 16 26 16 25 -47 49 l-51 20 1 -48z m65
-13 c10 -17 -13 -36 -27 -22 -12 12 -4 33 11 33 5 0 12 -5 16 -11z"/>
<path d="M2480 4596 c0 -8 -6 -21 -14 -28 -34 -35 -50 -84 -52 -168 -3 -77 -2
-80 5 -30 11 70 20 93 65 157 20 29 36 55 36 57 0 3 -9 10 -20 16 -16 8 -20 8
-20 -4z"/>
<path d="M2582 4597 c-8 -9 1 -28 34 -71 50 -67 55 -63 20 17 -28 61 -39 73
-54 54z"/>
<path d="M3052 4591 c-30 -10 -61 -25 -69 -34 -14 -13 -13 -16 6 -26 17 -10
21 -9 21 4 0 18 30 21 30 3 0 -7 5 -5 11 5 15 25 29 21 29 -9 0 -20 -4 -24
-19 -19 -21 6 -46 -18 -38 -39 5 -12 16 -9 59 12 29 15 54 28 56 29 9 4 -12
93 -22 93 -6 -1 -35 -9 -64 -19z"/>
<path d="M3154 4588 c3 -13 6 -26 6 -30 0 -3 18 -9 40 -13 22 -4 52 -16 67
-28 l28 -22 -21 32 c-41 66 -134 112 -120 61z"/>
<path d="M2524 4528 l-19 -23 23 19 c12 11 24 17 25 15 19 -22 104 -163 117
-192 11 -25 20 -35 25 -27 4 6 -8 34 -28 63 -19 29 -51 78 -72 110 -20 31 -40
57 -44 57 -5 0 -16 -10 -27 -22z"/>
<path d="M2830 4538 c0 -9 5 -20 11 -23 17 -11 18 -2 3 19 -12 17 -14 17 -14
4z"/>
<path d="M2311 4496 c-11 -46 -11 -47 30 -101 23 -31 44 -54 46 -52 8 9 -30
155 -47 177 l-17 23 -12 -47z"/>
<path d="M2271 4513 c0 -7 -11 -13 -23 -13 -22 -1 -23 -1 -4 -15 23 -17 40 -6
33 21 -3 11 -5 13 -6 7z"/>
<path d="M2743 4447 c-26 -43 -29 -55 -21 -80 l10 -28 29 33 c21 25 28 44 29
75 0 23 -4 44 -8 47 -4 2 -22 -18 -39 -47z"/>
<path d="M2110 4483 c0 -5 41 -33 91 -63 58 -34 102 -68 119 -92 17 -23 31
-34 35 -28 9 15 -18 53 -57 83 -48 36 -188 110 -188 100z"/>
<path d="M2847 4473 c6 -15 13 -16 31 -4 10 6 7 10 -11 13 -18 4 -24 1 -20 -9z"/>
<path d="M1715 4459 c-16 -17 -17 -22 -5 -29 11 -7 17 -3 22 17 9 35 5 38 -17
12z"/>
<path d="M1940 4467 c0 -8 9 -22 20 -32 11 -10 20 -27 20 -38 0 -17 -5 -19
-41 -14 -36 5 -41 3 -52 -20 -10 -22 -8 -28 12 -44 13 -11 20 -19 17 -19 -4 0
1 -12 10 -26 13 -19 19 -22 25 -12 15 23 10 37 -18 50 -31 15 -45 58 -19 58 9
0 16 -7 16 -15 0 -12 36 -35 55 -35 2 0 17 26 33 59 l29 58 -44 22 c-51 25
-63 26 -63 8z"/>
<path d="M3093 4454 c-43 -25 -43 -25 -28 -55 9 -16 20 -29 25 -29 10 0 70 86
70 101 0 16 -23 10 -67 -17z"/>
<path d="M3381 4444 c0 -11 3 -14 6 -6 3 7 2 16 -1 19 -3 4 -6 -2 -5 -13z"/>
<path d="M1380 4420 c0 -16 4 -30 9 -30 5 0 11 14 13 30 3 20 0 30 -9 30 -8 0
-13 -12 -13 -30z"/>
<path d="M1521 4360 l2 -95 9 83 c7 60 7 87 -1 95 -8 8 -11 -14 -10 -83z"/>
<path d="M1562 4425 c2 -19 7 -23 23 -19 11 2 42 -2 70 -10 72 -22 68 -11 -8
24 -81 36 -87 37 -85 5z"/>
<path d="M2078 4428 c-18 -28 -58 -105 -58 -113 0 -3 4 -5 8 -5 5 0 18 24 31
54 33 81 38 82 108 32 89 -65 103 -87 103 -160 0 -79 13 -100 29 -47 17 58 -4
127 -51 171 -19 17 -141 90 -152 90 -2 0 -10 -10 -18 -22z"/>
<path d="M3478 4421 c-70 -23 -158 -65 -158 -75 0 -1 37 10 83 25 109 36 157
43 157 23 0 -9 -4 -23 -9 -32 -8 -15 13 -179 24 -191 2 -2 1 43 -2 100 -3 61
-1 120 5 142 13 45 14 45 -100 8z"/>
<path d="M3690 4439 c0 -4 7 -9 15 -13 9 -3 15 0 15 8 0 7 -7 13 -15 13 -8 0
-15 -4 -15 -8z"/>
<path d="M1473 4411 c-10 -15 -9 -20 2 -25 11 -4 15 2 15 19 0 30 -2 31 -17 6z"/>
<path d="M2955 4403 c-75 -39 -134 -123 -135 -191 0 -47 16 -31 22 22 3 24 15
57 26 73 24 33 113 86 134 78 19 -8 37 -39 64 -114 14 -38 22 -52 19 -33 -7
47 -71 182 -87 182 -7 -1 -26 -8 -43 -17z"/>
<path d="M2462 4390 c0 -14 2 -19 5 -12 2 6 2 18 0 25 -3 6 -5 1 -5 -13z"/>
<path d="M2845 4391 c-51 -24 -90 -64 -81 -87 5 -12 9 -14 20 -5 7 6 15 10 17
8 2 -1 27 22 55 51 55 55 53 61 -11 33z"/>
<path d="M2491 4364 c-6 -15 -14 -46 -18 -69 -5 -37 -1 -48 27 -86 25 -34 31
-38 27 -19 -4 14 -7 64 -7 113 0 90 -8 106 -29 61z"/>
<path d="M2594 4351 c4 -18 6 -57 6 -85 l0 -51 20 25 c21 28 19 54 -12 110
l-19 35 5 -34z"/>
<path d="M1628 4363 c7 -3 16 -2 19 1 4 3 -2 6 -13 5 -11 0 -14 -3 -6 -6z"/>
<path d="M3154 4350 c1 -8 10 -16 20 -18 11 -3 16 0 11 7 -3 6 -10 9 -15 6 -5
-3 -10 0 -13 7 -2 8 -3 7 -3 -2z"/>
<path d="M1321 4348 c-13 -7 -28 -24 -32 -36 l-9 -24 31 26 c37 31 39 31 67 6
15 -14 35 -20 67 -20 45 0 46 1 43 28 -3 26 -5 27 -73 30 -42 1 -80 -3 -94
-10z"/>
<path d="M1560 4339 c0 -11 5 -17 10 -14 6 3 10 13 10 21 0 8 -4 14 -10 14 -5
0 -10 -9 -10 -21z"/>
<path d="M1685 4348 c17 -6 62 -32 100 -57 86 -57 97 -61 65 -27 -26 29 -153
96 -179 95 -9 0 -2 -5 14 -11z"/>
<path d="M2453 4325 c0 -22 2 -30 4 -17 2 12 2 30 0 40 -3 9 -5 -1 -4 -23z"/>
<path d="M2556 4350 c-6 -15 -25 -203 -21 -208 7 -9 38 14 49 37 10 19 12 40
5 83 -12 73 -25 109 -33 88z"/>
<path d="M3098 4354 c-7 -6 24 -104 33 -104 3 0 15 11 28 24 l22 23 -25 17
c-16 10 -23 22 -20 31 4 10 0 15 -13 15 -11 0 -22 -2 -25 -6z"/>
<path d="M3610 4330 l0 -30 89 0 c50 0 93 5 96 10 11 17 -76 50 -132 50 -52 0
-53 0 -53 -30z"/>
<path d="M3370 4330 c-30 -11 -64 -29 -75 -41 l-20 -20 25 9 c40 16 146 71
135 71 -5 0 -35 -9 -65 -19z"/>
<path d="M2650 4306 c0 -22 3 -27 11 -19 8 8 8 16 0 30 -9 16 -10 14 -11 -11z"/>
<path d="M2105 4270 c-4 -6 -9 -44 -12 -84 -5 -70 -4 -77 36 -163 22 -49 41
-96 42 -104 0 -8 7 3 16 24 13 31 14 46 4 76 -6 21 -11 56 -12 77 0 22 -4 48
-9 59 -14 35 -22 -6 -11 -56 9 -39 8 -42 -5 -25 -15 21 -20 101 -6 110 25 15
52 -42 52 -112 0 -26 4 -51 8 -57 16 -22 32 -13 42 26 6 23 15 52 20 64 6 17
3 31 -16 59 -29 42 -140 121 -149 106z"/>
<path d="M2791 4264 c0 -11 3 -14 6 -6 3 7 2 16 -1 19 -3 4 -6 -2 -5 -13z"/>
<path d="M1365 4260 c-3 -6 4 -10 17 -10 13 0 40 -9 61 -20 l37 -20 0 30 c0
30 -1 30 -54 30 -30 0 -58 -4 -61 -10z"/>
<path d="M3610 4236 l0 -33 48 24 c26 13 57 22 70 20 12 -2 22 -1 22 3 0 13
-29 20 -86 20 l-54 0 0 -34z"/>
<path d="M1524 4236 c-8 -14 -14 -34 -12 -46 2 -16 7 -10 19 24 19 52 17 57
-7 22z"/>
<path d="M3174 4228 l-29 -33 35 30 c19 17 37 31 39 33 2 1 0 2 -5 2 -6 0 -23
-15 -40 -32z"/>
<path d="M2384 4234 c-4 -10 -10 -23 -12 -29 -3 -5 1 -4 10 3 14 11 21 7 52
-31 19 -24 42 -58 50 -77 13 -31 14 -32 21 -11 8 25 -23 75 -80 131 -31 30
-35 32 -41 14z"/>
<path d="M2920 4221 c-25 -16 -56 -40 -68 -54 l-24 -25 17 -77 17 -76 24 22
c16 15 25 37 29 78 8 68 14 91 24 91 4 0 2 -35 -6 -77 -23 -137 -26 -180 -14
-187 7 -5 11 7 12 36 1 49 13 84 51 148 25 42 26 49 16 98 -6 28 -16 52 -22
52 -6 0 -31 -13 -56 -29z"/>
<path d="M3320 4243 c-96 -17 -161 -51 -153 -81 4 -18 8 -17 61 14 31 19 71
40 89 46 18 7 33 16 33 20 0 4 -1 7 -2 7 -2 -1 -14 -4 -28 -6z"/>
<path d="M3521 4239 c-1 -22 31 -126 35 -114 2 6 -5 37 -15 70 -11 33 -20 53
-20 44z"/>
<path d="M1261 4214 c0 -17 -8 -53 -16 -79 -8 -27 -13 -50 -12 -50 1 -1 15 -9
31 -19 l29 -18 -8 48 c-4 27 -11 72 -15 99 -5 35 -8 41 -9 19z"/>
<path d="M2681 4205 c-41 -47 -64 -93 -56 -113 5 -12 9 -10 21 13 25 48 64 95
79 95 8 0 23 -17 34 -37 11 -21 20 -33 21 -27 0 11 -57 104 -64 104 -2 0 -18
-16 -35 -35z"/>
<path d="M1316 4197 c-9 -39 -2 -125 15 -188 8 -34 44 -78 54 -67 3 2 -6 49
-19 104 -13 54 -28 119 -33 144 l-10 45 -7 -38z"/>
<path d="M1360 4211 c0 -34 18 -61 41 -61 11 0 34 -15 51 -32 19 -20 28 -26
24 -15 -3 10 -6 34 -6 52 0 36 -27 61 -80 72 -26 5 -30 3 -30 -16z"/>
<path d="M1547 4195 c-9 -20 -17 -42 -17 -50 0 -18 -16 -20 -23 -2 -3 6 -6
-13 -6 -43 l0 -55 30 65 c29 62 47 120 37 120 -2 0 -12 -16 -21 -35z"/>
<path d="M1874 4223 c3 -6 1 -13 -5 -15 -6 -2 4 -19 22 -38 29 -30 34 -33 37
-16 2 11 -8 30 -28 50 -18 17 -30 26 -26 19z"/>
<path d="M3685 4211 c-22 -10 -45 -24 -52 -32 -11 -14 -14 -89 -4 -89 11 0 33
17 33 26 0 5 17 18 37 29 28 16 37 28 39 53 4 37 1 38 -53 13z"/>
<path d="M3766 4205 c-3 -9 -6 -31 -6 -48 0 -30 -20 -128 -36 -186 l-7 -25 31
22 c17 12 36 38 42 58 22 66 -1 238 -24 179z"/>
<path d="M1630 4203 c0 -5 25 -14 55 -20 73 -16 181 -71 215 -110 21 -23 34
-57 50 -127 12 -53 20 -104 17 -115 -4 -18 -3 -18 25 -2 20 11 27 22 24 36 -3
11 -10 51 -17 89 -10 61 -17 76 -57 118 -56 60 -183 126 -259 135 -31 3 -53 2
-53 -4z"/>
<path d="M3372 4191 c-34 -10 -92 -33 -127 -51 -62 -31 -65 -35 -65 -69 -1
-20 -7 -67 -15 -106 -24 -113 -28 -145 -18 -145 5 0 40 20 78 45 38 25 79 48
92 51 13 4 23 14 24 23 0 9 4 37 8 64 7 45 7 47 -13 41 -12 -3 -54 -27 -94
-54 -62 -42 -70 -45 -54 -22 10 15 24 42 32 60 15 39 56 72 123 101 78 34 100
26 118 -42 6 -23 7 -14 3 31 -5 67 -12 92 -23 91 -3 0 -34 -9 -69 -18z"/>
<path d="M3993 4188 c-12 -15 -35 -80 -30 -84 2 -2 12 -1 24 2 14 4 24 18 31
44 12 48 -2 68 -25 38z"/>
<path d="M959 4173 c-13 -16 -12 -17 4 -4 9 7 17 15 17 17 0 8 -8 3 -21 -13z"/>
<path d="M1180 4130 c0 -22 3 -40 8 -40 4 0 6 18 4 40 -2 22 -6 40 -8 40 -2 0
-4 -18 -4 -40z"/>
<path d="M3844 4115 c-7 -33 -11 -61 -10 -62 0 -1 8 4 17 10 12 9 14 23 10 62
l-6 50 -11 -60z"/>
<path d="M1142 4135 c0 -16 2 -22 5 -12 2 9 2 23 0 30 -3 6 -5 -1 -5 -18z"/>
<path d="M1960 4126 c0 -14 22 -53 53 -92 71 -93 89 -123 82 -134 -3 -6 -3
-10 2 -10 4 0 9 -21 10 -48 1 -43 0 -45 -10 -19 -6 15 -15 27 -20 27 -4 0 -6
4 -3 8 2 4 1 14 -5 22 -6 11 -9 8 -9 -13 0 -15 14 -55 31 -88 17 -34 29 -63
27 -65 -2 -2 -21 19 -41 46 -21 28 -44 50 -52 50 -23 0 -45 -54 -44 -107 0
-26 3 -42 6 -35 8 21 23 13 23 -14 0 -16 -4 -23 -11 -18 -26 16 30 -113 61
-141 18 -16 20 -16 20 -2 0 40 24 121 41 138 13 13 16 25 11 39 -4 11 -1 66 7
122 l15 101 -38 72 c-40 75 -104 158 -137 175 -16 9 -19 7 -19 -14z"/>
<path d="M3041 4096 c-28 -30 -51 -58 -51 -61 0 -3 27 18 60 47 33 29 60 56
60 60 0 18 -20 5 -69 -46z"/>
<path d="M3582 4115 c0 -22 3 -49 8 -60 l9 -20 0 20 c0 11 -4 38 -8 60 l-9 40
0 -40z"/>
<path d="M900 4119 c0 -3 -36 -55 -81 -115 -70 -94 -57 -93 22 2 14 17 35 37
47 43 19 10 24 7 44 -28 20 -35 54 -58 66 -46 2 2 -9 29 -26 59 l-30 56 24 0
c13 0 32 8 42 18 17 17 15 18 -45 17 -35 0 -63 -3 -63 -6z"/>
<path d="M1394 4116 c-3 -8 8 -47 26 -88 30 -72 80 -252 80 -290 0 -21 67 -95
76 -85 3 3 -1 37 -10 76 -9 41 -16 118 -17 188 0 91 -3 112 -11 93 -6 -15 -8
-66 -5 -125 l6 -100 -20 60 c-10 33 -28 87 -39 120 -24 72 -24 76 -5 69 24
-10 17 10 -15 41 -16 16 -30 35 -30 42 0 18 -29 17 -36 -1z"/>
<path d="M1630 4106 c0 -18 21 -35 89 -71 33 -18 65 -44 78 -65 26 -41 57 -73
98 -103 l29 -21 -39 69 c-55 100 -74 124 -123 152 -60 35 -132 56 -132 39z"/>
<path d="M2772 4095 c-7 -14 -13 -56 -13 -93 l-1 -67 -9 60 c-5 33 -10 66 -11
74 -2 7 -14 -5 -26 -28 -23 -40 -23 -45 -11 -107 l13 -64 53 54 c59 60 64 81
34 154 l-17 43 -12 -26z"/>
<path d="M3677 4100 c4 -16 -2 -23 -26 -31 -36 -13 -39 -44 -4 -44 29 0 36
-10 18 -25 -12 -10 -18 -10 -30 0 -13 11 -15 3 -15 -61 0 -85 -30 -182 -79
-257 -16 -25 -28 -48 -26 -51 8 -8 56 30 123 97 37 37 90 79 117 92 28 14 52
26 54 28 3 1 0 7 -5 12 -7 7 -25 0 -55 -21 l-44 -32 45 48 c25 25 58 53 73 61
26 14 31 14 55 -2 24 -16 26 -16 13 -1 -11 15 -11 17 2 17 25 0 47 -11 41 -21
-3 -5 -3 -9 0 -9 9 0 56 74 56 87 0 30 -111 14 -196 -30 -58 -29 -97 -70 -155
-163 -22 -35 -42 -64 -44 -64 -1 0 15 48 37 108 53 144 88 252 88 268 0 8 -10
14 -24 14 -19 0 -23 -4 -19 -20z"/>
<path d="M3903 4100 c-11 -16 -10 -18 2 -14 8 4 15 12 15 20 0 19 -3 18 -17
-6z"/>
<path d="M4040 4111 c0 -11 50 -21 101 -21 l39 0 -30 -60 c-31 -62 -26 -78 12
-35 12 14 30 25 39 25 17 0 73 -59 75 -80 1 -5 3 -31 4 -57 3 -39 4 -42 7 -15
7 55 33 41 83 -43 14 -24 38 -62 53 -85 16 -23 27 -44 25 -46 -2 -2 -25 8 -51
21 -95 51 -216 68 -282 41 -43 -18 -61 -48 -70 -115 l-7 -54 32 7 c18 3 36 6
41 6 5 0 9 21 9 46 0 44 -1 46 -25 40 -35 -9 -31 9 4 24 30 12 56 6 46 -11
-13 -20 13 -8 28 14 l16 22 0 -25 c1 -14 -5 -34 -12 -45 -29 -42 -27 -51 9
-47 25 3 38 12 54 39 13 22 26 33 38 31 20 -4 28 -43 12 -62 -8 -11 -5 -15 16
-20 19 -5 30 -3 36 8 4 8 31 22 60 32 l52 17 20 -26 c12 -15 32 -41 46 -58 14
-18 39 -59 57 -93 18 -34 32 -58 33 -53 2 33 -197 369 -319 540 -50 70 -91
131 -91 137 0 6 -32 10 -80 10 -44 0 -80 -4 -80 -9z"/>
<path d="M3117 4103 c-4 -3 -7 -24 -7 -46 0 -22 -13 -78 -29 -126 -16 -47 -31
-97 -33 -111 -5 -37 -33 -37 -48 0 -16 38 1 86 61 179 22 34 39 69 37 78 -5
27 -98 -73 -136 -145 -31 -59 -33 -65 -21 -100 7 -20 13 -71 13 -112 l1 -76
33 56 c18 30 51 72 72 92 22 21 40 41 40 45 0 5 7 66 15 137 15 127 15 143 2
129z"/>
<path d="M2318 4083 c-48 -55 -48 -85 0 -137 20 -23 47 -55 59 -72 l22 -29 0
84 c1 73 -2 90 -24 128 -29 48 -35 51 -57 26z"/>
<path d="M2577 4038 c5 -24 8 -71 8 -105 -1 -44 3 -64 13 -68 9 -3 12 -14 7
-35 -8 -37 1 -37 44 -1 l35 29 -18 63 c-16 60 -71 159 -89 159 -4 0 -4 -19 0
-42z"/>
<path d="M2504 4045 c-27 -38 -52 -97 -65 -153 -9 -40 -7 -44 18 -66 l27 -24
28 37 c29 38 35 91 20 191 l-7 45 -21 -30z"/>
<path d="M1043 3956 c28 -58 57 -106 64 -106 21 0 16 14 -38 102 -28 46 -54
87 -57 92 -10 18 172 0 221 -22 59 -26 61 -20 5 10 -34 17 -65 23 -145 26
l-101 4 51 -106z"/>
<path d="M3887 4036 c-21 -8 -42 -18 -45 -22 -4 -4 2 -4 13 1 25 10 235 20
235 10 0 -7 -54 -101 -85 -149 -16 -23 -16 -26 -1 -26 9 0 28 22 44 51 15 28
41 72 57 98 l30 46 -105 2 c-70 2 -118 -2 -143 -11z"/>
<path d="M1080 3997 c0 -23 12 -27 26 -9 10 13 15 14 25 5 16 -16 3 -47 -17
-39 -14 5 -15 4 -4 -9 7 -9 21 -13 31 -10 10 4 33 0 51 -8 18 -9 46 -18 62
-22 17 -3 59 -37 105 -83 113 -112 116 -113 70 -26 -51 98 -119 165 -194 193
-64 24 -155 29 -155 8z"/>
<path d="M3527 3980 c-3 -19 -8 -75 -11 -125 -6 -100 -41 -224 -59 -206 -7 7
-6 32 1 80 14 85 15 141 2 161 -7 11 -10 -3 -10 -46 0 -90 -37 -199 -98 -284
-16 -23 -14 -22 28 7 25 16 56 34 70 38 14 4 31 12 38 17 8 7 12 7 12 -1 0 -6
16 -11 35 -11 19 0 35 4 35 10 0 5 -13 7 -29 4 -39 -8 -44 6 -23 58 10 23 25
65 32 92 12 44 12 50 -3 61 -13 10 -17 27 -16 81 l1 69 13 -50 c10 -39 13 -43
13 -20 0 17 -5 46 -13 65 l-12 35 -6 -35z"/>
<path d="M4014 3978 c-3 -13 -22 -45 -42 -73 -19 -27 -27 -43 -17 -35 18 14
85 113 85 125 0 15 -20 2 -26 -17z"/>
<path d="M953 3952 c-59 -3 -77 -19 -67 -56 8 -32 30 -29 26 2 -4 29 13 28 43
-3 37 -37 32 -53 -17 -58 -42 -3 -42 -4 7 -5 28 0 66 2 85 6 l35 7 -30 55 -30
55 -52 -3z"/>
<path d="M2246 3942 c-2 -4 11 -21 31 -36 40 -33 65 -83 56 -116 -4 -16 -3
-21 5 -16 17 11 15 68 -5 96 -22 34 -65 80 -74 80 -4 0 -10 -4 -13 -8z"/>
<path d="M4105 3934 c-8 -9 -24 -33 -35 -54 l-20 -38 30 -7 c41 -9 67 1 74 30
7 29 50 44 78 26 16 -10 18 -8 18 14 0 18 -7 28 -26 35 -39 15 -101 12 -119
-6z"/>
<path d="M2819 3910 c-9 -5 -32 -29 -52 -54 l-37 -44 19 -42 19 -42 7 41 c4
23 22 64 40 91 33 49 34 67 4 50z"/>
<path d="M824 3880 c-6 -20 -7 -37 -2 -39 15 -5 20 6 16 41 l-4 33 -10 -35z"/>
<path d="M1184 3886 c-6 -17 2 -36 17 -36 12 0 12 37 -1 45 -6 3 -13 -1 -16
-9z"/>
<path d="M3866 3884 c-9 -23 -8 -24 14 -24 23 0 26 13 6 29 -11 9 -15 8 -20
-5z"/>
<path d="M3269 3861 c-88 -59 -85 -53 -70 -124 16 -74 16 -70 7 -129 -7 -43
-5 -48 12 -48 21 0 32 -18 32 -51 0 -32 14 -22 47 34 54 90 114 307 85 307 -5
0 -42 -41 -82 -91 -39 -50 -74 -88 -77 -85 -7 7 49 98 94 153 22 27 28 40 17
36 -13 -5 -16 -3 -11 10 9 24 -3 21 -54 -12z"/>
<path d="M1252 3868 c5 -14 65 -58 80 -58 4 0 -9 16 -31 35 -40 37 -55 44 -49
23z"/>
<path d="M1694 3859 c-12 -14 -19 -35 -19 -63 1 -52 14 -104 23 -89 11 17 54
-23 58 -52 2 -22 0 -24 -19 -14 -12 6 -4 -6 18 -27 22 -21 54 -54 72 -72 l32
-34 16 32 c16 31 19 32 61 27 24 -2 44 -3 44 -2 0 1 -13 32 -30 68 -34 75
-113 174 -172 218 -49 35 -59 36 -84 8z"/>
<path d="M1876 3793 c24 -35 44 -70 45 -76 1 -22 18 27 18 55 1 29 -43 70 -86
80 -18 5 -15 -3 23 -59z"/>
<path d="M1594 3835 c-8 -20 4 -149 16 -181 5 -13 16 -24 24 -24 8 0 16 -3 18
-7 9 -22 61 -56 95 -63 35 -8 37 -8 18 6 -11 9 -41 26 -67 40 -42 21 -49 30
-63 76 -8 28 -15 75 -15 104 0 53 -15 80 -26 49z"/>
<path d="M4175 3840 c-3 -5 3 -10 14 -10 12 0 21 5 21 10 0 6 -6 10 -14 10 -8
0 -18 -4 -21 -10z"/>
<path d="M2206 3824 c-3 -9 -6 -53 -6 -99 0 -81 0 -83 28 -94 16 -7 43 -25 60
-40 17 -16 33 -27 35 -24 8 8 -4 167 -15 196 -12 30 -62 77 -83 77 -7 0 -16
-7 -19 -16z"/>
<path d="M2842 3806 c-40 -46 -54 -95 -50 -174 l3 -63 50 38 c82 63 78 55 65
132 -6 38 -17 77 -24 86 -11 15 -15 14 -44 -19z"/>
<path d="M806 3810 c-27 -11 -54 -25 -60 -31 -7 -7 -2 -7 14 2 14 7 50 20 80
30 30 9 46 17 35 18 -11 0 -42 -9 -69 -19z"/>
<path d="M1198 3823 c7 -3 16 -2 19 1 4 3 -2 6 -13 5 -11 0 -14 -3 -6 -6z"/>
<path d="M1017 3790 c3 -11 10 -23 16 -27 7 -4 8 0 4 11 -4 10 -7 22 -7 27 0
5 -4 9 -9 9 -5 0 -7 -9 -4 -20z"/>
<path d="M2526 3791 c-14 -16 -15 -23 -6 -41 l11 -21 21 26 c32 42 9 75 -26
36z"/>
<path d="M3840 3799 c-61 -12 -138 -51 -186 -95 -23 -21 -31 -33 -19 -28 11 4
47 16 80 28 33 12 65 26 70 33 17 21 67 34 152 40 67 5 83 3 84 -8 0 -8 4 -5
8 6 6 15 3 21 -13 27 -30 9 -123 7 -176 -3z"/>
<path d="M4071 3778 c-15 -41 -8 -45 18 -12 24 31 27 44 7 44 -8 0 -19 -14
-25 -32z"/>
<path d="M2629 3775 c-58 -43 -60 -49 -34 -124 12 -37 30 -82 40 -101 11 -22
15 -45 11 -69 l-6 -36 26 45 c14 25 33 53 41 62 22 24 14 184 -10 222 -21 32
-25 32 -68 1z m76 -78 c4 -13 5 -48 3 -78 -3 -46 -6 -54 -24 -57 -44 -6 -59
115 -17 145 24 18 32 16 38 -10z"/>
<path d="M1130 3781 c8 -5 40 -14 70 -21 30 -7 82 -25 115 -40 33 -15 78 -33
100 -40 22 -7 54 -22 70 -32 27 -18 27 -17 -5 12 -45 40 -157 94 -241 114 -71
17 -135 21 -109 7z"/>
<path d="M2374 3755 c-19 -46 -19 -181 0 -188 12 -5 12 0 5 26 -16 58 -3 177
21 177 4 0 6 -9 3 -19 -3 -11 4 -45 16 -76 22 -59 27 -110 12 -120 -6 -3 -2
-23 9 -48 11 -23 20 -54 20 -69 0 -16 8 -31 19 -37 18 -10 18 -9 5 36 -19 62
-18 86 7 144 19 44 20 55 10 89 -12 41 -78 120 -100 120 -7 0 -19 -16 -27 -35z"/>
<path d="M3100 3759 c-51 -31 -79 -59 -101 -101 -17 -34 -18 -39 -3 -74 21
-50 22 -141 2 -179 -22 -42 -31 -75 -21 -75 5 0 20 25 32 55 16 39 40 71 83
109 58 53 60 56 65 114 6 63 -4 172 -15 172 -4 0 -23 -10 -42 -21z m10 -159
c0 -5 -4 -10 -10 -10 -5 0 -10 5 -10 10 0 6 5 10 10 10 6 0 10 -4 10 -10z"/>
<path d="M835 3756 c-27 -7 -82 -27 -122 -44 -77 -35 -90 -37 -95 -22 -2 6
-11 -2 -20 -18 -17 -29 -17 -29 7 -24 28 5 118 -14 158 -35 15 -8 37 -11 47
-8 16 5 18 10 9 26 -14 27 -2 59 21 59 11 0 27 -12 37 -27 22 -36 33 -43 62
-43 20 0 22 3 16 23 -4 12 -9 34 -12 50 -5 25 -3 27 25 27 17 0 38 -3 46 -6
14 -5 13 -10 -9 -30 -44 -41 -32 -75 33 -92 42 -10 44 -10 38 11 -3 12 -11 48
-17 80 -7 35 -18 61 -29 67 -30 16 -143 20 -195 6z"/>
<path d="M971 3694 c0 -11 3 -14 6 -6 3 7 2 16 -1 19 -3 4 -6 -2 -5 -13z"/>
<path d="M3832 3699 c-80 -10 -127 -25 -172 -54 -32 -20 -37 -30 -54 -106 -11
-46 -28 -108 -38 -138 -10 -30 -16 -56 -13 -59 2 -3 37 15 77 39 84 49 172
134 207 198 l24 44 -47 -6 c-26 -4 -75 -18 -109 -32 -34 -15 -69 -29 -77 -32
-9 -4 -6 4 8 19 12 13 22 29 22 35 0 20 52 53 79 51 29 -1 143 27 169 42 20
11 16 11 -76 -1z"/>
<path d="M2547 3670 c-3 -11 -1 -20 4 -20 5 0 9 9 9 20 0 11 -2 20 -4 20 -2 0
-6 -9 -9 -20z"/>
<path d="M2741 3631 c-1 -47 2 -62 10 -54 8 8 8 27 1 64 l-10 54 -1 -64z"/>
<path d="M1439 3635 c45 -21 52 -29 48 -46 -3 -12 -1 -33 4 -46 5 -14 8 -27 6
-30 -2 -2 -35 15 -72 36 -38 22 -95 49 -127 60 l-58 20 19 -37 c11 -20 42 -54
70 -75 32 -23 53 -47 57 -65 10 -45 13 -52 25 -52 6 0 9 7 5 15 -3 8 -3 22 1
31 5 12 9 8 17 -17 8 -23 26 -44 60 -66 65 -44 32 -43 -61 1 l-71 34 10 -32
c10 -30 14 -32 80 -43 39 -6 82 -20 97 -30 14 -11 44 -23 66 -27 l40 -8 -26
29 c-39 41 -64 97 -93 204 -13 52 -28 102 -31 111 -7 16 -83 58 -107 58 -7 0
11 -11 41 -25z"/>
<path d="M3902 3613 c-10 -16 -35 -55 -55 -89 -39 -65 -124 -152 -175 -178
-47 -24 -50 -19 -6 12 21 16 46 37 54 48 14 18 14 18 -5 3 -30 -25 -126 -76
-155 -82 -14 -4 -41 -22 -60 -42 l-34 -35 26 0 c14 0 52 14 83 30 38 20 72 30
100 30 41 0 45 3 85 58 58 80 170 253 170 264 0 14 -8 9 -28 -19z"/>
<path d="M606 3535 c2 -44 7 -96 9 -116 3 -25 0 -41 -10 -49 -8 -7 -15 -17
-15 -23 0 -6 6 -3 13 7 7 10 25 19 40 19 35 2 34 11 -8 138 l-34 104 5 -80z"/>
<path d="M900 3600 c-72 -12 -220 -90 -171 -90 5 0 34 13 64 29 31 16 81 35
111 42 31 7 56 16 56 21 0 4 -3 7 -7 7 -5 -1 -28 -5 -53 -9z"/>
<path d="M1635 3576 c56 -53 47 -77 -19 -50 -14 5 -17 4 -12 -5 4 -6 10 -33
12 -59 7 -73 61 -180 108 -214 21 -15 41 -26 44 -24 2 3 -14 56 -38 117 -29
78 -42 130 -44 171 l-2 59 -42 19 -43 19 36 -33z"/>
<path d="M1190 3598 c0 -4 15 -42 34 -85 19 -43 44 -106 56 -140 13 -35 27
-63 32 -63 6 0 8 6 5 13 -3 6 -28 64 -54 127 -48 113 -72 162 -73 148z"/>
<path d="M2160 3591 c15 -4 20 -10 13 -14 -6 -4 -18 -4 -26 -1 -17 6 -37 -47
-37 -99 0 -38 40 -129 54 -124 6 3 9 11 7 18 -3 8 -6 50 -9 95 -3 66 -1 84 13
97 24 25 43 21 81 -17 19 -19 34 -28 34 -22 0 32 -82 78 -135 75 -16 -1 -15
-2 5 -8z"/>
<path d="M4209 3585 c35 -8 92 -28 128 -44 36 -17 63 -25 61 -18 -10 28 -147
77 -212 76 -38 -1 -36 -2 23 -14z"/>
<path d="M2525 3560 c-17 -34 -19 -50 -5 -50 6 0 10 8 10 18 0 10 6 26 13 36
12 16 15 15 29 -21 24 -56 26 -66 16 -86 -12 -24 23 -72 41 -54 6 6 11 18 11
27 0 13 -2 13 -11 0 -8 -12 -9 -10 -4 7 13 47 -36 153 -70 153 -8 0 -21 -13
-30 -30z"/>
<path d="M3965 3508 c-10 -46 -26 -95 -36 -110 -10 -15 -15 -29 -10 -32 12 -8
47 78 61 152 19 94 6 85 -15 -10z"/>
<path d="M2858 3560 c-28 -15 -35 -24 -31 -40 3 -11 7 -20 8 -20 2 0 19 16 39
36 67 67 99 20 74 -105 -15 -73 -7 -105 13 -54 19 46 17 145 -4 176 -21 32
-47 34 -99 7z"/>
<path d="M951 3559 c-59 -10 -135 -41 -163 -66 -16 -14 -16 -18 -2 -51 l15
-36 -24 22 c-30 28 -37 28 -37 -4 0 -14 4 -22 10 -19 18 11 33 -40 20 -66 -7
-13 17 5 51 40 35 34 82 72 104 84 46 23 175 37 175 18 0 -6 -17 -11 -40 -11
-61 0 -141 -35 -185 -81 l-40 -41 60 41 c63 42 140 69 168 58 26 -10 22 -56
-5 -67 -19 -7 -16 -9 21 -9 33 -1 42 -4 38 -15 -3 -8 1 -17 9 -20 33 -13 8
-23 -70 -29 -95 -8 -224 -43 -209 -58 6 -6 35 -4 79 7 138 32 244 -5 244 -85
0 -35 4 -40 50 -65 59 -32 66 -43 13 -20 -76 34 -152 58 -159 52 -8 -9 15 -68
27 -68 4 0 26 -31 49 -69 22 -39 54 -80 71 -91 44 -32 27 -37 -24 -6 -58 33
-129 113 -161 179 -22 45 -25 48 -26 24 0 -39 25 -93 68 -146 20 -25 39 -47
42 -49 3 -1 47 -32 98 -68 87 -61 96 -65 132 -59 22 4 54 4 71 0 24 -6 30 -11
26 -27 -4 -14 -2 -18 10 -14 8 3 21 6 29 6 10 0 3 16 -21 51 -19 28 -35 55
-35 58 0 4 -27 15 -59 24 -32 9 -74 29 -91 44 -45 37 -90 102 -90 127 1 16 5
13 20 -15 24 -46 32 -51 113 -84 38 -15 80 -33 93 -40 17 -9 36 -10 62 -4 51
12 129 11 137 -1 4 -6 -7 -10 -25 -10 l-31 0 18 -24 18 -24 38 20 c21 10 63
22 94 26 l57 7 -38 25 c-39 26 -76 84 -76 119 0 11 10 32 23 46 17 21 32 27
69 28 l47 2 -22 24 c-27 29 -114 71 -147 70 -28 0 -94 -27 -69 -28 20 -1 39
-80 39 -161 l0 -58 45 -18 c25 -9 45 -21 45 -27 0 -13 -77 0 -120 21 -86 42
-115 206 -51 293 l20 27 -22 6 c-12 3 -40 6 -62 5 l-40 0 28 -15 c25 -13 27
-20 26 -64 -3 -68 -24 -66 -99 8 -49 50 -61 57 -79 48 -19 -8 -31 -39 -13 -34
20 5 53 -17 89 -60 47 -56 63 -84 63 -111 0 -13 14 -30 39 -45 53 -34 59 -46
16 -36 -85 19 -202 122 -244 215 -25 58 -34 74 -78 148 -18 29 -46 94 -62 143
l-29 89 -38 2 c-22 0 -63 -3 -93 -8z m-56 -59 c17 -19 17 -22 3 -37 -30 -29
-74 10 -48 42 16 20 23 19 45 -5z"/>
<path d="M4026 3533 c-4 -16 -9 -35 -12 -44 -4 -13 7 -16 68 -16 40 0 85 -5
99 -11 24 -10 26 -9 22 9 -6 23 13 49 37 49 26 0 33 -29 15 -57 -15 -23 -14
-25 37 -72 l52 -48 22 45 c20 41 22 43 26 22 2 -19 9 -10 30 43 26 67 23 87
-6 45 -9 -12 -16 -31 -16 -41 0 -10 -4 -15 -10 -12 -8 5 -42 -39 -54 -70 -2
-5 -6 -7 -10 -4 -4 4 3 28 16 54 l23 47 -29 23 c-46 37 -146 65 -230 65 -72 0
-74 -1 -80 -27z"/>
<path d="M2233 3511 c7 -20 8 -46 1 -84 l-10 -55 34 -10 c32 -10 34 -10 28 11
-3 12 -6 46 -6 75 0 39 -5 57 -20 72 -29 29 -40 25 -27 -9z"/>
<path d="M2881 3512 c-31 -25 -34 -33 -36 -88 l-2 -60 32 4 c32 4 33 6 40 57
3 31 2 62 -4 73 -7 13 -7 22 1 30 22 22 2 12 -31 -16z"/>
<path d="M3520 3484 c-33 -59 -33 -59 -41 -30 -19 70 -76 91 -142 53 -54 -32
-72 -53 -90 -104 l-14 -41 68 1 c92 1 123 -28 84 -79 -20 -26 -19 -34 5 -34
26 0 72 23 91 46 13 16 12 16 -18 1 -18 -10 -34 -17 -37 -17 -10 0 76 121 89
126 15 6 49 108 42 127 -2 6 -18 -16 -37 -49z"/>
<path d="M676 3498 c9 -17 22 -47 29 -67 l14 -36 0 38 c1 39 -13 76 -33 89
-23 15 -26 7 -10 -24z"/>
<path d="M2745 3520 c3 -5 8 -10 11 -10 2 0 4 5 4 10 0 6 -5 10 -11 10 -5 0
-7 -4 -4 -10z"/>
<path d="M1740 3485 c0 -19 7 -53 16 -75 14 -35 20 -40 49 -40 19 0 46 -5 61
-10 23 -9 25 -9 15 4 -7 8 -15 39 -18 70 -6 55 -6 55 -51 71 -66 22 -72 20
-72 -20z"/>
<path d="M1937 3463 c-16 -56 -16 -59 1 -82 24 -33 48 -42 33 -13 -15 27 -14
85 1 100 7 7 19 12 28 12 22 0 74 -50 109 -105 16 -25 32 -42 35 -37 15 25
-138 182 -179 182 -6 0 -18 -26 -28 -57z"/>
<path d="M2709 3503 c-13 -16 -12 -17 4 -4 16 13 21 21 13 21 -2 0 -10 -8 -17
-17z"/>
<path d="M3197 3499 c4 -13 8 -18 11 -10 2 7 -1 18 -6 23 -8 8 -9 4 -5 -13z"/>
<path d="M2413 3467 c5 -26 15 -47 20 -47 5 0 6 7 3 16 -3 9 -6 21 -6 28 0 7
-6 21 -14 32 -13 17 -13 13 -3 -29z"/>
<path d="M2517 3483 c-18 -21 -12 -73 9 -73 10 0 14 13 14 45 0 25 -2 45 -3
45 -2 0 -11 -8 -20 -17z"/>
<path d="M3112 3465 c-46 -40 -115 -147 -110 -170 2 -11 18 -2 57 35 50 47 81
62 81 40 0 -5 13 -10 29 -10 21 0 30 6 35 23 9 35 7 47 -8 41 -21 -8 -48 26
-43 53 2 12 3 23 2 23 -1 0 -20 -16 -43 -35z"/>
<path d="M2344 3422 l0 -69 23 34 c22 32 22 34 6 68 -9 19 -20 35 -23 35 -4 0
-7 -31 -6 -68z"/>
<path d="M2737 3484 c-4 -4 -16 -7 -28 -8 -15 -1 -25 -10 -32 -29 -11 -33 -11
-33 29 -41 30 -7 31 -6 38 35 7 42 5 54 -7 43z"/>
<path d="M4456 3434 c-10 -31 -16 -56 -14 -57 35 -18 43 -28 46 -58 3 -46 -11
-64 -49 -64 -30 0 -32 -3 -50 -61 -23 -74 -83 -169 -149 -235 -27 -27 -46 -50
-42 -53 25 -13 103 -14 146 -1 57 17 66 18 66 6 0 -5 -21 -17 -46 -27 l-47
-18 32 -15 c29 -14 35 -14 58 -1 33 19 48 43 40 64 -6 15 -18 17 -81 14 -85
-3 -90 5 -12 23 73 16 161 4 191 -25 l23 -23 6 28 c12 63 -38 119 -107 119
-29 0 -52 -9 -86 -34 -122 -88 -88 -41 63 87 61 53 89 96 84 130 -3 17 -7 12
-18 -20 -14 -47 -46 -86 -63 -80 -18 6 -19 25 -2 23 10 0 24 10 33 24 16 25
16 25 -4 8 -11 -10 -24 -18 -27 -18 -13 0 -7 29 9 45 9 9 27 31 39 49 20 29
21 36 10 63 -7 17 -23 37 -35 46 -21 15 -21 17 -6 32 13 13 24 85 13 85 -2 0
-11 -25 -21 -56z"/>
<path d="M2300 3419 c0 -35 5 -71 10 -79 6 -10 7 11 3 60 -7 94 -13 103 -13
19z"/>
<path d="M2780 3454 c0 -14 -5 -35 -11 -46 -12 -23 4 -74 20 -64 12 8 22 82
15 111 -8 33 -24 32 -24 -1z"/>
<path d="M4000 3443 c0 -5 28 -9 63 -9 68 0 151 -24 194 -57 28 -21 28 -21 10
0 -30 35 -115 66 -194 71 -43 3 -73 1 -73 -5z"/>
<path d="M1990 3408 c0 -47 12 -68 36 -68 13 0 39 -14 59 -31 19 -17 35 -26
35 -20 0 24 -40 89 -70 115 -39 32 -60 33 -60 4z"/>
<path d="M3945 3357 l-28 -39 24 8 c49 18 200 10 276 -15 111 -36 110 -34 73
-115 -17 -38 -29 -71 -26 -73 2 -2 20 23 40 56 31 50 35 64 26 81 -23 42 -153
90 -247 90 -29 0 -52 3 -52 8 4 22 -4 30 -29 34 -24 3 -33 -2 -57 -35z"/>
<path d="M512 3302 c-22 -78 -26 -120 -16 -157 4 -18 13 -20 67 -20 l62 0 -38
34 c-61 55 -83 111 -53 135 17 13 25 77 11 83 -6 1 -20 -32 -33 -75z"/>
<path d="M2408 3359 c-10 -5 -18 -18 -18 -27 0 -13 3 -12 16 6 8 12 22 22 30
22 16 0 19 -16 4 -25 -5 -3 -10 -31 -10 -61 0 -50 2 -54 24 -54 44 0 56 10 56
47 0 76 -51 122 -102 92z"/>
<path d="M2634 3356 c-51 -22 -74 -126 -31 -134 17 -3 19 2 15 57 -3 61 -3 61
29 72 64 21 91 -24 58 -96 l-13 -30 -1 53 c-1 76 -30 64 -46 -19 l-7 -36 47
-12 c26 -7 50 -10 52 -7 3 3 8 26 11 51 6 53 -9 88 -45 104 -29 14 -31 13 -69
-3z"/>
<path d="M651 3351 c-12 -8 -12 -14 -2 -39 13 -31 36 -48 45 -33 7 10 -13 81
-22 81 -4 0 -13 -4 -21 -9z"/>
<path d="M940 3340 c0 -5 5 -10 10 -10 6 0 10 5 10 10 0 6 -4 10 -10 10 -5 0
-10 -4 -10 -10z"/>
<path d="M1913 3336 c20 -16 25 -96 5 -96 -9 0 -9 -3 1 -9 12 -8 19 2 33 42
10 28 18 52 18 53 0 3 -62 24 -69 24 -3 0 2 -7 12 -14z"/>
<path d="M4429 3323 c-17 -44 4 -70 31 -38 14 16 6 65 -10 65 -6 0 -15 -12
-21 -27z"/>
<path d="M870 3320 c-51 -22 -46 -26 11 -8 22 6 39 15 39 20 0 10 4 11 -50
-12z"/>
<path d="M3868 3311 c-7 -14 -17 -29 -23 -33 -6 -5 -4 -8 5 -8 8 0 25 15 36
33 16 24 18 34 9 34 -7 0 -19 -12 -27 -26z"/>
<path d="M610 3300 c0 -39 23 -80 45 -80 14 0 33 -46 23 -55 -5 -6 -69 55 -90
85 l-17 25 0 -24 c-1 -32 70 -101 162 -159 38 -23 67 -39 65 -35 -2 5 -17 35
-35 68 -17 33 -36 79 -42 101 -10 37 -13 40 -40 36 -26 -4 -32 1 -50 34 l-20
39 -1 -35z"/>
<path d="M2810 3310 l-25 -21 32 15 c40 20 70 20 108 0 28 -14 29 -14 14 2
-27 26 -99 29 -129 4z"/>
<path d="M3163 3317 c-12 -16 9 -109 22 -99 17 12 18 99 1 105 -8 3 -19 0 -23
-6z"/>
<path d="M2252 3313 c14 -4 30 -31 64 -110 6 -15 13 -20 22 -14 10 6 9 17 -7
53 -20 47 -54 79 -81 77 -12 -1 -12 -2 2 -6z"/>
<path d="M2541 3268 c0 -33 2 -38 9 -23 12 28 12 65 0 65 -5 0 -10 -19 -9 -42z"/>
<path d="M2182 3277 c-26 -27 -28 -62 -6 -97 10 -16 13 -18 8 -5 -16 47 -15
71 5 95 l20 25 -6 -38 c-6 -39 13 -117 29 -117 5 0 22 7 39 15 29 15 29 16 14
51 -20 48 -54 94 -69 94 -7 0 -22 -10 -34 -23z"/>
<path d="M3943 3281 c-24 -11 -43 -25 -43 -32 0 -21 -107 -145 -157 -181 -26
-20 -69 -44 -94 -55 -25 -11 -56 -34 -67 -51 -13 -18 -31 -30 -44 -30 -60 -1
-191 -12 -199 -18 -6 -3 27 -22 73 -41 67 -28 95 -35 143 -33 33 1 64 5 69 10
13 13 -36 30 -84 30 -21 0 -42 5 -45 10 -5 7 21 10 77 8 79 -3 83 -4 86 -27 2
-13 -1 -28 -7 -34 -6 -6 -11 -15 -11 -20 0 -20 81 7 210 71 126 61 139 70 182
126 25 34 49 75 53 91 l6 30 -18 -22 c-10 -11 -31 -37 -46 -57 -16 -20 -45
-47 -65 -60 -41 -27 -109 -45 -98 -27 4 6 15 11 25 11 9 0 36 14 59 31 l42 31
-29 24 c-22 18 -41 24 -82 25 l-54 1 50 12 c28 7 75 23 105 37 30 14 66 31 80
37 20 9 8 11 -70 12 -89 2 -93 2 -65 15 17 8 40 14 51 15 12 0 35 7 50 15 33
17 137 20 199 5 28 -6 42 -6 47 3 12 19 -96 48 -197 53 -75 4 -97 2 -132 -15z
m-59 -279 c-56 -70 -222 -127 -232 -80 -2 12 5 19 25 24 81 18 183 57 203 79
35 37 38 20 4 -23z"/>
<path d="M2010 3279 c0 -26 15 -34 62 -34 46 0 47 1 30 18 -24 23 -92 35 -92
16z"/>
<path d="M2354 3268 c3 -13 6 -33 6 -45 0 -24 7 -28 28 -14 11 6 10 15 -4 44
-19 41 -40 50 -30 15z"/>
<path d="M2804 3256 c-19 -19 -34 -43 -34 -55 0 -24 41 -52 48 -32 2 6 17 36
33 66 28 53 29 55 8 55 -12 0 -36 -15 -55 -34z"/>
<path d="M3028 3274 c-36 -19 -35 -25 1 -18 18 4 42 0 61 -9 27 -14 32 -14 37
-1 16 42 -43 59 -99 28z"/>
<path d="M770 3252 c0 -38 27 -127 56 -184 14 -27 21 -48 17 -48 -4 0 6 -13
22 -30 38 -40 21 -38 -44 6 -29 20 -68 42 -87 50 -73 30 -164 -16 -164 -83 0
-27 3 -33 13 -25 22 18 162 25 232 12 36 -7 67 -15 69 -19 2 -3 -43 -4 -100
-3 -89 3 -105 2 -110 -13 -7 -18 43 -78 58 -69 5 4 -3 19 -18 35 -27 28 -27
29 -6 29 13 0 33 -7 46 -16 22 -14 30 -14 84 0 33 9 83 16 111 16 28 0 51 3
51 6 0 3 -20 29 -46 57 -41 48 -93 140 -143 260 -22 53 -41 61 -41 19z"/>
<path d="M1977 3267 c-11 -29 -8 -53 10 -92 23 -48 33 -44 21 8 -6 23 -13 56
-17 72 -6 25 -8 27 -14 12z"/>
<path d="M2920 3270 c0 -6 -14 -25 -30 -42 -17 -16 -37 -42 -44 -57 -13 -24
-12 -27 10 -44 l24 -18 30 63 c31 66 37 93 20 103 -5 3 -10 1 -10 -5z"/>
<path d="M2966 3267 c3 -10 9 -15 12 -12 3 3 0 11 -7 18 -10 9 -11 8 -5 -6z"/>
<path d="M4576 3233 c-4 -24 -18 -59 -32 -78 l-23 -35 32 3 c18 1 35 9 39 17
9 20 8 90 -1 115 -7 16 -10 12 -15 -22z"/>
<path d="M3572 3251 c-11 -6 -8 -14 12 -34 15 -15 26 -21 26 -13 0 19 25 37
63 46 27 7 23 8 -28 9 -33 0 -66 -3 -73 -8z"/>
<path d="M1790 3218 c0 -32 48 -91 93 -114 29 -15 31 -15 59 14 26 25 28 33
19 51 -24 44 -148 85 -135 44 4 -12 -1 -9 -15 7 l-21 25 0 -27z"/>
<path d="M3347 3233 c-4 -3 -7 -16 -7 -27 0 -12 -8 -35 -19 -51 l-18 -31 34 4
c42 5 79 -18 88 -57 7 -31 -14 -92 -43 -124 -16 -19 -16 -19 3 -14 11 4 42 11
68 17 62 13 91 33 111 75 51 106 -16 193 -139 183 -35 -2 -45 0 -49 14 -4 18
-17 23 -29 11z"/>
<path d="M3793 3229 c-6 -6 -46 -29 -89 -52 l-79 -42 -1 -53 -2 -54 30 29 c55
52 170 183 161 183 -5 0 -14 -5 -20 -11z"/>
<path d="M3210 3212 c-45 -18 -45 -18 -44 -65 0 -63 12 -73 58 -52 48 23 76
60 76 101 0 29 -4 34 -22 33 -13 0 -43 -8 -68 -17z"/>
<path d="M2057 3203 c-16 -15 -5 -40 35 -80 49 -50 65 -53 98 -18 13 14 18 25
11 25 -7 0 -9 5 -5 13 4 6 4 9 -1 5 -4 -4 -25 8 -47 27 -35 32 -75 45 -91 28z"/>
<path d="M2970 3197 c-8 -7 -30 -30 -47 -53 l-32 -41 26 -24 c14 -13 23 -18
18 -10 -6 11 -4 13 9 8 9 -4 15 -3 11 2 -3 5 13 24 35 41 50 40 68 69 49 81
-20 12 -51 10 -69 -4z"/>
<path d="M3115 3190 c-3 -10 -20 -31 -36 -45 -17 -14 -26 -25 -21 -25 12 0 72
67 72 80 0 17 -8 11 -15 -10z"/>
<path d="M2423 3157 c-23 -7 -45 -15 -49 -19 -4 -5 -15 -8 -24 -8 -9 0 -25 -7
-36 -15 -11 -8 14 -3 61 12 147 49 294 36 408 -37 26 -16 49 -25 52 -19 7 11
-107 65 -180 85 -59 16 -173 17 -232 1z"/>
<path d="M2540 3132 c0 -5 7 -17 15 -28 14 -19 14 -19 15 2 0 12 -7 24 -15 28
-8 3 -15 2 -15 -2z"/>
<path d="M3120 3130 c0 -5 5 -10 10 -10 6 0 10 5 10 10 0 6 -4 10 -10 10 -5 0
-10 -4 -10 -10z"/>
<path d="M2020 3126 c0 -8 104 -66 114 -63 6 2 -14 18 -44 35 -51 30 -70 37
-70 28z"/>
<path d="M2440 3082 c0 -25 7 -45 18 -55 33 -30 44 11 17 63 -21 41 -35 37
-35 -8z"/>
<path d="M2500 3098 c0 -33 13 -49 30 -38 11 7 12 14 2 34 -14 32 -32 34 -32
4z"/>
<path d="M2601 3101 c-16 -29 -14 -43 12 -75 l24 -29 11 31 c20 59 -21 123
-47 73z"/>
<path d="M2382 3101 c-22 -13 -11 -66 13 -66 12 0 21 8 23 20 4 28 -19 57 -36
46z"/>
<path d="M2680 3075 c0 -40 12 -45 35 -13 14 21 14 24 -2 35 -26 20 -33 16
-33 -22z"/>
<path d="M4220 3054 c-19 -31 -56 -76 -82 -100 -54 -50 -50 -57 9 -15 49 35
105 111 109 146 1 14 2 25 1 25 -1 0 -18 -25 -37 -56z"/>
<path d="M554 3086 c-41 -18 -48 -31 -30 -57 l14 -21 17 26 c10 15 34 31 58
38 38 11 39 13 16 19 -35 10 -41 10 -75 -5z"/>
<path d="M1799 3090 c24 -4 49 -14 56 -23 10 -14 14 -15 24 -4 9 11 3 16 -28
25 -21 7 -51 11 -67 11 -21 -1 -17 -3 15 -9z"/>
<path d="M2205 3038 c-36 -34 -71 -71 -76 -82 -6 -12 7 -3 28 19 21 22 60 59
87 83 27 23 44 42 38 42 -6 0 -41 -28 -77 -62z"/>
<path d="M3007 3064 l-49 -25 25 -32 c13 -17 29 -33 35 -35 6 -2 31 15 56 38
38 35 44 45 35 61 -13 25 -44 23 -102 -7z"/>
<path d="M3278 3083 c7 -3 16 -2 19 1 4 3 -2 6 -13 5 -11 0 -14 -3 -6 -6z"/>
<path d="M4495 3080 c3 -5 12 -10 19 -10 7 0 29 -11 49 -24 32 -22 36 -23 42
-8 9 25 -30 52 -77 52 -23 0 -37 -4 -33 -10z"/>
<path d="M2026 3043 c42 -57 42 -57 59 -43 25 20 17 38 -25 60 -57 29 -65 25
-34 -17z"/>
<path d="M2311 3071 c-7 -5 -10 -14 -7 -20 4 -6 12 -9 17 -5 5 3 17 0 25 -7
13 -11 14 -9 3 14 -13 29 -17 31 -38 18z"/>
<path d="M3239 3070 c-12 -7 -15 -23 -13 -72 2 -56 5 -64 26 -72 54 -19 138
54 138 119 l0 28 -22 -20 c-24 -22 -104 -73 -113 -73 -3 0 -5 6 -4 13 1 6 -2
20 -6 31 -5 11 -3 26 4 37 13 21 12 22 -10 9z"/>
<path d="M2555 3061 c-3 -5 -1 -12 5 -16 5 -3 10 1 10 9 0 18 -6 21 -15 7z"/>
<path d="M2734 3055 c-3 -8 -3 -19 1 -25 9 -14 35 6 35 26 0 19 -29 18 -36 -1z"/>
<path d="M446 3007 c-21 -56 -22 -133 0 -141 37 -14 46 4 17 36 -15 17 -15 19
2 38 26 28 32 25 27 -15 -4 -29 -1 -34 12 -29 9 3 16 1 16 -5 0 -6 -4 -11 -10
-11 -5 0 -10 -4 -10 -10 0 -15 40 -12 46 4 4 10 -64 156 -81 174 -1 1 -10 -17
-19 -41z"/>
<path d="M1710 3028 c0 -23 81 -108 103 -108 26 1 45 26 40 52 -4 21 -17 32
-65 52 -72 32 -78 32 -78 4z"/>
<path d="M1940 3024 c0 -16 12 -37 30 -54 34 -32 38 -42 13 -33 -38 13 -83 55
-83 76 0 18 -2 19 -10 7 -14 -22 -12 -42 9 -70 16 -20 29 -25 75 -27 46 -1 58
2 66 17 15 28 13 33 -24 73 -41 45 -76 50 -76 11z"/>
<path d="M2267 3044 c-3 -4 8 -24 25 -45 24 -30 36 -38 52 -33 12 4 23 8 25
10 7 6 -29 54 -41 54 -6 0 -3 -9 7 -20 10 -11 14 -20 9 -20 -17 0 -54 31 -54
46 0 14 -12 19 -23 8z"/>
<path d="M2899 2999 c29 -28 64 -69 78 -90 28 -43 33 -46 33 -25 0 17 -138
166 -153 166 -5 0 14 -23 42 -51z"/>
<path d="M3175 3000 c0 -34 4 -50 12 -50 17 0 17 61 1 83 -11 15 -13 10 -13
-33z"/>
<path d="M2765 3009 c-30 -36 -28 -54 6 -55 29 0 64 53 47 74 -15 18 -24 15
-53 -19z"/>
<path d="M3088 2987 c-32 -23 -54 -45 -49 -50 9 -9 81 22 81 35 0 5 5 6 10 3
12 -7 23 17 18 38 -2 11 -19 4 -60 -26z"/>
<path d="M2520 3003 c0 -12 5 -25 10 -28 13 -8 13 15 0 35 -8 12 -10 11 -10
-7z"/>
<path d="M2557 3013 c-4 -3 -7 -21 -7 -40 0 -23 5 -33 15 -33 10 0 15 10 15
28 0 31 -13 56 -23 45z"/>
<path d="M4627 2990 c-8 -40 10 -74 30 -55 17 17 17 19 -6 55 l-18 31 -6 -31z"/>
<path d="M2216 2994 c-21 -21 -20 -27 7 -52 27 -25 37 -27 61 -9 17 12 16 15
-9 45 -30 36 -37 38 -59 16z"/>
<path d="M2397 2996 c-5 -13 12 -43 44 -80 5 -5 6 7 2 27 -4 30 -3 37 11 37
10 0 16 -9 16 -25 0 -14 5 -25 11 -25 13 0 2 39 -19 63 -18 21 -58 23 -65 3z"/>
<path d="M2673 2998 c-12 -15 -23 -68 -14 -68 14 1 61 50 61 65 0 18 -33 20
-47 3z"/>
<path d="M2820 2965 c-26 -26 -31 -38 -22 -47 15 -15 84 37 80 60 -5 27 -23
23 -58 -13z"/>
<path d="M2501 2980 c-1 -18 16 -46 23 -40 2 3 -2 16 -9 30 -8 15 -14 19 -14
10z"/>
<path d="M2604 2964 c1 -27 7 -29 24 -12 17 17 15 25 -7 31 -15 3 -18 -1 -17
-19z"/>
<path d="M4730 2918 c0 -26 -4 -58 -9 -71 -8 -20 -6 -27 5 -31 8 -3 13 -2 9 3
-3 5 0 31 6 59 9 36 9 54 1 68 -10 16 -11 11 -12 -28z"/>
<path d="M2350 2939 c0 -6 9 -13 21 -16 15 -4 17 -8 8 -14 -10 -6 -9 -9 4 -15
27 -10 31 2 10 30 -18 26 -43 35 -43 15z"/>
<path d="M2148 2915 c-9 -19 -8 -29 6 -50 9 -14 21 -25 26 -25 15 0 12 9 -10
37 -25 32 -19 41 12 19 27 -19 58 -21 58 -3 0 11 -58 47 -76 47 -2 0 -9 -11
-16 -25z"/>
<path d="M2695 2929 c-11 -17 -2 -18 19 -3 17 12 17 14 4 14 -9 0 -20 -5 -23
-11z"/>
<path d="M2870 2923 c-14 -9 -27 -18 -29 -20 -3 -2 4 -9 15 -17 16 -12 23 -12
46 0 34 18 44 34 27 45 -20 13 -31 11 -59 -8z"/>
<path d="M3078 2927 c-16 -6 -28 -14 -28 -19 0 -12 12 -10 55 12 42 21 21 26
-27 7z"/>
<path d="M2297 2924 c-13 -13 -7 -24 14 -24 11 0 19 5 17 12 -5 14 -22 21 -31
12z"/>
<path d="M3854 2862 c-67 -31 -120 -60 -118 -63 8 -13 93 -31 114 -24 45 14
164 145 133 145 -5 0 -63 -26 -129 -58z"/>
<path d="M4592 2899 c-7 -11 -11 -23 -9 -26 8 -7 47 21 44 31 -6 18 -22 16
-35 -5z"/>
<path d="M620 2890 c-10 -18 -9 -31 5 -66 9 -24 20 -44 24 -44 4 0 19 12 32
28 l24 27 -36 39 c-37 39 -37 39 -49 16z"/>
<path d="M2042 2862 c-28 -65 -42 -127 -40 -182 l1 -45 7 55 c11 79 35 165 54
195 9 14 12 25 7 25 -4 0 -18 -22 -29 -48z"/>
<path d="M2513 2903 c-9 -3 -9 -10 -1 -29 14 -31 28 -31 28 0 0 27 -8 36 -27
29z"/>
<path d="M2570 2876 c0 -26 4 -36 16 -36 11 0 14 8 12 32 -4 46 -28 49 -28 4z"/>
<path d="M2750 2890 c-11 -20 -5 -60 8 -60 17 1 31 17 38 44 6 25 4 28 -10 23
-10 -4 -15 -3 -11 3 3 6 2 10 -4 10 -6 0 -15 -9 -21 -20z"/>
<path d="M3111 2896 c-19 -7 -37 -18 -39 -24 -2 -7 13 -4 40 7 24 10 50 21 58
24 10 4 9 5 -5 5 -11 0 -35 -5 -54 -12z"/>
<path d="M3200 2900 c8 -5 20 -10 25 -10 6 0 3 5 -5 10 -8 5 -19 10 -25 10 -5
0 -3 -5 5 -10z"/>
<path d="M4671 2882 l-33 -28 26 -12 c24 -11 26 -10 32 16 3 15 7 33 10 40 5
17 3 16 -35 -16z"/>
<path d="M1935 2893 c45 -12 66 -24 60 -33 -4 -7 -13 -6 -26 1 -11 5 -30 9
-42 7 l-22 -3 24 -22 c41 -38 58 -36 74 11 l15 43 -52 0 c-28 1 -42 -1 -31 -4z"/>
<path d="M4438 2860 l-37 -38 24 -22 c30 -28 54 -23 78 18 16 27 18 38 9 58
-15 32 -29 29 -74 -16z"/>
<path d="M2096 2881 c-2 -3 -1 -20 1 -38 4 -23 13 -35 35 -44 21 -8 32 -9 40
-1 7 7 -2 22 -31 50 -23 22 -43 37 -45 33z"/>
<path d="M2315 2880 c-9 -15 3 -30 24 -30 25 0 33 11 20 27 -13 15 -35 17 -44
3z"/>
<path d="M2460 2873 c0 -26 14 -43 27 -35 6 4 7 15 2 30 -10 26 -29 29 -29 5z"/>
<path d="M2626 2868 c-10 -38 -6 -45 9 -18 17 29 18 40 6 40 -5 0 -11 -10 -15
-22z"/>
<path d="M917 2855 c-53 -14 -112 -32 -130 -41 -39 -20 -151 -110 -192 -155
-22 -24 -14 -20 32 17 79 62 162 114 184 114 9 0 30 7 48 16 18 9 49 18 70 21
32 4 43 0 74 -27 20 -18 35 -36 32 -40 -3 -5 29 -16 71 -25 72 -17 77 -16 115
1 l40 18 -45 17 c-25 9 -75 38 -110 63 -36 25 -71 46 -78 45 -7 0 -57 -11
-111 -24z"/>
<path d="M2265 2871 c-9 -16 11 -36 45 -46 22 -6 23 -6 8 6 -10 8 -24 23 -31
33 -10 14 -16 16 -22 7z"/>
<path d="M2928 2870 c-43 -13 -51 -20 -38 -35 10 -12 17 -11 46 2 19 9 34 23
34 30 0 14 -3 15 -42 3z"/>
<path d="M3135 2864 c-49 -18 -57 -26 -49 -47 5 -14 12 -12 51 15 69 50 69 58
-2 32z"/>
<path d="M3305 2870 c3 -5 14 -10 23 -10 15 0 15 2 2 10 -20 13 -33 13 -25 0z"/>
<path d="M1747 2861 l-39 -6 31 -29 c40 -38 40 -51 0 -31 -17 9 -40 14 -52 12
-20 -3 -20 -4 7 -15 16 -7 49 -14 73 -17 42 -4 44 -3 36 18 -4 12 -7 34 -8 50
0 15 -2 26 -5 26 -3 -1 -22 -5 -43 -8z"/>
<path d="M2414 2859 c-7 -12 22 -46 32 -37 8 9 -5 48 -16 48 -5 0 -12 -5 -16
-11z"/>
<path d="M2656 2848 c-10 -38 -7 -44 10 -19 11 15 13 26 6 33 -6 6 -11 1 -16
-14z"/>
<path d="M3247 2851 c8 -30 -5 -71 -22 -71 -15 0 -20 17 -16 60 l2 25 -20 -27
c-12 -15 -37 -32 -57 -38 -28 -9 -34 -17 -32 -33 3 -19 8 -22 47 -19 56 4 88
19 115 55 15 21 18 32 10 44 -16 25 -33 28 -27 4z"/>
<path d="M3989 2831 c-30 -21 -71 -48 -93 -59 l-38 -21 43 -12 c60 -16 143 1
170 34 10 14 37 32 60 41 36 15 50 15 91 6 26 -7 48 -17 48 -23 0 -11 -52 -48
-108 -76 -13 -7 -63 -16 -111 -21 -104 -11 -121 -17 -121 -39 0 -9 -18 -35
-41 -56 l-41 -40 21 35 c39 65 20 65 -42 0 -88 -93 -108 -108 -169 -134 l-55
-22 52 -59 52 -58 32 22 c23 17 42 22 71 19 21 -2 36 0 34 4 -2 3 -31 24 -64
46 -32 22 -57 42 -54 45 9 8 82 -20 153 -59 59 -32 72 -36 144 -36 43 0 81 3
85 6 3 3 -15 6 -40 6 -24 0 -69 7 -99 16 -65 19 -169 71 -169 83 0 5 28 3 61
-5 44 -10 70 -12 93 -4 17 5 52 12 77 15 56 7 127 42 146 71 l14 21 -78 -18
c-121 -29 -234 -42 -263 -31 l-25 10 25 5 c14 3 54 10 89 17 35 6 70 18 78 25
22 22 111 45 175 45 43 0 75 -8 128 -32 50 -22 74 -28 81 -21 13 13 -81 91
-155 128 -39 20 -45 26 -30 31 10 3 35 12 55 21 33 13 40 13 66 0 37 -19 101
-89 117 -129 7 -16 16 -29 19 -29 38 4 35 -13 -9 -69 -88 -111 -245 -188 -424
-209 l-54 -6 49 -37 c28 -21 62 -47 77 -60 26 -21 28 -21 47 -4 19 17 21 17
61 -15 23 -18 59 -59 80 -91 28 -43 40 -53 43 -41 2 10 8 -1 12 -24 4 -24 12
-43 17 -43 15 0 0 67 -27 119 -13 26 -41 67 -64 93 -31 35 -36 45 -21 41 33
-9 107 -100 129 -159 25 -66 27 -141 5 -173 -15 -21 -15 -26 1 -62 l18 -39 24
22 c27 25 30 43 6 33 -10 -4 -24 -9 -30 -12 -7 -3 -13 2 -13 11 0 9 7 16 15
16 18 0 19 12 3 28 -10 10 -10 15 2 22 17 11 40 13 40 4 0 -3 -5 -14 -10 -25
-8 -15 -7 -19 4 -19 24 0 36 33 36 97 0 79 -36 149 -117 230 -57 57 -68 85
-19 48 25 -19 56 -19 84 1 30 21 28 40 -5 52 -25 8 -19 10 42 16 89 9 203 46
280 91 33 19 74 42 92 52 33 17 48 38 34 48 -5 2 -51 -21 -102 -52 -117 -70
-202 -109 -254 -116 -34 -5 -36 -4 -15 5 87 36 173 85 218 124 l51 45 -73 67
c-73 67 -136 111 -136 94 0 -13 30 -37 76 -60 22 -11 47 -28 54 -38 10 -11 -7
-6 -47 15 -66 33 -73 35 -73 24 0 -5 34 -28 75 -53 41 -25 75 -48 75 -52 0
-10 -113 -86 -163 -108 -101 -47 -81 -11 34 57 61 36 76 49 68 60 -6 7 -15 10
-20 7 -5 -3 -9 -1 -9 4 0 11 -92 73 -99 66 -2 -2 8 -17 23 -33 l29 -30 -39
-47 c-67 -83 -148 -159 -187 -177 -77 -37 -286 -63 -301 -38 -7 10 27 21 68
21 43 0 145 29 204 58 33 16 80 54 128 104 l75 78 -29 43 c-16 23 -60 74 -96
114 -72 78 -129 112 -231 138 -98 25 -134 21 -196 -24z m636 -301 c-7 -12 -65
-43 -65 -35 0 5 61 45 68 45 2 0 0 -5 -3 -10z m-145 -555 c0 -8 -7 -15 -15
-15 -8 0 -15 7 -15 15 0 8 7 15 15 15 8 0 15 -7 15 -15z"/>
<path d="M529 2849 l-27 -10 19 -39 c19 -40 39 -53 39 -26 0 8 7 17 15 20 14
5 14 9 0 36 -8 16 -17 30 -18 29 -1 0 -14 -5 -28 -10z"/>
<path d="M1864 2845 c-4 -8 -4 -25 -1 -38 l6 -22 -20 24 c-10 13 -19 19 -19
14 0 -22 90 -83 123 -83 16 0 27 21 27 51 0 14 -7 19 -26 19 -33 0 -64 17 -64
35 0 20 -19 19 -26 0z"/>
<path d="M2220 2841 c0 -11 10 -32 23 -47 19 -22 25 -24 30 -12 3 9 -3 24 -14
34 -10 9 -19 23 -19 31 0 7 -4 13 -10 13 -5 0 -10 -9 -10 -19z"/>
<path d="M2825 2850 c-3 -5 1 -10 9 -10 9 0 16 5 16 10 0 6 -4 10 -9 10 -6 0
-13 -4 -16 -10z"/>
<path d="M3023 2828 c8 -24 12 -28 15 -15 5 23 -4 47 -17 47 -6 0 -5 -13 2
-32z"/>
<path d="M4554 2832 c-12 -18 -7 -79 6 -87 13 -8 37 38 38 73 0 24 -4 32 -16
32 -10 0 -22 -8 -28 -18z"/>
<path d="M424 2806 l-36 -36 26 -25 c26 -24 28 -24 66 -9 l40 16 -21 37 c-34
56 -36 56 -75 17z"/>
<path d="M2369 2816 c-11 -23 -10 -29 2 -37 39 -25 64 10 31 44 l-21 20 -12
-27z"/>
<path d="M2685 2820 c-12 -14 -15 -24 -9 -30 7 -7 17 -4 29 10 12 14 15 24 9
30 -7 7 -17 4 -29 -10z"/>
<path d="M2943 2818 c-13 -6 -23 -15 -23 -20 0 -14 27 -9 51 12 27 22 10 26
-28 8z"/>
<path d="M3328 2819 c-10 -5 -18 -16 -18 -23 0 -7 -9 -21 -20 -31 l-21 -19 23
-12 c15 -8 29 -9 41 -3 9 6 23 7 29 3 6 -4 8 -3 5 3 -4 6 11 22 33 37 22 14
40 30 40 35 0 21 -81 29 -112 10z"/>
<path d="M4630 2816 c0 -9 -9 -34 -20 -56 -25 -48 -25 -47 3 -54 12 -3 47 -20
78 -39 52 -32 55 -32 51 -12 -2 15 -20 30 -54 46 -52 24 -52 24 -32 90 2 9 -2
22 -11 29 -12 10 -15 10 -15 -4z"/>
<path d="M1568 2795 c-4 -21 3 -33 35 -60 45 -39 40 -42 -24 -20 -50 18 -70
13 -143 -34 -48 -30 -49 -31 -20 -31 16 0 39 -7 52 -15 19 -14 21 -22 15 -75
l-6 -59 44 -11 c24 -6 50 -13 58 -16 7 -2 -3 14 -22 36 -41 45 -55 83 -37 105
24 28 99 57 151 57 l51 -1 -44 22 c-30 16 -52 37 -74 75 -30 49 -32 50 -36 27z"/>
<path d="M2810 2810 c0 -5 4 -10 9 -10 6 0 13 5 16 10 3 6 -1 10 -9 10 -9 0
-16 -4 -16 -10z"/>
<path d="M2855 2791 c-8 -16 -25 -37 -37 -45 -27 -19 -25 -19 34 -2 25 8 49
12 52 8 3 -3 1 9 -5 26 -15 44 -26 47 -44 13z"/>
<path d="M2190 2792 c0 -12 0 -25 0 -29 0 -9 60 -27 66 -20 2 2 -12 19 -31 37
-32 31 -35 32 -35 12z"/>
<path d="M2536 2795 c-3 -9 0 -15 8 -15 8 0 16 7 20 15 3 9 0 15 -8 15 -8 0
-16 -7 -20 -15z"/>
<path d="M2782 2785 c6 -13 15 -22 19 -19 9 5 -11 44 -23 44 -4 0 -3 -11 4
-25z"/>
<path d="M3460 2790 c-6 -11 -8 -20 -6 -20 3 0 10 9 16 20 6 11 8 20 6 20 -3
0 -10 -9 -16 -20z"/>
<path d="M2070 2790 c0 -11 53 -40 75 -40 26 0 16 14 -24 33 -43 20 -51 21
-51 7z"/>
<path d="M2300 2791 c0 -5 -3 -17 -7 -27 -4 -11 -2 -15 7 -12 20 6 33 48 15
48 -8 0 -15 -4 -15 -9z"/>
<path d="M2575 2790 c-3 -6 1 -7 9 -4 10 4 16 1 16 -7 0 -7 3 -9 7 -6 10 11
53 -34 68 -70 8 -18 12 -51 10 -73 -3 -25 -1 -38 5 -35 6 3 10 27 10 53 0 56
-26 104 -72 132 -37 23 -44 24 -53 10z"/>
<path d="M4684 2783 c-15 -34 -11 -48 11 -49 12 -1 27 7 35 19 10 18 10 22 -6
34 -24 17 -30 16 -40 -4z"/>
<path d="M1654 2762 c15 -29 65 -72 83 -72 4 0 18 15 31 33 l22 32 -63 10
c-34 6 -68 15 -75 19 -10 6 -9 0 2 -22z"/>
<path d="M2495 2780 c-3 -5 -1 -10 4 -10 6 0 11 5 11 10 0 6 -2 10 -4 10 -3 0
-8 -4 -11 -10z"/>
<path d="M2716 2777 c-10 -8 -15 -19 -11 -30 6 -14 11 -15 28 -5 29 14 28 13
21 32 -7 19 -15 20 -38 3z"/>
<path d="M2967 2777 c-32 -13 -30 -33 3 -29 28 3 52 21 44 33 -6 11 -10 10
-47 -4z"/>
<path d="M3497 2776 c-3 -8 1 -17 10 -20 20 -8 27 -1 20 19 -8 19 -23 20 -30
1z"/>
<path d="M4776 2773 c-6 -14 -5 -15 5 -6 7 7 10 15 7 18 -3 3 -9 -2 -12 -12z"/>
<path d="M750 2714 c-103 -79 -130 -104 -130 -118 0 -6 5 -3 10 6 19 31 130
98 165 98 30 0 212 -78 245 -105 8 -7 49 -20 90 -29 70 -16 135 -46 99 -46
-21 0 -198 -88 -179 -89 8 -1 63 12 121 28 119 32 136 24 60 -27 -61 -41 -156
-65 -261 -66 -101 0 -161 23 -253 98 -32 26 -61 46 -63 43 -2 -2 18 -25 46
-51 100 -94 213 -123 396 -104 106 11 113 13 128 39 19 32 70 72 80 62 3 -4
-6 -19 -21 -35 -25 -26 -25 -28 -6 -28 21 0 73 -42 73 -58 0 -15 -27 -22 -88
-22 -36 0 -70 -7 -96 -20 -47 -23 -123 -86 -91 -75 11 4 55 11 99 16 43 5 84
12 90 15 6 3 0 -4 -14 -15 -14 -11 -43 -30 -65 -41 l-40 -20 42 0 c37 0 45 4
69 38 47 63 107 123 145 142 31 16 89 78 89 94 0 3 -9 6 -21 6 -41 0 -140 63
-198 127 -63 68 -109 99 -125 83 -15 -15 -26 -12 -26 8 0 14 -17 21 -82 34
-44 10 -106 30 -137 45 -31 15 -58 29 -61 30 -3 2 -43 -27 -90 -63z"/>
<path d="M3650 2770 c0 -5 4 -10 9 -10 6 0 39 -22 75 -50 36 -27 71 -50 78
-50 7 0 25 8 41 18 27 18 27 32 0 32 -7 0 -54 16 -103 35 -100 39 -100 39
-100 25z"/>
<path d="M2342 2758 c3 -7 13 -15 24 -17 16 -3 17 -1 5 13 -16 19 -34 21 -29
4z"/>
<path d="M1810 2732 c-14 -14 -18 -21 -9 -14 8 6 26 15 39 20 16 6 19 10 9 14
-8 3 -25 -6 -39 -20z"/>
<path d="M2450 2749 c0 -5 5 -7 10 -4 6 3 10 8 10 11 0 2 -4 4 -10 4 -5 0 -10
-5 -10 -11z"/>
<path d="M2479 2723 l-24 -28 25 21 c14 12 32 24 40 27 13 5 13 6 -1 6 -8 1
-26 -11 -40 -26z"/>
<path d="M2607 2731 c13 -11 27 -30 32 -43 7 -16 10 -18 10 -6 1 18 -40 68
-55 68 -5 -1 1 -9 13 -19z"/>
<path d="M3058 2707 c2 -23 8 -46 12 -51 10 -10 1 75 -9 86 -4 4 -5 -12 -3
-35z"/>
<path d="M3388 2743 c7 -3 16 -2 19 1 4 3 -2 6 -13 5 -11 0 -14 -3 -6 -6z"/>
<path d="M493 2712 c-72 -25 -130 -58 -119 -69 2 -2 37 9 77 25 41 16 88 33
106 36 38 9 67 36 37 36 -11 0 -56 -13 -101 -28z"/>
<path d="M2073 2715 c15 -31 67 -36 67 -6 0 21 -19 31 -55 31 -21 0 -22 -2
-12 -25z"/>
<path d="M2405 2729 c-4 -6 -5 -12 -2 -15 2 -3 7 2 10 11 7 17 1 20 -8 4z"/>
<path d="M3405 2725 c-16 -8 -39 -14 -51 -15 -19 0 -20 -3 -11 -34 13 -41 33
-39 95 12 33 26 40 37 30 43 -17 11 -27 10 -63 -6z"/>
<path d="M4489 2711 c25 -34 40 -46 48 -37 8 7 -25 44 -51 58 -17 9 -17 7 3
-21z"/>
<path d="M213 2675 c0 -33 2 -45 4 -27 2 18 2 45 0 60 -2 15 -4 0 -4 -33z"/>
<path d="M1305 2723 c-73 -16 -92 -40 -54 -67 18 -12 27 -12 59 -1 35 12 120
63 120 71 0 5 -100 3 -125 -3z"/>
<path d="M2172 2703 c2 -20 9 -29 26 -31 18 -3 22 1 22 21 0 23 -16 37 -41 37
-6 0 -9 -12 -7 -27z"/>
<path d="M2545 2721 c6 -11 3 -13 -13 -9 -12 4 -22 2 -22 -4 0 -5 -4 -7 -8 -4
-15 9 -33 -37 -28 -73 5 -41 28 -61 73 -61 66 0 100 82 55 133 -9 10 -21 16
-28 13 -6 -2 -17 1 -24 7 -10 9 -11 9 -5 -2z m51 -23 c5 -7 2 -9 -7 -4 -10 5
-9 3 1 -6 9 -7 15 -28 15 -46 0 -55 -55 -80 -102 -47 -18 12 -20 20 -13 51 10
44 11 45 57 54 21 4 39 8 40 9 1 0 5 -4 9 -11z"/>
<path d="M2536 2667 c3 -10 9 -15 12 -12 3 3 0 11 -7 18 -10 9 -11 8 -5 -6z"/>
<path d="M2569 2668 c7 -10 11 -25 7 -33 -8 -23 -45 -18 -56 8 l-9 22 0 -22
c-1 -12 7 -27 17 -32 12 -8 13 -10 3 -11 -8 0 -12 -2 -9 -5 3 -3 17 0 32 6 34
16 43 46 20 68 -17 15 -17 15 -5 -1z"/>
<path d="M2877 2723 c-9 -2 -15 -9 -11 -14 3 -6 0 -17 -7 -25 -19 -23 -4 -27
30 -9 27 13 30 19 21 35 -6 11 -12 19 -13 19 -1 -1 -10 -3 -20 -6z"/>
<path d="M2977 2723 c-33 -4 -38 -8 -35 -26 3 -21 83 -75 95 -64 11 11 -9 26
-42 33 -41 7 -37 24 6 24 22 0 29 5 29 20 0 11 -3 19 -7 18 -5 -1 -25 -3 -46
-5z"/>
<path d="M3158 2723 c-27 -2 -48 -9 -48 -14 0 -10 70 -4 120 12 l25 7 -25 -1
c-14 0 -46 -2 -72 -4z"/>
<path d="M1870 2714 c38 -8 90 -9 90 -2 0 4 -24 7 -52 7 -29 -1 -46 -3 -38 -5z"/>
<path d="M2277 2713 c-13 -12 -7 -23 13 -23 11 0 20 7 20 15 0 15 -21 21 -33
8z"/>
<path d="M2335 2709 c-10 -15 1 -23 20 -15 9 3 13 10 10 16 -8 13 -22 13 -30
-1z"/>
<path d="M2430 2710 c0 -5 5 -10 10 -10 6 0 10 5 10 10 0 6 -4 10 -10 10 -5 0
-10 -4 -10 -10z"/>
<path d="M2753 2710 c-31 -13 -29 -28 2 -22 14 2 25 11 25 18 0 8 -1 14 -2 13
-2 0 -13 -4 -25 -9z"/>
<path d="M3505 2690 c-32 -34 -101 -70 -132 -70 -29 0 -41 -18 -48 -76 l-7
-51 36 -6 c46 -7 66 0 66 23 0 21 15 34 54 47 l29 9 -42 18 c-22 11 -41 22
-41 26 0 4 16 15 36 25 42 20 82 9 114 -33 28 -35 25 -59 -12 -94 l-33 -30 35
7 c39 8 73 24 53 25 -8 0 -13 14 -13 35 0 49 37 70 117 66 12 -1 23 -9 25 -18
3 -15 6 -15 17 5 11 21 9 25 -15 45 -78 63 -107 77 -159 77 -44 0 -55 -4 -80
-30z"/>
<path d="M4718 2713 c7 -3 16 -2 19 1 4 3 -2 6 -13 5 -11 0 -14 -3 -6 -6z"/>
<path d="M2032 2690 c0 -14 2 -19 5 -12 2 6 2 18 0 25 -3 6 -5 1 -5 -13z"/>
<path d="M2810 2695 c0 -8 5 -15 10 -15 6 0 10 7 10 15 0 8 -4 15 -10 15 -5 0
-10 -7 -10 -15z"/>
<path d="M3280 2706 c0 -2 8 -10 18 -17 15 -13 16 -12 3 4 -13 16 -21 21 -21
13z"/>
<path d="M2245 2675 c6 -30 29 -55 49 -55 6 0 1 8 -11 18 -12 9 -27 28 -33 42
-10 24 -10 24 -5 -5z"/>
<path d="M2393 2665 c0 -22 2 -30 4 -17 2 12 2 30 0 40 -3 9 -5 -1 -4 -23z"/>
<path d="M464 2641 c-51 -27 -103 -57 -116 -67 l-25 -18 70 -59 c78 -64 120
-89 186 -107 54 -14 47 -25 -12 -16 -62 9 -159 58 -233 117 -60 48 -64 49 -64
27 0 -34 16 -52 81 -91 55 -33 188 -70 293 -83 30 -3 44 -9 37 -13 -7 -5 -11
-19 -9 -32 3 -21 8 -24 46 -24 23 0 42 -1 42 -2 0 -7 -61 -33 -76 -33 -10 0
-26 8 -37 17 -18 17 -20 16 -48 -15 -34 -37 -37 -67 -10 -82 33 -17 51 -12
109 34 59 45 121 81 128 73 2 -2 -19 -26 -48 -52 -29 -26 -71 -64 -92 -84 -49
-45 -66 -85 -66 -157 l0 -57 23 21 c18 17 26 19 35 10 7 -7 12 -20 12 -30 0
-10 6 -18 14 -18 8 0 13 -8 12 -17 0 -10 7 -19 17 -21 13 -3 17 3 17 22 0 14
-5 26 -11 26 -5 0 -17 16 -25 36 -34 81 21 205 116 261 76 46 83 41 13 -11
-59 -43 -87 -84 -99 -145 -4 -20 -2 -31 4 -31 7 0 9 7 5 17 -4 10 -2 14 4 10
6 -4 23 10 38 31 31 41 53 62 139 129 56 44 59 45 54 21 -5 -28 -12 -32 148
89 l29 22 -37 -14 c-64 -25 -175 -30 -261 -11 -125 28 -210 96 -300 241 -16
25 -35 45 -43 45 -8 0 -33 -9 -55 -21 -39 -19 -40 -21 -24 -39 9 -10 48 -35
85 -55 73 -38 93 -55 63 -55 -51 0 -222 108 -207 131 3 5 31 22 62 38 46 23
129 92 111 91 -2 0 -45 -22 -95 -49z m81 -118 c36 -32 37 -34 10 -20 -31 16
-75 57 -59 57 5 -1 27 -17 49 -37z"/>
<path d="M1900 2675 c47 -18 60 -18 60 0 0 11 -12 15 -47 14 l-48 -1 35 -13z"/>
<path d="M3120 2676 c0 -12 7 -13 38 -5 59 16 60 17 10 18 -35 1 -48 -3 -48
-13z"/>
<path d="M3200 2665 c-19 -7 -45 -14 -57 -14 -13 -1 -23 -5 -23 -11 0 -11 75
-12 134 -2 38 7 39 8 22 25 -20 20 -29 20 -76 2z"/>
<path d="M1811 2656 c-12 -14 -8 -16 30 -16 24 0 61 -4 82 -9 28 -7 37 -6 37
4 0 7 -17 15 -37 19 -21 3 -52 9 -69 12 -21 4 -34 1 -43 -10z"/>
<path d="M2115 2665 c-5 -2 -22 -6 -37 -9 -54 -12 -22 -40 32 -29 21 4 30 11
30 24 0 19 -4 21 -25 14z"/>
<path d="M2327 2663 c-33 -5 -26 -23 9 -23 15 0 24 6 24 15 0 8 -1 14 -2 14
-2 -1 -15 -4 -31 -6z"/>
<path d="M2420 2660 c0 -5 5 -10 10 -10 6 0 10 5 10 10 0 6 -4 10 -10 10 -5 0
-10 -4 -10 -10z"/>
<path d="M2758 2663 c-27 -7 -22 -23 7 -23 16 0 25 6 25 15 0 15 -2 16 -32 8z"/>
<path d="M2652 2640 c0 -14 2 -19 5 -12 2 6 2 18 0 25 -3 6 -5 1 -5 -13z"/>
<path d="M1640 2641 l-25 -7 27 -27 c18 -18 22 -27 12 -27 -13 0 -13 -4 1 -30
8 -16 15 -36 15 -45 0 -10 10 -15 33 -15 55 0 59 7 45 88 l-12 72 -36 -1 c-19
-1 -46 -4 -60 -8z"/>
<path d="M2810 2640 c0 -5 16 -10 35 -10 19 0 35 5 35 10 0 6 -16 10 -35 10
-19 0 -35 -4 -35 -10z"/>
<path d="M2940 2626 c0 -13 -9 -52 -19 -85 -18 -57 -18 -62 -2 -70 23 -13 71
-8 71 7 0 7 -11 18 -25 24 -39 17 -33 39 7 27 46 -13 46 -12 8 20 l-35 29 44
-1 c30 -1 46 3 49 12 3 9 -2 11 -18 6 -15 -5 -29 0 -46 16 -13 12 -21 26 -18
30 3 5 0 9 -5 9 -6 0 -11 -11 -11 -24z"/>
<path d="M2170 2619 c0 -13 5 -31 10 -39 8 -13 11 -13 25 1 14 14 13 17 -10
39 l-25 23 0 -24z"/>
<path d="M2425 2630 c-3 -5 -1 -10 4 -10 6 0 11 5 11 10 0 6 -2 10 -4 10 -3 0
-8 -4 -11 -10z"/>
<path d="M2910 2632 c0 -7 -15 -21 -32 -32 l-33 -20 31 0 c26 0 33 5 38 26 4
15 5 29 1 32 -3 3 -5 0 -5 -6z"/>
<path d="M3055 2560 c-4 -39 -5 -73 -2 -76 3 -3 8 27 12 66 4 39 5 73 2 76 -3
3 -8 -27 -12 -66z"/>
<path d="M2108 2606 c-37 -13 -35 -25 4 -33 l31 -6 -21 -18 c-27 -22 -28 -29
-2 -22 11 3 20 0 20 -6 0 -6 -6 -11 -13 -11 -7 0 -22 -7 -33 -15 -18 -15 -16
-15 24 -10 50 8 57 -8 10 -24 -25 -9 -29 -14 -19 -20 7 -5 27 -5 42 -1 47 14
42 -6 -6 -25 -56 -21 -50 -39 7 -19 58 20 68 17 33 -11 -36 -30 -29 -40 22
-26 47 13 53 13 53 2 0 -5 -23 -17 -50 -26 -39 -13 -48 -20 -40 -30 15 -18 55
-7 85 22 22 23 25 24 32 8 6 -18 -7 -33 -53 -62 -18 -10 -18 -12 6 -21 22 -8
27 -5 48 29 l22 37 46 -25 c44 -24 44 -26 25 -40 -35 -24 -23 -89 15 -81 13 2
22 16 28 46 6 23 16 42 23 42 14 0 16 -9 13 -52 -1 -15 5 -37 12 -50 12 -22
13 -20 18 32 l5 55 66 5 66 5 -4 -35 c-4 -27 0 -40 17 -55 18 -16 23 -17 31
-5 5 8 7 20 4 27 -11 30 -16 83 -9 83 5 0 17 -20 27 -45 17 -39 21 -43 38 -35
27 15 24 35 -8 59 -23 17 -25 22 -13 30 10 7 23 1 48 -25 18 -19 35 -34 38
-34 8 0 -17 43 -38 66 -16 18 -17 22 -5 27 9 3 27 -10 47 -34 25 -31 35 -38
45 -29 11 9 7 17 -21 42 -18 16 -34 36 -34 44 0 21 11 17 46 -17 20 -20 39
-29 48 -26 26 10 18 25 -24 47 -57 29 -50 43 10 20 28 -11 55 -20 60 -20 23 0
7 20 -36 44 l-46 26 -49 -44 c-91 -81 -187 -110 -312 -94 -124 17 -256 112
-309 223 -15 33 -28 69 -28 80 0 34 -12 42 -42 31z"/>
<path d="M2732 2604 c4 -24 48 -33 48 -10 0 9 -4 16 -9 16 -5 0 -17 3 -26 6
-13 5 -16 2 -13 -12z"/>
<path d="M1876 2601 c-61 -5 -67 -8 -53 -20 12 -9 33 -12 67 -9 27 3 52 3 55
0 2 -3 -17 -15 -43 -27 -26 -12 -58 -35 -72 -50 l-25 -29 33 23 c27 19 38 21
55 13 12 -6 35 -13 51 -17 l29 -6 -7 47 c-3 26 -6 55 -6 65 0 11 -3 18 -7 17
-5 -1 -39 -4 -77 -7z"/>
<path d="M2023 2570 c0 -25 2 -35 4 -22 2 12 2 32 0 45 -2 12 -4 2 -4 -23z"/>
<path d="M2321 2603 c-13 -3 -31 -11 -39 -19 -13 -13 -8 -15 35 -13 43 2 50 5
45 21 -2 10 -7 17 -11 17 -3 -1 -17 -4 -30 -6z"/>
<path d="M2446 2585 c9 -14 21 -25 26 -25 5 0 6 -5 2 -12 -4 -7 -3 -8 5 -4 8
5 5 16 -11 36 -28 36 -44 39 -22 5z"/>
<path d="M2613 2572 c-18 -19 -33 -37 -33 -39 0 -11 42 21 56 43 25 38 13 36
-23 -4z"/>
<path d="M2810 2595 c0 -8 7 -15 16 -15 14 0 14 3 4 15 -7 8 -14 15 -16 15 -2
0 -4 -7 -4 -15z"/>
<path d="M3133 2598 c29 -16 121 -20 140 -6 15 11 5 13 -68 14 -48 0 -80 -3
-72 -8z"/>
<path d="M880 2576 c0 -24 51 -65 106 -85 l53 -20 53 24 c29 14 59 25 67 25
36 0 -3 10 -99 25 -58 10 -120 23 -139 31 -41 17 -41 17 -41 0z"/>
<path d="M1785 2565 c8 -38 17 -46 35 -35 13 8 10 14 -14 37 l-28 28 7 -30z"/>
<path d="M2400 2583 c0 -20 48 -70 84 -87 39 -18 56 -20 56 -6 0 6 -9 10 -20
10 -34 0 -80 29 -100 63 -11 18 -20 27 -20 20z"/>
<path d="M3117 2557 c-5 -39 0 -43 76 -56 35 -6 65 -18 73 -28 11 -15 13 -15
14 -2 0 28 -68 84 -133 108 -23 9 -25 7 -30 -22z"/>
<path d="M2052 2564 c10 -10 20 -16 22 -13 3 3 -5 11 -17 18 -21 13 -21 12 -5
-5z"/>
<path d="M2649 2545 c-16 -24 -35 -37 -56 -41 -18 -3 -33 -11 -33 -16 0 -6 7
-7 16 -4 9 3 19 6 24 6 13 0 69 50 81 71 17 33 -7 21 -32 -16z"/>
<path d="M3275 2564 c-17 -13 -18 -16 -3 -30 14 -14 16 -13 22 11 9 34 6 37
-19 19z"/>
<path d="M1996 2525 c3 -27 10 -57 15 -65 12 -21 10 -3 -6 60 l-15 55 6 -50z"/>
<path d="M2845 2540 c34 -35 41 -37 48 -11 5 20 -27 41 -60 41 -13 0 -10 -7
12 -30z"/>
<path d="M2203 2554 c-21 -9 -15 -34 7 -34 23 0 24 -3 10 -33 -7 -13 1 -8 20
13 16 19 29 39 27 45 -4 11 -45 17 -64 9z"/>
<path d="M2340 2552 c-45 -6 -53 -11 -41 -26 6 -7 9 -21 5 -30 -10 -25 5 -19
37 15 34 36 39 21 8 -23 -28 -38 -19 -46 16 -14 16 15 31 26 35 26 18 0 16
-14 -5 -34 -21 -18 -22 -24 -12 -37 11 -15 15 -14 33 15 l21 31 -36 41 c-27
30 -42 39 -61 36z"/>
<path d="M2715 2551 c-6 -10 25 -31 44 -31 17 0 13 27 -5 34 -22 8 -32 8 -39
-3z"/>
<path d="M2510 2536 c13 -13 48 -18 54 -7 3 5 -10 11 -29 13 -23 3 -32 1 -25
-6z"/>
<path d="M2803 2524 c-7 -19 4 -29 42 -38 l30 -8 -29 31 c-34 36 -35 36 -43
15z"/>
<path d="M203 2380 c10 -296 93 -604 243 -904 155 -311 474 -681 759 -881 94
-66 316 -199 395 -237 221 -105 436 -166 730 -204 277 -36 698 19 1010 131 85
30 285 132 395 200 294 181 518 399 719 699 100 150 219 363 268 480 45 110
105 314 117 400 16 112 12 122 -10 31 -76 -313 -223 -606 -468 -935 -83 -112
-310 -334 -441 -431 -366 -274 -707 -416 -1120 -469 -48 -6 -105 -10 -128 -8
l-43 3 64 41 c128 84 136 86 256 79 90 -6 109 -5 120 8 19 24 6 34 -52 42 -28
4 -75 17 -103 30 l-51 23 -27 -34 c-14 -18 -46 -45 -69 -58 -38 -23 -47 -24
-79 -14 -34 10 -37 9 -67 -23 -17 -19 -43 -52 -58 -75 l-26 -41 -84 85 c-63
64 -87 82 -96 73 -29 -29 -91 -2 -152 67 l-20 23 -43 -21 c-25 -12 -74 -24
-112 -27 l-69 -6 6 37 c5 30 -2 54 -40 134 -25 53 -48 114 -52 134 -6 33 -4
40 24 65 18 15 42 37 55 49 l24 21 7 -51 c6 -43 8 -47 16 -28 4 12 14 22 21
22 6 0 2 9 -10 20 -12 12 -22 33 -22 48 l0 27 23 -26 c31 -37 52 -42 74 -16
18 22 18 22 -2 7 -12 -8 -10 -4 5 9 23 23 25 23 29 6 3 -19 -23 -46 -83 -88
-32 -22 -35 -66 -6 -92 17 -15 24 -16 43 -6 12 7 39 21 60 32 30 16 37 25 37
50 0 45 24 31 28 -16 3 -28 6 -35 13 -24 6 9 7 3 2 -20 -5 -26 -3 -33 8 -29 8
3 16 17 19 31 4 20 8 24 20 17 9 -5 19 -5 26 1 7 6 22 6 40 -2 l29 -11 -25
-13 -25 -13 34 -4 c57 -5 51 -28 -7 -28 -43 0 -56 -5 -93 -36 -54 -45 -104
-71 -165 -84 -48 -11 -84 -34 -84 -53 0 -6 11 0 25 13 l25 24 -6 -31 -6 -31
42 9 c49 11 73 22 118 56 40 30 51 24 27 -13 -17 -26 -17 -27 21 -65 40 -41
67 -55 85 -43 7 4 -5 22 -31 49 -33 34 -43 52 -47 87 -4 36 -1 45 16 56 20 12
21 10 21 -42 0 -59 13 -78 48 -70 18 5 22 16 28 65 10 92 24 80 24 -21 0 -61
3 -89 10 -85 7 4 9 -2 4 -19 -5 -21 -3 -26 14 -26 11 0 27 -10 35 -22 13 -19
12 -12 -3 37 -10 33 -20 85 -24 115 -6 53 -5 52 29 -43 32 -88 79 -177 93
-177 3 0 21 19 40 41 32 38 35 46 33 96 -1 30 3 69 11 87 13 30 13 29 18 -44
l5 -75 18 26 c10 15 20 55 24 92 6 70 23 83 23 18 0 -45 19 -75 46 -70 22 5
30 60 17 124 -8 36 -12 40 -41 43 -19 2 -32 9 -32 17 0 10 7 12 30 5 23 -7 30
-5 30 6 0 8 9 14 20 14 11 0 20 -4 20 -10 0 -5 5 -10 10 -10 6 0 10 24 11 53
1 28 5 63 9 77 7 21 8 19 9 -16 1 -37 5 -43 34 -55 17 -8 35 -14 38 -14 3 0
13 -8 23 -17 26 -26 64 -23 77 6 17 38 4 69 -44 103 -26 18 -49 44 -55 62 -14
40 -8 39 32 -4 41 -43 58 -44 90 -2 l26 32 0 -32 c0 -22 -7 -37 -22 -48 -19
-13 -21 -18 -10 -35 23 -38 8 -130 -22 -130 -7 0 -20 -7 -27 -16 -11 -14 -10
-18 5 -30 28 -20 53 -1 59 43 3 21 10 71 17 111 12 71 13 72 33 59 51 -33 61
-61 61 -164 0 -68 -6 -112 -17 -142 -10 -24 -16 -46 -14 -48 2 -2 17 3 33 11
16 8 58 19 93 25 35 6 66 12 68 15 3 2 -9 12 -26 20 -27 15 -51 61 -51 102 0
6 -15 15 -32 20 -29 9 -33 14 -36 49 -3 29 1 43 14 52 25 19 30 16 29 -14 0
-14 6 -28 13 -30 6 -3 12 3 12 12 0 9 5 13 10 10 6 -3 10 -14 10 -25 0 -10 8
-21 17 -24 14 -6 15 -9 4 -15 -9 -6 -11 -18 -6 -40 7 -33 14 -38 33 -19 20 20
27 -2 10 -32 -18 -32 -10 -40 38 -40 27 0 30 10 13 43 -12 21 -11 21 8 4 11
-9 22 -14 25 -11 3 3 22 7 41 9 19 1 43 7 53 13 15 8 11 12 -27 29 -69 31
-146 83 -123 83 10 0 36 -9 55 -19 l36 -20 11 24 c10 21 7 24 -46 48 -31 13
-89 37 -129 51 -95 36 -178 91 -235 156 -65 74 -85 114 -69 134 11 13 19 8 55
-42 24 -31 54 -66 67 -77 17 -14 16 -11 -5 13 -16 17 -26 35 -23 39 4 4 49
-14 100 -40 50 -25 112 -51 137 -56 63 -15 137 -14 146 2 4 6 4 9 -1 5 -5 -5
-14 1 -22 12 -11 16 -26 20 -71 20 -76 0 -165 42 -241 115 -32 30 -65 55 -74
55 -8 0 -29 11 -46 25 -29 25 -30 25 -40 6 -6 -11 -11 -30 -11 -44 0 -36 -38
-146 -70 -202 -35 -61 -156 -195 -176 -195 -22 0 -110 86 -161 158 -25 34 -48
62 -52 62 -4 0 -20 -17 -34 -38 -33 -45 -147 -143 -159 -136 -21 13 -149 218
-199 318 -50 100 -54 115 -54 178 0 57 -3 67 -15 62 -8 -3 -27 -8 -42 -11 -38
-7 -35 -21 4 -25 46 -4 45 -24 -1 -47 l-40 -21 -6 21 c-7 20 -7 20 -34 -5 -15
-14 -33 -26 -40 -26 -23 0 -151 -160 -151 -190 0 -6 34 19 76 54 84 72 118 85
162 62 28 -14 31 -14 52 9 33 35 45 31 23 -6 -23 -41 -131 -134 -163 -142 -14
-4 -60 -14 -102 -23 -58 -13 -79 -22 -83 -35 -4 -11 -10 -19 -14 -19 -21 0
-63 138 -83 274 -3 18 -5 17 -20 -6 -15 -23 -16 -31 -4 -65 8 -21 22 -65 31
-98 23 -80 52 -128 74 -120 9 3 49 13 90 20 48 10 95 27 133 50 59 35 116 48
102 22 -3 -6 8 5 25 26 30 34 61 49 61 28 0 -5 -16 -33 -36 -62 -61 -93 -131
-144 -299 -220 -65 -30 -112 -55 -103 -57 9 -2 18 -12 21 -22 5 -19 7 -19 63
6 54 24 57 24 40 5 -19 -21 -93 -61 -114 -61 -7 0 -12 6 -12 14 0 8 -14 49
-31 91 -33 82 -68 229 -69 284 0 30 -2 33 -24 27 -21 -5 -26 -1 -35 27 -8 25
-6 52 8 123 19 94 45 155 90 214 19 24 31 57 39 107 11 67 57 183 73 183 4 0
12 -15 19 -34 9 -28 7 -44 -10 -96 -12 -34 -20 -66 -18 -71 2 -5 43 11 92 35
78 39 85 41 64 18 l-23 -26 32 23 c18 12 41 33 53 48 l20 26 0 -27 c0 -33 -64
-105 -126 -141 -24 -14 -72 -31 -107 -38 -61 -12 -62 -12 -20 -15 l41 -3 -19
-45 c-22 -49 -39 -207 -18 -167 20 38 95 38 120 1 4 -6 26 15 50 46 43 55 67
69 35 20 -23 -34 -16 -39 19 -13 24 19 26 27 20 58 -19 97 -22 140 -14 185 8
46 46 122 56 113 2 -3 -3 -31 -12 -62 -15 -48 -15 -64 -5 -102 8 -27 16 -40
20 -32 6 9 17 6 43 -10 29 -18 36 -19 46 -7 19 23 64 30 77 11 10 -14 17 -10
57 29 40 41 46 44 58 30 12 -14 9 -20 -14 -39 -16 -12 -59 -37 -97 -55 -40
-19 -66 -38 -63 -44 4 -6 10 -26 14 -46 l7 -35 1 33 c1 43 12 40 33 -9 23 -56
43 -40 52 41 6 53 9 59 22 46 7 -8 14 -21 14 -28 0 -7 12 6 25 29 24 40 27 41
44 25 23 -22 16 -35 -59 -116 -75 -79 -77 -101 -17 -140 16 -10 43 -40 59 -67
17 -27 33 -49 34 -49 2 0 1 55 -3 122 -4 89 -3 119 5 114 17 -10 32 -74 32
-134 0 -47 4 -57 35 -89 20 -20 38 -47 41 -60 6 -22 8 -23 24 -8 9 8 20 12 23
8 17 -17 4 13 -24 53 -57 83 -91 171 -97 245 -4 59 -2 69 10 64 10 -4 18 -26
22 -58 4 -29 12 -68 18 -87 12 -39 83 -144 118 -175 22 -19 22 -17 -4 26 -35
61 -59 178 -51 242 5 35 10 46 18 38 16 -16 57 -158 65 -225 l7 -59 34 38 c46
52 87 144 96 210 7 57 25 76 25 27 0 -88 -40 -204 -96 -279 -24 -32 -29 -58
-18 -87 4 -12 16 -3 44 33 47 59 57 66 74 52 22 -18 36 39 36 145 0 94 0 94
20 74 16 -16 20 -33 20 -90 0 -39 -6 -86 -15 -106 -8 -19 -11 -32 -6 -30 5 3
14 19 21 36 10 24 19 30 42 30 16 0 38 -5 49 -10 17 -10 20 -7 25 20 4 16 11
30 16 30 5 0 -5 15 -22 32 -61 65 -118 175 -144 281 -10 41 8 33 29 -13 14
-32 21 -38 32 -29 10 9 16 4 28 -24 17 -41 20 -81 5 -72 -15 9 -12 -12 5 -45
16 -30 29 -41 19 -16 -7 18 22 46 48 46 11 0 27 -8 34 -17 11 -14 10 -8 -1 26
-19 55 -19 54 5 48 17 -4 20 0 20 34 0 39 0 39 -24 24 -22 -15 -28 -15 -53 -2
-41 22 -64 51 -83 108 l-17 50 -27 -45 c-29 -50 -83 -96 -111 -96 -10 0 -35
18 -57 41 -31 32 -39 37 -44 24 -4 -9 -1 -28 5 -42 11 -25 12 -25 27 -7 14 18
15 15 10 -28 -3 -25 -7 -52 -8 -60 -2 -7 3 -12 11 -10 12 2 13 -12 8 -84 -3
-48 -11 -92 -16 -97 -15 -15 -42 37 -57 110 -18 83 -13 98 14 53 l22 -35 0 32
c0 18 -9 47 -20 65 -11 18 -20 43 -20 56 0 23 -2 22 -42 -12 -23 -20 -51 -36
-63 -36 -31 0 -110 72 -133 123 -12 23 -22 62 -24 87 -3 42 -1 45 22 45 21 0
26 -6 33 -42 8 -41 10 -43 43 -43 20 0 34 -5 34 -12 0 -28 23 14 35 64 l13 53
1 -43 c1 -24 -6 -57 -15 -75 -13 -25 -14 -32 -3 -36 7 -2 23 -14 35 -26 l23
-23 22 24 c21 23 22 27 10 57 -8 18 -16 49 -18 70 -5 34 -3 38 13 35 11 -2 24
-20 33 -43 23 -62 25 -61 52 17 18 51 18 51 18 18 0 -19 -6 -53 -14 -75 -13
-37 -13 -41 7 -62 l21 -23 11 23 c13 25 45 35 56 17 11 -17 40 40 40 77 0 15
4 35 10 43 6 11 -4 28 -43 70 -29 30 -54 56 -57 58 -3 1 -11 -13 -18 -31 -7
-19 -23 -44 -36 -56 -20 -18 -28 -21 -44 -12 -24 13 -57 65 -66 105 l-7 28
-35 -40 c-52 -61 -97 -86 -141 -77 -21 4 -42 14 -48 22 -10 14 -17 13 -57 -11
-44 -25 -109 -35 -134 -18 -22 14 -54 91 -60 146 -5 39 -2 70 10 106 15 45 15
52 1 73 -11 17 -12 31 -6 55 9 31 8 32 -19 32 -16 0 -31 4 -34 9 -7 11 -89
-65 -105 -96 -14 -27 -14 -44 0 -20 13 22 46 22 86 -2 27 -17 33 -18 43 -6 7
8 16 12 22 9 12 -8 -7 -30 -56 -66 -42 -30 -111 -39 -134 -16 -7 7 -12 8 -12
4 0 -11 43 -45 58 -46 9 0 10 -5 2 -19 -15 -28 -13 -31 16 -31 18 0 38 -12 61
-36 21 -23 39 -34 49 -30 11 4 14 1 12 -12 -8 -43 -217 -105 -239 -71 -13 21
-10 139 6 182 13 38 13 39 -8 33 -107 -31 -232 -31 -244 0 -3 8 -1 33 5 56 6
23 9 44 7 47 -3 2 -37 -10 -77 -27 l-73 -31 40 -1 c22 -1 34 -4 26 -7 -9 -4
-3 -10 18 -19 17 -7 31 -20 31 -30 0 -10 5 -14 14 -11 8 3 22 0 32 -7 17 -13
16 -14 -5 -25 -38 -21 -123 -29 -206 -21 -79 8 -110 5 -67 -7 12 -3 22 -6 22
-8 0 -1 -18 -41 -40 -88 -43 -91 -51 -122 -22 -88 25 31 74 42 107 25 15 -8
29 -14 31 -14 2 0 25 31 52 69 l48 69 62 -21 63 -20 -22 -23 c-12 -13 -37 -30
-56 -39 -32 -15 -36 -15 -52 -1 -24 22 -25 21 -55 -24 l-26 -40 31 0 c16 0 39
-4 49 -10 14 -8 26 -1 62 38 24 26 62 72 84 102 54 72 66 82 81 65 10 -11 -10
-37 -110 -138 -105 -108 -130 -128 -180 -146 -32 -12 -69 -21 -84 -21 -21 0
-24 -2 -13 -15 7 -8 18 -15 26 -15 28 0 125 42 185 81 59 38 64 40 76 23 7
-10 13 -26 13 -36 0 -26 -70 -73 -164 -109 -68 -27 -99 -33 -188 -37 l-107 -5
-3 79 -3 79 -13 -44 c-8 -24 -14 -62 -15 -84 l-2 -41 80 -28 c81 -29 88 -29
222 -15 14 1 34 20 53 49 36 54 45 62 61 53 7 -5 6 -12 -4 -23 -55 -63 -117
-225 -117 -307 0 -63 7 -72 32 -40 11 14 24 25 30 25 7 0 1 -12 -13 -26 l-24
-27 28 7 c21 5 28 3 25 -6 -3 -7 -17 -14 -31 -16 -28 -3 -38 -34 -16 -47 13
-9 58 32 70 63 5 13 17 22 29 22 19 0 19 -2 -6 -39 -14 -22 -43 -51 -64 -66
-36 -25 -49 -42 -55 -71 -2 -6 -6 -21 -10 -33 -6 -19 0 -17 54 15 39 23 58 40
54 50 -4 11 -13 10 -46 -7 l-42 -20 35 31 c19 16 38 30 42 30 4 0 8 6 8 14 0
8 7 17 16 20 26 10 30 6 10 -9 -21 -16 -14 -50 9 -41 9 3 19 -3 25 -14 9 -18
3 -25 -58 -65 -104 -67 -123 -74 -136 -51 -6 10 -38 53 -71 94 -33 41 -68 86
-77 101 -23 33 -24 101 -3 101 16 0 19 -6 29 -50 7 -34 104 -172 116 -165 5 3
-7 28 -25 55 -49 73 -72 196 -39 207 8 3 15 -16 19 -49 9 -60 29 -122 51 -157
26 -39 34 -5 12 52 -26 67 -21 180 10 249 l21 48 -58 -29 c-31 -16 -75 -33
-97 -37 -38 -6 -114 -40 -114 -49 0 -3 17 2 38 10 20 7 57 19 82 25 25 6 54
14 65 16 14 4 10 -1 -10 -15 -27 -19 -140 -59 -218 -77 -15 -3 -30 -11 -33
-16 -8 -13 69 -1 115 18 43 18 43 18 29 -11 -12 -27 -44 -39 -133 -50 -27 -4
-59 -9 -69 -12 -15 -4 -18 -2 -11 13 4 11 11 32 16 48 8 26 7 27 -9 14 -9 -9
-30 -18 -45 -22 l-29 -7 34 -38 c45 -53 96 -72 193 -75 43 -1 50 -4 50 -21 0
-16 -7 -19 -42 -20 -22 0 -39 -3 -36 -7 2 -5 18 -8 34 -8 24 0 49 -18 127 -94
79 -76 104 -94 136 -99 38 -6 38 -6 33 22 -6 27 -4 29 29 33 35 4 37 2 84 -69
26 -40 44 -73 39 -73 -15 0 -78 60 -84 81 -6 19 -8 19 -24 5 -10 -9 -24 -16
-31 -16 -7 0 2 -11 21 -25 85 -62 125 -85 158 -91 20 -4 43 -10 51 -15 9 -5
21 -2 32 8 16 14 18 13 24 -12 6 -24 10 -26 37 -21 16 3 33 6 37 6 3 0 1 28
-6 62 -16 76 -18 132 -4 123 6 -3 10 -17 10 -31 0 -14 6 -24 14 -24 22 0 30
19 12 26 -22 8 -20 36 2 32 12 -2 18 -14 20 -40 3 -33 0 -38 -23 -44 -20 -5
-23 -9 -14 -20 6 -8 15 -11 20 -8 5 3 9 -2 9 -11 0 -27 30 -78 73 -122 22 -24
38 -45 34 -49 -9 -9 -72 32 -100 66 -24 28 -25 28 -63 15 -24 -9 -31 -14 -18
-15 11 0 47 -18 81 -40 33 -21 72 -42 87 -46 14 -3 26 -10 26 -14 0 -18 61
-30 140 -28 81 3 88 1 145 -32 33 -19 76 -43 96 -53 20 -10 45 -27 55 -39 l19
-21 -83 7 c-383 31 -803 201 -1162 470 -145 109 -394 361 -511 517 -257 346
-407 735 -439 1144 -7 77 -14 142 -17 145 -3 3 -3 -65 0 -150z m1842 -750 c3
-11 15 -22 25 -25 10 -3 20 -16 22 -28 3 -20 5 -18 25 15 19 33 25 36 50 29
15 -4 29 -15 31 -24 4 -20 -76 -108 -134 -148 l-42 -28 -6 31 c-3 17 -6 70 -6
119 0 73 2 87 15 83 8 -3 17 -14 20 -24z m457 -869 c28 113 30 111 28 -46 0
-95 9 -139 27 -121 4 4 7 45 5 91 -2 50 1 86 8 90 6 3 10 -4 11 -17 0 -13 3
-18 5 -11 4 8 12 5 26 -9 l20 -20 -27 -60 c-15 -33 -25 -62 -22 -64 3 -3 24
24 48 60 24 36 47 66 52 66 12 0 -2 -39 -26 -75 -23 -34 -118 -135 -128 -135
-18 0 -146 200 -163 258 -12 38 12 24 35 -20 29 -58 90 -150 96 -144 2 2 -11
35 -31 73 -36 73 -53 134 -41 153 4 7 18 -22 33 -65 l25 -76 19 72z m-358 56
c28 -21 16 -41 -12 -22 -22 16 -30 35 -14 35 5 0 16 -6 26 -13z m776 5 c0 -4
-9 -13 -20 -20 -16 -10 -20 -10 -20 1 0 8 3 17 7 20 9 9 33 9 33 -1z m-770
-55 c12 -4 12 -6 -3 -12 -20 -9 -57 19 -57 43 0 12 5 11 23 -5 12 -11 29 -23
37 -26z m772 -9 c-12 -12 -65 -2 -57 11 3 5 14 7 24 4 10 -3 22 1 27 8 6 11 8
11 12 0 2 -7 0 -17 -6 -23z m-837 -8 c0 -8 -10 -16 -22 -18 -18 -3 -23 2 -23
18 0 16 5 21 23 18 12 -2 22 -10 22 -18z m899 12 c8 -14 -11 -34 -29 -30 -25
4 -30 25 -8 31 29 7 32 7 37 -1z m-437 -287 c32 47 38 44 13 -5 -11 -21 -20
-43 -20 -47 0 -13 19 12 40 52 l21 40 -5 -33 c-3 -19 -15 -54 -26 -80 l-20
-45 -26 34 c-31 42 -70 124 -78 164 -5 21 6 8 36 -42 l42 -72 23 34z m671 75
c-14 -22 -33 -26 -44 -9 -8 13 13 29 39 29 15 0 15 -3 5 -20z"/>
<path d="M2576 704 c-3 -9 -6 -23 -6 -32 1 -12 5 -10 15 8 8 14 14 28 15 33 0
13 -18 7 -24 -9z"/>
<path d="M2700 2516 c0 -14 56 -33 67 -23 4 5 -49 37 -62 37 -3 0 -5 -6 -5
-14z"/>
<path d="M2034 2495 c17 -147 113 -269 267 -340 60 -27 162 -56 194 -54 11 1
-8 7 -41 14 -84 19 -174 57 -229 96 -55 40 -143 144 -151 179 -3 14 -12 41
-19 60 -8 19 -16 44 -19 55 -3 11 -4 7 -2 -10z"/>
<path d="M3097 2481 c-3 -13 3 -22 18 -29 42 -19 103 -32 119 -26 15 6 15 8
-2 20 -14 9 -119 54 -128 54 -1 0 -4 -9 -7 -19z"/>
<path d="M2657 2478 c-14 -12 -14 -16 8 -43 28 -33 45 -28 21 7 -24 34 -19 44
9 18 18 -17 28 -21 36 -13 8 8 3 16 -19 27 -37 19 -34 19 -55 4z"/>
<path d="M3031 2474 c0 -11 3 -14 6 -6 3 7 2 16 -1 19 -3 4 -6 -2 -5 -13z"/>
<path d="M1745 2470 c-19 -8 -19 -9 3 -9 12 -1 22 4 22 9 0 6 -1 10 -2 9 -2 0
-12 -4 -23 -9z"/>
<path d="M2243 2473 c-17 -6 -16 -33 1 -33 20 0 40 26 24 32 -7 3 -19 3 -25 1z"/>
<path d="M3460 2470 c-35 -7 -35 -7 -5 -9 17 0 37 4 45 9 17 11 11 11 -40 0z"/>
<path d="M1553 2434 c-67 -43 -75 -64 -22 -57 35 5 41 3 46 -16 7 -27 23 -28
23 -1 0 11 16 37 35 59 l35 39 -34 4 c-25 3 -46 -4 -83 -28z"/>
<path d="M1883 2460 c-42 -17 -24 -30 40 -31 l62 -1 -36 -16 c-35 -16 -79 -68
-79 -94 0 -7 10 3 21 22 21 34 37 50 51 50 4 0 -2 -16 -14 -35 -26 -45 -18
-53 27 -26 72 42 71 17 -1 -29 l-44 -27 36 -6 c24 -4 47 -1 66 9 47 25 45 8
-5 -39 -33 -30 -47 -51 -46 -68 l1 -24 7 25 c6 20 13 25 36 23 16 -1 44 7 62
18 54 34 40 -4 -17 -46 -39 -29 -26 -32 49 -9 29 8 55 13 59 10 4 -5 -51 -32
-99 -49 -15 -5 -35 -54 -27 -63 2 -2 23 4 47 12 52 18 60 13 29 -16 -18 -16
-19 -20 -5 -14 10 3 34 30 53 58 20 31 34 44 34 33 0 -11 4 -15 12 -11 7 5 9
2 5 -9 -20 -53 -27 -97 -17 -121 12 -34 17 -33 13 2 -2 15 7 49 21 77 l25 50
-6 -69 c-7 -85 11 -88 44 -5 20 51 22 52 28 26 4 -14 2 -41 -4 -59 -11 -33
-10 -33 30 12 31 35 39 40 34 21 -5 -16 -4 -21 4 -17 7 5 11 -3 12 -21 1 -27
1 -27 9 5 12 52 20 50 20 -4 0 -50 12 -74 37 -74 10 0 12 14 8 58 -6 57 -6 57
12 33 10 -14 23 -38 28 -54 12 -37 40 -56 56 -40 9 9 7 11 -9 6 -17 -4 -24 1
-32 22 -14 36 -14 96 0 75 8 -13 11 -13 19 -1 15 23 31 2 32 -42 l1 -42 12 47
c6 25 14 50 18 54 9 8 28 -38 29 -74 2 -24 2 -24 6 -4 6 29 21 28 33 -3 6 -15
17 -25 30 -25 26 0 25 16 -5 65 -14 22 -25 44 -25 49 0 17 52 -38 66 -69 18
-40 18 -13 0 30 -17 41 -8 54 16 23 l18 -23 -6 31 c-7 35 11 56 21 25 3 -11
19 -36 35 -56 16 -21 27 -41 24 -46 -6 -10 82 -69 102 -69 7 0 16 4 19 10 3 6
-1 7 -10 4 -25 -10 -87 63 -107 127 -21 66 -22 75 -5 62 19 -15 49 -24 42 -13
-12 19 29 10 52 -12 34 -32 29 -2 -8 47 -35 46 -23 58 24 22 40 -30 92 -57
109 -57 7 1 -1 7 -17 14 -44 19 -106 96 -78 96 4 0 21 -14 39 -31 31 -30 54
-32 54 -5 0 7 -14 32 -31 55 -23 33 -26 40 -10 32 11 -6 31 -26 46 -43 21 -26
24 -27 14 -8 -7 14 -23 40 -37 58 -38 50 -17 59 52 22 66 -34 110 -41 56 -9
-41 25 -90 69 -90 82 0 5 30 -8 66 -28 36 -20 68 -34 72 -31 3 4 1 26 -5 49
l-11 42 19 -24 c10 -13 19 -19 19 -14 0 11 -33 43 -44 43 -4 0 -22 11 -40 25
-18 14 -37 25 -42 25 -5 0 -20 -25 -33 -55 -38 -89 -134 -184 -238 -238 -49
-24 -113 -50 -143 -58 -74 -18 -230 -15 -308 5 -150 38 -293 156 -359 295 -37
78 -39 80 -73 80 -19 0 -45 -4 -57 -9z"/>
<path d="M2782 2458 c8 -22 36 -34 50 -20 10 10 10 15 -2 22 -21 14 -52 12
-48 -2z"/>
<path d="M2875 2450 c-16 -18 -15 -20 34 -44 49 -25 51 -25 61 -7 14 28 13 31
-15 31 -14 0 -34 9 -44 19 -19 19 -20 19 -36 1z"/>
<path d="M3324 2462 c3 -5 -8 -25 -24 -44 -27 -33 -28 -36 -12 -50 31 -27 39
-28 78 -8 48 25 55 25 88 -1 14 -11 26 -16 26 -11 0 28 -17 46 -62 67 -30 14
-44 25 -36 29 7 3 0 4 -15 1 -17 -3 -26 -2 -23 4 3 5 -1 12 -10 15 -8 3 -13 2
-10 -2z"/>
<path d="M1800 2449 c0 -30 33 -61 55 -53 19 8 18 8 -5 14 -14 3 -30 17 -37
30 -9 17 -13 20 -13 9z"/>
<path d="M2431 2425 c-11 -19 -16 -35 -11 -35 10 0 50 49 50 61 0 20 -19 7
-39 -26z"/>
<path d="M2610 2450 c-8 -5 -28 -10 -44 -10 -28 0 -29 0 -22 -48 5 -41 3 -52
-14 -67 -26 -23 -26 -35 1 -28 12 3 18 11 15 19 -3 8 -1 14 4 14 5 0 12 -9 15
-20 3 -11 10 -20 14 -20 17 0 19 13 6 34 -18 28 -31 106 -17 106 6 0 13 -13
17 -30 4 -17 13 -30 22 -30 10 0 13 5 8 18 -22 52 -13 73 13 32 20 -32 34 -23
17 10 -18 34 -15 33 -35 20z"/>
<path d="M1711 2429 c-46 -20 -46 -34 -1 -42 19 -3 15 -5 -12 -6 -20 0 -39 -5
-42 -10 -6 -10 21 -16 112 -27 63 -7 77 1 48 25 -8 7 -22 27 -31 46 -9 19 -19
35 -23 35 -4 0 -27 -9 -51 -21z"/>
<path d="M2477 2428 c-2 -13 -8 -31 -12 -40 -4 -10 -3 -18 2 -18 13 0 45 59
38 70 -10 17 -22 11 -28 -12z"/>
<path d="M3030 2437 c0 -7 -11 -29 -25 -49 -28 -42 -32 -56 -10 -38 8 7 15 19
15 26 0 8 4 14 9 14 5 0 14 14 20 30 6 18 6 30 0 30 -5 0 -9 -6 -9 -13z"/>
<path d="M3269 2433 c-13 -16 -12 -17 4 -4 16 13 21 21 13 21 -2 0 -10 -8 -17
-17z"/>
<path d="M3480 2439 c0 -6 9 -22 20 -36 11 -14 23 -43 26 -64 7 -43 11 -43 94
-13 34 12 33 12 -22 7 -48 -5 -58 -3 -58 10 0 20 27 47 47 47 24 0 10 22 -27
42 -38 20 -80 24 -80 7z"/>
<path d="M280 2418 c0 -28 8 -39 42 -61 15 -9 35 -31 44 -48 l16 -31 25 38
c20 32 23 35 20 14 -2 -14 -8 -34 -13 -45 -5 -14 0 -11 17 9 38 43 55 29 23
-18 l-27 -39 28 -23 29 -23 39 45 c22 25 42 43 44 40 3 -3 -7 -29 -21 -60 -18
-39 -26 -71 -26 -111 0 -51 2 -56 26 -66 15 -5 28 -8 29 -7 11 18 45 80 45 84
0 2 -6 4 -14 4 -7 0 -25 10 -40 21 -33 26 -29 59 11 101 14 15 27 41 28 58 2
25 -1 30 -21 30 -34 0 -181 48 -246 81 l-58 29 0 -22z"/>
<path d="M2266 2429 c-14 -9 -16 -13 -5 -20 14 -8 39 6 39 22 0 12 -11 11 -34
-2z"/>
<path d="M2306 2415 c-11 -43 14 -62 33 -26 8 14 6 22 -8 35 -18 16 -19 16
-25 -9z"/>
<path d="M2516 2415 c-4 -17 -9 -38 -12 -47 -3 -10 -1 -18 5 -18 11 0 25 62
19 82 -3 7 -8 -1 -12 -17z"/>
<path d="M2741 2416 c-18 -19 -21 -28 -12 -43 9 -15 10 -15 11 -2 0 9 13 20
31 25 30 9 31 9 12 26 -19 17 -21 17 -42 -6z"/>
<path d="M3400 2436 c0 -2 7 -7 16 -10 8 -3 12 -2 9 4 -6 10 -25 14 -25 6z"/>
<path d="M4873 2405 c0 -22 2 -30 4 -17 2 12 2 30 0 40 -3 9 -5 -1 -4 -23z"/>
<path d="M4700 2383 c-58 -24 -129 -47 -157 -50 -34 -4 -53 -11 -53 -19 0 -7
-2 -18 -5 -26 -3 -7 8 -20 25 -30 34 -19 66 -78 57 -103 -4 -9 -20 -21 -36
-26 l-29 -10 17 -40 c12 -28 22 -39 38 -39 31 0 34 10 27 91 -6 60 -12 78 -41
116 -41 53 -13 43 37 -13 l32 -37 35 17 c39 18 39 18 -21 85 -29 32 -30 33 -6
21 14 -7 36 -22 49 -34 27 -23 19 -3 -12 32 -30 32 2 30 33 -3 21 -22 25 -24
33 -9 5 9 24 22 43 30 28 12 34 20 34 44 0 17 5 30 10 30 6 0 10 5 10 10 0 14
-2 13 -120 -37z"/>
<path d="M2352 2373 c-8 -15 -9 -24 -1 -28 15 -10 21 0 17 27 l-3 23 -13 -22z"/>
<path d="M2672 2377 c-15 -17 10 -49 32 -41 10 4 15 13 12 21 -3 8 -6 19 -6
24 0 13 -26 11 -38 -4z"/>
<path d="M2404 2355 c25 -19 36 -19 36 0 0 10 -10 15 -27 15 -27 -1 -27 -1 -9
-15z"/>
<path d="M2620 2345 c-18 -21 -6 -45 19 -38 24 6 27 25 7 42 -10 9 -16 8 -26
-4z"/>
<path d="M2457 2336 c-9 -24 -10 -24 13 -36 24 -13 28 6 7 34 -13 18 -14 18
-20 2z"/>
<path d="M1385 2296 c-43 -46 -63 -82 -52 -93 3 -3 30 4 59 15 29 10 77 25
107 32 l55 13 -44 17 c-24 9 -52 27 -62 40 l-19 23 -44 -47z"/>
<path d="M636 2322 c2 -3 -4 -11 -14 -18 -9 -7 -13 -16 -9 -20 4 -4 15 0 24 9
12 11 14 20 7 26 -6 5 -9 6 -8 3z"/>
<path d="M1564 2318 c-7 -10 15 -9 41 2 17 7 16 8 -8 7 -16 -1 -31 -5 -33 -9z"/>
<path d="M1806 2317 c-16 -12 -16 -14 -2 -26 19 -16 36 -6 36 20 0 22 -9 24
-34 6z"/>
<path d="M2921 2275 c-30 -30 -59 -55 -66 -55 -7 0 -15 -7 -19 -15 -5 -13 -2
-14 16 -4 41 22 145 129 126 129 -2 0 -28 -25 -57 -55z"/>
<path d="M3290 2311 c0 -5 7 -12 16 -15 14 -5 15 -4 4 9 -14 17 -20 19 -20 6z"/>
<path d="M3806 2313 l-69 -4 28 -29 c15 -16 33 -27 38 -23 6 3 7 1 3 -5 -4 -7
1 -23 11 -37 16 -22 25 -24 86 -25 38 0 67 4 67 10 0 6 -10 10 -23 10 -30 0
-131 30 -124 36 3 3 21 1 40 -4 23 -7 53 -6 92 2 54 11 56 12 38 27 -28 25
-80 49 -100 47 -10 -1 -49 -4 -87 -5z"/>
<path d="M1665 2300 c3 -5 8 -10 11 -10 2 0 4 5 4 10 0 6 -5 10 -11 10 -5 0
-7 -4 -4 -10z"/>
<path d="M4862 2290 c0 -14 2 -19 5 -12 2 6 2 18 0 25 -3 6 -5 1 -5 -13z"/>
<path d="M2303 2270 c-18 -28 -20 -36 -8 -38 8 -2 27 9 42 24 17 16 21 24 11
21 -11 -4 -18 0 -20 11 -2 12 -9 7 -25 -18z"/>
<path d="M3228 2277 c-3 -19 -2 -25 4 -19 6 6 8 18 6 28 -3 14 -5 12 -10 -9z"/>
<path d="M3630 2285 c-14 -7 -47 -16 -75 -20 -47 -6 -146 -26 -154 -31 -2 -2
12 -22 32 -46 19 -24 44 -61 55 -84 22 -42 104 -114 132 -114 9 0 21 -5 28
-12 9 -9 12 -9 12 0 0 28 -33 74 -80 111 -51 40 -54 51 -12 51 24 0 94 -62
117 -103 6 -10 27 -22 47 -26 33 -8 36 -7 29 8 -5 9 -19 25 -30 35 -24 22 -27
36 -7 36 20 0 103 -95 117 -135 l12 -33 114 -7 c63 -4 116 -5 119 -3 9 9 -76
107 -106 123 -16 8 -51 16 -77 16 -26 1 -61 5 -78 9 -18 5 4 6 55 3 47 -3 97
-12 111 -19 15 -7 50 -39 77 -71 28 -32 54 -54 58 -51 10 11 -34 75 -79 113
-41 35 -41 48 1 19 18 -13 29 -13 57 -4 27 9 40 8 65 -5 38 -20 93 -94 119
-160 26 -66 26 -35 1 48 -19 62 -81 159 -127 200 -19 16 -22 16 -64 -2 -24
-11 -67 -23 -95 -26 -55 -8 -168 11 -159 26 4 5 -5 5 -20 -1 -36 -14 -134 -13
-176 2 -47 16 -135 71 -121 76 6 2 46 -8 87 -23 48 -16 92 -25 118 -23 41 3
40 4 -53 36 -156 53 -163 73 -11 29 91 -27 98 -22 50 36 -33 40 -50 44 -89 22z"/>
<path d="M1790 2258 c-53 -20 -113 -23 -143 -6 -35 19 -84 9 -205 -40 -78 -31
-109 -49 -102 -56 16 -16 198 -11 247 7 37 14 43 14 54 1 10 -12 9 -18 -2 -29
-17 -18 -159 -55 -208 -55 -22 0 -31 -3 -24 -8 9 -6 1 -19 -28 -48 -47 -45
-80 -96 -36 -56 22 21 33 23 101 20 67 -3 76 -1 85 17 8 16 10 9 10 -33 1 -49
2 -52 21 -42 11 6 35 10 52 9 18 -1 57 8 87 19 41 16 58 19 68 10 15 -12 15
-13 31 26 16 36 10 42 -53 50 -49 6 -51 5 -120 -50 -38 -30 -71 -51 -73 -46
-6 18 38 118 69 155 36 44 48 43 24 -3 -19 -37 -19 -36 20 -46 25 -6 28 -5 19
7 -7 8 -14 31 -16 51 -3 33 1 42 37 78 23 22 55 44 73 49 33 10 46 -3 14 -13
-11 -4 -30 -19 -43 -33 -13 -15 -16 -21 -6 -14 24 19 21 -1 -5 -35 -20 -26
-20 -27 -2 -11 28 24 49 21 72 -8 19 -24 21 -24 60 -11 22 8 43 12 46 9 3 -4
6 10 6 31 0 29 -5 38 -22 45 -26 10 -54 39 -59 61 -4 14 -9 14 -49 -2z"/>
<path d="M1894 2253 c12 -14 29 -22 45 -22 l26 2 -25 4 c-14 3 -34 12 -45 21
-20 17 -20 17 -1 -5z"/>
<path d="M3280 2255 c0 -7 -7 -19 -16 -26 -9 -8 -26 -34 -37 -59 -12 -25 -23
-48 -25 -51 -1 -4 13 -10 32 -13 26 -5 45 0 82 19 32 17 60 25 81 23 27 -3 30
-2 20 11 -7 8 -30 28 -52 44 -39 29 -40 30 -10 24 29 -6 29 -6 5 5 -14 6 -37
17 -52 24 -23 10 -28 10 -28 -1z"/>
<path d="M4443 2247 c-18 -6 -33 -14 -33 -17 0 -3 17 -23 38 -43 34 -34 42
-37 65 -28 15 6 27 17 27 25 0 16 -48 77 -58 75 -4 -1 -22 -7 -39 -12z"/>
<path d="M2513 2224 c-9 -24 10 -68 32 -72 21 -5 45 22 45 50 0 9 -10 22 -22
29 -19 10 -20 9 -13 -7 12 -32 11 -49 -5 -49 -11 0 -15 10 -14 33 2 34 -12 44
-23 16z"/>
<path d="M3122 2193 c16 -24 37 -43 47 -43 41 0 59 60 19 60 -13 1 -39 7 -59
14 l-36 13 29 -44z"/>
<path d="M4852 2215 c0 -16 2 -22 5 -12 2 9 2 23 0 30 -3 6 -5 -1 -5 -18z"/>
<path d="M338 2173 c-20 -51 -16 -70 29 -136 19 -28 39 -70 46 -94 6 -24 14
-43 18 -43 10 0 37 126 43 201 l5 66 -39 16 c-39 15 -40 15 -40 -6 0 -12 9
-35 20 -52 22 -33 28 -129 10 -140 -16 -10 -62 103 -69 170 l-6 60 -17 -42z"/>
<path d="M2312 2201 c-11 -7 -11 -9 2 -14 10 -4 16 -1 16 8 0 17 -1 17 -18 6z"/>
<path d="M4660 2183 c-19 -8 -36 -16 -38 -17 -3 -4 19 -66 25 -66 2 0 20 12
39 27 23 17 34 33 32 46 -4 27 -15 29 -58 10z"/>
<path d="M855 2107 c-59 -63 -109 -143 -98 -160 3 -5 16 9 30 30 14 21 60 73
102 116 67 68 73 77 51 77 -17 0 -43 -19 -85 -63z"/>
<path d="M2425 2161 c-3 -5 -1 -12 5 -16 5 -3 10 1 10 9 0 18 -6 21 -15 7z"/>
<path d="M2730 2150 c-19 -11 -30 -19 -25 -19 6 0 26 8 45 19 19 11 31 19 25
19 -5 0 -26 -8 -45 -19z"/>
<path d="M2595 2150 c-3 -5 -2 -10 4 -10 5 0 13 5 16 10 3 6 2 10 -4 10 -5 0
-13 -4 -16 -10z"/>
<path d="M4200 2154 c0 -3 11 -19 25 -36 35 -41 90 -137 105 -182 18 -54 32
-30 16 25 -20 66 -49 118 -89 162 -31 33 -57 47 -57 31z"/>
<path d="M925 2087 c-33 -34 -71 -82 -84 -107 l-25 -45 48 43 c52 45 93 54
116 27 11 -13 16 -11 44 12 48 40 89 53 163 51 l68 -1 -70 -6 c-82 -7 -118
-25 -168 -80 -38 -42 -49 -64 -22 -41 18 15 117 8 123 -9 2 -6 29 -11 66 -11
59 0 62 1 81 33 10 17 41 55 67 83 l49 52 -67 21 c-47 15 -71 18 -84 11 -28
-15 -97 -11 -175 10 l-70 18 -60 -61z"/>
<path d="M2600 2120 l-55 -7 50 -1 c28 0 59 3 70 8 23 10 14 10 -65 0z"/>
<path d="M3109 2097 c-14 -18 -26 -22 -73 -21 -31 1 -56 -3 -56 -8 0 -5 16
-24 37 -43 31 -28 40 -32 59 -23 22 10 22 12 8 39 -13 26 -13 29 0 29 16 0 66
-77 66 -102 0 -22 26 -30 40 -13 6 8 25 17 42 21 26 5 34 2 49 -17 22 -28 25
-10 8 40 -8 24 -24 37 -63 56 -28 13 -61 33 -73 45 -27 24 -24 24 -44 -3z"/>
<path d="M2890 2048 c0 -14 14 -43 31 -64 24 -30 31 -34 26 -16 -5 23 8 31 16
10 4 -9 6 -8 6 3 1 17 -11 32 -51 68 l-28 24 0 -25z"/>
<path d="M3408 2043 c-77 -4 -94 -13 -68 -39 5 -5 12 -37 15 -69 3 -33 7 -73
9 -90 15 -119 16 -153 6 -179 -10 -28 -12 -29 -71 -23 -50 4 -69 12 -112 45
l-53 40 9 -58 c10 -62 -7 -200 -24 -200 -30 0 -179 135 -179 162 0 7 -5 7 -14
-1 -29 -24 -76 24 -96 99 l-7 25 -16 -31 c-8 -17 -22 -36 -30 -42 -12 -10 -12
-20 -1 -60 16 -62 24 -82 34 -82 5 0 10 5 12 11 5 16 59 14 69 -2 6 -10 9 -6
9 12 0 34 28 47 34 16 18 -85 23 -120 19 -136 -2 -9 3 -23 11 -30 11 -10 16
-31 16 -73 0 -33 5 -68 10 -78 10 -19 11 -19 43 0 17 11 42 20 55 20 12 0 22
6 22 14 0 8 5 18 12 22 15 10 3 -95 -17 -144 -10 -22 -12 -39 -6 -45 5 -5 12
-1 16 12 10 34 39 44 79 27 49 -21 157 -93 184 -125 l23 -26 -17 45 c-10 25
-44 75 -75 113 -32 37 -70 88 -85 112 -20 34 -32 45 -51 45 -23 0 -122 68
-152 104 -20 23 3 20 24 -4 23 -25 23 -25 90 5 31 14 61 23 67 19 11 -7 7 91
-6 131 -3 11 4 0 15 -25 29 -60 35 -124 15 -180 l-15 -44 36 -46 c43 -54 59
-71 48 -51 -14 24 73 6 102 -21 30 -27 53 -76 54 -115 1 -23 3 -20 10 12 13
65 9 165 -10 238 -17 65 -17 67 1 67 10 0 18 5 18 10 0 6 -7 10 -15 10 -8 0
-39 9 -70 21 -57 21 -166 111 -153 124 4 5 14 2 23 -5 12 -10 15 -10 15 3 0
13 9 10 43 -12 39 -27 110 -61 126 -61 4 0 7 9 7 20 0 11 -6 20 -13 20 -7 0
-28 14 -48 31 -30 27 -33 33 -21 43 8 6 22 24 30 41 l15 29 23 -52 c13 -30 30
-52 38 -52 9 0 22 -6 29 -12 11 -11 12 -7 6 22 -13 61 -54 142 -95 186 -34 37
-49 64 -36 64 2 0 19 -13 39 -29 46 -36 105 -46 153 -26 25 10 35 20 32 32 -3
15 -15 18 -63 19 -86 2 -141 17 -129 35 9 15 83 10 120 -7 25 -12 41 -14 56
-7 18 8 12 14 -54 55 -41 25 -85 49 -99 53 l-24 8 25 9 c14 5 45 7 70 3 67 -8
83 8 32 34 -23 12 -43 20 -44 19 -2 -1 -38 -4 -80 -5z"/>
<path d="M483 2015 c0 -8 7 -15 15 -15 12 0 12 3 2 15 -7 8 -13 15 -15 15 -1
0 -2 -7 -2 -15z"/>
<path d="M2126 2008 c-11 -6 -38 -16 -60 -22 l-41 -11 6 -100 c5 -99 5 -99 7
-25 2 80 7 93 36 103 15 6 17 4 10 -10 -11 -26 -17 -181 -6 -165 7 10 15 6 35
-14 15 -15 27 -30 27 -34 0 -5 15 -3 34 2 l33 11 -13 45 c-8 25 -14 58 -14 74
0 47 24 28 34 -26 6 -36 12 -46 23 -41 12 4 14 -1 11 -20 -3 -13 -2 -22 2 -20
4 3 11 24 14 47 4 24 13 57 21 73 13 30 13 29 14 -26 1 -72 25 -100 35 -42 16
93 18 98 28 79 9 -16 3 -100 -9 -119 -3 -6 -1 -7 5 -3 6 3 16 22 22 42 11 32
13 34 25 17 13 -17 14 -17 29 2 22 29 20 33 -19 49 -19 8 -40 26 -46 39 l-11
25 -54 -19 c-101 -36 -141 -22 -152 53 -6 42 -9 46 -26 36z"/>
<path d="M540 1992 c-33 -16 -80 -73 -80 -96 0 -7 15 -16 33 -21 26 -8 38 -22
69 -82 l36 -71 32 39 32 40 -35 38 c-40 44 -61 99 -55 142 3 16 4 29 4 29 -1
0 -17 -8 -36 -18z"/>
<path d="M4540 1960 c0 -52 -20 -90 -67 -128 -38 -30 -38 -30 -18 -51 l19 -22
40 41 c22 23 59 53 83 67 24 13 43 27 43 30 0 20 -35 72 -59 86 -40 23 -41 23
-41 -23z"/>
<path d="M2330 1975 c-11 -13 -10 -14 4 -9 9 3 16 10 16 15 0 13 -6 11 -20 -6z"/>
<path d="M3010 1937 c0 -43 -5 -61 -19 -73 -14 -13 -18 -25 -14 -55 3 -21 0
-67 -7 -101 l-12 -62 50 -48 c28 -26 55 -48 61 -48 13 0 31 64 31 110 -1 56
-17 110 -40 135 -23 24 -19 50 6 41 19 -7 54 14 55 34 0 8 5 2 10 -15 5 -16 7
-35 4 -42 -8 -22 13 -24 66 -9 32 10 67 13 92 9 l39 -6 -17 27 c-12 19 -14 30
-7 39 8 10 2 12 -29 9 -31 -3 -51 2 -88 26 -34 21 -53 27 -64 20 -20 -10 -90
22 -106 49 -8 14 -10 5 -11 -40z m225 -115 c-5 -5 -63 27 -71 39 -3 6 12 0 34
-12 22 -13 39 -25 37 -27z"/>
<path d="M2780 1976 c0 -2 7 -7 16 -10 8 -3 12 -2 9 4 -6 10 -25 14 -25 6z"/>
<path d="M2391 1953 c-1 -31 33 -63 67 -62 28 1 24 3 -20 13 -20 5 -30 15 -37
39 -7 25 -9 27 -10 10z"/>
<path d="M2815 1889 c8 -60 42 -176 53 -183 4 -2 5 20 4 50 -4 49 -2 54 16 54
11 0 27 3 36 6 13 5 16 -2 16 -37 0 -55 6 -47 13 19 l6 52 -37 16 c-20 8 -54
29 -76 46 l-38 31 7 -54z"/>
<path d="M2762 1901 c-13 -19 -34 -31 -58 -36 l-37 -6 22 -22 21 -21 16 23
c21 30 34 13 34 -46 0 -50 17 -57 24 -10 13 82 17 147 9 147 -5 0 -19 -13 -31
-29z"/>
<path d="M2590 1901 c-15 -28 -45 -35 -74 -16 -23 15 -25 15 -31 -4 -7 -24 14
-109 23 -94 4 5 24 13 45 17 31 6 37 4 38 -11 1 -19 4 -14 24 45 10 30 20 28
35 -8 7 -16 18 -34 26 -40 10 -9 10 -3 -2 27 -9 22 -28 46 -46 56 -19 11 -28
23 -24 32 8 22 -1 18 -14 -4z"/>
<path d="M645 1900 c-8 -13 30 -66 56 -80 27 -15 24 2 -6 30 -17 16 -22 27
-15 35 5 7 7 15 3 18 -10 10 -31 8 -38 -3z"/>
<path d="M1170 1898 c-25 -5 -84 -7 -132 -5 -49 2 -88 -1 -88 -5 0 -5 21 -22
48 -39 37 -24 54 -29 80 -24 58 11 143 48 153 67 11 21 8 21 -61 6z"/>
<path d="M3860 1907 c0 -10 82 -55 130 -72 41 -14 49 -14 85 0 22 8 51 24 65
36 l25 20 -75 -7 c-67 -5 -139 2 -207 22 -13 3 -23 4 -23 1z"/>
<path d="M1295 1890 c-3 -6 1 -7 9 -4 18 7 21 14 7 14 -6 0 -13 -4 -16 -10z"/>
<path d="M2658 1893 c12 -2 30 -2 40 0 9 3 -1 5 -23 4 -22 0 -30 -2 -17 -4z"/>
<path d="M4340 1863 c0 -5 7 -30 15 -57 8 -26 13 -52 10 -56 -3 -5 -42 -21
-88 -36 -66 -23 -99 -28 -170 -28 l-88 1 7 -31 c13 -63 21 -69 79 -64 42 4 67
14 114 45 33 22 87 50 120 63 34 12 61 28 61 34 0 24 -42 136 -51 136 -5 0 -9
-3 -9 -7z"/>
<path d="M3626 1831 c6 -26 2 -33 -27 -51 -27 -17 -44 -20 -81 -15 -27 3 -48
3 -48 0 0 -3 14 -24 30 -47 29 -40 80 -179 80 -218 0 -10 12 -55 26 -100 14
-45 24 -86 21 -93 -2 -6 -19 18 -38 53 -32 61 -36 65 -73 68 -28 3 -37 0 -33
-10 12 -27 36 -114 42 -150 6 -40 21 -50 32 -22 3 9 0 20 -7 24 -7 4 -10 12
-6 18 3 5 -3 30 -14 53 -18 41 -18 44 -2 51 9 4 20 7 23 7 8 1 49 -97 49 -116
0 -9 6 -13 15 -9 8 3 15 1 15 -4 0 -6 -4 -10 -9 -10 -5 0 -8 -22 -8 -49 0 -28
4 -48 9 -45 4 3 8 12 8 20 0 8 5 14 10 14 17 0 11 -22 -11 -46 -28 -29 -19
-54 19 -54 29 0 82 -33 82 -51 0 -5 -10 -3 -22 5 -13 8 -46 18 -74 21 l-51 7
-22 -92 c-13 -50 -21 -92 -19 -93 166 -84 169 -85 162 -63 -4 12 -27 45 -52
74 -25 29 -43 55 -40 57 2 3 26 -16 51 -42 31 -31 47 -41 47 -30 0 9 -24 37
-53 62 -30 25 -54 51 -54 58 0 7 -3 22 -7 35 -13 38 10 24 29 -19 23 -50 75
-97 85 -77 18 33 32 125 27 171 -7 57 -43 171 -65 205 -8 12 -12 25 -9 28 3 3
37 -8 75 -25 85 -37 117 -38 208 -7 l69 24 3 49 c5 68 -5 123 -29 162 -25 41
-33 35 -21 -15 6 -22 13 -69 16 -106 l7 -68 -86 0 c-86 0 -155 18 -212 55 -37
25 -22 28 28 5 25 -11 64 -19 89 -19 45 1 45 1 -20 15 -89 19 -194 73 -198
101 -4 29 33 53 83 53 75 0 73 11 -20 97 -68 63 -81 79 -61 76 27 -6 60 13 50
28 -3 5 2 9 11 9 19 0 52 -52 66 -105 10 -39 11 -40 49 -37 66 7 138 -65 167
-166 l13 -47 -5 48 c-5 54 -61 181 -118 270 -25 39 -33 59 -25 61 7 3 20 7 28
9 8 3 -7 6 -35 6 -45 1 -108 12 -157 27 -15 4 -17 1 -12 -25z m68 -797 c17 -7
22 -34 7 -34 -21 0 -41 13 -41 26 0 15 10 17 34 8z m-69 -133 c0 -8 -4 -16
-10 -18 -16 -5 -38 14 -30 26 9 16 40 9 40 -8z"/>
<path d="M3870 1832 c0 -17 80 -65 132 -79 29 -7 73 -13 98 -12 l45 1 -64 13
c-52 12 -105 33 -203 83 -5 2 -8 -1 -8 -6z"/>
<path d="M1145 1799 c-72 -35 -127 -37 -214 -10 -34 10 -61 17 -61 15 0 -2 19
-14 43 -26 35 -19 58 -23 144 -23 l101 -1 27 34 c15 18 25 35 23 36 -1 2 -30
-10 -63 -25z"/>
<path d="M752 1796 c-7 -16 -8 -26 -1 -26 12 0 22 25 17 41 -2 6 -9 0 -16 -15z"/>
<path d="M663 1768 c-34 -39 -36 -48 -10 -48 17 0 28 10 40 35 20 42 3 49 -30
13z"/>
<path d="M4421 1763 c6 -18 17 -33 24 -33 7 0 16 -6 18 -12 3 -7 6 -8 6 -3 1
6 -12 26 -29 45 l-30 35 11 -32z"/>
<path d="M721 1743 c-8 -14 1 -21 57 -45 37 -16 74 -27 82 -26 9 2 31 -14 50
-34 36 -38 75 -58 114 -58 18 0 25 10 38 49 l15 48 -82 5 c-65 5 -100 13 -167
42 -46 20 -87 36 -90 36 -4 0 -11 -8 -17 -17z m294 -145 c13 -5 9 -6 -15 -2
-19 4 -42 10 -50 15 -18 11 34 1 65 -13z"/>
<path d="M610 1690 c0 -5 16 -10 35 -10 19 0 35 5 35 10 0 6 -16 10 -35 10
-19 0 -35 -4 -35 -10z"/>
<path d="M4413 1688 c-13 -6 -23 -15 -23 -20 0 -5 10 -3 22 3 12 6 33 15 47
20 l26 7 -25 0 c-14 1 -35 -4 -47 -10z"/>
<path d="M700 1680 c0 -6 7 -21 15 -33 8 -13 11 -28 6 -36 -6 -10 -14 -6 -30
17 -13 19 -32 31 -53 35 -59 9 -63 -6 -14 -47 25 -20 49 -49 52 -62 l7 -25 34
33 c23 22 36 29 41 21 4 -7 19 -16 32 -22 22 -8 22 -10 5 -11 -11 0 -42 -14
-68 -31 -48 -30 -49 -31 -30 -51 10 -11 36 -30 58 -43 44 -26 119 -49 110 -34
-4 5 -13 9 -22 9 -21 0 -100 40 -117 59 -13 14 -8 20 45 53 43 27 59 33 59 22
0 -9 -7 -22 -15 -30 -22 -22 -18 -50 7 -68 30 -22 43 -20 55 7 8 16 6 30 -5
54 -9 18 -12 36 -7 40 4 5 10 2 13 -6 3 -8 16 -25 29 -38 19 -20 31 -24 75
-21 52 3 53 4 59 39 l5 36 -55 11 c-31 7 -73 23 -93 37 -46 31 -133 66 -144
57 -4 -4 -4 -2 -1 4 4 6 -5 16 -19 23 -31 14 -34 14 -34 1z"/>
<path d="M4242 1614 c-84 -41 -100 -46 -146 -42 l-53 4 12 -45 c10 -41 15 -46
49 -55 55 -12 111 6 124 42 27 73 25 69 29 50 3 -10 11 -18 19 -18 8 0 42 -18
74 -40 32 -22 64 -40 69 -40 26 0 6 19 -55 55 l-67 39 33 9 c25 6 36 4 51 -9
12 -11 19 -13 19 -5 0 7 21 32 48 58 l47 45 -40 -6 c-54 -9 -76 -9 -100 -2
-13 4 -52 -9 -113 -40z"/>
<path d="M4246 1504 c-27 -58 10 -96 59 -61 23 18 14 59 -18 80 -23 15 -25 14
-41 -19z"/>
<path d="M640 1465 c0 -38 83 -117 163 -156 26 -13 47 -27 47 -32 0 -22 -152
48 -205 94 l-39 34 20 -34 c43 -74 185 -171 251 -171 17 0 44 5 61 11 53 18
60 3 9 -21 -35 -15 -63 -21 -97 -18 -47 3 -48 2 -32 -16 30 -33 66 -45 103
-36 59 14 67 20 83 68 19 55 20 70 4 54 -17 -17 -130 -15 -154 2 -18 14 -18
15 8 21 15 4 58 3 97 -2 46 -6 74 -6 81 1 18 18 19 1 5 -54 -28 -106 -11 -106
31 1 26 67 39 87 50 76 3 -2 -7 -35 -21 -72 -29 -77 -28 -75 -15 -75 6 0 9 4
8 9 -2 5 21 31 50 59 28 28 52 57 52 65 0 16 -147 53 -179 44 -18 -4 -21 -1
-21 23 0 16 -5 32 -12 36 -8 5 -9 2 -5 -11 7 -16 1 -17 -71 -13 -86 5 -165 35
-233 89 -21 17 -39 28 -39 24z"/>
<path d="M3825 1450 c-18 -8 -17 -9 7 -9 15 -1 30 4 33 9 7 12 -12 12 -40 0z"/>
<path d="M4351 1434 c-18 -13 -49 -26 -69 -30 -29 -6 -38 -3 -53 17 -20 26
-20 26 -37 -15 l-13 -29 53 7 c57 8 141 40 159 62 17 21 -2 15 -40 -12z"/>
<path d="M938 1445 c-3 -3 -3 -15 -1 -26 7 -26 38 -21 38 6 0 19 -25 32 -37
20z"/>
<path d="M1000 1431 c0 -26 16 -35 24 -15 10 25 7 34 -9 34 -8 0 -15 -9 -15
-19z"/>
<path d="M4073 1405 c0 -27 2 -38 4 -22 2 15 2 37 0 50 -2 12 -4 0 -4 -28z"/>
<path d="M4094 1434 c3 -9 6 -22 6 -30 0 -8 9 -14 20 -14 16 0 20 7 20 30 0
26 -4 30 -26 30 -20 0 -25 -4 -20 -16z"/>
<path d="M907 1433 c-11 -10 -8 -53 3 -53 6 0 10 14 10 30 0 31 -2 35 -13 23z"/>
<path d="M1578 1385 c-35 -70 -78 -215 -63 -215 22 0 103 222 92 254 -2 6 -15
-11 -29 -39z"/>
<path d="M4347 1387 c-44 -21 -80 -30 -156 -36 -55 -5 -114 -14 -133 -20 -18
-6 -51 -15 -73 -21 -70 -18 -71 -20 -20 -94 26 -36 51 -66 56 -66 12 0 12 -2
-11 66 -19 56 -20 98 -1 78 5 -5 23 -49 40 -97 34 -97 50 -131 58 -124 4 5
-37 145 -53 183 -3 8 20 12 73 13 43 1 95 6 115 10 61 14 157 78 171 113 10
27 -3 26 -66 -5z m-268 -100 c0 -21 -1 -21 -9 -2 -12 28 -12 37 0 30 6 -3 10
-16 9 -28z"/>
<path d="M1270 1270 c-19 -5 -37 -7 -41 -5 -3 3 -11 -7 -18 -21 -6 -14 -8 -23
-4 -21 5 2 29 13 56 25 26 12 47 24 47 27 0 3 -1 5 -2 4 -2 -1 -19 -5 -38 -9z"/>
<path d="M3735 1264 c50 -116 57 -195 25 -296 -23 -72 -24 -82 -10 -73 14 9
13 -8 -2 -23 -6 -6 -9 -14 -7 -17 3 -2 13 10 23 27 11 17 13 28 6 23 -8 -5
-11 -3 -8 6 3 8 10 13 15 12 5 -1 9 6 10 15 0 9 6 44 13 76 6 33 10 77 8 98
-4 46 8 51 17 7 5 -22 10 -28 15 -18 15 24 23 -37 11 -91 -13 -59 -30 -95 -78
-167 -19 -28 -34 -56 -32 -61 2 -6 38 19 78 55 41 36 90 72 108 79 36 16 44
25 14 17 -10 -3 -22 0 -26 7 -4 7 -19 -3 -42 -30 -39 -45 -56 -47 -26 -3 25
35 53 107 53 134 0 14 5 19 18 17 13 -3 17 -13 16 -44 0 -41 12 -50 43 -31 7
5 35 11 63 14 55 6 96 28 70 37 -8 2 -46 14 -83 26 -47 15 -82 35 -110 61 -23
21 -51 45 -62 53 -40 31 3 15 69 -25 76 -46 136 -73 143 -65 9 9 -146 104
-200 122 -28 9 -72 31 -96 47 -36 25 -43 27 -36 11z"/>
<path d="M3905 1265 c4 -11 9 -27 12 -35 2 -8 16 -24 31 -34 27 -19 27 -19 11
0 -9 10 -27 35 -39 54 -12 19 -19 26 -15 15z"/>
<path d="M4255 1253 c-48 -20 -71 -24 -112 -20 -37 4 -51 2 -47 -6 2 -7 14
-13 27 -14 12 -1 42 -4 67 -8 42 -6 48 -4 90 34 25 22 43 40 40 40 -3 -1 -32
-12 -65 -26z"/>
<path d="M3816 1262 c5 -5 21 -13 37 -20 31 -13 38 2 8 18 -23 12 -59 14 -45
2z"/>
<path d="M3534 1195 c-9 -14 -14 -28 -10 -32 8 -9 46 27 46 44 0 21 -18 15
-36 -12z"/>
<path d="M2118 1189 c-17 -9 -17 -12 -1 -42 16 -30 18 -30 21 -9 2 12 2 31 0
41 -2 16 -7 18 -20 10z"/>
<path d="M4114 1182 c3 -9 8 -30 12 -45 4 -19 11 -26 23 -23 9 3 34 10 57 15
22 6 51 22 65 37 l24 25 -28 -10 c-40 -15 -97 -13 -130 4 -26 13 -28 13 -23
-3z"/>
<path d="M1524 1146 c-3 -8 -4 -23 -2 -33 3 -11 6 -6 9 15 6 34 2 42 -7 18z"/>
<path d="M3545 1148 c-11 -6 -21 -11 -21 -12 -1 -1 -5 -12 -9 -26 -7 -24 -6
-24 26 7 35 34 37 49 4 31z"/>
<path d="M3522 1073 c-7 -3 -26 -33 -43 -66 l-31 -62 38 44 c45 51 57 69 52
80 -2 4 -9 6 -16 4z"/>
<path d="M3527 873 c-2 -5 -15 -39 -27 -78 -13 -38 -26 -72 -30 -75 -4 -3 -10
-17 -13 -31 -5 -21 -3 -28 13 -32 15 -4 28 7 55 44 25 35 44 51 65 56 21 4 30
11 30 25 0 18 2 19 17 7 9 -8 23 -26 32 -40 13 -21 20 -25 39 -18 40 15 25 37
-50 75 -40 20 -85 45 -100 55 -15 11 -29 16 -31 12z"/>
<path d="M1991 740 c0 -14 28 -72 29 -59 0 4 -7 22 -15 40 -8 19 -14 27 -14
19z"/>
<path d="M3606 686 c-17 -24 -21 -34 -10 -25 10 9 31 23 46 30 25 13 26 15 10
25 -14 9 -22 4 -46 -30z"/>
<path d="M2130 678 c-31 -21 -61 -35 -70 -32 -40 16 -47 14 -59 -12 -6 -15 -8
-30 -4 -34 11 -10 75 9 68 20 -3 5 1 7 9 4 19 -7 105 31 112 50 15 39 -2 41
-56 4z"/>
<path d="M2840 692 c0 -14 16 -28 51 -47 28 -14 54 -23 58 -20 7 7 -31 40 -79
68 -29 18 -30 18 -30 -1z"/>
<path d="M2790 607 c0 -39 154 -137 215 -137 l33 0 -11 35 c-8 28 -15 35 -37
35 -14 0 -63 18 -109 40 -93 45 -91 45 -91 27z"/>
<path d="M3111 595 c-1 -5 -10 -25 -21 -43 -17 -28 -23 -31 -40 -22 -11 6 -20
7 -20 2 0 -17 42 -64 50 -55 14 16 42 103 37 116 -3 6 -6 8 -6 2z"/>
<path d="M2810 518 c0 -28 -42 -60 -72 -56 -22 4 -28 0 -33 -20 -14 -57 43
-53 108 8 l42 39 -22 23 c-19 19 -23 20 -23 6z"/>
</g>
</svg>