<?xml version="1.0" standalone="no"?>
<!DOCTYPE svg PUBLIC "-//W3C//DTD SVG 20010904//EN"
 "http://www.w3.org/TR/2001/REC-SVG-20010904/DTD/svg10.dtd">
<svg version="1.0" xmlns="http://www.w3.org/2000/svg"
 width="512.000000pt" height="512.000000pt" viewBox="0 0 512.000000 512.000000"
 preserveAspectRatio="xMidYMid meet">
<metadata>
Created by potrace 1.16, written by Peter Selinger 2001-2019
</metadata>
<g transform="translate(0.000000,512.000000) scale(0.100000,-0.100000)"
fill="#000000" stroke="none">
<path d="M1423 4500 c-51 -6 -91 -21 -210 -81 -134 -68 -150 -79 -176 -120
l-28 -45 -4 -255 -4 -254 9 225 c5 124 11 240 14 259 5 35 52 111 68 111 5 0
7 -4 4 -8 -18 -30 -25 -221 -31 -852 -3 -393 -10 -814 -16 -935 -5 -121 -9
-591 -9 -1045 l1 -825 -24 -3 c-54 -7 -52 -68 -37 1251 7 672 14 1357 15 1522
l1 300 -6 -310 c-4 -170 -12 -681 -18 -1135 -6 -454 -13 -994 -16 -1200 -6
-425 -5 -430 59 -464 39 -21 52 -21 756 -24 l716 -3 7 -75 c7 -78 41 -206 74
-284 l19 -45 18 62 17 61 61 -29 c33 -15 63 -27 65 -25 2 3 -6 17 -17 33 -31
41 -68 157 -76 236 l-7 67 626 0 c613 0 626 0 646 20 25 25 25 24 -8 117 -24
66 -26 83 -17 110 8 23 9 165 6 460 -6 451 -6 469 0 2073 4 1003 4 1015 -16
1045 -11 16 -38 39 -60 50 -39 19 -67 19 -1190 20 -632 1 -1178 -2 -1212 -5z
m2394 -30 c82 -36 76 54 75 -1075 -1 -552 -5 -1013 -9 -1022 -5 -10 -6 -187
-2 -393 4 -206 7 -542 8 -747 l1 -371 -26 -31 c-42 -50 -78 -54 -374 -47 -146
3 -394 9 -552 13 l-288 6 0 54 0 53 564 0 565 0 15 22 c13 18 16 48 14 148
l-2 125 -3 -125 c-3 -97 -7 -128 -20 -142 -15 -17 -50 -18 -575 -18 l-558 0 0
55 0 55 558 3 557 2 -562 3 -563 2 0 25 0 25 180 0 c173 0 180 1 191 21 11 21
10 21 -12 5 -19 -13 -52 -16 -192 -16 l-169 0 21 33 c12 17 42 71 67 120 53
100 105 152 198 196 229 108 280 136 335 179 173 139 294 358 335 607 23 136
29 150 80 169 23 9 54 29 69 44 l26 28 -19 32 c-27 44 -76 72 -128 72 -26 0
-41 -4 -37 -10 3 -5 24 -10 46 -10 46 0 84 -22 104 -60 19 -36 5 -55 -60 -79
-61 -23 -69 -37 -89 -162 -9 -53 -20 -107 -25 -120 -13 -32 -13 -13 -1 31 6
19 15 83 20 142 6 59 13 114 16 122 3 8 21 22 40 31 19 9 34 20 34 25 0 14 -6
13 -49 -10 -45 -22 -47 -29 -61 -176 -28 -306 -74 -422 -237 -595 -83 -88
-147 -129 -299 -195 -200 -86 -251 -127 -322 -259 -24 -44 -41 -71 -38 -60 16
62 28 123 28 142 0 12 3 21 7 20 3 -1 25 17 49 41 56 56 128 101 235 147 48
21 86 39 84 41 -2 2 -45 -14 -96 -35 -101 -44 -205 -113 -245 -163 -28 -36
-35 -24 -11 21 26 50 101 107 188 141 45 18 118 51 162 74 174 88 415 374 440
521 7 38 4 36 -37 -36 -114 -196 -226 -296 -429 -382 -109 -47 -218 -75 -322
-83 -76 -7 -80 -6 -73 12 21 54 48 195 63 331 10 89 21 149 26 144 5 -5 9 -33
8 -63 0 -29 9 -98 19 -153 19 -94 20 -78 4 44 -10 77 15 64 36 -20 9 -35 20
-71 23 -79 12 -26 -4 95 -27 209 -12 61 -19 111 -15 111 6 0 62 -194 90 -313
6 -26 14 -46 16 -43 6 6 -9 74 -54 239 -19 71 -33 130 -31 132 10 8 50 26 52
23 2 -2 40 -61 85 -133 44 -71 81 -126 81 -122 0 12 -26 59 -92 170 -42 70
-56 103 -49 110 8 8 22 -2 47 -32 48 -55 57 -44 13 17 l-34 47 42 -33 c23 -18
86 -79 139 -135 54 -56 93 -95 89 -87 -19 34 -153 186 -202 228 -90 78 -50 58
57 -28 112 -90 230 -173 230 -162 0 4 -22 23 -48 42 -26 19 -95 74 -154 124
-98 81 -127 116 -97 116 15 0 212 -129 222 -146 11 -19 67 -57 67 -46 0 6 -15
19 -32 31 -39 24 -21 28 23 5 17 -8 33 -14 35 -12 2 2 -29 21 -69 43 -114 61
-227 136 -227 150 0 15 125 -32 233 -87 32 -16 62 -27 65 -24 3 3 -57 36 -134
72 -150 71 -150 71 -142 80 5 5 217 -81 303 -123 l30 -14 -23 19 c-13 10 -86
47 -163 82 -129 59 -165 85 -101 75 15 -2 96 -16 180 -31 84 -14 155 -24 158
-21 2 2 -62 18 -143 35 l-148 31 105 -4 105 -4 -133 18 c-73 10 -135 21 -139
24 -3 4 25 7 63 7 65 1 167 9 313 26 l63 7 -7 -84 c-16 -184 -88 -330 -235
-480 -82 -82 -109 -103 -195 -147 -56 -28 -134 -60 -174 -71 -78 -22 -97 -31
-64 -31 30 0 165 46 226 76 90 45 184 113 233 167 140 155 223 345 224 507 0
62 -36 239 -51 255 -7 7 -8 5 -4 -5 3 -8 11 -50 19 -94 l13 -78 -36 6 c-20 3
-79 8 -131 11 -140 9 -261 26 -254 36 3 5 38 9 77 10 40 1 99 5 132 9 50 6 36
7 -80 10 -157 2 -145 10 49 31 66 7 114 15 107 17 -13 4 -201 -13 -268 -25
-24 -4 -33 -1 -33 8 0 9 62 37 161 74 160 59 218 88 117 58 -29 -8 -108 -32
-176 -53 -67 -21 -124 -34 -127 -30 -3 5 64 31 147 59 84 29 137 49 118 45
-19 -3 -89 -23 -154 -45 -170 -55 -175 -36 -11 48 88 45 197 114 191 120 -3 3
-17 -4 -33 -15 -15 -11 -71 -41 -123 -67 l-95 -47 103 104 c56 57 100 107 96
111 -4 4 -1 7 6 7 7 0 11 3 7 6 -10 10 -128 -77 -290 -214 -13 -11 -20 -13
-28 -5 -8 8 25 55 119 170 71 87 127 160 125 163 -7 7 -172 -173 -167 -181 2
-4 -6 -15 -19 -25 l-22 -19 19 23 c14 16 16 22 5 22 -21 0 -32 -11 -54 -53
-25 -49 -42 -64 -56 -50 -8 8 -6 20 5 40 16 32 182 251 224 295 14 15 23 30
20 34 -7 7 -198 -229 -241 -298 -28 -45 -47 -60 -47 -39 0 14 90 156 165 260
36 51 65 95 62 97 -6 6 -122 -132 -204 -242 -35 -46 -67 -84 -72 -84 -5 0 5
35 21 78 40 100 109 317 98 306 -7 -8 -53 -127 -128 -334 -9 -25 -18 -38 -19
-30 -3 15 51 182 101 313 14 37 22 67 18 67 -4 0 -13 -19 -20 -42 -7 -24 -26
-72 -42 -108 l-30 -65 7 45 c3 25 9 47 12 50 9 8 9 110 0 110 -5 0 -9 -6 -9
-12 0 -43 -32 -270 -40 -290 -9 -21 -10 -20 -5 7 11 71 24 196 30 280 3 50 8
104 11 122 l5 32 50 -19 c27 -11 72 -31 99 -45 27 -14 55 -25 62 -25 24 0 -29
30 -124 71 -54 23 -98 45 -98 50 0 5 -3 9 -7 9 -5 0 -9 -60 -9 -133 -1 -72 -9
-185 -19 -250 -9 -65 -15 -123 -12 -131 3 -7 1 -19 -4 -27 -5 -9 -9 19 -9 76
0 50 -9 167 -20 260 -26 217 -25 266 0 307 30 49 26 76 -20 119 l-40 38 0 173
c0 94 4 168 8 162 5 -5 26 -70 46 -144 73 -264 97 -332 128 -360 16 -14 52
-48 81 -76 33 -32 86 -67 147 -97 120 -59 220 -135 287 -218 80 -98 190 -335
238 -511 17 -63 36 -88 68 -88 60 0 187 -97 187 -143 0 -22 -5 -27 -26 -27
-14 0 -23 4 -19 10 12 19 -1 9 -59 -44 -57 -52 -59 -56 -92 -169 -18 -63 -50
-151 -70 -194 -67 -145 -86 -188 -76 -178 22 24 133 278 161 370 17 55 37 107
44 115 22 28 83 70 102 70 13 0 8 -10 -22 -43 -61 -66 -69 -83 -103 -206 -17
-63 -55 -177 -85 -255 -44 -113 -63 -149 -97 -185 -24 -24 -35 -41 -26 -38 48
17 203 -53 249 -111 10 -14 19 -20 19 -15 0 17 -89 94 -128 110 -20 9 -52 17
-71 19 -18 2 -36 6 -39 9 -3 3 8 22 24 43 27 33 38 56 59 117 6 19 7 19 19 3
7 -10 28 -21 47 -25 19 -3 37 -11 41 -17 5 -7 8 -5 8 6 0 11 -12 18 -39 23
-61 10 -68 26 -43 88 27 67 68 198 82 264 14 63 58 132 116 179 37 31 44 42
44 73 0 20 -7 46 -14 57 -25 35 -120 95 -172 108 -47 11 -50 14 -66 63 -10 29
-22 81 -28 116 -15 94 -57 188 -134 302 -121 176 -227 269 -399 350 -75 35
-100 52 -117 80 -12 20 -39 44 -60 55 -26 13 -42 31 -52 57 -29 72 -69 223
-63 233 3 6 23 19 43 30 45 24 26 26 -23 3 -19 -9 -37 -15 -39 -12 -2 2 -18
58 -35 124 -30 119 -30 120 -11 140 20 19 20 19 -6 40 -19 16 -27 34 -34 84
-5 36 -7 68 -4 73 3 4 256 8 563 8 459 0 561 -2 570 -14 8 -10 10 -247 9 -877
l-3 -864 -41 41 c-30 30 -48 61 -64 108 -12 37 -24 65 -26 63 -2 -2 5 -30 16
-62 22 -65 24 -79 10 -70 -10 6 -60 160 -60 184 0 7 15 1 38 -15 l37 -26 -38
35 c-30 28 -41 48 -53 96 -8 35 -29 85 -49 114 l-35 52 0 227 c0 126 3 228 7
228 3 0 15 -7 25 -17 17 -15 18 -15 18 13 0 19 -3 24 -8 16 -5 -7 -16 -10 -26
-6 -13 5 -17 18 -16 58 0 28 -3 83 -8 121 -4 39 -6 -87 -4 -285 l4 -355 34
-57 c27 -44 41 -87 60 -180 29 -140 60 -222 80 -214 8 3 18 -3 23 -12 5 -10
29 -31 53 -48 l43 -32 -3 881 c-2 622 -6 884 -13 894 -9 10 -122 13 -577 15
l-566 3 -1 55 0 55 200 5 c110 3 364 3 565 1 324 -3 370 -5 407 -21z m-1187
-40 l0 -60 -312 0 c-171 0 -309 -2 -307 -4 2 -3 143 -6 312 -7 l307 -2 0 -53
c0 -70 -16 -104 -53 -111 -27 -6 -28 -7 -13 -19 10 -7 23 -11 29 -10 7 2 8 1
4 -2 -4 -2 -3 -10 4 -18 16 -19 6 -121 -20 -205 l-21 -66 -60 30 c-33 17 -63
27 -66 24 -4 -3 19 -18 50 -34 31 -15 56 -33 56 -40 0 -8 -17 -48 -38 -91 -22
-42 -52 -110 -67 -149 l-28 -73 19 -67 19 -67 -90 -31 c-167 -57 -329 -189
-445 -361 -74 -109 -97 -175 -111 -330 -21 -233 12 -400 109 -554 67 -105 225
-252 342 -317 67 -37 193 -83 223 -82 12 0 -3 9 -33 18 -143 45 -278 129 -394
244 -131 129 -187 234 -220 407 -19 100 -20 150 -3 150 6 0 46 -6 87 -14 41
-8 133 -19 205 -26 71 -6 132 -13 134 -16 2 -2 -4 -4 -15 -4 -30 0 -274 -43
-270 -48 3 -2 55 4 118 13 62 9 123 17 136 19 12 2 24 0 27 -4 4 -6 -56 -21
-223 -56 -45 -9 -80 -19 -78 -21 5 -6 267 43 309 57 19 6 27 6 27 -3 0 -14
-21 -26 -185 -113 -66 -35 -116 -64 -111 -64 5 0 74 31 154 70 156 76 152 74
152 62 0 -5 -42 -30 -92 -57 -261 -136 -295 -167 -55 -49 141 69 177 80 177
55 0 -5 -65 -42 -145 -82 -80 -40 -143 -74 -141 -76 2 -3 70 27 152 66 81 39
149 71 151 71 22 0 -25 -40 -240 -209 -37 -29 -66 -56 -63 -58 6 -6 175 114
261 186 33 27 62 45 64 39 2 -6 -2 -16 -10 -22 -27 -21 -252 -256 -245 -256 3
0 50 41 102 90 143 135 183 165 196 152 12 -12 -7 -33 -163 -179 -36 -34 -74
-74 -83 -88 -28 -43 -2 -25 35 24 35 45 190 188 174 161 -34 -60 -115 -182
-142 -214 -18 -22 -31 -42 -28 -45 9 -9 64 61 150 192 80 120 95 139 95 119 0
-8 -143 -252 -186 -317 -10 -16 -14 -26 -8 -23 5 4 41 55 79 115 84 132 139
207 143 195 1 -4 -11 -41 -27 -80 -32 -78 -95 -291 -88 -298 2 -2 14 31 27 73
34 118 104 303 114 303 5 0 5 -19 1 -42 -4 -24 -8 -51 -8 -60 -1 -10 -5 -18
-10 -18 -5 0 -6 -12 -3 -26 4 -15 3 -23 -2 -20 -6 3 -15 -25 -22 -62 -6 -37
-14 -79 -16 -94 -3 -16 -2 -28 3 -28 5 0 24 57 42 128 18 70 38 147 45 172 11
44 12 40 34 -135 13 -99 32 -219 43 -267 10 -48 19 -91 19 -94 0 -10 -125 4
-200 22 -120 30 -321 138 -448 242 -90 73 -169 210 -210 361 -24 88 -26 112
-25 291 0 226 12 300 68 412 50 100 122 194 213 279 65 61 98 82 224 143 149
72 196 104 91 61 -223 -89 -323 -162 -445 -325 -112 -150 -154 -254 -164 -413
-8 -123 -7 -120 -68 -146 -53 -22 -91 -51 -67 -51 6 0 11 -6 11 -14 0 -7 13
-29 29 -49 21 -27 31 -55 40 -114 12 -73 43 -225 56 -269 3 -10 -1 -5 -9 11
-8 17 -28 95 -46 175 -18 80 -40 153 -49 164 -9 10 -49 36 -88 58 -40 22 -75
44 -79 49 -3 5 -10 9 -16 9 -22 0 18 -33 94 -77 43 -25 82 -52 87 -61 5 -10
18 -66 30 -125 45 -225 131 -394 283 -552 110 -116 198 -176 348 -239 136 -57
204 -99 251 -154 33 -38 70 -126 84 -199 l7 -33 -181 0 -181 0 -31 43 c-42 57
-74 132 -94 219 -21 92 -23 98 -24 72 -2 -36 37 -170 63 -223 14 -27 40 -66
57 -86 l31 -35 184 0 184 0 0 -25 0 -25 -572 0 -571 0 6 192 c4 106 9 211 12
233 l5 40 -10 -35 c-5 -19 -13 -126 -16 -238 l-7 -202 576 0 577 0 0 -53 0
-54 -292 -6 c-161 -4 -426 -7 -589 -7 l-296 0 -21 23 c-22 23 -22 26 -25 533
l-2 509 -3 -513 -2 -513 26 -26 26 -26 589 6 589 6 0 -53 0 -53 -522 -6 c-288
-3 -579 -11 -647 -16 -68 -6 -128 -8 -132 -5 -18 11 -2 3634 16 3676 4 10 21
22 39 27 17 5 304 10 639 10 l607 1 0 -60z m-1311 -835 c-4 -473 -8 -1302 -8
-1842 l-1 -982 -37 -10 c-21 -6 -44 -11 -50 -11 -10 0 -13 134 -13 638 1 765
19 2619 28 2857 l7 169 40 23 c22 12 40 21 40 20 1 -1 -2 -389 -6 -862z m-108
444 c-10 -341 -24 -1927 -26 -2849 l0 -444 -34 -23 c-18 -13 -38 -20 -43 -16
-12 7 0 3620 12 3642 6 12 90 51 98 46 1 -1 -2 -161 -7 -356z m1428 150 c-16
-10 -23 -4 -14 10 3 6 11 8 17 5 6 -4 5 -9 -3 -15z m25 -28 c-13 -12 -21 -15
-26 -7 -4 6 0 14 10 18 30 12 36 8 16 -11z m-24 -254 l0 -152 -34 -19 c-60
-32 -71 -103 -25 -152 19 -20 20 -27 10 -100 -16 -117 -64 -364 -69 -359 -3 3
-11 38 -17 77 -7 40 -13 62 -14 48 0 -14 6 -65 15 -114 16 -93 13 -128 -5 -55
-23 92 -42 149 -50 145 -4 -3 -17 15 -29 39 -12 25 -27 45 -33 45 -6 0 -2 -14
9 -32 40 -66 111 -326 95 -351 -3 -5 -32 64 -63 154 -64 182 -78 219 -79 203
-1 -6 11 -44 25 -85 42 -119 93 -279 88 -279 -2 0 -13 19 -25 42 -24 48 -110
178 -117 178 -2 0 2 -10 11 -23 8 -12 38 -65 67 -116 78 -141 48 -134 -47 11
-45 68 -95 137 -113 153 -27 25 -25 19 17 -40 28 -38 73 -107 102 -152 74
-120 70 -133 -19 -50 -142 131 -212 189 -220 181 -5 -5 45 -65 121 -142 161
-165 153 -182 -28 -52 -180 130 -204 140 -124 54 36 -38 89 -89 118 -113 29
-24 53 -45 53 -47 0 -2 -18 7 -40 21 -22 14 -40 23 -40 20 0 -3 -9 -1 -20 5
-11 6 -18 15 -15 20 3 5 0 12 -6 16 -8 4 -9 3 -5 -4 11 -19 -3 -14 -61 19 -30
17 -56 29 -59 26 -3 -3 55 -41 128 -86 182 -110 166 -97 147 -117 -15 -15 -24
-14 -115 11 -54 15 -127 38 -163 51 -35 13 -66 23 -68 20 -9 -9 287 -116 323
-116 8 0 14 -5 14 -11 0 -7 -10 -9 -27 -5 -22 5 -25 4 -13 -4 11 -9 5 -10 -25
-6 -97 13 -267 27 -271 23 -3 -2 66 -12 153 -22 87 -9 163 -18 168 -20 6 -2
-60 -5 -145 -6 l-155 -2 100 -7 c55 -4 122 -8 149 -9 104 -2 23 -19 -174 -35
-113 -9 -213 -19 -224 -21 -16 -3 -17 1 -11 28 3 18 10 74 15 125 16 160 74
272 219 424 106 111 182 165 293 208 116 45 118 45 140 -20 16 -49 17 -51 12
-15 -3 22 -8 50 -11 62 -4 18 0 22 24 26 28 4 28 4 -4 6 -28 1 -33 6 -47 48
-9 26 -16 59 -16 74 0 29 44 137 102 254 20 39 50 116 69 173 18 56 35 102 36
102 2 0 3 -69 3 -153z m49 -213 c26 -33 26 -55 4 -82 -30 -34 -85 -33 -109 3
-46 71 53 145 105 79z m-35 -309 c9 -71 19 -196 22 -276 l7 -146 -43 0 -42 0
6 196 c14 438 21 471 50 226z m20 98 c9 -114 5 -138 -10 -53 -15 89 -17 130
-5 130 4 0 11 -34 15 -77z m-87 -145 c-3 -8 -6 -5 -6 6 -1 11 2 17 5 13 3 -3
4 -12 1 -19z m-22 -160 c-17 -129 -35 -189 -35 -118 0 39 42 261 48 255 3 -2
-3 -64 -13 -137z m132 -35 c-2 -16 -4 -5 -4 22 0 28 2 40 4 28 2 -13 2 -35 0
-50z m-120 -30 c-3 -10 -5 -4 -5 12 0 17 2 24 5 18 2 -7 2 -21 0 -30z m130
-100 c-2 -21 -4 -6 -4 32 0 39 2 55 4 38 2 -18 2 -50 0 -70z m-542 47 c21 -22
37 -40 34 -40 -3 0 -23 18 -44 40 -21 22 -37 40 -34 40 3 0 23 -18 44 -40z
m400 -67 c-3 -23 -11 -43 -17 -43 -5 0 -8 7 -4 15 3 8 9 38 13 67 5 34 9 44
11 29 2 -13 1 -44 -3 -68z m319 15 c-32 -51 -67 -98 -71 -94 -4 4 67 106 75
106 2 0 0 -6 -4 -12z m242 -88 c-57 -55 -116 -110 -130 -121 -30 -24 -46 -19
-25 7 28 34 244 214 256 214 2 0 -44 -45 -101 -100z m-870 58 l29 -33 -32 29
c-18 17 -33 31 -33 33 0 8 8 1 36 -29z m251 10 c-3 -8 -6 -5 -6 6 -1 11 2 17
5 13 3 -3 4 -12 1 -19z m1013 -40 c28 -62 47 -118 38 -108 -9 9 -77 170 -72
170 3 0 18 -28 34 -62z m-1243 -103 c29 -22 52 -46 53 -52 0 -15 -16 -17 -25
-3 -3 6 -11 10 -16 10 -6 0 -7 -5 -3 -12 4 -7 3 -8 -5 -4 -6 4 -9 11 -6 16 3
4 -40 47 -95 95 -55 48 -100 89 -100 91 0 4 123 -83 197 -141z m53 65 c17 -22
29 -40 27 -40 -3 0 -20 18 -37 40 -17 22 -29 40 -27 40 3 0 20 -18 37 -40z
m447 -26 c128 -62 212 -184 217 -314 9 -241 -237 -441 -444 -361 -116 45 -197
131 -240 256 -17 48 -20 73 -15 122 16 154 149 307 286 329 38 6 42 5 36 -10
-4 -10 -7 -21 -7 -26 0 -5 -21 -16 -47 -26 -145 -54 -213 -148 -213 -294 0
-116 56 -197 179 -260 32 -16 61 -36 65 -45 13 -36 26 1 26 78 0 94 9 157 21
157 5 0 9 -26 9 -58 0 -33 3 -94 7 -137 l6 -77 34 5 c130 22 247 154 260 294
15 164 -84 311 -232 344 -41 9 -54 17 -62 38 -8 20 -9 6 -6 -59 2 -47 0 -112
-5 -145 l-10 -60 -3 75 -3 75 -7 -70 c-5 -51 -6 -34 -4 64 3 144 7 156 55 146
14 -3 57 -21 97 -41z m-169 -122 l-3 -89 -17 29 c-10 15 -25 45 -33 65 -8 20
-18 33 -22 29 -4 -3 10 -38 29 -76 20 -39 35 -70 34 -70 -2 0 -24 29 -51 65
-26 36 -54 65 -63 65 -12 0 -10 -7 10 -27 27 -30 88 -118 88 -128 0 -9 -40 14
-100 58 -54 39 -54 39 -25 7 17 -18 50 -46 75 -63 25 -16 36 -26 25 -22 -66
26 -158 56 -162 52 -2 -3 31 -19 74 -37 l78 -31 -90 4 c-85 4 -88 4 -50 -8 22
-8 57 -14 78 -14 73 -2 26 -21 -50 -21 l-76 0 7 46 c8 59 40 131 74 167 34 36
120 81 165 86 4 1 6 -39 5 -87z m159 69 c98 -45 173 -152 173 -248 l0 -36 -87
7 c-129 11 -132 20 -18 47 55 12 94 24 87 27 -12 4 -125 -13 -167 -25 -11 -3
13 18 53 47 41 28 72 54 69 56 -3 3 -36 -15 -75 -40 -39 -26 -76 -46 -82 -46
-6 0 12 28 42 63 87 101 87 107 -2 22 -74 -71 -81 -76 -60 -40 60 106 82 149
71 139 -7 -7 -30 -40 -52 -75 l-39 -64 0 93 c0 89 1 92 23 92 12 0 41 -9 64
-19z m-87 -231 c27 -27 25 -52 -5 -80 -21 -20 -28 -22 -50 -12 -32 15 -42 55
-21 87 20 30 49 32 76 5z m-960 -160 c13 -155 29 -220 86 -337 55 -114 134
-202 256 -284 184 -124 383 -199 529 -199 35 0 38 -2 44 -37 8 -51 9 -275 2
-338 -6 -46 -5 -44 13 20 23 87 26 50 4 -48 l-17 -72 -23 68 c-41 122 -120
199 -263 257 -212 87 -283 133 -404 259 -77 81 -142 170 -167 230 -7 17 -16
31 -21 31 -5 0 -5 7 -2 17 4 10 2 14 -4 10 -12 -7 -26 20 -18 33 3 4 -4 46
-14 92 -11 45 -25 119 -31 163 -17 117 -17 117 -50 166 -16 24 -30 47 -30 51
0 10 94 58 97 50 1 -4 7 -63 13 -132z m435 125 l-60 -12 64 -2 c47 -1 69 3 83
16 21 19 25 17 30 -17 2 -17 -2 -25 -12 -25 -77 0 -304 17 -322 24 -19 8 -13
10 32 11 30 1 80 5 110 10 30 4 73 7 95 8 36 0 33 -2 -20 -13z m891 -6 c-32
-9 -42 -6 -32 9 3 5 18 7 33 4 l28 -5 -29 -8z m-174 -22 c63 -2 68 -4 68 -24
0 -39 -37 -122 -74 -168 -36 -43 -140 -105 -178 -105 -16 0 -18 9 -17 98 l0
97 23 -59 c31 -82 50 -83 20 -1 -13 36 -22 65 -19 65 2 0 19 -25 37 -55 18
-30 36 -55 40 -55 11 0 10 4 -7 36 -8 16 -12 37 -9 47 6 18 -23 73 -33 64 -2
-3 3 -17 13 -31 9 -15 14 -29 12 -32 -3 -3 -17 15 -30 39 -36 64 -11 56 75
-22 79 -73 74 -58 -12 32 -31 31 -53 57 -50 57 3 0 39 -11 79 -25 125 -43 124
-31 -2 22 -67 27 -75 33 -43 28 22 -3 70 -6 107 -8z m478 4 c-21 -12 -304 -24
-332 -15 l-23 8 25 7 c36 10 348 10 330 0z m-780 -11 c0 -5 -7 -10 -15 -10
-26 0 -128 -39 -144 -55 -12 -11 -4 -10 35 4 27 10 62 21 78 25 28 7 27 6 -20
-51 -26 -32 -51 -62 -54 -66 -9 -11 -59 63 -75 110 l-13 38 66 6 c114 10 142
9 142 -1z m-25 -97 c-40 -73 -52 -86 -71 -79 -15 6 -15 9 7 34 47 53 83 92 87
92 2 0 -9 -21 -23 -47z m58 30 c-10 -28 -58 -96 -84 -118 -26 -23 -21 -13 39
73 45 64 56 75 45 45z m487 1 c0 -2 -16 -4 -35 -4 -19 0 -35 4 -35 8 0 4 16 6
35 4 19 -2 35 -6 35 -8z m-490 -124 l0 -61 -32 17 c-18 9 -35 18 -37 20 -3 3
59 81 67 83 1 1 2 -26 2 -59z m-21 -289 c1 -70 -6 -44 -12 44 -4 57 -3 69 3
40 5 -22 9 -60 9 -84z m186 78 c10 -56 1 -59 -12 -4 -6 25 -7 45 -2 45 4 0 10
-18 14 -41z m-135 -209 c12 -91 20 -179 18 -195 -4 -35 -49 279 -54 375 -3 57
-2 60 6 25 5 -22 18 -114 30 -205z m53 162 c3 -42 2 -95 -3 -117 -5 -22 -10
-63 -10 -92 0 -103 -17 -59 -29 75 -7 75 -14 154 -17 175 -6 36 -5 37 24 37
l29 0 6 -78z m24 46 c-3 -7 -5 -2 -5 12 0 14 2 19 5 13 2 -7 2 -19 0 -25z m70
-80 c-3 -8 -6 -5 -6 6 -1 11 2 17 5 13 3 -3 4 -12 1 -19z m664 -27 c-28 -52
-137 -185 -207 -252 -90 -86 -162 -131 -295 -184 -112 -45 -188 -92 -218 -134
-13 -17 -27 -28 -33 -24 -7 4 -9 1 -6 -9 4 -8 2 -30 -3 -49 -7 -28 -8 -22 -5
30 1 35 -3 80 -10 100 -7 20 -13 55 -14 77 l0 42 76 7 c256 24 528 165 665
345 55 71 67 85 50 51z m-854 -73 c-2 -13 -4 -5 -4 17 -1 22 1 32 4 23 2 -10
2 -28 0 -40z m21 -128 c0 -16 -3 -11 -9 15 -4 22 -8 51 -7 65 0 16 3 11 9 -15
4 -22 8 -51 7 -65z m9 -67 c-3 -10 -5 -4 -5 12 0 17 2 24 5 18 2 -7 2 -21 0
-30z m1280 -1019 c15 -48 15 -57 3 -65 -15 -9 -928 -13 -918 -4 2 3 180 6 394
7 426 3 425 3 473 64 32 41 25 45 -13 9 -19 -18 -49 -35 -66 -39 -40 -8 -320
-6 -580 4 -170 6 -149 7 165 6 384 0 412 2 475 49 19 14 37 25 41 25 5 0 16
-25 26 -56z m-1388 -8 c-2 -2 -274 -5 -604 -7 -330 -3 -519 -2 -420 1 209 7
1030 12 1024 6z m404 -3 c-35 -2 -91 -2 -125 0 -35 2 -7 3 62 3 69 0 97 -1 63
-3z m-1044 -53 l696 -5 -681 -3 c-672 -2 -744 1 -744 30 0 6 7 4 17 -3 13 -12
143 -15 712 -19z m884 -7 c-13 -2 -33 -2 -45 0 -13 2 -3 4 22 4 25 0 35 -2 23
-4z"/>
<path d="M3023 4193 c136 -2 358 -2 495 0 136 1 24 2 -248 2 -272 0 -384 -1
-247 -2z"/>
<path d="M3714 4146 c-9 -15 -15 -16 -31 -8 -16 9 -25 6 -52 -19 -31 -28 -34
-29 -47 -12 -7 10 -14 21 -14 26 0 4 -17 6 -37 6 -28 -1 -31 -3 -13 -6 14 -3
37 -16 52 -31 26 -24 27 -27 13 -48 -8 -13 -15 -29 -15 -36 0 -7 9 2 21 21
l21 34 24 -29 c37 -45 40 -71 13 -100 -33 -35 -63 -29 -67 14 -2 24 -10 35
-28 42 -27 10 -30 20 -12 38 8 8 8 15 -2 27 -7 8 -10 25 -7 37 5 19 4 20 -9 6
-13 -13 -14 -20 -5 -37 15 -28 5 -44 -25 -38 -16 3 -24 0 -24 -10 0 -8 5 -11
10 -8 6 3 19 3 30 0 16 -5 18 -10 9 -26 -8 -15 -19 -19 -42 -17 l-32 3 1 70 2
70 -13 -40 c-16 -49 -10 -84 19 -109 21 -18 21 -25 24 -370 1 -193 4 -362 6
-376 2 -14 3 147 2 357 -1 349 0 382 16 386 11 3 19 -4 24 -22 4 -14 6 -30 5
-36 -1 -5 3 -5 10 2 8 8 28 10 53 7 34 -5 44 -2 62 18 25 27 40 100 19 92 -15
-6 -59 61 -50 76 10 17 33 11 49 -12 9 -12 16 -18 16 -14 0 5 -7 17 -16 27
-22 24 -14 47 9 25 9 -9 20 -15 24 -14 13 5 15 -133 2 -163 -9 -23 -8 -31 5
-44 15 -16 11 -50 -5 -39 -5 3 -9 0 -9 -5 0 -6 5 -11 10 -11 6 0 10 -12 10
-27 l0 -26 -25 23 c-13 12 -22 27 -18 33 3 6 1 7 -5 3 -17 -10 -15 -36 2 -36
22 0 47 -47 47 -88 0 -20 4 -255 8 -522 l8 -485 -2 585 c-2 322 -6 593 -10
602 -4 10 -3 30 2 45 5 16 7 69 4 118 -5 72 -8 86 -17 71z m-149 -186 c0 -13
-6 -25 -12 -27 -16 -6 -27 21 -19 43 9 23 31 11 31 -16z"/>
<path d="M3340 4133 c43 -22 60 -54 60 -115 0 -39 5 -53 31 -80 l31 -33 -26
36 c-20 27 -26 48 -26 85 0 27 -6 61 -14 76 -11 20 -11 28 -3 32 7 2 1 5 -13
5 -14 1 -36 4 -50 7 -19 4 -17 1 10 -13z"/>
<path d="M3420 4141 c0 -5 5 -13 10 -16 6 -3 10 -2 10 4 0 5 -4 13 -10 16 -5
3 -10 2 -10 -4z"/>
<path d="M3250 4132 c0 -13 54 -59 80 -67 17 -5 20 -15 20 -62 0 -52 3 -59 40
-94 l40 -38 3 -238 2 -238 3 247 2 247 -30 16 c-37 19 -50 50 -50 115 0 40 -4
50 -21 55 -11 4 -36 20 -55 37 -19 17 -34 26 -34 20z"/>
<path d="M2788 4113 c7 -3 16 -2 19 1 4 3 -2 6 -13 5 -11 0 -14 -3 -6 -6z"/>
<path d="M3013 4103 c26 -2 67 -2 90 0 23 2 2 3 -48 3 -49 0 -68 -1 -42 -3z"/>
<path d="M3461 4105 c1 -22 16 -48 22 -38 3 5 0 19 -8 29 -8 10 -14 15 -14 9z"/>
<path d="M3140 3879 c-15 -35 -22 -37 -84 -25 -25 5 -27 4 -16 -9 11 -13 10
-18 -6 -31 -18 -15 -18 -15 3 -9 12 3 24 1 28 -5 4 -6 14 -9 22 -6 13 5 14 1
10 -24 -9 -41 -1 -38 18 6 15 36 16 36 58 31 l42 -6 -36 17 c-32 15 -35 20
-27 42 14 39 4 56 -12 19z m-48 -61 c-9 -9 -15 -9 -24 0 -9 9 -7 12 12 12 19
0 21 -3 12 -12z"/>
<path d="M3662 3891 c-11 -6 -9 -9 6 -13 15 -4 19 -2 15 8 -6 16 -4 16 -21 5z"/>
<path d="M3525 3866 c34 -29 23 -35 -15 -9 -21 14 -23 15 -12 1 17 -21 68 -42
85 -35 8 3 17 18 20 34 l5 28 -18 -22 -17 -22 -39 25 -39 25 30 -25z"/>
<path d="M3623 3864 c-3 -8 -1 -20 5 -26 7 -7 10 -2 9 16 -2 30 -5 32 -14 10z"/>
<path d="M3165 3860 c3 -5 8 -10 11 -10 2 0 4 5 4 10 0 6 -5 10 -11 10 -5 0
-7 -4 -4 -10z"/>
<path d="M3585 3800 c-34 -13 -48 -39 -50 -86 -2 -37 3 -52 29 -84 17 -21 33
-39 36 -39 3 -1 15 17 28 39 17 30 31 42 54 47 23 5 27 8 15 15 -9 5 -26 4
-41 -4 -15 -6 -29 -8 -32 -5 -9 8 16 38 26 32 4 -3 10 4 13 15 6 23 -24 53
-50 48 -19 -3 -32 -48 -14 -48 6 0 8 7 5 15 -7 18 31 21 42 3 10 -15 -24 -38
-57 -38 -34 0 -45 25 -24 56 34 52 112 32 126 -32 l7 -29 1 28 c2 54 -58 90
-114 67z m2 -105 c17 4 23 1 23 -11 0 -12 -6 -15 -26 -10 -18 5 -24 3 -19 -5
5 -7 21 -9 42 -6 l34 6 -23 -31 -22 -31 -28 33 c-18 22 -24 36 -17 41 8 5 8 8
0 13 -6 4 -11 15 -10 24 0 13 3 11 11 -6 9 -18 17 -22 35 -17z"/>
<path d="M3153 3670 c-50 -20 -60 -105 -17 -139 15 -12 38 -21 51 -21 33 0 83
51 83 85 0 31 -49 85 -77 84 -10 0 -28 -4 -40 -9z m71 -31 c34 -27 32 -64 -7
-93 -26 -19 -30 -19 -55 -5 -37 20 -43 80 -10 103 30 21 40 20 72 -5z"/>
<path d="M3655 3610 c-3 -6 1 -7 9 -4 21 8 21 -29 1 -86 -17 -48 -19 -70 -6
-70 5 0 11 17 14 38 3 20 9 53 14 72 5 19 8 41 6 48 -5 14 -29 16 -38 2z"/>
<path d="M3614 3574 c-18 -14 -18 -15 4 -4 12 6 22 13 22 15 0 8 -5 6 -26 -11z"/>
<path d="M3591 3542 c-1 -8 8 -25 19 -39 11 -14 20 -21 20 -15 0 6 -5 14 -11
17 -6 4 -14 17 -19 29 -5 11 -9 15 -9 8z"/>
<path d="M2800 3515 c0 -3 50 -30 111 -61 287 -144 404 -243 499 -421 19 -35
36 -61 38 -58 11 11 -91 176 -147 237 -69 75 -257 207 -338 238 -26 10 -68 30
-93 44 -42 24 -70 33 -70 21z"/>
<path d="M3560 3495 c0 -2 7 -8 15 -15 12 -10 15 -10 15 2 0 8 -7 15 -15 15
-8 0 -15 -1 -15 -2z"/>
<path d="M3590 3442 c0 -19 -4 -21 -25 -16 -28 7 -33 -7 -10 -26 13 -11 13
-15 3 -21 -7 -5 -8 -9 -2 -9 21 0 24 14 7 32 -9 10 -12 18 -7 18 22 -1 36 -21
59 -86 14 -38 25 -61 25 -52 0 10 -9 40 -20 69 -11 28 -18 59 -16 68 3 9 1 23
-4 31 -8 12 -10 11 -10 -8z"/>
<path d="M3652 3398 c-19 -19 -14 -29 8 -16 20 13 27 28 12 28 -4 0 -13 -5
-20 -12z"/>
<path d="M3046 3322 c5 -5 38 -31 74 -59 170 -132 269 -278 346 -509 62 -184
56 -386 -16 -556 -32 -78 -19 -81 15 -4 45 103 60 183 59 321 -1 122 -3 136
-37 239 -84 248 -221 437 -399 552 -36 23 -62 33 -42 16z"/>
<path d="M3665 3270 c-15 -32 -15 -42 -5 -55 18 -22 32 -18 18 4 -10 16 -9 27
5 55 9 20 13 36 8 36 -4 0 -16 -18 -26 -40z"/>
<path d="M3570 3244 c-21 -25 -24 -98 -5 -114 19 -16 65 -4 73 18 3 11 -2 10
-20 -2 -14 -9 -33 -14 -42 -10 -30 12 -13 99 21 106 16 3 16 4 1 10 -9 4 -22
1 -28 -8z"/>
<path d="M3615 3200 c-3 -5 -1 -10 4 -10 6 0 11 5 11 10 0 6 -2 10 -4 10 -3 0
-8 -4 -11 -10z"/>
<path d="M3681 3132 c-1 -17 -11 -27 -38 -39 l-38 -15 28 -24 c16 -13 33 -21
40 -17 7 4 3 10 -11 16 -12 6 -22 14 -22 18 0 16 21 20 38 7 15 -11 15 -11 5
3 -9 11 -9 19 -2 26 6 6 9 19 6 29 -4 15 -5 15 -6 -4z"/>
<path d="M3609 3033 c15 -30 51 -53 81 -52 20 1 19 3 -10 9 -19 5 -45 21 -58
37 -17 20 -21 22 -13 6z"/>
<path d="M3308 2823 c7 -3 16 -2 19 1 4 3 -2 6 -13 5 -11 0 -14 -3 -6 -6z"/>
<path d="M3795 1770 c0 -311 1 -438 2 -283 2 156 2 410 0 565 -1 156 -2 29 -2
-282z"/>
<path d="M2881 2234 c11 -24 200 -303 210 -310 15 -9 20 -17 -97 162 -51 78
-98 145 -104 149 -7 4 -11 4 -9 -1z"/>
<path d="M3734 1910 c0 -173 2 -244 3 -157 2 86 2 228 0 315 -1 86 -3 15 -3
-158z"/>
<path d="M2820 2197 c0 -12 49 -106 85 -163 37 -57 125 -160 125 -145 0 5 -22
35 -48 65 -27 30 -69 92 -93 136 -48 88 -68 119 -69 107z"/>
<path d="M3120 2116 c0 -2 8 -10 18 -17 15 -13 16 -12 3 4 -13 16 -21 21 -21
13z"/>
<path d="M3671 1974 c-6 -15 -9 -29 -7 -32 3 -2 10 8 16 23 14 36 7 43 -9 9z"/>
<path d="M3275 1940 c-10 -11 -13 -20 -8 -20 13 0 38 29 31 35 -3 3 -13 -4
-23 -15z"/>
<path d="M3703 1900 c0 -30 2 -43 4 -27 2 15 2 39 0 55 -2 15 -4 2 -4 -28z"/>
<path d="M3659 1903 l-24 -28 28 24 c25 23 32 31 24 31 -2 0 -14 -12 -28 -27z"/>
<path d="M3164 1834 c-21 -21 -30 -32 -19 -26 20 10 73 62 64 62 -3 0 -23 -16
-45 -36z"/>
<path d="M2782 1785 c0 -16 2 -22 5 -12 2 9 2 23 0 30 -3 6 -5 -1 -5 -18z"/>
<path d="M3459 1801 c12 -8 10 -17 -15 -53 -41 -60 -46 -68 -41 -68 3 0 21 24
42 54 35 51 39 76 12 76 -8 0 -7 -4 2 -9z"/>
<path d="M3703 1730 c0 -41 2 -58 4 -37 2 20 2 54 0 75 -2 20 -4 3 -4 -38z"/>
<path d="M3572 1758 c-6 -6 -11 -23 -11 -37 1 -24 2 -24 8 4 5 23 12 31 33 33
19 2 28 -2 33 -17 3 -10 13 -25 22 -33 14 -10 13 -6 -3 22 -21 37 -59 51 -82
28z"/>
<path d="M3620 1701 c0 -13 39 -35 48 -27 3 3 0 6 -6 6 -6 0 -18 7 -26 16 -9
8 -16 11 -16 5z"/>
<path d="M3544 1634 c49 -15 112 -52 114 -67 1 -4 9 -21 17 -38 9 -17 20 -58
25 -92 8 -62 8 -62 6 21 -3 81 -4 84 -41 122 -37 38 -107 71 -149 69 -12 0 1
-7 28 -15z m156 -117 c0 -12 0 -11 -24 28 l-17 30 20 -24 c12 -13 21 -28 21
-34z"/>
<path d="M3335 1599 c-105 -35 -152 -99 -166 -229 -12 -102 -31 -155 -79 -212
-22 -25 -40 -50 -40 -54 0 -4 7 1 15 12 14 18 14 18 15 -8 0 -20 4 -26 15 -22
10 4 12 10 7 18 -11 13 -12 46 -1 46 3 0 9 -9 12 -20 4 -16 11 -19 39 -14 47
8 58 12 58 22 0 5 -7 9 -15 9 -8 0 -12 -4 -9 -9 3 -4 -6 -8 -20 -8 -30 0 -32
10 -10 56 l17 35 29 -33 28 -33 -21 38 c-11 20 -25 37 -29 37 -17 0 -54 -65
-52 -90 2 -23 1 -23 -7 -4 -7 16 -2 36 20 80 20 41 32 85 38 146 15 136 52
191 151 224 77 26 174 24 227 -4 125 -65 150 -250 49 -360 -40 -45 -95 -65
-187 -70 -160 -8 -225 48 -215 186 5 59 4 61 -3 17 -5 -27 -11 -66 -15 -85 -5
-22 -4 -30 2 -22 7 10 12 6 22 -18 7 -17 26 -41 42 -55 87 -74 286 -50 372 45
46 51 59 98 54 186 -6 86 -31 133 -98 179 -37 25 -53 30 -114 32 -49 1 -90 -4
-131 -18z"/>
<path d="M3396 1575 c-21 -7 -53 -28 -71 -45 l-32 -31 1 -109 c1 -86 -2 -106
-11 -98 -14 11 -32 68 -35 111 -1 14 -6 23 -11 20 -5 -3 -13 1 -18 8 -7 11 -9
10 -9 -3 0 -10 7 -18 15 -18 10 0 15 -11 16 -37 2 -59 -2 -76 -19 -91 -10 -7
-11 -11 -4 -7 8 4 12 -2 12 -19 0 -14 4 -26 8 -26 5 0 18 -9 30 -20 16 -16 26
-18 45 -11 14 6 28 7 31 4 13 -13 5 19 -10 42 -22 34 -25 208 -4 250 32 63
131 96 193 64 68 -35 114 -126 101 -199 -18 -99 -79 -152 -177 -154 -51 -1
-61 2 -78 24 l-20 25 16 -32 c15 -32 18 -33 76 -33 96 0 155 38 184 119 39
113 -5 223 -107 266 -45 18 -71 18 -122 0z m-81 -355 c-9 -15 -27 -12 -53 8
-20 16 -23 24 -17 55 l7 36 34 -45 c19 -25 32 -49 29 -54z"/>
<path d="M3273 1528 c-17 -18 -36 -44 -42 -58 l-12 -25 18 25 c10 13 31 39 47
57 36 43 29 43 -11 1z"/>
<path d="M3717 1475 c16 -68 9 -148 -19 -197 -15 -27 -23 -48 -19 -48 5 0 14
13 21 30 16 39 30 29 30 -21 0 -30 -3 -38 -12 -33 -10 6 -10 4 0 -8 8 -10 11
-32 7 -59 l-5 -44 11 40 c14 53 7 323 -9 350 -11 18 -11 16 -5 -10z"/>
<path d="M3382 1467 c-32 -34 -29 -73 9 -92 24 -13 29 -20 23 -38 -15 -50 -24
-67 -33 -67 -12 0 -4 25 16 55 7 11 13 23 13 28 0 17 -19 -4 -43 -47 -24 -44
-24 -44 -4 -50 32 -8 77 5 88 26 11 20 11 20 25 -1 21 -30 46 -28 38 3 -3 14
-1 33 6 43 9 15 10 13 6 -15 -4 -20 -2 -31 4 -27 13 8 13 41 0 66 -8 15 -7 19
4 19 7 0 24 8 36 18 l23 19 -41 41 c-43 43 -60 50 -79 31 -8 -8 -13 -8 -17 0
-12 19 -51 12 -74 -12z m66 -10 c3 -14 -4 -17 -34 -17 -37 0 -37 0 -19 20 22
24 48 22 53 -3z m71 -6 c9 -15 5 -18 -24 -18 -33 0 -33 1 -18 24 16 24 27 23
42 -6z m-76 -27 c13 -13 -7 -34 -33 -34 -15 0 -30 6 -33 14 -8 19 1 26 33 26
15 0 29 -3 33 -6z m117 -19 c0 -15 -43 -12 -48 3 -3 10 4 13 22 10 15 -2 26
-7 26 -13z m-61 -9 c15 -18 -1 -30 -29 -21 -11 4 -17 12 -13 21 7 18 27 18 42
0z m-54 -97 c-3 -9 -13 -20 -22 -23 -12 -5 -14 -2 -8 16 3 13 9 34 12 47 l6
25 9 -23 c5 -13 6 -32 3 -42z m60 51 c3 -5 3 -21 -1 -35 -6 -24 -8 -25 -24
-10 -10 9 -20 25 -23 36 -4 15 0 19 18 19 13 0 26 -4 30 -10z"/>
<path d="M3262 1420 c0 -19 6 -51 14 -70 13 -32 14 -32 8 -5 -4 17 -10 48 -14
70 l-7 40 -1 -35z"/>
<path d="M2973 1315 c0 -8 6 -15 13 -15 8 0 11 6 8 15 -4 8 -9 15 -13 15 -4 0
-8 -7 -8 -15z"/>
<path d="M2960 1280 c0 -15 21 -23 32 -12 6 6 2 11 -11 15 -12 3 -21 1 -21 -3z"/>
<path d="M3070 1220 c-6 -11 -8 -20 -6 -20 3 0 10 9 16 20 6 11 8 20 6 20 -3
0 -10 -9 -16 -20z"/>
<path d="M3652 1203 c-6 -2 -10 -9 -6 -14 3 -5 1 -9 -5 -9 -13 0 -23 -33 -15
-54 8 -21 48 -21 65 1 13 15 12 15 -9 4 -24 -13 -52 -9 -52 7 0 4 6 17 14 27
12 16 16 17 30 6 10 -8 16 -9 16 -3 0 6 -8 16 -17 22 -17 10 -16 11 2 8 10 -2
22 -14 26 -28 6 -21 7 -22 8 -4 2 34 -24 51 -57 37z"/>
<path d="M3043 1178 c-15 -20 -25 -38 -20 -38 3 0 12 11 21 25 17 26 16 35 -1
13z"/>
<path d="M3582 1157 c-13 -14 -37 -31 -53 -37 -16 -7 -29 -17 -29 -22 0 -10
30 4 73 34 l27 19 0 -33 c0 -25 -3 -29 -10 -18 -6 9 -10 10 -10 3 0 -18 19
-26 26 -10 3 8 4 32 2 52 l-3 37 -23 -25z"/>
<path d="M3150 1150 c0 -5 5 -10 11 -10 5 0 7 5 4 10 -3 6 -8 10 -11 10 -2 0
-4 -4 -4 -10z"/>
<path d="M3230 1146 c0 -2 8 -10 18 -17 15 -13 16 -12 3 4 -13 16 -21 21 -21
13z"/>
<path d="M3173 1093 c32 -2 81 -2 110 0 29 2 3 3 -58 3 -60 0 -84 -1 -52 -3z"/>
<path d="M1445 4340 c-23 -25 -34 -92 -33 -195 1 -80 2 -73 14 82 9 124 -5
117 251 123 l218 6 -216 2 c-205 2 -217 1 -234 -18z"/>
<path d="M1471 4178 c1 -17 2 -19 6 -6 4 17 39 18 496 21 l492 2 -497 3 -498
2 1 -22z"/>
<path d="M1515 4143 c-3 -10 -9 -48 -12 -85 -5 -56 -2 -72 15 -101 19 -33 19
-35 1 -50 -14 -13 -18 -30 -18 -89 0 -41 4 -80 10 -88 7 -11 8 -7 3 13 -9 39
3 74 31 93 27 18 65 11 65 -12 0 -8 4 -14 10 -14 5 0 7 7 4 15 -4 10 0 15 11
15 11 0 15 -5 11 -15 -3 -8 -1 -15 5 -15 5 0 12 7 15 15 4 8 16 15 28 15 39 0
66 28 66 68 0 20 -4 43 -9 51 -6 9 -3 21 11 35 15 16 18 29 13 56 -9 49 -62
90 -79 61 -3 -5 -15 -7 -25 -4 -10 3 -22 0 -26 -6 -4 -7 -1 -10 7 -9 8 2 13
-7 13 -22 0 -14 -4 -24 -10 -23 -5 1 -11 -10 -11 -23 -2 -30 -9 -38 -24 -29
-14 8 -3 113 13 134 8 9 30 12 79 9 37 -2 62 0 55 4 -7 4 -40 8 -74 8 -70 0
-76 -5 -87 -76 -7 -37 -9 -40 -35 -36 -29 4 -50 -11 -31 -23 5 -3 10 -1 10 4
0 21 26 11 57 -21 28 -31 49 -68 37 -68 -10 0 -60 35 -78 54 -18 21 -18 21 -2
-6 9 -16 13 -28 9 -28 -5 -1 15 -9 42 -19 48 -17 50 -17 63 1 17 23 32 23 32
-1 0 -60 -36 -66 -116 -20 -71 40 -88 73 -80 153 3 33 11 65 16 70 12 12 13
26 1 26 -5 0 -12 -8 -16 -17z m229 -49 c9 -8 16 -23 16 -33 0 -14 -7 -16 -35
-13 -28 3 -35 8 -35 26 0 39 26 48 54 20z m-48 -89 c10 -31 8 -37 -12 -56
l-22 -21 -7 22 c-9 29 3 90 18 90 7 0 17 -16 23 -35z m64 12 c0 -14 -19 -37
-30 -37 -4 0 -12 11 -18 25 -11 24 -10 25 18 25 18 0 30 -5 30 -13z m-16 -73
c13 -34 6 -64 -19 -80 -21 -14 -40 -15 -100 -10 -67 6 -76 5 -95 -14 l-21 -21
3 37 c4 54 26 63 85 35 27 -12 62 -21 78 -19 35 4 59 42 44 70 -7 13 -6 18 5
18 7 0 17 -7 20 -16z"/>
<path d="M1473 3470 c-2 -377 0 -695 3 -707 4 -13 10 -20 15 -17 5 3 6 11 2
17 -5 7 -10 323 -13 702 l-5 690 -2 -685z"/>
<path d="M1800 4124 c-13 -33 -13 -54 1 -54 5 0 8 4 5 9 -4 5 -2 21 4 35 8 21
16 26 42 25 33 0 33 0 11 -16 -20 -13 -23 -25 -23 -75 0 -50 -3 -61 -19 -65
-12 -3 -21 -16 -24 -36 -4 -27 -3 -29 7 -13 6 10 19 26 29 35 12 11 17 31 17
68 0 54 10 71 56 100 16 10 10 12 -39 12 -53 1 -58 -1 -67 -25z"/>
<path d="M2472 4130 c0 -14 2 -19 5 -12 2 6 2 18 0 25 -3 6 -5 1 -5 -13z"/>
<path d="M1976 4101 c-10 -11 -30 -24 -46 -31 -24 -10 -29 -19 -35 -65 -7 -58
-41 -105 -76 -105 -18 0 -19 -15 -17 -357 l3 -358 2 353 c3 331 4 352 21 352
40 0 82 62 82 121 0 23 8 34 40 54 22 14 40 29 40 34 0 6 12 12 28 14 l27 4
-26 2 c-14 0 -34 -7 -43 -18z"/>
<path d="M2163 4103 c48 -2 125 -2 170 0 45 1 6 3 -88 3 -93 0 -130 -2 -82 -3z"/>
<path d="M1417 3763 c-4 -87 -6 -374 -5 -638 l2 -480 6 635 c4 349 6 636 5
638 -1 1 -5 -69 -8 -155z"/>
<path d="M2121 3882 c-1 -32 -2 -33 -33 -27 l-33 6 29 -17 29 -16 -29 -19
c-35 -23 -29 -24 19 -4 l35 15 8 -33 c7 -31 7 -31 17 -9 8 17 15 21 31 16 18
-6 19 -5 8 9 -8 9 -20 13 -28 10 -8 -3 -14 0 -14 6 0 6 10 11 23 11 12 0 29 5
37 10 11 7 2 10 -31 10 -43 0 -47 2 -57 33 l-10 32 -1 -33z"/>
<path d="M1742 3520 c-1 -179 -4 -350 -7 -380 -4 -52 -4 -53 5 -16 6 23 9 176
7 380 l-2 341 -3 -325z"/>
<path d="M1716 3790 c4 -22 0 -51 -10 -75 -18 -43 -32 -43 -16 0 13 34 5 62
-21 76 -22 11 -138 21 -119 9 8 -5 7 -9 -4 -13 -12 -5 -16 -20 -16 -55 l0 -49
45 -6 c43 -6 75 -1 75 12 0 3 -17 6 -37 6 -35 0 -38 2 -40 30 -2 27 -2 28 7 8
6 -15 18 -23 34 -23 33 0 42 29 17 54 -17 17 -24 18 -47 8 -22 -11 -26 -18
-22 -47 3 -24 0 -35 -9 -35 -17 0 -18 71 -1 88 15 15 82 16 109 2 22 -12 26
-59 8 -92 -8 -15 -8 -19 0 -14 21 13 11 -9 -20 -47 -24 -29 -36 -36 -53 -31
-20 6 -20 6 -2 -8 23 -18 17 -54 -16 -99 -25 -33 -14 -56 20 -45 30 10 37 37
11 43 -20 6 -20 7 -5 18 16 12 66 81 66 91 0 3 -11 -8 -25 -23 -17 -20 -24
-23 -25 -12 0 8 10 26 23 39 12 13 33 38 46 54 l23 31 -6 -253 -6 -253 -30
-59 c-17 -33 -37 -90 -46 -127 -22 -97 -24 -103 -40 -103 -22 0 -54 -38 -53
-62 1 -21 2 -21 6 -3 7 26 33 55 50 55 17 0 17 -27 1 -33 -9 -4 -9 -6 -2 -6 9
-1 9 -13 0 -48 -11 -43 -18 -51 -69 -82 -32 -19 -55 -36 -53 -39 3 -2 30 10
60 28 50 28 57 36 71 82 8 29 15 65 15 81 0 47 37 179 71 252 l32 68 7 306 c4
168 4 313 -1 321 -5 9 -6 1 -3 -20z m-89 -50 c1 -14 0 -19 -3 -12 -3 6 -12 12
-20 12 -8 0 -14 7 -14 16 0 26 35 12 37 -16z m-22 -270 c-3 -5 -13 -10 -21
-10 -8 0 -12 5 -9 10 3 6 13 10 21 10 8 0 12 -4 9 -10z"/>
<path d="M2052 3663 c-15 -6 -42 -56 -42 -78 0 -26 55 -75 85 -75 37 0 75 41
75 83 0 57 -61 93 -118 70z m80 -30 c38 -34 9 -103 -44 -103 -21 0 -58 38 -58
60 0 50 64 78 102 43z"/>
<path d="M1531 3630 c-1 -39 10 -70 25 -70 8 0 14 5 14 11 0 5 -4 8 -9 4 -6
-3 -14 14 -19 37 -7 28 -10 34 -11 18z"/>
<path d="M1556 3625 c4 -8 11 -15 16 -15 6 0 5 6 -2 15 -7 8 -14 15 -16 15 -2
0 -1 -7 2 -15z"/>
<path d="M1528 3302 c1 -147 4 -298 5 -337 2 -38 4 76 5 255 1 179 -2 330 -6
337 -4 6 -6 -109 -4 -255z"/>
<path d="M2287 3496 c-199 -87 -344 -208 -481 -401 -61 -84 -115 -184 -91
-165 17 14 18 13 11 -5 -28 -66 -41 -112 -61 -210 l-22 -110 -49 -3 c-27 -2
-56 -9 -64 -16 -8 -8 -28 -21 -45 -30 -26 -15 -27 -16 -5 -10 14 3 40 15 58
25 18 10 50 19 71 19 21 0 43 6 48 13 5 6 16 46 23 87 19 111 67 268 102 330
50 91 154 215 240 290 63 54 113 86 219 138 76 37 138 70 138 75 1 12 -10 8
-92 -27z"/>
<path d="M1620 3400 c8 -5 26 -9 40 -9 23 0 23 1 5 9 -11 5 -29 9 -40 9 -17 1
-17 -1 -5 -9z"/>
<path d="M1580 3394 c1 -5 10 -20 21 -33 16 -19 24 -23 37 -15 9 6 18 17 21
25 4 12 2 12 -13 0 -14 -12 -20 -11 -41 9 -14 13 -25 19 -25 14z"/>
<path d="M1575 3289 c11 -21 13 -34 6 -43 -5 -6 -6 -18 -2 -25 5 -7 5 -28 1
-47 -5 -22 -4 -34 2 -34 16 0 37 32 38 58 0 22 -45 122 -55 122 -3 0 2 -14 10
-31z m35 -91 c0 -15 -5 -30 -11 -33 -7 -5 -8 5 -4 29 5 25 4 36 -4 36 -7 0 -9
5 -5 11 9 16 24 -9 24 -43z"/>
<path d="M1557 3073 c-4 -3 -7 -11 -7 -17 0 -6 5 -5 12 2 6 6 9 14 7 17 -3 3
-9 2 -12 -2z"/>
<path d="M1680 3048 c0 -2 -16 -67 -35 -142 -49 -197 -83 -248 -207 -313 -37
-19 -68 -39 -68 -44 0 -8 44 -72 122 -178 l33 -44 3 -385 c3 -380 3 -384 22
-360 20 26 151 94 195 102 14 3 29 8 35 11 6 4 19 1 28 -7 15 -12 16 -11 2 8
-44 63 -99 122 -103 111 -2 -6 -11 2 -20 19 -14 26 -20 30 -47 26 -23 -3 -38
2 -57 19 l-26 24 12 -23 c7 -12 9 -33 6 -45 -5 -19 -5 -20 5 -4 21 32 66 21
120 -29 28 -26 50 -51 50 -55 0 -17 -37 -9 -55 11 -10 11 -20 18 -23 15 -8 -7
41 -44 60 -45 9 0 20 5 23 10 8 13 25 3 25 -16 0 -8 -10 -14 -22 -14 -13 0
-51 -13 -86 -30 l-64 -30 -34 26 -34 26 1 292 1 291 23 -91 c27 -104 47 -157
104 -273 57 -118 51 -88 -10 49 -28 63 -65 171 -83 240 -36 135 -52 174 -85
204 -16 15 -18 21 -9 28 10 6 10 8 -2 8 -8 1 -32 25 -53 55 l-38 55 58 25 c32
15 73 40 91 58 38 36 83 121 100 187 30 118 52 223 47 228 -3 3 -5 3 -5 0z
m-83 -1412 c-1 -1 -14 -12 -29 -25 l-28 -24 0 47 0 47 30 -22 c16 -13 29 -23
27 -23z"/>
<path d="M1560 2815 c-6 -8 -10 -19 -8 -24 1 -6 8 1 15 14 13 28 11 31 -7 10z"/>
<path d="M1403 2405 c0 -27 2 -38 4 -22 2 15 2 37 0 50 -2 12 -4 0 -4 -28z"/>
<path d="M1555 2390 c47 -55 48 -56 37 -35 -6 11 -23 31 -39 45 l-28 25 30
-35z"/>
<path d="M1475 1930 c0 -223 1 -314 2 -203 2 112 2 294 0 405 -1 112 -2 21 -2
-202z"/>
<path d="M2192 2148 c-29 -28 -50 -53 -47 -56 3 -3 29 17 57 46 68 67 59 76
-10 10z"/>
<path d="M1622 2139 c6 -16 12 -28 14 -26 5 5 -13 57 -20 57 -3 0 0 -14 6 -31z"/>
<path d="M1650 2080 c6 -11 13 -20 16 -20 2 0 0 9 -6 20 -6 11 -13 20 -16 20
-2 0 0 -9 6 -20z"/>
<path d="M2511 1967 c-7 -60 -11 -110 -8 -113 6 -7 30 191 25 208 -3 7 -10
-36 -17 -95z"/>
<path d="M1580 1998 c0 -10 60 -108 66 -108 3 0 -2 12 -10 28 -21 39 -56 88
-56 80z"/>
<path d="M1989 1946 c24 -26 41 -33 41 -18 0 4 -15 15 -33 25 l-32 19 24 -26z"/>
<path d="M1571 1944 c0 -12 7 -28 17 -35 15 -12 16 -12 6 1 -7 8 -14 24 -17
35 -4 19 -5 19 -6 -1z"/>
<path d="M2092 1869 c2 -7 10 -15 17 -17 8 -3 12 1 9 9 -2 7 -10 15 -17 17 -8
3 -12 -1 -9 -9z"/>
<path d="M1770 1861 c0 -5 5 -13 10 -16 6 -3 10 -2 10 4 0 5 -4 13 -10 16 -5
3 -10 2 -10 -4z"/>
<path d="M2492 1800 c0 -19 2 -27 5 -17 2 9 2 25 0 35 -3 9 -5 1 -5 -18z"/>
<path d="M2165 1811 c-3 -5 -1 -12 5 -16 5 -3 10 1 10 9 0 18 -6 21 -15 7z"/>
<path d="M1564 1760 c1 -28 7 -38 29 -48 31 -15 62 -9 71 13 5 13 2 13 -18 0
-35 -24 -74 -5 -79 37 l-4 33 1 -35z"/>
<path d="M1810 1793 c0 -6 16 -33 36 -60 40 -53 68 -82 41 -43 -10 14 -31 45
-47 69 -17 25 -30 40 -30 34z"/>
<path d="M1600 1780 c0 -5 5 -10 11 -10 5 0 7 5 4 10 -3 6 -8 10 -11 10 -2 0
-4 -4 -4 -10z"/>
<path d="M1973 1599 c39 -49 52 -73 95 -169 11 -24 11 -24 5 5 -9 47 -54 124
-101 174 l-43 46 44 -56z"/>
<path d="M1685 1619 c-21 -10 -52 -31 -67 -46 -32 -30 -98 -153 -98 -179 1
-11 7 -3 14 16 27 76 90 164 134 188 59 33 148 40 207 18 50 -19 111 -82 144
-149 12 -23 19 -31 15 -17 -12 50 -76 131 -128 161 -64 36 -157 40 -221 8z"/>
<path d="M1694 1592 c-57 -31 -114 -111 -129 -179 -10 -48 12 -136 45 -182 88
-121 316 -136 423 -27 22 22 38 35 36 29 -7 -23 -74 -101 -94 -112 -11 -5 -14
-10 -7 -10 8 -1 25 12 40 29 25 29 26 29 36 8 6 -12 18 -24 26 -26 12 -4 11
-1 -2 15 -21 23 -23 43 -5 66 11 16 15 14 40 -18 24 -31 26 -35 9 -35 -10 0
-24 6 -32 13 -12 10 -12 9 -1 -5 7 -10 21 -18 31 -18 10 0 23 -7 30 -15 7 -8
17 -15 22 -15 9 0 -15 37 -64 99 -22 28 -25 37 -16 57 11 23 12 21 42 -35 50
-94 70 -113 27 -26 -21 44 -53 111 -71 148 -17 38 -34 66 -37 63 -3 -3 2 -17
12 -32 9 -15 21 -40 26 -57 8 -27 4 -37 -31 -83 -54 -72 -111 -98 -210 -99
-152 0 -249 83 -258 220 -3 51 0 72 18 109 31 61 78 104 131 121 31 10 37 14
19 14 -14 0 -39 -8 -56 -17z"/>
<path d="M1763 1589 c-18 -5 -35 -15 -39 -21 -5 -8 -2 -9 12 -4 133 55 267
-60 268 -230 1 -78 -11 -102 -65 -130 l-27 -13 29 52 c50 90 30 207 -44 261
-44 32 -158 34 -217 4 -55 -28 -70 -56 -70 -128 1 -128 84 -210 213 -210 70 0
141 25 171 60 13 16 25 27 27 25 9 -8 1 113 -10 150 -34 128 -150 214 -248
184z m21 -82 c-3 -8 -16 -12 -33 -9 -16 2 -37 -1 -48 -7 -15 -9 -15 -10 -2
-11 27 0 44 -27 29 -45 -15 -18 -22 -14 -50 24 l-20 29 42 15 c55 20 89 21 82
4z m27 -37 c-7 -33 -8 -33 -14 -11 -3 14 -1 31 5 38 15 19 18 13 9 -27z m68
24 c6 -5 -30 -44 -41 -44 -4 0 -8 14 -8 31 0 27 3 30 23 23 12 -3 24 -8 26
-10z m-189 -92 c0 -6 -7 -12 -15 -16 -25 -9 -17 -24 18 -31 48 -11 49 -13 27
-53 -10 -20 -22 -45 -25 -56 -4 -15 -8 -16 -21 -5 -40 33 -62 132 -44 200 l11
42 25 -36 c13 -20 24 -40 24 -45z m88 61 c5 -18 -23 -16 -39 3 -11 14 -10 15
11 12 13 -1 25 -9 28 -15z m153 -25 c30 -59 28 -124 -6 -187 -37 -67 -78 -83
-160 -60 l-39 11 32 14 c18 7 35 20 38 29 5 12 12 8 36 -17 29 -31 29 -31 49
-11 19 18 19 22 6 61 -14 41 -14 42 8 42 22 0 23 -3 14 -32 -5 -17 -7 -34 -4
-36 9 -10 25 51 25 99 0 40 -3 49 -17 49 -10 0 -26 7 -36 14 -18 14 -18 16 -2
40 10 14 21 26 26 26 5 0 18 -19 30 -42z m-151 -12 c0 -14 -21 -26 -47 -26
-11 0 -8 6 8 20 29 23 39 25 39 6z m62 -18 c-7 -7 -12 -8 -12 -2 0 6 3 14 7
17 3 4 9 5 12 2 2 -3 -1 -11 -7 -17z m-22 -46 c0 -7 -4 -11 -9 -8 -5 4 -11 3
-14 -1 -2 -5 -2 -2 0 5 1 8 3 21 3 30 0 15 2 15 10 2 5 -8 10 -21 10 -28z m98
13 c3 -3 -13 -5 -36 -5 -40 0 -65 14 -40 23 13 4 66 -8 76 -18z m-141 -9 c-4
-11 -11 -11 -71 1 -40 8 -15 19 34 15 25 -3 39 -9 37 -16z m143 -15 c0 -13
-45 -22 -67 -14 -18 8 -14 9 60 22 4 0 7 -3 7 -8z m-140 -30 c0 -5 -12 -24
-26 -41 -15 -17 -24 -33 -21 -36 9 -9 27 6 48 40 17 28 19 29 19 8 0 -13 -12
-34 -26 -47 -52 -48 -78 -22 -44 44 18 36 50 56 50 32z m80 -11 c20 -20 25
-45 14 -74 -9 -23 -17 -20 -37 13 -17 29 -20 81 -5 81 4 0 17 -9 28 -20z"/>
<path d="M1830 1305 c0 -2 9 -19 20 -37 23 -39 27 -30 5 12 -14 27 -25 38 -25
25z"/>
<path d="M2020 1576 c0 -3 9 -10 20 -16 11 -6 20 -8 20 -6 0 3 -9 10 -20 16
-11 6 -20 8 -20 6z"/>
<path d="M1535 1529 c-4 -6 -5 -12 -2 -15 2 -3 7 2 10 11 7 17 1 20 -8 4z"/>
<path d="M2101 1474 c0 -11 3 -14 6 -6 3 7 2 16 -1 19 -3 4 -6 -2 -5 -13z"/>
<path d="M2312 1330 c-13 -21 -6 -26 15 -12 7 4 9 13 5 19 -6 9 -11 6 -20 -7z"/>
<path d="M2032 1295 c0 -16 2 -22 5 -12 2 9 2 23 0 30 -3 6 -5 -1 -5 -18z"/>
<path d="M1522 1290 c0 -14 2 -19 5 -12 2 6 2 18 0 25 -3 6 -5 1 -5 -13z"/>
<path d="M2315 1290 c-8 -14 3 -30 21 -30 8 0 14 9 14 20 0 21 -24 28 -35 10z"/>
<path d="M1520 1241 c-13 -26 -5 -78 18 -103 17 -20 87 -25 97 -8 4 6 12 8 18
4 7 -3 -7 11 -30 31 -24 20 -53 50 -67 67 l-24 31 -12 -22z m25 -46 c-3 -11
-2 -14 1 -7 3 6 9 12 14 12 16 0 70 -52 64 -61 -8 -14 -61 -10 -77 6 -18 18
-31 70 -21 86 10 16 25 -11 19 -36z"/>
<path d="M1666 1114 c-4 -10 -26 -15 -83 -16 l-78 -2 72 -3 c49 -3 81 1 99 10
21 11 23 15 11 20 -9 3 -18 -1 -21 -9z"/>
<path d="M1823 1093 c9 -2 23 -2 30 0 6 3 -1 5 -18 5 -16 0 -22 -2 -12 -5z"/>
<path d="M1875 1090 c-7 -11 159 -12 270 0 56 5 36 7 -97 8 -102 1 -169 -2
-173 -8z"/>
<path d="M1941 2836 c7 -7 321 -116 333 -116 23 1 -25 20 -173 69 -151 50
-169 55 -160 47z"/>
<path d="M1790 2096 c0 -5 19 -45 42 -90 35 -66 66 -104 163 -201 102 -102
133 -127 210 -167 50 -26 127 -60 173 -77 117 -43 134 -54 160 -99 24 -43 52
-72 52 -53 0 21 -72 112 -101 126 -15 8 -71 30 -123 49 -177 63 -303 147 -419
280 -41 47 -93 120 -115 163 -23 43 -42 74 -42 69z"/>
<path d="M2205 1601 c6 -5 54 -28 109 -51 104 -46 185 -109 241 -190 15 -22
30 -38 33 -36 7 8 -64 100 -108 140 -22 19 -66 49 -97 65 -72 36 -191 85 -178
72z"/>
<path d="M2660 2015 c0 -8 5 -15 10 -15 6 0 10 7 10 15 0 8 -4 15 -10 15 -5 0
-10 -7 -10 -15z"/>
</g>
</svg>