<?xml version="1.0" standalone="no"?>
<!DOCTYPE svg PUBLIC "-//W3C//DTD SVG 20010904//EN"
 "http://www.w3.org/TR/2001/REC-SVG-20010904/DTD/svg10.dtd">
<svg version="1.0" xmlns="http://www.w3.org/2000/svg"
 width="512.000000pt" height="512.000000pt" viewBox="0 0 512.000000 512.000000"
 preserveAspectRatio="xMidYMid meet">
<metadata>
Created by potrace 1.16, written by Peter Selinger 2001-2019
</metadata>
<g transform="translate(0.000000,512.000000) scale(0.100000,-0.100000)"
fill="#000000" stroke="none">
<path d="M338 5033 l-3 -88 -167 -3 c-140 -2 -168 -5 -168 -17 0 -8 4 -15 10
-15 17 0 23 -69 8 -93 l-15 -22 223 3 224 3 0 -110 0 -111 -35 0 -35 0 0 -82
c0 -46 -3 -127 -7 -180 l-6 -98 -184 0 c-132 0 -183 -3 -183 -12 0 -8 88 -10
353 -5 193 4 368 4 387 1 l35 -6 1 -189 1 -189 -388 0 c-253 0 -389 -4 -389
-10 0 -6 60 -10 160 -10 l160 0 0 -120 0 -120 -160 0 c-100 0 -160 -4 -160
-10 0 -6 62 -10 165 -10 l166 0 -3 -67 -3 -68 -165 -5 c-91 -3 -158 -7 -150
-9 8 -2 34 -3 57 -1 85 4 83 8 83 -161 l0 -149 -75 0 c-43 0 -75 -4 -75 -10 0
-6 58 -10 153 -10 207 0 197 -8 197 166 0 82 4 134 10 135 38 5 85 8 237 14
l172 7 3 -276 c3 -232 1 -279 -12 -291 -10 -10 -11 -15 -2 -15 9 0 12 -41 12
-160 l0 -160 -65 0 c-44 0 -67 4 -70 12 -2 7 -8 81 -14 163 l-9 150 1 -160 2
-160 -67 -3 -68 -3 0 151 0 150 -59 0 -59 0 -9 88 -10 87 -2 -87 -1 -88 -170
0 c-104 0 -170 -4 -170 -10 0 -6 87 -11 228 -12 l227 -3 3 -232 2 -233 -232
-2 -233 -2 235 -6 235 -5 0 -165 0 -165 -235 -5 -235 -5 235 -5 235 -5 0 -110
0 -110 -232 -3 c-263 -3 -322 -20 -85 -24 l147 -3 3 -157 3 -158 -151 0 c-93
0 -150 -4 -150 -10 0 -6 82 -10 225 -10 l226 0 -3 -77 -3 -78 -222 -3 c-137
-1 -223 -6 -223 -12 0 -6 77 -10 202 -10 l202 0 -32 -23 c-17 -13 -46 -42 -63
-63 -27 -34 -30 -44 -25 -81 l6 -43 -34 0 c-40 0 -80 -30 -184 -136 l-72 -75
0 -244 0 -245 39 6 c24 4 41 2 45 -5 4 -6 3 -11 -2 -11 -17 0 -84 -31 -79 -36
3 -3 31 6 63 19 56 23 66 24 191 18 72 -3 135 -9 139 -13 4 -4 -10 -15 -32
-24 -110 -46 -350 -157 -359 -165 -15 -15 7 -6 230 95 l200 91 355 -5 c295 -4
361 -3 390 9 24 10 89 16 214 19 l179 4 -59 -68 c-33 -38 -66 -78 -73 -89 -16
-23 32 26 101 103 l46 52 116 0 c64 0 116 -2 116 -4 0 -3 -25 -40 -56 -83 -31
-43 -59 -84 -61 -90 -4 -9 -34 -14 -97 -15 l-91 -2 88 -3 c84 -4 87 -4 76 -24
-6 -12 -9 -23 -6 -25 4 -4 45 59 147 222 15 24 16 24 198 24 173 0 182 -1 173
-18 -15 -27 -63 -224 -56 -230 9 -10 14 3 35 103 11 55 25 110 30 123 l10 22
427 0 428 0 63 -110 c61 -104 64 -109 88 -100 14 6 115 10 225 10 l200 0 26
-26 c14 -14 27 -23 29 -21 6 5 -203 231 -219 236 -6 2 26 -36 72 -85 l85 -89
-215 -5 c-118 -3 -219 -1 -226 3 -7 5 -25 32 -41 60 -16 29 -40 69 -52 90
l-22 38 223 -1 c123 -1 296 -8 384 -16 88 -7 198 -14 246 -14 47 0 89 -4 95
-8 21 -19 87 -55 80 -44 -4 7 -21 19 -37 27 -50 27 -25 38 65 31 45 -4 135 -9
201 -13 l120 -6 125 -61 125 -61 -140 -5 -140 -6 162 -2 162 -2 67 -35 c37
-19 69 -33 72 -31 2 3 -92 52 -210 109 l-213 105 216 1 216 1 103 -45 c56 -25
106 -45 111 -43 5 2 -35 22 -89 46 -54 23 -107 49 -118 57 -17 13 -13 14 36 8
30 -3 63 -10 73 -15 30 -15 107 -37 102 -28 -2 4 -24 13 -47 19 -76 19 -81 33
-10 29 34 -3 62 -1 62 3 0 5 -39 10 -87 12 l-88 3 88 2 87 2 0 78 c0 42 -4 72
-8 66 -4 -5 -28 -11 -54 -13 -25 -1 -69 -8 -97 -16 -28 -7 -52 -10 -53 -7 0 4
-4 -15 -7 -43 -5 -39 -8 -17 -14 94 -8 138 -8 144 12 158 29 19 27 68 -3 103
-20 24 -25 44 -31 123 l-7 95 -49 45 c-48 44 -49 45 -49 105 0 52 -3 62 -20
67 -11 3 -20 13 -20 21 0 12 33 14 200 14 124 0 200 4 200 10 0 6 -82 11 -212
12 l-213 3 -3 83 -3 82 218 1 c158 0 211 3 193 10 -15 7 -87 9 -180 6 -85 -2
-172 -2 -192 1 l-38 5 0 148 c0 138 1 149 20 159 13 7 86 9 215 6 118 -3 195
-2 195 4 0 5 -42 11 -92 12 l-93 3 -3 132 -3 132 -112 3 -112 3 0 330 0 330
134 3 c86 2 138 -1 145 -8 7 -7 13 -81 16 -188 l5 -177 58 -3 c35 -2 57 1 57
8 0 5 -22 10 -50 10 l-50 0 2 178 3 177 48 3 c33 2 47 7 47 18 0 11 -25 14
-140 14 l-140 0 0 220 0 220 140 0 c87 0 140 4 140 10 0 6 -11 10 -25 10 -14
0 -25 5 -25 10 0 6 -7 27 -16 48 l-16 37 -12 -45 -11 -45 -86 -3 c-85 -3 -87
-2 -93 22 -3 13 -3 32 0 40 5 13 -3 16 -50 16 l-56 0 0 175 0 175 195 0 c123
0 195 4 195 10 0 6 -35 10 -84 10 -67 0 -85 3 -90 16 -3 9 -6 58 -6 109 l0 93
28 7 c15 3 53 5 85 4 31 -1 60 1 64 4 3 4 -71 7 -164 7 l-171 0 -5 38 c-5 30
-3 655 2 700 1 9 38 12 144 13 78 1 156 5 172 9 18 4 -41 8 -142 9 l-172 1 -3
128 c-2 71 -1 159 0 195 l4 67 171 3 172 3 -172 2 -173 2 0 65 c0 36 -4 65
-10 65 -6 0 -11 -107 -12 -287 l-3 -288 -147 -3 -148 -3 -3 293 c-2 282 -2
278 -5 -93 l-2 -387 -22 -6 c-30 -8 -152 -8 -172 0 -14 5 -16 49 -16 390 l0
384 -60 0 c-50 0 -60 -3 -60 -17 0 -13 3 -14 12 -5 7 7 22 12 34 12 21 0 22
-2 19 -121 -2 -66 -7 -125 -11 -129 -5 -5 -62 -10 -126 -12 l-117 -3 -140 138
c-77 75 -147 137 -156 137 -9 0 10 -22 42 -49 32 -27 74 -65 93 -85 l34 -36
-36 -37 -36 -36 -101 82 c-56 45 -101 85 -101 89 0 4 9 22 20 40 11 17 16 32
11 32 -5 0 -18 -16 -30 -36 l-21 -35 -66 37 c-76 43 -78 42 -111 -45 -9 -25
-18 -48 -20 -50 -6 -8 -103 42 -103 53 1 6 7 22 15 36 17 29 18 40 6 40 -5 0
-12 -10 -15 -22 -13 -49 -18 -49 -101 -13 l-80 35 -455 0 c-430 0 -460 -1
-530 -21 l-75 -20 -14 20 c-9 14 -24 21 -47 21 l-35 0 16 -29 15 -29 -101 -69
c-56 -37 -110 -74 -120 -82 -17 -12 -19 -11 -19 4 0 9 -16 39 -35 65 -19 26
-35 50 -35 53 0 3 23 22 50 42 28 21 49 40 46 42 -6 6 -184 -139 -301 -244
-44 -40 -85 -73 -90 -73 -6 0 -54 44 -108 98 l-98 98 10 45 c15 64 12 93 -4
34 -7 -27 -34 -90 -59 -140 -25 -49 -47 -98 -50 -107 -4 -15 -9 -15 -56 3 -27
10 -64 19 -80 19 l-30 0 0 135 c0 113 -2 135 -15 135 -12 0 -15 -13 -15 -56 0
-46 -3 -55 -15 -50 -13 5 -15 -4 -10 -62 4 -37 8 -76 10 -88 4 -20 -1 -21
-138 -29 -78 -5 -176 -9 -217 -9 l-75 -1 4 148 c2 102 0 147 -7 147 -7 0 -12
-33 -14 -87z m3112 33 c30 -18 54 -38 53 -44 -1 -5 5 -8 15 -5 11 2 53 -24
111 -72 79 -62 98 -83 113 -122 l18 -48 -42 -37 c-48 -42 -57 -42 -75 -7 -21
42 -152 186 -224 246 -38 31 -69 59 -69 61 0 10 32 62 38 62 4 0 32 -15 62
-34z m-714 14 c25 0 33 -5 38 -24 7 -29 51 -59 87 -60 37 -1 27 10 -16 18 -31
6 -55 29 -55 54 0 9 149 -14 159 -24 6 -6 -61 -144 -70 -144 -4 0 -9 6 -12 13
-3 8 -4 7 -3 -2 1 -8 40 -30 91 -50 94 -38 192 -90 235 -124 32 -25 28 -24
-110 45 -108 54 -291 119 -371 133 -56 10 -57 13 -51 98 4 74 6 78 26 73 11
-3 35 -6 52 -6z m-96 -59 c0 -32 -3 -73 -6 -90 l-6 -31 -73 0 c-84 0 -83 -1
-92 102 -7 77 -10 75 105 77 l72 1 0 -59z m-195 -18 c3 -27 8 -55 9 -65 4 -19
-20 -28 -79 -28 -22 0 -83 -11 -135 -25 -52 -14 -98 -25 -102 -25 -5 0 -8 27
-8 60 0 71 -1 70 149 102 76 15 96 17 102 6 6 -9 9 -9 9 -1 0 10 14 17 42 22
4 0 10 -20 13 -46z m-359 13 c3 -8 13 -13 22 -11 9 2 33 6 52 9 l35 6 -32 -10
c-43 -14 -48 -25 -44 -98 l3 -62 -34 -12 c-72 -25 -269 -130 -346 -185 -137
-98 -209 -163 -321 -288 -190 -211 -253 -327 -321 -589 -16 -59 -31 -110 -33
-113 -10 -10 -97 20 -97 34 0 65 85 315 151 443 71 140 124 214 225 314 213
213 374 331 599 442 72 35 125 64 119 64 -21 0 -271 -130 -359 -187 -97 -64
-261 -201 -365 -307 -35 -36 -71 -66 -79 -66 -24 0 -131 42 -131 52 0 25 178
254 206 265 16 6 64 -33 64 -53 0 -7 -20 -37 -46 -68 -61 -76 -49 -71 20 8
l57 65 -38 35 -38 35 60 62 60 63 -65 -57 c-59 -52 -66 -55 -82 -41 -15 15 -9
23 89 110 58 52 108 94 112 94 6 -1 59 -69 82 -107 12 -19 8 -25 -42 -73 -44
-42 -47 -47 -14 -22 115 84 301 187 425 233 87 32 99 34 106 15z m1056 -65
c36 -14 284 -176 327 -214 42 -36 143 -102 153 -99 8 2 22 -38 15 -44 -3 -3
-60 37 -128 89 -136 103 -190 140 -261 181 -69 40 -59 26 13 -19 194 -120 401
-303 518 -460 68 -91 131 -197 131 -222 0 -16 12 -17 27 -2 9 9 18 -3 38 -47
44 -100 94 -260 117 -375 19 -97 24 -111 47 -122 22 -11 26 -18 23 -51 -2 -24
5 -54 19 -83 22 -45 22 -50 14 -297 -4 -138 -8 -272 -9 -298 -1 -39 -4 -48
-19 -48 -17 0 -18 -7 -11 -72 3 -40 9 -75 12 -78 2 -3 2 28 -2 68 -6 68 -5 72
14 72 19 0 20 -7 20 -138 0 -142 -5 -162 -42 -162 -21 0 -21 -3 -2 -50 l14
-35 -6 33 c-4 24 -2 32 9 32 8 0 18 -7 21 -16 3 -9 6 -131 6 -271 l0 -256 -50
6 c-28 3 -55 9 -60 12 -6 3 -10 42 -10 86 0 74 -1 79 -21 79 -18 0 -21 5 -17
30 3 20 0 30 -9 30 -11 0 -13 75 -13 404 0 399 5 473 34 463 8 -3 10 -120 8
-435 -1 -289 1 -432 8 -432 7 0 10 152 10 453 l0 452 30 63 c35 74 36 87 13
97 -15 5 -16 4 -5 -6 6 -7 12 -16 12 -19 0 -4 -118 -10 -263 -13 -144 -3 -275
-10 -289 -16 -23 -9 -26 -8 -21 5 3 9 15 19 26 23 18 7 20 15 18 72 -2 72 -38
298 -41 259 -1 -23 -3 -22 -14 10 -79 214 -292 485 -476 605 -209 136 -420
192 -633 166 -249 -29 -419 -108 -589 -275 -61 -60 -121 -141 -123 -166 -1 -8
-26 -60 -56 -115 -98 -177 -133 -290 -145 -462 l-7 -92 37 -6 c27 -5 36 -12
36 -27 0 -12 -4 -16 -11 -12 -34 20 -109 28 -344 33 -168 4 -258 10 -255 16 3
6 93 10 240 10 l235 0 -5 40 c-4 39 -5 39 -8 8 -2 -22 -9 -33 -19 -33 -13 0
-14 12 -8 86 4 47 16 127 26 177 31 141 33 167 19 167 -7 0 -10 -6 -7 -14 3
-8 1 -30 -4 -48 -14 -45 -20 -69 -23 -93 -2 -11 -4 -20 -5 -20 -3 0 -5 -19
-16 -157 l-8 -98 -46 0 -47 0 3 43 c15 212 62 384 123 451 22 23 44 55 50 70
9 25 8 27 -12 24 -27 -4 -83 -109 -122 -228 -26 -81 -56 -252 -56 -319 0 -35
-3 -41 -20 -41 -20 0 -20 4 -14 90 5 60 3 90 -3 90 -17 0 -23 -27 -23 -106 0
-59 -3 -74 -15 -74 -11 0 -15 12 -15 48 0 82 13 212 20 207 4 -2 10 21 13 53
15 142 105 371 203 518 50 76 72 97 220 212 154 120 298 217 334 224 8 2 21 9
28 16 7 6 18 12 23 12 15 0 10 -20 -6 -26 -8 -4 -13 -9 -11 -13 2 -3 -36 -28
-85 -55 -49 -27 -140 -91 -202 -141 -196 -160 -297 -287 -377 -473 -48 -114
-114 -347 -104 -370 5 -12 11 2 21 48 41 186 108 359 189 486 74 115 255 284
384 358 36 21 72 46 80 56 8 10 47 35 87 54 116 58 457 132 475 103 5 -8 -25
-17 -97 -29 -99 -16 -301 -76 -291 -85 2 -2 21 0 43 6 88 25 86 4 -5 -32 -87
-34 -205 -89 -172 -81 14 3 81 30 150 59 209 88 222 93 302 105 44 7 122 11
180 8 86 -4 120 -11 208 -42 58 -21 113 -38 122 -39 9 -1 14 -5 12 -9 -3 -4 0
-8 5 -8 6 0 11 4 11 10 0 19 193 -85 230 -125 13 -14 31 -25 41 -25 10 0 24
-6 31 -14 8 -7 28 -17 45 -20 64 -14 173 -100 252 -198 110 -137 171 -271 209
-458 17 -80 36 -193 42 -252 11 -88 15 -105 28 -101 26 11 10 305 -27 479 -32
156 -56 210 -156 364 -129 199 -244 320 -400 423 -85 56 -218 129 -230 126 -7
-2 -160 54 -215 78 -19 8 -64 20 -99 27 -36 7 -67 18 -69 25 -3 10 5 11 39 5
24 -4 55 -6 69 -5 41 2 217 -58 325 -111 248 -123 409 -269 582 -528 145 -216
200 -409 219 -762 6 -116 6 -118 30 -118 23 0 24 3 24 63 0 89 -26 299 -49
398 -28 119 -75 252 -112 318 -108 191 -301 421 -434 515 -76 54 -313 180
-391 206 -74 26 -217 66 -267 74 -61 11 -34 29 32 21 143 -16 436 -138 611
-254 159 -105 371 -366 491 -603 80 -159 137 -410 142 -627 1 -86 5 -111 16
-111 11 0 12 15 6 76 -5 55 -4 74 4 70 6 -4 11 -24 11 -45 0 -21 3 -53 6 -70
6 -29 10 -31 48 -31 l41 0 -7 128 c-14 257 -48 429 -123 615 -25 62 -45 118
-45 125 0 7 -3 12 -7 12 -5 0 -24 27 -42 60 -48 83 -59 76 -16 -10 46 -92 44
-100 -7 -20 -23 36 -67 97 -99 135 -78 95 -275 287 -324 316 -22 13 -76 50
-120 82 -44 33 -148 94 -232 135 l-151 76 24 48 24 47 78 -28 c42 -16 89 -34
104 -40z m-1950 -68 c49 -48 88 -92 88 -97 0 -5 -17 -30 -38 -55 -66 -80 -67
-88 -5 -21 57 61 62 64 78 48 17 -15 13 -22 -55 -105 -71 -85 -150 -198 -150
-214 0 -4 24 -15 53 -25 93 -30 91 -27 50 -92 -61 -95 -112 -192 -154 -292
-44 -105 -114 -354 -104 -371 4 -5 4 -21 1 -35 -6 -23 -10 -25 -64 -22 l-57 3
-2 110 c-6 263 -6 485 -2 489 2 3 45 9 93 13 l89 8 43 93 c24 51 39 90 35 88
-5 -3 -25 -44 -46 -91 l-38 -85 -89 0 -88 0 0 102 c0 89 3 104 21 124 26 27
38 80 39 160 0 55 2 62 30 83 17 12 38 38 47 57 9 19 20 34 24 34 5 0 13 19
19 43 13 49 67 137 83 137 7 0 51 -39 99 -87z m2719 -63 c41 -52 97 -125 123
-162 26 -38 50 -68 52 -68 3 0 -23 41 -58 90 -95 136 -96 139 -78 150 8 5 66
10 128 10 l112 0 0 -244 c0 -168 -3 -247 -11 -252 -8 -5 -8 -9 1 -14 13 -8 14
-13 29 -220 14 -186 13 -188 -18 -75 -38 137 -73 228 -148 379 -70 140 -71
152 -5 148 46 -3 53 -11 83 -87 12 -33 26 -64 31 -69 11 -14 -9 53 -35 115
l-22 54 -45 -1 c-25 -1 -52 -5 -61 -8 -11 -5 -28 13 -63 63 -26 39 -77 103
-112 142 -74 82 -79 105 -32 144 26 22 34 24 42 13 6 -7 45 -56 87 -108z
m-3593 48 l3 -48 -129 0 c-124 0 -130 1 -135 21 -3 12 -3 35 0 51 l6 29 126
-3 126 -3 3 -47z m2312 -7 c-5 -11 -10 -29 -10 -40 0 -19 -6 -21 -64 -21 l-64
0 -4 40 -4 40 79 0 c74 0 77 -1 67 -19z m-160 -6 c0 -16 -4 -17 -125 -35 -176
-26 -423 -126 -596 -241 -102 -68 -281 -240 -337 -324 l-33 -50 38 45 c192
228 380 370 603 458 105 41 302 92 382 99 65 6 68 5 68 -16 0 -19 -5 -21 -62
-21 -35 0 -101 -9 -148 -20 -88 -19 -252 -75 -190 -64 32 6 33 5 20 -11 -8 -9
-57 -38 -109 -65 -288 -144 -489 -336 -614 -582 -52 -101 -118 -284 -143 -398
-17 -79 -17 -21 1 79 16 93 13 125 -4 39 -21 -110 -36 -271 -34 -388 1 -49 -1
-58 -7 -35 l-8 30 -1 -36 c-1 -34 -3 -35 -41 -37 l-40 -3 -2 108 -2 108 -3
-107 -4 -108 -29 0 c-30 0 -30 0 -30 58 0 56 15 206 26 270 4 17 12 32 19 32
8 0 22 36 35 93 69 281 157 444 343 635 251 256 458 384 743 457 87 22 194 40
262 44 13 1 22 -5 22 -14z m-1552 -30 c66 -20 67 -36 7 -103 -42 -47 -45 -53
-45 -108 0 -69 -14 -127 -35 -144 -13 -11 -15 11 -15 179 0 217 -7 204 88 176z
m-138 -52 c0 -44 -4 -51 -57 -104 -32 -31 -66 -66 -76 -78 -16 -19 -26 -22
-95 -19 l-77 3 -3 117 -3 117 43 4 c24 2 94 4 156 5 l112 2 0 -47z m1840 2 c0
-12 -14 -15 -65 -15 -83 0 -85 18 -2 23 34 2 63 4 65 5 1 1 2 -5 2 -13z m1202
-42 c63 -70 173 -246 163 -263 -7 -11 -86 -54 -89 -48 -16 29 -126 164 -160
198 -25 24 -46 51 -46 59 0 18 70 80 91 81 8 0 27 -12 41 -27z m-1204 -5 c-3
-8 -27 -14 -61 -16 -46 -2 -57 0 -57 13 0 12 13 15 61 15 44 0 60 -3 57 -12z
m140 -8 c114 -20 372 -123 372 -150 0 -17 -17 -12 -98 29 -92 46 -217 87 -321
104 -41 7 -77 19 -79 26 -3 9 5 11 29 7 19 -3 63 -11 97 -16z m-1988 -95 l0
-55 -48 0 c-27 0 -51 3 -55 6 -18 18 61 104 96 104 4 0 7 -25 7 -55z m1720 16
c0 -5 -37 -14 -82 -20 -46 -7 -124 -23 -174 -37 -102 -27 -114 -28 -114 -14 0
12 145 56 230 69 119 19 140 19 140 2z m-404 -93 c-6 -4 -15 0 -20 9 -5 10 -4
18 5 24 9 5 16 3 20 -9 4 -9 1 -20 -5 -24z m-1308 -20 c3 -27 2 -28 -48 -28
-32 0 -49 -4 -45 -10 3 -5 26 -10 51 -10 l44 0 0 -130 0 -130 -49 0 c-68 0
-81 7 -77 38 2 15 1 20 -1 12 -14 -44 -32 -50 -150 -50 l-113 0 0 60 0 60 123
2 122 2 -122 3 -123 4 0 88 c0 49 3 97 6 105 6 14 29 16 193 14 l186 -3 3 -27z
m1152 13 c0 -3 -29 -23 -64 -44 -36 -21 -127 -88 -203 -149 l-138 -111 79 81
c79 81 126 118 240 191 55 35 86 46 86 32z m1030 -15 c60 -14 256 -117 320
-168 71 -58 72 -74 3 -30 -71 44 -268 151 -329 178 -75 33 -73 37 6 20z m694
-166 c158 -188 265 -368 305 -510 25 -91 53 -302 49 -368 -2 -39 -7 -23 -26
88 -31 182 -80 350 -103 350 -4 0 -13 17 -20 38 -36 113 -210 389 -338 537
-17 20 -11 16 18 -10 24 -22 76 -78 115 -125z m1104 -179 c2 -243 -1 -337 -9
-348 -9 -10 -34 -13 -98 -11 l-86 3 -3 258 -2 257 -38 0 c-21 0 -43 5 -50 12
-13 13 -17 150 -5 162 4 3 70 5 147 4 l141 -3 3 -334z m-778 194 c33 -47 69
-122 70 -141 0 -7 -17 -19 -37 -28 -33 -15 -34 -16 -8 -10 17 3 37 7 45 8 19
1 75 -137 102 -253 11 -47 30 -128 42 -178 15 -65 18 -93 10 -93 -6 0 -23 -9
-37 -20 -14 -11 -29 -20 -34 -20 -4 0 -19 51 -31 113 -24 117 -100 357 -132
417 -10 19 -37 73 -60 120 l-41 85 26 23 c37 31 50 28 85 -23z m-477 -145 c21
-22 35 -45 31 -51 -3 -6 3 -13 15 -16 12 -3 21 -9 21 -14 0 -5 7 -17 16 -26
21 -25 95 -143 88 -143 -3 0 -2 -6 3 -12 4 -7 9 -22 10 -33 2 -11 -9 0 -24 25
-14 25 -46 71 -70 103 -23 31 -43 59 -43 61 0 7 -52 67 -118 136 -34 37 -59
69 -56 73 8 8 75 -47 127 -103z m1031 81 c15 -12 16 -42 14 -295 l-3 -281
-112 -2 c-93 -2 -113 1 -113 13 0 10 -12 14 -44 14 l-44 0 -7 74 c-4 47 -3 82
4 94 7 13 9 82 6 198 -3 115 -1 182 6 190 15 18 270 14 293 -5z m-1804 -32 c4
-6 32 -20 61 -30 64 -22 62 -21 54 -9 -3 6 -1 10 4 10 6 0 11 -8 11 -17 0 -13
3 -14 8 -5 6 9 30 -1 93 -38 100 -61 101 -62 93 -83 -5 -15 -11 -14 -48 9 -77
48 -241 123 -283 130 -25 4 -43 12 -43 19 0 10 -5 11 -24 2 -22 -11 -18 -13
51 -29 83 -20 209 -75 296 -131 31 -20 57 -36 58 -34 0 1 2 10 4 20 5 28 12
31 34 15 28 -20 121 -108 121 -115 0 -3 36 -43 80 -90 44 -46 80 -88 80 -94 0
-5 8 -18 18 -29 9 -11 15 -22 12 -23 -3 -2 7 -17 21 -34 29 -35 85 -161 94
-213 3 -18 10 -40 15 -50 5 -9 14 -56 20 -104 12 -84 11 -89 -9 -110 -12 -12
-21 -29 -21 -37 0 -8 -5 -20 -11 -26 -12 -12 13 -83 30 -83 5 0 9 -51 9 -125
-1 -85 -4 -125 -12 -125 -6 0 -4 -5 4 -10 12 -8 9 -10 -12 -10 -62 0 -59 15
-52 -294 4 -224 9 -289 22 -321 22 -56 20 -370 -7 -680 -6 -77 -14 -221 -18
-320 -4 -99 -8 -171 -11 -160 -7 32 -24 49 -33 33 -5 -7 -9 98 -9 235 l0 247
-345 0 -345 0 0 -405 0 -405 261 0 c159 0 268 -4 280 -10 10 -6 25 -23 33 -38
l14 -27 -322 3 c-176 1 -327 4 -333 7 -7 2 -13 -1 -13 -8 0 -11 67 -13 324
-13 178 1 328 -2 332 -7 4 -4 4 -10 0 -15 -4 -4 -156 -8 -337 -10 l-329 -3 2
-107 2 -107 3 101 4 102 377 4 c207 3 381 1 386 -4 6 -4 -22 -9 -62 -9 -40 -1
-76 -3 -82 -4 -5 -1 -14 -3 -20 -4 -5 0 -17 -17 -26 -37 -15 -32 -19 -34 -29
-20 -7 8 -15 13 -18 9 -4 -3 -8 5 -8 18 -1 13 -7 -11 -15 -55 -7 -43 -15 -80
-18 -83 -2 -3 -62 -8 -133 -12 l-128 -8 140 -3 c136 -3 138 -3 60 -10 -44 -5
-158 -5 -253 -2 -113 5 -171 4 -169 -3 2 -6 99 -11 255 -13 178 -2 252 -6 252
-14 0 -6 -11 -21 -26 -34 l-25 -24 -283 0 -283 0 -6 113 c-16 273 -4 1610 14
1517 5 -28 7 -23 8 28 0 35 -3 61 -7 58 -5 -3 -12 119 -15 272 -7 288 -7 1896
0 1852 4 -23 7 -25 48 -22 35 3 45 8 48 25 2 12 5 -379 6 -869 l1 -891 -28 5
c-35 5 -55 -17 -50 -55 3 -24 8 -28 41 -31 36 -3 37 -5 37 -41 0 -36 -1 -38
-32 -37 l-33 1 -3 -221 c-3 -241 -2 -242 54 -228 24 6 24 8 24 113 0 70 4 111
12 119 9 9 9 12 1 12 -9 0 -12 144 -13 556 l0 556 392 -3 393 -4 -1 110 c-1
116 -13 191 -46 290 -43 126 -135 281 -207 349 -16 16 -27 34 -24 40 3 6 3 8
-2 4 -4 -4 -30 12 -56 37 -108 101 -297 195 -459 229 -14 3 0 3 30 1 44 -3 50
-2 30 7 -14 5 -45 7 -70 4 -25 -3 -83 -8 -130 -11 -103 -7 -215 -29 -284 -56
-190 -75 -367 -224 -449 -378 -42 -80 -43 -96 -2 -23 15 26 37 55 49 65 11 10
14 15 6 11 -8 -4 -12 -3 -8 1 5 5 20 10 34 11 14 2 36 11 47 21 12 10 7 0 -11
-22 -164 -200 -228 -348 -234 -535 l-3 -85 315 -3 315 -2 -2 429 c-2 418 -3
431 -23 451 -11 11 -20 17 -20 12 0 -4 -10 -12 -21 -17 -12 -6 -20 -14 -18
-18 6 -13 -44 -37 -66 -31 -12 3 -15 2 -8 -3 7 -5 -7 -19 -41 -39 -51 -30 -67
-29 -73 4 -4 18 163 116 214 125 10 2 31 9 46 15 45 19 74 24 80 15 3 -5 7
-229 9 -498 l3 -490 -372 -3 -373 -2 -4 22 c-3 13 -7 32 -8 42 -2 13 -15 23
-37 28 l-34 9 7 86 c15 179 102 422 178 495 18 17 24 26 13 18 -18 -13 5 12
163 173 98 100 249 192 347 211 74 15 151 33 165 39 45 19 308 16 320 -4z
m-267 -106 c-7 -2 -19 -2 -25 0 -7 3 -2 5 12 5 14 0 19 -2 13 -5z m52 -3800
l-6 -53 -495 0 -494 0 0 35 0 35 403 1 c221 1 413 4 427 8 14 4 -165 5 -397 3
l-423 -4 0 176 c0 190 2 184 -54 190 -15 2 -35 10 -44 20 -16 16 -17 98 -17
1156 l0 1140 21 0 c14 0 24 -8 28 -22 4 -13 7 -498 8 -1078 1 -580 3 -1032 5
-1005 1 28 4 498 5 1046 3 827 5 999 17 1012 7 10 16 17 20 17 3 0 6 -80 5
-177 l-1 -178 7 180 c5 150 17 235 32 235 2 0 3 -483 2 -1072 0 -590 1 -1140
4 -1223 l4 -150 57 5 56 4 -50 6 -50 5 -2 183 c-1 105 2 182 7 182 5 0 11 -30
13 -67 l3 -68 2 74 c2 55 -2 77 -13 85 -13 10 -15 142 -16 1018 -1 923 0 1009
16 1035 l16 28 377 -3 377 -2 0 -532 -1 -531 -29 -23 c-17 -13 -33 -24 -37
-24 -5 0 -8 225 -8 500 l0 500 -315 0 -315 0 0 -655 0 -655 315 0 314 0 3 142
3 143 27 9 c15 5 30 8 32 5 3 -2 7 -311 9 -686 l4 -682 -21 -4 c-16 -3 -14 -5
7 -6 21 -1 30 5 37 25 6 15 10 239 10 565 0 537 0 540 20 529 14 -8 26 -8 40
0 19 10 20 21 21 153 1 343 1 343 -53 331 l-28 -6 0 804 c0 442 -3 875 -6 963
-3 88 -2 155 3 149 11 -14 64 -24 92 -17 11 3 22 13 23 22 6 37 8 -3748 3
-3796z m224 3286 c0 -237 3 -435 8 -439 8 -8 365 -15 561 -12 l92 2 0 44 c0
133 -43 293 -105 396 -20 33 -36 63 -37 67 -1 20 -20 43 -30 37 -6 -4 -8 -3
-4 4 3 6 -4 18 -16 27 -13 8 -22 19 -20 23 1 4 -2 7 -6 7 -5 0 -35 23 -68 51
-32 28 -86 71 -119 94 -33 24 -53 41 -45 38 8 -3 24 -2 35 2 12 4 25 1 34 -7
7 -8 20 -12 28 -9 9 4 13 1 11 -6 -2 -6 3 -19 11 -28 9 -9 31 -33 49 -53 18
-20 37 -37 43 -37 6 0 7 -4 4 -10 -3 -6 1 -7 9 -4 9 3 16 1 16 -5 0 -6 6 -11
13 -11 23 0 117 -157 157 -262 44 -120 63 -222 58 -328 l-3 -75 -375 0 -375 0
-3 460 -2 460 40 3 40 2 -1 -431z m145 420 c-2 -4 0 -10 5 -13 5 -4 12 2 15
11 3 12 4 10 3 -5 -1 -12 -6 -22 -11 -22 -5 1 -13 -4 -17 -12 -7 -10 -9 -10
-9 0 0 7 -4 11 -9 8 -5 -4 -8 2 -6 11 2 10 4 21 4 24 1 3 8 6 16 6 8 0 12 -4
9 -8z m-614 -439 l0 -420 -300 0 -300 0 0 55 c0 230 132 484 337 647 63 50
223 138 250 138 10 0 13 -83 13 -420z m557 399 c74 -31 203 -121 286 -199 119
-112 210 -252 242 -377 17 -65 20 -213 5 -213 -5 0 -11 15 -11 33 -2 30 -2 30
-6 5 l-4 -28 -270 0 -269 0 0 355 0 355 53 -26 c262 -132 425 -326 472 -563 7
-36 14 -54 14 -40 3 80 -64 251 -133 342 -20 26 -36 52 -36 57 0 6 -3 10 -7
10 -5 1 -26 17 -48 37 -22 20 -33 33 -25 29 26 -13 -32 33 -105 83 -71 49
-190 113 -196 106 -2 -2 -2 -174 1 -382 l5 -378 267 -5 c147 -3 270 -9 274
-13 4 -4 -122 -7 -279 -7 -223 0 -287 3 -286 13 0 6 -2 191 -5 410 -4 297 -3
396 6 391 8 -5 9 -2 5 9 -8 21 -9 21 50 -4z m-807 -83 c0 -2 -8 -10 -17 -17
-16 -13 -17 -12 -4 4 13 16 21 21 21 13z m361 -79 c-7 -7 -9 -1 -6 19 5 40 7
43 12 15 3 -13 0 -28 -6 -34z m-4 -39 c-3 -8 -6 -5 -6 6 -1 11 2 17 5 13 3 -3
4 -12 1 -19z m2531 -34 c21 -6 22 -11 22 -114 l0 -108 -92 -4 c-51 -3 -96 -3
-100 -1 -5 2 -8 30 -8 62 0 64 4 68 75 73 17 1 -31 5 -105 8 l-135 5 -3 37
c-3 31 0 37 20 41 36 7 300 7 326 1z m-4448 -209 l0 -205 -24 -6 c-13 -3 -37
-4 -52 -2 -27 3 -30 7 -36 53 -3 28 -7 121 -7 208 l-1 157 60 0 60 0 0 -205z
m320 53 c0 -84 -3 -177 -6 -205 l-7 -53 -143 0 -144 0 0 205 0 205 150 0 150
0 0 -152z m3750 -3 l0 -55 43 1 c30 2 34 3 14 6 -32 5 -51 40 -41 79 6 23 10
24 84 24 l78 0 6 -31 c3 -17 6 -123 6 -234 0 -161 -3 -205 -14 -214 -9 -8 -51
-11 -122 -9 l-109 3 0 77 c1 75 -10 95 -17 33 l-3 -30 -101 -3 -102 -3 -4 188
c-4 158 -2 191 10 206 13 14 34 17 144 17 l128 0 0 -55z m-3536 -64 c4 -5 2
-31 -4 -58 -20 -93 -43 -269 -44 -329 -1 -34 -7 -73 -15 -87 -11 -21 -11 -29
-2 -41 10 -12 5 -16 -31 -24 l-43 -10 66 -1 66 -1 6 -206 c4 -147 3 -211 -5
-224 -9 -14 -9 -25 0 -45 8 -18 12 -116 12 -330 l0 -305 -85 0 -85 0 0 560 c0
441 3 560 13 560 9 0 9 2 0 8 -12 8 -28 524 -16 536 10 10 161 7 167 -3z
m3066 -207 c0 -56 -4 -94 -10 -94 -6 0 -10 40 -10 101 0 64 4 98 10 94 6 -3
10 -48 10 -101z m-3730 -134 c0 -172 6 -164 -105 -158 l-60 3 -3 140 c-1 76 0
145 2 152 4 9 29 13 86 13 l80 0 0 -150z m4132 -282 l3 -313 103 -3 102 -3 0
-43 c0 -54 -5 -56 -115 -56 -79 0 -84 1 -88 23 -2 12 -4 -39 -4 -113 l1 -135
5 105 6 105 90 3 c76 2 92 0 102 -14 16 -23 19 -495 3 -525 -10 -18 -23 -19
-215 -19 l-205 0 0 650 0 650 105 0 105 0 2 -312z m-3272 242 l0 -30 -78 0
c-77 0 -78 0 -89 30 l-11 30 89 0 89 0 0 -30z m62 25 c3 -3 3 -17 0 -30 -3
-18 -11 -25 -28 -25 -20 0 -24 5 -24 30 0 25 4 30 23 30 13 0 26 -2 29 -5z
m167 -1 c25 -5 31 -11 30 -33 0 -23 -1 -24 -9 -6 -7 17 -9 17 -9 3 -1 -16 -12
-18 -81 -18 l-80 0 0 30 c0 30 0 30 59 30 32 0 73 -3 90 -6z m137 -25 c23 -8
42 -35 32 -44 -2 -3 -32 0 -66 6 -57 10 -62 13 -62 36 0 24 2 25 36 18 20 -3
47 -10 60 -16z m2124 -3 c0 -20 -6 -24 -45 -29 -25 -4 -56 -9 -70 -13 -18 -4
-25 -2 -25 8 0 22 31 46 65 51 68 10 75 8 75 -17z m130 -1 c0 -24 -3 -25 -54
-25 -56 0 -72 9 -62 35 4 11 22 15 61 15 52 0 55 -1 55 -25z m50 0 c0 -14 -4
-25 -10 -25 -5 0 -10 11 -10 25 0 14 5 25 10 25 6 0 10 -11 10 -25z m228 3
c-3 -22 -8 -23 -105 -26 l-103 -3 0 26 0 25 106 0 c104 0 105 0 102 -22z m730
-110 l-3 -103 -80 -6 -80 -5 83 -2 83 -2 -3 -147 -3 -148 -170 0 -170 0 -3
245 c-1 134 0 250 3 257 3 10 46 13 175 13 l171 0 -3 -102z m-3365 42 c-5 -18
0 -20 36 -20 23 0 41 -5 41 -11 0 -7 -9 -9 -22 -5 -13 3 -40 6 -61 6 l-38 0
18 25 c22 30 33 32 26 5z m2210 13 c-7 -2 -19 -2 -25 0 -7 3 -2 5 12 5 14 0
19 -2 13 -5z m-2433 -33 c0 -6 -38 -10 -94 -10 -53 0 -98 4 -101 10 -4 6 30
10 94 10 61 0 101 -4 101 -10z m170 0 c0 -6 -32 -10 -75 -10 -43 0 -75 4 -75
10 0 6 32 10 75 10 43 0 75 -4 75 -10z m2320 0 c0 -6 -24 -10 -52 -9 -42 1
-48 3 -28 9 36 12 80 12 80 0z m120 0 c0 -5 -22 -10 -50 -10 -27 0 -50 5 -50
10 0 6 23 10 50 10 28 0 50 -4 50 -10z m230 0 c0 -6 -40 -10 -100 -10 -60 0
-100 4 -100 10 0 6 40 10 100 10 60 0 100 -4 100 -10z m-460 -15 c0 -8 -7 -15
-15 -15 -16 0 -20 12 -8 23 11 12 23 8 23 -8z m-2362 -22 c5 -10 8 -436 8
-963 l-1 -945 -24 3 c-14 1 -26 4 -27 5 -7 7 -8 1894 -1 1905 12 17 35 15 45
-5z m2461 -210 c0 -96 -3 -174 -8 -178 -6 -3 -9 78 -9 202 0 119 3 195 8 178
4 -16 8 -107 9 -202z m82 214 c1 4 5 -5 9 -22 4 -16 8 -454 9 -972 l1 -941
-26 -99 c-14 -54 -28 -100 -30 -102 -2 -2 -4 480 -4 1073 0 1074 0 1077 20
1066 11 -6 21 -7 21 -3z m-111 -1157 c0 -638 -4 -1160 -8 -1160 -5 0 -12 78
-15 173 -9 226 -9 2132 0 2140 3 4 10 7 15 7 4 0 8 -522 8 -1160z m168 187
c-2 -620 -7 -960 -13 -966 -7 -7 -9 315 -7 966 1 655 6 973 12 967 7 -7 9
-336 8 -967z m-2508 19 c0 -642 3 -947 10 -951 8 -5 11 171 10 562 -2 1368 -2
1333 20 1333 20 0 20 -5 18 -1152 l-3 -1152 -35 -3 c-19 -2 -43 2 -52 9 -17
12 -18 83 -18 1143 0 622 0 1136 0 1143 0 6 11 12 25 12 l25 0 0 -944z m2630
9 l0 -919 -21 -8 c-11 -5 -25 -6 -30 -2 -5 3 -9 387 -9 929 l0 924 23 3 c12 2
25 1 29 -2 4 -3 8 -419 8 -925z m-2839 903 c1 -17 2 -19 6 -5 2 9 9 17 14 17
15 0 23 -30 10 -43 -8 -8 -11 -144 -11 -479 l0 -468 -40 0 -40 0 4 148 c2 81
1 103 -1 50 -2 -54 -8 -98 -13 -98 -12 0 -13 377 -2 487 4 39 5 70 1 68 -10
-7 -19 161 -12 246 3 43 10 76 14 73 5 -3 9 2 9 10 0 11 9 16 30 16 24 0 30
-4 31 -22z m2497 -969 c-3 -946 -4 -972 -20 -904 -16 62 -17 134 -17 665 0
327 0 734 -1 904 -2 250 0 310 11 317 8 4 17 5 21 1 5 -5 7 -447 6 -983z
m-1355 730 c4 -117 7 -337 7 -489 0 -235 -2 -279 -15 -290 -13 -11 -15 43 -15
473 l0 486 -265 1 -265 0 3 -585 2 -586 249 1 c226 1 249 -1 261 -17 11 -15
14 -8 20 50 4 37 4 88 0 113 -5 36 -4 45 7 42 10 -3 14 -36 16 -126 l3 -122
-306 0 -305 1 0 629 0 628 298 2 299 1 6 -212z m-996 -1176 c-1 -247 -2 -45
-2 447 0 492 1 694 2 448 2 -247 2 -649 0 -895z m941 765 l2 -568 -239 0 -238
0 -7 53 c-8 69 -8 912 0 1011 l7 76 236 -2 236 -3 3 -567z m1519 -725 c-1
-219 -2 -40 -2 397 0 437 1 616 2 398 2 -219 2 -577 0 -795z m-187 1117 c0
-25 -4 -30 -25 -30 -23 0 -24 -4 -28 -62 -2 -51 -4 -45 -5 30 l-2 92 30 0 c27
0 30 -3 30 -30z m-8 -85 c3 -24 0 -35 -9 -35 -9 0 -13 14 -13 41 0 48 16 44
22 -6z m-35 -307 c-1 -46 -3 -11 -3 77 0 88 2 125 3 83 2 -42 2 -114 0 -160z
m200 -16 c-3 -73 -7 -136 -11 -139 -3 -4 -6 72 -5 168 1 135 3 166 11 139 6
-20 8 -92 5 -168z m-2937 -463 l0 -560 -167 6 c-93 4 -174 8 -180 10 -10 3
-13 44 -13 160 l0 155 35 0 35 0 0 80 0 80 53 2 52 2 -52 3 -53 4 0 303 c0
166 3 306 7 309 3 4 69 7 145 7 l138 0 0 -561z m3257 254 c-3 -10 -5 -4 -5 12
0 17 2 24 5 18 2 -7 2 -21 0 -30z m17 -29 c13 -5 16 -22 16 -85 0 -78 0 -79
-26 -79 -20 0 -25 4 -20 16 3 9 6 47 6 85 0 38 2 69 4 69 2 0 11 -3 20 -6z
m-337 -106 c-3 -8 -6 -5 -6 6 -1 11 2 17 5 13 3 -3 4 -12 1 -19z m-2554 -140
c2 -84 2 -233 -1 -330 -6 -203 4 -187 -110 -191 -40 -1 -72 -5 -72 -9 0 -11
114 -10 143 1 23 9 25 7 30 -22 2 -18 2 -60 -1 -94 l-5 -61 -153 -1 -154 -1 0
365 0 365 69 0 c75 0 95 -10 56 -28 -24 -11 -24 -14 -27 -149 -3 -135 -4 -138
-25 -141 -21 -3 -23 -8 -21 -60 l1 -57 6 50 6 50 55 3 c30 2 60 8 65 13 7 7
-2 8 -27 4 l-38 -7 0 139 0 140 26 12 c15 6 35 9 45 6 11 -4 19 -2 19 3 0 6
-5 12 -12 14 -10 4 -10 13 0 45 7 22 12 52 12 67 0 25 2 26 54 26 l53 0 6
-152z m1247 128 c0 -8 -4 -18 -10 -21 -5 -3 -10 3 -10 14 0 12 5 21 10 21 6 0
10 -6 10 -14z m1769 -62 l31 -6 0 -69 0 -69 -62 -2 c-43 -1 -50 -2 -23 -5 93
-8 85 9 85 -188 l0 -175 -77 -2 -78 -2 78 -3 77 -4 0 -125 0 -125 -87 3 -88 3
-7 85 c-8 109 -10 638 -2 668 6 20 13 22 64 22 32 0 72 -3 89 -6z m295 -20 c8
-20 8 -522 0 -551 -6 -21 -13 -23 -73 -25 l-66 -2 68 -3 67 -4 0 -80 0 -80
-107 3 -108 3 -3 145 c-1 80 0 250 4 378 l6 232 103 0 c85 0 104 -3 109 -16z
m446 -109 l0 -125 -115 0 -115 0 0 -58 c0 -87 -9 -93 -110 -90 l-85 3 -3 185
c-1 101 0 190 2 197 4 10 54 13 216 13 l210 0 0 -125z m-2513 8 c-3 -10 -5 -2
-5 17 0 19 2 27 5 18 2 -10 2 -26 0 -35z m-2005 -223 c0 -38 2 -109 2 -157 l1
-88 -40 0 -40 0 -3 145 c-1 79 0 150 2 157 3 7 21 13 41 13 l35 0 2 -70z
m3007 -278 c-1 -111 -5 -204 -9 -207 -11 -7 -9 -45 2 -45 12 0 10 -14 -5 -34
-15 -20 -15 -29 -16 288 l-1 189 -57 -6 c-32 -4 -157 -7 -278 -8 -121 -1 -226
-4 -232 -6 -19 -7 -19 -688 -1 -699 7 -5 98 -9 203 -10 104 0 235 -5 290 -9
95 -7 99 -7 85 10 -13 16 -13 18 0 13 8 -2 16 -12 18 -21 3 -16 -23 -17 -315
-17 l-318 0 0 386 0 386 318 -3 317 -4 -1 -203z m1281 46 c0 -90 -4 -169 -8
-176 -6 -9 -33 -12 -98 -10 l-89 3 -3 173 -2 172 100 0 100 0 0 -162z m-1342
-224 l2 -331 -67 -6 c-88 -9 -232 -9 -366 0 l-107 6 0 334 0 333 268 -2 267
-3 3 -331z m-2707 124 c1 -35 3 -52 6 -38 2 14 6 40 9 58 l5 32 64 0 c60 0 63
-1 58 -22 -3 -13 -13 -31 -21 -40 -9 -12 -13 -28 -9 -48 l7 -30 -143 0 -142 0
3 75 4 75 79 0 79 0 1 -62z m142 -114 c3 -4 2 -15 -4 -25 -9 -17 -24 -19 -189
-19 -106 0 -180 4 -180 9 0 6 10 17 22 25 18 13 54 16 184 16 88 0 164 -3 167
-6z m357 -7 c22 -11 26 -22 33 -82 13 -114 12 -115 -142 -115 -133 0 -168 10
-106 30 56 19 48 25 -33 25 -134 1 -168 26 -99 73 27 17 48 22 108 23 87 2 52
16 -43 18 -43 1 -58 5 -58 15 0 19 20 22 180 24 90 1 144 -3 160 -11z m3016 3
c53 0 72 -13 35 -25 -17 -5 -18 -10 -8 -40 8 -27 6 -43 -7 -80 l-18 -46 -126
3 -127 3 -3 78 c-2 48 2 84 8 92 15 18 60 24 134 19 32 -2 83 -4 112 -4z m552
-12 c3 -17 -13 -18 -237 -18 -133 0 -241 4 -241 8 0 29 29 32 250 30 205 -3
225 -5 228 -20z m-3422 -115 c-3 -65 -5 -151 -6 -190 0 -71 -1 -73 -25 -73
-25 0 -25 1 -25 81 0 67 -3 84 -19 97 -16 14 -20 34 -23 110 l-4 92 54 0 54 0
-6 -117z m3458 65 c3 -7 6 -36 9 -65 l4 -51 -26 10 c-14 6 -96 12 -181 13 -85
1 -188 6 -227 10 l-73 8 0 41 0 41 245 3 c199 3 246 1 249 -10z m-4014 -35 c0
-5 -10 -29 -22 -56 l-23 -47 -170 1 c-93 1 -164 4 -157 6 7 3 12 22 12 47 0
24 3 46 7 49 9 10 353 9 353 0z m2840 -88 c0 -53 -3 -63 -15 -59 -11 5 -15 22
-15 65 0 46 3 59 15 59 12 0 15 -14 15 -65z m-177 -24 c2 -10 1 -25 -4 -32 -6
-10 -9 -4 -9 19 0 36 5 42 13 13z m835 -35 c13 -25 12 -31 -8 -58 -16 -22 -27
-66 -45 -186 -14 -86 -35 -215 -47 -287 l-24 -130 -103 -8 c-56 -5 -106 -6
-109 -2 -4 4 -9 160 -10 348 -3 288 -2 343 11 351 9 7 68 9 168 6 l154 -5 13
-29z m-3568 -16 c-40 -42 -49 -59 -59 -112 -20 -103 -91 -339 -121 -398 -15
-30 -33 -72 -39 -92 l-13 -38 -94 0 -94 0 -2 68 c-1 37 0 144 1 237 4 194 14
236 54 228 20 -4 26 0 31 22 4 15 5 29 3 32 -3 2 -7 -8 -11 -22 -11 -41 -26
-28 -26 23 0 41 4 50 32 74 l33 27 176 1 177 0 -48 -50z m548 38 c15 -15 17
-188 2 -188 -6 0 -10 36 -10 87 0 47 -3 83 -7 79 -4 -3 -7 -156 -7 -339 l-1
-332 -252 -3 -253 -2 0 335 0 335 33 20 c29 18 50 20 258 20 162 0 228 -3 237
-12z m3616 -10 c23 -20 27 -35 35 -128 6 -58 13 -207 17 -332 l7 -228 -209 -2
c-295 -3 -394 -2 -401 6 -4 3 -10 156 -13 339 -4 182 -10 340 -15 350 -7 16
10 17 273 17 277 0 281 0 306 -22z m-4544 -17 c-5 -11 -10 -29 -10 -41 0 -12
-10 -44 -22 -73 -20 -46 -23 -49 -28 -27 -9 37 6 141 22 151 7 5 21 9 31 9 14
0 16 -4 7 -19z m2623 -108 c-13 -2 -33 -2 -45 0 -13 2 -3 4 22 4 25 0 35 -2
23 -4z m-1415 -57 l32 7 1 -74 c1 -41 0 -144 0 -229 -2 -146 -3 -156 -24 -174
l-22 -18 -6 73 c-4 41 -7 139 -8 219 -1 104 -4 141 -12 133 -14 -14 -12 -354
1 -367 6 -6 10 -20 10 -33 0 -23 -1 -23 -125 -23 l-125 0 0 158 c0 88 -3 193
-6 234 -8 89 -11 87 116 94 47 3 89 10 94 15 6 5 16 3 26 -6 11 -10 27 -13 48
-9z m2140 -223 c0 -120 -3 -202 -6 -183 -4 29 -6 32 -12 15 -5 -11 -9 68 -9
183 -1 173 1 202 14 202 13 0 15 -30 13 -217z m45 189 c-2 -10 -9 -26 -14 -37
-5 -11 -10 -40 -12 -65 -2 -25 -4 -6 -5 42 -2 81 -1 86 17 81 13 -3 18 -11 14
-21z m1247 -71 c0 -35 -24 -60 -34 -35 -3 8 -6 31 -6 50 0 32 2 34 20 24 13
-7 20 -21 20 -39z"/>
<path d="M1489 4723 c-13 -16 -12 -17 4 -4 9 7 17 15 17 17 0 8 -8 3 -21 -13z"/>
<path d="M2808 4753 c6 -2 18 -2 25 0 6 3 1 5 -13 5 -14 0 -19 -2 -12 -5z"/>
<path d="M2520 4522 c0 -5 -33 -12 -72 -16 -40 -3 -86 -11 -103 -16 l-30 -10
32 5 c168 24 249 26 350 6 128 -25 350 -111 394 -153 8 -7 51 -35 97 -63 79
-47 141 -106 201 -192 33 -48 17 -41 -51 22 -33 31 -83 71 -111 89 -29 18 -78
52 -109 75 -32 23 -58 38 -58 33 0 -4 39 -35 88 -68 123 -83 236 -199 306
-313 60 -98 125 -237 131 -281 5 -37 15 -97 31 -177 8 -40 14 -102 14 -138 l0
-65 60 0 c70 0 66 -11 50 140 -12 114 -29 182 -77 315 -84 232 -156 354 -273
461 -90 82 -99 83 -26 4 102 -111 184 -238 170 -262 -5 -7 -3 -8 6 -3 10 6 12
4 7 -8 -4 -10 -1 -17 5 -17 6 0 9 -3 5 -6 -3 -4 3 -25 15 -47 37 -74 66 -163
98 -298 35 -154 49 -269 32 -269 -6 0 -13 25 -15 58 l-3 57 -2 -57 c-3 -89
-18 -69 -26 34 -18 234 -99 488 -208 646 -17 24 -31 51 -32 59 -2 9 -10 21
-19 28 -9 7 -17 16 -17 21 0 20 -128 134 -195 174 -38 24 -84 53 -101 66 -82
63 -313 147 -436 159 -34 3 -78 8 -95 11 -18 3 -33 1 -33 -4z"/>
<path d="M2030 4455 c-25 -13 -40 -24 -35 -24 6 0 30 11 55 24 25 13 41 24 35
24 -5 0 -30 -11 -55 -24z"/>
<path d="M2288 4473 c7 -3 16 -2 19 1 4 3 -2 6 -13 5 -11 0 -14 -3 -6 -6z"/>
<path d="M2440 4465 c-8 -2 -67 -11 -130 -21 -81 -12 -129 -24 -162 -42 -58
-33 -53 -45 9 -26 86 26 217 53 296 60 65 6 77 4 77 -8 0 -12 -18 -17 -77 -22
-123 -10 -236 -35 -330 -72 -99 -38 -114 -42 -63 -14 19 11 31 19 25 19 -19 0
-60 -27 -60 -40 0 -7 -6 -14 -14 -17 -9 -3 -11 0 -6 8 5 9 4 11 -4 6 -6 -4 -9
-11 -7 -15 3 -4 -8 -15 -23 -24 -16 -9 -50 -34 -76 -56 -27 -22 -51 -39 -54
-38 -3 1 -8 -2 -10 -8 -2 -5 -37 -45 -77 -88 -87 -90 -150 -184 -205 -303 -40
-86 -79 -212 -78 -249 0 -11 9 12 19 52 47 181 162 375 309 522 130 132 277
227 364 237 18 2 66 12 107 24 41 11 125 25 185 31 175 19 333 -14 520 -108
227 -113 391 -285 527 -551 32 -62 58 -106 58 -98 0 28 -110 233 -164 303 -30
40 -50 75 -45 79 5 3 -2 15 -16 26 -14 11 -23 23 -20 26 11 11 -77 91 -93 84
-9 -3 -13 -1 -9 6 9 13 -78 86 -92 78 -5 -4 -34 9 -63 27 -117 74 -311 141
-444 153 -63 6 -74 10 -74 25 0 15 8 19 39 19 71 0 212 -30 300 -64 125 -48
129 -49 101 -32 -47 29 -175 74 -255 89 -78 15 -255 29 -285 22z m734 -280
c22 -19 35 -35 30 -35 -5 1 -27 16 -49 35 -22 19 -35 35 -30 34 6 0 28 -15 49
-34z m101 -85 c21 -22 37 -40 34 -40 -3 0 -23 18 -44 40 -21 22 -37 40 -34 40
3 0 23 -18 44 -40z"/>
<path d="M1894 4316 c-101 -75 -337 -316 -368 -373 -15 -29 -25 -53 -23 -53 3
0 35 40 71 89 64 86 232 252 344 339 72 56 50 54 -24 -2z"/>
<path d="M3010 4336 c0 -3 9 -10 20 -16 11 -6 20 -8 20 -6 0 3 -9 10 -20 16
-11 6 -20 8 -20 6z"/>
<path d="M1477 3988 c-36 -63 -69 -129 -65 -133 2 -2 24 37 50 86 49 92 59
121 15 47z"/>
<path d="M1587 3942 c-60 -85 -133 -222 -118 -222 4 0 16 20 26 45 9 25 22 51
29 58 6 6 34 48 62 92 64 101 66 105 60 105 -2 0 -29 -35 -59 -78z"/>
<path d="M3678 3725 c14 -36 27 -63 29 -61 5 5 -37 115 -47 121 -4 3 3 -24 18
-60z"/>
<path d="M1462 3465 c0 -16 2 -22 5 -12 2 9 2 23 0 30 -3 6 -5 -1 -5 -18z"/>
<path d="M3672 3435 c0 -16 2 -22 5 -12 2 9 2 23 0 30 -3 6 -5 -1 -5 -18z"/>
<path d="M1453 3390 c0 -25 2 -35 4 -22 2 12 2 32 0 45 -2 12 -4 2 -4 -23z"/>
<path d="M1478 3263 c7 -3 16 -2 19 1 4 3 -2 6 -13 5 -11 0 -14 -3 -6 -6z"/>
<path d="M871 4116 c7 -8 149 -10 156 -3 3 4 -31 7 -77 7 -46 0 -81 -2 -79 -4z"/>
<path d="M1237 4045 c-9 -19 -15 -35 -12 -35 7 0 37 61 33 66 -3 2 -12 -12
-21 -31z"/>
<path d="M1266 3905 c-9 -26 -7 -32 5 -12 6 10 9 21 6 23 -2 3 -7 -2 -11 -11z"/>
<path d="M1241 3824 c0 -11 3 -14 6 -6 3 7 2 16 -1 19 -3 4 -6 -2 -5 -13z"/>
<path d="M1162 3550 c0 -19 2 -27 5 -17 2 9 2 25 0 35 -3 9 -5 1 -5 -18z"/>
<path d="M1092 3530 c0 -19 2 -27 5 -17 2 9 2 25 0 35 -3 9 -5 1 -5 -18z"/>
<path d="M1153 3445 c0 -33 2 -45 4 -27 2 18 2 45 0 60 -2 15 -4 0 -4 -33z"/>
<path d="M2610 4280 c20 -13 43 -13 35 0 -3 6 -16 10 -28 10 -18 0 -19 -2 -7
-10z"/>
<path d="M2588 4258 c5 -5 16 -8 23 -6 8 3 3 7 -10 11 -17 4 -21 3 -13 -5z"/>
<path d="M2335 4223 c-42 -9 -146 -45 -142 -49 2 -2 24 3 48 12 24 9 78 22
119 29 53 9 63 13 35 13 -22 0 -49 -2 -60 -5z"/>
<path d="M2150 4160 c-8 -5 -10 -10 -5 -10 6 0 17 5 25 10 8 5 11 10 5 10 -5
0 -17 -5 -25 -10z"/>
<path d="M2038 4104 c-38 -20 -36 -28 2 -9 17 9 30 18 30 20 0 7 -1 6 -32 -11z"/>
<path d="M1870 3989 l-35 -30 38 26 c33 24 43 35 34 35 -1 0 -18 -14 -37 -31z"/>
<path d="M3028 3033 l-288 -3 0 -501 c0 -476 -1 -501 -17 -488 -17 13 -17 13
0 -7 14 -17 17 -42 17 -162 l0 -142 345 0 345 0 2 633 c2 347 2 642 0 655 -3
20 -8 22 -60 20 -31 -2 -186 -4 -344 -5z m372 -653 c3 -344 5 -626 5 -626 0
-1 -144 -4 -320 -8 l-320 -6 0 630 0 629 110 4 c61 2 202 3 315 3 l205 -1 5
-625z"/>
<path d="M3065 2980 c-143 -3 -261 -7 -262 -8 -2 -1 -3 -8 -3 -14 0 -10 54
-11 260 -4 143 4 267 6 274 3 11 -5 14 -83 15 -449 0 -244 -2 -498 -5 -565
l-6 -123 -272 -2 -271 -1 170 -8 c94 -5 218 -6 278 -3 66 4 107 3 107 -3 0 -6
-60 -11 -147 -12 -81 -1 -150 -4 -152 -7 -2 -2 68 -4 157 -4 l162 0 -2 603
c-3 594 -3 602 -23 602 -11 1 -137 -2 -280 -5z"/>
<path d="M2804 2635 c0 -143 2 -200 3 -127 2 73 2 190 0 260 -1 70 -3 10 -3
-133z"/>
<path d="M2804 2035 c0 -115 2 -161 3 -102 2 59 2 154 0 210 -1 56 -3 8 -3
-108z"/>
<path d="M3483 2110 c0 -36 2 -50 4 -32 2 17 2 47 0 65 -2 17 -4 3 -4 -33z"/>
<path d="M3493 1975 c0 -22 2 -30 4 -17 2 12 2 30 0 40 -3 9 -5 -1 -4 -23z"/>
<path d="M3492 1860 c0 -14 2 -19 5 -12 2 6 2 18 0 25 -3 6 -5 1 -5 -13z"/>
<path d="M2652 1733 c-2 -32 -7 -43 -22 -48 -28 -9 -28 -61 0 -70 19 -6 20
-17 23 -443 l2 -437 3 441 c2 382 4 443 17 448 19 7 20 52 1 63 -8 4 -16 26
-19 48 l-4 40 -1 -42z"/>
<path d="M1665 1557 c-3 -6 -4 -192 -3 -412 l3 -400 310 0 310 0 0 53 c-1 28
-2 214 -3 412 l-2 360 -305 0 c-236 0 -307 -3 -310 -13z m605 -406 l0 -389
-294 2 -293 1 -7 74 c-3 41 -6 215 -6 388 l0 313 300 0 300 0 0 -389z"/>
<path d="M1725 1490 c-12 -19 -23 -224 -13 -242 5 -12 5 -18 -2 -18 -6 0 -10
-74 -9 -217 1 -125 4 -207 9 -193 5 17 8 19 9 8 1 -10 6 -18 12 -18 9 0 11 89
8 338 l-4 337 220 3 c121 1 230 0 243 -3 l22 -5 0 -325 c0 -189 -4 -326 -9
-330 -5 -3 -110 -8 -233 -12 -123 -3 -232 -10 -243 -14 -22 -9 327 -1 438 10
37 4 67 4 67 0 0 -5 -21 -10 -47 -12 l-48 -3 53 -2 52 -2 0 336 c0 212 -4 342
-10 355 -10 18 -24 19 -260 19 -161 0 -251 -4 -255 -10z m-8 -552 c-3 -8 -6
-5 -6 6 -1 11 2 17 5 13 3 -3 4 -12 1 -19z"/>
<path d="M1600 626 c13 -17 40 -18 400 -15 l385 4 0 -102 c0 -55 3 -99 8 -96
4 2 7 51 7 109 l0 104 -298 0 c-165 0 -348 3 -408 7 -104 6 -108 5 -94 -11z"/>
<path d="M2148 3964 c-149 -78 -256 -174 -328 -294 -40 -66 -93 -204 -83 -214
3 -3 2 -11 -3 -18 -6 -7 -10 -53 -9 -103 l0 -90 258 2 c142 1 261 3 263 6 2 2
3 174 2 383 l-3 379 -97 -51z m72 -348 l0 -353 -242 -5 c-134 -3 -245 -3 -247
-1 -10 8 20 215 39 275 51 151 195 316 345 395 44 23 86 43 93 43 9 0 12 -77
12 -354z"/>
<path d="M4317 2835 c-4 -24 -3 -41 3 -43 5 -2 3 -10 -5 -19 -8 -8 -15 -24
-14 -36 1 -20 2 -20 9 3 l8 25 2 -25 c2 -23 2 -23 9 5 4 17 5 53 1 80 l-6 50
-7 -40z"/>
<path d="M1242 1340 c0 -19 2 -27 5 -17 2 9 2 25 0 35 -3 9 -5 1 -5 -18z"/>
<path d="M1074 2865 c0 -77 2 -107 3 -67 2 40 2 103 0 140 -2 37 -3 4 -3 -73z"/>
<path d="M1703 2205 c0 -27 2 -38 4 -22 2 15 2 37 0 50 -2 12 -4 0 -4 -28z"/>
<path d="M1066 1827 c3 -10 9 -15 12 -12 3 3 0 11 -7 18 -10 9 -11 8 -5 -6z"/>
<path d="M1084 1727 c1 -51 6 -81 14 -86 7 -4 17 -37 21 -72 l8 -64 2 55 c1
38 -4 63 -16 80 -10 13 -20 55 -24 95 l-7 70 2 -78z"/>
<path d="M994 1231 c7 -11 46 -35 46 -28 0 3 -12 12 -26 22 -15 9 -23 12 -20
6z"/>
<path d="M4074 1290 c0 -52 1 -74 3 -47 2 26 2 68 0 95 -2 26 -3 4 -3 -48z"/>
<path d="M680 1210 c-13 -8 -12 -10 3 -10 9 0 17 5 17 10 0 12 -1 12 -20 0z"/>
<path d="M4498 1083 c12 -2 30 -2 40 0 9 3 -1 5 -23 4 -22 0 -30 -2 -17 -4z"/>
<path d="M4593 1083 c9 -2 25 -2 35 0 9 3 1 5 -18 5 -19 0 -27 -2 -17 -5z"/>
<path d="M3922 680 c0 -14 2 -19 5 -12 2 6 2 18 0 25 -3 6 -5 1 -5 -13z"/>
<path d="M693 2860 c0 -169 1 -193 9 -137 6 43 6 120 0 205 l-9 137 0 -205z"/>
<path d="M603 2880 c0 -25 2 -35 4 -22 2 12 2 32 0 45 -2 12 -4 2 -4 -23z"/>
<path d="M28 1073 c18 -2 45 -2 60 0 15 2 0 4 -33 4 -33 0 -45 -2 -27 -4z"/>
<path d="M2640 231 c0 -27 55 -225 58 -209 2 10 -9 61 -23 115 -26 95 -35 119
-35 94z"/>
<path d="M1032 153 c-40 -30 -71 -58 -68 -60 2 -3 35 19 73 48 87 68 89 69 78
69 -6 0 -43 -26 -83 -57z"/>
<path d="M388 117 c-54 -29 -101 -57 -105 -62 -10 -10 188 93 202 106 16 16 2
9 -97 -44z"/>
<path d="M890 43 c-62 -52 -49 -58 16 -8 44 34 48 35 142 36 109 2 98 7 -24
11 l-82 3 -52 -42z"/>
<path d="M3865 55 c30 -26 65 -49 65 -42 0 2 -21 18 -47 36 -36 25 -41 26 -18
6z"/>
<path d="M4053 73 c9 -2 25 -2 35 0 9 3 1 5 -18 5 -19 0 -27 -2 -17 -5z"/>
<path d="M4190 60 c14 -11 34 -25 45 -31 14 -7 12 -4 -5 11 -14 11 -34 25 -45
31 -14 7 -12 4 5 -11z"/>
<path d="M4543 33 c31 -2 83 -2 115 0 31 2 5 3 -58 3 -63 0 -89 -1 -57 -3z"/>
</g>
</svg>