<?xml version="1.0" standalone="no"?>
<!DOCTYPE svg PUBLIC "-//W3C//DTD SVG 20010904//EN"
 "http://www.w3.org/TR/2001/REC-SVG-20010904/DTD/svg10.dtd">
<svg version="1.0" xmlns="http://www.w3.org/2000/svg"
 width="512.000000pt" height="512.000000pt" viewBox="0 0 512.000000 512.000000"
 preserveAspectRatio="xMidYMid meet">
<metadata>
Created by potrace 1.16, written by Peter Selinger 2001-2019
</metadata>
<g transform="translate(0.000000,512.000000) scale(0.100000,-0.100000)"
fill="#000000" stroke="none">
<path d="M2792 4738 l-2 -68 -42 0 c-32 0 -39 -3 -28 -10 8 -5 27 -10 43 -10
21 0 27 -5 27 -23 0 -12 -7 -33 -16 -46 -13 -18 -14 -25 -4 -31 11 -7 11 -14
-1 -41 -11 -28 -212 -336 -275 -423 -19 -25 -21 -25 -153 -26 l-134 0 5 85 c4
77 3 85 -13 85 -10 0 -34 16 -53 34 -36 37 -40 52 -49 211 -2 28 -4 -3 -5 -68
-2 -114 -3 -119 -28 -142 -15 -14 -32 -25 -39 -25 -18 0 -41 -30 -29 -38 5 -4
8 -37 6 -74 l-4 -68 -91 0 c-108 0 -116 6 -127 105 l-7 60 -2 -66 c0 -36 -6
-70 -13 -77 -8 -8 -55 -12 -145 -12 l-133 0 0 50 c0 27 5 61 12 75 10 23 9 29
-15 51 -15 14 -27 34 -27 45 0 17 -6 20 -32 17 -27 -2 -34 -8 -36 -30 -2 -18
-11 -28 -28 -32 -24 -6 -25 -9 -17 -49 15 -79 9 -227 -14 -317 -12 -47 -34
-159 -48 -250 -36 -231 -29 -210 -75 -210 -42 0 -53 -17 -25 -40 7 -6 17 -33
21 -58 5 -33 27 -80 75 -157 l69 -110 -2 -265 c-2 -206 -6 -264 -15 -262 -8 1
-13 -10 -13 -30 0 -25 3 -29 10 -18 8 13 10 12 10 -3 0 -14 -7 -17 -36 -15
-25 1 -39 -3 -45 -15 -8 -14 -14 -15 -32 -6 -21 12 -21 11 -5 -8 20 -21 24
-58 8 -68 -6 -3 -10 -1 -10 4 0 6 -5 11 -10 11 -6 0 -4 -14 5 -31 19 -37 9
-54 -12 -21 -9 12 -21 22 -28 22 -7 0 -16 7 -19 16 -6 15 -9 14 -25 -5 -10
-11 -28 -21 -40 -21 -11 0 -21 -5 -21 -11 0 -8 13 -10 36 -6 44 7 74 -6 74
-33 0 -11 3 -20 8 -21 4 0 32 -2 62 -5 95 -8 100 -10 100 -49 0 -32 -3 -35
-29 -35 -20 0 -32 6 -36 19 -3 10 -15 27 -27 37 l-21 19 7 -38 c8 -45 -14 -90
-42 -85 -9 1 -23 -1 -30 -5 -6 -5 -18 -5 -25 0 -16 10 -48 4 -68 -13 -14 -12
-18 -12 -34 6 -12 14 -28 19 -52 17 -38 -2 -39 -9 -12 -75 12 -28 11 -37 -2
-60 -8 -15 -29 -32 -47 -37 -17 -6 -48 -26 -67 -45 -31 -30 -37 -32 -60 -22
-19 9 -25 18 -23 39 1 16 1 42 0 60 -2 25 -6 30 -21 26 -11 -3 -27 3 -39 15
-20 20 -20 20 -25 1 -3 -10 -12 -19 -21 -19 -9 0 -16 -4 -16 -10 0 -5 5 -10
10 -10 6 0 15 -11 21 -23 9 -20 7 -28 -13 -49 -41 -44 -63 -51 -105 -32 -21
10 -43 16 -50 15 -6 -1 -17 15 -23 34 -14 43 -4 60 41 70 19 4 29 13 29 25 0
13 5 17 20 13 11 -3 20 -10 20 -16 0 -11 29 23 30 34 0 3 -9 5 -21 5 -13 -1
-31 12 -46 34 l-26 35 25 -26 25 -26 11 31 c7 18 12 50 12 72 0 21 4 45 9 52
5 8 6 -8 3 -37 -4 -43 -2 -51 12 -51 9 0 21 11 26 24 17 45 86 62 122 30 17
-16 19 -15 39 10 11 14 30 26 43 26 12 0 27 5 33 11 6 6 22 17 35 23 12 6 36
37 53 69 29 57 48 70 115 80 18 3 26 12 32 38 20 81 48 102 119 88 59 -11 59
-11 59 4 0 8 -15 14 -37 17 -71 7 -94 3 -117 -19 -22 -21 -23 -21 -40 -2 -9
10 -31 22 -48 25 -47 9 -21 28 40 30 69 2 106 30 110 82 2 21 7 44 12 49 22
27 -38 125 -76 125 -7 0 -16 11 -20 25 -16 63 -100 93 -165 60 -21 -12 -34
-13 -48 -5 -11 5 -30 10 -44 10 -13 0 -34 12 -48 26 -34 37 -126 76 -161 69
-15 -4 -39 -21 -54 -38 -21 -25 -25 -37 -20 -68 5 -33 3 -38 -23 -49 -16 -6
-35 -25 -41 -41 -10 -24 -18 -29 -47 -29 -26 0 -42 -8 -63 -30 -15 -16 -35
-30 -44 -30 -21 0 -48 -44 -45 -72 2 -14 -5 -32 -19 -46 -15 -15 -22 -34 -22
-61 0 -35 -3 -40 -32 -50 -41 -15 -78 -49 -78 -74 0 -10 -9 -30 -20 -44 -11
-14 -20 -36 -20 -49 0 -14 -6 -24 -14 -24 -19 0 -46 -39 -46 -66 0 -12 -7 -27
-15 -34 -8 -7 -15 -25 -15 -41 0 -15 -5 -39 -12 -53 -9 -21 -8 -33 7 -65 17
-39 17 -40 -4 -67 -11 -15 -21 -38 -21 -51 0 -33 59 -91 99 -99 29 -6 31 -9
25 -43 -12 -75 65 -116 156 -85 56 20 79 35 82 58 4 27 74 -109 82 -161 l7
-40 -53 18 c-29 9 -55 14 -58 10 -3 -5 -12 -11 -20 -14 -12 -4 -12 -6 2 -6 9
-1 20 -6 24 -12 5 -9 -4 -10 -31 -5 -25 5 -35 4 -30 -3 3 -6 25 -11 47 -11
l41 0 -19 22 -19 21 39 -6 c21 -3 50 -14 65 -24 l26 -18 -45 -6 -45 -6 41 -1
c38 -2 43 -5 57 -39 19 -48 2 -56 -45 -20 -39 29 -55 34 -128 42 -38 4 -50 2
-40 -5 8 -5 27 -10 41 -10 57 0 93 -15 133 -52 22 -22 60 -54 83 -71 24 -17
49 -40 57 -53 14 -20 13 -22 -4 -27 -10 -2 -23 0 -29 6 -12 12 -81 39 -96 38
-54 -4 -94 -17 -115 -37 -78 -74 -82 -76 -107 -65 -13 6 -34 11 -47 11 -30 0
-76 -36 -76 -60 0 -15 -11 -19 -60 -25 -131 -15 -50 -25 207 -25 l266 0 -34
-35 -35 -35 -235 -3 -234 -2 238 -3 c209 -2 238 -4 244 -18 4 -11 -2 -23 -18
-35 -19 -15 -43 -19 -119 -19 -101 -1 -99 -12 5 -25 33 -4 64 -9 69 -12 14 -9
-17 -23 -54 -23 -36 0 -260 -36 -266 -43 -2 -2 69 -9 159 -15 200 -15 1272 2
1294 20 10 8 47 8 136 0 67 -7 254 -14 415 -18 267 -5 293 -4 298 11 5 13 14
15 38 10 17 -4 130 -6 251 -5 207 1 298 -7 335 -30 8 -5 12 -12 9 -15 -12 -11
-1236 -17 -1244 -6 -3 6 -12 8 -18 4 -6 -4 -110 -8 -232 -10 -271 -4 -761 -22
-835 -32 -113 -14 333 -22 1199 -21 563 0 879 4 891 10 25 13 159 13 240 -1
36 -6 74 -12 85 -14 11 -1 22 -3 24 -4 2 0 -4 -9 -13 -20 -15 -16 -28 -18
-111 -14 -60 3 -96 0 -100 -7 -3 -6 -10 -8 -14 -5 -5 2 -16 -4 -26 -15 -13
-14 -32 -20 -64 -21 -25 -1 -57 -5 -71 -10 -15 -5 71 -7 219 -4 250 4 281 1
281 -34 0 -14 -8 -18 -37 -19 -108 -3 -253 -15 -248 -21 6 -5 545 -19 545 -14
0 2 -84 59 -187 128 l-188 126 180 -3 181 -3 159 -78 c96 -46 161 -73 165 -67
4 6 60 15 126 21 141 12 324 35 330 42 9 8 -200 18 -277 13 -56 -4 -81 -2 -95
8 -13 10 -23 11 -31 4 -9 -7 -18 -6 -30 3 -12 10 -17 11 -20 2 -6 -16 -33 -4
-33 15 0 13 -3 13 -19 -2 -13 -11 -27 -15 -40 -11 -26 8 -28 35 -2 35 10 0 23
6 29 12 8 10 1 13 -29 12 -21 -1 -41 -2 -44 -4 -5 -2 -52 -3 -80 -1 -8 1 -15
6 -15 12 0 6 9 9 20 6 11 -3 18 -1 15 3 -3 5 -2 16 1 25 6 14 17 16 68 13 55
-4 63 -2 84 19 l22 24 38 -20 c20 -10 45 -22 55 -25 11 -3 17 -13 15 -23 -4
-21 -87 -30 -100 -11 -5 10 -10 10 -18 2 -9 -9 -3 -16 21 -28 29 -14 37 -14
90 -1 59 15 99 10 114 -16 15 -24 751 10 792 37 12 8 71 20 130 27 128 16 113
21 -99 37 -75 6 -148 14 -162 20 -14 5 -33 24 -42 42 -9 18 -28 43 -43 56
l-26 23 283 -6 c194 -4 282 -3 282 5 0 7 -90 10 -272 11 -150 1 -284 4 -298 8
-18 5 -26 15 -28 34 l-3 27 300 0 c194 0 301 4 301 10 0 6 -24 10 -54 10 -49
0 -54 2 -60 25 -8 31 -47 58 -78 53 -18 -2 -25 4 -33 27 -13 40 -57 56 -84 31
-16 -14 -22 -15 -39 -5 -17 10 -25 10 -46 -4 -14 -9 -33 -17 -42 -17 -10 0
-26 -8 -36 -17 -18 -16 -22 -16 -46 -2 -25 14 -27 20 -27 79 l0 65 40 7 40 6
-47 -1 c-53 -2 -53 -4 16 78 55 64 36 57 -26 -10 -24 -25 -35 -33 -31 -20 8
25 30 52 66 77 26 18 29 19 52 4 13 -9 35 -16 49 -16 14 0 28 -4 31 -10 10
-16 87 -11 132 10 45 20 83 69 83 106 0 12 -9 33 -20 47 -11 14 -20 34 -20 45
0 21 -47 65 -60 57 -4 -2 -5 6 -3 18 6 29 -32 77 -60 77 l-21 0 22 -16 c25
-18 29 -46 7 -64 -8 -7 -15 -9 -15 -4 0 5 -7 -2 -16 -14 -26 -38 -84 -19 -67
23 5 14 3 17 -10 12 -21 -8 -40 16 -25 31 18 18 38 15 31 -5 -4 -12 0 -11 11
5 10 12 24 22 32 22 8 0 14 7 14 17 0 15 -2 15 -19 -1 -24 -22 -71 -12 -71 15
0 11 7 22 15 25 10 4 12 11 6 23 -8 14 -3 16 37 16 61 0 76 -10 68 -46 -4 -22
-2 -27 9 -22 27 10 30 52 6 77 l-22 23 31 27 c34 28 45 32 55 16 10 -16 78
-12 103 6 48 33 66 109 36 152 -18 26 -84 62 -114 62 -26 0 -25 8 3 38 16 17
22 35 21 65 -1 41 1 43 57 76 88 51 112 118 61 169 -10 10 -24 32 -31 50 -7
18 -17 32 -22 32 -5 0 -6 20 -2 45 4 34 1 51 -13 72 -10 16 -24 40 -31 56 -7
15 -19 30 -28 33 -8 3 -15 12 -15 18 0 27 -48 58 -93 61 -32 2 -51 10 -70 29
-16 16 -37 26 -55 26 -16 0 -53 13 -83 30 -30 16 -62 30 -71 30 -10 0 -24 13
-33 29 -20 40 -30 45 -100 48 -71 2 -99 -12 -119 -62 -13 -30 -20 -35 -50 -35
-26 0 -40 -7 -60 -31 -14 -17 -26 -37 -26 -44 0 -8 -11 -26 -25 -41 -14 -15
-25 -39 -25 -53 0 -16 -12 -37 -30 -54 -33 -31 -46 -79 -32 -117 8 -21 5 -26
-22 -40 l-31 -15 -5 65 c-3 36 -4 119 -2 186 l4 120 32 22 c17 13 53 43 81 67
l49 45 -35 37 c-89 95 -131 159 -279 428 -152 275 -200 366 -200 376 0 5 11 9
25 9 14 0 25 5 25 10 0 6 -9 10 -19 10 -14 0 -21 8 -23 28 l-4 27 -12 -29
c-16 -36 -22 -31 -24 20 -1 47 -25 56 -55 21 -15 -18 -15 -19 -1 -8 42 32 56
-33 21 -95 l-25 -44 -207 0 -208 0 -61 98 c-151 241 -262 429 -262 444 0 9 7
18 16 20 14 3 13 7 -5 30 -29 37 -28 68 3 68 14 0 28 5 31 10 4 6 -6 10 -24
10 l-30 0 -4 68 -3 67 -2 -67z m34 -300 c9 -18 47 -78 84 -133 81 -120 154
-239 200 -320 48 -87 28 -62 -39 47 -31 51 -105 165 -165 251 l-107 158 -20
-25 c-21 -27 -25 -41 -7 -30 16 10 4 -8 -77 -116 -40 -52 -122 -163 -183 -245
-61 -83 -121 -159 -134 -170 -12 -11 -18 -13 -12 -5 145 197 236 325 263 367
18 29 37 51 41 48 4 -3 7 3 6 12 0 10 4 18 11 18 6 0 15 4 20 9 5 5 2 6 -6 1
-8 -4 -12 -4 -10 2 9 22 105 162 111 163 4 0 15 -15 24 -32z m-1386 -163 c0
-8 -9 -15 -20 -15 -11 0 -20 7 -20 15 0 8 9 15 20 15 11 0 20 -7 20 -15z
m1345 -142 c-4 -19 -12 -23 -45 -23 l-40 0 35 51 c19 28 36 61 36 73 1 11 5
-1 11 -29 5 -27 7 -59 3 -72z m75 27 c12 -44 30 -54 30 -16 0 24 20 30 37 11
5 -4 2 -5 -6 0 -11 6 -13 4 -6 -11 22 -55 33 -109 39 -201 l8 -103 -50 0 c-36
0 -52 4 -56 16 -10 25 -7 31 14 37 18 5 20 14 20 80 0 41 -5 88 -11 106 -9 27
-16 31 -45 31 l-34 0 0 73 1 72 24 -28 c13 -15 29 -45 35 -67z m-1391 64 c2
-2 -24 -4 -58 -4 -37 0 -60 4 -56 9 5 9 103 4 114 -5z m629 -71 c4 -30 16 -29
30 3 17 35 56 30 60 -8 l3 -28 -85 0 -86 0 0 31 c0 29 2 30 38 27 30 -2 38 -7
40 -25z m-630 5 c-6 -17 -32 -21 -74 -13 -53 10 -40 25 22 25 40 0 55 -3 52
-12z m1213 -64 c1 -21 1 -87 -1 -146 -2 -99 -4 -108 -21 -108 -18 0 -19 9 -19
121 0 122 16 214 31 186 5 -8 9 -32 10 -53z m-1223 -86 l-3 -123 -47 -3 -48
-3 0 125 0 126 50 0 51 0 -3 -122z m732 77 c0 -25 -1 -25 -85 -25 -84 0 -85 0
-85 25 0 25 1 25 85 25 84 0 85 0 85 -25z m627 10 c35 -5 43 -11 52 -37 6 -17
11 -57 11 -89 l0 -59 -82 0 c-46 0 -88 4 -94 8 -6 4 -11 32 -12 62 -2 50 -1
53 13 36 8 -11 12 -29 9 -43 -5 -20 -3 -23 20 -21 20 2 26 8 26 25 0 13 -6 23
-12 24 -10 0 -10 2 0 6 17 7 15 18 -5 39 -16 16 -16 17 -1 11 11 -4 18 0 21
11 3 9 5 -15 6 -55 l1 -72 -37 -4 c-21 -2 2 -4 51 -5 l88 -2 -6 28 c-4 15 -11
45 -15 67 -4 25 -12 39 -20 37 -7 -1 -10 2 -7 7 4 5 2 12 -4 16 -6 4 -10 -20
-10 -66 0 -71 0 -71 25 -67 14 3 25 1 25 -3 0 -5 -13 -9 -30 -9 l-30 0 -2 78
-2 77 -6 -80 -6 -80 -2 78 c-2 75 -2 77 -28 77 -14 0 -23 -4 -19 -10 3 -5 0
-10 -8 -10 -10 0 -14 -7 -10 -22 4 -19 3 -20 -6 -8 -6 8 -8 23 -5 34 4 13 3
16 -6 11 -7 -5 -11 -4 -7 1 7 12 71 16 124 9z m-197 -114 l0 -90 -70 -22 c-38
-13 -72 -20 -75 -17 -4 3 9 26 27 50 19 25 52 72 74 106 21 33 40 61 42 61 1
1 2 -39 2 -88z m991 33 c-6 -20 -24 -55 -42 -76 -17 -22 -29 -42 -26 -45 3 -2
18 14 33 36 14 23 30 41 35 41 4 0 9 7 11 17 2 9 22 -21 48 -70 25 -47 48 -83
52 -81 4 3 5 -3 1 -12 -4 -12 -3 -15 5 -10 8 5 10 1 5 -10 -4 -12 -3 -15 5
-10 7 4 26 -22 52 -73 96 -193 215 -384 312 -506 l32 -40 -38 35 c-40 37 -159
207 -195 278 -12 23 -26 40 -31 37 -6 -4 -7 1 -3 11 4 11 3 15 -5 10 -6 -3
-16 3 -22 15 -9 17 -9 20 0 14 8 -5 11 -3 8 6 -3 8 -10 13 -16 12 -7 -2 -9 4
-5 14 4 11 3 14 -5 9 -8 -5 -10 -2 -6 9 4 10 2 15 -6 13 -6 -2 -48 69 -96 161
-46 90 -85 166 -87 168 -3 2 -22 -20 -43 -49 -21 -29 -57 -75 -79 -103 -56
-68 -157 -215 -148 -215 4 0 -3 -7 -15 -16 -13 -9 -21 -22 -18 -29 6 -16 -61
-116 -75 -112 -7 1 -14 -4 -17 -12 -3 -9 0 -11 9 -6 8 5 11 4 6 -1 -5 -5 -12
-9 -17 -9 -4 0 -28 -27 -53 -60 -58 -78 -103 -118 -51 -45 22 30 55 78 73 105
l32 50 -33 -40 c-50 -60 -91 -102 -82 -85 14 28 79 115 135 182 32 36 76 95
99 130 23 34 54 74 69 87 14 13 19 20 11 16 -8 -3 -6 1 4 9 11 9 16 16 10 16
-5 0 -5 4 1 8 16 12 152 225 160 250 11 39 17 17 6 -24z m-1876 26 c-8 -13
-225 -13 -245 0 -10 7 28 10 118 10 86 0 131 -4 127 -10z m247 -31 c-4 -39 -5
-40 -41 -37 -25 2 -37 8 -39 21 -3 14 4 17 32 17 20 0 36 5 36 10 0 6 -31 10
-74 10 -41 0 -78 5 -81 10 -4 6 26 10 82 10 l89 0 -4 -41z m1073 -79 c25 -41
45 -78 45 -82 0 -5 -9 -8 -20 -8 -41 0 -93 83 -104 165 l-7 50 21 -25 c11 -14
41 -59 65 -100z m-1206 -9 c36 -47 76 -102 89 -121 37 -53 -92 87 -135 147
-21 29 -40 52 -43 52 -3 0 -23 -25 -45 -55 -45 -63 -175 -209 -175 -196 0 5
15 26 33 48 18 21 69 86 112 143 67 87 81 101 90 86 5 -9 39 -56 74 -104z
m339 102 c-4 -23 -59 -42 -120 -42 -47 -1 -48 0 -48 29 l0 30 86 0 c76 0 85
-2 82 -17z m262 7 c0 -7 -42 -10 -120 -9 -67 1 -117 5 -114 10 8 13 234 12
234 -1z m-880 -19 c0 -30 -14 -41 -51 -41 -39 0 -44 5 -33 34 7 17 84 23 84 7z
m86 -1 c42 0 43 -1 32 -20 -10 -15 -24 -20 -60 -20 -45 0 -48 2 -48 26 0 20 4
25 16 20 9 -3 36 -6 60 -6z m642 -28 c3 -22 1 -23 -45 -20 -41 3 -48 6 -51 26
-3 22 -1 23 45 20 41 -3 48 -6 51 -26z m112 3 c0 -11 -12 -15 -50 -15 -38 0
-50 4 -50 15 0 11 12 15 50 15 38 0 50 -4 50 -15z m947 -15 c103 0 184 -2 182
-5 -3 -2 -92 -5 -199 -5 -147 -1 -195 1 -199 11 -2 8 2 10 13 6 10 -4 101 -7
203 -7z m-1709 -39 c-12 -19 -58 -29 -128 -27 -28 1 -36 5 -38 24 -3 21 -1 22
87 22 87 0 91 -1 79 -19z m98 7 c-7 -30 -19 -47 -30 -41 -6 3 -8 3 -4 -1 4 -5
-14 -36 -40 -70 -26 -34 -55 -73 -64 -86 -14 -21 -19 -23 -27 -10 -7 11 -1 25
25 55 19 22 58 68 87 102 29 35 53 63 54 63 1 0 0 -6 -1 -12z m30 -106 c-11
-10 -12 3 -7 63 l6 60 3 -59 c2 -32 1 -61 -2 -64z m1537 112 c57 -10 48 -34
-13 -34 -43 0 -50 3 -50 20 0 22 6 23 63 14z m-1063 -19 c0 -14 -20 -16 -157
-13 -108 2 -158 7 -160 15 -3 8 38 12 156 12 140 1 161 -1 161 -14z m108 -2
c-2 -14 -15 -19 -51 -21 -42 -3 -47 -1 -47 17 0 18 6 21 51 21 43 0 50 -3 47
-17z m655 -91 c-32 -8 -43 7 -43 59 l0 51 28 -53 c22 -41 25 -55 15 -57z m177
72 c13 -19 26 -32 31 -27 4 4 58 7 118 5 106 -3 110 -4 98 -23 -10 -17 -24
-19 -103 -19 -76 0 -93 3 -98 16 -4 9 -9 14 -13 11 -12 -13 20 -37 48 -37 22
0 29 -5 29 -20 0 -53 -81 14 -129 108 -18 35 -5 26 19 -14z m230 18 c0 -15 -6
-18 -30 -14 -17 2 -30 10 -30 18 0 9 11 14 30 14 22 0 30 -5 30 -18z m70 13
c0 -2 -13 -11 -30 -20 -29 -15 -30 -15 -30 5 0 16 7 20 30 20 17 0 30 -2 30
-5z m-1570 -9 c0 -3 -4 -8 -10 -11 -5 -3 -10 -1 -10 4 0 6 5 11 10 11 6 0 10
-2 10 -4z m9 -153 c41 -51 46 -73 15 -73 -8 0 -14 9 -14 20 0 12 -24 39 -65
71 -60 47 -65 54 -65 89 l0 39 43 -47 c24 -26 62 -71 86 -99z m1245 100 c15
-25 25 -48 23 -50 -2 -2 -16 19 -31 47 -15 27 -25 50 -22 50 2 0 16 -21 30
-47z m-1424 -13 c0 -36 -3 -41 -40 -60 -22 -11 -40 -18 -40 -15 0 7 72 115 76
115 2 0 4 -18 4 -40z m310 5 c0 -22 -4 -25 -38 -25 -39 0 -62 14 -62 37 0 9
16 13 50 13 47 0 50 -2 50 -25z m180 0 c0 -25 -1 -25 -85 -25 -84 0 -85 0 -85
25 0 25 1 25 85 25 84 0 85 0 85 -25z m74 0 c-10 -15 -26 -25 -40 -25 -19 0
-24 5 -24 25 0 23 4 25 40 25 l40 0 -16 -25z m446 0 c0 -22 -4 -25 -35 -25
-31 0 -35 3 -35 25 0 22 4 25 35 25 31 0 35 -3 35 -25z m30 0 c0 -14 -4 -25
-8 -25 -4 0 -9 11 -10 25 -1 14 3 25 8 25 6 0 10 -11 10 -25z m40 0 c0 -14 -4
-25 -9 -25 -5 0 -11 11 -13 25 -4 17 -1 25 8 25 8 0 14 -11 14 -25z m-1239 -4
c-8 -13 -27 -21 -67 -26 -30 -3 -58 -4 -61 -2 -2 3 1 14 8 25 10 15 24 20 71
21 55 1 58 0 49 -18z m1026 -17 c-3 -3 -20 -4 -39 -2 l-33 4 35 16 c31 15 35
15 38 1 2 -8 2 -17 -1 -19z m-1199 9 c2 -9 -10 -13 -42 -13 -43 0 -55 7 -39
24 12 11 76 2 81 -11z m52 -58 c0 -23 -3 -25 -52 -25 -29 0 -63 -3 -75 -6 -20
-6 -23 -3 -23 25 l0 31 75 0 c73 0 75 -1 75 -25z m73 0 c-17 -23 -63 -35 -63
-16 0 28 14 41 47 41 l34 0 -18 -25z m588 3 l2 -23 4 23 c4 20 10 22 69 22
l64 0 0 -30 0 -30 -113 0 c-112 0 -114 0 -125 25 -7 14 -12 28 -12 30 0 3 25
5 55 5 50 0 55 -2 56 -22z m333 16 c36 -14 12 -24 -54 -24 -56 0 -70 3 -70 15
0 11 13 15 54 15 30 0 61 -3 70 -6z m684 -1 c-10 -2 -28 -2 -40 0 -13 2 -5 4
17 4 22 1 32 -1 23 -4z m501 -105 c72 -112 79 -138 80 -295 1 -93 -4 -108 -33
-97 -14 5 -16 28 -16 155 l0 150 -32 35 c-18 20 -43 47 -55 59 -16 15 -23 34
-23 59 0 20 3 36 8 35 4 0 36 -45 71 -101z m-1795 54 c22 -15 41 -31 43 -37 2
-6 -42 -9 -123 -7 l-125 3 43 34 c63 50 97 52 162 7z m1009 22 c114 -3 207
-10 207 -15 0 -5 -57 -10 -127 -11 l-128 -2 102 -3 102 -4 3 -37 c2 -20 2
-117 0 -214 l-3 -176 -127 -4 c-112 -3 -131 -1 -162 17 l-35 20 149 5 c86 3
151 9 153 15 2 6 -79 10 -229 10 l-233 -1 220 3 220 3 -3 113 c-4 167 -9 179
-11 30 -1 -90 -5 -133 -12 -133 -8 0 -9 42 -4 145 l7 145 -201 0 -200 0 -4
-142 -3 -143 -2 152 -2 152 213 -4 c116 -2 215 -4 219 -4 4 -1 9 -36 11 -78
l3 -78 0 85 -1 85 -65 7 c-36 4 -138 5 -227 2 l-163 -6 0 -154 c0 -91 -4 -155
-10 -159 -5 -3 -10 -15 -10 -26 0 -15 6 -20 23 -19 12 1 51 2 87 1 61 -2 64
-3 45 -17 -17 -14 -49 -15 -230 -10 -115 3 -223 6 -239 6 l-29 -1 18 28 c36
56 45 67 45 57 0 -5 -4 -14 -10 -20 -5 -5 -6 -15 -1 -22 6 -9 36 26 99 115 98
139 125 169 141 158 7 -4 11 -55 11 -135 0 -114 -2 -129 -17 -133 -12 -3 -10
-5 7 -6 l25 -1 -3 190 -3 190 163 2 c163 1 163 1 58 8 -58 4 -129 8 -158 9
-35 1 -51 5 -47 12 5 6 35 8 83 5 43 -3 170 -9 285 -12z m362 1 c0 -5 -28 -11
-61 -13 -49 -2 -63 0 -68 13 -5 14 3 16 62 13 37 -2 67 -7 67 -13z m-889 -51
c-34 -62 -188 -271 -246 -336 -31 -34 -49 -48 -54 -40 -4 7 11 31 37 59 54 59
226 277 256 327 32 52 37 44 7 -10z m-341 -2 c-3 -3 -11 0 -18 7 -9 10 -8 11
6 5 10 -3 15 -9 12 -12z m1073 -32 c-3 -27 -2 -51 2 -52 4 -2 9 -75 11 -163 4
-160 4 -160 -18 -163 l-23 -3 0 215 c0 193 2 216 16 216 14 0 16 -9 12 -50z
m-1688 15 c0 -22 -4 -25 -39 -25 -35 0 -38 2 -33 25 4 21 10 25 38 25 30 0 34
-3 34 -25z m160 6 c5 -11 10 -22 10 -25 0 -3 -36 -6 -80 -6 -79 0 -80 0 -80
25 0 24 2 25 70 25 58 0 71 -3 80 -19z m740 1 c0 -40 -49 -58 -51 -19 l-2 22
-4 -23 c-4 -22 -8 -23 -86 -20 -81 3 -82 3 -85 31 l-3 27 115 0 c105 0 116 -2
116 -18z m1280 -1 c0 -6 12 -16 26 -23 15 -7 34 -23 42 -35 l14 -23 -81 0
c-44 0 -81 3 -81 6 0 3 14 23 32 45 30 38 48 49 48 30z m-1920 -156 c0 -113
-2 -135 -15 -135 -13 0 -15 21 -15 128 0 71 3 132 7 135 19 19 23 -5 23 -128z
m230 -6 c0 -91 -4 -138 -10 -134 -6 4 -10 58 -10 131 l0 124 -74 0 c-41 0 -81
3 -90 6 -13 5 -16 -12 -19 -128 l-3 -133 -2 138 -2 137 105 0 105 0 0 -141z
m48 11 c-3 -118 -1 -130 15 -130 9 0 17 -4 17 -10 0 -5 -13 -10 -30 -10 l-30
0 0 140 c0 120 2 140 16 140 13 0 15 -18 12 -130z m31 43 l-1 -78 -10 64 c-8
60 -6 91 7 91 3 0 4 -35 4 -77z m651 37 c0 -30 1 -30 55 -30 l55 0 0 -89 c0
-91 -5 -121 -21 -121 -5 0 -9 43 -9 95 l0 95 -40 0 -40 0 0 -100 c0 -105 -13
-133 -24 -53 -8 58 4 233 15 233 5 0 9 -13 9 -30z m113 23 c-7 -2 -21 -2 -30
0 -10 3 -4 5 12 5 17 0 24 -2 18 -5z m226 -45 c-1 -29 -4 -93 -8 -143 l-8 -90
-3 135 -4 135 -6 -135 -6 -135 -2 138 c-1 102 -5 137 -14 137 -33 -1 -37 -17
-41 -140 l-3 -125 -2 128 -2 127 -45 0 -45 0 -1 -112 c0 -62 -4 -122 -9 -133
-5 -12 -9 34 -9 123 l-1 142 105 0 105 0 -1 -52z m-1471 15 c-3 -26 -6 -28
-58 -31 -30 -2 -69 -1 -86 3 -27 5 -30 9 -26 30 4 24 7 25 89 25 l84 0 -3 -27z
m92 -3 c0 -25 -4 -30 -24 -30 -40 0 -56 11 -56 36 0 21 4 24 40 24 38 0 40 -2
40 -30z m180 -8 c0 -35 -6 -41 -31 -35 -11 3 -19 14 -19 27 0 27 8 36 32 36
13 0 18 -8 18 -28z m90 -7 c0 -31 -3 -35 -25 -35 -22 0 -25 4 -25 35 0 31 3
35 25 35 22 0 25 -4 25 -35z m330 5 l0 -30 -85 0 c-47 0 -85 4 -85 8 0 13 32
39 55 45 11 2 41 5 68 6 46 1 47 0 47 -29z m49 0 c-25 -33 -39 -31 -39 6 0 20
5 24 30 24 l31 0 -22 -30z m491 10 c0 -5 -13 -10 -30 -10 -16 0 -30 5 -30 10
0 6 14 10 30 10 17 0 30 -4 30 -10z m615 0 c-4 -6 -17 -9 -30 -7 -40 5 -41 17
-1 17 23 0 35 -4 31 -10z m-487 -34 c3 -11 -4 -26 -14 -33 -17 -12 -17 -13 0
-13 15 0 17 -9 14 -72 -3 -70 -4 -73 -28 -73 -25 0 -25 2 -27 85 -3 112 2 132
30 128 12 -2 23 -12 25 -22z m640 -113 l2 137 73 0 c125 0 117 10 117 -156 0
-89 -4 -144 -10 -144 -6 0 -10 53 -10 139 l0 138 -52 7 c-108 12 -98 27 -98
-144 0 -140 -1 -150 -19 -150 -16 0 -19 10 -23 83 -2 45 -2 116 1 157 5 68 7
62 11 -65 l6 -140 2 138z m-1937 97 c60 0 60 0 57 -27 -3 -27 -5 -28 -75 -31
l-73 -3 0 37 c0 29 3 35 16 30 9 -3 43 -6 75 -6z m226 -123 c-2 -23 -3 -1 -3
48 0 50 1 68 3 42 2 -26 2 -67 0 -90z m-331 107 c-3 -9 -6 -22 -6 -30 0 -11
-16 -14 -70 -14 l-70 0 0 30 0 30 76 0 c65 0 75 -2 70 -16z m2124 -9 c0 -18
-5 -25 -20 -25 -15 0 -20 7 -20 25 0 18 5 25 20 25 15 0 20 -7 20 -25z m-1810
-60 c0 -73 -1 -75 -25 -75 -24 0 -25 2 -25 75 0 73 1 75 25 75 24 0 25 -2 25
-75z m90 0 c0 -73 -1 -75 -25 -75 -24 0 -25 2 -25 75 0 73 1 75 25 75 24 0 25
-2 25 -75z m260 49 c0 -26 -1 -27 -46 -20 -26 3 -55 6 -64 6 -13 0 -17 6 -13
20 5 17 14 20 64 20 57 0 59 -1 59 -26z m80 18 c0 -15 -38 -44 -49 -37 -6 3
-11 15 -11 26 0 14 7 19 30 19 17 0 30 -4 30 -8z m1438 -4 c19 -19 14 -28 -13
-28 -18 0 -25 5 -25 20 0 22 20 26 38 8z m-351 -4 c-3 -3 -12 -4 -19 -1 -8 3
-5 6 6 6 11 1 17 -2 13 -5z m552 -101 c34 -54 73 -113 88 -132 l27 -33 -81 3
c-45 2 -85 8 -90 12 -4 5 -9 50 -11 100 -2 91 -2 92 14 62 22 -40 97 -137 120
-155 16 -13 17 -13 9 0 -5 8 -23 33 -41 55 -55 69 -118 185 -101 185 3 0 32
-44 66 -97z m-382 -150 c-3 -2 -49 -2 -103 -1 l-98 3 50 36 c48 34 116 112 83
95 -7 -4 -3 2 11 14 14 12 19 19 12 15 -7 -4 -1 11 15 33 l28 39 3 -115 c1
-63 1 -116 -1 -119z m131 117 l3 -100 -32 0 -32 0 6 68 c4 37 7 79 7 95 0 33
17 36 23 5 4 -20 4 -19 6 5 0 15 4 27 9 27 4 0 8 -45 10 -100z m62 -6 c0 -94
0 -94 -25 -94 -25 0 -25 1 -25 87 0 47 2 84 5 81 3 -2 12 -22 20 -44 l15 -39
-6 35 c-3 19 -12 44 -19 56 -12 19 -12 21 11 16 23 -4 24 -7 24 -98z m-1577
86 c10 0 17 -8 17 -18 0 -16 -9 -19 -60 -21 -53 -2 -60 0 -60 17 0 28 11 34
50 28 19 -3 43 -6 53 -6z m1137 0 c8 -5 11 -10 5 -10 -5 0 -17 5 -25 10 -8 5
-10 10 -5 10 6 0 17 -5 25 -10z m-1817 -20 c-4 -16 -14 -20 -49 -20 -37 0 -44
3 -44 20 0 17 7 20 49 20 44 0 49 -2 44 -20z m117 -1 c0 -18 -5 -20 -47 -17
-36 2 -49 7 -51 21 -3 14 4 17 47 17 45 0 51 -3 51 -21z m80 1 c0 -16 -7 -20
-35 -20 -38 0 -38 0 -29 24 4 10 18 16 35 16 22 0 29 -5 29 -20z m17 -2 c-3
-8 -6 -5 -6 6 -1 11 2 17 5 13 3 -3 4 -12 1 -19z m521 10 c-6 -18 -28 -21 -28
-4 0 9 7 16 16 16 9 0 14 -5 12 -12z m-718 -63 c0 -12 -13 -15 -60 -15 -49 0
-58 3 -54 15 5 11 21 15 60 15 41 0 54 -4 54 -15z m220 0 c0 -12 -18 -15 -105
-15 -87 0 -105 3 -105 15 0 12 18 15 105 15 87 0 105 -3 105 -15z m460 0 c-7
-8 -28 -15 -46 -15 -24 0 -34 5 -34 15 0 11 12 15 46 15 40 0 45 -2 34 -15z
m-38 -47 c-15 -15 -811 -12 -826 3 -6 5 157 9 414 9 337 0 421 -3 412 -12z
m-170 -75 c-95 -2 -248 -2 -340 0 -92 1 -14 3 173 3 187 0 262 -2 167 -3z
m713 -3 c-29 -12 -425 -12 -425 0 0 6 80 10 223 9 133 0 214 -4 202 -9z m171
-14 c81 -29 254 -109 254 -117 0 -5 -26 3 -57 17 -143 64 -191 76 -293 71 -94
-5 -152 -21 -320 -87 -30 -12 -50 -17 -45 -12 25 25 351 138 406 141 9 1 34
-5 55 -13z m266 -3 c-40 -2 -103 -2 -140 0 -37 2 -4 3 73 3 77 0 107 -2 67 -3z
m321 0 c-24 -2 -62 -2 -85 0 -24 2 -5 4 42 4 47 0 66 -2 43 -4z m627 -20 c25
-14 25 -14 -10 -9 -19 3 -150 9 -290 13 -143 3 -246 9 -235 14 11 4 130 5 265
2 182 -5 250 -10 270 -20z m-1470 0 c-27 -10 -204 -75 -229 -85 -18 -7 -21
-12 -13 -20 7 -7 12 -20 12 -29 0 -30 17 -31 77 -5 109 45 193 66 316 75 129
11 210 1 278 -35 27 -14 30 -19 27 -57 -3 -41 -2 -42 46 -67 79 -41 72 -52
-25 -48 l-84 3 -3 67 -3 67 -37 12 c-41 14 -311 21 -327 9 -5 -4 -25 -10 -44
-14 -18 -3 -60 -18 -92 -32 l-59 -27 0 -208 0 -209 -70 0 -70 0 0 -31 c0 -34
-15 -69 -30 -69 -6 0 -10 134 -10 355 l0 355 178 -1 c97 0 170 -3 162 -6z
m480 -3 l98 0 -29 -31 -29 -32 -83 33 c-45 18 -84 35 -87 38 -3 3 3 2 13 -1
10 -4 63 -7 117 -7z m-920 -20 c10 -6 -104 -10 -332 -10 -226 0 -348 4 -348
10 0 13 659 13 680 0z m1940 -10 c0 -5 -25 -10 -55 -10 -30 0 -55 5 -55 10 0
6 25 10 55 10 30 0 55 -4 55 -10z m-220 -11 c29 -6 50 -16 50 -24 0 -10 -10
-10 -44 -3 -25 5 -121 8 -215 6 -163 -3 -215 4 -133 17 20 4 42 8 47 10 25 8
249 4 295 -6z m-1929 -9 l287 0 2 -350 1 -350 -26 0 c-14 0 -36 -6 -48 -13
-17 -10 -97 -12 -354 -9 l-333 3 0 366 0 366 92 -7 c50 -3 220 -6 379 -6z
m1409 -26 c6 -15 9 -142 8 -307 l-2 -282 -6 234 -5 234 -27 -36 -28 -36 0
-185 c0 -102 3 -187 8 -189 4 -3 7 80 7 184 0 168 2 190 18 206 17 17 18 9 15
-200 -2 -168 0 -217 10 -217 7 0 12 -15 12 -40 l0 -40 -40 0 -40 0 0 344 c0
266 3 345 13 349 29 12 48 6 57 -19z m93 9 c-13 -2 -33 -2 -45 0 -13 2 -3 4
22 4 25 0 35 -2 23 -4z m328 -20 c1 -17 2 -17 6 0 5 20 0 20 80 6 l63 -11 0
-37 0 -37 -57 7 c-32 4 -66 8 -75 8 -10 1 -19 9 -19 19 -1 16 -2 16 -6 0 -2
-10 -11 -18 -19 -18 -8 0 -15 8 -15 18 -1 16 -2 16 -6 0 -4 -15 -16 -18 -61
-18 -31 0 -87 -3 -124 -7 l-68 -6 0 32 c0 19 6 34 15 37 29 11 120 22 203 23
71 1 82 -1 83 -16z m-311 -37 c0 -51 1 -52 130 -42 66 5 123 6 127 2 15 -14
-14 -21 -113 -24 l-104 -4 0 -209 c0 -128 -4 -210 -10 -214 -5 -3 -10 -15 -10
-26 0 -18 -6 -20 -47 -17 l-48 3 -3 247 -2 247 37 4 38 4 -42 1 c-39 2 -43 5
-43 27 0 23 4 25 45 25 41 0 45 -2 45 -24z m1054 17 c3 -4 21 -7 38 -7 40 -1
62 -35 47 -75 -10 -24 -9 -24 9 -8 26 24 66 21 97 -5 25 -22 25 -24 12 -63
-13 -36 -18 -41 -55 -46 -22 -3 -47 -11 -56 -18 -17 -14 -36 -7 -36 15 0 10
-7 13 -25 8 -14 -3 -25 -2 -25 4 0 14 28 23 58 17 15 -3 7 2 -17 10 -86 28
-81 28 -81 2 0 -30 -25 -55 -33 -34 -3 9 -18 13 -44 11 -21 -2 -42 -3 -48 -3
-5 -1 10 -15 35 -31 37 -25 41 -30 22 -30 -41 0 -82 -28 -89 -61 -6 -29 -44
-56 -62 -44 -5 2 -13 -7 -19 -20 -7 -14 -16 -25 -20 -25 -5 0 -7 -12 -5 -27
l4 -28 -20 24 c-24 27 -28 86 -7 98 7 4 18 18 25 31 6 12 21 22 33 22 20 0 20
1 5 18 -23 25 -21 39 8 58 15 10 25 26 25 41 0 13 12 35 26 50 20 20 32 24 58
20 33 -5 56 14 56 47 0 16 46 56 65 56 6 0 15 -3 19 -7z m-1694 -78 c0 -61 -3
-75 -15 -75 -13 0 -14 10 -9 65 l7 65 -34 0 c-19 0 -51 -3 -71 -6 l-38 -7 -2
-61 -2 -61 -3 63 c-5 78 -18 82 -18 5 0 -47 -3 -58 -17 -61 -13 -2 -18 3 -18
18 0 12 5 18 10 15 6 -4 10 10 10 36 0 41 0 41 -31 35 -17 -3 -51 -15 -75 -25
-38 -17 -44 -24 -44 -49 l0 -29 103 -7 c56 -3 216 -9 355 -12 156 -4 252 -11
252 -17 0 -6 -90 -8 -262 -3 -145 3 -309 7 -365 7 l-103 1 0 47 c0 45 2 48 38
65 71 35 117 47 197 53 44 3 82 7 84 9 2 2 15 4 28 4 22 0 23 -3 23 -75z m129
42 c22 -10 26 -19 28 -57 1 -25 -3 -51 -7 -60 -7 -10 -9 2 -10 36 0 61 -10 72
-73 80 l-46 7 -4 -44 c-3 -43 -4 -42 -5 10 l-2 54 46 -7 c25 -3 58 -12 73 -19z
m-26 -45 c15 -14 27 -36 27 -49 0 -20 -5 -23 -35 -23 -37 0 -36 -1 -49 77 -5
27 -3 31 12 26 9 -3 29 -17 45 -31z m985 7 c12 -5 22 -13 22 -19 0 -6 -10 -8
-22 -5 -46 11 -149 22 -151 16 -1 -3 0 -35 4 -71 l6 -65 1 59 2 59 67 -6 c37
-4 70 -10 74 -14 4 -5 4 -100 0 -213 -7 -196 -13 -178 -15 51 -1 114 -10 139
-51 139 -12 0 -27 -6 -33 -13 -6 -7 -12 -82 -14 -177 -2 -91 -7 -173 -12 -182
-7 -16 -2 -18 45 -19 30 0 62 -3 71 -7 10 -4 -79 -7 -197 -7 -224 0 -263 8
-86 18 57 4 106 8 108 11 3 2 5 108 6 235 l2 231 75 -6 c41 -4 85 -11 98 -15z
m162 11 c0 -5 -25 -10 -55 -10 -30 0 -55 5 -55 10 0 6 25 10 55 10 30 0 55 -4
55 -10z m-940 -10 c8 -5 11 -10 5 -10 -5 0 -17 5 -25 10 -8 5 -10 10 -5 10 6
0 17 -5 25 -10z m65 -41 c13 -20 0 -15 -25 9 -23 22 -23 24 -3 13 12 -6 25
-16 28 -22z m535 1 c0 -11 -4 -20 -10 -20 -6 0 -9 -35 -8 -87 l2 -88 6 85 6
85 2 -70 c4 -134 -10 -295 -25 -295 -10 0 -13 35 -13 174 0 197 -2 201 -75
201 -74 0 -75 -3 -75 -211 0 -116 -4 -184 -10 -184 -6 0 -10 44 -10 113 0 61
-3 156 -7 209 l-6 97 34 4 c19 2 69 5 112 5 71 2 77 0 77 -18z m340 5 c0 -11
-12 -15 -50 -15 -38 0 -50 4 -50 15 0 11 12 15 50 15 38 0 50 -4 50 -15z
m-812 -279 c2 -251 2 -256 -18 -256 -18 0 -20 7 -20 55 0 45 3 55 18 56 13 0
14 2 2 6 -8 3 -18 11 -22 17 -4 6 -8 100 -8 210 l0 198 23 -14 c22 -15 22 -18
25 -272z m-2444 258 c9 -3 16 -12 16 -20 0 -9 11 -14 28 -14 32 0 55 -21 71
-64 9 -22 14 -26 25 -17 19 16 63 4 80 -21 15 -21 36 -17 36 7 0 19 39 45 66
45 33 0 84 -47 84 -77 0 -18 -4 -24 -15 -19 -9 3 -15 0 -15 -9 0 -8 -8 -19
-17 -24 -17 -10 -17 -10 -1 -11 9 0 19 4 22 9 12 19 63 29 86 18 37 -19 61
-127 29 -127 -5 0 -9 -8 -9 -18 0 -31 -55 -64 -103 -60 -41 3 -41 3 -18 16 17
10 26 11 34 3 6 -6 15 -11 20 -11 5 0 -1 9 -14 19 -19 16 -22 22 -11 32 6 7
12 21 12 31 0 17 -2 17 -30 -3 l-29 -22 -20 24 c-16 19 -22 22 -32 12 -21 -21
-64 -15 -89 12 -19 21 -22 31 -17 70 7 50 -3 53 -22 7 l-12 -29 -24 20 c-18
16 -21 26 -15 43 8 20 5 23 -26 29 -43 8 -75 -11 -98 -56 -20 -40 -13 -49 17
-22 37 34 56 35 92 8 55 -42 58 -119 3 -83 -23 15 -23 15 -23 -28 0 -47 8 -55
25 -25 9 17 14 18 40 9 57 -19 80 -84 38 -103 -12 -6 -25 -21 -28 -35 -6 -25
-6 -25 -14 -3 -7 22 -8 22 -32 7 -13 -9 -35 -14 -49 -12 -14 3 -25 1 -25 -5 0
-5 -7 -4 -15 3 -8 7 -13 16 -10 20 3 5 -4 6 -15 3 -13 -3 -22 1 -26 11 -4 10
-13 14 -24 11 -22 -7 -50 19 -50 46 0 10 9 28 19 38 17 17 18 21 5 32 -12 10
-19 7 -39 -11 -29 -27 -33 -74 -10 -104 21 -28 19 -34 -9 -29 -24 5 -35 -3
-70 -52 -14 -19 -15 -19 -33 -2 -11 9 -34 17 -52 17 -47 0 -105 58 -93 92 5
12 19 27 30 33 15 7 20 15 16 28 -3 10 0 25 8 34 11 14 11 16 0 9 -10 -6 -13
-3 -10 10 2 14 12 19 36 19 26 0 32 4 32 22 0 30 32 45 75 37 45 -8 54 -23 27
-45 -31 -25 -27 -30 10 -12 30 15 32 15 48 -5 18 -21 18 -21 24 10 3 17 5 32
4 32 -33 11 -64 36 -66 53 -4 25 28 46 54 36 12 -4 15 -3 10 5 -4 7 0 19 9 28
12 12 13 20 6 27 -20 20 -12 65 15 86 29 23 34 24 58 15z m3156 -240 c0 -131
-4 -224 -9 -224 -15 0 -16 21 -13 247 2 134 6 211 12 208 6 -4 10 -98 10 -231z
m78 226 l22 0 0 -240 0 -240 -34 0 c-64 0 -61 -12 -58 251 l3 241 22 -6 c12
-3 32 -6 45 -6z m793 0 c35 -19 19 -100 -17 -86 -17 6 -17 6 -2 -11 12 -13 14
-23 7 -35 -7 -13 -4 -23 11 -38 24 -24 25 -29 4 -58 -13 -19 -22 -22 -45 -17
-25 6 -29 4 -29 -15 0 -46 -58 -32 -80 19 -7 17 -21 33 -31 36 -12 4 -19 16
-19 31 0 25 -22 32 -49 15 -11 -7 -10 -13 4 -34 15 -24 15 -28 -1 -59 -9 -18
-23 -37 -31 -41 -7 -5 -11 -12 -8 -17 6 -10 -15 -60 -25 -60 -19 0 -18 16 2
31 31 24 21 30 -30 16 -31 -8 -50 -8 -72 0 -18 7 -28 7 -24 2 3 -6 16 -14 29
-19 23 -9 43 -60 30 -79 -3 -6 -30 -9 -59 -8 l-54 3 26 -39 c14 -22 35 -43 47
-47 18 -8 17 -9 -7 -9 -16 -1 -28 4 -28 10 0 5 -4 8 -8 5 -4 -2 -27 4 -50 14
l-42 19 0 -31 c0 -40 -35 -78 -69 -77 -43 1 -63 13 -86 55 -20 36 -21 41 -7
63 14 21 14 24 -2 33 -35 19 5 98 49 98 27 0 49 -24 40 -42 -3 -7 0 -4 7 7 7
10 25 32 41 48 15 16 27 37 27 47 0 24 34 43 61 35 20 -7 20 -6 4 18 -13 20
-14 30 -5 46 16 31 41 40 88 34 36 -5 41 -3 36 10 -9 24 47 50 81 37 14 -5 28
-17 32 -26 5 -13 9 -12 27 10 32 38 77 39 94 2 8 -19 16 -23 34 -18 20 5 20 7
4 10 -43 9 12 122 60 122 9 0 24 -5 35 -10z m-1174 -190 c1 -127 -1 -156 -9
-125 -5 23 -7 89 -3 157 6 119 0 143 -30 118 -12 -10 -15 -43 -15 -161 0 -126
-2 -149 -15 -149 -13 0 -15 24 -15 158 0 87 3 162 7 166 4 4 23 6 43 4 l35 -3
2 -165z m197 144 c3 -9 6 -78 6 -155 0 -115 -3 -139 -14 -139 -12 0 -16 27
-18 151 -2 83 -1 153 1 155 9 8 19 4 25 -12z m-1384 -154 c0 -127 -2 -150 -15
-150 -13 0 -15 23 -15 150 0 127 2 150 15 150 13 0 15 -23 15 -150z m150 102
c0 -100 -13 -262 -22 -262 -4 0 -8 70 -8 155 0 131 2 155 15 155 11 0 15 -12
15 -48z m17 -184 c-1 -46 -3 -11 -3 77 0 88 2 125 3 83 2 -42 2 -114 0 -160z
m2343 208 c15 -17 21 -33 18 -49 -4 -19 -1 -23 13 -20 13 4 20 -2 25 -21 7
-29 -9 -56 -35 -56 -9 0 -22 -9 -29 -20 -18 -29 -35 -25 -76 20 -46 51 -48 92
-7 138 36 38 60 40 91 8z m-2160 -137 c0 -142 -1 -149 -20 -149 -19 0 -20 7
-20 148 0 141 1 148 20 149 19 2 20 -4 20 -148z m143 4 c3 -85 2 -145 -4 -148
-5 -4 -9 54 -9 146 0 84 2 150 4 148 2 -2 6 -68 9 -146z m57 -3 c0 -143 -1
-150 -20 -150 -19 0 -20 7 -20 150 0 143 1 150 20 150 19 0 20 -7 20 -150z
m150 0 c0 -93 -4 -150 -10 -150 -6 0 -10 57 -10 150 0 93 4 150 10 150 6 0 10
-57 10 -150z m-260 -16 l0 -136 -22 6 c-13 3 -29 6 -35 6 -9 0 -13 16 -13 48
0 34 3 43 10 32 7 -11 10 -7 10 19 0 62 23 161 37 161 10 0 13 -30 13 -136z
m-373 -61 c-2 -37 -3 -9 -3 62 0 72 1 102 3 68 2 -34 2 -93 0 -130z m183 57
l0 -130 -35 0 -35 0 2 123 2 122 5 -100 6 -100 18 90 c9 50 17 98 17 108 0 9
5 17 10 17 6 0 10 -50 10 -130z m2178 -15 c17 -14 40 -25 52 -25 11 0 19 -4
15 -9 -3 -6 -23 -9 -45 -8 -35 1 -46 -4 -84 -43 -24 -25 -59 -54 -78 -64 -30
-17 -30 -16 9 18 30 26 49 54 64 96 12 33 25 60 30 60 4 0 21 -11 37 -25z m46
-62 c4 -5 31 -8 59 -8 l52 0 3 -35 c2 -21 12 -42 25 -52 31 -24 12 -53 -35
-53 -19 0 -43 -6 -52 -14 -14 -12 -23 -12 -52 -2 -48 17 -53 8 -9 -17 19 -12
35 -26 35 -32 0 -7 6 -7 21 0 28 15 37 5 10 -12 -12 -7 -21 -18 -21 -25 0 -17
-57 -55 -77 -51 -10 2 -23 14 -29 26 -17 35 -30 46 -38 33 -12 -19 -54 -12
-73 12 -10 12 -31 23 -48 25 -43 5 -60 24 -46 51 9 16 21 21 52 21 22 0 49 -5
59 -10 18 -9 19 -8 14 18 -5 23 -1 33 16 45 12 9 30 13 39 9 14 -5 14 -4 1 12
-13 17 -12 21 13 42 28 24 66 31 81 17z m-413 -133 c9 -32 13 -57 8 -55 -4 3
-12 27 -19 54 -6 27 -20 57 -31 67 -10 9 -19 22 -19 28 0 30 46 -42 61 -94z
m77 -42 c-6 -32 -8 -67 -5 -79 6 -21 5 -21 -10 -6 -14 14 -15 22 -5 55 7 22
12 66 13 98 1 54 2 56 10 24 5 -21 4 -57 -3 -92z m63 67 c-18 -25 -37 -62 -43
-81 -5 -20 -12 -33 -15 -30 -9 9 16 68 50 117 17 26 34 45 36 43 2 -2 -10 -24
-28 -49z m-3551 35 c13 -9 13 -11 0 -20 -19 -13 -34 -8 -38 13 -4 19 15 22 38
7z m2046 4 c22 -6 24 -10 22 -68 l-2 -61 -3 58 c-3 41 -8 57 -18 57 -11 0 -15
-14 -15 -55 l0 -55 -35 0 -35 0 0 55 0 55 -35 0 -35 0 0 -55 c0 -42 -3 -55
-15 -55 -11 0 -15 14 -17 58 l-1 57 -7 -60 -7 -60 -1 59 c-2 55 -3 58 -17 40
-13 -17 -14 -17 -15 -1 0 9 -4 17 -10 17 -5 0 -10 -25 -10 -55 0 -42 -3 -55
-15 -55 -11 0 -15 14 -17 58 l-2 57 -3 -57 c-4 -54 -5 -58 -28 -56 -23 2 -25
7 -27 58 l-2 55 -3 -52 c-3 -38 -8 -53 -19 -53 -10 0 -14 13 -14 50 0 67 -19
64 -22 -2 l-2 -53 -3 53 c-2 28 -8 52 -14 52 -5 0 -10 -24 -11 -52 l-1 -53 -7
55 -7 55 -1 -52 c-2 -51 -3 -53 -29 -53 -27 0 -28 1 -25 50 3 32 0 50 -7 50
-7 0 -11 -20 -11 -50 0 -58 -19 -69 -21 -12 l-2 37 -7 -40 c-4 -22 -8 -31 -9
-20 -1 15 -3 17 -10 6 -13 -19 -21 0 -18 43 2 20 0 36 -5 36 -4 0 -8 -22 -8
-50 0 -67 -19 -64 -22 3 l-2 52 -5 -55 -5 -55 -6 55 -7 55 -1 -52 c-2 -67 -22
-70 -22 -3 0 38 -4 50 -15 50 -10 0 -15 -10 -14 -32 l1 -33 8 30 c7 27 8 25 9
-16 1 -39 -2 -47 -16 -45 -14 1 -19 13 -24 56 l-6 55 -1 -57 c-2 -51 -4 -56
-22 -51 -16 4 -20 15 -22 57 l-1 51 -7 -60 -7 -60 -1 58 c-1 31 -5 57 -9 57
-5 0 -6 -22 -5 -50 3 -32 0 -50 -7 -50 -6 0 -12 22 -13 53 l-2 52 -3 -52 c-5
-61 -22 -72 -25 -15 l-1 37 -7 -45 c-7 -43 -8 -43 -7 17 l0 63 425 0 c233 0
435 -3 448 -6z m-139 -101 c-2 -16 -4 -3 -4 27 0 30 2 43 4 28 2 -16 2 -40 0
-55z m30 0 c-2 -16 -4 -3 -4 27 0 30 2 43 4 28 2 -16 2 -40 0 -55z m653 33 l0
-33 -91 -8 c-51 -4 -98 -9 -105 -12 -10 -4 -14 5 -14 35 l0 41 58 4 c31 2 78
4 105 5 l47 2 0 -34z m40 -16 c0 -38 -4 -50 -15 -50 -11 0 -15 12 -15 50 0 38
4 50 15 50 11 0 15 -12 15 -50z m-260 0 l0 -40 -60 0 -60 0 0 40 0 40 60 0 60
0 0 -40z m389 34 c30 -6 31 -9 31 -56 0 -42 -3 -49 -17 -44 -10 3 -44 8 -75
12 l-58 6 0 44 0 44 44 0 c24 0 58 -3 75 -6z m-2810 -38 c10 -12 16 -12 43 2
27 13 35 13 56 1 35 -19 39 -39 10 -39 -27 0 -48 -17 -48 -38 0 -10 4 -9 17 3
16 16 17 16 30 -1 17 -23 1 -42 -43 -50 -20 -4 -39 -15 -46 -28 -55 -97 -89
-121 -103 -75 -4 12 -15 29 -26 40 -10 10 -16 25 -13 34 5 11 2 13 -10 9 -9
-3 -16 -1 -16 5 0 15 37 51 52 51 9 0 9 3 0 12 -18 18 -15 32 13 62 26 28 66
34 84 12z m1873 -11 c3 -14 1 -25 -3 -25 -5 0 -9 11 -9 25 0 14 2 25 4 25 2 0
6 -11 8 -25z m1106 -20 c6 -3 12 -18 12 -35 0 -28 -2 -30 -41 -30 -56 0 -79
15 -79 49 0 28 1 28 48 24 26 -3 53 -6 60 -8z m-3628 -10 c7 -8 16 -13 20 -10
5 3 6 -4 3 -15 -3 -11 -9 -23 -14 -26 -5 -3 -9 -10 -9 -16 0 -7 13 1 30 17 27
26 33 27 72 19 37 -8 43 -13 43 -34 0 -18 -6 -26 -21 -28 -12 -2 -32 -15 -45
-30 -13 -15 -17 -21 -9 -14 24 20 67 15 73 -10 5 -18 8 -19 21 -9 10 8 14 22
10 36 -5 22 17 55 37 55 6 0 7 9 4 20 -4 14 -2 20 8 20 8 0 21 7 28 16 16 20
89 13 127 -12 l25 -17 -24 -18 c-13 -10 -32 -19 -42 -19 -11 0 -30 -9 -44 -20
-30 -23 -23 -27 10 -6 32 22 85 17 105 -9 9 -11 25 -24 35 -28 9 -3 17 -15 17
-26 0 -23 -22 -40 -28 -22 -4 11 -6 11 -13 0 -7 -12 -12 -12 -31 0 -26 16 -77
22 -79 9 -1 -4 -2 -14 -3 -20 0 -7 -11 -14 -23 -16 -15 -2 -25 -13 -29 -28 -4
-15 -16 -27 -32 -31 -22 -5 -32 0 -60 33 -33 38 -34 38 -18 7 9 -18 16 -34 16
-38 0 -10 -48 -5 -83 10 -41 17 -71 21 -48 6 17 -11 7 -41 -13 -41 -8 0 -22
10 -30 22 -9 12 -16 18 -16 12 0 -6 9 -22 19 -36 17 -21 18 -28 8 -49 -15 -29
-39 -35 -60 -14 -20 19 -23 19 -47 -5 -22 -22 -42 -25 -71 -9 -18 9 -19 7 -13
-15 6 -24 3 -26 -25 -26 -26 0 -31 4 -31 23 0 13 5 28 12 35 9 9 9 15 0 24
-18 18 -14 46 8 58 13 7 20 21 20 40 0 32 21 50 60 50 7 0 7 6 1 18 -11 21 11
62 33 62 8 0 11 10 8 28 -4 33 28 79 61 85 12 2 25 5 28 6 4 0 12 -6 19 -14z
m3290 -9 c0 -22 -5 -23 -77 -30 -42 -3 -120 -6 -175 -6 -91 0 -98 1 -98 20 0
18 7 20 78 21 42 1 102 4 132 9 30 4 74 8 98 9 38 1 42 -1 42 -23z m-732 -3
c117 -3 209 -9 206 -12 -3 -3 -233 -8 -510 -11 -389 -4 -504 -2 -504 7 0 8 22
13 63 16 121 6 536 7 745 0z m372 -13 c0 -15 -7 -20 -29 -20 -16 0 -31 6 -34
14 -8 19 1 26 35 26 21 0 28 -5 28 -20z m400 -5 c0 -8 -7 -15 -15 -15 -16 0
-20 12 -8 23 11 12 23 8 23 -8z m723 8 c-7 -2 -19 -2 -25 0 -7 3 -2 5 12 5 14
0 19 -2 13 -5z m-2334 -19 c2 -2 -149 -4 -337 -4 -220 0 -343 4 -347 10 -6 10
673 3 684 -6z m2271 -57 c4 -5 17 -3 29 5 17 11 25 11 43 -1 18 -11 22 -11 30
3 20 35 88 1 88 -44 0 -17 -3 -18 -25 -8 -20 9 -28 9 -38 -1 -9 -10 -9 -11 4
-6 9 3 22 -1 29 -10 18 -21 23 -19 43 15 15 24 25 30 52 30 19 0 37 -5 40 -10
4 -6 10 -8 15 -5 12 7 40 -23 40 -44 0 -22 -36 -56 -74 -71 -22 -8 -32 -8 -45
3 -28 25 -71 27 -93 5 -20 -20 -54 -17 -71 6 -5 6 -6 -3 -3 -21 7 -40 0 -44
-57 -37 -57 8 -87 34 -87 75 0 36 34 89 57 89 11 0 14 6 9 23 -4 12 -9 36 -11
52 -4 26 -3 25 6 -5 6 -19 14 -39 19 -43z m-1792 46 c-64 -2 -172 -2 -240 0
-68 1 -15 3 117 3 132 0 187 -2 123 -3z m1292 2 c0 -3 -16 -23 -35 -44 -34
-37 -35 -40 -15 -46 33 -11 24 -28 -12 -21 -17 3 -34 8 -36 11 -3 3 15 27 39
54 40 45 59 59 59 46z m-1710 -92 c0 -33 3 -41 15 -37 13 5 15 -28 15 -265 l0
-271 -385 0 -385 0 0 325 0 325 345 0 345 0 11 -45 c6 -25 16 -48 22 -52 7 -4
8 0 4 11 -4 10 -10 36 -13 59 -5 41 -5 41 10 17 8 -14 15 -44 16 -67z m2137
37 c23 -7 24 -8 7 -9 -12 -1 -30 7 -41 17 -10 9 -13 13 -7 9 7 -5 25 -12 41
-17z m-869 -7 c188 -3 332 -10 332 -15 0 -6 -211 -9 -512 -8 -657 3 -1028 10
-1028 21 0 11 734 12 1208 2z m807 -51 c11 -6 14 -12 7 -12 -7 0 -27 15 -45
33 -18 17 -21 22 -7 11 14 -12 34 -26 45 -32z m-81 33 c8 -21 -29 -55 -59 -55
-40 0 -32 34 13 53 20 8 38 15 38 16 1 1 4 -6 8 -14z m626 -27 c-31 -48 -44
-77 -37 -84 10 -11 75 35 96 69 11 18 21 27 21 20 0 -6 -15 -28 -34 -47 l-33
-36 26 -1 c18 -1 14 -4 -14 -8 -22 -4 -50 -11 -62 -15 -21 -7 -23 -4 -23 29 0
21 4 34 10 30 5 -3 21 12 36 35 15 22 29 40 31 40 3 0 -5 -15 -17 -32z m-1427
12 l397 0 0 -34 c0 -32 -3 -35 -38 -41 -25 -4 -50 0 -77 11 -121 51 -211 55
-393 19 -69 -14 -131 -24 -139 -21 -7 3 -13 1 -13 -4 0 -6 -9 -10 -20 -10 -11
0 -20 4 -20 10 0 5 -10 9 -22 8 -13 0 -86 9 -162 22 -172 28 -375 24 -520 -9
-128 -30 -136 -29 -136 14 l0 35 353 3 c193 1 361 1 372 0 11 -2 199 -3 418
-3z m656 -21 c-10 -6 -11 -9 -1 -9 9 0 12 -118 12 -555 l0 -555 -25 0 -25 0 0
550 c0 412 3 550 12 550 6 0 8 3 5 7 -4 3 1 15 10 25 12 13 19 15 21 8 3 -7
-2 -16 -9 -21z m-116 4 c-7 -2 -21 -2 -30 0 -10 3 -4 5 12 5 17 0 24 -2 18 -5z
m57 -583 l0 -540 -54 0 -55 0 -1 519 0 518 47 21 c27 11 51 21 56 21 4 1 7
-242 7 -539z m-1687 503 c-7 -2 -21 -2 -30 0 -10 3 -4 5 12 5 17 0 24 -2 18
-5z m842 1 c-6 -2 -8 -90 -5 -249 l5 -246 271 -2 271 -2 7 89 c3 49 6 158 6
243 0 152 0 153 23 154 21 1 21 1 -3 9 -25 8 -24 8 5 9 l30 1 -1 -163 c0 -89
-1 -330 -2 -534 l-2 -373 -31 0 -30 0 3 265 3 265 -272 0 -273 0 0 -165 0
-165 -35 0 -35 0 0 168 0 167 -372 0 c-288 0 -372 3 -375 13 -4 9 77 12 379
14 l383 2 -245 6 c-135 4 -308 9 -385 11 l-140 3 190 6 190 6 -190 4 c-104 2
-164 5 -132 7 l57 4 0 64 c0 66 -3 72 -30 55 -10 -6 -11 -10 -2 -10 8 0 12
-16 12 -48 0 -41 -3 -48 -21 -49 -19 -2 -21 3 -17 53 2 45 0 54 -14 54 -13 0
-18 -11 -20 -52 l-3 -53 -5 63 -5 62 282 0 282 0 -2 -70 -2 -70 80 0 c56 0 75
-3 65 -10 -8 -6 -42 -8 -75 -5 -53 4 -55 3 -20 -5 22 -5 63 -9 90 -9 l50 -1 0
133 c0 72 2 183 4 245 l3 112 32 -1 c17 0 27 -2 21 -5z m1915 -25 c59 -31 54
-42 -15 -40 -29 1 -29 0 -7 -11 26 -13 39 -54 25 -77 -13 -20 -60 -26 -79 -10
-10 8 -14 8 -14 0 0 -18 -38 -13 -52 8 -7 10 -22 20 -33 22 -44 9 -18 79 29
79 12 0 27 9 33 19 7 11 25 21 40 24 15 2 29 5 30 6 1 0 21 -8 43 -20z m-2740
-415 l0 -425 -32 3 c-31 3 -33 5 -32 41 0 20 1 210 2 422 l2 385 30 0 30 0 0
-426z m1550 241 c0 -117 -4 -185 -10 -185 -6 0 -10 61 -10 163 0 146 5 207 16
207 2 0 4 -83 4 -185z m854 163 c-4 -13 -10 -37 -14 -55 -7 -29 -6 -31 11 -20
14 9 21 9 30 0 6 -6 26 -9 44 -6 35 6 54 -10 36 -31 -8 -10 -2 -13 31 -12 38
1 43 -2 52 -28 10 -25 8 -31 -19 -52 -38 -31 -53 -30 -87 3 -23 22 -36 27 -68
24 -34 -2 -42 1 -49 21 -6 14 -10 17 -10 7 -1 -9 -12 -21 -26 -27 -22 -10 -25
-9 -25 7 0 10 16 39 35 64 20 26 37 62 41 86 4 23 11 41 16 41 5 0 6 -10 2
-22z m-2124 -123 c0 -122 -2 -135 -17 -135 -16 0 -18 12 -15 135 3 110 6 135
18 135 11 0 14 -24 14 -135z m248 128 l-67 -4 -3 -129 c-2 -80 1 -132 7 -134
6 -3 1 -5 -10 -5 -19 -1 -20 3 -13 111 3 62 7 125 7 141 l1 27 73 -2 72 -2
-67 -3z m961 -173 c1 -88 -3 -160 -8 -160 -8 0 -21 164 -21 267 0 40 4 53 15
53 12 0 14 -26 14 -160z m694 98 c2 -27 1 -48 -4 -48 -12 0 -22 65 -13 92 8
27 11 21 17 -44z m-2007 -6 l-29 -27 23 32 c13 18 26 30 29 28 3 -3 -8 -18
-23 -33z m182 11 c-2 -17 -10 -29 -20 -31 -14 -3 -18 3 -18 27 0 25 4 31 21
31 16 0 20 -5 17 -27z m49 -140 c-2 -32 -3 -6 -3 57 0 63 1 89 3 58 2 -32 2
-84 0 -115z m590 120 c-3 -10 -5 -2 -5 17 0 19 2 27 5 18 2 -10 2 -26 0 -35z
m1006 25 c29 -15 21 -54 -17 -76 -33 -20 -35 -20 -51 -2 -15 17 -20 17 -57 4
-69 -24 -81 12 -21 63 34 28 43 31 83 26 25 -3 53 -10 63 -15z m-3833 -3 c19
-7 28 -14 20 -14 -8 0 -28 6 -45 14 -39 17 -21 18 25 0z m2870 -10 c0 -14 -4
-25 -10 -25 -5 0 -10 11 -10 25 0 14 5 25 10 25 6 0 10 -11 10 -25z m27 -42
c-2 -16 -4 -5 -4 22 0 28 2 40 4 28 2 -13 2 -35 0 -50z m73 43 c0 -15 -7 -26
-17 -29 -10 -3 -3 -5 15 -6 24 -1 32 -5 31 -18 0 -11 -3 -13 -6 -5 -8 21 -23
13 -23 -13 0 -29 -16 -34 -23 -7 -4 13 -5 11 -6 -5 -1 -14 5 -23 14 -23 22 0
20 -50 -2 -51 -17 -1 -17 -2 0 -6 9 -2 17 -13 17 -23 0 -13 -5 -17 -20 -13
-18 5 -20 14 -20 74 0 48 4 69 13 70 10 0 10 2 0 6 -7 2 -13 20 -13 39 0 27 4
34 20 34 15 0 20 -7 20 -24z m1190 -1 c0 -8 -5 -17 -11 -21 -8 -4 -9 1 -5 17
6 22 6 22 -5 5 -7 -11 -15 -45 -19 -75 -7 -54 -7 -54 -9 -13 -1 48 23 117 39
107 5 -3 10 -12 10 -20z m460 -15 c-21 -14 -30 -12 -30 4 0 18 22 27 35 14 6
-6 5 -12 -5 -18z m-2704 -85 c31 -67 27 -85 -21 -85 -35 0 -35 1 -35 43 0 23
-3 67 -6 97 l-7 55 22 -27 c12 -15 33 -52 47 -83z m1704 69 c0 -8 -8 -14 -19
-14 -14 0 -17 6 -13 25 3 20 7 23 18 14 8 -6 14 -18 14 -25z m-1653 -127 c-2
-23 -3 -1 -3 48 0 50 1 68 3 42 2 -26 2 -67 0 -90z m1136 123 c15 0 17 -11 17
-85 l0 -85 -40 0 -40 0 0 91 c0 90 0 91 23 85 12 -3 30 -6 40 -6z m-3179 -8
c36 9 48 9 60 -1 18 -15 11 -35 -10 -27 -9 4 -14 -2 -14 -17 0 -30 -54 -71
-83 -64 -12 3 -33 9 -46 13 -23 7 -23 7 -6 -20 14 -21 15 -29 5 -41 -17 -21
-30 -19 -73 10 -24 17 -37 33 -37 48 0 13 -5 28 -12 35 -9 9 -3 15 25 27 20 8
47 15 60 15 14 0 30 7 37 15 9 11 17 12 31 5 12 -7 32 -6 63 2z m2486 -142 c6
0 11 15 11 33 2 30 2 30 6 5 8 -49 30 -33 26 17 -3 25 0 45 5 45 11 0 32 -45
32 -70 0 -11 3 -19 8 -18 4 0 14 -2 22 -5 8 -3 26 -8 40 -10 14 -3 -38 -4
-115 -3 l-140 1 -3 56 -3 57 48 -5 c36 -3 44 -2 33 6 -8 6 -30 11 -47 11 -51
0 -39 19 15 22 l47 3 3 -72 c2 -40 7 -73 12 -73z m429 83 c1 -13 -3 -23 -9
-23 -5 0 -10 21 -9 48 1 38 2 42 9 22 4 -14 8 -35 9 -47z m41 52 c0 -8 -9 -15
-20 -15 -11 0 -20 7 -20 15 0 8 9 15 20 15 11 0 20 -7 20 -15z m-660 -5 c0 -5
-22 -10 -50 -10 -27 0 -50 5 -50 10 0 6 23 10 50 10 28 0 50 -4 50 -10z m805
-148 c-14 -14 -17 14 -9 85 l9 78 3 -79 c2 -43 0 -81 -3 -84z m-2930 117 c-3
-4 -1 -10 5 -14 5 -3 10 -14 10 -23 -1 -14 -2 -14 -12 3 -6 11 -20 31 -32 43
l-21 24 27 -13 c15 -6 25 -15 23 -20z m3852 16 c7 -12 16 -13 43 -5 40 12 80
-8 80 -40 0 -13 7 -20 20 -20 25 0 43 -35 35 -67 -5 -21 -3 -24 10 -19 23 9
55 -11 55 -34 0 -13 -7 -20 -20 -20 -12 0 -17 -5 -14 -14 3 -7 -6 -22 -20 -33
-17 -14 -22 -23 -15 -30 7 -7 20 -1 39 18 31 31 70 38 90 14 16 -20 3 -55 -21
-55 -17 0 -19 -5 -13 -35 6 -31 4 -36 -22 -45 -23 -9 -31 -8 -40 5 -10 13 -13
13 -24 0 -14 -17 -67 -45 -87 -45 -7 0 -16 7 -19 15 -4 8 -17 15 -29 15 -13 0
-27 5 -30 11 -4 6 -14 7 -24 3 -9 -4 -38 -8 -66 -8 -47 -1 -50 -2 -47 -26 2
-14 10 -30 19 -37 13 -10 9 -13 -21 -18 -27 -5 -43 -3 -64 11 -15 10 -37 17
-49 15 -52 -6 -73 61 -33 105 33 34 50 31 50 -11 0 -19 4 -35 9 -35 5 0 7 9 4
20 -10 38 47 94 59 58 2 -6 10 2 17 19 7 17 22 35 34 40 l22 10 -22 11 c-17
10 -26 8 -47 -9 -15 -12 -28 -20 -30 -18 -2 2 -8 14 -15 26 -7 14 -18 20 -32
18 -23 -5 -37 21 -20 38 8 8 16 9 29 0 14 -8 23 -7 37 3 11 9 38 13 65 12 25
-1 55 1 67 5 18 6 28 3 46 -17 22 -24 23 -24 35 -5 15 23 74 26 92 4 10 -12
16 -13 24 -5 17 17 -21 40 -65 40 -20 0 -42 -7 -49 -15 -11 -13 -15 -13 -40 0
-22 11 -36 12 -56 5 -20 -8 -31 -7 -43 4 -9 8 -27 12 -43 9 -20 -4 -27 0 -33
17 -8 25 -41 23 -39 -3 3 -28 -9 -19 -38 28 -25 41 -25 44 -9 59 22 20 65 21
81 1 12 -14 15 -13 32 5 13 14 26 18 42 14 14 -3 27 1 35 10 17 20 57 21 68 1z
m-1187 -65 c0 -68 -1 -70 -25 -70 -24 0 -25 3 -25 56 0 42 4 60 18 70 29 22
32 17 32 -56z m-623 -22 c-2 -18 -4 -6 -4 27 0 33 2 48 4 33 2 -15 2 -42 0
-60z m66 64 c-12 -9 -23 -28 -25 -41 -6 -46 -28 -36 -28 13 l0 46 38 0 c37 0
37 -1 15 -18z m677 -7 c0 -16 -6 -25 -15 -25 -9 0 -15 9 -15 25 0 16 6 25 15
25 9 0 15 -9 15 -25z m-2721 -11 c14 -12 -19 -1 -35 12 -18 14 -18 14 6 3 14
-6 27 -13 29 -15z m2838 -66 c-2 -18 -4 -4 -4 32 0 36 2 50 4 33 2 -18 2 -48
0 -65z m-318 20 c-1 -35 -2 -38 -8 -18 -7 23 -4 60 5 60 2 0 4 -19 3 -42z
m-2942 -33 c21 -23 28 -65 11 -65 -17 0 -78 63 -78 82 0 25 33 41 42 20 3 -9
14 -26 25 -37z m3873 20 c0 -8 -4 -15 -10 -15 -5 0 -10 7 -10 15 0 8 5 15 10
15 6 0 10 -7 10 -15z m-2897 -17 c-4 -7 -8 -19 -9 -26 -1 -7 -7 -19 -13 -26
-17 -20 -138 -79 -153 -74 -7 3 10 15 37 27 28 12 69 42 91 66 40 43 64 60 47
33z m2971 -10 c8 -13 8 -23 -1 -37 -9 -15 -8 -22 5 -35 13 -13 14 -18 3 -28
-10 -11 -18 -7 -40 20 -19 22 -33 31 -44 26 -13 -4 -17 -1 -17 14 0 28 15 35
34 17 8 -8 17 -11 20 -6 3 5 -1 11 -9 15 -8 3 -15 13 -15 21 0 22 49 16 64 -7z
m556 18 c0 -2 -8 -10 -17 -17 -16 -13 -17 -12 -4 4 13 16 21 21 21 13z m-3864
-17 c3 -6 -1 -18 -10 -27 -14 -14 -17 -14 -36 3 -11 10 -20 22 -20 27 0 12 58
10 66 -3z m-325 -20 c8 -16 8 -20 0 -14 -8 5 -10 -2 -5 -22 l7 -28 -22 19
c-11 11 -21 28 -21 39 0 17 2 18 17 6 15 -12 16 -12 10 4 -9 24 0 21 14 -4z
m2386 -81 c-2 -18 -4 -4 -4 32 0 36 2 50 4 33 2 -18 2 -48 0 -65z m43 32 c0
-47 -3 -60 -15 -60 -12 0 -15 13 -15 60 0 47 3 60 15 60 12 0 15 -13 15 -60z
m17 -32 c-2 -18 -4 -4 -4 32 0 36 2 50 4 33 2 -18 2 -48 0 -65z m33 32 c0 -35
-4 -60 -10 -60 -7 0 -10 23 -8 60 4 78 18 78 18 0z m17 -32 c-2 -18 -4 -4 -4
32 0 36 2 50 4 33 2 -18 2 -48 0 -65z m-2577 62 c6 -11 8 -20 6 -20 -3 0 -10
9 -16 20 -6 11 -8 20 -6 20 3 0 10 -9 16 -20z m3208 -42 l-2 -53 -3 46 c-4 41
-7 46 -24 42 -14 -4 -19 -14 -19 -39 0 -20 5 -34 13 -35 6 -1 -4 -5 -23 -9
-19 -5 -122 -6 -229 -3 l-193 6 5 44 c2 23 1 43 -4 43 -4 0 -9 -12 -11 -27 -3
-27 -4 -27 -9 5 l-6 32 254 0 253 0 -2 -52z m-3198 -18 c10 -19 10 -20 -9 -8
-22 13 -28 28 -11 28 5 0 14 -9 20 -20z m56 12 c6 -4 14 -33 18 -65 3 -32 13
-72 21 -87 8 -16 15 -35 15 -42 0 -12 -18 18 -61 105 -27 52 -35 97 -18 97 8
0 19 -4 25 -8z m59 -10 c-3 -3 -11 0 -18 7 -9 10 -8 11 6 5 10 -3 15 -9 12
-12z m-231 -14 c-7 -23 -6 -23 14 -5 13 12 28 16 41 12 19 -6 19 -8 6 -22 -28
-27 -105 -26 -105 2 0 13 26 34 43 35 5 0 5 -10 1 -22z m487 -35 c2 -113 2
-179 0 -290 -2 -61 0 -161 4 -222 7 -100 6 -111 -8 -105 -9 3 -16 9 -15 12 0
4 0 12 -1 17 -2 17 -164 182 -201 204 -31 18 -32 21 -12 21 16 0 50 -28 110
-90 47 -49 90 -90 95 -90 5 0 6 77 2 173 -10 291 -10 320 0 324 6 2 8 25 7 53
-3 31 0 50 7 50 6 0 11 -24 12 -57z m34 -85 c-4 -79 -12 -152 -17 -163 -7 -17
-8 -16 -3 5 2 14 5 87 5 163 0 92 4 137 11 137 8 0 9 -42 4 -142z m2968 135
c-13 -2 -35 -2 -50 0 -16 2 -5 4 22 4 28 0 40 -2 28 -4z m-3268 -33 c8 -16 15
-48 14 -72 l-1 -43 -13 30 c-15 34 -30 115 -21 115 3 0 12 -13 21 -30z m226
-15 c-9 -30 -9 -30 -10 10 -1 25 2 36 9 29 6 -6 6 -21 1 -39z m2376 23 c-3 -8
-6 -5 -6 6 -1 11 2 17 5 13 3 -3 4 -12 1 -19z m-1747 2 c0 -5 -21 -10 -47 -9
-36 0 -43 3 -28 9 28 12 75 12 75 0z m2440 -25 l0 -35 -50 0 -50 0 0 35 0 35
50 0 50 0 0 -35z m443 13 c-13 -12 -25 -19 -29 -15 -10 10 16 37 34 37 13 0
12 -4 -5 -22z m-3531 -41 c6 -11 7 -44 2 -80 l-7 -62 -17 80 c-9 44 -20 89
-25 100 -8 20 -8 20 14 0 13 -11 27 -28 33 -38z m310 41 c-7 -7 -12 -15 -12
-20 0 -4 82 -9 183 -11 l182 -2 -185 -3 c-193 -2 -233 5 -196 33 24 18 45 20
28 3z m3144 1 c10 -17 -13 -36 -27 -22 -12 12 -4 33 11 33 5 0 12 -5 16 -11z
m-3510 -31 c4 -13 15 -63 25 -113 10 -49 25 -115 33 -145 17 -58 21 -157 7
-178 -6 -10 -16 -4 -39 22 -17 19 -46 42 -65 49 -39 17 -43 32 -57 222 l-7
110 2 -120 c2 -66 6 -131 9 -145 4 -14 -3 0 -14 30 -18 46 -20 74 -18 168 2
62 4 108 6 103 3 -9 68 2 79 13 13 13 32 5 39 -16z m248 -1 c16 -12 14 -17
-26 -67 -41 -52 -43 -53 -46 -28 -3 27 32 108 46 108 5 0 16 -6 26 -13z m2696
-7 c0 -6 -92 -10 -255 -10 -163 0 -255 4 -255 10 0 6 92 10 255 10 163 0 255
-4 255 -10z m1172 -30 c32 -30 32 -31 11 -36 -13 -4 -23 -10 -23 -14 0 -4 -15
-11 -32 -15 -31 -8 -32 -8 -8 -13 25 -4 40 -18 40 -38 0 -14 -48 -25 -56 -13
-10 16 -24 9 -34 -16 -11 -30 -21 -31 -44 -6 -21 23 -11 47 29 79 14 11 25 27
25 36 0 9 5 16 10 16 6 0 16 11 22 25 14 32 20 31 60 -5z m-2613 16 c-2 -2
-176 -7 -386 -11 -274 -5 -383 -4 -383 4 0 8 114 11 387 11 212 0 384 -2 382
-4z m2785 -47 c-1 -13 7 -30 17 -37 22 -15 25 -42 7 -60 -10 -10 -16 -8 -29
10 l-17 22 5 -27 c4 -23 2 -27 -16 -27 -12 0 -35 -7 -51 -15 -28 -15 -30 -14
-47 11 -16 25 -16 27 0 39 9 7 27 10 40 8 14 -3 29 2 36 11 11 13 11 16 -3 16
-24 0 -22 75 2 89 24 14 57 -10 56 -40z m-1144 -138 c0 -197 2 -191 -66 -191
-19 0 -34 3 -34 8 0 4 18 6 40 4 l40 -4 0 161 0 161 -40 0 c-33 0 -40 3 -40
20 0 17 7 20 50 20 l50 0 0 -179z m-2430 159 c0 -6 -60 -10 -159 -10 -96 0
-162 4 -166 10 -4 7 52 10 159 10 104 0 166 -4 166 -10z m-396 -40 c20 -22 36
-44 36 -49 0 -5 -24 -30 -52 -56 -56 -50 -48 -51 14 -2 48 38 68 26 68 -42 -1
-44 -2 -47 -43 -66 -23 -11 -46 -18 -50 -17 -5 1 -6 -7 -2 -18 4 -13 2 -20 -7
-20 -7 0 -21 -12 -30 -27 -13 -21 -18 -23 -18 -10 0 21 -7 22 -26 2 -18 -18
-44 -20 -44 -4 0 26 45 81 86 105 25 15 43 29 40 32 -3 3 -24 -7 -47 -22 l-40
-27 6 48 c16 120 45 213 66 213 4 0 23 -18 43 -40z m1185 -122 c-1 -182 -11
-353 -20 -363 -4 -3 -132 -2 -285 3 -154 4 -280 4 -282 0 -2 -4 -44 -8 -93 -8
l-89 0 0 265 0 265 385 0 385 0 -1 -162z m-789 127 c0 -12 -14 -15 -62 -15
-35 0 -107 -3 -160 -7 -96 -6 -98 -5 -98 15 0 22 3 22 160 22 136 0 160 -2
160 -15z m2379 -92 c-1 -75 -14 -222 -17 -194 -1 7 -8 11 -17 7 -13 -5 -15 14
-15 129 l0 135 25 0 c25 0 25 -1 24 -77z m616 -37 c10 -14 15 -26 12 -26 -10
0 -45 65 -51 95 -5 26 -4 25 8 -7 8 -20 22 -48 31 -62z m-3520 -12 c-16 -87
-28 -115 -42 -101 -6 7 19 121 39 176 17 48 19 11 3 -75z m262 78 c-15 -16
-17 -45 -17 -199 0 -152 -2 -182 -15 -187 -13 -5 -15 21 -15 199 l0 205 32 0
c29 0 30 -1 15 -18z m1413 -192 l0 -200 101 0 100 0 -3 200 -3 200 58 0 57 0
0 -203 0 -204 -122 -5 c-68 -3 -170 -2 -228 2 -71 4 -86 7 -47 8 l57 2 0 195
0 194 -62 4 c-62 3 -62 3 15 5 l77 2 0 -200z m168 3 l-3 -198 -2 192 -3 192
-73 4 -72 3 78 2 77 2 -2 -197z m282 190 c0 -12 -117 -15 -125 -4 -4 7 16 11
59 11 36 0 66 -3 66 -7z m527 -310 c-1 -60 -3 -11 -3 107 0 118 2 167 3 108 2
-60 2 -156 0 -215z m43 103 c0 -196 2 -215 18 -219 9 -3 -1 -5 -23 -5 -31 0
-35 1 -20 8 11 5 14 9 8 9 -10 1 -13 50 -13 211 0 180 2 210 15 210 13 0 15
-30 15 -214z m-2352 77 l3 -113 -31 0 -30 0 0 116 0 115 28 -3 27 -3 3 -112z
m1349 -145 c-1 -51 -3 -12 -3 87 0 99 2 141 3 93 2 -48 2 -129 0 -180z m-1420
80 c-2 -35 -3 -9 -3 57 0 66 1 94 3 63 2 -32 2 -86 0 -120z m1450 140 c-3 -7
-5 -2 -5 12 0 14 2 19 5 13 2 -7 2 -19 0 -25z m-1297 -88 l0 -100 -25 0 -25 0
0 100 0 100 25 0 25 0 0 -100z m1090 18 c0 -46 -3 -127 -7 -180 l-6 -98 -39 0
-38 0 0 60 c0 33 3 60 8 60 4 0 6 48 4 106 -2 58 -1 112 2 120 3 8 20 14 41
14 l35 0 0 -82z m598 -240 c-19 -11 -118 -10 -118 2 0 6 27 10 60 10 l60 0 2
158 2 157 3 -159 c3 -121 0 -161 -9 -168z m-337 302 c1 -5 3 -14 4 -20 1 -5 3
-13 4 -17 1 -5 8 6 16 22 13 29 13 27 14 -42 l1 -73 -37 0 -38 0 3 70 c3 52 7
70 18 70 8 0 15 -4 15 -10z m559 -154 c0 -134 -3 -166 -15 -176 -9 -7 -19 -10
-23 -6 -4 4 -8 84 -10 177 l-3 169 25 0 26 0 0 -164z m114 132 c-9 -16 -11
-27 -5 -24 14 9 14 5 -4 -37 -19 -46 -19 -59 1 -27 l14 25 -2 -25 c-2 -14 -9
-25 -18 -25 -10 0 -14 8 -12 25 1 14 3 45 2 70 0 39 3 46 20 47 19 2 19 0 4
-29z m70 -5 c9 -57 8 -101 -3 -84 -7 11 -10 11 -12 -3 -4 -15 -6 -15 -23 -3
-32 24 -22 127 13 127 13 0 20 -10 25 -37z m96 -143 c0 -173 -1 -180 -20 -180
-19 0 -20 7 -20 180 0 173 1 180 20 180 19 0 20 -7 20 -180z m-2125 156 l35
-15 0 -74 0 -74 -45 -1 -45 -1 0 89 c0 55 4 90 10 90 6 0 26 -7 45 -14z m1105
-27 c-10 -17 -14 -19 -21 -8 -5 9 -2 20 9 32 20 22 28 7 12 -24z m437 -69 c13
0 14 8 8 46 -7 49 1 64 38 64 14 0 17 -9 17 -60 l0 -60 -50 0 -50 0 0 53 c0
73 14 83 18 13 2 -43 7 -56 19 -56z m703 15 c0 -69 -3 -85 -15 -85 -12 0 -15
16 -15 85 0 69 3 85 15 85 12 0 15 -16 15 -85z m980 -231 c-11 -47 -20 -94
-20 -105 0 -10 -4 -19 -10 -19 -15 0 -12 116 4 154 7 18 17 66 20 107 15 166
21 181 24 61 2 -86 -2 -132 -18 -198z m-2132 215 c9 -1 20 -1 25 0 4 0 7 -3 7
-9 0 -16 -60 -12 -66 5 -4 8 -3 27 2 43 l8 27 4 -32 c2 -22 9 -33 20 -34z m29
39 c-3 -8 -6 -5 -6 6 -1 11 2 17 5 13 3 -3 4 -12 1 -19z m110 -40 c-3 -7 -5
-2 -5 12 0 14 2 19 5 13 2 -7 2 -19 0 -25z m1807 -17 c8 -14 19 -46 26 -71 6
-25 13 -53 16 -62 4 -12 0 -15 -14 -11 -13 3 -30 -5 -48 -24 -15 -15 -26 -30
-24 -32 3 -1 -16 -4 -43 -5 -43 -2 -46 0 -40 19 15 47 20 85 12 85 -5 0 -9 12
-9 28 0 20 -3 23 -10 12 -5 -8 -6 -33 -3 -56 4 -29 0 -50 -13 -75 l-18 -34 -6
33 c-7 44 -20 45 -36 2 -15 -43 -18 -19 -3 35 6 22 18 46 27 53 9 6 13 12 10
12 -3 0 0 17 7 37 11 30 19 39 45 44 18 4 41 16 52 27 25 25 54 18 72 -17z
m69 7 c3 -18 8 -44 12 -58 4 -15 -3 -8 -19 19 -29 48 -33 71 -12 71 8 0 16
-14 19 -32z m66 -15 c-1 -80 -17 -98 -18 -20 -1 38 3 67 9 67 6 0 10 -21 9
-47z m-1649 -62 c0 -39 -4 -73 -10 -76 -6 -4 -10 22 -10 69 0 44 4 76 10 76 6
0 10 -30 10 -69z m80 5 c0 -60 -1 -64 -25 -68 -25 -5 -25 -4 -25 63 0 67 1 69
25 69 24 0 25 -2 25 -64z m-533 -13 c-2 -16 -4 -5 -4 22 0 28 2 40 4 28 2 -13
2 -35 0 -50z m45 21 c2 -25 0 -48 -5 -51 -4 -2 -5 -13 -2 -22 3 -10 -1 -23 -9
-30 -14 -12 -46 -5 -46 10 0 4 7 6 15 3 16 -7 18 4 15 89 -1 35 2 47 13 47 11
0 16 -14 19 -46z m115 -76 c-2 -24 -4 -5 -4 42 0 47 2 66 4 43 2 -24 2 -62 0
-85z m93 59 c0 -68 -10 -87 -47 -87 -22 0 -23 3 -23 75 l0 75 35 0 35 0 0 -63z
m1530 37 c0 -9 -8 -32 -17 -52 l-17 -36 -8 29 c-5 20 -3 36 8 52 17 27 34 30
34 7z m-53 -147 c1 -114 1 -118 -8 -52 -11 83 -36 155 -54 155 -7 0 -18 7 -25
15 -10 12 -10 15 4 15 9 0 16 -5 16 -11 0 -7 8 -6 23 4 14 10 26 12 32 6 6 -6
11 -65 12 -132z m-3113 107 c12 -5 16 -20 16 -62 0 -63 -26 -102 -67 -102 -13
0 -37 -7 -53 -15 -18 -9 -40 -13 -55 -9 -21 5 -25 12 -25 44 0 33 4 39 39 54
21 10 44 29 50 42 8 19 49 47 78 54 1 0 8 -3 17 -6z m336 -4 c0 -6 -48 -10
-125 -10 -77 0 -125 4 -125 10 0 6 48 10 125 10 77 0 125 -4 125 -10z m898
-85 l1 -85 -44 0 -45 0 0 85 0 85 44 0 43 0 1 -85z m852 10 l0 -75 -54 0 c-59
0 -62 3 -60 65 3 91 -2 85 59 85 l55 0 0 -75z m500 65 c0 -5 -4 -10 -8 -10 -5
0 -5 -26 -1 -57 7 -53 2 -85 -8 -55 -3 6 -9 10 -14 6 -10 -6 -13 109 -2 119
10 11 33 8 33 -3z m145 0 l-50 -7 48 -1 48 -2 -3 -67 -3 -68 -47 -3 -48 -3 0
74 c0 40 3 77 7 80 3 4 27 6 52 5 l46 -1 -50 -7z m313 -3 c5 -4 17 -27 25 -52
16 -45 16 -45 -5 -34 -11 6 -33 8 -49 5 -29 -5 -29 -5 -29 43 0 46 2 49 23 47
13 -2 29 -6 35 -9z m-2938 -52 c0 -25 -4 -45 -10 -45 -11 0 -14 73 -3 83 11
12 13 8 13 -38z m30 0 c0 -19 -4 -37 -10 -40 -6 -4 -10 12 -10 40 0 28 4 44
10 40 6 -3 10 -21 10 -40z m17 -47 c-2 -18 -4 -4 -4 32 0 36 2 50 4 33 2 -18
2 -48 0 -65z m20 0 c-2 -18 -4 -4 -4 32 0 36 2 50 4 33 2 -18 2 -48 0 -65z
m20 0 c-2 -18 -4 -4 -4 32 0 36 2 50 4 33 2 -18 2 -48 0 -65z m20 -5 c-2 -21
-4 -6 -4 32 0 39 2 55 4 38 2 -18 2 -50 0 -70z m20 0 c-2 -21 -4 -6 -4 32 0
39 2 55 4 38 2 -18 2 -50 0 -70z m20 0 c-2 -21 -4 -6 -4 32 0 39 2 55 4 38 2
-18 2 -50 0 -70z m20 -5 c-2 -18 -4 -4 -4 32 0 36 2 50 4 33 2 -18 2 -48 0
-65z m30 0 c-2 -18 -4 -4 -4 32 0 36 2 50 4 33 2 -18 2 -48 0 -65z m20 0 c-2
-18 -4 -4 -4 32 0 36 2 50 4 33 2 -18 2 -48 0 -65z m2048 -8 c-29 -12 -154
-12 -135 0 8 5 47 9 85 9 48 0 64 -3 50 -9z m-2678 -27 c13 -19 12 -24 -7 -43
-11 -11 -25 -18 -29 -15 -5 2 -12 -2 -15 -10 -4 -13 -10 -14 -26 -5 -12 6 -29
8 -40 5 -10 -3 -21 -2 -24 4 -11 17 6 41 33 47 14 4 34 15 44 26 23 23 45 20
64 -9z m413 7 c11 -11 20 -26 20 -33 0 -27 -32 -56 -68 -63 -20 -4 -45 -13
-54 -21 -21 -19 -38 -9 -38 23 0 40 -24 23 -34 -24 -6 -23 -14 -42 -18 -42
-16 0 -68 30 -68 40 0 5 14 25 31 45 31 35 56 44 75 25 7 -7 14 -3 23 13 15
29 58 56 89 57 12 0 31 -9 42 -20z m3209 -9 c42 -22 65 -51 74 -96 3 -16 4
-24 1 -17 -7 15 -41 16 -46 2 -5 -15 -82 -41 -87 -29 -5 16 26 45 69 64 22 10
37 22 34 26 -3 5 -23 0 -45 -11 -42 -22 -59 -20 -59 7 0 13 -7 10 -29 -11 -33
-31 -46 -22 -36 24 7 32 38 60 68 60 10 0 35 -9 56 -19z m-1394 -1 c-39 -10
-675 -12 -675 -2 0 4 159 8 353 8 193 1 339 -2 322 -6z m418 3 c-24 -2 -62 -2
-85 0 -24 2 -5 4 42 4 47 0 66 -2 43 -4z m121 -43 c15 -42 22 -50 43 -50 22 0
25 -4 21 -25 -3 -14 -1 -25 3 -25 5 0 9 11 9 25 0 21 5 25 28 25 l27 0 -3 -75
c-2 -41 -7 -73 -12 -70 -4 3 -7 -3 -6 -13 1 -14 -9 -18 -46 -20 l-48 -3 0 81
c0 62 -6 94 -24 140 -14 33 -21 60 -17 60 4 0 15 -22 25 -50z m-2135 24 c10
-9 -135 -3 -149 6 -9 5 15 7 65 3 44 -3 82 -7 84 -9z m1781 1 c0 -11 -12 -15
-50 -15 -38 0 -50 4 -50 15 0 11 12 15 50 15 38 0 50 -4 50 -15z m-1160 -40
c-15 -16 -27 -22 -34 -15 -8 6 -12 1 -11 -18 l0 -26 -132 3 -133 3 -2 -79 -2
-78 -3 75 c-3 56 0 77 10 85 10 7 -36 9 -149 7 -156 -3 -164 -2 -164 16 0 37
21 41 210 41 101 1 185 3 188 6 3 3 59 5 125 5 l120 0 -23 -25z m130 13 c0
-23 -15 -35 -50 -43 -42 -9 -78 -35 -72 -53 2 -6 -1 -12 -7 -12 -6 0 -11 -10
-11 -22 -1 -13 -7 -34 -14 -46 -12 -23 -13 -22 -15 20 -1 23 -3 52 -4 63 -1
14 4 20 17 18 13 -1 15 2 7 10 -8 8 -2 20 21 44 27 28 39 33 80 33 32 0 48 -4
48 -12z m898 -10 c-3 -21 -9 -23 -93 -29 -49 -3 -209 -5 -355 -5 l-265 1 0
-25 c0 -22 -5 -25 -44 -28 -28 -2 -47 1 -52 10 -7 10 -9 10 -9 1 0 -7 -8 -13
-19 -13 -17 0 -18 5 -10 46 5 25 11 50 14 55 4 5 175 9 421 9 l415 0 -3 -22z
m402 2 c0 -19 -7 -20 -125 -20 -118 0 -125 1 -125 20 0 19 7 20 125 20 118 0
125 -1 125 -20z m210 16 c0 -2 3 -11 6 -20 5 -13 -3 -16 -50 -16 -31 0 -56 2
-56 4 0 2 -3 11 -6 20 -5 13 3 16 50 16 31 0 56 -2 56 -4z m876 -20 c3 -14 14
-32 25 -42 10 -9 19 -26 19 -36 0 -14 5 -18 18 -14 20 7 72 -52 72 -80 0 -12
-16 -2 -52 34 -29 29 -59 52 -68 52 -9 0 -11 -3 -5 -8 55 -40 107 -152 56
-120 -15 9 -23 9 -33 0 -18 -14 -58 -4 -58 14 0 8 7 17 15 20 29 12 4 23 -27
12 -26 -9 -33 -8 -43 5 -15 21 -29 21 -49 1 -13 -13 -16 -13 -16 -1 0 18 36
51 47 44 5 -3 15 -2 23 3 8 5 21 5 31 -1 12 -6 19 -4 23 6 3 8 1 15 -4 15 -11
0 -14 103 -3 113 12 13 23 7 29 -17z m-3179 4 c20 0 24 -4 21 -22 -3 -21 -9
-23 -57 -23 -41 0 -57 4 -65 18 -15 24 9 39 48 32 16 -3 40 -5 53 -5z m1833
-10 c0 -18 -7 -20 -54 -20 -30 0 -58 5 -61 10 -12 20 7 30 61 30 47 0 54 -2
54 -20z m660 5 c0 -12 -15 -15 -79 -15 -61 0 -80 3 -85 15 -4 13 8 15 79 15
69 0 85 -3 85 -15z m210 6 c0 -5 -6 -12 -12 -14 -8 -3 -6 -6 5 -6 10 -1 17 6
18 17 1 28 28 -39 29 -71 0 -18 -8 -36 -21 -46 -21 -17 -21 -17 15 -13 51 6
55 -17 12 -60 -39 -39 -90 -55 -113 -36 -8 7 -24 13 -35 15 -40 6 -52 22 -64
80 -21 96 -19 103 20 103 19 0 37 3 40 8 2 4 -13 6 -35 4 -31 -3 -39 -1 -39
12 0 13 14 16 90 16 50 0 90 -4 90 -9z m-3200 -25 c0 -8 3 -21 6 -30 4 -11 -2
-19 -22 -26 -35 -14 -53 1 -33 27 12 16 11 16 -8 -1 -12 -10 -21 -23 -20 -30
1 -6 -6 -10 -15 -10 -12 1 -18 -5 -18 -20 0 -12 -9 -25 -22 -31 -16 -7 -22
-18 -21 -33 3 -25 0 -26 -28 -12 -23 13 -25 43 -4 60 8 7 15 25 15 40 0 40 60
80 122 80 35 0 48 -4 48 -14z m-200 -31 c0 -20 -5 -25 -24 -25 -27 0 -38 -12
-55 -55 l-11 -30 5 34 c3 18 5 42 5 52 0 18 42 48 68 49 6 0 12 -11 12 -25z
m3160 -5 c0 -24 -4 -30 -22 -31 -13 0 -17 -3 -10 -6 6 -2 12 -17 12 -33 0 -16
-6 -31 -12 -33 -7 -3 -4 -6 7 -6 18 -1 20 4 17 34 -3 21 0 35 7 35 6 0 11 16
11 35 0 29 4 35 21 35 18 0 21 -5 17 -30 -3 -17 -1 -33 4 -36 13 -8 9 -54 -4
-55 -10 0 -10 -2 0 -6 37 -15 -20 -53 -80 -53 -23 0 -52 22 -60 45 -2 5 -14 8
-27 6 -23 -3 -24 -2 -18 54 6 63 13 77 27 55 8 -13 10 -12 10 3 0 14 9 17 50
17 49 0 50 -1 50 -30z m-790 8 c0 -6 -8 -20 -17 -31 -10 -11 -12 -17 -5 -13 9
5 12 -4 12 -33 0 -32 -3 -39 -15 -35 -17 7 -20 20 -5 29 6 3 10 12 10 18 0 7
-5 5 -10 -4 -5 -9 -23 -22 -40 -29 -18 -8 -30 -20 -30 -31 0 -11 -4 -19 -9
-19 -6 0 -6 12 0 30 6 16 9 52 7 80 l-3 50 53 0 c33 0 52 -4 52 -12z m89 0
c11 -10 13 -10 7 0 -5 8 3 12 28 12 l36 0 0 -63 c0 -36 -5 -68 -12 -75 -9 -9
-9 -12 1 -12 7 0 11 -9 9 -22 -2 -17 -11 -24 -31 -26 -25 -3 -26 -2 -17 22 7
21 6 26 -5 26 -8 0 -15 5 -15 12 0 6 -3 9 -6 6 -3 -4 -1 -16 6 -27 6 -12 7
-21 2 -21 -5 0 -14 18 -20 40 -7 29 -7 40 2 40 7 0 6 3 -2 9 -20 12 -29 91
-10 91 8 0 20 -6 27 -12z m349 -5 c3 -10 -27 -13 -127 -13 -111 0 -131 2 -131
15 0 13 18 15 127 13 90 -2 128 -7 131 -15z m-1078 -58 c0 -37 -4 -65 -10 -65
-5 0 -10 6 -11 13 0 8 -2 8 -6 -2 -9 -22 -42 -51 -57 -51 -8 0 -18 -5 -21 -11
-4 -6 -13 -8 -20 -5 -7 2 -17 0 -23 -6 -15 -15 -52 1 -52 22 0 11 8 24 18 29
16 10 16 10 0 11 -14 0 -18 9 -18 41 0 38 2 40 28 38 15 -1 48 -1 74 -1 42 2
48 5 54 27 4 16 13 25 25 25 17 0 19 -8 19 -65z m200 55 c0 -5 -9 -10 -19 -10
-11 0 -23 5 -26 10 -4 6 5 10 19 10 14 0 26 -4 26 -10z m285 -2 c-22 -5 -50
-7 -62 -5 -22 4 -23 1 -23 -59 0 -36 -4 -64 -10 -64 -5 0 -10 26 -10 57 0 61
-13 67 -14 5 -1 -34 -3 -37 -26 -33 -14 1 -28 8 -32 15 -6 8 -8 8 -8 -1 0 -15
12 -23 44 -25 14 -1 26 -6 26 -11 0 -5 -10 -8 -22 -7 -40 4 -48 0 -48 -20 0
-24 -26 -38 -42 -22 -16 16 -19 95 -5 104 8 5 6 8 -5 8 -18 0 -38 28 -38 54 0
12 24 14 158 14 120 0 148 -3 117 -10z m-1659 -19 c20 -17 17 -28 -6 -22 -17
5 -20 0 -20 -33 0 -30 -3 -35 -12 -26 -7 7 -22 12 -34 12 -12 0 -24 6 -27 13
-3 8 -10 7 -26 -7 -20 -18 -23 -18 -38 -3 -15 15 -15 18 1 41 27 42 124 57
162 25z m154 12 c0 -6 -8 -16 -17 -23 -10 -7 -18 -19 -18 -27 0 -30 -25 -21
-40 15 -8 20 -15 38 -15 40 0 2 20 4 45 4 25 0 45 -4 45 -9z m259 -3 c11 -10
13 -10 7 0 -5 8 1 12 17 12 28 0 37 -28 37 -111 l0 -48 131 0 c72 0 134 -3
138 -7 3 -3 -67 -4 -157 -2 -122 2 -165 6 -171 16 -6 10 -10 8 -14 -8 -5 -20
-10 -21 -54 -14 -26 4 -56 10 -66 13 -18 7 -18 9 5 37 12 16 29 39 35 51 11
18 10 21 -1 17 -8 -3 -21 5 -30 18 -9 12 -16 18 -16 14 0 -5 7 -17 16 -27 18
-20 13 -42 -17 -78 -17 -20 -31 -25 -85 -28 -63 -3 -65 -2 -62 19 2 12 14 28
28 35 14 7 19 13 12 13 -21 0 -4 42 26 67 24 20 38 23 118 23 58 0 95 -4 103
-12z m328 -100 c-2 -18 -4 -4 -4 32 0 36 2 50 4 33 2 -18 2 -48 0 -65z m647
67 c9 -13 16 -38 16 -55 0 -27 -3 -30 -32 -31 l-33 -2 34 -6 c53 -9 53 -33 0
-29 -28 2 -44 8 -43 16 1 6 2 39 3 72 1 52 4 60 20 60 10 0 26 -11 35 -25z
m293 -57 c-2 -18 -4 -6 -4 27 0 33 2 48 4 33 2 -15 2 -42 0 -60z m583 62 c10
-20 8 -20 -130 -20 -116 0 -140 3 -140 15 0 14 29 18 197 23 53 2 64 -1 73
-18z m-2507 -28 c29 -30 34 -41 25 -50 -17 -17 -46 -15 -50 4 -3 14 -6 14 -27
-3 -20 -16 -32 -19 -55 -12 -17 4 -40 7 -51 6 -14 -1 -20 4 -20 17 0 22 85 75
120 76 12 0 38 -17 58 -38z m807 18 c0 -11 -7 -20 -15 -20 -8 0 -15 9 -15 20
0 11 7 20 15 20 8 0 15 -9 15 -20z m47 -57 c-2 -16 -4 -3 -4 27 0 30 2 43 4
28 2 -16 2 -40 0 -55z m93 52 c0 -18 -5 -25 -20 -25 -15 0 -20 7 -20 25 0 18
5 25 20 25 15 0 20 -7 20 -25z m546 -17 c-7 -43 -12 -55 -21 -47 -2 3 -7 24
-11 47 -6 39 -5 42 16 42 21 0 22 -3 16 -42z m31 -20 c-2 -13 -4 -3 -4 22 0
25 2 35 4 23 2 -13 2 -33 0 -45z m331 19 c16 -45 15 -57 -4 -57 -13 0 -15 7
-10 30 3 19 2 29 -4 25 -6 -3 -10 3 -10 14 0 32 15 25 28 -12z m672 -17 c6
-11 9 -20 8 -21 -2 0 -69 -3 -150 -5 l-148 -5 0 25 0 26 140 0 c129 0 140 -1
150 -20z m-1356 -79 c5 -7 -3 -11 -23 -11 -38 0 -48 28 -25 72 l17 33 12 -41
c7 -23 15 -46 19 -53z m-354 59 c0 -13 -7 -20 -20 -20 -13 0 -20 7 -20 20 0
13 7 20 20 20 13 0 20 -7 20 -20z m130 0 c0 -13 -7 -20 -20 -20 -13 0 -20 7
-20 20 0 13 7 20 20 20 13 0 20 -7 20 -20z m-640 7 c0 -2 -12 -14 -27 -28
l-28 -24 24 28 c23 25 31 32 31 24z m2430 -17 c-19 -13 -30 -13 -30 0 0 6 10
10 23 10 18 0 19 -2 7 -10z m-1320 -20 c0 -5 -4 -10 -9 -10 -6 0 -13 5 -16 10
-3 6 1 10 9 10 9 0 16 -4 16 -10z m1143 -10 c5 -20 2 -20 -156 -18 -145 3
-162 5 -165 21 -3 16 10 17 156 17 152 0 160 -1 165 -20z m677 5 c7 -8 18 -15
26 -15 7 0 17 -7 21 -14 7 -12 17 -13 52 -5 35 8 47 7 61 -6 9 -8 25 -15 36
-15 11 0 29 -7 40 -15 18 -14 18 -14 -6 -15 -14 -1 -69 -2 -122 -4 -76 -2 -98
0 -98 10 0 7 8 18 18 24 14 9 12 10 -11 5 -16 -3 -35 -1 -43 6 -10 8 -22 8
-45 0 -50 -17 -63 0 -29 37 24 26 81 30 100 7z m-2176 -4 c8 -13 -3 -19 -24
-14 -11 3 -17 9 -14 14 7 11 31 12 38 0z m881 -12 c5 -5 -34 -9 -93 -9 -80 0
-102 3 -102 14 0 11 18 13 93 9 50 -3 96 -9 102 -14z m-427 4 c-15 -2 -42 -2
-60 0 -18 2 -6 4 27 4 33 0 48 -2 33 -4z m1222 -3 c0 -5 -7 -10 -15 -10 -8 0
-23 -9 -34 -21 -11 -12 -25 -18 -31 -14 -8 5 -3 15 16 31 30 24 64 32 64 14z
m360 -24 c0 -2 3 -11 6 -20 5 -12 0 -16 -20 -16 -24 0 -35 18 -19 33 7 8 33
10 33 3z m-530 -15 c0 -22 -37 -29 -191 -36 -153 -6 -167 -5 -184 12 -18 17
-17 18 26 24 71 10 349 10 349 0z m-199 -233 c11 -21 11 -22 -4 -9 -10 7 -17
17 -17 22 0 15 9 10 21 -13z"/>
<path d="M2731 4352 c-30 -42 -26 -50 5 -12 15 17 24 33 21 36 -2 3 -14 -8
-26 -24z"/>
<path d="M3496 3835 c-20 -30 -34 -55 -32 -55 8 0 78 101 74 106 -3 2 -21 -21
-42 -51z"/>
<path d="M3740 3789 c0 -4 16 -40 35 -80 19 -41 32 -63 29 -49 -7 26 -63 140
-64 129z"/>
<path d="M3280 3504 c-18 -25 -30 -47 -27 -50 2 -3 12 7 21 21 9 14 23 36 32
50 29 44 6 27 -26 -21z"/>
<path d="M2454 3525 c0 -71 1 -99 3 -62 2 37 2 96 0 130 -2 34 -3 4 -3 -68z"/>
<path d="M2790 3610 c0 -5 5 -10 10 -10 6 0 10 5 10 10 0 6 -4 10 -10 10 -5 0
-10 -4 -10 -10z"/>
<path d="M3602 3380 c0 -14 2 -19 5 -12 2 6 2 18 0 25 -3 6 -5 1 -5 -13z"/>
<path d="M1768 3193 c57 -2 147 -2 200 0 53 1 7 3 -103 3 -110 0 -154 -2 -97
-3z"/>
<path d="M1520 3152 c0 -8 9 -16 20 -19 19 -5 20 -14 20 -209 0 -175 -2 -204
-15 -204 -9 0 -15 -9 -15 -25 l0 -25 197 2 c179 3 198 5 201 21 2 10 -3 17
-12 17 -14 0 -16 25 -16 205 0 174 2 207 15 211 40 16 4 24 -107 25 -68 0
-160 4 -205 7 -67 6 -83 5 -83 -6z m355 -27 c6 -2 -61 -4 -147 -4 -87 -1 -158
3 -158 8 0 8 280 4 305 -4z m4 -217 c-1 -136 -4 -188 -10 -158 -4 25 -8 111
-8 193 l-1 147 -135 0 -135 0 0 -191 c0 -124 -3 -188 -10 -184 -6 4 -10 82
-10 201 l0 194 155 0 155 0 -1 -202z m-199 92 c0 -49 -1 -50 -30 -50 -29 0
-30 1 -30 50 0 49 1 50 30 50 29 0 30 -1 30 -50z m58 -112 c-2 -122 -3 -137
-5 -60 -4 101 -4 102 -28 102 -25 0 -25 0 -25 -100 l0 -100 -30 0 -30 0 0 105
0 105 55 0 55 0 0 55 c0 30 2 55 5 55 3 0 4 -73 3 -162z m102 112 c0 -49 -1
-50 -30 -50 -29 0 -30 1 -30 50 0 49 1 50 30 50 29 0 30 -1 30 -50z m-2 -162
l-3 -103 -27 -3 -28 -3 0 105 0 106 30 0 31 0 -3 -102z m72 -148 c0 -12 -226
-12 -310 0 -39 5 -2 8 128 9 115 0 182 -3 182 -9z"/>
<path d="M3642 2748 c-1 -65 1 -118 6 -118 4 0 6 37 4 82 -4 143 -9 157 -10
36z"/>
<path d="M1137 2760 c3 -11 12 -20 20 -20 8 0 12 -4 8 -9 -3 -5 -1 -12 5 -16
20 -12 9 21 -14 43 -23 21 -24 21 -19 2z"/>
<path d="M460 2646 c0 -14 31 -66 39 -66 5 0 12 7 15 16 8 22 8 24 -6 24 -6 0
-20 7 -30 17 -10 9 -18 13 -18 9z"/>
<path d="M4136 2592 c-3 -5 1 -15 9 -22 21 -17 27 -9 10 13 -7 10 -16 14 -19
9z"/>
<path d="M2582 2605 c0 -16 2 -22 5 -12 2 9 2 23 0 30 -3 6 -5 -1 -5 -18z"/>
<path d="M2793 2580 c0 -30 2 -43 4 -27 2 15 2 39 0 55 -2 15 -4 2 -4 -28z"/>
<path d="M2991 2578 l1 -53 9 44 c12 60 19 63 19 8 0 -26 5 -47 10 -47 6 0 10
23 10 50 0 47 -2 50 -25 50 -24 0 -25 -3 -24 -52z"/>
<path d="M227 2331 c-22 -37 -22 -65 1 -82 14 -11 15 -11 5 1 -18 19 -16 51 3
78 9 13 14 25 12 27 -2 3 -12 -9 -21 -24z"/>
<path d="M180 2226 c0 -8 4 -17 9 -20 5 -4 7 3 4 14 -6 23 -13 26 -13 6z"/>
<path d="M1510 2405 c0 -8 5 -15 11 -15 6 0 9 -7 5 -15 -3 -9 3 -24 14 -35 18
-18 20 -34 20 -205 0 -155 -2 -185 -15 -193 -10 -5 -13 -15 -9 -25 5 -15 27
-17 198 -17 l191 0 -3 215 c-2 148 0 215 7 215 6 0 11 10 11 23 0 13 9 26 21
32 53 25 18 30 -213 33 -207 2 -238 0 -238 -13z m333 -2 c-57 -2 -149 -2 -205
0 -57 1 -11 3 102 3 113 0 159 -2 103 -3z m77 -43 c0 -6 -68 -10 -185 -10
-117 0 -185 4 -185 10 0 6 68 10 185 10 117 0 185 -4 185 -10z m-22 -227 c-1
-168 -2 -184 -9 -108 -4 50 -7 134 -8 188 l-1 97 -145 0 -145 0 0 -182 c0
-122 -4 -178 -10 -168 -5 8 -10 95 -10 193 l0 177 165 0 165 0 -2 -197z m-178
157 c0 -5 -22 -10 -50 -10 l-50 0 -2 -157 -2 -158 -3 155 c-2 85 -1 160 1 167
6 15 106 18 106 3z m17 -243 c-1 -45 -3 -5 -3 88 0 94 2 130 3 82 2 -48 2
-125 0 -170z m103 233 c-8 -5 -27 -10 -42 -10 -17 0 -28 -6 -31 -17 -3 -11 -5
-7 -6 10 -1 26 1 27 47 27 34 0 43 -3 32 -10z m-121 -127 c-1 -43 -4 -89 -8
-103 -10 -37 -35 -32 -39 8 -3 25 -8 32 -25 33 l-22 2 21 4 c19 3 23 13 29 69
6 54 10 64 26 64 17 0 19 -7 18 -77z m131 19 c0 -57 0 -58 -30 -60 -28 -2 -30
0 -30 30 l0 33 21 -25 20 -25 -14 30 c-8 17 -18 40 -21 53 -7 19 -4 22 23 22
l31 0 0 -58z m6 -84 c4 -7 3 -8 -4 -4 -7 4 -13 -14 -18 -54 -5 -49 -10 -60
-23 -58 -11 2 -17 18 -21 55 -3 28 -2 49 2 47 5 -3 8 2 8 10 0 19 45 22 56 4z
m44 -168 c-38 -12 -350 -12 -350 0 0 6 69 10 188 9 109 -1 177 -4 162 -9z"/>
<path d="M2363 1934 c-3 -8 -3 -33 0 -54 3 -22 2 -38 -2 -35 -4 2 -8 -2 -8
-10 0 -11 14 -15 54 -15 l53 0 0 66 c0 81 -19 78 -22 -4 l-1 -57 -7 60 -7 60
-3 -60 -3 -60 -6 59 c-5 47 -10 60 -24 62 -10 1 -21 -4 -24 -12z"/>
<path d="M2647 1943 c-4 -3 -8 -29 -9 -57 l-1 -51 -7 55 -7 55 -3 -60 -3 -60
-7 60 -7 60 -1 -58 -2 -59 -35 5 c-19 3 -35 1 -35 -4 0 -5 29 -9 65 -9 l65 0
0 65 c0 65 -1 71 -13 58z"/>
<path d="M2488 1880 c-1 -33 0 -60 5 -60 4 0 7 27 7 60 0 77 -7 77 -12 0z"/>
<path d="M2513 1880 c0 -36 2 -50 4 -32 2 17 2 47 0 65 -2 17 -4 3 -4 -33z"/>
<path d="M2672 1883 l-2 -63 58 1 c31 1 49 3 40 6 -13 3 -18 18 -21 61 l-3 57
-2 -57 c-2 -56 -3 -57 -29 -55 -26 2 -28 6 -34 57 l-6 55 -1 -62z"/>
<path d="M4860 2195 c0 -9 6 -12 15 -9 8 4 15 10 15 15 0 5 -7 9 -15 9 -8 0
-15 -7 -15 -15z"/>
<path d="M4425 1810 c-3 -6 1 -7 9 -4 18 7 21 14 7 14 -6 0 -13 -4 -16 -10z"/>
<path d="M4555 1740 c-3 -5 -1 -10 4 -10 6 0 11 5 11 10 0 6 -2 10 -4 10 -3 0
-8 -4 -11 -10z"/>
<path d="M3115 1921 c-3 -5 -1 -12 5 -16 5 -3 10 1 10 9 0 18 -6 21 -15 7z"/>
<path d="M3140 1914 c0 -8 9 -14 20 -14 11 0 20 6 20 13 0 7 -9 13 -20 14 -11
1 -20 -4 -20 -13z"/>
<path d="M3218 1922 c-16 -2 -28 -7 -28 -11 0 -5 50 -8 110 -8 61 1 110 4 110
8 0 8 -147 16 -192 11z"/>
<path d="M3421 1887 c-1 -50 23 -46 26 4 1 26 0 28 -4 9 l-6 -25 -8 25 c-6 22
-7 20 -8 -13z"/>
<path d="M3458 1885 c-2 -19 0 -35 4 -35 4 0 8 16 8 35 0 19 -2 35 -4 35 -2 0
-6 -16 -8 -35z"/>
<path d="M3481 1883 l2 -38 7 35 7 35 5 -35 5 -35 1 38 c2 27 -2 37 -13 37
-11 0 -15 -10 -14 -37z"/>
<path d="M3112 1877 c-9 -11 -10 -17 -2 -22 15 -9 23 -1 18 21 -3 15 -4 16
-16 1z"/>
<path d="M3142 1870 c0 -14 2 -19 5 -12 2 6 2 18 0 25 -3 6 -5 1 -5 -13z"/>
<path d="M3160 1870 c0 -11 5 -20 10 -20 6 0 10 9 10 20 0 11 -4 20 -10 20 -5
0 -10 -9 -10 -20z"/>
<path d="M3402 1870 c0 -14 2 -19 5 -12 2 6 2 18 0 25 -3 6 -5 1 -5 -13z"/>
<path d="M3190 1867 c0 -7 9 -13 20 -14 11 -1 20 4 20 13 0 8 -9 14 -20 14
-11 0 -20 -6 -20 -13z"/>
<path d="M3240 1866 c0 -7 22 -12 55 -12 39 0 55 4 55 14 0 9 -15 12 -55 11
-32 -1 -55 -7 -55 -13z"/>
<path d="M3360 1865 c0 -8 7 -15 15 -15 8 0 15 7 15 15 0 8 -7 15 -15 15 -8 0
-15 -7 -15 -15z"/>
<path d="M935 1569 c-11 -16 -1 -19 13 -3 7 8 8 14 3 14 -5 0 -13 -5 -16 -11z"/>
<path d="M1560 1486 c0 -101 -3 -191 -6 -200 -5 -14 14 -16 180 -16 l186 0 0
200 0 200 -162 -2 -163 -3 -2 -189 c-2 -104 -5 -191 -8 -194 -3 -3 -5 83 -5
191 0 125 -4 197 -10 197 -6 0 -10 -68 -10 -184z m337 -98 c-1 -51 -3 -12 -3
87 0 99 2 141 3 93 2 -48 2 -129 0 -180z m-147 157 c0 -43 -4 -75 -10 -75 -6
0 -10 32 -10 75 0 43 4 75 10 75 6 0 10 -32 10 -75z m122 -10 c3 -74 3 -75
-22 -76 -23 -2 -24 -2 -2 -6 20 -4 22 -10 22 -74 l0 -69 -40 0 -40 0 0 75 c0
64 2 75 18 76 16 1 16 2 0 6 -15 4 -18 16 -18 74 l0 69 39 0 39 0 4 -75z
m-211 24 l6 -34 2 31 c1 25 6 33 26 36 25 5 25 4 25 -58 l0 -64 -45 0 -45 0 0
66 c0 48 3 65 13 62 6 -3 15 -20 18 -39z m88 -176 l-2 -78 -9 73 c-6 39 -13
72 -16 72 -24 -1 -35 -24 -39 -84 -6 -66 -6 -66 -36 -66 -30 0 -30 0 -23 46 3
26 6 62 6 80 l0 34 60 0 60 0 -1 -77z"/>
<path d="M2263 1320 c0 -30 2 -43 4 -27 2 15 2 39 0 55 -2 15 -4 2 -4 -28z"/>
<path d="M3296 1563 c-6 -14 -5 -15 5 -6 7 7 10 15 7 18 -3 3 -9 -2 -12 -12z"/>
<path d="M2988 1363 c7 -3 16 -2 19 1 4 3 -2 6 -13 5 -11 0 -14 -3 -6 -6z"/>
<path d="M3511 1024 c0 -11 3 -14 6 -6 3 7 2 16 -1 19 -3 4 -6 -2 -5 -13z"/>
<path d="M1690 1165 c0 -8 2 -15 4 -15 2 0 6 7 10 15 3 8 1 15 -4 15 -6 0 -10
-7 -10 -15z"/>
<path d="M2140 1152 c0 -14 6 -22 16 -22 14 0 15 3 3 18 -7 9 -15 19 -16 21
-2 2 -3 -5 -3 -17z"/>
<path d="M3935 1084 c-20 -15 -12 -17 19 -5 11 4 15 10 10 13 -5 4 -18 0 -29
-8z"/>
<path d="M3828 1073 c7 -3 16 -2 19 1 4 3 -2 6 -13 5 -11 0 -14 -3 -6 -6z"/>
<path d="M3954 1029 c-3 -6 -20 -19 -38 -30 -17 -10 -24 -19 -16 -19 8 0 20 4
25 8 16 11 49 52 42 52 -3 0 -9 -5 -13 -11z"/>
<path d="M3640 1101 c0 -6 4 -13 10 -16 6 -3 7 1 4 9 -7 18 -14 21 -14 7z"/>
<path d="M2880 1065 c0 -8 2 -15 4 -15 2 0 6 7 10 15 3 8 1 15 -4 15 -6 0 -10
-7 -10 -15z"/>
<path d="M3069 1083 c12 -18 24 -33 27 -33 9 0 -15 37 -33 51 -12 10 -11 5 6
-18z"/>
<path d="M2166 1033 c-6 -14 -5 -15 5 -6 7 7 10 15 7 18 -3 3 -9 -2 -12 -12z"/>
<path d="M2215 1020 c3 -5 8 -10 11 -10 2 0 4 5 4 10 0 6 -5 10 -11 10 -5 0
-7 -4 -4 -10z"/>
<path d="M2161 974 c5 -7 19 -10 30 -7 32 9 29 18 -6 18 -24 0 -31 -3 -24 -11z"/>
<path d="M2596 1074 c-11 -8 -16 -14 -10 -14 13 0 39 18 34 24 -3 2 -14 -2
-24 -10z"/>
<path d="M1332 1065 c-17 -37 -14 -45 4 -12 9 16 14 31 11 33 -2 2 -9 -7 -15
-21z"/>
<path d="M1557 1071 c-3 -12 -1 -21 3 -21 14 0 19 15 11 29 -6 9 -10 7 -14 -8z"/>
<path d="M1561 1028 c-1 -9 -9 -22 -18 -27 -10 -6 -13 -11 -7 -11 17 0 37 27
31 42 -4 8 -6 7 -6 -4z"/>
<path d="M3646 4179 c-15 -26 -16 -33 -5 -40 18 -12 26 -11 34 1 4 6 2 17 -4
24 -6 7 -9 21 -5 30 10 26 0 18 -20 -15z"/>
<path d="M1160 2223 c11 -14 20 -32 20 -39 0 -20 18 -17 29 5 12 21 -8 44 -46
54 l-23 5 20 -25z"/>
<path d="M700 2210 c0 -5 5 -10 11 -10 5 0 7 5 4 10 -3 6 -8 10 -11 10 -2 0
-4 -4 -4 -10z"/>
<path d="M903 2196 c-58 -30 -59 -33 -10 -32 32 1 44 5 43 16 -1 11 8 15 34
13 35 -1 35 -1 10 12 -31 17 -26 18 -77 -9z"/>
<path d="M1017 2213 c-15 -14 -6 -23 12 -13 22 11 51 4 51 -13 0 -8 3 -8 11 0
6 6 8 16 5 22 -8 12 -68 15 -79 4z"/>
<path d="M735 2162 c-6 -17 3 -34 15 -27 5 3 17 -6 26 -20 9 -14 22 -25 29
-25 7 0 15 -5 17 -12 3 -7 14 -5 33 8 28 18 28 19 7 22 -15 2 -22 10 -22 26 0
18 -8 24 -50 32 -40 8 -50 8 -55 -4z"/>
<path d="M617 2009 c7 -7 15 -10 18 -7 3 3 -2 9 -12 12 -14 6 -15 5 -6 -5z"/>
<path d="M5058 1803 c12 -2 32 -2 45 0 12 2 2 4 -23 4 -25 0 -35 -2 -22 -4z"/>
<path d="M335 1560 c-3 -5 -1 -10 4 -10 6 0 11 5 11 10 0 6 -2 10 -4 10 -3 0
-8 -4 -11 -10z"/>
<path d="M7 1553 c7 -2 19 -2 26 0 6 3 1 5 -13 5 -14 0 -19 -2 -13 -5z"/>
<path d="M228 1513 c7 -3 16 -2 19 1 4 3 -2 6 -13 5 -11 0 -14 -3 -6 -6z"/>
<path d="M404 1451 c18 -7 66 -3 66 5 0 2 -19 4 -42 3 -31 0 -37 -3 -24 -8z"/>
<path d="M2625 760 c-69 -5 -60 -7 68 -8 92 -1 147 2 147 8 0 11 -80 11 -215
0z"/>
<path d="M3674 495 c-116 -7 -222 -15 -235 -17 -60 -9 587 -19 822 -12 l264 8
-150 17 c-176 21 -401 22 -701 4z"/>
</g>
</svg>