<?xml version="1.0" standalone="no"?>
<!DOCTYPE svg PUBLIC "-//W3C//DTD SVG 20010904//EN"
 "http://www.w3.org/TR/2001/REC-SVG-20010904/DTD/svg10.dtd">
<svg version="1.0" xmlns="http://www.w3.org/2000/svg"
 width="512.000000pt" height="512.000000pt" viewBox="0 0 512.000000 512.000000"
 preserveAspectRatio="xMidYMid meet">
<metadata>
Created by potrace 1.16, written by Peter Selinger 2001-2019
</metadata>
<g transform="translate(0.000000,512.000000) scale(0.100000,-0.100000)"
fill="#000000" stroke="none">
<path d="M2140 4438 c-47 -13 -58 -24 -70 -68 -10 -38 -10 -38 -83 -50 -129
-21 -387 -81 -541 -125 -83 -24 -189 -53 -236 -65 -47 -12 -99 -30 -115 -40
-19 -10 -66 -19 -125 -24 -70 -5 -100 -12 -115 -25 -11 -10 -35 -23 -54 -30
-132 -44 -239 -177 -257 -318 -6 -50 -10 -56 -39 -68 -44 -19 -59 -40 -52 -75
4 -16 2 -32 -4 -36 -6 -3 -9 -20 -6 -37 2 -17 -2 -42 -9 -56 -16 -29 -18 -129
-5 -150 6 -10 5 -22 -5 -35 -15 -22 -19 -72 -6 -80 5 -3 7 -40 6 -83 -1 -43 3
-87 9 -98 6 -11 10 -29 8 -39 -4 -25 20 -108 35 -123 7 -8 10 -28 7 -52 -4
-30 -1 -43 16 -60 17 -17 20 -28 15 -64 -5 -32 -2 -46 10 -56 10 -9 14 -22 10
-38 -5 -17 0 -34 14 -52 14 -20 17 -32 10 -44 -12 -22 7 -84 31 -99 12 -7 16
-20 13 -45 -3 -25 2 -43 17 -63 11 -16 18 -36 15 -45 -8 -20 14 -73 34 -84 12
-7 16 -21 14 -48 -2 -27 3 -47 17 -65 12 -14 21 -34 21 -43 0 -19 18 -56 35
-70 6 -5 18 -29 25 -52 7 -23 24 -52 36 -64 13 -13 24 -30 24 -40 0 -31 12
-49 41 -65 22 -11 29 -22 29 -44 0 -20 12 -42 37 -69 31 -32 38 -48 39 -80 0
-23 -2 -41 -6 -41 -30 0 -77 -198 -51 -215 8 -4 8 -12 1 -25 -14 -26 -13 -67
3 -77 7 -4 17 -21 22 -38 14 -40 104 -102 161 -111 l44 -6 0 -97 c0 -88 2 -99
22 -118 22 -20 89 -45 156 -58 l34 -7 -23 -24 c-27 -29 -19 -50 27 -73 42 -21
395 -30 1229 -29 894 0 1299 9 1339 28 44 22 54 45 32 69 -11 12 -17 21 -15
22 91 15 189 43 209 57 l25 19 -1 234 c0 328 -35 545 -144 917 -225 761 -234
789 -300 891 -68 105 -139 140 -328 160 -167 18 -255 87 -283 219 -15 72 -7
193 14 226 9 13 50 50 91 81 104 78 162 160 202 288 15 49 21 57 43 57 46 0
106 -37 131 -83 37 -65 35 -169 -6 -262 -72 -163 -80 -283 -27 -359 69 -99
437 -218 678 -220 91 -1 105 2 158 27 74 37 147 110 183 183 34 70 35 138 4
321 -49 284 -170 574 -267 637 -48 31 -606 195 -809 238 l-102 21 -6 37 c-8
49 -31 68 -99 81 -51 10 -60 10 -77 -6 -10 -9 -22 -31 -25 -47 -6 -27 -10 -29
-38 -24 -149 26 -682 32 -864 10 -49 -6 -53 -5 -53 15 0 51 -53 71 -130 49z
m98 -49 c3 -25 0 -26 -69 -38 -39 -6 -73 -10 -74 -9 -2 2 -1 15 2 31 6 31 44
47 103 44 30 -2 35 -6 38 -28z m1128 10 c18 -6 42 -55 32 -64 -5 -5 -138 22
-145 29 -4 3 -1 17 5 30 10 22 16 24 49 19 21 -3 48 -9 59 -14z m-341 -49
c294 -26 569 -81 895 -179 107 -33 231 -69 275 -81 101 -28 145 -51 179 -91
95 -112 226 -540 226 -736 0 -53 0 -54 -27 -51 l-28 3 -7 110 c-3 61 -14 146
-23 189 -26 126 -95 305 -139 361 -10 12 -6 -2 8 -35 43 -101 66 -201 66 -293
0 -77 -3 -89 -24 -114 -24 -28 -26 -28 -133 -27 -66 1 -165 12 -253 28 -201
36 -215 40 -230 77 -28 66 6 193 77 287 42 55 8 35 -48 -29 l-53 -61 -25 51
c-46 91 -128 156 -219 176 -24 5 -32 11 -28 22 24 62 12 118 -35 158 -36 30
-102 34 -138 9 -29 -20 -51 -72 -51 -118 0 -34 -2 -35 -47 -43 -61 -10 -1009
-11 -1045 0 -23 6 -28 13 -28 41 0 81 -41 126 -114 126 -41 0 -91 -38 -101
-77 -4 -19 0 -34 14 -54 12 -16 21 -32 21 -37 0 -6 -30 -15 -66 -22 -86 -17
-150 -59 -186 -125 -15 -27 -28 -59 -28 -69 0 -14 -15 -3 -56 42 -30 34 -70
72 -87 84 -26 18 -23 12 16 -30 53 -58 94 -140 104 -207 6 -49 41 -32 -277
-137 -173 -57 -228 -71 -282 -72 -58 -1 -71 2 -90 22 -22 21 -23 30 -22 155 1
127 18 213 70 370 4 11 1 17 -9 17 -59 0 -133 -249 -157 -524 -6 -66 -12 -121
-13 -123 -2 -1 -18 -6 -37 -9 l-33 -7 6 69 c19 221 132 551 220 642 34 36 37
37 347 121 361 99 698 163 1030 194 84 9 476 6 585 -3z m424 -245 c38 -19 53
-62 39 -112 -9 -32 -12 -35 -18 -18 l-7 20 -6 -20 c-4 -11 -11 -51 -17 -88
-28 -181 -109 -305 -255 -389 -136 -79 -180 -140 -179 -253 0 -39 7 -85 15
-104 l15 -34 0 74 c1 68 17 139 30 127 2 -3 7 -36 10 -74 12 -162 48 -221 194
-320 56 -38 110 -75 120 -82 18 -13 19 -12 10 19 -6 19 -10 40 -10 46 0 20 99
16 175 -8 124 -38 195 -132 264 -345 45 -143 45 -155 1 -74 -41 73 -139 205
-147 197 -2 -2 17 -39 42 -81 83 -140 151 -292 143 -317 -5 -15 -115 68 -166
126 -24 27 -74 99 -112 160 -91 145 -112 170 -56 64 100 -188 243 -560 290
-750 59 -241 64 -384 16 -478 -12 -24 -19 -45 -16 -48 10 -10 64 57 77 94 32
97 -57 509 -170 791 -12 30 -19 57 -16 62 3 5 -1 11 -7 13 -8 4 -9 6 -2 6 13
1 41 -29 35 -38 -2 -3 23 -21 55 -39 75 -41 116 -87 165 -185 52 -101 84 -219
109 -397 48 -337 39 -386 -89 -472 -25 -17 -52 -38 -58 -46 -10 -12 -13 -73
-13 -227 l0 -212 -67 -6 c-126 -12 -2362 -6 -2432 7 l-63 11 1 211 c2 229 3
226 -56 243 l-28 8 3 -213 c1 -118 0 -214 -3 -214 -3 0 -19 7 -34 15 -37 19
-41 40 -43 254 -1 97 -3 155 -5 129 -5 -55 -18 -60 -60 -24 -25 22 -28 30 -26
84 1 49 6 64 27 85 18 18 26 37 26 61 0 38 10 49 34 40 11 -4 16 -19 17 -48 0
-28 6 -8 19 64 25 142 123 509 191 716 l29 90 50 -10 c63 -13 77 -1 130 111
30 61 38 90 34 112 -8 37 31 107 110 202 72 86 170 160 331 249 77 42 145 87
166 110 46 50 71 129 78 250 l6 95 23 -35 c16 -25 22 -50 22 -90 0 -63 12 -54
30 22 25 101 -32 198 -156 268 -79 45 -154 122 -186 190 -35 74 -59 189 -61
292 -2 63 -5 84 -14 81 -20 -8 -15 12 6 31 12 11 36 18 58 18 47 0 83 -37 82
-85 l-1 -32 -11 35 c-18 60 -20 8 -2 -100 23 -147 47 -204 114 -271 86 -87
138 -101 412 -107 262 -5 366 6 462 50 119 55 173 138 196 303 22 155 22 157
11 150 -22 -13 -9 18 19 46 33 32 58 36 100 14z m-2444 -85 c-13 -15 -31 -20
-66 -20 -35 0 -51 -5 -58 -17 -9 -15 -10 -13 -11 14 0 38 7 41 89 42 63 1 64
1 46 -19z m-146 -58 c-2 -30 -3 -32 -6 -9 -5 33 -16 34 -80 2 -99 -50 -178
-167 -190 -280 -3 -30 -10 -55 -16 -55 -6 0 -8 23 -4 59 11 128 113 266 230
309 28 11 55 18 60 15 4 -2 6 -21 6 -41z m-5 -67 c3 -9 19 -15 41 -15 42 0 43
-6 10 -93 -37 -100 -82 -290 -94 -399 -17 -154 -14 -225 11 -277 28 -58 150
-182 207 -211 85 -43 134 -31 494 119 351 146 391 183 373 344 -4 34 -9 76
-10 92 -2 17 -15 55 -30 85 -45 96 -25 207 46 250 57 35 72 28 92 -41 34 -123
95 -210 203 -291 29 -21 59 -51 67 -66 34 -66 27 -232 -13 -311 -22 -42 -73
-92 -117 -114 -17 -9 -72 -23 -122 -32 -111 -19 -160 -36 -215 -73 -62 -43
-187 -178 -229 -247 -77 -128 -155 -361 -270 -805 -33 -129 -61 -236 -62 -237
0 0 -18 -4 -38 -8 -35 -7 -38 -6 -52 30 -9 20 -25 48 -36 63 -43 56 -110 165
-110 179 0 19 -25 67 -44 82 -8 7 -12 19 -9 27 3 9 -4 28 -16 44 -11 16 -21
37 -21 47 0 17 -40 103 -58 127 -5 6 -10 26 -10 45 0 18 -7 40 -15 50 -8 9
-18 35 -22 58 -3 22 -13 49 -20 60 -8 10 -15 35 -15 56 0 22 -7 44 -17 55 -11
10 -17 28 -15 45 2 16 -4 39 -12 52 -9 13 -13 31 -10 39 3 8 -1 29 -9 45 -8
16 -12 40 -10 54 3 14 -2 40 -10 58 -9 19 -18 49 -21 67 -15 80 -19 98 -27
108 -5 6 -6 25 -3 41 3 17 1 41 -6 53 -25 47 -26 378 -1 403 6 6 11 24 11 40
0 16 7 35 15 43 21 21 19 40 -6 65 -27 27 -20 79 22 167 32 65 76 109 131 129
44 15 45 15 52 -2z m1526 -45 c172 -15 525 -12 709 6 90 8 165 13 168 10 7 -7
-23 -59 -49 -82 -71 -65 -231 -94 -518 -94 -294 1 -423 39 -476 141 -19 38
-19 38 19 33 17 -2 84 -9 147 -14z m240 -197 c108 -3 228 -1 313 6 76 7 142
10 145 6 9 -9 -44 -52 -88 -73 -28 -13 -77 -17 -251 -20 -240 -4 -280 2 -334
49 -46 40 -45 53 3 45 20 -4 116 -9 212 -13z m-2052 -94 c38 -15 24 -21 -30
-14 -61 8 -71 13 -62 26 6 10 48 5 92 -12z m1182 -45 c17 -31 30 -57 28 -58
-8 -7 -214 -92 -364 -151 -93 -36 -207 -83 -254 -105 -115 -52 -205 -80 -256
-80 -56 0 -65 15 -10 16 33 1 170 38 185 50 1 1 -6 13 -18 25 -11 12 -28 44
-37 71 -14 43 -19 48 -37 42 -32 -9 -87 -32 -87 -36 0 -2 7 -28 15 -58 21 -77
20 -80 -20 -80 -43 0 -55 20 -55 94 0 52 2 56 28 62 31 7 301 92 612 193 118
38 220 70 227 70 6 1 25 -24 43 -55z m-1210 -9 c27 -10 31 -14 19 -19 -21 -9
-81 6 -87 22 -5 15 23 14 68 -3z m3295 -49 c106 -26 257 -52 494 -85 80 -11
148 -24 153 -29 11 -11 0 -86 -16 -106 -9 -13 -26 -11 -126 15 -157 41 -387
120 -521 179 -106 47 -148 70 -104 56 11 -3 65 -17 120 -30z m-3289 -27 c10
-16 -15 -29 -58 -29 -41 0 -41 0 -32 24 7 19 79 23 90 5z m3341 -98 c335 -103
566 -161 640 -161 22 0 25 -2 13 -10 -8 -5 -43 -10 -77 -10 -35 0 -63 -4 -63
-9 0 -23 -103 -121 -137 -130 -74 -21 -455 70 -511 122 -30 28 -43 80 -35 147
6 58 18 90 33 90 5 0 66 -18 137 -39z m-2228 -90 c17 -40 31 -75 31 -77 0 -10
-83 -45 -90 -37 -4 4 -19 43 -33 86 l-26 77 37 19 c20 11 40 16 43 13 4 -4 21
-40 38 -81z m-1160 48 c17 -6 31 -15 31 -20 0 -13 -15 -11 -55 5 -58 24 -38
36 24 15z m-22 -35 c-3 -3 -12 -4 -19 -1 -8 3 -5 6 6 6 11 1 17 -2 13 -5z m53
-58 c8 -1 -3 -8 -24 -14 -27 -8 -45 -8 -58 -1 -39 21 4 29 82 15z m825 -95
c17 -37 25 -65 19 -70 -20 -18 -167 -72 -174 -64 -10 10 -70 127 -67 130 7 6
183 70 187 68 3 -2 19 -31 35 -64z m-837 -8 c36 -6 51 -21 31 -33 -18 -11 -70
-1 -91 18 -25 21 -22 36 5 27 12 -4 37 -9 55 -12z m-50 -52 c3 -8 -1 -12 -9
-9 -7 2 -15 10 -17 17 -3 8 1 12 9 9 7 -2 15 -10 17 -17z m91 -107 c-23 -22
-99 -32 -99 -12 0 23 10 28 64 28 46 0 49 -1 35 -16z m1388 -85 c21 -15 20
-17 -68 -79 -50 -35 -109 -84 -131 -109 -42 -47 -145 -201 -200 -297 -17 -30
-32 -53 -34 -51 -8 8 68 254 94 301 31 58 148 186 200 218 44 27 105 48 112
39 3 -4 15 -14 27 -22z m-1349 -4 c-11 -12 -111 -10 -115 2 -3 8 13 13 49 15
49 3 79 -5 66 -17z m4 -67 c-13 -13 -85 -37 -94 -31 -16 9 -7 33 15 38 65 14
97 11 79 -7z m-42 -108 c-19 -13 -30 -13 -30 0 0 6 10 10 23 10 18 0 19 -2 7
-10z m70 -8 c0 -10 -65 -42 -85 -42 -24 0 -17 18 13 34 29 16 72 21 72 8z m30
-87 c0 -9 -59 -35 -79 -35 -30 0 -15 28 17 33 44 7 62 7 62 2z m20 -120 c0
-17 -71 -41 -96 -31 -23 9 -11 19 39 33 57 15 57 15 57 -2z m40 -104 c0 -12
-48 -46 -79 -56 -37 -11 -21 16 25 42 43 25 54 28 54 14z m2978 -26 c-3 -3 -9
2 -12 12 -6 14 -5 15 5 6 7 -7 10 -15 7 -18z m-2948 -77 c0 -14 -59 -58 -78
-58 -28 0 -8 33 31 50 50 23 47 23 47 8z m50 -136 c0 -15 -45 -50 -72 -57 -43
-11 -36 20 10 44 40 22 62 26 62 13z m40 -120 c0 -10 -73 -52 -89 -52 -24 0
-9 32 22 45 36 16 67 19 67 7z m30 -102 c0 -12 -33 -30 -54 -30 -25 0 -19 15
12 27 36 14 42 15 42 3z m17 -75 c-24 -22 -67 -34 -67 -20 0 6 72 44 85 44 6
0 -3 -11 -18 -24z m63 -44 c0 -11 -62 -51 -79 -51 -22 0 -11 20 22 40 34 21
57 26 57 11z m30 -80 c-10 -20 -47 -37 -57 -27 -8 7 38 45 55 46 9 0 10 -5 2
-19z m31 -92 c-24 -20 -41 -24 -41 -11 0 10 53 42 60 35 3 -2 -6 -13 -19 -24z
m34 -129 c-3 -5 -15 -10 -26 -10 -10 0 -19 5 -19 10 0 6 12 10 26 10 14 0 23
-4 19 -10z m-40 -60 c-10 -11 -20 -18 -23 -15 -7 6 18 35 31 35 5 0 2 -9 -8
-20z m0 -72 c37 -17 31 -30 -12 -26 -27 2 -39 8 -41 21 -4 20 16 22 53 5z
m-37 -69 c-11 -17 -10 -22 7 -36 18 -14 18 -15 2 -9 -10 3 -23 6 -28 6 -10 0
-12 43 -2 53 3 4 12 7 20 7 11 0 11 -4 1 -21z m22 -89 c-40 -22 -50 -24 -50
-10 0 13 37 29 65 29 15 0 11 -5 -15 -19z m3154 -218 c4 -108 3 -180 -4 -191
-5 -11 -30 -26 -55 -34 l-45 -16 0 143 c0 79 -3 164 -6 189 l-7 46 49 30 c35
23 50 28 55 19 3 -7 9 -91 13 -186z m-3149 178 c-3 -5 -12 -10 -18 -10 -7 0
-6 4 3 10 19 12 23 12 15 0z m63 -56 c-7 -15 -14 -21 -16 -15 -2 7 2 18 8 26
18 22 21 18 8 -11z"/>
<path d="M2455 2995 c-75 -13 -167 -49 -186 -71 -17 -21 21 -18 169 12 158 33
315 31 422 -5 142 -49 311 -173 379 -280 18 -27 46 -86 63 -132 53 -142 42
-320 -24 -404 l-20 -26 -137 6 c-151 7 -181 11 -181 25 0 5 20 41 45 80 45 68
47 70 88 70 23 0 47 4 53 8 13 8 -39 202 -70 262 -49 94 -170 199 -261 225
-28 8 -101 16 -165 17 -143 3 -180 -11 -180 -69 l0 -36 43 9 c23 5 87 9 142 8
90 -1 107 -4 167 -32 133 -61 212 -175 212 -307 1 -81 -24 -136 -100 -223 -88
-101 -257 -157 -398 -134 -237 41 -393 235 -347 432 5 24 8 46 6 48 -1 2 -38
-9 -82 -24 -103 -37 -143 -75 -143 -136 0 -62 24 -82 86 -75 32 3 54 13 75 33
26 25 29 26 29 8 0 -10 7 -32 15 -48 8 -15 15 -29 15 -30 0 -1 -16 0 -35 2
-25 3 -47 -3 -79 -22 -92 -54 -102 -117 -26 -169 55 -38 108 -16 150 63 17 31
19 32 20 12 0 -13 -15 -49 -34 -80 -50 -83 -53 -107 -18 -142 31 -30 93 -53
120 -43 47 17 91 98 78 141 -12 36 -74 52 -121 30 -51 -23 -45 -84 13 -124 37
-26 34 -26 -45 -3 -38 11 -43 16 -43 42 0 44 29 84 73 102 94 38 179 -36 136
-118 -11 -21 -11 -21 7 -6 10 10 40 24 65 32 61 21 115 9 150 -33 l26 -31 16
24 c23 35 81 59 133 55 37 -3 44 0 44 15 0 25 51 74 84 83 48 12 109 -29 152
-102 11 -18 13 -18 43 10 17 16 34 26 38 22 13 -13 -93 -103 -170 -146 -115
-64 -215 -92 -327 -93 -52 0 -115 3 -140 7 -33 4 -40 3 -25 -4 34 -16 -52 0
-135 26 -193 61 -348 209 -402 387 -24 81 -21 144 16 290 53 207 141 314 345
417 49 24 62 28 57 15 -3 -9 -6 -24 -6 -33 0 -13 -2 -14 -9 -3 -20 31 -147
-67 -139 -107 5 -26 54 -45 85 -35 39 13 41 33 4 33 -42 0 -42 29 0 64 36 31
49 33 49 7 0 -52 23 -62 82 -37 18 8 48 20 67 27 22 8 38 23 47 44 33 80 -37
117 -141 74 -16 -7 -34 -11 -38 -10 -5 1 -27 -4 -50 -10 -72 -19 -187 -98
-288 -199 -84 -83 -99 -105 -129 -175 -29 -69 -34 -94 -38 -189 -9 -196 38
-316 178 -457 139 -140 310 -214 521 -226 229 -13 415 44 597 183 40 30 72 50
72 45 0 -5 -28 -34 -61 -65 -213 -193 -583 -250 -876 -136 -183 70 -333 201
-409 355 -52 105 -64 162 -64 294 0 82 8 134 36 246 2 11 -9 -6 -26 -37 -36
-69 -60 -155 -60 -219 0 -107 62 -278 138 -378 22 -29 38 -59 36 -66 -3 -6
-19 -22 -35 -34 l-31 -23 -30 29 -31 28 19 -34 c47 -83 189 -203 319 -268 271
-137 652 -136 930 1 313 154 472 414 435 713 -33 265 -166 484 -371 609 -81
49 -85 38 -6 -13 80 -53 198 -177 232 -242 37 -73 31 -73 -16 0 -71 110 -168
204 -267 261 -28 16 -50 33 -48 37 3 4 -3 7 -12 8 -9 0 -44 12 -78 27 -121 51
-319 69 -469 41z m-1 -129 c-3 -11 -19 -34 -34 -50 -25 -25 -31 -28 -45 -16
-26 22 -15 63 24 82 41 20 64 14 55 -16z m154 -112 c29 -9 8 -24 -33 -24 -31
0 -45 4 -45 13 0 27 19 29 78 11z m230 -33 c23 -14 10 -46 -21 -49 -31 -4 -46
20 -27 43 14 17 29 19 48 6z m-876 -138 c-19 -39 -45 -133 -57 -213 -9 -55
-24 -87 -24 -50 -1 90 32 213 75 278 23 35 26 26 6 -15z m102 -235 c3 -7 7
-27 10 -45 5 -32 5 -32 -27 -26 -43 8 -43 8 -24 48 17 36 35 45 41 23z m84
-255 c2 -12 -1 -29 -5 -38 -7 -12 -14 -7 -32 26 l-23 41 28 -4 c21 -2 30 -9
32 -25z m-128 -8 c0 -8 19 -29 43 -46 32 -24 36 -30 17 -24 -39 10 -75 40 -78
64 -2 11 1 21 7 21 6 0 11 -7 11 -15z m1226 -106 c12 -23 11 -29 -2 -40 -17
-14 -20 -11 -57 45 -20 30 -24 43 -15 53 9 11 15 10 35 -9 14 -13 31 -35 39
-49z m-58 -42 l33 -47 25 28 26 27 -22 -32 c-12 -18 -25 -33 -30 -33 -4 0 -27
23 -50 50 -30 35 -40 55 -35 68 6 15 8 15 14 2 3 -9 21 -37 39 -63z"/>
<path d="M2601 2942 c-13 -4 -33 -19 -44 -34 -17 -23 -18 -29 -6 -54 12 -25
22 -30 72 -38 83 -13 108 -2 126 57 9 29 11 51 5 57 -12 12 -123 21 -153 12z
m117 -31 c4 -11 0 -12 -14 -6 -11 4 -34 10 -52 13 -29 4 -33 1 -43 -27 -6 -18
-16 -30 -22 -28 -20 6 -18 26 3 47 17 17 31 20 72 18 33 -2 53 -8 56 -17z"/>
<path d="M2793 2895 c-49 -34 -33 -84 38 -121 85 -43 148 -31 149 29 0 21 5
21 41 0 55 -32 46 -83 -15 -83 -27 -1 -28 -2 -13 -11 24 -14 84 -3 96 18 15
28 -9 62 -64 88 -28 13 -58 32 -66 41 -18 23 -87 54 -119 54 -14 0 -35 -7 -47
-15z m62 -40 c30 -30 32 -55 5 -55 -28 0 -71 44 -64 64 9 23 31 20 59 -9z"/>
<path d="M2353 2698 c-30 -14 -39 -46 -20 -65 18 -18 50 -12 85 15 21 16 21
19 7 40 -17 24 -37 27 -72 10z"/>
<path d="M3067 2682 c-25 -28 -21 -63 14 -105 25 -31 37 -37 68 -37 78 0 108
75 52 131 -24 23 -38 29 -74 29 -30 0 -49 -6 -60 -18z m93 -93 c0 -16 -18 -10
-34 13 -26 37 -19 57 9 25 14 -15 25 -32 25 -38z"/>
<path d="M2100 2669 c-97 -39 -91 -149 9 -149 91 0 146 91 85 139 -29 23 -55
25 -94 10z m15 -37 c-11 -9 -30 -28 -42 -42 -13 -13 -23 -19 -23 -11 0 17 55
71 72 71 8 0 6 -7 -7 -18z"/>
<path d="M2494 2630 c-112 -45 -176 -133 -182 -255 -3 -62 0 -76 25 -125 51
-96 144 -148 249 -137 132 14 275 142 273 246 -1 74 -17 97 -18 27 -2 -114
-65 -192 -181 -222 -34 -8 -64 -13 -67 -10 -3 2 14 10 37 16 42 11 124 59 116
67 -2 3 -19 -4 -38 -13 -48 -27 -151 -25 -204 3 -52 28 -100 82 -115 131 -26
88 45 195 152 227 65 19 93 19 153 1 61 -18 106 -53 145 -112 38 -58 43 -132
12 -192 -25 -49 -95 -114 -163 -149 -46 -25 -63 -28 -138 -27 -71 0 -94 5
-142 28 -31 15 -74 45 -95 67 -21 22 -53 56 -72 76 -30 31 -32 37 -19 47 9 7
17 33 20 67 5 60 35 128 74 170 l25 26 -21 24 -20 24 -35 -39 c-51 -58 -78
-135 -78 -229 0 -66 5 -86 32 -141 56 -114 167 -184 309 -193 343 -24 546 277
339 503 -67 74 -138 106 -242 111 -62 2 -91 -1 -131 -17z m25 -456 c14 -12
-19 -1 -35 12 -18 14 -18 14 6 3 14 -6 27 -13 29 -15z"/>
<path d="M3170 2507 c-44 -15 -59 -51 -40 -97 37 -89 170 -92 170 -4 0 50 -24
90 -61 103 -18 6 -32 11 -33 10 -1 0 -17 -5 -36 -12z m53 -95 c18 -31 18 -32
0 -25 -30 10 -43 24 -43 45 0 28 21 18 43 -20z"/>
<path d="M1470 2048 c-53 -87 -115 -317 -151 -563 -30 -207 -28 -224 43 -275
40 -29 41 -29 69 -13 16 10 29 20 29 23 -1 3 -15 14 -33 25 -65 41 -82 127
-41 207 l17 32 23 -47 c13 -25 33 -51 44 -57 18 -10 18 -7 -4 35 -14 25 -28
70 -31 100 -10 73 8 237 45 415 35 169 32 150 20 150 -6 0 -19 -15 -30 -32z"/>
<path d="M2849 1992 c-38 -33 -36 -61 8 -112 23 -28 31 -31 61 -26 79 12 106
83 53 137 -39 38 -80 39 -122 1z m81 -69 c0 -12 -33 -43 -47 -43 -19 0 -16 9
10 31 23 19 37 24 37 12z"/>
<path d="M3936 1910 c-8 -41 46 -406 62 -422 41 -41 4 343 -42 430 l-14 27 -6
-35z"/>
<path d="M2694 1916 c-50 -22 -60 -78 -21 -120 32 -36 77 -42 111 -15 36 29
47 59 35 102 -7 28 -16 36 -40 41 -42 8 -49 7 -85 -8z m66 -111 c-14 -16 -66
-20 -74 -6 -4 5 13 16 36 24 44 14 59 7 38 -18z"/>
<path d="M2450 1913 c-42 -15 -54 -84 -21 -124 15 -19 29 -24 66 -24 37 0 51
5 66 24 38 47 20 104 -39 121 -40 11 -49 11 -72 3z m50 -113 c12 -8 9 -10 -12
-10 -16 0 -28 5 -28 10 0 13 20 13 40 0z"/>
<path d="M3706 1451 c-39 -43 -59 -44 -946 -48 -830 -4 -1034 1 -1092 28 -17
7 -35 8 -53 2 -25 -8 -17 -12 76 -41 130 -41 198 -49 484 -59 205 -7 220 -8
135 -14 -52 -4 -214 -8 -360 -9 -309 -3 -291 -14 50 -29 453 -21 1545 -9 1636
19 18 5 -70 9 -246 10 -151 2 -338 6 -415 9 l-140 8 135 2 c234 3 557 20 622
31 35 7 84 21 111 32 40 18 47 24 41 42 -10 34 -19 38 -38 17z"/>
<path d="M1193 1235 c0 -27 2 -38 4 -22 2 15 2 37 0 50 -2 12 -4 0 -4 -28z"/>
</g>
</svg>