<?xml version="1.0" standalone="no"?>
<!DOCTYPE svg PUBLIC "-//W3C//DTD SVG 20010904//EN"
 "http://www.w3.org/TR/2001/REC-SVG-20010904/DTD/svg10.dtd">
<svg version="1.0" xmlns="http://www.w3.org/2000/svg"
 width="512.000000pt" height="512.000000pt" viewBox="0 0 512.000000 512.000000"
 preserveAspectRatio="xMidYMid meet">
<metadata>
Created by potrace 1.16, written by Peter Selinger 2001-2019
</metadata>
<g transform="translate(0.000000,512.000000) scale(0.100000,-0.100000)"
fill="#000000" stroke="none">
<path d="M3781 5113 c-1 -6 -4 -20 -7 -30 -5 -17 -5 -17 6 0 6 10 9 23 6 30
-3 9 -5 9 -5 0z"/>
<path d="M3923 5103 c-4 -10 -42 -97 -86 -193 -124 -274 -158 -352 -154 -356
2 -2 22 38 45 89 22 50 71 157 107 237 75 162 107 240 100 240 -3 0 -9 -8 -12
-17z"/>
<path d="M187 5003 c50 -48 174 -166 275 -262 l183 -173 -195 192 c-107 106
-231 224 -275 262 l-80 70 92 -89z"/>
<path d="M3741 4993 c-52 -146 -163 -419 -270 -662 -23 -51 -40 -95 -38 -97
13 -14 343 792 335 817 -2 5 -14 -21 -27 -58z"/>
<path d="M917 5010 c37 -51 284 -350 296 -357 14 -9 -218 278 -273 337 -23 25
-33 34 -23 20z"/>
<path d="M3581 4852 c-66 -192 -66 -192 -53 -172 14 22 113 312 110 321 -2 5
-27 -63 -57 -149z"/>
<path d="M30 4978 c0 -9 326 -300 790 -706 253 -222 280 -245 280 -239 0 5
-74 71 -530 472 -124 109 -286 253 -360 319 -74 66 -145 129 -157 140 -13 11
-23 17 -23 14z"/>
<path d="M4226 4913 c-6 -14 -5 -15 5 -6 7 7 10 15 7 18 -3 3 -9 -2 -12 -12z"/>
<path d="M4129 4748 c-45 -79 -107 -183 -137 -233 -30 -49 -56 -93 -59 -97 -2
-5 -2 -8 0 -8 6 0 94 143 194 315 82 140 95 165 89 165 -2 0 -42 -64 -87 -142z"/>
<path d="M3453 4503 c-34 -87 -61 -159 -59 -161 2 -2 32 67 66 153 34 86 60
158 58 160 -2 2 -32 -66 -65 -152z"/>
<path d="M4479 4473 c-180 -199 -268 -299 -328 -373 -77 -93 -13 -25 204 220
105 118 205 232 224 252 18 21 31 38 28 38 -2 0 -60 -62 -128 -137z"/>
<path d="M30 4466 c0 -3 89 -60 198 -127 108 -68 333 -212 500 -321 166 -108
300 -193 297 -189 -21 36 -995 658 -995 637z"/>
<path d="M4365 4248 c-77 -84 -229 -245 -340 -358 -168 -173 -176 -181 -46
-55 84 83 225 229 314 325 88 96 174 190 191 208 16 17 28 32 25 32 -3 0 -68
-69 -144 -152z"/>
<path d="M3376 4315 c-9 -26 -7 -32 5 -12 6 10 9 21 6 23 -2 3 -7 -2 -11 -11z"/>
<path d="M3356 4265 c-9 -26 -7 -32 5 -12 6 10 9 21 6 23 -2 3 -7 -2 -11 -11z"/>
<path d="M3406 4185 c-9 -26 -7 -32 5 -12 6 10 9 21 6 23 -2 3 -7 -2 -11 -11z"/>
<path d="M1249 4086 c35 -20 74 -44 85 -54 12 -11 61 -49 109 -85 l88 -66 92
6 c106 7 171 -7 401 -84 140 -47 168 -65 218 -134 10 -13 6 -2 -9 25 -31 58
-74 80 -276 144 -211 68 -307 81 -398 56 -10 -3 -66 32 -140 87 -134 100 -170
123 -209 134 -14 3 4 -10 39 -29z"/>
<path d="M390 4105 c0 -10 538 -364 725 -476 234 -142 285 -171 285 -165 0 2
-69 46 -152 97 -257 156 -494 306 -680 431 -98 65 -178 116 -178 113z"/>
<path d="M1210 3997 c0 -5 230 -190 260 -210 8 -5 -3 6 -25 26 -49 45 -235
190 -235 184z"/>
<path d="M4995 3925 c-25 -12 -26 -14 -5 -9 28 7 60 23 45 23 -5 0 -23 -6 -40
-14z"/>
<path d="M1090 3907 c0 -3 35 -26 78 -53 42 -26 115 -73 162 -104 101 -67 110
-73 110 -67 0 5 -241 163 -312 206 -21 13 -38 20 -38 18z"/>
<path d="M5060 3900 c-8 -5 -10 -10 -5 -10 6 0 17 5 25 10 8 5 11 10 5 10 -5
0 -17 -5 -25 -10z"/>
<path d="M4025 3822 c-44 -42 -108 -103 -142 -134 -60 -55 -61 -57 -30 -51 36
7 48 13 25 13 -8 0 42 56 111 125 69 69 124 125 121 125 -3 0 -41 -35 -85 -78z"/>
<path d="M4657 3808 c-141 -50 -255 -93 -253 -95 4 -4 517 174 525 183 11 10
-29 -2 -272 -88z"/>
<path d="M4998 3873 c7 -3 16 -2 19 1 4 3 -2 6 -13 5 -11 0 -14 -3 -6 -6z"/>
<path d="M4900 3840 c-8 -5 -10 -10 -5 -10 6 0 17 5 25 10 8 5 11 10 5 10 -5
0 -17 -5 -25 -10z"/>
<path d="M925 3832 c6 -5 69 -48 140 -94 159 -103 155 -100 155 -94 0 3 -57
43 -127 89 -126 83 -188 119 -168 99z"/>
<path d="M4820 3810 c-8 -5 -10 -10 -5 -10 6 0 17 5 25 10 8 5 11 10 5 10 -5
0 -17 -5 -25 -10z"/>
<path d="M4770 3790 c-8 -5 -10 -10 -5 -10 6 0 17 5 25 10 8 5 11 10 5 10 -5
0 -17 -5 -25 -10z"/>
<path d="M4890 3729 c-113 -39 -272 -90 -355 -114 -82 -24 -144 -44 -137 -44
33 -2 656 193 702 220 31 18 -11 5 -210 -62z"/>
<path d="M1130 3766 c0 -1 28 -27 63 -56 l62 -53 -55 56 c-47 49 -70 67 -70
53z"/>
<path d="M4285 3760 c-13 -5 -14 -9 -5 -9 8 0 24 4 35 9 13 5 14 9 5 9 -8 0
-24 -4 -35 -9z"/>
<path d="M1210 3756 c0 -2 80 -61 178 -131 97 -69 161 -112 142 -95 -19 17
-78 61 -130 97 -52 37 -116 82 -142 100 -27 19 -48 32 -48 29z"/>
<path d="M4660 3750 c-8 -5 -10 -10 -5 -10 6 0 17 5 25 10 8 5 11 10 5 10 -5
0 -17 -5 -25 -10z"/>
<path d="M4140 3719 c-108 -33 -128 -41 -85 -34 41 7 214 63 195 63 -8 0 -58
-13 -110 -29z"/>
<path d="M4281 3714 c-76 -34 -141 -52 -310 -84 -80 -16 -136 -29 -124 -29 12
-1 90 13 174 29 136 27 289 76 314 101 13 13 7 11 -54 -17z"/>
<path d="M4565 3720 c-13 -5 -14 -9 -5 -9 8 0 24 4 35 9 13 5 14 9 5 9 -8 0
-24 -4 -35 -9z"/>
<path d="M4 3682 c3 -5 16 -12 28 -14 13 -3 171 -47 351 -98 181 -50 331 -90
333 -87 3 2 -150 48 -338 101 -189 53 -351 100 -362 103 -11 3 -16 1 -12 -5z"/>
<path d="M4311 3686 c2 -2 31 -6 64 -9 36 -3 52 -2 40 3 -19 8 -113 14 -104 6z"/>
<path d="M4448 3683 c6 -2 18 -2 25 0 6 3 1 5 -13 5 -14 0 -19 -2 -12 -5z"/>
<path d="M3806 3662 c-11 -13 -65 -29 -171 -52 -85 -19 -153 -36 -150 -38 2
-2 71 10 154 28 119 26 154 37 172 56 12 13 20 24 17 24 -3 0 -12 -8 -22 -18z"/>
<path d="M3965 3670 c-25 -11 1 -11 35 0 20 6 21 8 5 8 -11 0 -29 -3 -40 -8z"/>
<path d="M4348 3663 c7 -3 16 -2 19 1 4 3 -2 6 -13 5 -11 0 -14 -3 -6 -6z"/>
<path d="M3908 3653 c6 -2 18 -2 25 0 6 3 1 5 -13 5 -14 0 -19 -2 -12 -5z"/>
<path d="M2280 3640 c8 -5 22 -9 30 -9 10 0 8 3 -5 9 -27 12 -43 12 -25 0z"/>
<path d="M4430 3640 c-8 -5 -10 -10 -5 -10 6 0 17 5 25 10 8 5 11 10 5 10 -5
0 -17 -5 -25 -10z"/>
<path d="M1707 3624 c-39 -21 -28 -28 12 -8 23 12 45 14 77 9 55 -8 359 -158
431 -212 42 -32 68 -43 136 -56 46 -9 139 -33 207 -52 67 -20 124 -34 126 -32
9 9 -219 72 -403 112 -13 3 -39 20 -59 38 -21 17 -87 58 -148 90 l-111 58 105
-6 c58 -3 145 -10 193 -16 49 -6 91 -9 93 -6 8 7 -172 28 -295 33 -94 5 -127
10 -174 31 -75 32 -152 39 -190 17z"/>
<path d="M2445 3590 c65 -22 121 -37 123 -35 5 4 -220 75 -234 74 -5 0 45 -18
111 -39z"/>
<path d="M4380 3620 c-8 -5 -10 -10 -5 -10 6 0 17 5 25 10 8 5 11 10 5 10 -5
0 -17 -5 -25 -10z"/>
<path d="M4325 3600 c-13 -6 -15 -9 -5 -9 8 0 22 4 30 9 18 12 2 12 -25 0z"/>
<path d="M1611 3567 c30 -18 72 -45 95 -59 50 -32 245 -130 249 -126 2 2 -42
28 -98 57 -56 30 -141 78 -188 107 -47 30 -92 54 -99 54 -8 0 11 -15 41 -33z"/>
<path d="M3720 3585 c-30 -7 -46 -13 -35 -13 11 -1 47 5 80 12 33 8 49 14 35
14 -14 0 -50 -6 -80 -13z"/>
<path d="M1360 3587 c0 -7 111 -69 116 -65 2 2 -24 19 -56 37 -33 18 -60 30
-60 28z"/>
<path d="M1545 3560 c10 -11 20 -20 23 -20 3 0 -3 9 -13 20 -10 11 -20 20 -23
20 -3 0 3 -9 13 -20z"/>
<path d="M4103 3573 c9 -2 23 -2 30 0 6 3 -1 5 -18 5 -16 0 -22 -2 -12 -5z"/>
<path d="M1843 3563 c15 -2 37 -2 50 0 12 2 0 4 -28 4 -27 0 -38 -2 -22 -4z"/>
<path d="M3438 3563 c6 -2 18 -2 25 0 6 3 1 5 -13 5 -14 0 -19 -2 -12 -5z"/>
<path d="M3628 3563 c6 -2 18 -2 25 0 6 3 1 5 -13 5 -14 0 -19 -2 -12 -5z"/>
<path d="M4028 3563 c6 -2 18 -2 25 0 6 3 1 5 -13 5 -14 0 -19 -2 -12 -5z"/>
<path d="M4195 3560 c-13 -5 -14 -9 -5 -9 8 0 24 4 35 9 13 5 14 9 5 9 -8 0
-24 -4 -35 -9z"/>
<path d="M4358 3563 c7 -3 16 -2 19 1 4 3 -2 6 -13 5 -11 0 -14 -3 -6 -6z"/>
<path d="M4898 3563 c12 -2 32 -2 45 0 12 2 2 4 -23 4 -25 0 -35 -2 -22 -4z"/>
<path d="M3388 3553 c7 -3 16 -2 19 1 4 3 -2 6 -13 5 -11 0 -14 -3 -6 -6z"/>
<path d="M3568 3553 c6 -2 18 -2 25 0 6 3 1 5 -13 5 -14 0 -19 -2 -12 -5z"/>
<path d="M4620 3549 c-143 -8 -347 -35 -337 -45 3 -3 44 2 93 10 49 8 179 20
289 26 110 6 201 13 204 16 5 5 -46 4 -249 -7z"/>
<path d="M3508 3543 c7 -3 16 -2 19 1 4 3 -2 6 -13 5 -11 0 -14 -3 -6 -6z"/>
<path d="M4062 3528 c-40 -11 -71 -22 -69 -24 2 -3 44 7 93 20 49 14 80 25 69
24 -11 0 -53 -9 -93 -20z"/>
<path d="M2388 3533 c6 -2 18 -2 25 0 6 3 1 5 -13 5 -14 0 -19 -2 -12 -5z"/>
<path d="M1825 3488 c11 -6 53 -31 93 -56 56 -33 71 -47 60 -54 -10 -7 -8 -8
5 -4 10 3 29 -1 43 -10 13 -9 24 -14 24 -11 0 6 -156 110 -197 131 -35 18 -60
22 -28 4z"/>
<path d="M3958 3493 c7 -3 16 -2 19 1 4 3 -2 6 -13 5 -11 0 -14 -3 -6 -6z"/>
<path d="M4238 3493 c6 -2 18 -2 25 0 6 3 1 5 -13 5 -14 0 -19 -2 -12 -5z"/>
<path d="M3918 3483 c7 -3 16 -2 19 1 4 3 -2 6 -13 5 -11 0 -14 -3 -6 -6z"/>
<path d="M4198 3483 c7 -3 16 -2 19 1 4 3 -2 6 -13 5 -11 0 -14 -3 -6 -6z"/>
<path d="M3878 3473 c7 -3 16 -2 19 1 4 3 -2 6 -13 5 -11 0 -14 -3 -6 -6z"/>
<path d="M4148 3473 c7 -3 16 -2 19 1 4 3 -2 6 -13 5 -11 0 -14 -3 -6 -6z"/>
<path d="M3838 3463 c7 -3 16 -2 19 1 4 3 -2 6 -13 5 -11 0 -14 -3 -6 -6z"/>
<path d="M3788 3453 c7 -3 16 -2 19 1 4 3 -2 6 -13 5 -11 0 -14 -3 -6 -6z"/>
<path d="M3738 3443 c7 -3 16 -2 19 1 4 3 -2 6 -13 5 -11 0 -14 -3 -6 -6z"/>
<path d="M1050 3421 c0 -5 10 -7 22 -3 14 3 19 1 14 -6 -4 -8 -2 -10 7 -6 8 3
95 -6 193 -20 97 -15 179 -24 181 -22 5 5 -41 14 -226 41 -184 28 -191 29
-191 16z"/>
<path d="M1795 3409 c32 -10 61 -16 63 -14 5 4 -97 35 -112 34 -6 0 16 -9 49
-20z"/>
<path d="M2040 3420 c8 -5 22 -9 30 -9 10 0 8 3 -5 9 -27 12 -43 12 -25 0z"/>
<path d="M3628 3423 c7 -3 16 -2 19 1 4 3 -2 6 -13 5 -11 0 -14 -3 -6 -6z"/>
<path d="M1655 3381 c66 -16 180 -45 253 -66 73 -20 135 -35 137 -33 6 6 -303
94 -393 113 -126 26 -123 15 3 -14z"/>
<path d="M2145 3390 c33 -11 65 -19 70 -19 17 1 -89 37 -110 38 -11 0 7 -9 40
-19z"/>
<path d="M1185 3366 c50 -18 134 -54 188 -79 54 -25 95 -42 93 -38 -15 23
-322 152 -359 151 -7 -1 29 -16 78 -34z"/>
<path d="M2238 3363 c7 -3 16 -2 19 1 4 3 -2 6 -13 5 -11 0 -14 -3 -6 -6z"/>
<path d="M0 3335 c0 -9 20 -24 48 -36 26 -11 103 -47 172 -79 69 -32 172 -75
230 -95 144 -51 254 -104 325 -157 95 -70 207 -136 385 -225 91 -46 163 -83
160 -83 -13 0 -362 120 -435 150 -44 18 -112 43 -152 55 -86 27 -233 112 -335
193 -41 33 -101 78 -134 100 -75 51 -240 135 -256 130 -7 -3 33 -28 87 -57 55
-28 143 -83 195 -121 52 -39 140 -101 194 -138 l99 -67 -149 -7 -149 -7 -125
43 c-69 23 -133 46 -142 51 -17 7 -18 -2 -18 -110 0 -90 3 -116 13 -112 206
91 346 122 507 113 125 -7 213 -28 392 -95 161 -60 670 -228 823 -271 131 -37
188 -39 345 -10 63 12 131 23 150 26 122 15 -180 -50 -349 -76 l-131 -20 -122
26 c-178 37 -363 43 -483 15 -90 -21 -289 -90 -282 -98 3 -2 35 8 73 22 77 29
251 75 284 75 27 0 89 -32 73 -37 -7 -2 -9 -11 -6 -19 7 -18 -30 -19 -124 -2
-48 8 -80 8 -108 1 l-40 -10 42 -8 c47 -8 61 -30 43 -64 -13 -24 -41 -33 -245
-71 -88 -17 -250 -48 -360 -70 -110 -21 -213 -41 -230 -43 -16 -3 -79 3 -140
14 -60 10 -113 19 -117 19 -5 0 -8 -23 -8 -51 0 -43 2 -50 18 -45 23 7 660
131 1087 211 193 36 395 75 450 85 136 26 330 59 393 66 51 5 53 5 40 -15 -11
-18 -14 -19 -29 -5 -12 11 -23 12 -42 5 -14 -5 -45 -13 -68 -16 -24 -3 -253
-49 -509 -100 -256 -52 -582 -117 -725 -145 -216 -43 -354 -72 -593 -125 -17
-4 -22 -12 -22 -35 0 -17 2 -30 4 -30 4 0 150 33 414 95 167 38 172 39 172 26
0 -4 -125 -38 -277 -75 -153 -37 -286 -70 -295 -72 -13 -4 -18 -16 -18 -40 0
-19 3 -34 6 -34 3 0 63 16 132 36 126 35 470 127 1067 284 171 44 400 105 510
135 110 29 217 56 239 59 21 4 82 17 135 31 341 87 567 124 646 105 36 -8 34
-9 -25 -6 -36 2 -54 1 -40 -2 26 -5 -94 -35 -193 -48 -34 -5 -44 -10 -35 -16
8 -6 0 -7 -22 -3 -27 5 -32 4 -20 -5 12 -9 11 -10 -6 -6 -46 13 -302 -75 -774
-266 -190 -77 -453 -184 -585 -238 -132 -53 -337 -138 -455 -188 -118 -50
-296 -124 -395 -166 l-180 -75 -3 -65 c-2 -36 -1 -66 2 -66 2 0 116 52 253
116 1015 474 1180 551 1517 700 224 100 507 217 512 212 2 -2 -38 -21 -89 -43
-302 -127 -867 -389 -1592 -740 -280 -135 -531 -256 -558 -267 l-47 -20 0 -84
0 -85 33 17 c56 29 515 273 712 379 694 374 1559 815 1599 815 4 0 -184 -96
-416 -213 -408 -206 -754 -387 -1058 -554 -80 -43 -308 -167 -507 -274 -200
-106 -363 -200 -363 -206 0 -7 2 -13 4 -13 2 0 295 159 652 354 1207 657 1669
892 1909 969 101 33 237 67 265 67 15 0 20 5 17 15 -9 21 1 24 91 26 91 3 123
-12 121 -60 0 -26 0 -26 -11 -3 -10 20 -17 22 -102 22 -74 -1 -95 -4 -113 -19
-13 -11 -23 -22 -23 -26 0 -4 7 -2 15 5 11 9 15 10 15 0 0 -8 33 -11 122 -9
l123 2 58 -74 c32 -41 105 -126 161 -189 528 -594 598 -678 1539 -1849 131
-163 247 -305 258 -316 19 -19 19 -18 19 187 l0 206 -772 779 c-817 823 -1277
1293 -1267 1293 3 0 18 -13 34 -30 33 -35 57 -41 29 -7 -19 22 -19 22 1 5 17
-14 22 -14 33 -2 7 8 20 14 30 14 14 0 12 -4 -7 -19 l-24 -18 54 -42 c30 -24
91 -66 136 -94 236 -148 693 -448 883 -577 185 -127 821 -552 858 -574 8 -5
12 1 12 21 0 26 -14 38 -157 129 -87 55 -249 156 -359 224 -149 91 -200 128
-197 140 7 25 -32 65 -76 79 -28 8 -46 21 -56 41 -18 35 -75 67 -137 76 -45 7
-158 68 -158 86 0 5 6 8 13 5 7 -3 49 -15 92 -27 44 -12 116 -40 160 -62 44
-22 76 -37 72 -32 -14 15 -209 132 -274 166 -69 35 -81 53 -30 43 52 -10 234
-65 332 -101 50 -18 148 -49 219 -69 132 -37 542 -145 551 -145 11 0 4 48 -7
58 -34 27 -141 52 -258 61 -124 10 -340 57 -460 100 l-55 20 105 1 c142 1 262
9 339 21 67 11 222 57 297 89 l44 19 0 101 c0 55 -2 100 -4 100 -3 0 -36 -16
-75 -36 -90 -45 -159 -64 -242 -64 -90 0 -143 -21 -219 -86 -84 -72 -116 -85
-223 -92 l-88 -5 -57 60 c-73 77 -115 91 -297 103 -77 5 -169 12 -205 14 -59
5 -61 4 -21 -4 24 -5 114 -14 200 -19 177 -12 237 -28 285 -76 44 -44 80 -95
67 -95 -6 0 -77 25 -156 55 -139 52 -205 67 -205 45 0 -6 -27 -10 -62 -10 -59
0 -70 4 -158 57 -52 31 -122 72 -155 90 -33 19 -51 32 -40 29 100 -24 160 -30
295 -30 231 0 413 34 636 119 66 25 153 54 194 65 94 24 321 58 440 67 64 4
90 10 90 19 0 16 -65 12 -285 -17 -179 -24 -256 -43 -435 -109 -416 -153 -814
-176 -1019 -59 -29 17 -51 32 -49 34 2 2 21 0 43 -5 85 -20 188 -12 282 21 92
33 223 95 223 106 0 3 -36 3 -80 0 -44 -4 -80 -5 -80 -2 0 14 296 196 404 249
258 125 402 172 571 185 98 8 124 14 235 59 69 27 139 54 155 59 22 7 31 17
33 36 3 24 -1 26 -44 33 -62 9 -357 -2 -414 -16 -25 -6 -97 -35 -160 -65 -190
-88 -281 -95 -419 -30 -69 32 -87 37 -172 39 -75 3 -116 10 -207 40 -175 56
-253 49 -380 -31 l-52 -33 -393 -1 c-215 -1 -484 -5 -597 -9 -117 -4 49 -5
385 -3 416 3 586 1 575 -6 -9 -7 -96 -12 -220 -13 l-205 -3 197 -2 198 -3 -55
-50 -55 -50 -98 0 c-53 0 -126 -5 -162 -10 -66 -10 -175 -39 -168 -45 1 -2 44
5 93 15 56 12 132 19 200 19 l110 1 -25 -20 c-14 -11 -40 -20 -58 -20 -19 0
-79 -9 -134 -20 l-100 -21 -73 26 c-92 31 -127 31 -221 0 -41 -14 -88 -25
-105 -25 -36 0 -183 61 -254 106 -27 17 -70 48 -95 69 -25 21 -59 44 -77 51
-46 20 -121 17 -188 -6 -94 -32 -135 -27 -248 30 -145 74 -201 71 -396 -21
-71 -33 -111 -47 -125 -43 -12 4 -100 40 -196 81 -96 41 -238 98 -315 128 -77
29 -209 85 -293 124 -84 39 -157 71 -162 71 -6 0 -10 -7 -10 -15z m3700 -295
c58 -18 111 -34 118 -36 8 -2 -20 -26 -61 -54 -41 -27 -80 -56 -87 -65 -18
-21 -36 -19 -19 3 13 15 12 16 -3 3 -10 -7 -16 -17 -13 -21 3 -4 -2 -13 -10
-20 -12 -10 -27 -9 -73 4 -110 30 -287 13 -449 -44 -21 -7 -11 6 45 59 89 84
189 154 268 187 76 32 141 28 284 -16z m1313 23 c38 -6 36 -7 -95 -61 -122
-50 -142 -55 -243 -63 -70 -5 -147 -19 -213 -38 -99 -28 -103 -29 -143 -13
l-41 16 68 18 c37 10 115 41 173 68 100 46 160 65 241 73 63 7 214 7 253 0z
m-3499 -83 c54 -28 108 -50 120 -50 13 0 60 11 106 25 132 39 161 34 277 -56
83 -64 460 -248 611 -299 46 -15 57 -16 92 -4 23 8 106 16 207 19 l168 5 -60
-25 c-54 -23 -73 -25 -200 -25 -77 1 -194 -4 -260 -9 -215 -18 -250 -20 -235
-15 8 2 51 8 95 13 l80 8 -67 2 c-84 1 -306 42 -418 76 -107 33 -155 42 -253
48 -74 5 -78 5 -63 -12 8 -9 47 -32 86 -51 38 -19 70 -38 70 -42 0 -11 -62 -1
-172 26 -49 12 -88 21 -88 19 0 -7 108 -56 181 -83 88 -33 141 -59 121 -60
-29 0 -233 50 -342 85 -144 46 -518 238 -707 363 -85 55 -107 75 -53 47 69
-35 361 -129 495 -158 39 -9 132 -23 209 -32 173 -20 222 -30 310 -66 38 -16
72 -27 74 -25 7 7 -127 65 -184 80 -33 8 -122 22 -199 31 -127 15 -339 62
-438 97 l-38 14 108 51 c130 62 132 63 208 57 47 -3 82 -15 159 -54z m2579
-35 c107 -51 200 -85 231 -85 12 0 -37 -26 -109 -58 -147 -66 -217 -104 -325
-175 l-75 -49 -45 12 c-142 39 -184 33 -295 -39 -101 -66 -195 -87 -255 -56
-16 8 -41 12 -57 9 -15 -3 -39 -1 -52 3 -21 9 -18 11 34 31 32 13 112 58 179
101 67 44 162 101 211 128 50 27 131 80 181 119 160 121 225 131 377 59z
m-568 -108 l50 -13 -44 -28 c-27 -17 -77 -35 -130 -46 -56 -11 -117 -33 -171
-61 l-85 -43 -170 -7 c-93 -3 -171 -5 -173 -3 -7 5 154 99 208 121 32 13 119
39 192 58 146 38 238 44 323 22z m-833 -78 l63 -21 99 21 c54 12 101 20 103
17 12 -12 -80 -56 -147 -70 -41 -9 -99 -23 -128 -31 -46 -12 -58 -12 -93 1
-23 7 -56 14 -73 14 -17 0 -53 11 -81 23 l-50 24 75 26 c87 31 135 30 232 -4z
m720 -37 c-78 -56 -244 -154 -285 -168 -48 -16 -97 -13 -97 6 0 6 6 10 13 10
6 0 57 26 112 57 124 70 325 145 257 95z m-612 -59 c-36 -22 -60 -28 -115 -30
l-70 -3 70 20 c39 10 84 23 100 29 55 17 61 11 15 -16z m-216 -2 c35 -14 2
-19 -34 -5 -30 11 -32 12 -10 13 14 0 34 -4 44 -8z m-402 -76 c80 -20 120 -34
100 -34 -62 -2 -252 55 -252 75 0 3 4 3 10 -1 5 -3 69 -21 142 -40z m1534 4
c32 -6 65 -14 72 -18 9 -5 -24 -32 -97 -81 l-111 -73 -139 -5 c-105 -4 -146
-1 -170 9 -17 8 -30 18 -28 24 2 5 42 18 90 27 79 16 108 29 184 84 28 20 91
43 119 44 11 0 47 -5 80 -11z m-1529 -53 c4 -3 -7 -6 -24 -6 -17 0 -36 6 -42
14 -10 12 -6 13 24 6 20 -5 39 -11 42 -14z m618 4 l20 -9 -20 1 c-11 0 -31 4
-45 8 l-25 8 25 0 c14 0 34 -3 45 -8z m-492 -7 c-7 -2 -19 -2 -25 0 -7 3 -2 5
12 5 14 0 19 -2 13 -5z m-183 -77 c0 -2 -7 -6 -15 -10 -8 -3 -15 -1 -15 4 0 6
7 10 15 10 8 0 15 -2 15 -4z m1455 -66 c-30 -31 -45 -31 -45 0 0 14 9 20 33
23 17 2 34 5 36 5 3 1 -8 -11 -24 -28z m-1185 5 c-14 -8 -29 -14 -35 -14 -5 0
1 6 15 14 14 8 30 14 35 14 6 0 -1 -6 -15 -14z m1110 -4 c0 -35 -106 -40 -167
-7 -27 15 -24 15 70 16 53 0 97 -4 97 -9z m-1721 -15 c-2 -2 -18 -7 -34 -10
l-30 -6 30 14 c26 12 46 14 34 2z m-160 -47 c-8 -5 -25 -8 -39 -8 -24 1 -24 1
5 14 31 14 57 9 34 -6z m-174 -29 c-11 -5 -31 -8 -45 -8 l-25 0 25 8 c14 4 34
8 45 8 l20 1 -20 -9z m-137 -36 c-7 -6 -116 -33 -137 -34 -30 0 1 13 56 25 67
15 89 17 81 9z m-248 -58 c0 -7 -342 -87 -348 -82 -10 11 6 16 154 50 143 32
194 41 194 32z"/>
<path d="M2030 2836 c25 -26 59 -57 75 -68 35 -25 32 -22 -55 57 -58 53 -60
54 -20 11z"/>
<path d="M2548 2573 c17 -2 47 -2 65 0 17 2 3 4 -33 4 -36 0 -50 -2 -32 -4z"/>
<path d="M2188 3343 c7 -3 16 -2 19 1 4 3 -2 6 -13 5 -11 0 -14 -3 -6 -6z"/>
<path d="M3480 3340 c-36 -4 9 -5 100 -2 91 2 167 6 169 8 7 6 -197 1 -269 -6z"/>
<path d="M2300 3324 c110 -16 155 -16 65 2 -38 7 -88 12 -110 12 -26 0 -11 -5
45 -14z"/>
<path d="M3328 3323 c12 -2 30 -2 40 0 9 3 -1 5 -23 4 -22 0 -30 -2 -17 -4z"/>
<path d="M2468 3303 c7 -3 16 -2 19 1 4 3 -2 6 -13 5 -11 0 -14 -3 -6 -6z"/>
<path d="M3508 3303 c23 -2 59 -2 80 0 20 2 1 4 -43 4 -44 0 -61 -2 -37 -4z"/>
<path d="M3335 3294 c-11 -1 -100 -8 -198 -15 -98 -6 -175 -14 -173 -16 5 -6
479 27 485 33 5 4 -82 3 -114 -2z"/>
<path d="M2238 3283 c12 -2 30 -2 40 0 9 3 -1 5 -23 4 -22 0 -30 -2 -17 -4z"/>
<path d="M2470 3255 c96 -13 193 -23 215 -23 51 0 -203 34 -310 41 -45 3 -3
-5 95 -18z"/>
<path d="M3528 3273 c6 -2 18 -2 25 0 6 3 1 5 -13 5 -14 0 -19 -2 -12 -5z"/>
<path d="M3303 3263 c26 -2 67 -2 90 0 23 2 2 3 -48 3 -49 0 -68 -1 -42 -3z"/>
<path d="M3163 3253 c15 -2 37 -2 50 0 12 2 0 4 -28 4 -27 0 -38 -2 -22 -4z"/>
<path d="M1578 3223 c7 -3 16 -2 19 1 4 3 -2 6 -13 5 -11 0 -14 -3 -6 -6z"/>
<path d="M2758 3223 c12 -2 30 -2 40 0 9 3 -1 5 -23 4 -22 0 -30 -2 -17 -4z"/>
<path d="M1258 3213 c57 -2 147 -2 200 0 53 1 7 3 -103 3 -110 0 -154 -2 -97
-3z"/>
<path d="M1610 3217 c0 -7 89 -68 160 -111 l45 -27 -30 26 c-16 14 -56 42 -88
61 -32 20 -57 38 -55 39 5 5 383 -32 567 -55 172 -21 197 -23 190 -15 -18 17
-789 97 -789 82z"/>
<path d="M3178 3213 c46 -2 118 -2 160 0 42 1 5 3 -83 3 -88 0 -123 -2 -77 -3z"/>
<path d="M1970 3089 c47 -4 126 -7 175 -6 l90 0 -105 7 c-58 4 -136 7 -175 7
l-70 0 85 -8z"/>
<path d="M2332 2903 c82 -2 214 -2 296 0 81 1 14 3 -148 3 -162 0 -229 -2
-148 -3z"/>
<path d="M2143 2893 c9 -2 23 -2 30 0 6 3 -1 5 -18 5 -16 0 -22 -2 -12 -5z"/>
<path d="M4910 2893 c-99 -36 -190 -78 -312 -145 -82 -45 -146 -83 -145 -85 3
-2 179 80 452 212 44 21 47 33 5 18z"/>
<path d="M4955 2591 c-60 -16 -126 -36 -145 -45 -19 -9 -26 -13 -15 -10 11 3
76 20 145 36 69 16 139 33 155 38 l30 8 -30 1 c-16 0 -79 -13 -140 -28z"/>
<path d="M4558 2563 c-18 -14 -51 -43 -73 -64 -22 -21 -60 -49 -85 -63 -53
-30 -46 -35 9 -6 21 10 72 49 112 86 41 37 76 69 78 71 2 1 2 3 -2 3 -3 0 -20
-12 -39 -27z"/>
<path d="M2540 2509 c-111 -22 -151 -31 -148 -35 2 -2 58 7 124 20 65 13 108
24 94 24 -14 0 -45 -4 -70 -9z"/>
<path d="M2295 2455 l-40 -14 40 6 c22 3 51 10 65 14 l25 7 -25 0 c-14 0 -43
-6 -65 -13z"/>
<path d="M2794 2403 c-11 -74 -12 -73 151 -73 l145 0 0 54 0 55 -145 3 -145 3
-6 -42z m49 -10 c-7 -2 -19 -2 -25 0 -7 3 -2 5 12 5 14 0 19 -2 13 -5z m230 0
c-7 -2 -19 -2 -25 0 -7 3 -2 5 12 5 14 0 19 -2 13 -5z"/>
<path d="M2228 2433 c7 -3 16 -2 19 1 4 3 -2 6 -13 5 -11 0 -14 -3 -6 -6z"/>
<path d="M3240 2356 c290 -286 577 -560 790 -756 289 -266 529 -492 810 -761
113 -108 222 -211 243 -229 l37 -32 0 134 0 134 -202 165 c-259 210 -429 345
-713 564 -286 219 -472 373 -589 487 l-91 89 120 -88 c124 -93 322 -229 435
-300 36 -22 137 -87 225 -143 137 -88 317 -200 350 -218 52 -28 -70 55 -390
265 -209 137 -436 289 -505 338 -69 49 -176 124 -238 166 -131 91 -215 154
-293 221 -88 75 -82 56 11 -36z"/>
<path d="M2188 2423 c7 -3 16 -2 19 1 4 3 -2 6 -13 5 -11 0 -14 -3 -6 -6z"/>
<path d="M2148 2413 c7 -3 16 -2 19 1 4 3 -2 6 -13 5 -11 0 -14 -3 -6 -6z"/>
<path d="M2108 2403 c7 -3 16 -2 19 1 4 3 -2 6 -13 5 -11 0 -14 -3 -6 -6z"/>
<path d="M4320 2400 c-8 -5 -10 -10 -5 -10 6 0 17 5 25 10 8 5 11 10 5 10 -5
0 -17 -5 -25 -10z"/>
<path d="M15 2370 c11 -4 70 -13 130 -20 61 -6 225 -29 365 -51 140 -21 264
-38 275 -38 91 5 -651 120 -760 118 -26 0 -27 -2 -10 -9z"/>
<path d="M1798 2333 c7 -3 16 -2 19 1 4 3 -2 6 -13 5 -11 0 -14 -3 -6 -6z"/>
<path d="M1655 2294 c-44 -14 -156 -49 -250 -79 -198 -62 -779 -235 -1144
-341 -139 -40 -256 -75 -258 -78 -2 -2 -3 -15 -1 -29 l3 -25 275 84 c288 89
1432 468 1459 484 26 15 0 10 -84 -16z"/>
<path d="M1735 2285 c-25 -12 -26 -14 -5 -9 28 7 60 23 45 23 -5 0 -23 -6 -40
-14z"/>
<path d="M1595 2240 c-44 -16 -183 -66 -310 -110 -126 -45 -347 -123 -490
-175 -143 -51 -380 -132 -528 -180 -147 -48 -267 -91 -267 -96 0 -5 1 -9 3 -9
12 0 664 223 842 288 210 77 594 216 775 280 47 17 78 31 70 31 -8 0 -51 -13
-95 -29z"/>
<path d="M3104 2235 c-7 -18 3 -35 23 -35 10 0 13 6 9 16 -3 9 -6 20 -6 25 0
15 -20 10 -26 -6z"/>
<path d="M3618 2203 c7 -3 16 -2 19 1 4 3 -2 6 -13 5 -11 0 -14 -3 -6 -6z"/>
<path d="M3070 2123 c-54 -4 -274 -33 -277 -37 -1 -1 77 -2 175 -3 163 -1 280
-14 350 -40 29 -11 -6 25 -42 44 -36 19 -124 43 -146 41 -8 -1 -35 -3 -60 -5z"/>
<path d="M3170 1880 c0 -5 13 -87 29 -182 33 -193 56 -416 70 -678 11 -193 2
-407 -29 -775 -11 -126 -20 -233 -20 -237 0 -5 117 -8 260 -8 l261 0 -7 38
c-19 111 -103 498 -154 712 -70 288 -78 320 -88 321 -123 19 -137 24 -140 51
-2 19 3 30 17 38 28 14 27 43 -4 186 -33 153 -114 500 -121 518 -8 21 -74 36
-74 16z"/>
<path d="M4775 1747 c33 -25 316 -147 340 -147 3 0 5 4 5 8 0 4 -17 14 -37 21
-21 8 -96 38 -168 68 -160 67 -165 69 -140 50z"/>
<path d="M1340 1619 c-102 -61 -338 -201 -525 -312 -914 -539 -815 -476 -815
-514 0 -18 3 -33 6 -33 8 0 25 11 490 306 193 122 501 316 685 429 384 238
379 235 359 235 -8 -1 -98 -50 -200 -111z"/>
<path d="M1003 1276 c-59 -41 -307 -210 -551 -377 -244 -166 -446 -307 -449
-314 -2 -8 -3 -25 -1 -39 3 -23 18 -14 248 155 135 99 369 270 520 380 265
192 363 268 348 269 -4 0 -56 -33 -115 -74z"/>
</g>
</svg>