<?xml version="1.0" standalone="no"?>
<!DOCTYPE svg PUBLIC "-//W3C//DTD SVG 20010904//EN"
 "http://www.w3.org/TR/2001/REC-SVG-20010904/DTD/svg10.dtd">
<svg version="1.0" xmlns="http://www.w3.org/2000/svg"
 width="512.000000pt" height="512.000000pt" viewBox="0 0 512.000000 512.000000"
 preserveAspectRatio="xMidYMid meet">
<metadata>
Created by potrace 1.16, written by Peter Selinger 2001-2019
</metadata>
<g transform="translate(0.000000,512.000000) scale(0.100000,-0.100000)"
fill="#000000" stroke="none">
<path d="M270 5116 c0 -24 83 -152 292 -451 127 -181 307 -442 401 -580 152
-224 207 -302 182 -255 -17 30 -373 552 -593 868 -123 177 -237 346 -253 375
-16 29 -29 48 -29 43z"/>
<path d="M3956 5093 c-44 -88 -299 -714 -292 -720 2 -2 38 83 81 189 42 106
106 261 142 343 94 215 94 215 88 215 -2 0 -11 -12 -19 -27z"/>
<path d="M4077 5078 c-51 -63 -97 -153 -180 -348 -72 -169 -153 -397 -145
-405 2 -3 17 35 32 83 69 214 232 575 301 665 45 58 39 62 -8 5z"/>
<path d="M4332 5018 c-61 -105 -108 -189 -330 -588 -68 -124 -168 -297 -221
-385 -144 -238 -136 -223 -116 -200 43 52 216 342 445 746 139 244 263 463
276 487 14 23 21 42 15 42 -5 0 -36 -46 -69 -102z"/>
<path d="M5056 4911 c-32 -36 -178 -205 -324 -376 -146 -170 -303 -353 -348
-406 -199 -229 -723 -796 -999 -1079 -89 -91 -201 -208 -250 -260 -106 -113
-152 -151 -264 -216 -158 -91 -178 -129 -162 -310 l10 -119 -4 125 c-3 79 -1
118 5 105 7 -17 9 -15 9 13 1 56 27 96 86 133 227 142 212 128 700 620 524
528 888 915 1248 1328 132 152 267 304 300 337 58 62 58 62 55 117 l-3 55 -59
-67z"/>
<path d="M4964 4587 c-78 -84 -199 -215 -269 -292 -71 -77 -254 -273 -408
-435 -153 -162 -221 -236 -151 -165 173 175 455 473 644 680 85 94 197 214
249 268 52 53 91 97 85 97 -5 0 -72 -69 -150 -153z"/>
<path d="M91 4438 c46 -51 122 -133 169 -183 47 -50 166 -178 265 -285 99
-107 209 -224 244 -260 82 -84 -114 133 -340 376 -96 104 -228 246 -293 317
-64 70 -120 127 -123 127 -3 0 32 -41 78 -92z"/>
<path d="M3646 4345 c-9 -26 -7 -32 5 -12 6 10 9 21 6 23 -2 3 -7 -2 -11 -11z"/>
<path d="M3626 4295 c-9 -26 -7 -32 5 -12 6 10 9 21 6 23 -2 3 -7 -2 -11 -11z"/>
<path d="M3731 4264 c0 -11 3 -14 6 -6 3 7 2 16 -1 19 -3 4 -6 -2 -5 -13z"/>
<path d="M3602 4235 c-17 -37 -14 -45 4 -12 9 16 14 31 11 33 -2 2 -9 -7 -15
-21z"/>
<path d="M3576 4175 c-9 -26 -7 -32 5 -12 6 10 9 21 6 23 -2 3 -7 -2 -11 -11z"/>
<path d="M3556 4125 c-9 -26 -7 -32 5 -12 6 10 9 21 6 23 -2 3 -7 -2 -11 -11z"/>
<path d="M0 4078 c0 -19 50 -70 221 -228 122 -113 323 -302 446 -422 287 -279
644 -595 813 -721 76 -57 57 -39 -111 103 -241 204 -428 379 -794 740 -204
201 -417 407 -473 459 -89 81 -102 90 -102 69z"/>
<path d="M3536 4075 c-9 -26 -7 -32 5 -12 6 10 9 21 6 23 -2 3 -7 -2 -11 -11z"/>
<path d="M3516 4025 c-9 -26 -7 -32 5 -12 6 10 9 21 6 23 -2 3 -7 -2 -11 -11z"/>
<path d="M3456 3865 c-9 -26 -7 -32 5 -12 6 10 9 21 6 23 -2 3 -7 -2 -11 -11z"/>
<path d="M0 3843 c1 -23 15 -39 78 -88 42 -33 162 -134 267 -224 529 -456 622
-535 765 -650 85 -68 243 -190 350 -270 342 -255 497 -379 510 -410 7 -18 32
-40 71 -62 104 -59 109 -64 111 -122 l2 -52 3 47 c5 59 -7 83 -57 108 -49 25
-56 39 -62 122 -6 78 -29 129 -95 214 -71 92 -196 258 -211 280 -10 16 -11 15
-1 -6 7 -14 25 -44 40 -67 16 -23 29 -45 29 -50 0 -4 -57 48 -128 117 -91 89
-81 78 35 -40 169 -172 213 -221 213 -238 0 -6 13 -21 29 -35 17 -14 28 -27
25 -29 -2 -3 5 -29 16 -59 11 -30 18 -42 15 -27 -3 14 -8 34 -12 44 -4 11 -3
15 4 11 12 -7 34 -85 32 -114 -1 -13 -3 -11 -10 7 l-9 25 4 -25 c2 -14 7 -40
11 -59 11 -46 -11 -38 -48 18 -29 42 -126 121 -522 422 -331 252 -668 534
-978 819 -216 199 -415 376 -449 402 l-28 19 0 -28z m1821 -1250 c13 -16 12
-17 -3 -4 -10 7 -18 15 -18 17 0 8 8 3 21 -13z"/>
<path d="M3615 3778 c-16 -24 -22 -38 -14 -31 15 12 53 73 46 73 -2 0 -17 -19
-32 -42z"/>
<path d="M3569 3713 c-13 -16 -12 -17 4 -4 9 7 17 15 17 17 0 8 -8 3 -21 -13z"/>
<path d="M1246 3663 c10 -16 35 -56 57 -90 22 -35 41 -63 44 -63 5 0 2 6 -60
103 -27 42 -51 77 -54 77 -3 0 3 -12 13 -27z"/>
<path d="M3539 3673 c-13 -16 -12 -17 4 -4 16 13 21 21 13 21 -2 0 -10 -8 -17
-17z"/>
<path d="M0 3647 c0 -29 6 -38 43 -62 23 -16 197 -139 387 -275 190 -135 352
-249 360 -254 85 -43 -596 500 -762 608 l-28 18 0 -35z"/>
<path d="M3504 3628 l-19 -23 23 19 c21 18 27 26 19 26 -2 0 -12 -10 -23 -22z"/>
<path d="M918 3543 c49 -54 100 -107 113 -118 13 -11 -25 33 -85 98 -60 64
-111 117 -114 117 -2 0 36 -44 86 -97z"/>
<path d="M3935 3488 l-70 -73 73 70 c39 38 72 71 72 72 0 8 -11 -2 -75 -69z"/>
<path d="M1360 3480 c6 -11 13 -20 16 -20 2 0 0 9 -6 20 -6 11 -13 20 -16 20
-2 0 0 -9 6 -20z"/>
<path d="M1390 3425 c0 -5 5 -17 10 -25 5 -8 10 -10 10 -5 0 6 -5 17 -10 25
-5 8 -10 11 -10 5z"/>
<path d="M4975 3327 c-77 -51 -228 -148 -335 -216 -702 -448 -899 -577 -1271
-833 -119 -81 -254 -168 -301 -193 l-83 -44 3 38 c3 27 -4 53 -22 90 -54 107
-44 200 27 246 64 43 151 120 199 178 31 38 20 30 -38 -29 -44 -44 -111 -102
-148 -129 -37 -26 -72 -59 -77 -72 -18 -48 -10 -116 21 -181 29 -62 38 -115
22 -138 -12 -18 -52 -35 -64 -28 -7 4 -8 3 -4 -4 4 -7 4 -12 -1 -13 -15 -1
-38 -8 -82 -24 -24 -9 -50 -14 -58 -11 -8 3 -12 2 -9 -3 3 -5 -20 -16 -52 -25
-31 -9 -68 -23 -82 -32 -25 -16 -22 -15 40 4 19 6 88 27 153 47 152 46 482
211 822 410 597 350 769 449 1228 705 l257 143 0 104 c0 57 -1 103 -2 102 -2
0 -66 -42 -143 -92z"/>
<path d="M1090 3358 c24 -27 45 -48 47 -48 8 0 0 9 -44 50 l-48 45 45 -47z"/>
<path d="M3745 3288 l-100 -103 103 100 c95 93 107 105 99 105 -1 0 -47 -46
-102 -102z"/>
<path d="M3181 3324 c0 -11 3 -14 6 -6 3 7 2 16 -1 19 -3 4 -6 -2 -5 -13z"/>
<path d="M1185 3250 c27 -27 51 -50 54 -50 3 0 -17 23 -44 50 -27 28 -51 50
-54 50 -3 0 17 -22 44 -50z"/>
<path d="M1460 3257 c0 -9 128 -258 137 -267 3 -3 -2 11 -10 30 -20 49 -127
247 -127 237z"/>
<path d="M1290 3138 c24 -27 45 -48 47 -48 8 0 0 9 -44 50 l-48 45 45 -47z"/>
<path d="M1385 3030 c21 -22 41 -40 44 -40 3 0 -13 18 -34 40 -21 22 -41 40
-44 40 -3 0 13 -18 34 -40z"/>
<path d="M30 3057 c0 -3 42 -31 93 -62 50 -32 148 -99 217 -150 168 -125 620
-420 605 -396 -3 5 -62 49 -133 98 -70 49 -194 138 -277 197 -82 60 -215 147
-295 194 -80 46 -160 93 -177 104 -18 11 -33 17 -33 15z"/>
<path d="M3450 2993 l-65 -68 68 65 c62 60 72 70 64 70 -1 0 -32 -30 -67 -67z"/>
<path d="M749 3006 c7 -9 158 -112 335 -230 176 -117 386 -262 466 -322 80
-60 153 -115 163 -122 9 -7 17 -11 17 -9 0 6 -161 136 -265 214 -142 107 -626
432 -697 469 -31 16 -32 16 -19 0z"/>
<path d="M1600 2976 c0 -11 30 -66 36 -66 2 0 -3 15 -12 33 -19 36 -24 44 -24
33z"/>
<path d="M1475 2930 c21 -22 41 -40 44 -40 3 0 -13 18 -34 40 -21 22 -41 40
-44 40 -3 0 13 -18 34 -40z"/>
<path d="M3306 2860 c-33 -35 -46 -57 -45 -77 1 -27 1 -26 9 6 4 18 27 53 51
77 24 24 41 44 37 44 -3 0 -26 -22 -52 -50z"/>
<path d="M0 2842 c0 -8 690 -355 696 -350 2 2 -154 83 -346 180 -193 97 -350
174 -350 170z"/>
<path d="M1695 2790 c9 -16 18 -30 21 -30 2 0 -2 14 -11 30 -9 17 -18 30 -21
30 -2 0 2 -13 11 -30z"/>
<path d="M2874 2695 c-34 -33 -71 -79 -82 -102 -33 -64 -166 -166 -264 -203
-30 -11 -73 -36 -94 -56 l-39 -35 40 29 c22 17 68 42 103 56 105 42 227 137
261 204 10 21 46 63 80 94 34 31 61 61 61 67 0 14 5 18 -66 -54z"/>
<path d="M3252 2710 c0 -14 2 -19 5 -12 2 6 2 18 0 25 -3 6 -5 1 -5 -13z"/>
<path d="M5 2672 c12 -13 537 -234 542 -229 2 2 -47 25 -109 52 -62 26 -171
72 -243 103 -193 82 -201 85 -190 74z"/>
<path d="M3236 2663 c-6 -14 -5 -15 5 -6 7 7 10 15 7 18 -3 3 -9 -2 -12 -12z"/>
<path d="M1565 2640 c10 -11 20 -20 23 -20 3 0 -3 9 -13 20 -10 11 -20 20 -23
20 -3 0 3 -9 13 -20z"/>
<path d="M1604 2612 c8 -13 66 -56 66 -49 0 3 -17 17 -37 33 -20 15 -33 23
-29 16z"/>
<path d="M1044 2563 c8 -15 278 -263 335 -309 27 -21 62 -37 110 -47 97 -22
178 -67 309 -170 6 -5 12 -7 12 -4 0 8 -147 117 -193 142 -23 13 -81 34 -129
48 -85 24 -89 26 -210 133 -67 60 -149 134 -182 164 -33 30 -56 49 -52 43z"/>
<path d="M1676 2552 c-3 -4 4 -9 15 -9 23 -2 25 3 4 10 -8 4 -16 3 -19 -1z"/>
<path d="M1780 2510 c8 -5 20 -10 25 -10 6 0 3 5 -5 10 -8 5 -19 10 -25 10 -5
0 -3 -5 5 -10z"/>
<path d="M2969 2503 c-13 -16 -12 -17 4 -4 16 13 21 21 13 21 -2 0 -10 -8 -17
-17z"/>
<path d="M2910 2461 c-19 -16 -33 -31 -30 -33 3 -2 21 11 40 29 43 41 36 43
-10 4z"/>
<path d="M740 2395 c14 -8 30 -14 35 -14 6 0 -1 6 -15 14 -14 8 -29 14 -35 14
-5 0 1 -6 15 -14z"/>
<path d="M2873 2318 c0 -90 -3 -103 -32 -163 -18 -36 -56 -90 -86 -120 -39
-40 -46 -51 -25 -40 38 19 104 97 131 152 27 56 33 109 21 198 l-9 70 0 -97z"/>
<path d="M1005 2271 c134 -66 270 -141 347 -193 70 -47 125 -81 122 -76 -9 15
-204 142 -301 197 -85 48 -368 182 -382 181 -3 -1 93 -49 214 -109z"/>
<path d="M1740 2316 c0 -2 8 -10 18 -17 15 -13 16 -12 3 4 -13 16 -21 21 -21
13z"/>
<path d="M2736 2247 c7 -110 -1 -142 -50 -189 -37 -37 -38 -39 -8 -19 64 44
81 104 63 221 l-10 65 5 -78z"/>
<path d="M2385 2279 c-4 -6 -5 -12 -2 -15 2 -3 7 2 10 11 7 17 1 20 -8 4z"/>
<path d="M2372 2225 c0 -16 2 -22 5 -12 2 9 2 23 0 30 -3 6 -5 -1 -5 -18z"/>
<path d="M2696 2123 c-6 -14 -5 -15 5 -6 7 7 10 15 7 18 -3 3 -9 -2 -12 -12z"/>
<path d="M1790 2120 c8 -5 20 -10 25 -10 6 0 3 5 -5 10 -8 5 -19 10 -25 10 -5
0 -3 -5 5 -10z"/>
<path d="M2357 2115 c-4 -8 -21 -24 -39 -35 -18 -11 -27 -20 -21 -20 17 0 80
57 72 65 -4 3 -9 -1 -12 -10z"/>
<path d="M1887 2081 c34 -16 44 -27 52 -58 6 -22 7 -51 3 -68 -12 -42 -83 -95
-130 -96 -25 -1 -30 -3 -13 -6 37 -7 69 5 111 43 78 71 57 176 -40 198 -14 3
-6 -3 17 -13z"/>
<path d="M2038 2021 c3 -99 7 -113 38 -150 l26 -31 -59 0 c-32 -1 -94 -7 -138
-15 -44 -9 -152 -24 -239 -35 -222 -29 -309 -49 -561 -134 -121 -41 -249 -79
-285 -85 -113 -17 -784 -132 -802 -137 -20 -6 -25 -44 -5 -44 6 0 28 5 47 10
115 34 682 137 1015 185 371 54 770 127 789 145 5 5 16 6 25 3 12 -4 13 -3 3
5 -10 7 -4 16 25 41 21 17 43 35 48 39 6 4 44 9 85 11 41 2 95 7 120 12 l45 8
-53 -3 c-51 -3 -54 -1 -80 32 -25 32 -27 43 -27 124 0 49 -4 89 -10 92 -6 2
-9 -25 -7 -73z m-108 -218 c-14 -9 -38 -28 -55 -44 -26 -24 -56 -32 -230 -68
-110 -22 -292 -52 -405 -66 -113 -14 -216 -28 -230 -31 -50 -10 98 48 247 96
162 53 263 73 438 90 61 6 135 17 165 24 30 8 64 14 75 15 17 1 16 -1 -5 -16z"/>
<path d="M2090 2076 c0 -2 7 -7 16 -10 8 -3 12 -2 9 4 -6 10 -25 14 -25 6z"/>
<path d="M2250 2050 c-8 -5 -10 -10 -5 -10 6 0 17 5 25 10 8 5 11 10 5 10 -5
0 -17 -5 -25 -10z"/>
<path d="M2564 2044 c-18 -14 -18 -14 6 -3 31 14 36 19 24 19 -6 0 -19 -7 -30
-16z"/>
<path d="M2939 2043 c-13 -16 -12 -17 4 -4 16 13 21 21 13 21 -2 0 -10 -8 -17
-17z"/>
<path d="M2131 2034 c0 -11 3 -14 6 -6 3 7 2 16 -1 19 -3 4 -6 -2 -5 -13z"/>
<path d="M3200 1985 c-33 -30 -55 -55 -49 -55 5 0 25 16 43 36 17 19 45 44 62
54 16 11 23 20 16 20 -7 0 -39 -25 -72 -55z"/>
<path d="M2535 2009 c-4 -6 -5 -12 -2 -15 2 -3 7 2 10 11 7 17 1 20 -8 4z"/>
<path d="M2246 1991 c18 -11 34 -25 37 -33 4 -10 6 -9 6 2 1 15 -46 50 -66 50
-4 0 6 -9 23 -19z"/>
<path d="M1360 1967 c14 -6 78 -35 144 -64 65 -28 128 -61 140 -73 12 -11 26
-20 31 -20 5 0 0 7 -11 15 -17 13 -13 15 46 16 l65 2 -65 6 c-36 4 -78 14 -95
23 -35 18 -263 108 -273 107 -4 0 4 -5 18 -12z"/>
<path d="M1506 1967 c3 -10 9 -15 12 -12 3 3 0 11 -7 18 -10 9 -11 8 -5 -6z"/>
<path d="M2160 1951 c0 -6 4 -13 10 -16 6 -3 7 1 4 9 -7 18 -14 21 -14 7z"/>
<path d="M2965 1940 c-13 -6 -15 -9 -5 -9 8 0 22 4 30 9 18 12 2 12 -25 0z"/>
<path d="M3108 1923 c7 -3 16 -2 19 1 4 3 -2 6 -13 5 -11 0 -14 -3 -6 -6z"/>
<path d="M3043 1913 c9 -2 23 -2 30 0 6 3 -1 5 -18 5 -16 0 -22 -2 -12 -5z"/>
<path d="M2838 1903 c7 -3 16 -2 19 1 4 3 -2 6 -13 5 -11 0 -14 -3 -6 -6z"/>
<path d="M2978 1903 c7 -3 16 -2 19 1 4 3 -2 6 -13 5 -11 0 -14 -3 -6 -6z"/>
<path d="M2306 1887 c3 -10 9 -15 12 -12 3 3 0 11 -7 18 -10 9 -11 8 -5 -6z"/>
<path d="M2214 1873 c11 -13 26 -23 35 -22 14 0 14 1 1 6 -8 3 -24 13 -35 22
-20 16 -20 16 -1 -6z"/>
<path d="M2878 1883 c7 -3 16 -2 19 1 4 3 -2 6 -13 5 -11 0 -14 -3 -6 -6z"/>
<path d="M2798 1873 c6 -2 18 -2 25 0 6 3 1 5 -13 5 -14 0 -19 -2 -12 -5z"/>
<path d="M3047 1863 c18 -2 50 -2 70 0 21 2 7 4 -32 4 -38 0 -55 -2 -38 -4z"/>
<path d="M2403 1853 c9 -2 23 -2 30 0 6 3 -1 5 -18 5 -16 0 -22 -2 -12 -5z"/>
<path d="M3207 1853 c18 -2 50 -2 70 0 21 2 7 4 -32 4 -38 0 -55 -2 -38 -4z"/>
<path d="M3363 1843 c15 -2 37 -2 50 0 12 2 0 4 -28 4 -27 0 -38 -2 -22 -4z"/>
<path d="M3478 1833 c6 -2 18 -2 25 0 6 3 1 5 -13 5 -14 0 -19 -2 -12 -5z"/>
<path d="M2135 1813 c-99 -23 -146 -36 -183 -50 -69 -26 -43 -24 43 3 105 33
196 42 214 21 11 -14 8 -19 -21 -37 -18 -11 -28 -20 -23 -20 21 0 77 42 82 61
3 11 14 19 27 19 17 0 19 -2 6 -11 -11 -8 -2 -9 34 -6 30 3 43 1 35 -4 -11 -6
-8 -9 8 -9 38 0 132 -40 148 -63 8 -11 17 -18 20 -15 10 10 -33 48 -71 62 -22
8 -32 15 -24 15 21 1 96 -34 105 -49 4 -7 2 -36 -5 -66 -11 -46 -11 -69 4
-161 29 -182 50 -256 200 -710 80 -241 171 -518 201 -615 l56 -178 120 0 c120
0 120 0 114 23 -4 12 -41 108 -82 212 -103 259 -223 512 -322 680 -166 282
-241 469 -256 634 -4 46 -2 40 15 -36 42 -192 91 -303 235 -538 51 -82 115
-193 143 -245 62 -117 200 -419 272 -597 l53 -133 132 0 132 0 -91 178 c-214
414 -349 626 -550 867 -147 176 -200 261 -263 416 -53 131 -64 203 -38 243 21
31 41 34 50 6 4 -11 41 -68 84 -128 97 -135 126 -183 246 -412 54 -102 129
-241 168 -310 39 -69 129 -233 202 -365 203 -372 277 -495 297 -495 13 0 -1
30 -61 128 -97 159 -220 380 -307 554 -157 314 -387 705 -517 877 -44 58 -86
120 -93 138 -14 33 -58 70 -84 70 -8 1 -24 4 -35 7 -11 4 -3 -2 18 -14 32 -18
36 -23 27 -40 -13 -24 -32 -36 -29 -19 4 35 -4 48 -43 69 -28 14 -34 20 -18
17 14 -3 34 -1 45 4 13 6 -3 8 -50 4 -48 -3 -65 -1 -55 5 8 6 83 9 170 9 85
-1 147 -5 138 -8 -10 -3 49 -6 130 -7 131 0 164 -4 307 -37 88 -19 189 -41
225 -47 233 -40 576 -142 1358 -403 l342 -115 0 42 0 43 -147 46 c-413 130
-944 275 -1248 341 -364 79 -686 139 -775 144 -121 7 -788 12 -815 5z m422
-185 c-3 -8 -6 -5 -6 6 -1 11 2 17 5 13 3 -3 4 -12 1 -19z"/>
<path d="M2595 1783 c11 -2 48 -13 82 -24 57 -19 62 -23 57 -44 -8 -31 26 -48
159 -81 114 -28 223 -80 517 -244 393 -219 523 -301 1273 -797 236 -156 430
-283 433 -283 2 0 4 16 4 35 0 32 -5 38 -57 71 -32 19 -222 137 -423 261 -653
405 -802 494 -997 603 -106 59 -189 111 -185 114 3 4 -2 4 -12 0 -13 -5 -17
-4 -12 4 3 6 1 14 -5 18 -8 4 -9 3 -5 -4 9 -15 1 -15 -25 -1 -11 5 -17 14 -14
19 3 5 0 12 -6 16 -8 4 -9 3 -5 -4 12 -20 -4 -14 -83 32 -158 91 -280 146
-368 167 -48 11 -109 27 -135 35 -45 15 -61 35 -38 49 6 4 8 10 5 15 -8 12
-131 50 -159 49 -20 -1 -20 -2 -1 -6z"/>
<path d="M2845 1765 c33 -14 97 -51 143 -82 128 -90 346 -224 317 -196 -5 5
-95 66 -200 135 -170 113 -272 168 -308 168 -7 0 15 -12 48 -25z"/>
<path d="M2900 1787 c0 -7 151 -69 156 -64 2 2 -26 16 -64 31 -94 39 -92 39
-92 33z"/>
<path d="M1985 1729 c-157 -53 -226 -86 -89 -44 111 35 272 94 254 94 -8 0
-82 -23 -165 -50z"/>
<path d="M3071 1716 c3 -3 63 -27 135 -54 176 -67 246 -98 614 -277 377 -183
713 -334 1025 -460 298 -120 277 -115 273 -74 l-3 33 -300 111 c-470 175 -614
236 -1005 425 -244 119 -435 198 -649 271 -86 29 -98 33 -90 25z"/>
<path d="M2195 1700 l-40 -7 35 0 c19 -1 49 3 65 7 27 7 27 8 5 7 -14 0 -43
-3 -65 -7z"/>
<path d="M2319 1701 c24 -15 6 -35 -106 -120 -130 -100 -343 -209 -633 -325
-107 -43 -355 -144 -550 -225 -438 -182 -388 -162 -735 -292 -242 -90 -291
-111 -293 -128 -2 -12 -1 -21 3 -21 21 0 648 251 1005 402 91 38 300 124 465
190 455 183 611 266 778 412 85 75 109 116 70 116 -15 0 -15 -2 -4 -9z"/>
<path d="M2013 1675 c-58 -26 -74 -44 -20 -21 47 19 94 45 82 45 -5 0 -34 -11
-62 -24z"/>
<path d="M2501 1634 c0 -11 3 -14 6 -6 3 7 2 16 -1 19 -3 4 -6 -2 -5 -13z"/>
<path d="M1810 1601 c-42 -24 -207 -72 -505 -147 -181 -45 -427 -107 -545
-137 -118 -30 -296 -73 -395 -95 -377 -85 -365 -82 -365 -103 0 -10 6 -19 13
-19 15 0 819 205 1017 259 80 22 264 72 409 111 152 41 294 85 335 104 39 19
67 35 61 35 -5 0 -17 -3 -25 -8z"/>
<path d="M2489 1575 c-1 -24 -4 -31 -6 -17 -2 12 -8 22 -13 22 -5 0 -4 -16 1
-36 29 -101 -59 -220 -249 -337 -48 -30 -102 -62 -119 -71 -55 -28 -37 -10 25
24 102 58 232 152 272 197 47 53 75 129 65 175 l-8 32 -19 -49 c-53 -134 -91
-164 -638 -490 -485 -290 -967 -604 -1419 -923 l-144 -102 69 0 70 0 159 117
c672 491 992 706 1325 893 188 105 200 112 200 106 0 -2 -51 -32 -112 -67
-361 -201 -716 -442 -1289 -871 l-229 -173 150 -3 150 -3 202 184 c477 430
642 555 1093 827 267 160 322 199 401 281 79 83 99 134 91 231 -7 81 -26 117
-28 53z m18 -47 c-3 -8 -6 -5 -6 6 -1 11 2 17 5 13 3 -3 4 -12 1 -19z m-50
-30 c-3 -8 -6 -5 -6 6 -1 11 2 17 5 13 3 -3 4 -12 1 -19z m-17 -53 c-25 -67
-122 -149 -310 -262 -79 -48 -110 -65 -110 -60 0 2 39 28 88 57 190 115 288
195 317 260 20 45 32 49 15 5z"/>
<path d="M1820 1570 c-8 -5 -10 -10 -5 -10 6 0 17 5 25 10 8 5 11 10 5 10 -5
0 -17 -5 -25 -10z"/>
<path d="M1770 1550 c-8 -5 -10 -10 -5 -10 6 0 17 5 25 10 8 5 11 10 5 10 -5
0 -17 -5 -25 -10z"/>
<path d="M3360 1510 c17 -32 134 -131 200 -169 36 -21 128 -73 205 -116 77
-43 237 -137 355 -208 357 -216 954 -573 978 -586 l22 -12 0 126 0 126 -697
346 c-671 332 -793 391 -985 474 -71 30 -86 34 -78 19z"/>
<path d="M3320 1476 c0 -3 9 -10 20 -16 11 -6 20 -8 20 -6 0 3 -9 10 -20 16
-11 6 -20 8 -20 6z"/>
<path d="M1435 1395 c-110 -35 -233 -74 -273 -86 -40 -12 -70 -24 -68 -26 7
-8 551 159 565 173 12 11 -42 -3 -224 -61z"/>
<path d="M898 1383 c7 -3 16 -2 19 1 4 3 -2 6 -13 5 -11 0 -14 -3 -6 -6z"/>
<path d="M858 1373 c7 -3 16 -2 19 1 4 3 -2 6 -13 5 -11 0 -14 -3 -6 -6z"/>
<path d="M1158 1373 c7 -3 16 -2 19 1 4 3 -2 6 -13 5 -11 0 -14 -3 -6 -6z"/>
<path d="M818 1363 c7 -3 16 -2 19 1 4 3 -2 6 -13 5 -11 0 -14 -3 -6 -6z"/>
<path d="M778 1353 c7 -3 16 -2 19 1 4 3 -2 6 -13 5 -11 0 -14 -3 -6 -6z"/>
<path d="M728 1343 c6 -2 18 -2 25 0 6 3 1 5 -13 5 -14 0 -19 -2 -12 -5z"/>
<path d="M688 1333 c7 -3 16 -2 19 1 4 3 -2 6 -13 5 -11 0 -14 -3 -6 -6z"/>
<path d="M638 1323 c6 -2 18 -2 25 0 6 3 1 5 -13 5 -14 0 -19 -2 -12 -5z"/>
<path d="M598 1313 c7 -3 16 -2 19 1 4 3 -2 6 -13 5 -11 0 -14 -3 -6 -6z"/>
<path d="M548 1303 c6 -2 18 -2 25 0 6 3 1 5 -13 5 -14 0 -19 -2 -12 -5z"/>
<path d="M498 1293 c6 -2 18 -2 25 0 6 3 1 5 -13 5 -14 0 -19 -2 -12 -5z"/>
<path d="M448 1283 c6 -2 18 -2 25 0 6 3 1 5 -13 5 -14 0 -19 -2 -12 -5z"/>
<path d="M393 1273 c9 -2 23 -2 30 0 6 3 -1 5 -18 5 -16 0 -22 -2 -12 -5z"/>
<path d="M338 1263 c6 -2 18 -2 25 0 6 3 1 5 -13 5 -14 0 -19 -2 -12 -5z"/>
<path d="M1505 1255 c-25 -12 -26 -14 -5 -9 28 7 60 23 45 23 -5 0 -23 -6 -40
-14z"/>
<path d="M283 1253 c9 -2 23 -2 30 0 6 3 -1 5 -18 5 -16 0 -22 -2 -12 -5z"/>
<path d="M195 1240 c-27 -7 -27 -8 -5 -8 14 0 36 4 50 8 20 6 21 8 5 8 -11 0
-33 -4 -50 -8z"/>
<path d="M60 1215 c-30 -7 -46 -13 -35 -13 11 -1 47 5 80 12 33 8 49 14 35 14
-14 0 -50 -6 -80 -13z"/>
<path d="M3460 1015 c13 -14 26 -25 28 -25 3 0 -5 11 -18 25 -13 14 -26 25
-28 25 -3 0 5 -11 18 -25z"/>
<path d="M2312 898 c-238 -367 -308 -468 -460 -666 -95 -122 -172 -225 -172
-227 0 -3 24 -5 53 -5 l52 0 120 197 c66 109 140 234 166 278 45 80 260 436
293 488 10 15 16 27 13 27 -2 0 -31 -42 -65 -92z"/>
<path d="M750 948 c-14 -6 -187 -66 -385 -133 -258 -88 -361 -127 -363 -139
-2 -9 -1 -16 3 -16 27 0 702 251 762 284 32 17 21 20 -17 4z"/>
<path d="M3540 925 c19 -19 36 -35 39 -35 3 0 -10 16 -29 35 -19 19 -36 35
-39 35 -3 0 10 -16 29 -35z"/>
<path d="M3625 830 c21 -22 41 -40 44 -40 3 0 -13 18 -34 40 -21 22 -41 40
-44 40 -3 0 13 -18 34 -40z"/>
<path d="M3716 730 c17 -19 96 -114 175 -210 149 -183 305 -365 395 -462 39
-43 60 -58 79 -58 30 0 66 -43 -389 455 -196 213 -336 362 -260 275z"/>
<path d="M814 504 c-18 -14 -18 -15 4 -4 12 6 22 13 22 15 0 8 -5 6 -26 -11z"/>
<path d="M429 254 c-178 -118 -331 -222 -339 -231 -14 -14 643 419 665 439 34
30 -41 -17 -326 -208z"/>
</g>
</svg>