<?xml version="1.0" standalone="no"?>
<!DOCTYPE svg PUBLIC "-//W3C//DTD SVG 20010904//EN"
 "http://www.w3.org/TR/2001/REC-SVG-20010904/DTD/svg10.dtd">
<svg version="1.0" xmlns="http://www.w3.org/2000/svg"
 width="512.000000pt" height="512.000000pt" viewBox="0 0 512.000000 512.000000"
 preserveAspectRatio="xMidYMid meet">
<metadata>
Created by potrace 1.16, written by Peter Selinger 2001-2019
</metadata>
<g transform="translate(0.000000,512.000000) scale(0.100000,-0.100000)"
fill="#000000" stroke="none">
<path d="M2485 2918 c-44 -16 -84 -37 -90 -46 -12 -21 -33 -79 -87 -237 -22
-66 -46 -125 -52 -131 -13 -13 -311 -38 -726 -59 -157 -8 -309 -18 -337 -21
-38 -4 -53 -2 -53 6 0 8 10 10 25 8 26 -5 32 6 16 30 -14 22 -45 9 -56 -23 -5
-16 -20 -40 -32 -54 -19 -19 -23 -35 -23 -87 0 -60 -2 -64 -22 -64 -13 0 -38
9 -56 20 -46 28 -59 25 -72 -16 -12 -35 -9 -120 4 -154 5 -11 -12 -24 -63 -49
-101 -49 -174 -131 -116 -131 8 0 47 17 87 38 120 63 167 75 277 70 131 -6
187 -35 388 -194 318 -252 459 -316 693 -312 l105 1 -102 6 c-56 3 -104 9
-108 13 -32 31 193 46 362 24 67 -9 153 -16 192 -16 l71 0 0 64 0 65 105 3
105 3 0 -67 0 -68 213 -2 c116 -2 -6 -5 -273 -8 l-485 -5 535 0 535 0 13 28
c8 16 20 72 28 125 20 134 60 216 138 289 193 178 473 189 648 25 45 -42 128
-164 128 -188 0 -5 -13 14 -29 42 -38 65 -131 151 -206 189 -57 29 -66 30
-185 30 -142 -1 -193 -15 -298 -85 -100 -67 -149 -156 -177 -322 -19 -115 -31
-144 -58 -152 -12 -3 -334 -6 -716 -6 -594 0 -702 2 -753 15 -139 37 -274 116
-483 285 -88 71 -180 136 -224 157 -65 33 -84 38 -166 41 -196 9 -257 -35
-372 -266 -1 -2 -12 3 -25 12 -22 14 -191 27 -203 15 -6 -6 19 -152 35 -209
l10 -36 100 1 101 1 -6 -24 c-13 -52 69 -179 158 -243 l37 -27 -157 -6 c-272
-11 -384 -18 -379 -24 4 -3 239 -9 524 -13 284 -4 571 -13 637 -19 177 -17
1679 -17 1765 -1 56 11 542 23 1250 30 78 1 111 4 104 11 -6 6 -120 13 -287
17 l-276 6 42 27 c90 57 172 183 184 281 3 27 9 52 13 54 4 2 26 -4 49 -15 22
-11 62 -23 88 -27 l48 -6 -60 59 c-40 39 -75 87 -104 144 -63 122 -98 166
-162 209 -79 53 -168 76 -266 68 -63 -5 -92 -13 -158 -46 -99 -49 -164 -114
-225 -224 -45 -82 -60 -94 -40 -30 24 73 69 151 115 196 97 97 275 154 407
129 152 -28 256 -117 357 -304 44 -80 79 -132 112 -163 51 -48 56 -50 78 -36
12 8 12 12 2 25 -8 9 -21 16 -30 16 -9 0 -29 11 -46 25 l-30 24 25 2 c23 1 23
2 -4 8 -44 9 -45 31 -2 31 22 0 36 -5 36 -12 1 -21 17 13 24 51 6 32 5 33 -20
27 l-27 -7 7 151 c4 82 4 191 0 240 -6 86 -8 90 -30 90 -20 0 -24 5 -24 33 0
41 -15 57 -56 57 -104 0 -136 -41 -178 -232 l-6 -27 -36 21 c-20 12 -38 26
-40 33 -3 6 13 71 35 144 22 73 45 158 52 189 6 31 17 61 25 65 24 14 17 56
-10 63 -29 7 -616 -13 -639 -22 -19 -7 -26 -25 -29 -79 l-2 -40 -85 -1 c-47
-1 -165 -7 -261 -14 -96 -7 -298 -14 -448 -16 -256 -4 -273 -3 -292 14 -21 19
-20 19 36 66 31 25 59 46 63 46 4 0 22 -16 41 -35 56 -58 71 -37 21 30 -32 43
-31 56 5 80 24 15 26 15 62 -15 36 -29 62 -39 62 -22 0 25 -145 202 -166 202
-22 0 -17 -31 12 -74 l26 -39 -31 -24 c-17 -14 -29 -30 -25 -36 7 -14 -40 38
-65 73 -18 24 -18 27 5 105 28 94 36 171 20 183 -6 5 -45 -4 -91 -20z m80 2
c-3 -5 -16 -10 -28 -9 -21 0 -21 1 -2 9 28 12 37 12 30 0z m-87 -270 c-39
-115 -74 -207 -78 -205 -5 3 -10 2 -13 -2 -2 -5 -2 -1 1 7 2 8 7 42 12 75 4
33 29 122 55 198 43 123 50 137 71 137 22 0 21 -4 -48 -210z m2 176 c0 -12
-84 -243 -93 -253 -5 -7 -25 -13 -43 -13 -40 0 -41 -4 11 150 29 89 34 96 66
107 36 13 59 16 59 9z m69 -212 c25 -41 25 -44 9 -44 -7 0 -22 -8 -33 -16 -19
-15 -19 -15 10 -9 l30 7 -41 -40 c-23 -22 -51 -61 -64 -86 -21 -44 -40 -53
-40 -18 0 13 2 14 9 4 10 -16 38 47 73 160 12 43 24 78 25 78 0 0 10 -16 22
-36z m1674 -71 c-18 -2 -48 -2 -65 0 -18 2 -4 4 32 4 36 0 50 -2 33 -4z m-180
-10 c-40 -2 -106 -2 -145 0 -40 1 -8 3 72 3 80 0 112 -2 73 -3z m-265 -10
c-27 -2 -69 -2 -95 0 -27 2 -5 3 47 3 52 0 74 -1 48 -3z m-1424 -16 c17 -12
14 -14 -27 -14 -33 0 -44 4 -40 14 3 7 15 13 27 13 12 0 30 -6 40 -13z m1923
7 c-3 -3 -12 -4 -19 -1 -8 3 -5 6 6 6 11 1 17 -2 13 -5z m-39 -66 c-12 -73
-53 -153 -91 -182 -49 -36 -86 -44 -219 -51 -68 -3 -145 -11 -173 -17 -136
-29 -277 -145 -340 -281 -19 -41 -42 -77 -51 -81 -24 -9 -337 -7 -353 3 -11 7
-12 28 -3 122 6 63 14 162 18 220 l6 107 37 6 c20 3 196 7 391 8 317 2 333 3
155 8 l-200 6 191 2 c105 1 207 4 225 7 30 4 31 4 9 -5 -19 -7 -10 -9 40 -6
46 2 81 11 117 30 34 17 68 26 98 26 63 0 82 12 112 76 14 30 29 54 33 54 4 0
3 -24 -2 -52z m-1870 -7 c7 -21 12 -50 12 -65 0 -14 5 -26 10 -26 12 0 7 -302
-6 -437 l-7 -73 -121 0 -121 0 -2 230 c-3 246 -11 293 -59 357 -13 17 -24 34
-24 37 0 3 46 7 103 9 56 1 125 4 153 5 l51 2 11 -39z m-1198 19 c0 -5 -7 -10
-16 -10 -8 0 -12 5 -9 10 3 6 10 10 16 10 5 0 9 -4 9 -10z m3025 1 c-6 -5
-134 -11 -285 -14 -151 -2 -259 -3 -240 0 19 2 145 7 280 12 135 4 247 9 250
9 2 1 0 -2 -5 -7z m-2310 -57 c8 -19 17 -57 21 -83 l6 -48 -333 -6 c-184 -4
-344 -4 -356 -1 -20 6 -23 13 -23 63 0 31 -5 62 -12 69 -9 9 -2 12 33 13 24 0
177 8 339 18 162 9 298 15 303 13 4 -2 14 -19 22 -38z m173 19 c27 -39 52
-116 41 -127 -5 -5 -46 -12 -92 -14 l-84 -4 -6 55 c-3 30 -13 69 -21 86 l-17
31 80 0 c75 0 81 -1 99 -27z m1445 -20 c-7 -2 -21 -2 -30 0 -10 3 -4 5 12 5
17 0 24 -2 18 -5z m-997 -31 c-4 -3 -14 2 -24 12 -16 18 -16 18 6 6 13 -6 21
-14 18 -18z m889 -4 c-4 -13 -14 -28 -22 -35 -12 -10 -10 -12 14 -15 15 -2
-99 -4 -255 -4 -209 -1 -287 -5 -295 -14 -9 -9 7 -11 77 -8 66 3 89 1 93 -9 3
-7 0 -90 -7 -185 -10 -159 -13 -175 -36 -205 l-25 -33 -157 1 c-86 1 -200 4
-252 8 -92 6 -95 7 -95 30 0 14 -6 26 -13 29 -15 5 -17 -54 -1 -63 6 -4 70
-10 142 -14 l132 -8 -149 -1 -149 -2 7 63 c3 34 9 144 13 245 l6 182 315 -2
315 -3 33 33 32 32 142 0 141 0 -6 -22z m528 5 c-51 -2 -136 -2 -190 0 -54 1
-12 3 92 3 105 0 149 -2 98 -3z m-890 -10 c-7 -2 -21 -2 -30 0 -10 3 -4 5 12
5 17 0 24 -2 18 -5z m-1843 -138 c0 -83 -4 -135 -10 -135 -6 0 -10 33 -11 78
-1 113 -7 127 -52 125 -30 -2 -37 1 -37 16 0 42 11 51 61 51 l49 0 0 -135z
m3000 38 c-53 -169 -51 -165 -74 -158 -41 14 -213 17 -266 6 -89 -19 -176 -67
-244 -134 -75 -76 -110 -145 -131 -263 -26 -143 -27 -146 -35 -99 -3 22 -9 46
-14 54 -7 11 -11 50 -17 169 -2 41 61 151 121 213 101 103 229 148 423 149
103 0 158 15 204 56 21 18 39 33 40 34 1 0 -2 -12 -7 -27z m-2076 -75 c8 -115
8 -311 0 -332 -5 -13 -23 -16 -95 -16 l-89 0 0 208 0 209 83 10 c45 5 85 10
88 11 3 1 9 -39 13 -90z m2250 66 c9 -23 6 -222 -3 -269 -6 -29 -9 1 -10 107
0 80 -4 153 -7 162 -3 9 -2 16 4 16 5 0 13 -7 16 -16z m-3369 -19 c14 -13 25
-36 25 -50 0 -22 -3 -24 -19 -16 -11 6 -29 23 -41 38 l-21 28 6 -40 c7 -50
-10 -83 -21 -41 -8 34 14 106 33 106 8 0 25 -11 38 -25z m915 -190 l0 -215
-164 0 c-94 0 -167 4 -171 10 -3 5 -6 83 -7 175 -1 91 -5 165 -10 165 -4 0 -8
-72 -8 -161 0 -104 -3 -158 -10 -154 -6 4 -10 69 -10 161 0 101 -3 153 -10
149 -6 -4 -10 -63 -10 -143 -1 -99 -3 -132 -11 -119 -6 10 -9 69 -7 142 2 69
0 125 -3 125 -14 0 -18 -47 -12 -149 5 -98 4 -104 -11 -86 -12 15 -15 45 -16
129 0 60 -3 106 -7 103 -3 -4 -5 -52 -4 -108 1 -68 -2 -99 -9 -94 -5 3 -10 43
-10 90 0 46 -3 90 -6 99 -14 36 -19 11 -16 -75 2 -63 0 -89 -7 -84 -6 3 -12
41 -13 83 l-2 77 -3 -72 -4 -73 -47 24 c-26 13 -62 27 -79 31 l-33 7 0 84 0
84 293 3 c160 1 318 3 350 5 l57 2 0 -215z m-842 121 c3 -51 -11 -57 -21 -9
-3 16 -9 36 -13 47 -5 14 -3 17 12 14 15 -2 20 -13 22 -52z m3451 -133 c-1
-93 -4 -199 -8 -238 -5 -64 -8 -70 -30 -73 -22 -4 -23 -1 -18 35 4 21 9 124
12 228 4 105 8 196 11 203 2 6 10 12 19 12 13 0 15 -23 14 -167z m-3500 83 c9
-11 6 -14 -18 -18 -26 -4 -28 -2 -17 14 13 22 20 22 35 4z m225 -56 c81 -27
118 -53 217 -145 47 -44 99 -87 115 -95 16 -8 38 -21 49 -30 18 -14 19 -14 7
1 -11 14 0 17 101 22 61 4 258 7 437 7 434 0 768 16 791 36 16 14 18 14 21 -8
l3 -23 203 -3 203 -2 9 -25 c6 -16 5 -38 -3 -67 l-13 -43 -529 0 c-337 0 -622
-5 -782 -14 l-252 -15 -48 33 -48 33 40 -36 c22 -20 61 -50 88 -68 26 -17 47
-33 47 -36 0 -5 -127 66 -176 99 -22 15 -112 85 -200 154 -182 146 -266 192
-378 208 -107 15 -196 -3 -313 -63 -53 -28 -89 -42 -86 -34 11 28 147 110 208
125 17 4 75 7 131 8 77 1 115 -4 158 -19z m2827 -116 c106 -31 199 -116 235
-216 8 -24 15 -72 15 -108 -1 -157 -81 -284 -220 -349 -47 -22 -70 -26 -146
-26 -77 0 -98 4 -148 27 -72 34 -162 118 -194 182 -28 55 -40 139 -25 176 l11
25 0 -27 c1 -16 5 -28 10 -28 5 0 11 -8 13 -17 2 -11 11 3 22 34 20 61 39 81
24 26 -22 -79 15 -206 77 -268 117 -118 315 -110 432 18 23 25 49 60 59 78 9
19 24 39 33 46 27 19 22 166 -7 223 -35 67 -106 135 -176 167 -53 24 -74 28
-156 28 -93 0 -94 0 -45 12 71 16 123 15 186 -3z m-2864 -46 c235 -87 315
-382 148 -552 -93 -94 -255 -126 -361 -70 -115 61 -188 169 -188 283 -2 184
157 320 329 282 30 -7 57 -15 59 -19 2 -4 -36 -6 -84 -4 -73 3 -97 0 -139 -19
-132 -56 -177 -209 -106 -355 48 -97 170 -164 274 -150 103 14 210 96 253 193
42 95 3 231 -92 322 -76 73 -108 86 -216 86 -82 0 -96 -3 -156 -34 -70 -35
-99 -61 -142 -125 -31 -46 -34 -40 -7 12 77 150 257 213 428 150z m2622 28
c-2 -2 -15 -9 -29 -15 -24 -11 -24 -11 -6 3 16 13 49 24 35 12z m-89 -49 c0
-2 -12 -14 -27 -28 l-28 -24 24 28 c23 25 31 32 31 24z m341 -33 c97 -53 149
-142 149 -254 0 -118 -50 -199 -155 -251 -59 -29 -71 -31 -137 -27 -47 3 -88
12 -114 26 -127 65 -182 232 -118 360 50 101 174 163 284 142 108 -20 187
-111 197 -228 6 -65 -21 -145 -60 -179 l-21 -18 21 30 c46 67 63 141 47 202
l-6 21 -60 -20 c-48 -16 -62 -18 -71 -8 -9 9 -9 11 -1 7 10 -6 38 1 112 28 17
6 1 38 -41 83 -31 32 -61 46 -37 17 11 -13 8 -23 -18 -59 -17 -24 -30 -45 -29
-47 1 -2 -3 1 -9 8 -6 7 -16 13 -23 13 -14 0 -14 13 1 28 18 18 27 14 21 -10
-6 -25 1 -20 35 26 12 15 18 33 15 40 -4 6 -8 15 -8 21 0 5 -22 16 -49 23 -40
12 -60 12 -102 3 -56 -13 -121 -51 -117 -69 2 -6 -3 -9 -10 -6 -8 3 -24 -15
-42 -48 -37 -68 -40 -152 -8 -214 30 -57 103 -119 158 -134 137 -38 292 64
319 211 16 91 -42 210 -129 264 -43 26 -57 30 -124 30 -75 0 -100 -7 -163 -49
-39 -26 -35 -12 4 16 90 63 197 71 289 22z m-2910 -50 c112 -33 190 -158 175
-277 -16 -118 -92 -192 -210 -204 -157 -16 -287 103 -288 265 -1 111 47 179
152 216 58 20 104 20 171 0z m2788 -64 c0 -28 -2 -31 -9 -15 -5 11 -9 36 -9
55 0 28 2 31 9 15 5 -11 9 -36 9 -55z m-133 41 c-3 -5 1 -11 9 -15 8 -3 15
-11 15 -17 0 -7 -8 -5 -20 6 -17 15 -19 35 -4 35 3 0 3 -4 0 -9z m-3125 -39
c4 -4 9 -19 13 -33 7 -32 -9 -39 -95 -39 l-57 0 13 -62 c13 -62 11 -88 -6 -71
-8 8 -49 189 -49 216 0 11 170 2 181 -11z m3179 -59 c0 -14 -3 -13 -21 3 -12
10 -31 33 -42 49 l-22 30 43 -33 c23 -19 42 -41 42 -49z m47 31 c2 -6 -4 -14
-13 -18 -19 -7 -47 11 -38 26 8 12 46 6 51 -8z m70 -39 c30 -21 39 -66 17 -82
-10 -7 -29 -13 -42 -13 -33 0 -23 24 11 28 15 2 25 8 22 13 -11 17 -44 9 -71
-16 -21 -19 -29 -22 -36 -13 -14 23 -8 57 14 78 26 24 55 26 85 5z m-1417 -55
l0 -61 -37 7 c-79 13 -161 37 -233 67 -71 30 -73 32 -45 38 17 4 94 7 173 8
l142 1 0 -60z m1231 45 c24 -9 49 -13 55 -11 9 3 10 -3 3 -26 -6 -22 -4 -39 7
-62 15 -31 15 -31 -3 -9 -17 21 -22 22 -77 13 -32 -5 -61 -12 -64 -15 -12 -11
34 -89 72 -121 22 -19 43 -34 47 -34 3 0 17 24 29 53 13 28 25 46 27 39 3 -7
-7 -32 -21 -56 l-26 -44 23 -6 c12 -3 32 -6 45 -6 23 0 24 2 20 70 -2 39 0 70
5 70 4 0 7 -32 7 -71 l0 -71 38 7 c20 3 47 13 59 21 l22 14 -35 52 c-19 29
-38 53 -43 53 -20 0 -18 11 3 21 20 9 23 8 19 -5 -2 -9 14 -39 36 -68 l40 -52
-29 -21 c-65 -46 -177 -44 -252 6 -40 26 -98 115 -98 150 0 19 8 22 62 28 58
6 77 16 78 41 0 6 -30 20 -67 32 -38 11 -58 22 -47 22 12 1 41 -6 65 -14z
m-3091 -20 c0 -12 -14 -15 -70 -15 -56 0 -70 3 -70 15 0 12 14 15 70 15 56 0
70 -3 70 -15z m3007 -17 c-3 -8 -6 -5 -6 6 -1 11 2 17 5 13 3 -3 4 -12 1 -19z
m417 -59 c15 -7 8 -7 -24 -3 -25 4 -55 7 -67 8 -13 1 -23 5 -23 10 0 10 82 -1
114 -15z m-3 -57 c-24 -47 -46 -68 -56 -52 -9 14 14 42 28 33 6 -4 7 -1 3 6
-5 7 0 21 10 32 28 31 36 22 15 -19z m-2469 13 c94 6 100 5 155 -22 l58 -28
356 -3 356 -3 11 -25 c12 -24 12 -24 161 -24 156 0 181 4 181 25 0 15 61 21
272 29 l127 5 24 -42 c31 -52 126 -143 169 -162 29 -12 -113 -14 -1099 -15
l-1133 0 45 41 c44 41 115 164 115 200 0 27 28 38 69 27 21 -6 76 -7 133 -3z
m2177 -2 c-25 -30 -59 -62 -59 -56 0 8 61 73 68 73 3 0 -2 -8 -9 -17z m-265
-116 l46 -68 -31 17 c-17 8 -51 34 -76 57 l-44 41 23 12 c13 7 26 12 29 11 4
-1 28 -33 53 -70z"/>
<path d="M3048 2248 c-7 -18 2 -38 16 -38 18 0 35 21 29 36 -6 17 -39 18 -45
2z m32 -13 c0 -8 -4 -15 -9 -15 -13 0 -22 16 -14 24 11 11 23 6 23 -9z"/>
<path d="M2843 2252 c-8 -20 3 -25 56 -23 27 1 52 -3 56 -8 3 -6 12 -8 21 -4
11 4 12 9 3 19 -9 11 -8 14 5 14 9 0 16 4 16 9 0 14 -152 8 -157 -7z m97 -6
c8 -2 -9 -4 -37 -5 -29 0 -53 3 -53 7 0 7 52 6 90 -2z"/>
<path d="M1590 2020 c0 -97 4 -160 10 -160 6 0 9 61 7 160 -1 88 -5 160 -9
160 -5 0 -8 -72 -8 -160z"/>
<path d="M1632 2013 c2 -170 6 -150 10 55 2 61 0 112 -4 112 -5 0 -7 -75 -6
-167z"/>
<path d="M1668 2038 c-3 -79 -1 -152 3 -163 4 -11 8 53 8 143 1 89 -1 162 -3
162 -2 0 -6 -64 -8 -142z"/>
<path d="M1706 2134 c-9 -71 -7 -257 4 -274 6 -10 10 41 10 153 0 92 -2 167
-4 167 -2 0 -6 -21 -10 -46z"/>
<path d="M1748 2023 c1 -86 5 -159 7 -162 3 -2 5 68 5 157 0 89 -3 162 -7 162
-5 0 -7 -71 -5 -157z"/>
<path d="M1785 2020 c0 -87 4 -162 8 -166 4 -4 7 68 7 159 0 92 -4 167 -8 167
-4 0 -8 -72 -7 -160z"/>
<path d="M1827 2023 c3 -87 7 -160 9 -162 2 -2 4 68 4 157 0 91 -4 162 -9 162
-6 0 -7 -65 -4 -157z"/>
<path d="M1861 2053 c0 -71 4 -146 8 -168 6 -28 9 11 10 128 1 105 -3 167 -9
167 -6 0 -10 -49 -9 -127z"/>
<path d="M1650 1776 c0 -2 8 -10 18 -17 15 -13 16 -12 3 4 -13 16 -21 21 -21
13z"/>
<path d="M1690 1746 c0 -2 8 -10 18 -17 15 -13 16 -12 3 4 -13 16 -21 21 -21
13z"/>
<path d="M1092 1780 c50 -5 77 -14 108 -35 47 -33 58 -45 32 -39 -18 5 -65
-47 -65 -72 0 -9 -5 -9 -17 -2 -14 9 -11 15 22 51 20 22 34 45 31 50 -10 16
-71 37 -108 37 -30 0 -35 -3 -31 -17 15 -53 17 -103 5 -103 -7 0 -23 -10 -36
-22 -17 -16 -23 -18 -23 -7 0 9 -13 28 -30 44 -16 16 -30 33 -30 39 0 5 18 -7
40 -29 33 -32 41 -36 55 -25 15 13 21 74 9 104 -3 9 -15 16 -26 16 -10 0 -16
-4 -13 -10 3 -6 -1 -7 -10 -4 -18 7 -47 -14 -38 -29 3 -5 1 -7 -4 -4 -25 16
-73 -78 -73 -143 0 -40 20 -101 41 -126 8 -10 17 -5 41 22 16 18 35 34 41 34
6 0 -6 -18 -28 -40 -44 -45 -56 -42 -86 25 -10 22 -19 34 -19 27 -1 -48 81
-141 149 -169 81 -34 202 7 255 86 100 149 -17 354 -200 350 l-59 -2 67 -7z
m32 -98 c2 -4 1 -14 -4 -21 -6 -11 -10 -9 -19 8 -10 17 -9 21 3 21 8 0 17 -4
20 -8z m4 -58 c25 -18 30 -65 8 -84 -18 -14 -58 -10 -64 8 -3 9 3 11 21 7 14
-4 28 -2 31 4 5 7 -5 11 -28 11 -43 0 -66 -30 -44 -58 12 -15 11 -16 -4 -3
-27 20 -23 77 7 106 28 29 42 31 73 9z m172 -12 c0 -5 -27 -13 -60 -18 -46 -8
-61 -7 -64 3 -4 9 13 13 57 16 34 2 63 4 65 5 1 1 2 -2 2 -6z m-290 -32 c0
-17 -7 -20 -49 -20 -28 0 -53 5 -57 11 -5 9 8 10 45 7 39 -4 51 -2 51 8 0 8 2
14 5 14 3 0 5 -9 5 -20z m295 -29 c0 -22 -3 -37 -7 -34 -5 2 -8 -6 -8 -19 0
-39 -45 -94 -102 -122 -75 -37 -139 -32 -208 19 -44 33 -22 33 26 0 43 -29 54
-22 54 37 0 35 11 54 23 41 4 -3 3 -13 -2 -22 -4 -9 -11 -31 -14 -48 l-6 -33
43 0 c76 0 79 4 48 66 -18 37 -23 57 -16 64 7 7 11 6 11 -3 0 -8 10 -36 22
-61 l22 -47 29 21 c44 32 57 60 34 77 -10 7 -23 13 -30 13 -6 0 -17 7 -24 15
-19 23 3 18 44 -10 33 -22 36 -23 36 -6 0 10 -9 21 -20 24 -11 3 -20 11 -20
19 0 11 2 11 9 0 13 -21 23 -16 37 17 7 17 14 31 16 31 2 0 3 -18 3 -39z m-89
-6 c18 -13 18 -14 -4 -8 -12 3 -25 9 -28 14 -8 14 10 11 32 -6z m-29 -72 c-4
-3 0 -17 8 -30 9 -13 12 -23 7 -23 -5 0 -14 11 -20 25 -15 32 -15 35 0 35 6 0
8 -3 5 -7z m-156 -54 c8 -16 6 -19 -9 -19 -23 0 -46 25 -38 39 9 14 34 3 47
-20z m97 -36 c-10 -2 -26 -2 -35 0 -10 3 -2 5 17 5 19 0 27 -2 18 -5z"/>
<path d="M873 1585 c0 -27 2 -38 4 -22 2 15 2 37 0 50 -2 12 -4 0 -4 -28z"/>
<path d="M2807 1543 c18 -2 50 -2 70 0 21 2 7 4 -32 4 -38 0 -55 -2 -38 -4z"/>
</g>
</svg>