<?xml version="1.0" standalone="no"?>
<!DOCTYPE svg PUBLIC "-//W3C//DTD SVG 20010904//EN"
 "http://www.w3.org/TR/2001/REC-SVG-20010904/DTD/svg10.dtd">
<svg version="1.0" xmlns="http://www.w3.org/2000/svg"
 width="512.000000pt" height="512.000000pt" viewBox="0 0 512.000000 512.000000"
 preserveAspectRatio="xMidYMid meet">
<metadata>
Created by potrace 1.16, written by Peter Selinger 2001-2019
</metadata>
<g transform="translate(0.000000,512.000000) scale(0.100000,-0.100000)"
fill="#000000" stroke="none">
<path d="M2388 4042 c-72 -207 -269 -748 -307 -844 -13 -34 -34 -35 -190 -13
-57 8 -106 13 -108 11 -2 -2 63 -16 144 -32 l147 -30 43 -52 c46 -56 54 -76
26 -68 -43 12 -547 89 -858 131 -187 25 -357 49 -379 54 -21 5 -35 6 -30 2 5
-5 70 -57 144 -116 148 -120 292 -242 421 -361 46 -42 156 -140 244 -217 88
-77 175 -153 193 -169 41 -36 40 -44 -17 -183 -51 -123 -173 -476 -167 -482 6
-6 41 63 111 222 74 169 94 206 149 288 46 68 57 116 40 162 -4 9 -59 56 -123
104 -64 49 -164 128 -222 177 -117 98 -482 410 -538 461 l-36 32 35 1 c98 0
707 -82 933 -127 133 -26 139 -27 149 -9 9 16 13 15 49 -20 21 -21 39 -42 39
-46 0 -4 -15 -8 -32 -9 l-33 -1 30 -9 c17 -5 41 -11 54 -14 34 -6 110 -84 145
-148 25 -45 26 -50 7 -33 -12 11 -27 21 -34 22 -7 2 -58 23 -114 48 -210 94
-373 141 -737 212 -184 35 -250 41 -104 9 46 -10 87 -21 91 -25 4 -4 -17 -10
-47 -13 -102 -10 -100 -15 30 -113 103 -77 564 -391 618 -421 18 -10 18 -12 1
-76 -16 -59 -25 -72 -109 -158 l-92 -94 -43 -155 c-23 -85 -85 -312 -136 -505
-92 -341 -134 -490 -150 -529 -8 -18 -7 -19 13 -5 30 22 268 236 541 488 128
119 237 217 241 219 11 4 72 -59 250 -258 153 -172 374 -416 408 -450 26 -25
-95 146 -231 329 -105 141 -254 327 -355 444 -14 16 -13 20 9 43 13 15 -16 -2
-66 -36 -141 -98 -324 -261 -612 -544 l-123 -120 26 94 c14 52 75 291 135 530
l110 435 71 72 c40 40 73 71 75 70 1 -2 -6 -31 -17 -64 -11 -34 -51 -183 -89
-330 -61 -234 -112 -412 -136 -478 -4 -11 2 -5 14 13 11 17 25 32 31 32 18 0
159 141 234 234 40 50 146 187 234 305 l162 214 0 -126 0 -126 -95 -77 c-139
-111 -120 -109 28 4 32 24 60 43 61 41 35 -41 259 -313 437 -531 283 -345 343
-417 346 -414 8 8 -146 557 -167 595 -11 21 -70 77 -70 67 0 -4 9 -21 20 -36
19 -27 142 -382 153 -445 13 -64 -138 289 -199 469 -36 104 -33 115 18 74 244
-196 647 -502 653 -496 9 9 -111 450 -168 619 -79 235 -185 491 -232 562 -57
84 -53 93 92 219 378 330 671 588 685 604 16 19 10 19 -325 17 -188 -2 -444
-7 -569 -13 -125 -5 -233 -7 -241 -4 -24 9 -33 41 -98 337 -34 158 -63 286
-65 285 -1 -2 13 -144 32 -316 l35 -313 -26 -30 -25 -30 -9 23 c-5 13 -19 61
-31 106 -12 46 -24 81 -27 79 -7 -7 37 -170 53 -194 19 -30 18 -56 -6 -84
l-19 -24 -1 29 c0 57 -72 353 -126 521 -123 382 -152 533 -52 268 34 -89 64
-161 66 -159 4 5 -29 123 -58 206 -10 30 -47 141 -80 245 -34 105 -63 191 -64
192 -1 1 -41 -109 -88 -245z m142 -112 c28 -102 52 -190 55 -196 2 -7 -4 -10
-16 -7 -26 7 -33 -17 -53 -177 -22 -174 -95 -672 -100 -677 -3 -4 -48 100 -71
166 -21 60 -19 80 14 190 63 207 132 496 130 543 -1 14 -5 8 -11 -17 -5 -22
-29 -121 -54 -220 -49 -202 -104 -395 -113 -395 -3 0 -13 17 -22 38 -15 36
-14 43 17 167 17 72 44 184 58 250 14 66 32 149 41 184 8 35 14 66 11 68 -5 5
-29 -88 -101 -385 l-57 -234 16 -51 c22 -75 49 -198 43 -203 -7 -7 -177 186
-177 201 0 7 51 162 114 344 63 182 136 397 161 478 32 101 50 142 55 132 5
-8 32 -98 60 -199z m69 -725 c17 -424 20 -435 15 -55 -4 361 -1 369 50 137 38
-173 51 -282 37 -315 -10 -25 -10 -26 4 -8 14 19 15 18 15 -17 0 -20 5 -57 12
-81 11 -43 11 -46 -25 -98 -21 -29 -59 -77 -85 -106 l-47 -54 -2 474 c-2 269
1 464 6 453 4 -11 14 -159 20 -330z m-56 -287 c2 -164 1 -295 -3 -293 -5 3
-25 30 -45 60 -34 51 -36 59 -25 88 16 48 49 258 57 367 3 52 7 91 9 85 1 -5
4 -144 7 -307z m1432 173 c3 -5 -39 -47 -92 -94 -194 -166 -430 -361 -544
-447 -64 -49 -119 -96 -123 -105 -9 -26 -7 -74 5 -97 6 -11 9 -21 7 -23 -2 -2
-36 5 -77 14 -74 18 -100 38 -101 82 0 10 97 92 237 200 259 200 433 345 433
360 0 13 -250 12 -347 -2 -107 -15 -557 -180 -625 -230 -16 -11 -28 -17 -28
-14 0 18 115 155 138 164 24 9 90 26 342 85 100 23 -1 9 -148 -21 -149 -30
-228 -56 -259 -85 -13 -12 -25 -19 -28 -16 -11 10 49 109 74 122 23 12 99 27
396 80 44 8 69 15 55 15 -27 1 -390 -54 -429 -65 l-25 -7 20 34 20 34 74 -3
c41 -1 125 4 185 12 129 16 830 22 840 7z m-407 -152 c-20 -11 -333 -130 -388
-147 -19 -6 -141 -44 -270 -86 -228 -73 -341 -105 -260 -73 19 8 63 28 97 46
128 64 315 131 598 212 196 56 261 71 223 48z m-1827 -59 c287 -71 639 -186
674 -221 17 -17 -18 -10 -239 51 -121 33 -227 60 -235 59 -31 -1 218 -81 402
-128 104 -27 190 -51 193 -54 3 -3 -2 -19 -10 -36 -21 -39 -20 -55 0 -18 9 16
17 27 20 24 6 -5 -44 -223 -60 -262 -15 -36 -108 -176 -208 -315 -101 -140
-17 -41 125 147 67 89 128 165 135 167 9 4 12 -9 12 -45 0 -28 -4 -48 -9 -44
-19 11 -314 -353 -451 -557 -137 -205 -169 -241 -155 -177 34 159 244 800 272
832 25 28 113 97 124 97 18 0 8 -42 -42 -177 -53 -141 -109 -275 -154 -363
-14 -27 -24 -50 -21 -50 8 0 134 197 164 256 56 112 132 309 132 345 0 13 -11
20 -36 25 -31 6 -43 1 -95 -35 -48 -34 -59 -38 -59 -24 0 46 13 60 90 98 86
42 102 58 27 26 l-46 -20 -78 43 c-43 24 -210 109 -371 190 -273 138 -323 170
-307 196 10 16 31 12 206 -30z m1749 -9 c0 -5 -17 -23 -37 -39 -54 -42 -322
-219 -425 -281 -49 -29 -88 -59 -88 -67 0 -12 -8 -13 -37 -8 -125 22 -319 96
-307 115 3 5 30 9 59 9 64 0 190 38 367 112 167 69 429 166 451 167 9 1 17 -3
17 -8z m-1311 -363 l74 -34 -37 -11 c-35 -11 -39 -9 -126 48 -50 32 -90 61
-90 63 0 8 98 -28 179 -66z m452 -53 c55 -94 163 -315 194 -398 10 -26 20 -45
22 -43 4 4 -63 178 -112 291 -22 52 -13 42 86 -95 119 -166 195 -254 306 -352
206 -182 205 -180 -90 190 -217 273 -293 375 -276 370 42 -10 239 -93 239
-100 0 -5 26 -70 58 -146 67 -157 136 -278 251 -441 45 -63 81 -118 81 -124 0
-6 3 -8 6 -4 15 15 -89 279 -194 491 -62 126 -110 231 -108 234 3 2 37 -3 76
-13 80 -20 91 -30 144 -147 77 -168 324 -854 312 -865 -2 -3 -118 87 -258 198
-261 208 -477 411 -502 471 -8 18 -18 33 -23 33 -4 -1 -28 24 -52 55 -25 30
-68 82 -96 115 -29 33 -64 78 -79 100 -27 39 -28 39 -22 10 4 -16 9 -118 13
-225 l5 -195 -21 20 c-20 19 -20 30 -21 335 -1 367 -1 334 4 329 2 -2 28 -44
57 -94z m403 50 c-21 -20 -47 -35 -61 -35 -33 0 -21 15 35 45 64 33 70 31 26
-10z m-181 -42 c106 -26 107 -27 117 -62 5 -19 8 -37 6 -39 -11 -11 -218 84
-256 118 l-25 22 25 -6 c14 -3 73 -18 133 -33z m-129 -568 c85 -168 183 -329
171 -280 -9 40 -35 196 -35 214 0 19 57 -34 76 -71 8 -15 26 -60 40 -100 26
-73 98 -248 149 -363 31 -70 26 -67 -52 40 -66 89 -164 207 -330 399 -105 119
-113 132 -113 170 0 45 11 148 15 144 2 -2 37 -70 79 -153z m76 20 c19 -28 30
-59 35 -100 l6 -60 -66 125 c-36 69 -73 136 -81 150 -21 36 72 -65 106 -115z"/>
<path d="M2491 3814 c0 -11 3 -14 6 -6 3 7 2 16 -1 19 -3 4 -6 -2 -5 -13z"/>
<path d="M2676 2925 c-9 -26 -7 -32 5 -12 6 10 9 21 6 23 -2 3 -7 -2 -11 -11z"/>
<path d="M3353 3083 c9 -2 25 -2 35 0 9 3 1 5 -18 5 -19 0 -27 -2 -17 -5z"/>
<path d="M3010 2133 c11 -21 30 -49 42 -63 l20 -25 -17 29 c-10 16 -26 44 -37
63 -27 46 -34 42 -8 -4z"/>
<path d="M3120 1965 c28 -41 53 -75 56 -75 2 0 -18 34 -46 75 -28 41 -53 75
-56 75 -2 0 18 -34 46 -75z"/>
<path d="M1348 3023 c7 -3 16 -2 19 1 4 3 -2 6 -13 5 -11 0 -14 -3 -6 -6z"/>
<path d="M1900 2986 c0 -2 9 -6 20 -9 11 -3 18 -1 14 4 -5 9 -34 13 -34 5z"/>
<path d="M2300 2876 c0 -5 94 -122 113 -141 21 -22 -8 22 -56 83 -45 57 -57
69 -57 58z"/>
<path d="M1570 2751 c38 -32 217 -148 405 -261 66 -40 135 -82 154 -93 19 -12
31 -16 28 -10 -4 6 -100 69 -215 139 -114 70 -252 156 -307 191 -55 35 -84 50
-65 34z"/>
<path d="M1821 1874 c0 -11 3 -14 6 -6 3 7 2 16 -1 19 -3 4 -6 -2 -5 -13z"/>
<path d="M1736 1615 c-9 -26 -7 -32 5 -12 6 10 9 21 6 23 -2 3 -7 -2 -11 -11z"/>
</g>
</svg>