<?xml version="1.0" standalone="no"?>
<!DOCTYPE svg PUBLIC "-//W3C//DTD SVG 20010904//EN"
 "http://www.w3.org/TR/2001/REC-SVG-20010904/DTD/svg10.dtd">
<svg version="1.0" xmlns="http://www.w3.org/2000/svg"
 width="512.000000pt" height="512.000000pt" viewBox="0 0 512.000000 512.000000"
 preserveAspectRatio="xMidYMid meet">
<metadata>
Created by potrace 1.16, written by Peter Selinger 2001-2019
</metadata>
<g transform="translate(0.000000,512.000000) scale(0.100000,-0.100000)"
fill="#000000" stroke="none">
<path d="M16 5104 c-13 -34 -4 -70 32 -132 l37 -64 6 59 c4 32 7 79 8 106 l1
47 -39 0 c-26 0 -41 -5 -45 -16z"/>
<path d="M170 5095 c0 -14 4 -25 9 -25 5 0 16 11 25 25 16 24 16 25 -9 25 -20
0 -25 -5 -25 -25z"/>
<path d="M243 5053 c-92 -104 -96 -117 -88 -240 4 -56 10 -103 14 -103 20 0
104 64 121 92 11 18 27 67 36 108 11 51 29 95 55 136 21 33 39 63 39 67 0 4
-26 7 -59 7 l-58 0 -60 -67z"/>
<path d="M434 5093 c-13 -20 -20 -52 -22 -108 -4 -79 -4 -80 16 -62 22 21 113
57 141 57 14 0 20 10 25 39 3 22 11 43 16 46 7 4 8 -7 4 -33 -9 -57 9 -101 66
-157 28 -27 50 -45 50 -40 0 6 -11 53 -25 105 -14 52 -25 107 -25 122 0 56 -3
58 -120 58 -106 0 -108 0 -126 -27z"/>
<path d="M696 5093 c15 -70 25 -103 30 -103 12 0 94 107 94 123 0 4 -29 7 -65
7 l-65 0 6 -27z"/>
<path d="M835 5101 c-3 -10 -26 -44 -50 -76 -25 -31 -45 -65 -45 -74 0 -9 7
-52 15 -96 14 -73 42 -125 67 -125 14 0 8 103 -7 130 -17 30 -18 40 -5 40 6 0
10 -6 10 -12 0 -12 58 -58 72 -58 9 0 28 88 42 194 l12 96 -52 0 c-42 0 -54
-4 -59 -19z"/>
<path d="M970 5065 c0 -43 4 -56 19 -65 43 -23 61 -4 81 84 l8 36 -54 0 -54 0
0 -55z"/>
<path d="M1110 5100 c0 -11 -11 -49 -24 -84 l-25 -65 46 -98 c25 -54 55 -111
66 -127 l20 -29 19 23 c26 33 22 70 -18 168 -25 62 -38 108 -41 160 -5 62 -8
72 -24 72 -12 0 -19 -7 -19 -20z"/>
<path d="M1194 5085 c-9 -50 3 -112 34 -180 l28 -58 32 60 c28 54 32 70 32
139 l0 79 -18 -30 c-21 -34 -52 -62 -52 -47 0 5 7 15 16 22 8 8 20 22 25 32 9
16 5 18 -40 18 -49 0 -50 -1 -57 -35z"/>
<path d="M1344 5096 c-3 -12 -4 -40 -2 -62 l3 -39 33 48 c18 26 31 51 27 56
-3 5 0 11 7 13 7 3 -4 5 -25 6 -31 1 -38 -2 -43 -22z"/>
<path d="M1430 5106 c0 -7 8 -20 17 -27 15 -12 16 -12 10 4 -4 10 -7 23 -7 28
0 5 -4 9 -10 9 -5 0 -10 -6 -10 -14z"/>
<path d="M1470 5081 c0 -35 4 -41 55 -75 30 -20 55 -34 55 -31 0 3 -16 37 -35
75 -26 51 -41 70 -55 70 -17 0 -20 -7 -20 -39z"/>
<path d="M1567 5046 c36 -72 62 -101 49 -53 -4 12 -12 45 -20 72 -11 43 -17
50 -40 53 l-27 3 38 -75z"/>
<path d="M1611 5068 c11 -29 28 -71 38 -93 l17 -39 13 58 c7 32 10 73 6 92 -6
33 -8 34 -50 34 l-45 0 21 -52z"/>
<path d="M1711 5099 c7 -13 9 -41 5 -70 l-7 -48 58 -55 c31 -31 59 -56 62 -56
3 0 5 56 3 125 l-3 125 -65 0 c-63 0 -64 -1 -53 -21z"/>
<path d="M1986 5112 c5 -5 36 -16 68 -25 l59 -16 -23 24 c-18 20 -34 25 -69
25 -25 0 -41 -4 -35 -8z"/>
<path d="M2138 5105 c22 -16 69 -37 110 -50 l22 -6 -17 35 c-16 35 -18 36 -77
36 -57 0 -59 -1 -38 -15z"/>
<path d="M2285 5098 c11 -35 43 -86 101 -158 55 -70 142 -155 150 -147 3 3
-16 43 -43 89 -46 80 -48 86 -48 161 l0 77 -83 0 c-82 0 -83 0 -77 -22z"/>
<path d="M2458 5068 c-7 -64 5 -108 36 -137 30 -28 33 -21 42 99 l7 90 -40 0
-40 0 -5 -52z"/>
<path d="M2655 5058 c-37 -60 -40 -68 -43 -153 -2 -49 1 -101 6 -115 8 -23 11
-19 22 35 12 57 59 165 60 137 0 -7 -6 -23 -14 -35 -8 -12 -19 -46 -25 -75
-20 -97 -14 -151 30 -276 23 -64 45 -116 49 -116 12 0 78 151 95 215 18 73 20
198 3 213 -7 5 -33 13 -58 17 -77 13 -91 26 -20 19 36 -3 82 -14 103 -24 l37
-18 6 25 c9 36 -3 106 -27 163 l-21 50 -82 0 -81 0 -40 -62z m37 -420 c-7 -7
-12 -8 -12 -2 0 6 3 14 7 17 3 4 9 5 12 2 2 -3 -1 -11 -7 -17z"/>
<path d="M2912 5068 c12 -29 24 -82 27 -118 l6 -65 33 69 c22 48 32 83 32 117
l0 49 -59 0 -59 0 20 -52z"/>
<path d="M3040 5083 c1 -39 10 -33 24 15 6 16 3 22 -8 22 -12 0 -16 -10 -16
-37z"/>
<path d="M3110 5111 c0 -8 -34 -87 -67 -156 -3 -5 17 13 43 41 44 46 89 80
149 113 16 8 5 10 -52 11 -40 0 -73 -4 -73 -9z"/>
<path d="M3275 5082 l-50 -36 40 -62 c22 -35 45 -61 50 -60 11 3 30 36 45 80
17 48 20 24 4 -31 -8 -28 -22 -57 -30 -63 -15 -13 -18 -47 -8 -74 5 -12 22 1
72 53 37 37 96 84 132 104 36 20 60 37 54 37 -7 0 -39 20 -73 45 -57 42 -65
45 -124 45 -55 -1 -67 -5 -112 -38z"/>
<path d="M3513 5095 c36 -32 47 -31 47 0 0 22 -4 25 -37 25 l-38 -1 28 -24z"/>
<path d="M3600 5102 c0 -33 24 -52 74 -59 48 -6 49 -6 43 18 -4 13 -7 32 -7
42 0 14 -9 17 -55 17 -46 0 -55 -3 -55 -18z"/>
<path d="M3734 5103 c3 -10 8 -30 12 -45 7 -33 12 -33 62 -12 20 10 71 30 112
45 l75 28 -133 0 c-122 1 -133 0 -128 -16z"/>
<path d="M4010 5113 c0 -5 52 -92 67 -112 7 -9 11 7 18 62 l7 57 -46 0 c-25 0
-46 -3 -46 -7z"/>
<path d="M4181 5057 c-12 -70 -14 -118 -6 -140 4 -10 17 -3 46 26 l39 40 74
-5 73 -5 -26 74 -26 73 -81 0 -82 0 -11 -63z"/>
<path d="M4401 5068 c27 -68 68 -145 87 -161 12 -10 14 -9 9 8 -3 11 -8 45
-12 75 -8 74 9 47 26 -39 l12 -65 24 30 c14 16 33 47 44 69 12 26 19 33 19 20
0 -11 -11 -38 -25 -60 -57 -94 -54 -82 -32 -173 l20 -83 43 68 c50 79 58 74
13 -7 -17 -30 -39 -79 -50 -108 l-18 -52 64 56 c49 44 63 62 60 78 -3 12 -9
41 -15 66 -5 25 -10 109 -10 188 l0 142 -140 0 -140 0 21 -52z"/>
<path d="M4757 5113 c-3 -5 -8 -39 -12 -78 l-7 -70 19 25 c10 14 36 49 57 78
l38 52 -46 0 c-24 0 -47 -3 -49 -7z"/>
<path d="M4890 5099 c-7 -11 -10 -23 -7 -25 4 -5 128 33 136 42 2 2 -23 4 -57
4 -52 0 -63 -3 -72 -21z"/>
<path d="M5062 5082 l-52 -27 55 -55 55 -54 0 82 c0 45 -1 82 -2 82 -2 -1 -27
-13 -56 -28z"/>
<path d="M3920 5066 c-19 -8 -62 -27 -96 -43 l-61 -29 17 -39 c10 -22 39 -60
65 -84 l49 -45 9 30 c4 16 12 52 16 79 8 49 9 49 10 11 1 -38 1 -39 21 -21 11
10 20 24 20 31 0 8 12 11 40 7 22 -3 40 -2 40 3 0 5 -13 32 -28 59 -30 55 -47
62 -102 41z"/>
<path d="M1410 5057 c0 -7 -13 -34 -30 -60 -37 -59 -37 -74 -1 -117 25 -29 32
-33 48 -24 15 9 19 27 21 99 2 55 -1 92 -9 101 -14 18 -29 18 -29 1z"/>
<path d="M1956 5039 c-3 -13 -8 -55 -11 -93 -4 -38 -9 -76 -12 -84 -3 -8 6 -2
20 12 14 14 30 26 35 26 7 0 26 -30 49 -78 0 -2 24 8 52 22 28 14 60 26 71 26
19 0 17 6 -20 60 -47 68 -50 104 -4 46 16 -21 36 -47 45 -59 l16 -21 42 33
c23 18 40 38 38 45 -6 20 -71 45 -158 61 -171 30 -157 30 -163 4z"/>
<path d="M3177 5012 c-12 -13 -17 -37 -17 -81 0 -55 2 -62 18 -57 9 2 36 10
60 17 48 14 49 21 3 95 -29 49 -40 53 -64 26z"/>
<path d="M3672 4993 c18 -19 41 -39 51 -45 17 -9 18 -7 12 24 -9 41 -6 39 -55
48 l-42 8 34 -35z"/>
<path d="M4913 5016 c-46 -15 -135 -76 -158 -109 -39 -55 -5 -228 66 -339 l33
-51 17 41 c10 23 37 69 60 102 39 55 43 65 43 122 -1 44 -8 82 -26 126 -23 55
-24 61 -8 47 11 -10 24 -33 31 -52 14 -45 26 -32 34 38 6 52 5 58 -16 73 -27
19 -22 18 -76 2z"/>
<path d="M376 5005 c-11 -26 -45 -179 -41 -184 2 -2 13 12 24 30 22 36 35 98
29 145 -3 26 -4 27 -12 9z"/>
<path d="M1470 4961 c0 -33 4 -62 8 -65 8 -5 97 53 90 59 -2 1 -24 16 -50 34
l-48 32 0 -60z"/>
<path d="M3548 4978 c-59 -31 -146 -104 -136 -113 3 -3 43 5 89 18 46 14 105
30 132 37 26 7 47 16 47 19 0 8 -63 71 -70 71 -3 0 -31 -15 -62 -32z"/>
<path d="M3104 4971 c-10 -17 -30 -35 -45 -41 -31 -13 -75 -57 -66 -66 3 -3
33 -3 65 1 l60 7 4 61 c3 34 4 63 3 65 -2 2 -11 -10 -21 -27z"/>
<path d="M5026 4973 c-3 -16 -9 -79 -12 -142 l-7 -114 29 19 c16 11 37 28 46
39 17 19 17 19 13 -25 -2 -25 -7 -99 -10 -164 -5 -119 -5 -119 15 -101 19 17
20 30 20 205 l0 188 -41 61 c-22 33 -42 61 -44 61 -1 0 -5 -12 -9 -27z"/>
<path d="M534 4959 c-39 -11 -126 -69 -132 -87 -3 -9 8 -7 36 7 22 11 60 23
84 26 41 5 40 4 -18 -15 -34 -11 -77 -35 -100 -55 l-39 -35 51 -48 c28 -26 83
-65 122 -85 l71 -37 -10 32 c-5 18 -8 71 -8 118 1 54 4 74 8 55 6 -26 8 -27
14 -11 15 38 17 8 2 -33 -15 -44 -10 -98 15 -153 13 -27 71 -71 82 -60 4 4 10
48 13 97 l7 90 -63 75 c-34 41 -66 87 -71 103 -11 29 -16 30 -64 16z"/>
<path d="M942 4893 c-7 -42 -9 -80 -4 -85 11 -11 161 -52 168 -46 2 3 -8 34
-24 69 -26 58 -96 139 -120 139 -5 0 -14 -35 -20 -77z"/>
<path d="M1694 4945 c-9 -35 2 -70 40 -129 38 -58 130 -159 123 -135 -3 8 -8
46 -12 82 -6 59 -11 70 -37 88 -16 12 -47 44 -68 71 -39 48 -39 49 -46 23z"/>
<path d="M2265 4925 c-46 -39 -48 -60 -13 -155 25 -67 38 -84 38 -47 0 15 5
27 10 27 12 0 11 9 13 -122 1 -58 5 -110 10 -114 20 -20 94 82 114 160 l13 51
-4 -52 c-3 -29 -12 -66 -21 -82 -14 -28 -14 -31 0 -31 9 0 26 5 38 10 18 9 17
7 -3 -7 -93 -67 -152 -125 -139 -137 2 -2 54 12 116 31 123 40 117 34 129 135
l7 56 -58 54 c-32 29 -89 96 -128 148 -38 52 -72 98 -76 102 -3 3 -24 -9 -46
-27z"/>
<path d="M4236 4929 c-46 -36 -49 -53 -21 -109 14 -28 56 -100 94 -159 37 -60
78 -134 92 -164 13 -31 26 -57 29 -57 3 0 26 32 52 70 55 83 67 136 49 225
-15 72 -33 110 -75 153 -44 47 -77 62 -139 62 -40 0 -61 -6 -81 -21z"/>
<path d="M1531 4900 l-52 -41 21 -28 c47 -67 126 -126 219 -164 51 -21 95 -37
96 -35 2 2 -22 37 -54 78 -32 41 -77 109 -102 150 -24 41 -51 76 -60 78 -9 2
-39 -16 -68 -38z"/>
<path d="M3957 4912 c-20 -20 -27 -38 -27 -66 0 -54 36 -83 151 -121 52 -18
102 -35 111 -39 13 -6 9 7 -16 48 -19 31 -49 90 -67 131 l-33 75 -46 0 c-38 0
-51 -5 -73 -28z"/>
<path d="M0 4834 c0 -90 0 -90 35 -124 l35 -34 0 52 c0 50 -26 134 -55 176
-14 19 -15 12 -15 -70z"/>
<path d="M1311 4879 c-11 -25 -23 -65 -27 -89 l-7 -44 30 20 c16 10 42 29 57
41 l27 21 -31 48 -30 47 -19 -44z"/>
<path d="M3658 4898 c-34 -12 -35 -18 -4 -47 23 -21 27 -22 84 -10 l60 13 -39
28 c-41 30 -58 32 -101 16z"/>
<path d="M2866 4860 c11 -55 20 -67 28 -35 6 22 2 33 -14 49 l-20 21 6 -35z"/>
<path d="M3199 4863 c-45 -15 -46 -16 -68 -90 l-22 -75 23 -59 c13 -32 26 -59
30 -59 9 0 90 114 112 157 9 18 16 56 16 88 0 51 -2 55 -22 54 -13 0 -44 -8
-69 -16z"/>
<path d="M3480 4851 c-118 -38 -128 -45 -155 -106 -13 -30 -37 -74 -53 -97
-46 -69 -46 -69 -18 -59 68 26 153 77 196 117 55 51 75 58 34 12 -26 -30 -29
-39 -26 -95 l4 -62 21 25 c22 25 22 25 70 8 26 -9 47 -18 47 -21 0 -3 -23 -2
-51 2 -61 9 -59 11 -140 -156 l-57 -117 41 -5 c34 -5 60 2 131 31 55 23 91 44
94 55 5 18 18 23 24 7 6 -17 29 7 42 44 8 24 10 53 5 84 -4 26 -8 95 -8 155
-1 59 -5 107 -10 107 -5 0 -21 -14 -35 -31 -28 -33 -28 -53 0 -94 8 -11 14
-23 14 -28 0 -19 -27 14 -45 53 l-18 41 38 39 c37 37 37 40 22 62 -49 69 -46
69 -167 29z"/>
<path d="M1961 4856 c-15 -18 -3 -60 34 -121 l25 -40 0 44 c0 37 -2 42 -15 31
-20 -17 -19 -1 2 22 13 14 15 25 7 46 -11 31 -35 39 -53 18z"/>
<path d="M2092 4827 c-27 -14 -45 -30 -49 -46 -10 -39 35 -281 52 -281 5 0 34
11 63 25 71 33 56 12 -19 -25 -39 -20 -59 -36 -59 -48 0 -29 47 -116 80 -147
29 -28 30 -28 45 -9 31 41 65 124 70 175 8 71 -15 193 -55 297 -29 75 -34 82
-58 81 -15 0 -46 -10 -70 -22z"/>
<path d="M3084 4832 c-6 -4 -27 -46 -46 -94 l-36 -87 38 25 c38 25 60 64 75
132 7 32 -5 42 -31 24z"/>
<path d="M844 4793 c0 -21 -3 -72 -5 -114 l-4 -77 45 23 c25 13 54 32 64 44
27 30 39 26 31 -10 -6 -27 -1 -36 48 -85 48 -48 58 -54 83 -48 37 9 34 6 45
53 11 49 -3 120 -26 137 -9 6 -55 21 -102 33 -50 13 -105 35 -130 52 -24 16
-45 29 -46 29 -2 0 -3 -17 -3 -37z"/>
<path d="M1367 4768 c-47 -39 -76 -71 -76 -83 -1 -22 32 -89 57 -117 14 -17
18 -14 53 34 22 28 39 56 39 62 0 5 -14 25 -32 43 -42 43 -29 54 17 14 30 -26
44 -31 85 -31 80 0 81 4 15 75 -34 36 -66 65 -72 65 -6 0 -45 -28 -86 -62z"/>
<path d="M2987 4823 c-14 -4 -16 -12 -11 -46 12 -75 19 -76 53 -9 l31 62 -27
-1 c-16 -1 -36 -3 -46 -6z"/>
<path d="M3743 4818 c-41 -9 -43 -11 -43 -46 1 -78 19 -235 28 -244 13 -13
104 43 164 100 61 59 73 48 16 -14 l-43 -47 35 8 c40 8 90 35 90 48 0 13 -84
128 -125 170 -38 39 -50 42 -122 25z"/>
<path d="M1920 4783 c0 -43 27 -158 43 -190 22 -41 78 -116 83 -110 3 2 0 33
-5 68 -10 61 -96 257 -113 258 -5 1 -8 -11 -8 -26z"/>
<path d="M2911 4761 c-11 -28 -21 -55 -21 -61 0 -6 -16 -59 -36 -116 -20 -58
-34 -107 -31 -110 2 -3 32 21 65 53 40 39 65 74 77 106 17 46 17 50 0 108 -10
33 -22 62 -26 64 -3 3 -16 -17 -28 -44z"/>
<path d="M312 4750 l-22 -28 26 -21 c27 -21 112 -51 146 -51 14 0 -1 19 -49
65 -37 36 -70 65 -73 64 -3 0 -15 -13 -28 -29z"/>
<path d="M766 4680 c-14 -145 -16 -170 -8 -170 10 0 40 83 48 135 5 32 2 46
-14 65 l-20 25 -6 -55z"/>
<path d="M0 4639 c0 -57 5 -80 19 -99 l19 -24 12 44 c6 25 12 50 14 55 5 14
-19 57 -43 79 l-21 19 0 -74z"/>
<path d="M210 4674 l-54 -33 -59 -168 c-51 -148 -57 -174 -55 -232 l3 -65 56
75 c75 99 174 306 182 382 8 76 -4 83 -73 41z"/>
<path d="M5013 4690 c-18 -10 -49 -45 -70 -75 -51 -78 -51 -129 0 -207 60 -90
60 -90 90 20 27 99 51 257 41 273 -8 14 -26 11 -61 -11z"/>
<path d="M4008 4679 c10 -26 12 -27 40 -8 l23 16 -23 7 c-40 10 -48 8 -40 -15z"/>
<path d="M4634 4624 c-63 -72 -94 -113 -94 -126 0 -4 19 0 43 8 23 9 74 19
113 22 l70 7 -36 79 -36 78 -60 -68z"/>
<path d="M300 4619 c0 -48 1 -50 23 -44 12 4 33 17 46 30 l24 23 -41 21 c-23
12 -44 21 -47 21 -3 0 -5 -23 -5 -51z"/>
<path d="M1503 4663 c-9 -3 -13 -29 -13 -78 l0 -73 63 -11 c81 -14 151 -14
202 0 41 12 95 44 95 58 0 5 -53 31 -117 60 -94 41 -128 51 -168 50 -27 0 -56
-3 -62 -6z"/>
<path d="M3017 4618 c-29 -29 -68 -73 -86 -97 l-35 -43 35 7 c19 4 59 17 89
30 30 13 65 27 78 30 18 5 21 11 16 33 -12 57 -26 92 -35 92 -6 0 -34 -24 -62
-52z"/>
<path d="M3395 4641 c-22 -15 -69 -40 -104 -55 -35 -16 -75 -40 -89 -55 -13
-14 -18 -17 -11 -6 13 18 13 19 -4 6 -9 -7 -16 -19 -16 -25 1 -6 -1 -18 -5
-27 -4 -9 -6 -44 -4 -79 l3 -63 48 37 c32 24 45 30 38 17 -6 -10 -26 -28 -46
-40 -30 -17 -35 -26 -35 -56 0 -34 1 -35 28 -29 15 4 48 16 75 27 l47 19 0 65
c0 62 27 209 37 200 3 -3 -1 -38 -7 -79 -6 -40 -10 -89 -8 -108 l3 -35 32 55
c46 78 65 139 61 203 l-3 55 -40 -27z"/>
<path d="M4064 4646 l-28 -23 56 -94 c30 -52 71 -124 91 -160 44 -80 122 -169
148 -169 12 0 21 9 24 28 4 15 11 45 17 67 18 65 14 108 -15 168 -38 77 -111
155 -172 183 -63 30 -87 30 -121 0z"/>
<path d="M1453 4635 c-10 -15 -33 -45 -52 -66 -19 -22 -32 -41 -30 -43 2 -2
19 -11 37 -20 24 -12 32 -13 32 -4 0 9 3 8 10 -2 9 -13 10 -13 10 0 0 8 -5 22
-10 30 -9 13 -10 13 -11 0 0 -10 -3 -8 -9 5 -16 38 -10 46 13 19 l24 -27 6 63
c4 35 5 65 3 67 -2 3 -12 -8 -23 -22z"/>
<path d="M888 4606 c-50 -27 -59 -37 -77 -84 -25 -65 -26 -72 -4 -72 22 0 233
51 233 56 0 2 -15 23 -32 47 -18 23 -40 52 -48 64 l-15 21 -57 -32z"/>
<path d="M1216 4590 c-14 -30 -26 -60 -26 -66 0 -11 120 -27 129 -18 6 5 -34
80 -60 116 l-18 23 -25 -55z"/>
<path d="M372 4584 c-18 -19 -41 -34 -52 -34 -14 0 -29 -17 -50 -60 -17 -33
-28 -60 -26 -60 3 0 31 21 63 46 l58 47 -45 -47 c-25 -26 -57 -55 -72 -63 -17
-10 -33 -35 -45 -68 l-19 -51 115 34 c149 44 156 51 145 152 -4 41 -7 90 -7
108 2 43 -21 42 -65 -4z"/>
<path d="M476 4613 c-17 -5 -18 -12 -13 -82 8 -94 17 -141 28 -141 5 0 19 34
31 77 25 88 37 84 14 -5 -9 -33 -16 -63 -16 -66 0 -15 38 -3 99 29 63 34 65
34 35 8 -17 -15 -39 -34 -50 -41 -16 -11 -12 -12 30 -6 27 3 60 10 73 15 l24
9 -27 49 c-32 59 -93 124 -139 145 -33 16 -53 18 -89 9z"/>
<path d="M2581 4558 c1 -35 0 -67 -1 -73 -5 -22 1 -25 30 -10 17 9 30 22 30
31 0 16 -47 114 -55 114 -3 0 -4 -28 -4 -62z"/>
<path d="M3996 4581 c-15 -24 -17 -99 -4 -131 13 -29 23 -37 63 -48 26 -7 50
-10 53 -7 7 7 -87 195 -98 195 -5 0 -11 -4 -14 -9z"/>
<path d="M1828 4515 c-26 -18 -53 -35 -60 -38 -10 -3 -10 -13 2 -47 14 -41 19
-45 65 -57 72 -18 76 -18 65 13 -12 31 -13 91 -2 98 5 3 7 -8 4 -23 -2 -15 4
-45 12 -66 l17 -39 22 22 22 22 -23 44 c-13 24 -35 57 -50 73 l-27 30 -47 -32z"/>
<path d="M3800 4523 c-67 -35 -77 -54 -23 -47 l38 5 -45 -19 c-30 -13 -46 -26
-48 -41 -2 -12 2 -21 10 -21 41 1 222 113 215 133 -8 25 -89 19 -147 -10z"/>
<path d="M3085 4521 c-11 -4 -50 -22 -87 -40 l-68 -33 0 -76 c-1 -61 -6 -92
-29 -147 -21 -52 -25 -71 -16 -73 20 -5 145 62 190 101 l40 35 0 121 c0 66 -2
121 -5 120 -3 -1 -14 -4 -25 -8z"/>
<path d="M0 4471 c0 -50 12 -67 24 -35 11 27 6 61 -9 74 -13 11 -15 6 -15 -39z"/>
<path d="M1180 4444 c0 -42 1 -45 23 -39 27 9 87 53 87 64 0 5 -17 11 -37 15
-71 11 -73 10 -73 -40z"/>
<path d="M1490 4471 c0 -33 50 -202 74 -250 22 -42 88 -111 107 -111 3 0 10
15 16 34 9 30 7 40 -14 76 -14 23 -22 44 -19 47 7 7 6 9 38 -40 l25 -38 23 56
c26 65 25 71 -40 158 -38 51 -47 57 -89 63 -25 3 -63 10 -83 14 -32 7 -38 5
-38 -9z"/>
<path d="M4633 4473 c-29 -9 -53 -19 -53 -24 0 -4 25 -29 55 -55 l56 -47 35
16 c48 24 66 21 26 -3 l-33 -21 73 -68 c40 -38 93 -100 118 -139 25 -39 48
-71 51 -71 8 -1 19 63 19 117 0 60 -16 93 -104 210 l-77 102 -57 -1 c-31 0
-81 -8 -109 -16z"/>
<path d="M1025 4473 c-11 -2 -41 -11 -67 -19 l-48 -16 0 -78 0 -78 73 -39
c108 -58 106 -58 123 -18 17 41 19 126 2 143 -8 8 -8 15 -1 24 6 7 13 30 17
51 l7 37 -43 -1 c-24 -1 -52 -3 -63 -6z"/>
<path d="M1301 4435 c-29 -25 -62 -50 -72 -56 -37 -19 -18 -29 56 -29 41 0 75
4 75 9 0 9 47 1 82 -14 16 -6 16 -4 7 23 -10 30 -75 112 -88 112 -4 0 -31 -20
-60 -45z"/>
<path d="M2611 4454 c-29 -19 -38 -35 -52 -90 -23 -88 -43 -262 -37 -316 3
-24 13 -70 23 -102 21 -70 21 -70 69 76 41 122 60 255 50 353 -10 104 -12 108
-53 79z"/>
<path d="M1713 4462 c-13 -2 -23 -6 -23 -9 0 -9 72 -94 76 -90 2 2 -4 26 -14
53 -14 41 -21 48 -39 46z"/>
<path d="M3880 4430 l-45 -30 61 0 c33 0 63 3 67 6 8 9 -14 54 -27 54 -6 0
-31 -14 -56 -30z"/>
<path d="M2415 4413 c-49 -19 -93 -38 -97 -42 -7 -6 43 -156 56 -169 8 -7 46
29 99 91 l40 48 -16 35 c-23 48 -21 56 4 15 19 -32 21 -32 34 -15 8 11 15 31
15 47 0 36 -21 35 -135 -10z"/>
<path d="M2845 4431 c-23 -10 -52 -35 -69 -59 -26 -38 -29 -53 -38 -173 -5
-72 -7 -133 -4 -136 3 -3 25 11 49 31 65 54 120 174 125 279 5 87 3 88 -63 58z"/>
<path d="M4493 4426 c-25 -21 -33 -42 -58 -146 -27 -119 -28 -123 -11 -173 9
-29 29 -74 44 -102 26 -47 30 -50 82 -60 l55 -10 -47 -3 -47 -3 22 -47 c12
-26 23 -49 25 -52 2 -3 14 7 25 21 12 15 34 34 50 44 25 16 26 20 14 39 -8 12
-30 66 -50 121 l-36 100 20 55 c18 51 20 33 3 -34 -11 -43 12 -29 26 17 7 23
25 62 38 87 l25 46 -62 59 c-35 33 -68 61 -75 63 -8 2 -27 -8 -43 -22z"/>
<path d="M837 4417 l-48 -12 30 -47 c16 -26 39 -52 50 -58 20 -10 21 -8 21 60
0 38 -1 70 -2 69 -2 0 -25 -6 -51 -12z"/>
<path d="M5097 4409 c-25 -38 -37 -85 -37 -152 0 -56 1 -58 23 -52 12 4 26 11
30 14 4 4 6 55 5 112 -3 103 -3 104 -21 78z"/>
<path d="M714 4370 c-44 -18 -161 -100 -200 -142 -55 -57 -60 -69 -68 -160
l-7 -77 67 30 c119 54 139 71 175 149 36 79 47 87 23 16 -24 -70 -11 -71 39
-3 19 25 26 42 19 50 -5 7 -5 23 -1 37 7 24 7 24 8 3 1 -31 19 -29 27 2 4 18
-1 37 -20 65 -28 42 -30 43 -62 30z m35 -155 l0 -20 -9 20 c-5 11 -9 27 -9 35
-1 13 0 13 9 0 5 -8 9 -24 9 -35z"/>
<path d="M1972 4368 c-18 -18 -15 -38 6 -38 27 0 44 21 31 37 -14 16 -22 16
-37 1z"/>
<path d="M3760 4361 c-77 -28 -95 -51 -39 -51 22 0 32 5 36 20 7 25 6 26 58
-10 24 -16 48 -30 54 -30 10 0 71 70 71 82 0 14 -134 6 -180 -11z"/>
<path d="M3985 4370 c-11 -4 -30 -21 -42 -38 l-22 -29 32 -31 c29 -28 117 -75
125 -67 2 1 -11 31 -28 65 -17 34 -30 64 -28 66 3 2 22 -24 43 -58 55 -85 59
-88 121 -88 l55 0 -51 65 c-27 36 -54 74 -60 85 -6 11 -29 22 -60 29 -58 13
-58 13 -85 1z"/>
<path d="M442 4336 c-32 -15 -32 -15 -26 -73 9 -91 9 -91 63 -35 27 28 71 65
97 82 41 26 44 30 23 30 -13 0 -46 2 -74 5 -33 4 -61 0 -83 -9z"/>
<path d="M1340 4339 c-14 -6 -50 -9 -80 -8 l-55 3 -7 -55 c-4 -30 -11 -67 -17
-82 -25 -64 -27 -62 166 -136 132 -51 126 -31 -16 57 -31 19 -45 31 -31 27 43
-13 94 -42 149 -85 50 -40 119 -76 127 -67 12 12 -13 35 -64 59 -31 16 -73 42
-92 59 -31 27 -31 29 -5 11 48 -31 136 -74 142 -68 8 8 -36 136 -65 190 -18
32 -43 60 -71 78 -50 31 -47 30 -81 17z"/>
<path d="M1805 4328 c-5 -18 3 -40 27 -81 l34 -56 22 67 c12 36 18 70 14 74
-4 4 -26 10 -49 14 -39 6 -42 5 -48 -18z"/>
<path d="M2278 4328 c-42 -64 -55 -103 -46 -135 6 -22 15 -33 27 -33 20 0 81
20 81 26 0 8 -41 159 -44 162 -2 1 -10 -8 -18 -20z"/>
<path d="M3625 4335 l-30 -13 33 -1 c22 -1 32 4 32 14 0 8 -1 15 -2 15 -2 -1
-16 -7 -33 -15z"/>
<path d="M1937 4313 c-2 -4 -16 -45 -31 -90 -20 -61 -26 -97 -24 -144 3 -63 3
-63 53 -101 28 -21 53 -38 56 -38 3 0 16 38 29 85 24 91 23 181 -2 232 -14 27
-74 69 -81 56z"/>
<path d="M2040 4310 c0 -5 5 -10 11 -10 5 0 7 5 4 10 -3 6 -8 10 -11 10 -2 0
-4 -4 -4 -10z"/>
<path d="M289 4281 c-43 -15 -88 -35 -102 -44 -46 -30 -87 -102 -98 -170 -5
-34 -17 -92 -26 -130 -19 -83 -13 -248 14 -350 l18 -67 23 47 c12 27 57 95 98
153 107 148 107 149 88 202 -8 23 -28 68 -45 98 l-30 55 31 -35 c16 -19 40
-52 52 -72 12 -21 25 -38 30 -38 8 0 58 156 58 182 0 28 -34 56 -80 67 l-45
11 59 -5 59 -4 -7 46 c-3 25 -6 54 -6 64 0 24 1 24 -91 -10z"/>
<path d="M3769 4300 c-7 -4 -30 -10 -49 -14 -34 -6 -62 -32 -167 -156 l-22
-27 103 37 c103 36 182 76 204 103 10 12 6 19 -21 40 -21 16 -38 22 -48 17z"/>
<path d="M4675 4287 c-26 -40 -55 -138 -55 -185 0 -53 31 -124 64 -145 21 -14
31 -13 107 9 45 13 100 24 121 24 42 0 45 7 22 53 -43 84 -204 267 -236 267
-4 0 -14 -10 -23 -23z m115 -107 c20 -5 45 -17 55 -25 19 -14 18 -14 -10 -4
-16 7 -52 18 -80 25 -31 7 -40 13 -25 13 14 1 41 -4 60 -9z"/>
<path d="M2451 4229 l-52 -70 43 -52 43 -51 6 80 c3 43 9 98 13 122 4 23 6 42
3 42 -2 0 -28 -32 -56 -71z"/>
<path d="M3464 4255 c-97 -47 -166 -110 -212 -193 l-23 -42 33 0 c61 1 119 20
176 59 58 39 202 183 202 201 0 6 -13 10 -29 10 -16 0 -35 2 -43 5 -7 3 -54
-15 -104 -40z"/>
<path d="M3897 4277 c-3 -8 7 -21 25 -31 40 -24 44 -16 9 18 -21 21 -30 24
-34 13z"/>
<path d="M815 4248 c-7 -28 -4 -35 26 -60 51 -43 63 -36 35 20 -13 27 -31 54
-39 61 -13 10 -16 7 -22 -21z"/>
<path d="M1766 4245 c-33 -75 -56 -136 -56 -145 0 -8 110 -70 125 -70 3 0 5
30 5 68 0 53 -6 79 -29 127 l-28 60 -17 -40z"/>
<path d="M2044 4258 c4 -13 9 -45 13 -73 l6 -50 17 50 c20 58 18 68 -17 84
-24 11 -25 10 -19 -11z"/>
<path d="M3232 4247 c-45 -17 -53 -23 -48 -41 2 -12 8 -47 12 -80 l7 -59 34
54 c30 47 73 132 73 145 0 8 -25 2 -78 -19z"/>
<path d="M3340 4255 c0 -19 9 -19 34 0 19 14 19 15 -7 15 -17 0 -27 -5 -27
-15z"/>
<path d="M3841 4217 l-30 -31 52 -22 c58 -25 58 -25 86 15 l20 28 -49 20 -48
20 -31 -30z"/>
<path d="M910 4224 c0 -5 10 -27 23 -49 19 -34 29 -41 67 -47 25 -5 56 -6 69
-3 20 5 12 12 -55 46 -43 22 -84 45 -91 51 -7 6 -13 7 -13 2z"/>
<path d="M3025 4168 c-61 -33 -111 -61 -113 -62 -1 -2 7 -29 19 -62 14 -41 19
-76 17 -116 l-4 -57 27 15 c15 7 31 18 34 24 3 5 11 10 17 10 16 0 -32 -49
-63 -66 -27 -13 -59 -76 -59 -115 0 -19 1 -19 41 3 23 13 67 48 99 78 60 58
91 121 111 225 9 48 4 147 -10 172 -4 8 -41 -7 -116 -49z"/>
<path d="M2097 4167 c-9 -30 -17 -60 -17 -68 0 -13 87 -199 93 -199 1 0 -1 52
-5 115 -5 80 -14 130 -27 160 -11 25 -22 45 -24 45 -2 0 -11 -24 -20 -53z"/>
<path d="M3969 4178 c-12 -16 -19 -31 -16 -34 2 -3 23 0 47 5 32 7 40 7 31 -2
-7 -7 -35 -16 -63 -22 -38 -8 -56 -18 -75 -42 l-24 -31 38 -13 c21 -7 88 -36
150 -66 62 -29 123 -53 137 -53 22 0 25 4 21 28 -2 15 -10 61 -16 102 -12 81
-22 100 -49 100 -10 0 -50 13 -89 29 l-71 29 -21 -30z"/>
<path d="M759 4147 c-20 -23 -66 -62 -102 -87 -37 -25 -67 -50 -67 -56 0 -12
42 -54 55 -54 4 0 23 18 42 40 19 22 40 40 47 40 7 0 52 20 100 45 l87 44 -43
22 c-24 12 -52 28 -63 35 -18 11 -24 8 -56 -29z"/>
<path d="M0 4080 c0 -57 3 -101 6 -98 7 8 6 189 -1 196 -3 3 -5 -41 -5 -98z"/>
<path d="M3763 4160 c-18 -11 -33 -23 -33 -27 0 -10 82 -93 92 -93 4 0 23 21
43 46 l35 47 -51 23 c-28 13 -52 24 -52 24 -1 0 -17 -9 -34 -20z"/>
<path d="M5036 4068 c-9 -46 -16 -93 -16 -105 0 -30 30 -46 51 -27 15 13 16
12 12 -10 -4 -17 1 -27 16 -35 21 -12 21 -11 21 113 0 114 -2 126 -19 136 -40
21 -48 13 -65 -72z"/>
<path d="M2325 4130 c-11 -5 -35 -9 -54 -9 l-34 -1 6 -87 c8 -104 37 -224 69
-285 l22 -43 7 65 c7 80 24 120 78 187 22 29 41 55 41 58 0 12 -95 125 -105
124 -5 0 -19 -4 -30 -9z"/>
<path d="M4220 4103 c1 -43 15 -114 32 -156 6 -17 36 -45 72 -69 34 -22 87
-66 118 -96 32 -31 60 -53 63 -51 13 14 -19 123 -62 209 -62 124 -133 200
-186 200 -36 0 -37 -1 -37 -37z"/>
<path d="M3630 4098 c-30 -12 -73 -33 -95 -47 l-40 -25 40 -7 c94 -18 222 -8
232 18 6 15 -53 83 -71 82 -6 0 -36 -10 -66 -21z"/>
<path d="M1043 4093 l-52 -4 43 -62 c24 -34 53 -81 65 -104 31 -61 189 -223
276 -282 l75 -51 -6 43 c-10 66 -29 102 -70 133 -22 17 -46 49 -59 78 l-22 49
-49 -44 c-32 -29 -43 -36 -33 -19 17 26 127 118 143 119 6 1 -3 -12 -18 -28
-27 -28 -27 -29 -12 -65 14 -33 71 -96 87 -96 4 0 10 35 14 78 11 119 26 135
21 20 -5 -98 -1 -120 50 -265 l16 -43 36 19 c45 23 102 36 102 24 0 -5 -21
-15 -47 -22 -27 -6 -57 -18 -67 -26 -19 -14 -18 -17 19 -70 38 -55 138 -155
156 -155 5 0 9 26 9 58 0 31 7 82 15 112 21 80 19 103 -19 178 -19 37 -44 101
-56 142 -13 41 -26 79 -31 84 -4 5 -63 30 -131 56 -68 26 -178 71 -246 99 -67
28 -130 50 -140 49 -9 -1 -40 -3 -69 -5z"/>
<path d="M2863 4083 c-18 -8 -61 -42 -96 -74 -76 -69 -127 -160 -151 -268 -18
-85 -21 -171 -5 -171 6 0 40 16 75 36 61 34 64 38 64 72 0 26 -3 33 -9 23 -7
-11 -13 -1 -24 35 -8 27 -11 51 -7 54 5 3 10 16 13 30 3 17 5 13 6 -15 1 -40
40 -137 52 -133 17 7 82 99 109 154 40 80 47 143 23 216 l-18 57 -32 -16z
m-104 -115 c-18 -35 -110 -178 -114 -178 -9 0 24 61 68 128 47 70 69 94 46 50z"/>
<path d="M872 4045 c-22 -20 -58 -42 -79 -49 -21 -8 -37 -19 -35 -25 1 -6 -11
-11 -28 -11 -23 0 -33 -6 -42 -26 -12 -25 -10 -29 37 -71 26 -24 71 -56 97
-69 57 -29 197 -84 214 -84 12 0 34 85 34 135 0 60 -103 235 -139 235 -9 0
-36 -16 -59 -35z"/>
<path d="M1606 4055 c-7 -19 14 -76 25 -69 15 9 11 71 -5 77 -8 3 -17 -1 -20
-8z"/>
<path d="M1676 4043 c-3 -4 -6 -24 -6 -45 0 -37 1 -38 35 -38 19 0 38 0 43 0
4 0 7 10 7 21 0 22 -67 74 -79 62z"/>
<path d="M2045 4018 c-12 -69 -10 -82 8 -86 15 -3 17 5 17 57 0 65 -15 83 -25
29z"/>
<path d="M2094 3979 c3 -17 6 -38 6 -45 0 -8 9 -14 20 -14 25 0 25 2 0 50 -24
48 -35 51 -26 9z"/>
<path d="M3817 4001 c-17 -6 -15 -14 23 -86 23 -44 45 -83 49 -87 4 -4 34 5
66 21 33 15 78 34 99 41 37 12 38 14 20 27 -10 8 -54 32 -98 54 -75 38 -119
46 -159 30z"/>
<path d="M3280 3993 c-57 -9 -70 -14 -81 -35 -9 -17 -9 -20 2 -15 8 3 41 17
74 31 58 25 59 28 5 19z"/>
<path d="M3434 3979 c-2 -5 -12 -5 -21 -2 -12 5 -14 3 -8 -7 5 -8 4 -11 -3 -6
-6 4 -34 -5 -62 -19 -41 -21 -50 -30 -51 -53 -2 -24 -2 -25 -6 -4 -3 13 -10
21 -16 19 -14 -5 -13 -31 2 -71 l11 -27 28 32 28 31 70 -15 c38 -9 99 -19 135
-23 l66 -6 16 41 c18 43 10 87 -15 96 -27 10 -169 21 -174 14z"/>
<path d="M3713 3976 c-57 -10 -61 -12 -51 -31 6 -11 12 -22 14 -24 1 -1 20 10
41 25 l38 28 -27 -30 c-34 -37 -34 -40 -3 -48 14 -4 23 -11 20 -16 -3 -5 -18
-5 -37 1 -18 5 -35 5 -39 1 -11 -11 -59 -134 -59 -150 0 -12 9 -13 43 -9 71
10 93 23 117 69 12 24 31 53 41 64 20 21 20 22 -3 78 -13 31 -25 55 -28 55 -3
-1 -33 -7 -67 -13z"/>
<path d="M1790 3959 c0 -23 50 -108 76 -130 12 -10 21 -6 50 22 l35 34 -33 28
c-36 31 -70 50 -105 61 -19 6 -23 4 -23 -15z"/>
<path d="M2444 3948 c-51 -61 -76 -132 -77 -217 0 -74 2 -79 60 -189 l60 -113
7 127 c4 70 11 150 17 177 5 27 9 71 9 97 0 51 -26 150 -39 150 -5 0 -22 -15
-37 -32z"/>
<path d="M465 3951 c-33 -15 -53 -36 -103 -115 -33 -53 -60 -96 -58 -96 14 0
212 87 263 116 l65 36 -24 25 c-25 27 -69 53 -90 53 -7 0 -31 -9 -53 -19z"/>
<path d="M4835 3939 c-33 -12 -61 -22 -62 -23 -2 -1 31 -26 72 -54 74 -52 75
-52 84 -30 5 13 12 47 16 76 l7 52 -29 0 c-15 -1 -55 -10 -88 -21z"/>
<path d="M1684 3914 c17 -89 80 -224 105 -224 12 0 21 66 14 101 -7 37 14 39
23 3 6 -23 8 -24 22 -11 13 14 9 22 -38 76 -29 34 -60 61 -69 61 -9 0 -27 7
-40 17 l-24 16 7 -39z"/>
<path d="M5020 3880 c0 -77 40 -167 54 -122 4 11 15 27 26 37 36 33 19 63 -57
104 -22 11 -23 10 -23 -19z"/>
<path d="M2031 3896 c2 -2 39 -29 82 -60 82 -58 85 -58 71 12 -6 27 -12 32
-56 41 -49 11 -105 15 -97 7z"/>
<path d="M3195 3878 c-26 -14 -65 -49 -65 -58 0 -8 120 -34 126 -27 7 6 -21
90 -31 93 -6 2 -19 -2 -30 -8z"/>
<path d="M4120 3844 c-7 -22 -30 -74 -52 -118 -22 -43 -38 -79 -36 -81 2 -2
39 5 83 16 69 16 85 24 115 57 50 55 81 75 40 26 -35 -43 -92 -145 -85 -153 2
-2 20 4 39 13 21 10 57 16 93 15 l58 -2 -62 -8 c-34 -4 -72 -13 -85 -20 -23
-12 -22 -13 22 -32 25 -11 64 -22 88 -25 54 -6 192 17 192 32 0 21 -131 185
-183 229 -67 57 -106 77 -166 84 l-49 6 -12 -39z"/>
<path d="M4655 3846 c-78 -52 -88 -67 -76 -111 14 -51 91 -172 141 -220 l41
-40 -11 32 c-16 44 5 88 81 173 37 42 59 75 56 84 -9 23 -138 116 -161 116
-12 0 -44 -15 -71 -34z"/>
<path d="M457 3775 c-98 -51 -192 -105 -208 -121 -31 -29 -109 -174 -109 -201
0 -11 6 -10 26 6 15 11 53 26 85 33 52 11 63 18 109 69 39 46 63 63 109 79 45
17 62 29 74 53 l17 32 -7 -29 c-5 -26 -4 -28 13 -21 10 4 37 11 59 16 40 8 41
7 112 -63 l72 -71 6 34 c3 19 9 54 13 79 l8 45 -56 36 c-30 20 -73 55 -95 78
-21 22 -42 40 -45 40 -3 -1 -85 -43 -183 -94z"/>
<path d="M4029 3851 c-25 -10 -59 -26 -76 -36 l-31 -18 32 -42 c17 -23 36 -50
41 -60 9 -15 17 -6 57 61 74 126 73 133 -23 95z"/>
<path d="M3807 3819 c-14 -24 -25 -45 -23 -47 7 -6 76 32 76 43 0 6 -6 19 -14
30 -12 17 -15 15 -39 -26z"/>
<path d="M1936 3829 c-37 -29 -33 -39 17 -40 36 -1 38 -2 13 -8 l-29 -6 38
-18 c31 -15 36 -15 32 -3 -3 8 -11 33 -17 55 -12 47 -17 49 -54 20z"/>
<path d="M3326 3826 c-31 -30 -33 -47 -6 -71 19 -17 22 -16 95 18 41 20 75 40
75 45 0 5 -20 12 -45 15 -25 4 -56 9 -69 13 -19 4 -32 -1 -50 -20z"/>
<path d="M1105 3821 c-3 -6 -9 -42 -12 -80 -5 -63 -3 -74 22 -116 20 -35 24
-49 15 -55 -8 -5 -8 -10 -2 -14 13 -8 32 47 32 93 0 27 3 32 10 21 6 -9 8 -41
4 -77 -6 -61 -6 -63 20 -73 35 -13 236 -1 236 14 0 6 -39 40 -86 76 -48 35
-119 100 -159 143 -42 45 -76 74 -80 68z"/>
<path d="M2036 3762 c20 -107 51 -177 117 -264 57 -76 61 -79 70 -57 15 42 4
180 -19 224 -17 34 -157 165 -175 165 -3 0 0 -31 7 -68z"/>
<path d="M3498 3803 c-9 -10 -44 -34 -77 -53 -34 -19 -61 -38 -61 -42 0 -4 13
-29 29 -55 16 -27 37 -70 47 -97 17 -46 18 -48 28 -25 5 13 36 80 68 148 33
67 57 125 55 127 -3 3 -20 7 -38 10 -26 4 -39 1 -51 -13z"/>
<path d="M3017 3730 c-75 -58 -77 -60 -50 -66 53 -11 125 -36 201 -70 89 -38
95 -36 117 42 11 41 13 44 14 19 1 -17 -3 -46 -9 -64 -5 -19 -8 -37 -5 -39 2
-2 24 4 49 13 l45 17 -16 32 c-26 50 -73 105 -104 122 -27 13 -147 54 -159 53
-3 0 -40 -27 -83 -59z"/>
<path d="M1876 3761 c-15 -17 -56 -127 -56 -152 0 -5 20 5 44 22 l44 31 51
-17 c28 -9 54 -21 58 -27 4 -7 0 -9 -10 -5 -9 3 -35 11 -58 17 -39 11 -45 10
-83 -17 -37 -26 -42 -35 -53 -93 -17 -91 -16 -182 2 -206 8 -10 15 -17 15 -14
0 3 14 43 31 90 23 66 29 76 26 45 -3 -22 -11 -66 -18 -99 l-14 -58 29 -25
c35 -30 42 -24 22 16 -39 74 -8 140 75 161 24 6 59 17 77 25 17 8 32 11 32 6
0 -10 -50 -36 -115 -59 -44 -15 -51 -22 -59 -53 -7 -29 -4 -45 15 -86 20 -46
29 -53 78 -73 31 -13 79 -35 107 -51 29 -15 55 -25 58 -22 3 4 6 46 6 94 0
106 -22 175 -99 307 -28 49 -55 111 -61 138 -8 38 -18 54 -43 70 -18 11 -44
28 -58 37 -24 16 -27 16 -43 -2z"/>
<path d="M5096 3755 c-21 -31 -20 -44 4 -80 l20 -30 0 68 c0 37 -2 67 -4 67
-2 0 -11 -11 -20 -25z"/>
<path d="M3832 3748 c-18 -11 -30 -24 -25 -29 11 -11 103 -49 103 -43 0 25
-25 94 -34 94 -6 0 -26 -10 -44 -22z"/>
<path d="M3936 3696 c14 -40 31 -82 39 -92 13 -18 14 -17 15 15 0 32 -56 151
-72 151 -3 0 5 -33 18 -74z"/>
<path d="M4887 3667 c-76 -97 -87 -116 -87 -155 0 -40 50 -106 108 -142 l47
-29 11 57 c6 31 16 66 22 78 12 23 61 59 69 51 2 -3 -5 -11 -17 -17 -30 -16
-50 -69 -50 -134 0 -45 4 -58 22 -70 12 -9 27 -16 33 -16 20 0 65 120 65 173
0 46 -6 59 -79 168 l-79 117 -65 -81z"/>
<path d="M3686 3682 c-54 -17 -73 -28 -63 -33 8 -5 20 -21 26 -36 6 -16 37
-46 68 -67 48 -33 59 -37 75 -27 17 11 18 10 9 -7 -8 -15 -6 -23 10 -38 12
-11 32 -38 46 -61 14 -24 28 -43 32 -43 4 0 29 23 56 50 47 48 52 65 10 37
-27 -18 -55 -28 -55 -19 0 4 21 20 46 35 l45 27 -40 73 c-39 71 -41 73 -114
103 l-74 32 -77 -26z"/>
<path d="M853 3634 c-15 -86 -5 -118 35 -110 15 3 47 8 72 11 80 11 82 12 66
43 -23 45 -119 122 -151 122 -6 0 -16 -30 -22 -66z"/>
<path d="M545 3649 c-114 -48 -133 -60 -172 -107 -29 -35 -33 -46 -22 -53 21
-15 241 -4 350 17 l96 18 -66 78 c-76 89 -81 91 -186 47z"/>
<path d="M4105 3642 l-70 -17 -3 -54 c-5 -79 8 -82 73 -20 53 50 96 110 78
108 -5 0 -39 -8 -78 -17z"/>
<path d="M2855 3627 c-39 -22 -40 -25 -45 -84 l-5 -62 30 28 c35 33 151 94
168 88 7 -2 -25 -23 -70 -46 -116 -58 -130 -81 -139 -231 l-7 -114 54 39 c30
21 66 47 81 58 35 26 46 60 56 166 l7 86 5 -58 5 -59 52 64 c28 34 48 67 44
71 -4 4 -43 21 -87 36 -43 16 -86 32 -94 35 -8 3 -33 -4 -55 -17z"/>
<path d="M3577 3629 c-27 -41 -95 -192 -101 -224 l-6 -30 18 25 c9 14 31 41
48 60 79 88 98 137 70 175 -13 18 -14 17 -29 -6z"/>
<path d="M2735 3561 c-28 -16 -69 -46 -93 -67 -35 -33 -45 -50 -59 -107 -17
-64 -17 -69 0 -115 10 -26 30 -82 45 -124 15 -43 32 -76 37 -74 6 1 25 45 42
97 42 121 44 193 8 256 -21 34 -23 43 -10 43 8 0 15 -6 15 -12 1 -8 6 -6 14 5
17 23 26 22 26 -4 0 -11 4 -18 9 -14 10 5 27 132 19 140 -2 2 -26 -9 -53 -24z"/>
<path d="M3627 3540 c-23 -38 -22 -42 14 -62 39 -23 61 -23 90 0 l22 19 -44
30 c-24 16 -49 32 -55 36 -6 3 -18 -7 -27 -23z"/>
<path d="M2320 3535 c-24 -61 -52 -335 -47 -454 l5 -114 67 -66 c52 -50 69
-62 75 -51 4 8 13 60 19 115 7 55 18 150 27 212 l14 111 -45 104 c-25 58 -59
120 -74 139 l-29 34 -12 -30z"/>
<path d="M3062 3491 c-50 -66 -79 -141 -55 -141 49 0 263 136 242 154 -7 6
-121 56 -128 56 -3 0 -30 -31 -59 -69z"/>
<path d="M3353 3548 c-30 -14 -29 -20 8 -47 38 -28 54 -17 38 27 -12 35 -14
36 -46 20z"/>
<path d="M4147 3553 c-12 -11 -8 -123 4 -123 12 0 119 59 119 65 0 4 -105 65
-112 65 -3 0 -8 -3 -11 -7z"/>
<path d="M2 3350 c0 -153 3 -196 10 -170 13 44 12 270 0 330 -7 34 -10 -4 -10
-160z"/>
<path d="M4087 3492 c-30 -31 -28 -52 7 -81 13 -11 16 -9 21 12 4 13 5 41 3
61 l-3 38 -28 -30z"/>
<path d="M4455 3497 l-49 -12 28 -18 c27 -18 44 -18 93 -1 12 5 15 4 8 -3 -5
-5 -29 -15 -52 -23 -42 -13 -150 -91 -159 -115 -3 -7 7 -36 21 -65 l27 -52 40
62 c23 34 65 88 95 119 l54 56 -57 -80 c-31 -44 -68 -104 -82 -133 -30 -66
-25 -81 45 -140 l50 -41 12 39 c6 22 21 44 31 50 11 6 20 18 20 28 1 23 39
106 46 99 3 -3 -2 -20 -11 -37 -10 -20 -15 -44 -11 -61 3 -16 2 -29 -3 -29 -4
0 -20 -11 -35 -25 -19 -17 -26 -34 -26 -59 l0 -36 48 29 c26 17 59 42 74 58
24 25 26 32 18 68 -5 22 -36 105 -69 185 -66 162 -63 159 -156 137z"/>
<path d="M902 3486 l-84 -12 -59 -65 c-32 -35 -58 -67 -59 -71 0 -5 16 -8 35
-8 60 0 375 125 375 149 0 9 -61 21 -100 20 -14 -1 -63 -7 -108 -13z"/>
<path d="M1305 3491 l-50 -6 85 -31 c98 -37 157 -54 184 -54 16 0 15 4 -9 38
-16 20 -35 43 -43 50 -16 12 -78 14 -167 3z"/>
<path d="M3236 3444 c-27 -25 -75 -59 -107 -77 -32 -18 -59 -35 -59 -39 0 -10
37 -9 109 1 44 6 51 5 37 -5 -9 -6 -38 -15 -63 -19 l-46 -7 33 -19 c32 -20
189 -79 243 -93 l27 -6 0 75 c0 46 -6 90 -15 113 -14 33 -91 123 -105 122 -3
-1 -27 -21 -54 -46z"/>
<path d="M4266 3466 c-16 -13 -50 -34 -77 -47 l-49 -22 0 -79 0 -80 25 31 c15
18 46 36 78 47 29 9 66 29 83 43 16 15 47 37 67 50 20 12 37 26 37 31 0 5 -12
18 -26 29 -37 29 -100 28 -138 -3z"/>
<path d="M682 3468 c-67 -7 -89 -13 -122 -37 l-39 -28 70 -33 c39 -18 74 -28
78 -24 65 77 103 125 100 127 -2 2 -41 -1 -87 -5z"/>
<path d="M3554 3428 c-21 -29 -49 -66 -63 -81 -23 -25 -26 -36 -24 -95 1 -67
25 -178 45 -216 19 -36 48 64 48 167 0 77 4 95 29 145 16 31 41 64 56 73 l27
16 -35 22 c-19 11 -37 21 -40 21 -3 0 -22 -24 -43 -52z"/>
<path d="M4630 3453 c0 -14 25 -77 55 -139 30 -62 55 -121 56 -131 0 -13 4
-11 12 8 19 41 37 59 90 86 l49 24 -67 40 c-37 22 -96 62 -131 89 -64 50 -64
50 -64 23z"/>
<path d="M1180 3464 c0 -12 46 -94 78 -139 20 -27 48 -72 63 -99 l27 -48 25
56 c15 32 35 70 47 86 11 15 20 30 20 33 0 3 -17 11 -37 18 -21 6 -80 31 -130
55 -51 23 -93 41 -93 38z"/>
<path d="M3788 3440 c4 -19 7 -63 7 -97 l0 -62 22 21 c13 12 25 29 28 39 6 18
-19 76 -49 114 -15 19 -15 18 -8 -15z"/>
<path d="M3691 3433 c-47 -23 -57 -34 -80 -82 -27 -58 -33 -140 -15 -188 9
-21 12 -20 85 37 51 40 79 69 84 87 8 34 8 150 0 163 -8 13 -12 13 -74 -17z"/>
<path d="M456 3442 c-3 -4 8 -13 23 -19 23 -8 33 -7 52 8 l24 19 -47 0 c-26 0
-49 -4 -52 -8z"/>
<path d="M200 3408 c-67 -35 -81 -72 -88 -224 l-5 -124 36 15 c20 8 57 28 83
45 26 16 71 36 101 45 29 9 53 19 53 23 0 19 -110 72 -180 88 l-55 12 47 1
c55 1 128 -25 209 -76 31 -19 75 -37 96 -40 37 -5 41 -3 55 28 9 19 18 43 20
54 2 11 8 20 13 20 6 1 21 7 33 14 23 12 17 16 -104 73 -111 53 -138 62 -199
65 -60 4 -77 1 -115 -19z"/>
<path d="M1085 3407 c-22 -12 -60 -49 -85 -81 -25 -32 -75 -94 -112 -138 -88
-103 -90 -126 -15 -162 61 -30 369 -137 375 -131 12 11 -35 102 -79 155 -67
81 -97 100 -156 100 -31 0 -58 7 -78 20 -16 11 -25 20 -20 20 6 -1 19 -7 29
-15 11 -9 41 -15 70 -15 l49 0 -19 23 c-46 52 -46 59 0 21 l49 -42 68 39 c74
42 88 47 69 24 -7 -8 -17 -15 -23 -15 -6 0 -30 -12 -54 -26 l-44 -26 54 -56
c63 -67 98 -120 122 -184 17 -45 50 -87 60 -76 3 3 1 52 -4 109 -12 145 -43
226 -137 365 -42 63 -77 114 -78 114 0 0 -19 -11 -41 -23z"/>
<path d="M3945 3363 c-42 -42 -62 -69 -54 -73 6 -5 -1 -12 -20 -18 -39 -14
-81 -55 -81 -81 0 -21 53 -128 75 -150 12 -12 24 -6 82 40 37 30 85 67 107 83
38 29 38 29 34 90 -4 60 -49 176 -69 176 -4 0 -37 -30 -74 -67z m22 -59 c-29
-25 -57 -32 -57 -14 0 6 6 10 14 10 8 0 24 9 37 19 34 28 39 14 6 -15z"/>
<path d="M863 3323 c-93 -32 -102 -37 -108 -64 -7 -32 11 -135 26 -144 5 -4 9
-2 9 4 0 5 34 46 75 91 67 73 113 137 103 144 -2 2 -49 -13 -105 -31z"/>
<path d="M1760 3336 c0 -14 7 -32 16 -40 28 -28 34 -17 13 24 -24 46 -29 49
-29 16z"/>
<path d="M1450 3299 c-23 -29 -47 -75 -56 -107 -15 -52 -15 -62 0 -142 9 -47
16 -97 16 -111 0 -14 3 -29 6 -32 11 -11 123 84 154 132 35 52 60 128 60 183
0 35 -5 42 -61 83 -34 25 -65 45 -70 45 -5 0 -27 -23 -49 -51z"/>
<path d="M5096 3265 c-20 -82 -20 -129 3 -239 l18 -89 -1 197 c0 108 -1 196
-2 196 -1 0 -9 -29 -18 -65z"/>
<path d="M650 3291 c0 -5 -14 -14 -30 -21 -19 -8 -33 -22 -37 -39 -3 -14 -12
-37 -19 -51 -12 -25 -11 -26 79 -67 51 -23 95 -39 99 -35 3 4 -2 39 -12 77
-11 39 -19 82 -19 98 -1 20 -8 30 -27 37 -31 12 -34 12 -34 1z"/>
<path d="M4245 3281 c-22 -10 -50 -30 -63 -43 l-23 -25 92 -6 c51 -4 94 -5 96
-3 7 7 -41 96 -51 96 -6 0 -29 -9 -51 -19z"/>
<path d="M4847 3262 c-48 -32 -59 -44 -74 -87 -19 -57 -21 -161 -4 -193 10
-18 21 -22 60 -22 39 0 184 39 198 54 3 3 -3 47 -13 100 -18 96 -26 112 -84
163 l-25 22 -58 -37z"/>
<path d="M2880 3219 c-58 -39 -113 -78 -122 -87 -34 -34 -104 -242 -81 -242
32 0 183 202 183 246 0 28 56 78 105 94 20 7 39 10 41 7 3 -3 -9 -10 -27 -16
-47 -16 -99 -59 -99 -82 0 -10 5 -19 12 -19 6 0 2 -10 -9 -22 -25 -27 -77
-128 -66 -128 47 0 201 34 217 48 33 30 56 93 56 157 0 84 -15 109 -65 113
-35 2 -53 -7 -145 -69z"/>
<path d="M3120 3215 c0 -19 4 -36 9 -40 10 -5 -15 -90 -39 -134 -10 -21 -9
-21 32 -15 66 10 90 25 114 74 38 76 37 77 -43 115 l-73 34 0 -34z"/>
<path d="M1660 3199 l0 -41 27 32 c21 26 24 33 12 41 -29 18 -39 10 -39 -32z"/>
<path d="M1688 3152 c-21 -32 -38 -64 -38 -71 0 -16 69 -8 195 24 50 12 91 21
93 20 2 -2 -29 -14 -70 -26 -40 -13 -74 -24 -76 -25 -2 -1 6 -20 16 -41 11
-21 28 -65 37 -98 22 -76 24 -78 41 -64 14 11 22 5 71 -60 10 -14 14 -13 37 8
33 31 33 39 -4 108 -24 45 -30 67 -29 117 l1 61 12 -66 c10 -58 49 -139 67
-139 3 0 14 9 24 20 13 15 16 28 11 57 -5 27 -4 34 3 23 14 -19 14 -87 1 -95
-16 -10 -12 -25 8 -25 9 -1 31 -7 47 -15 29 -14 28 -14 -22 -8 l-53 6 20 -58
c11 -32 20 -72 20 -89 0 -54 11 -61 64 -37 l47 20 -7 53 c-20 165 -51 254
-106 305 -43 40 -264 137 -338 149 -34 5 -36 3 -72 -54z"/>
<path d="M2547 3184 c-6 -20 -24 -240 -30 -376 -2 -43 0 -78 4 -78 18 0 59 90
80 174 20 80 21 95 10 150 -7 33 -23 80 -35 105 -19 37 -24 42 -29 25z"/>
<path d="M3280 3172 c0 -23 48 -63 97 -82 l52 -20 -5 33 c-9 53 -11 54 -56 61
-23 4 -53 9 -65 13 -13 3 -23 1 -23 -5z"/>
<path d="M3708 3154 c-44 -32 -54 -67 -41 -145 7 -43 5 -65 -10 -111 -10 -31
-17 -74 -15 -95 l3 -38 32 56 c17 31 57 84 87 117 31 33 56 65 56 71 0 6 -13
41 -30 78 -16 36 -30 72 -30 79 0 20 -10 17 -52 -12z"/>
<path d="M4160 3142 c-8 -4 -15 -16 -16 -27 -1 -11 -4 -41 -8 -66 l-8 -47 39
-5 c31 -5 54 2 131 40 50 25 92 49 92 54 0 5 -22 20 -50 34 -49 25 -143 34
-180 17z"/>
<path d="M295 3129 c-43 -12 -184 -83 -185 -91 -1 -27 144 30 210 82 27 21 22
23 -25 9z"/>
<path d="M400 3126 c-19 -6 -75 -33 -123 -59 -48 -27 -106 -51 -129 -54 l-40
-6 6 -61 c4 -34 13 -90 22 -126 24 -104 32 -161 33 -227 1 -61 2 -63 52 -112
52 -51 95 -71 155 -71 28 0 34 5 48 41 19 46 19 45 -45 119 -26 30 -72 95
-102 145 -30 49 -60 91 -65 93 -6 2 -18 -11 -27 -28 -9 -18 -19 -30 -21 -27
-3 3 4 20 15 38 l20 33 -22 25 -22 25 27 -17 c35 -22 38 -21 38 6 0 12 5 29
11 37 8 11 9 5 6 -27 -5 -38 1 -50 64 -145 37 -57 84 -121 103 -143 l35 -40 1
62 c0 92 -28 158 -105 241 -36 39 -65 73 -65 77 0 4 41 -32 92 -80 l92 -88 12
36 c7 20 25 57 40 82 20 34 28 65 32 116 l5 69 -38 16 c-45 18 -42 25 8 17 32
-5 38 -11 50 -46 18 -56 37 -66 83 -44 46 22 58 15 13 -8 -20 -11 -44 -15 -66
-12 -31 5 -33 4 -33 -21 0 -15 -14 -56 -30 -90 -28 -60 -38 -102 -24 -102 18
0 176 116 223 164 l54 55 -29 11 c-16 6 -78 36 -139 66 -128 64 -167 75 -215
60z"/>
<path d="M4065 3104 c-22 -15 -55 -41 -73 -58 l-33 -31 63 -6 c35 -3 68 -4 74
-1 7 2 17 23 23 47 21 84 12 92 -54 49z"/>
<path d="M3251 3073 c-24 -48 -46 -67 -95 -83 l-40 -13 85 -28 c97 -32 139
-36 139 -14 0 9 6 28 14 43 29 57 29 68 -3 82 -16 6 -37 20 -47 31 -24 27 -31
24 -53 -18z"/>
<path d="M3623 3079 c-7 -8 -23 -39 -37 -69 -24 -50 -26 -66 -26 -190 0 -74 4
-141 8 -148 13 -19 30 27 43 111 5 40 17 92 24 117 18 57 8 203 -12 179z"/>
<path d="M4635 3048 c-27 -21 -51 -42 -53 -47 -5 -15 112 -122 183 -167 l30
-19 -23 35 c-46 71 -73 132 -80 184 l-7 52 -50 -38z"/>
<path d="M4370 3054 c-19 -14 -57 -37 -85 -51 l-50 -25 100 6 c55 4 111 9 124
13 49 13 10 -16 -41 -32 -61 -18 -161 -19 -259 -4 -39 6 -73 8 -76 5 -3 -3 3
-27 13 -55 15 -43 16 -57 5 -104 -8 -35 -10 -83 -5 -131 l7 -77 27 48 c15 26
52 70 81 97 123 112 159 150 160 170 0 19 1 19 10 -3 8 -21 3 -31 -32 -75 -39
-47 -40 -49 -8 -20 19 16 67 56 107 88 39 31 72 60 72 64 0 9 -103 112 -110
112 -3 -1 -21 -12 -40 -26z"/>
<path d="M1697 3046 c-43 -18 -79 -45 -136 -101 -43 -43 -86 -82 -95 -87 -9
-5 -23 -23 -32 -40 -14 -26 -14 -39 -4 -95 l12 -64 49 46 c28 26 58 45 71 45
13 0 33 3 45 6 24 7 24 -7 8 179 l-4 50 19 -35 c19 -36 117 -126 127 -117 3 3
16 34 29 69 27 73 32 52 7 -35 l-16 -59 31 -31 32 -32 0 61 c0 90 -48 264 -73
264 -7 0 -38 -11 -70 -24z"/>
<path d="M0 2826 l0 -209 35 44 c19 24 35 53 35 64 0 37 -47 272 -58 291 -9
14 -11 -33 -12 -190z"/>
<path d="M3382 2985 c-7 -25 -12 -60 -12 -78 0 -44 76 -219 115 -264 l32 -37
-4 134 c-3 114 -8 145 -30 203 -19 51 -32 71 -50 78 -36 14 -38 13 -51 -36z"/>
<path d="M4950 2968 c-48 -16 -101 -27 -122 -25 -21 1 -38 0 -38 -3 0 -14 52
-87 115 -160 90 -106 103 -105 127 5 17 83 21 155 10 191 -7 20 -8 20 -92 -8z"/>
<path d="M752 2914 l-63 -66 3 -75 c4 -97 14 -105 89 -74 34 14 84 24 134 27
133 8 165 14 165 29 0 8 10 35 22 60 12 24 20 46 17 49 -8 7 -285 116 -295
115 -5 0 -37 -29 -72 -65z"/>
<path d="M3866 2949 c-78 -42 -166 -153 -166 -212 0 -23 25 -67 32 -57 2 3 21
28 41 56 33 47 95 104 112 104 4 0 -16 -23 -44 -52 -28 -29 -51 -56 -51 -61 0
-15 120 56 161 95 l40 39 -29 52 c-16 29 -36 53 -43 54 -8 1 -31 -7 -53 -18z"/>
<path d="M3960 2963 c1 -5 6 -18 13 -31 l13 -23 12 26 c16 35 16 35 -13 35
-14 0 -25 -3 -25 -7z"/>
<path d="M4014 2925 c-5 -39 -3 -50 21 -81 30 -39 45 -33 45 16 0 31 -35 110
-49 110 -5 0 -13 -20 -17 -45z"/>
<path d="M3006 2930 c-10 -19 -36 -59 -59 -88 -38 -50 -40 -55 -38 -121 1 -45
-4 -84 -15 -110 -10 -25 -14 -55 -11 -74 8 -50 35 -109 47 -102 5 3 17 31 26
62 21 72 14 180 -14 246 -24 54 -14 64 13 12 l19 -34 28 97 c16 53 27 108 26
122 -3 24 -4 24 -22 -10z"/>
<path d="M2893 2939 c-98 -12 -102 -18 -54 -70 22 -24 41 -48 41 -53 0 -18 71
58 91 97 22 43 29 40 -78 26z"/>
<path d="M3025 2833 c-23 -92 -29 -139 -30 -225 0 -59 1 -108 2 -108 2 0 12
19 24 42 12 24 40 67 61 96 22 29 38 56 35 58 -2 3 -28 -4 -58 -15 -29 -11
-55 -18 -57 -16 -6 6 99 55 119 55 20 0 39 20 39 41 0 35 -80 189 -98 189 -4
0 -21 -53 -37 -117z"/>
<path d="M3126 2909 c14 -23 34 -61 44 -85 18 -40 21 -43 44 -35 13 6 52 13
86 17 51 6 60 9 55 23 -4 9 -12 28 -17 44 -5 15 -17 27 -26 27 -10 0 -55 12
-101 25 -114 33 -116 33 -85 -16z"/>
<path d="M4432 2860 c-92 -82 -127 -129 -109 -147 3 -3 32 -1 64 3 l58 9 11
70 11 70 4 -70 4 -70 23 23 c20 20 23 32 20 72 -3 52 6 58 17 11 l6 -29 45 20
c25 11 48 17 51 15 2 -3 -16 -14 -40 -25 -42 -19 -67 -45 -67 -71 0 -6 20 -11
46 -11 27 0 43 -4 39 -10 -3 -5 -34 -10 -69 -10 -69 0 -77 -4 -126 -69 -19
-24 -47 -52 -64 -63 l-31 -19 74 3 c63 3 76 7 94 28 13 16 18 19 14 8 -8 -23
5 -23 26 0 9 10 49 35 89 55 40 21 90 53 111 71 l39 32 -42 28 c-22 15 -74 58
-114 96 -40 39 -75 70 -78 70 -2 0 -50 -41 -106 -90z"/>
<path d="M2283 2800 c5 -133 21 -235 37 -245 5 -3 30 22 55 55 l47 61 -7 68
c-7 68 -7 69 -72 132 l-65 64 5 -135z"/>
<path d="M1634 2858 c4 -29 10 -63 13 -76 l5 -22 37 22 36 21 -28 -29 -27 -30
35 -70 c25 -49 39 -93 47 -151 6 -46 14 -83 18 -83 4 0 24 18 44 40 35 38 36
43 35 113 0 39 -3 79 -7 89 -4 9 -54 64 -111 123 l-104 107 7 -54z"/>
<path d="M2718 2853 c-26 -27 -57 -70 -69 -98 -14 -32 -44 -71 -83 -107 l-61
-57 -3 -151 c-3 -115 -1 -150 8 -145 7 4 33 40 60 80 52 80 66 140 50 210 -5
22 -7 41 -5 44 10 9 35 -71 35 -111 l0 -42 43 60 c96 132 101 141 88 199 -7
30 -9 75 -5 108 4 33 3 57 -2 57 -6 0 -31 -21 -56 -47z"/>
<path d="M2797 2851 c4 -24 3 -32 -5 -27 -7 4 -9 -5 -5 -31 9 -57 24 -77 18
-23 -4 33 -3 40 4 25 5 -11 10 -31 10 -44 1 -24 1 -24 16 -5 22 30 17 66 -15
104 l-30 35 7 -34z"/>
<path d="M5101 2803 c-22 -120 -23 -193 -3 -338 l20 -140 1 273 c0 149 0 272
-2 272 -2 0 -9 -30 -16 -67z"/>
<path d="M1134 2814 c-14 -33 -14 -38 1 -54 9 -10 36 -21 60 -25 27 -4 69 -22
105 -47 34 -22 64 -38 67 -35 7 8 -4 48 -20 68 -15 20 -174 129 -188 129 -5 0
-17 -16 -25 -36z"/>
<path d="M3943 2793 c-29 -30 -83 -68 -122 -87 -79 -40 -87 -49 -65 -67 13
-10 23 -5 66 37 28 27 46 40 40 28 -6 -11 -18 -26 -26 -34 -9 -7 -16 -17 -16
-22 0 -11 82 -47 93 -41 4 2 7 25 8 51 0 42 1 44 10 22 6 -14 8 -37 5 -53 -5
-25 -1 -29 51 -52 31 -14 59 -23 62 -19 3 3 6 45 6 92 0 90 -13 143 -43 177
-17 20 -18 19 -69 -32z"/>
<path d="M616 2805 c-83 -57 -83 -57 -10 -81 l64 -20 0 68 c0 37 -1 68 -2 67
-2 0 -25 -15 -52 -34z"/>
<path d="M1871 2788 c0 -29 3 -71 7 -93 l7 -40 28 49 c15 27 27 57 27 68 0 19
-45 68 -61 68 -5 0 -9 -24 -8 -52z"/>
<path d="M2003 2786 c-40 -49 -100 -165 -107 -206 -12 -65 4 -68 83 -16 77 50
91 72 91 139 0 50 -17 117 -30 117 -5 0 -21 -15 -37 -34z"/>
<path d="M2857 2746 c-15 -31 -16 -44 -6 -79 9 -34 13 -38 20 -24 6 9 9 45 7
79 l-3 61 -18 -37z"/>
<path d="M4240 2734 c-45 -42 -130 -168 -130 -193 0 -17 35 -13 52 7 30 33
143 232 133 232 -3 0 -28 -21 -55 -46z"/>
<path d="M3265 2763 c-73 -15 -68 -10 -48 -43 19 -34 38 -38 64 -14 17 15 17
14 7 -20 -10 -31 -14 -34 -27 -24 -14 11 -14 10 0 -7 9 -11 19 -42 22 -69 4
-45 11 -55 88 -132 l83 -83 38 57 c21 31 38 64 38 72 0 9 -18 34 -41 55 -45
44 -81 107 -98 173 l-12 42 -47 -1 c-26 -1 -56 -3 -67 -6z"/>
<path d="M1585 2739 c-42 -7 -56 -15 -87 -50 -21 -23 -38 -48 -38 -55 0 -8 27
-67 59 -132 69 -137 149 -253 161 -231 8 15 25 128 21 144 -1 5 5 15 15 22 15
11 15 20 5 90 -11 72 -42 159 -73 201 -11 15 -21 17 -63 11z"/>
<path d="M4744 2705 c-22 -19 -72 -52 -110 -74 -38 -22 -66 -41 -63 -41 3 0
54 -9 113 -20 119 -22 169 -17 215 21 l24 20 -63 64 c-36 36 -67 65 -70 65 -3
0 -23 -16 -46 -35z"/>
<path d="M3621 2663 c-41 -143 -36 -159 22 -63 34 59 35 62 21 95 -8 19 -16
35 -19 35 -2 0 -13 -30 -24 -67z"/>
<path d="M502 2688 c-17 -54 -25 -165 -13 -186 12 -23 71 -62 94 -62 19 0 84
188 74 214 -6 16 -72 49 -122 62 -19 5 -25 0 -33 -28z"/>
<path d="M1130 2704 c0 -21 57 -98 107 -145 30 -29 58 -42 128 -62 49 -14 90
-25 92 -24 1 1 -13 36 -31 77 -30 66 -37 75 -65 81 -18 4 -51 20 -74 37 -23
16 -66 35 -95 41 -66 14 -62 14 -62 -5z"/>
<path d="M3144 2678 c-14 -23 -32 -49 -38 -57 -9 -11 -5 -13 19 -8 17 3 49 9
73 12 l42 7 -17 30 c-10 16 -26 36 -35 45 -15 13 -19 11 -44 -29z"/>
<path d="M1035 2695 c39 -18 55 -18 55 0 0 11 -11 15 -42 14 l-43 -1 30 -13z"/>
<path d="M4362 2690 c-72 -8 -93 -24 -128 -92 -28 -55 -22 -59 48 -29 50 21
99 60 129 102 11 16 19 28 17 28 -2 -1 -31 -5 -66 -9z"/>
<path d="M792 2671 c-50 -24 -47 -35 23 -89 54 -41 121 -64 177 -60 l43 3 -47
30 c-27 16 -48 33 -48 37 0 11 14 10 26 -1 5 -5 19 -12 32 -16 19 -5 22 -3 22
20 0 36 16 23 24 -20 9 -44 37 -57 110 -53 l51 3 -53 51 c-83 80 -141 107
-237 111 -64 3 -88 0 -123 -16z"/>
<path d="M4980 2682 c0 -5 7 -15 15 -22 8 -7 15 -8 15 -2 0 5 -7 15 -15 22 -8
7 -15 8 -15 2z"/>
<path d="M38 2625 l-38 -53 0 -409 0 -410 43 -99 c24 -54 49 -110 55 -124 10
-23 11 -22 13 20 3 75 -1 110 -31 231 -69 272 -74 400 -25 625 18 85 25 143
23 197 l-3 76 -37 -54z"/>
<path d="M2152 2645 c-30 -18 -66 -44 -80 -57 -15 -14 -48 -39 -74 -57 -50
-34 -52 -39 -39 -110 6 -31 5 -61 -5 -98 -15 -56 -19 -125 -8 -136 13 -13 65
26 174 132 l113 109 -7 113 c-3 61 -10 117 -14 124 -5 8 -22 3 -60 -20z"/>
<path d="M2745 2573 l-68 -103 44 -47 c24 -27 46 -49 49 -50 9 -5 68 92 74
122 3 17 -2 64 -12 105 l-19 75 -68 -102z"/>
<path d="M685 2604 c-13 -33 -55 -161 -55 -170 0 -2 26 -4 58 -4 55 0 145 20
186 42 25 13 12 22 -74 48 -66 21 -108 45 -98 56 4 3 16 0 29 -6 23 -13 79
-31 79 -26 0 2 -25 25 -55 50 l-54 47 -16 -37z"/>
<path d="M3683 2628 c-6 -7 -22 -36 -37 -65 l-26 -52 44 -31 45 -30 20 26 c25
32 26 43 6 90 -23 56 -40 77 -52 62z"/>
<path d="M3789 2614 c-15 -14 -14 -22 7 -90 13 -41 24 -90 24 -109 0 -19 5
-35 11 -35 17 0 141 85 172 117 l28 30 -103 47 c-57 27 -108 50 -113 52 -6 2
-18 -3 -26 -12z"/>
<path d="M3176 2599 c-61 -10 -103 -27 -110 -44 -3 -9 13 -14 57 -19 34 -4 77
-9 95 -13 30 -5 32 -4 32 25 0 34 -9 63 -19 61 -3 -1 -28 -5 -55 -10z"/>
<path d="M4923 2581 c-7 -10 -33 -29 -58 -41 -43 -21 -55 -22 -138 -15 -210
18 -265 8 -278 -50 -4 -16 -18 -75 -33 -129 -14 -55 -25 -101 -23 -103 2 -2
46 1 98 7 85 8 96 12 116 37 13 15 23 34 23 41 0 8 5 10 12 6 7 -5 9 -2 6 8
-4 9 0 15 8 15 18 0 18 -3 -7 -43 -22 -36 -17 -40 25 -24 18 7 38 35 70 97 54
105 58 99 12 -17 -32 -79 -38 -87 -83 -112 -26 -15 -54 -28 -62 -28 -7 0 -56
-40 -108 -90 -52 -49 -99 -90 -104 -90 -5 0 -9 -4 -9 -10 0 -23 67 -8 129 30
37 22 77 41 91 42 23 3 25 -1 28 -37 1 -22 5 -51 8 -64 l5 -24 30 29 c39 37
37 24 -3 -21 l-31 -36 30 -31 c17 -17 36 -27 42 -24 6 4 11 34 11 67 0 103 26
193 71 245 31 36 39 53 39 84 0 21 5 42 11 46 9 5 10 -7 5 -45 l-7 -52 91 46
c49 25 90 48 90 51 0 35 -37 169 -56 201 -30 52 -37 56 -51 34z"/>
<path d="M2402 2540 c-12 -19 -32 -60 -43 -90 -20 -52 -20 -62 -10 -165 6 -60
13 -126 14 -145 l2 -35 27 45 c44 74 57 201 39 365 l-6 60 -23 -35z"/>
<path d="M146 2450 c-17 -74 -35 -192 -36 -227 l0 -22 88 30 c118 42 137 53
162 95 29 45 19 53 -65 55 -39 1 -51 4 -35 8 24 6 23 8 -37 67 l-62 61 -15
-67z"/>
<path d="M3040 2510 c0 -2 7 -23 16 -46 15 -40 17 -42 47 -33 29 8 87 55 87
70 0 4 -34 9 -75 11 -41 2 -75 1 -75 -2z"/>
<path d="M4322 2489 c-72 -9 -102 -17 -102 -27 0 -10 149 -157 153 -151 4 6
57 174 57 182 0 8 -22 7 -108 -4z"/>
<path d="M3170 2446 c-25 -23 -51 -45 -59 -47 -10 -4 -11 -13 -1 -48 10 -37 8
-53 -9 -111 -25 -82 -26 -108 -5 -139 24 -34 33 -11 35 84 l1 80 10 -53 10
-53 61 54 c52 45 67 66 91 127 32 78 48 81 22 4 l-15 -45 39 31 c22 18 40 34
40 37 0 2 -25 31 -57 64 -72 75 -98 78 -163 15z"/>
<path d="M2850 2433 c-13 -26 -26 -52 -28 -56 -2 -5 10 -1 27 8 38 19 46 35
34 70 -8 26 -9 25 -33 -22z"/>
<path d="M3003 2468 c-26 -33 -24 -38 11 -38 32 0 35 2 27 22 -10 27 -25 33
-38 16z"/>
<path d="M3533 2367 c-87 -187 -92 -237 -31 -332 34 -52 44 -63 54 -53 27 27
84 133 84 155 0 12 -14 39 -32 60 -67 79 -65 77 -43 65 23 -12 68 -59 82 -85
9 -17 11 -15 23 13 11 27 11 36 0 54 -60 95 -71 117 -76 152 l-5 39 21 -50
c21 -50 84 -135 99 -135 5 0 20 18 35 41 26 38 26 42 12 65 -15 22 -151 125
-165 124 -3 -1 -29 -51 -58 -113z"/>
<path d="M1842 2440 c-57 -41 -94 -100 -100 -158 -4 -46 -2 -50 46 -103 28
-30 53 -51 57 -47 4 3 20 62 36 130 29 121 34 198 13 205 -6 2 -29 -10 -52
-27z"/>
<path d="M3750 2458 c0 -7 5 -20 10 -28 8 -12 10 -9 10 13 0 15 -4 27 -10 27
-5 0 -10 -6 -10 -12z"/>
<path d="M945 2441 c-106 -26 -215 -72 -232 -98 -8 -12 -17 -41 -20 -64 -6
-39 -5 -42 13 -34 10 5 84 9 164 10 123 2 156 6 220 26 l75 25 11 45 c7 26 17
55 23 67 6 11 11 25 11 31 0 18 -186 12 -265 -8z"/>
<path d="M502 2419 c10 -29 23 -35 44 -21 7 4 -1 15 -22 28 l-32 22 10 -29z"/>
<path d="M1236 2435 c-3 -9 -6 -39 -6 -67 l0 -50 63 7 c34 4 94 13 132 19 l70
12 -35 22 c-44 28 -129 60 -179 68 -30 5 -39 3 -45 -11z"/>
<path d="M2653 2439 c-10 -10 -4 -18 30 -41 47 -31 37 -37 -18 -11 -19 9 -36
15 -38 12 -14 -18 -47 -82 -44 -85 5 -6 140 36 151 46 4 5 -9 27 -30 50 -31
33 -42 39 -51 29z"/>
<path d="M4098 2443 c-10 -2 -21 -17 -24 -31 -15 -59 -56 -120 -124 -181 -59
-52 -71 -68 -68 -90 2 -17 8 -25 18 -23 83 19 164 42 171 49 5 5 25 47 44 94
24 59 35 100 35 137 0 54 -4 58 -52 45z"/>
<path d="M4180 2373 c-6 -36 -18 -83 -26 -102 -37 -85 -33 -85 41 -7 41 44 75
84 75 90 -1 10 -66 86 -74 86 -2 0 -9 -30 -16 -67z"/>
<path d="M445 2419 c-9 -14 -2 -20 14 -10 8 6 9 11 3 15 -6 3 -14 1 -17 -5z"/>
<path d="M3720 2422 c0 -14 39 -46 47 -39 3 4 -2 16 -12 27 -19 21 -35 26 -35
12z"/>
<path d="M3965 2379 c-139 -97 -154 -119 -122 -176 12 -21 14 -20 89 50 73 69
108 117 108 152 0 23 -11 19 -75 -26z"/>
<path d="M2202 2363 c-17 -27 -52 -68 -77 -93 l-46 -45 33 -12 c18 -6 51 -12
73 -12 30 -1 36 -4 25 -11 -9 -6 -42 -8 -81 -4 -44 4 -75 2 -89 -6 -36 -19
-100 -81 -100 -97 0 -18 280 -313 298 -313 6 0 12 10 12 23 0 12 7 114 15 227
8 112 13 220 10 240 -14 88 -28 150 -35 150 -4 0 -22 -21 -38 -47z"/>
<path d="M1207 2394 c-4 -4 -7 -23 -6 -43 l1 -36 9 33 c11 36 9 58 -4 46z"/>
<path d="M2950 2385 c-7 -8 -10 -25 -7 -37 10 -38 99 -170 108 -161 5 5 14 35
20 66 17 81 1 132 -42 141 -48 9 -65 7 -79 -9z"/>
<path d="M416 2364 c-5 -13 -1 -15 21 -9 43 10 52 25 16 25 -19 0 -33 -6 -37
-16z"/>
<path d="M565 2367 c-22 -7 -39 -17 -37 -22 19 -75 46 -135 60 -135 49 1 58
10 69 73 6 34 12 69 14 77 5 20 -52 23 -106 7z"/>
<path d="M2890 2340 c0 -5 5 -10 10 -10 6 0 10 5 10 10 0 6 -4 10 -10 10 -5 0
-10 -4 -10 -10z"/>
<path d="M3363 2318 c-37 -40 -53 -69 -53 -98 0 -15 5 -20 14 -17 7 3 31 -12
52 -34 l39 -40 12 88 c10 74 9 91 -3 111 -19 29 -24 28 -61 -10z m47 -88 c0
-5 -7 -7 -15 -4 -8 4 -15 8 -15 10 0 2 7 4 15 4 8 0 15 -4 15 -10z"/>
<path d="M4275 2331 c-3 -11 -45 -62 -93 -113 -83 -89 -118 -145 -138 -222 -6
-27 -5 -29 17 -22 13 3 46 11 72 17 47 11 48 12 82 84 33 68 66 108 125 146
22 14 23 18 11 46 -7 17 -25 43 -41 58 -27 26 -28 26 -35 6z"/>
<path d="M430 2322 c-38 -15 -50 -27 -82 -82 -21 -36 -38 -68 -38 -72 0 -4 17
0 38 9 20 8 73 18 118 21 l80 5 -24 68 c-14 38 -30 69 -36 68 -6 0 -31 -8 -56
-17z"/>
<path d="M2813 2328 c-30 -6 -53 -15 -53 -22 0 -6 -20 -44 -44 -83 l-43 -70
43 -22 44 -21 0 28 c0 15 3 44 6 65 6 34 10 38 46 44 22 3 54 17 70 32 29 24
30 24 19 3 -6 -12 -24 -30 -39 -39 -15 -9 -28 -18 -30 -19 -9 -6 42 -85 85
-131 66 -70 204 -195 210 -189 12 12 -31 118 -66 162 -22 28 -61 90 -88 138
-26 49 -61 99 -78 111 -27 19 -36 21 -82 13z"/>
<path d="M4935 2269 c-83 -44 -155 -104 -155 -130 0 -12 -4 -14 77 29 76 39
74 19 -3 -27 -65 -38 -87 -78 -82 -147 l3 -44 105 60 c141 82 151 92 157 171
2 35 1 80 -4 99 l-8 35 -90 -46z"/>
<path d="M2654 2276 c-130 -53 -128 -51 -60 -81 l60 -26 18 23 c28 35 71 108
66 113 -2 2 -40 -11 -84 -29z"/>
<path d="M1370 2295 c-8 -2 -46 -7 -83 -10 l-69 -7 -24 -54 c-13 -30 -24 -56
-24 -58 0 -2 21 -11 47 -20 50 -17 171 -20 238 -7 l40 9 -40 1 c-33 1 -37 3
-22 12 13 8 37 8 81 0 73 -13 126 -14 126 -3 0 14 -82 107 -106 120 -24 13
-135 24 -164 17z"/>
<path d="M260 2236 c-30 -13 -76 -31 -102 -40 -46 -17 -48 -19 -48 -57 0 -44
7 -47 72 -29 38 11 95 66 123 119 8 17 14 31 13 30 -2 0 -28 -11 -58 -23z"/>
<path d="M1100 2242 l-64 -16 49 -22 c28 -13 53 -23 56 -23 5 -1 31 71 26 75
-1 0 -31 -6 -67 -14z"/>
<path d="M3238 2208 c-21 -22 -38 -41 -38 -43 0 -2 18 4 40 13 33 14 40 22 40
45 0 15 -1 26 -2 26 -2 -1 -20 -20 -40 -41z"/>
<path d="M2780 2177 c0 -58 7 -70 60 -108 31 -23 90 -46 90 -35 0 2 -18 26
-40 52 -23 27 -48 70 -58 97 -11 32 -22 47 -34 47 -15 0 -18 -9 -18 -53z"/>
<path d="M3760 2201 c-25 -36 -92 -182 -86 -188 12 -12 89 42 117 83 30 44 31
48 18 86 -17 51 -23 54 -49 19z"/>
<path d="M750 2208 c-60 -13 -65 -20 -45 -59 32 -63 89 -159 95 -159 4 0 14
15 22 33 9 17 44 64 78 102 l61 70 -38 12 c-46 14 -112 14 -173 1z"/>
<path d="M4466 2209 c-38 -4 -72 -11 -77 -16 -9 -9 -29 -123 -21 -123 3 0 36
26 75 58 38 31 79 65 91 74 11 10 17 17 11 16 -5 0 -41 -4 -79 -9z"/>
<path d="M2506 2194 c-5 -13 7 -31 41 -66 l48 -49 22 28 c37 46 38 44 -93 99
-6 3 -14 -3 -18 -12z"/>
<path d="M1025 2108 c-3 -46 -8 -92 -11 -103 -4 -17 -2 -16 13 5 10 14 37 46
60 71 24 25 43 51 43 57 0 12 -37 34 -76 46 -21 6 -22 3 -29 -76z"/>
<path d="M3315 2169 c4 -13 20 -37 35 -54 15 -16 34 -41 43 -55 l17 -24 0 35
c0 41 -23 76 -70 103 l-32 18 7 -23z"/>
<path d="M622 2173 c-13 -3 -25 -10 -28 -17 -3 -7 9 -67 26 -132 17 -65 34
-154 37 -197 6 -77 6 -78 22 -53 8 14 39 37 69 51 29 14 55 31 57 38 3 6 -29
75 -70 152 -41 77 -75 146 -75 153 0 6 -3 11 -7 11 -5 -1 -18 -4 -31 -6z"/>
<path d="M935 2122 c-118 -133 -120 -145 -58 -276 54 -115 52 -111 57 -105 7
6 54 292 62 372 3 37 2 67 -2 67 -5 0 -32 -26 -59 -58z"/>
<path d="M3219 2152 c-45 -23 -57 -35 -68 -69 -13 -36 -13 -45 5 -93 10 -30
24 -55 31 -57 6 -2 30 14 52 35 l41 39 0 86 c0 48 -2 87 -4 87 -2 0 -28 -13
-57 -28z"/>
<path d="M4306 2147 c-38 -36 -82 -120 -66 -125 6 -2 27 5 47 15 35 16 39 23
50 78 6 33 10 61 9 63 -2 2 -20 -12 -40 -31z"/>
<path d="M404 2150 c-55 -11 -107 -34 -146 -64 -18 -13 -49 -31 -68 -38 -55
-23 -61 -35 -50 -109 14 -87 42 -209 49 -209 3 0 31 20 61 44 l54 43 38 -25
c24 -16 50 -47 70 -85 43 -79 63 -88 120 -49 80 55 83 62 82 171 0 72 -7 121
-28 196 -15 55 -29 101 -31 103 -1 2 -16 -9 -33 -23 -38 -32 -93 -116 -102
-158 -6 -26 -9 -29 -15 -14 -12 28 24 95 89 164 l58 63 -53 -1 c-30 -1 -72 -5
-95 -9z"/>
<path d="M2458 2113 c-25 -46 -58 -143 -58 -169 0 -10 6 -10 33 0 17 7 64 21
102 31 39 10 71 19 73 20 1 2 -3 15 -10 29 -8 20 -17 26 -31 22 -22 -5 -47 2
-47 15 0 5 11 9 25 9 14 0 25 4 25 8 0 9 -73 82 -81 82 -3 0 -17 -21 -31 -47z"/>
<path d="M1146 2043 c-10 -49 -20 -98 -23 -110 -4 -20 -1 -23 21 -23 23 0 31
8 48 48 25 55 37 42 13 -14 -8 -20 -14 -38 -13 -38 2 -1 36 -30 76 -65 39 -35
72 -58 72 -52 0 7 -28 67 -62 134 -35 67 -71 141 -80 165 -9 23 -21 42 -26 42
-5 0 -17 -39 -26 -87z"/>
<path d="M2645 2101 c-8 -17 -12 -37 -9 -45 8 -22 65 -30 137 -20 l62 9 -82
43 c-44 23 -84 42 -87 42 -3 0 -12 -13 -21 -29z"/>
<path d="M3976 2105 c-37 -13 -70 -26 -73 -28 -2 -3 0 -31 6 -64 6 -32 12 -68
13 -81 l3 -22 32 20 c23 14 36 32 46 68 8 27 25 68 36 90 12 23 18 42 14 42
-5 0 -39 -11 -77 -25z"/>
<path d="M3320 2067 c0 -73 -18 -108 -75 -147 -44 -30 -61 -70 -30 -70 8 0 53
-20 101 -45 48 -25 89 -43 91 -41 2 1 -1 53 -6 114 -9 96 -15 120 -45 179
l-35 68 -1 -58z"/>
<path d="M3822 2099 c-17 -27 -6 -38 15 -16 11 11 14 20 7 27 -6 6 -14 2 -22
-11z"/>
<path d="M1220 2105 c0 -13 77 -170 107 -219 l30 -48 6 33 c3 19 9 66 13 104
4 39 10 80 15 91 7 21 4 22 -64 26 -40 3 -80 8 -89 12 -10 5 -18 5 -18 1z"/>
<path d="M1450 2103 c-14 -6 -30 -22 -30 -33 0 -3 22 -36 49 -74 l49 -68 44
40 c55 51 138 92 169 86 40 -8 -40 27 -96 42 -50 14 -156 18 -185 7z"/>
<path d="M4552 2062 l-73 -46 34 -12 c19 -7 48 -19 64 -28 43 -22 55 -5 51 72
l-3 61 -73 -47z"/>
<path d="M1085 2059 c-45 -50 -81 -126 -90 -193 l-7 -48 44 30 c61 42 63 46
77 142 7 47 14 91 16 98 7 20 0 15 -40 -29z"/>
<path d="M3451 2009 c2 -77 11 -124 24 -124 5 0 14 14 20 30 5 17 14 33 20 37
10 7 -10 49 -47 97 -18 24 -18 24 -17 -40z"/>
<path d="M4975 2017 c-33 -23 -84 -56 -112 -74 -66 -40 -93 -83 -93 -145 0
-75 3 -78 81 -78 l70 0 26 61 c23 52 33 64 74 85 58 29 86 32 44 4 l-30 -20
33 0 c37 0 37 1 17 90 -17 73 -34 120 -44 119 -3 0 -33 -19 -66 -42z"/>
<path d="M1401 2028 c1 -13 -2 -61 -6 -107 l-8 -84 51 39 c29 21 52 43 52 49
-1 15 -33 50 -59 64 -12 7 -20 15 -17 18 3 3 13 0 23 -8 12 -10 10 -4 -6 19
-27 38 -31 39 -30 10z"/>
<path d="M3818 2029 c-39 -20 -68 -54 -68 -79 0 -8 11 3 25 25 28 45 33 36 10
-19 -15 -36 -11 -146 5 -146 29 0 80 33 86 56 8 32 -2 164 -13 175 -4 4 -25
-1 -45 -12z"/>
<path d="M1712 2031 c-39 -24 16 -76 98 -91 30 -6 59 -15 64 -20 13 -13 -18
-13 -61 -1 -28 8 -34 6 -49 -17 -10 -15 -41 -50 -70 -79 -43 -42 -51 -53 -39
-63 10 -8 22 -4 52 22 21 18 29 23 19 10 -11 -12 -15 -22 -10 -22 14 0 56 31
76 55 9 11 19 17 22 14 11 -11 -64 -76 -103 -89 l-40 -13 31 -43 c31 -43 94
-94 116 -94 24 0 94 309 75 338 -5 10 -33 36 -62 60 -51 41 -89 52 -119 33z"/>
<path d="M1637 2004 c-16 -9 -27 -18 -24 -21 6 -5 67 24 67 32 0 8 -14 5 -43
-11z"/>
<path d="M4270 1985 l-55 -24 30 -11 c68 -26 81 -25 94 11 20 58 16 59 -69 24z"/>
<path d="M4357 1953 c-16 -43 -16 -43 3 -30 11 7 28 25 39 39 l21 26 -24 4
c-19 4 -25 -2 -39 -39z"/>
<path d="M2700 1983 c-14 -2 -29 -8 -33 -13 -13 -12 36 -100 88 -158 l48 -53
27 33 c16 18 26 36 24 39 -2 4 -18 10 -36 13 -53 10 -96 42 -118 88 l-21 43
26 -30 c13 -16 25 -33 25 -36 0 -12 64 -37 110 -44 l45 -7 28 57 c15 32 25 60
22 63 -8 8 -201 12 -235 5z"/>
<path d="M3676 1970 c-65 -25 -107 -68 -151 -151 -29 -55 -35 -78 -35 -126 0
-33 3 -63 6 -66 4 -3 18 3 32 13 24 20 168 70 199 70 13 0 14 13 9 103 -4 56
-7 119 -8 140 0 20 -1 37 -1 37 -1 -1 -24 -10 -51 -20z"/>
<path d="M1622 1970 c-13 -6 -38 -21 -57 -36 l-34 -25 46 -59 46 -59 28 20
c40 28 71 70 66 90 -3 10 1 16 11 15 31 -2 22 29 -13 47 -40 19 -59 20 -93 7z"/>
<path d="M4483 1933 l47 -48 32 32 32 32 -37 16 c-20 8 -56 15 -79 15 l-43 0
48 -47z"/>
<path d="M2530 1943 c-47 -13 -98 -32 -115 -42 l-30 -17 0 -125 c1 -133 10
-173 77 -336 37 -91 52 -93 135 -25 93 77 136 156 158 289 6 36 3 45 -23 74
-28 31 -33 33 -98 34 -38 0 -85 -3 -104 -8 -24 -5 -42 -3 -53 5 -15 11 -13 13
20 15 21 1 72 5 113 8 l76 7 -28 56 c-15 32 -28 62 -28 69 0 22 -14 21 -100
-4z"/>
<path d="M2950 1921 c-11 -22 -20 -43 -20 -46 0 -8 103 6 113 15 5 4 -10 22
-32 39 l-40 32 -21 -40z"/>
<path d="M4382 1916 c-49 -50 -49 -50 49 -61 44 -6 58 -4 69 10 11 14 8 21
-25 55 -22 22 -42 40 -45 40 -3 0 -24 -20 -48 -44z"/>
<path d="M4556 1889 c-41 -37 -55 -56 -50 -68 4 -9 14 -43 23 -75 15 -55 41
-88 41 -52 0 17 16 22 22 7 2 -5 31 -2 64 6 l62 15 -5 42 c-8 56 -70 176 -92
176 -4 0 -33 -23 -65 -51z"/>
<path d="M4044 1902 c-41 -30 -69 -60 -63 -66 2 -3 29 18 59 45 61 54 63 64 4
21z"/>
<path d="M4052 1845 l-87 -84 52 -1 c29 0 71 7 93 16 41 17 40 15 54 117 7 57
-14 48 -112 -48z"/>
<path d="M4184 1873 c-3 -30 -4 -56 -1 -59 7 -8 99 41 119 63 17 19 16 20 -47
35 l-64 15 -7 -54z"/>
<path d="M3936 1897 c-10 -7 -17 -22 -14 -33 3 -16 6 -14 26 14 24 33 19 42
-12 19z"/>
<path d="M1448 1855 c-50 -39 -58 -50 -57 -78 0 -26 2 -28 8 -12 7 17 10 14
21 -22 7 -24 17 -43 22 -43 8 0 148 68 157 76 4 4 -82 123 -89 124 -3 0 -31
-20 -62 -45z"/>
<path d="M1940 1843 c0 -32 -10 -113 -22 -180 -16 -89 -19 -126 -11 -134 8 -8
14 0 23 28 13 38 58 133 63 133 2 0 -9 -37 -24 -82 -16 -48 -24 -84 -18 -86
17 -6 199 150 199 170 0 11 -148 165 -182 190 l-28 19 0 -58z m140 -151 c-14
-5 -80 18 -80 28 0 4 20 0 45 -9 25 -9 41 -17 35 -19z"/>
<path d="M1048 1830 c-56 -41 -68 -56 -81 -97 -20 -60 -52 -272 -43 -280 3 -4
38 9 76 27 55 27 76 43 94 75 25 42 76 95 76 79 0 -5 -8 -20 -17 -34 -16 -22
-16 -23 1 -17 10 4 22 7 26 7 5 0 36 39 70 87 l61 88 -59 57 c-80 77 -109 78
-204 8z"/>
<path d="M3011 1839 c-98 -19 -161 -68 -195 -151 -18 -43 -36 -118 -28 -118 3
0 37 24 77 54 89 67 166 110 225 127 58 16 64 22 51 48 -11 20 -61 52 -78 50
-4 -1 -28 -5 -52 -10z"/>
<path d="M5001 1832 c-10 -9 -30 -43 -44 -74 l-25 -57 30 -10 c17 -6 58 -11
91 -11 l60 0 -5 75 c-3 42 -7 77 -9 79 -2 2 -21 6 -41 9 -27 4 -43 1 -57 -11z"/>
<path d="M770 1812 c-36 -18 -65 -42 -87 -72 -32 -45 -97 -220 -91 -248 2 -9
37 20 91 76 48 50 87 87 87 82 0 -4 -36 -55 -81 -112 -83 -105 -102 -138 -113
-197 -5 -31 -4 -33 17 -28 12 3 68 15 124 28 l102 22 20 61 c33 101 51 181 51
228 0 55 -24 139 -48 166 l-17 21 -55 -27z"/>
<path d="M3210 1833 c0 -23 77 -117 123 -151 81 -60 77 -60 77 1 l0 55 -100
52 c-55 28 -100 47 -100 43z"/>
<path d="M4330 1823 c-8 -2 -45 -18 -82 -35 l-68 -32 0 -43 0 -43 45 0 c42 0
46 3 64 38 11 21 37 54 59 74 37 33 38 36 18 40 -12 3 -28 3 -36 1z"/>
<path d="M4423 1813 c-26 -5 -88 -63 -107 -102 l-15 -27 56 7 c51 7 151 -2
173 -16 12 -8 13 -2 1 27 -5 13 -17 44 -26 71 -17 49 -23 52 -82 40z"/>
<path d="M3835 1798 c-29 -15 -45 -39 -45 -66 0 -29 9 -24 45 28 31 44 31 54
0 38z"/>
<path d="M244 1747 l-47 -43 12 -79 c6 -43 13 -80 15 -82 7 -7 141 30 179 49
37 19 38 20 23 41 -9 12 -26 42 -37 67 -20 44 -63 89 -86 90 -6 0 -32 -19 -59
-43z"/>
<path d="M1290 1689 c-24 -34 -39 -60 -34 -58 52 23 114 62 114 73 0 7 -8 20
-18 30 -18 15 -21 13 -62 -45z"/>
<path d="M1582 1741 c-10 -6 -8 -10 10 -14 37 -10 48 -8 42 8 -7 16 -31 19
-52 6z"/>
<path d="M3093 1726 c-44 -21 -173 -102 -173 -109 0 -6 297 -1 307 6 8 5 -1
25 -29 67 -22 33 -43 60 -46 60 -4 0 -30 -11 -59 -24z"/>
<path d="M4113 1743 c-31 -6 -29 -15 7 -41 l30 -23 0 36 c0 19 -3 34 -7 34 -5
-1 -18 -4 -30 -6z"/>
<path d="M3964 1701 c-62 -18 -141 -59 -162 -84 -10 -12 1 -15 69 -20 80 -6
82 -6 116 23 33 30 52 37 107 42 l30 3 -42 28 c-48 31 -39 31 -118 8z"/>
<path d="M1493 1691 c-52 -24 -54 -39 -16 -123 l26 -59 69 68 c90 88 97 100
63 113 -55 21 -99 21 -142 1z"/>
<path d="M3642 1670 c-35 -9 -67 -22 -71 -26 -5 -5 5 -33 20 -63 l29 -54 37
39 c61 65 91 125 61 123 -7 0 -41 -9 -76 -19z"/>
<path d="M561 1653 c-30 -26 -31 -30 -19 -60 7 -18 15 -33 19 -33 7 0 40 112
35 118 -2 2 -18 -9 -35 -25z"/>
<path d="M4624 1670 c-12 -5 -51 -29 -87 -53 -43 -30 -89 -51 -136 -63 -39
-10 -71 -24 -71 -30 0 -7 -11 -21 -25 -32 -14 -11 -25 -24 -25 -29 0 -5 20
-19 44 -31 91 -46 254 -16 297 55 12 19 23 32 26 29 3 -2 -4 -17 -14 -32 -10
-16 -12 -25 -5 -20 20 12 81 15 115 5 17 -5 44 -21 60 -36 l29 -28 -30 80
c-77 206 -70 195 -116 194 -22 0 -51 -4 -62 -9z"/>
<path d="M4790 1671 c8 -6 12 -11 9 -11 -4 0 6 -39 21 -87 16 -49 36 -125 46
-170 l17 -82 33 28 c18 16 53 43 78 60 25 18 46 35 46 39 0 4 -46 45 -103 90
-95 75 -147 122 -135 122 2 0 41 -24 86 -52 45 -29 107 -67 137 -85 l56 -32
10 27 c6 15 11 52 12 82 l2 55 -80 7 c-219 18 -250 19 -235 9z"/>
<path d="M4 1626 c3 -33 10 -54 22 -63 28 -20 28 -2 -1 58 l-25 54 4 -49z"/>
<path d="M1335 1634 c-33 -18 -61 -36 -62 -41 -2 -5 22 -6 54 -2 32 4 66 8 76
8 14 1 16 7 11 29 -4 15 -9 30 -13 33 -3 3 -33 -9 -66 -27z"/>
<path d="M2054 1556 c-120 -121 -144 -155 -144 -212 0 -35 54 -210 70 -227 17
-18 41 91 46 208 7 168 4 159 74 180 33 10 62 16 65 13 3 -2 -20 -12 -51 -22
-30 -10 -57 -23 -60 -30 -3 -7 -4 -53 -2 -102 l3 -89 56 100 c32 55 64 114 73
130 35 67 13 -1 -26 -82 -24 -49 -44 -91 -46 -95 -2 -5 23 -8 56 -8 44 0 71
-6 106 -25 26 -14 49 -25 52 -25 9 0 3 77 -10 141 -8 37 -27 91 -41 120 -28
56 -91 140 -103 138 -4 -1 -57 -52 -118 -113z"/>
<path d="M1655 1634 c-10 -16 -45 -57 -78 -91 l-60 -63 18 -34 c10 -19 33 -50
49 -69 40 -44 256 -230 256 -220 0 4 -9 54 -20 111 -11 56 -20 126 -20 153 0
57 -38 141 -94 205 l-32 37 -19 -29z"/>
<path d="M4335 1643 c-89 -20 -97 -24 -84 -39 42 -51 112 -53 209 -8 l55 26
-30 14 c-29 13 -109 17 -150 7z"/>
<path d="M4050 1633 c-8 -3 -30 -15 -49 -26 l-34 -20 53 -24 c29 -13 58 -23
64 -23 10 0 46 59 46 74 0 4 -61 27 -64 25 -1 0 -8 -3 -16 -6z"/>
<path d="M3516 1611 c-16 -17 -16 -23 -2 -76 8 -31 17 -60 20 -63 10 -9 56 40
56 60 0 23 -37 98 -49 98 -4 0 -16 -9 -25 -19z"/>
<path d="M475 1602 c-11 -2 -42 -17 -70 -33 -27 -15 -81 -36 -119 -45 l-69
-17 6 -78 c7 -86 53 -222 92 -266 l22 -27 74 75 c85 84 119 147 127 231 5 59
-11 141 -32 156 -6 5 -20 6 -31 4z"/>
<path d="M4149 1566 c-13 -25 -21 -46 -19 -48 3 -2 26 -13 51 -25 l47 -22 17
39 c15 33 16 42 5 55 -7 9 -15 13 -18 10 -3 -3 -11 4 -19 15 -22 31 -38 24
-64 -24z"/>
<path d="M1153 1555 c-18 -8 -33 -16 -33 -19 0 -8 59 15 66 25 7 11 6 11 -33
-6z"/>
<path d="M2909 1562 c-32 -3 -57 -23 -208 -172 -94 -92 -175 -180 -181 -195
-5 -14 -10 -57 -10 -94 l0 -67 45 -22 c25 -12 50 -22 55 -22 5 0 40 26 77 57
37 31 59 46 50 33 -9 -14 -17 -30 -17 -36 0 -6 38 -56 85 -110 47 -54 85 -102
85 -106 0 -18 20 -6 20 12 0 10 13 33 30 50 16 17 32 40 35 53 7 31 25 151 32
219 l6 57 -48 30 c-27 17 -89 47 -138 68 -91 38 -105 58 -20 29 58 -20 60 -20
41 2 -22 25 -60 102 -56 114 2 5 17 -12 34 -39 24 -39 43 -55 97 -81 36 -18
77 -45 90 -61 13 -16 47 -45 75 -66 l52 -37 0 51 c0 54 -31 227 -49 274 -13
34 -14 47 -2 47 14 0 39 -71 62 -172 11 -51 21 -94 23 -96 9 -8 37 75 50 149
l15 84 -5 -82 c-2 -45 -7 -90 -11 -99 -12 -33 55 17 72 53 9 18 18 33 21 33
10 0 -10 -56 -27 -75 -18 -19 -17 -20 63 -62 45 -23 84 -40 87 -37 12 12 -22
155 -52 213 -52 104 -57 106 -265 106 -97 0 -193 -1 -213 -3z m28 -482 c22
-74 19 -95 -22 -170 -40 -74 -48 -53 -10 25 29 59 30 74 10 138 -9 29 -12 61
-7 80 6 29 7 30 10 7 2 -14 10 -50 19 -80z"/>
<path d="M1249 1542 c-103 -27 -139 -63 -238 -229 -17 -29 -26 -53 -21 -53 5
0 11 4 14 9 4 5 41 23 84 41 150 62 382 174 382 186 0 6 -9 23 -21 38 -18 23
-27 26 -77 25 -31 0 -87 -8 -123 -17z"/>
<path d="M3789 1541 c-78 -16 -158 -91 -200 -185 -19 -45 -20 -54 -9 -132 8
-53 17 -84 24 -84 7 0 52 32 100 70 48 39 128 98 178 131 50 34 112 82 137
107 l45 46 -54 24 c-57 27 -156 37 -221 23z"/>
<path d="M4267 1511 c-25 -43 -21 -50 9 -16 19 22 24 25 19 10 -5 -16 -4 -18
6 -7 11 10 10 15 -2 27 -13 13 -17 12 -32 -14z"/>
<path d="M18 1485 c5 -29 10 -30 36 -10 18 14 18 15 -8 25 -35 13 -34 14 -28
-15z"/>
<path d="M4060 1427 c-25 -27 -85 -80 -134 -116 -49 -36 -84 -67 -78 -69 6 -2
66 25 133 60 91 47 131 74 157 106 19 23 33 44 31 46 -10 9 -49 26 -56 25 -4
-1 -28 -24 -53 -52z"/>
<path d="M1005 1420 c-103 -66 -107 -71 -146 -155 -22 -46 -39 -88 -39 -94 0
-42 108 41 150 115 18 33 50 85 72 117 21 31 35 57 31 57 -4 0 -35 -18 -68
-40z"/>
<path d="M4641 1445 c-39 -12 -141 -96 -141 -116 0 -4 21 -14 47 -23 33 -11
84 -16 176 -16 l130 0 -6 37 c-16 98 -108 150 -206 118z"/>
<path d="M52 1424 c-20 -14 -22 -23 -22 -110 l0 -95 73 6 c50 4 65 2 50 -4
-12 -6 -45 -11 -73 -12 -48 -2 -52 -5 -66 -37 -23 -56 -18 -152 12 -227 14
-36 27 -65 29 -65 2 0 35 31 74 70 68 67 91 82 91 60 0 -5 -29 -42 -65 -81
-36 -39 -65 -79 -65 -90 0 -10 11 -42 24 -71 14 -29 28 -62 31 -73 6 -19 8
-19 30 8 40 46 57 119 62 267 l5 135 -55 140 c-74 187 -78 195 -96 195 -9 0
-27 -7 -39 -16z"/>
<path d="M1400 1416 l-54 -24 79 -4 c44 -3 89 -9 100 -13 19 -8 18 -7 -2 26
-27 42 -51 45 -123 15z"/>
<path d="M4166 1418 c-9 -12 -14 -23 -13 -24 2 -2 23 3 47 10 41 12 43 14 23
24 -30 17 -40 15 -57 -10z"/>
<path d="M5101 1423 c1 -10 5 -31 9 -48 7 -28 8 -28 9 12 0 23 -3 45 -9 48 -5
3 -9 -2 -9 -12z"/>
<path d="M4515 1390 c-11 -5 -37 -9 -57 -9 -50 -1 -55 -15 -10 -29 35 -11 39
-10 67 18 31 32 31 34 0 20z"/>
<path d="M5063 1360 c0 -25 2 -35 4 -22 2 12 2 32 0 45 -2 12 -4 2 -4 -23z"/>
<path d="M4266 1377 c-45 -33 15 -86 73 -66 17 6 31 15 31 20 0 8 -69 59 -80
59 -4 0 -14 -6 -24 -13z"/>
<path d="M4949 1320 c-32 -33 -59 -64 -59 -69 0 -11 100 -84 107 -78 3 4 32
177 33 200 0 20 -27 1 -81 -53z"/>
<path d="M4141 1338 c-33 -17 -61 -34 -61 -38 0 -9 68 -46 73 -40 51 67 76
110 64 110 -8 0 -42 -14 -76 -32z"/>
<path d="M1360 1343 c-14 -2 -37 -16 -52 -31 l-28 -26 0 28 c0 24 -3 26 -22
20 -47 -14 -221 -95 -259 -121 l-39 -26 44 -47 c24 -26 54 -67 66 -90 12 -24
40 -69 61 -100 21 -32 45 -72 53 -91 24 -56 69 -91 143 -110 42 -10 72 -14 78
-8 5 5 12 64 15 132 3 68 11 132 18 144 6 12 12 49 12 82 0 58 -1 62 -35 83
-47 31 -44 43 4 18 l39 -19 77 50 c42 28 75 56 73 62 -11 34 -170 66 -248 50z"/>
<path d="M2887 1338 c7 -8 37 -30 65 -47 46 -28 50 -30 30 -9 -25 28 -114 80
-95 56z"/>
<path d="M710 1321 c-36 -9 -86 -26 -111 -38 -44 -20 -48 -26 -112 -154 -73
-149 -141 -308 -134 -315 2 -2 15 13 29 33 46 69 128 152 223 222 103 77 116
93 169 199 41 82 43 81 -64 53z"/>
<path d="M5087 1282 c-34 -63 -32 -84 7 -51 23 20 27 31 24 64 l-3 39 -28 -52z"/>
<path d="M4204 1287 l-21 -32 22 -60 23 -59 31 49 c39 61 39 85 1 113 -16 12
-30 22 -32 22 -2 0 -12 -15 -24 -33z"/>
<path d="M3220 1290 c-40 -40 -38 -117 5 -168 28 -34 168 -142 183 -142 6 0
15 8 20 18 13 23 25 177 17 203 -5 14 -38 35 -100 65 -51 24 -96 44 -99 44 -3
0 -15 -9 -26 -20z"/>
<path d="M4338 1294 c-16 -8 -28 -23 -28 -35 0 -22 -23 -70 -53 -111 -15 -20
-19 -37 -15 -71 5 -40 15 -53 131 -170 69 -70 128 -127 132 -127 3 0 14 19 24
43 10 23 33 59 50 81 38 47 39 80 6 146 -40 78 -29 82 15 5 48 -84 50 -118 11
-172 -41 -57 -64 -104 -54 -112 7 -7 83 -31 95 -31 2 0 21 34 42 76 21 41 40
73 43 71 2 -3 -13 -41 -34 -84 l-39 -79 44 -34 c24 -19 66 -65 93 -104 l49
-69 0 48 c0 57 -18 204 -31 255 -6 25 -22 46 -53 69 -45 34 -84 95 -106 166
-7 22 -30 73 -53 113 -36 65 -47 76 -99 102 -32 17 -62 30 -66 30 -4 0 20 -25
53 -55 l60 -56 -73 52 c-40 29 -75 56 -78 60 -8 13 -35 10 -66 -7z"/>
<path d="M2 1265 c0 -16 2 -22 5 -12 2 9 2 23 0 30 -3 6 -5 -1 -5 -18z"/>
<path d="M2115 1276 c-28 -12 -63 -44 -54 -49 2 -1 17 -9 33 -17 16 -8 36 -26
44 -38 16 -24 15 -24 -23 2 -21 14 -43 26 -50 26 -16 0 -44 -105 -61 -233 -8
-60 -26 -155 -40 -210 -43 -171 -46 -199 -28 -337 9 -69 21 -136 27 -150 27
-57 105 -20 151 72 52 105 20 177 -92 208 -23 6 -42 12 -42 14 0 12 99 -3 123
-18 l27 -18 0 85 c0 78 -3 91 -35 152 -42 79 -28 78 16 -1 17 -30 34 -54 37
-54 4 0 28 38 55 84 l47 84 -30 51 c-70 120 -73 141 -5 41 l37 -55 -5 45 c-5
41 -4 43 9 26 7 -11 17 -35 20 -54 6 -28 10 -33 28 -28 11 3 24 6 29 6 4 0 6
73 5 163 l-3 162 -54 28 c-60 30 -117 34 -166 13z"/>
<path d="M3985 1253 l-69 -35 59 -28 c33 -16 98 -58 145 -94 97 -74 103 -71
75 36 -19 73 -37 106 -68 117 -13 5 -29 16 -36 25 -18 22 -26 20 -106 -21z"/>
<path d="M1575 1235 c-27 -18 -63 -45 -79 -60 -27 -25 -28 -28 -21 -92 5 -51
20 -92 63 -180 l56 -114 11 45 c13 52 40 96 59 96 25 0 25 -13 0 -46 -19 -24
-27 -50 -31 -93 l-6 -59 86 -89 86 -88 1 40 c0 22 11 85 25 140 17 70 25 127
25 191 0 122 -22 166 -134 268 -46 42 -86 76 -87 75 -2 -1 -26 -16 -54 -34z"/>
<path d="M463 1214 c-21 -26 -55 -67 -75 -91 -45 -53 -50 -68 -46 -157 l3 -69
34 84 c19 46 56 128 83 182 26 53 46 97 44 97 -3 0 -22 -21 -43 -46z"/>
<path d="M4617 1224 c30 -43 79 -143 94 -192 7 -23 24 -54 38 -68 23 -23 26
-24 32 -7 3 10 9 54 12 98 3 44 13 102 21 130 9 27 13 51 10 54 -3 3 -55 7
-116 10 l-111 3 20 -28z"/>
<path d="M4851 1173 c-14 -51 -15 -256 -1 -248 19 12 61 86 86 151 l23 63 -41
35 c-23 20 -45 36 -49 36 -5 0 -13 -17 -18 -37z"/>
<path d="M5073 1190 c-27 -16 -33 -26 -33 -54 0 -42 32 -131 60 -166 l20 -25
0 133 c0 72 -3 132 -7 132 -5 0 -23 -9 -40 -20z"/>
<path d="M3036 1142 c-4 -31 -11 -84 -15 -117 -5 -33 -8 -60 -7 -60 1 0 59 1
129 3 l128 4 -45 39 c-25 22 -61 61 -80 88 -20 27 -51 60 -70 74 l-33 26 -7
-57z"/>
<path d="M890 1124 c-30 -24 -79 -53 -108 -64 -108 -41 -220 -135 -300 -253
-29 -42 -142 -243 -142 -252 0 -3 17 -5 38 -5 20 0 80 -5 132 -11 100 -12 111
-10 237 42 24 10 40 10 60 3 30 -11 94 5 162 41 23 12 32 13 29 4 -2 -7 -42
-29 -89 -48 -46 -19 -86 -36 -88 -38 -9 -7 40 -199 64 -252 18 -38 49 -78 99
-126 40 -38 86 -88 103 -110 l31 -39 10 47 c7 34 6 66 -3 114 -18 96 -64 261
-81 294 -20 40 -17 58 6 29 10 -14 29 -58 41 -97 13 -40 24 -71 27 -69 2 3 6
48 8 102 4 89 2 99 -19 128 -41 55 -41 62 0 23 l40 -38 5 50 c3 33 16 68 35
99 l30 48 -46 30 c-25 17 -62 40 -81 52 -20 11 -46 32 -59 46 -22 23 -32 26
-95 26 -39 0 -89 5 -111 11 -22 6 -60 14 -85 18 -31 5 -39 9 -25 12 11 3 49
-1 85 -8 39 -9 94 -12 138 -9 70 4 74 3 116 -29 88 -67 116 -69 79 -7 -17 30
-29 38 -61 44 -42 7 -116 41 -127 58 -3 5 10 3 29 -5 19 -8 52 -19 75 -24 l40
-9 -15 37 c-25 59 -60 114 -96 148 l-33 31 -55 -44z"/>
<path d="M3780 1139 c-108 -43 -229 -197 -266 -340 -29 -110 -25 -311 11 -513
33 -187 32 -185 119 -211 l45 -14 16 54 c8 30 27 67 41 82 l25 28 -20 -42
c-11 -22 -23 -59 -27 -81 -6 -39 -6 -39 32 -45 22 -4 48 -7 58 -7 18 0 18 1 3
18 -24 26 -21 36 5 18 12 -9 30 -16 39 -16 9 0 46 -15 81 -33 60 -29 64 -30
51 -10 -8 12 -13 30 -11 40 3 13 10 7 26 -25 17 -32 28 -42 47 -42 14 0 25 4
25 8 0 23 -130 255 -173 307 -49 61 -101 153 -138 248 -11 28 -41 85 -66 125
-25 40 -43 76 -39 79 3 4 6 0 6 -8 1 -8 7 -3 14 10 13 23 13 23 18 -17 3 -22
13 -51 22 -64 16 -22 16 -22 16 14 0 21 7 58 16 84 15 45 15 56 -1 99 -7 17
-4 16 16 -5 23 -24 24 -27 12 -69 -7 -24 -13 -65 -13 -92 0 -92 73 -273 141
-350 l30 -34 -6 40 c-3 22 -9 73 -12 114 -7 89 8 126 71 167 22 15 51 35 62
46 l22 19 -25 44 c-27 50 -62 73 -154 104 -35 12 -71 26 -79 31 -25 16 19 12
74 -6 26 -9 50 -14 53 -10 3 3 1 24 -6 46 -6 22 -9 46 -5 52 4 6 13 -13 21
-42 14 -55 39 -93 56 -87 5 1 17 23 26 47 12 34 28 52 63 75 26 17 47 32 47
35 1 3 -23 24 -53 48 -122 95 -217 119 -316 81z"/>
<path d="M4955 1048 c-10 -29 -35 -84 -57 -121 l-39 -68 16 -112 c9 -62 20
-115 24 -120 4 -4 22 15 40 43 18 27 66 80 107 117 41 37 74 72 74 76 0 5 -19
35 -43 67 -24 31 -54 82 -68 113 -13 31 -27 57 -31 57 -3 0 -14 -24 -23 -52z"/>
<path d="M2402 1015 c-7 -22 -17 -112 -22 -200 -13 -223 -27 -342 -51 -422
-11 -37 -26 -90 -34 -118 -17 -58 -20 -193 -5 -215 9 -12 19 -6 59 38 61 67
59 53 67 470 6 307 6 322 -12 322 -17 0 -17 1 0 13 14 10 16 25 14 82 l-3 70
-13 -40z"/>
<path d="M2671 1007 c-17 -19 -19 -26 -9 -34 13 -11 88 -23 88 -15 0 10 -42
72 -49 72 -4 0 -17 -11 -30 -23z"/>
<path d="M1448 1000 c-3 -8 -3 -75 0 -147 l5 -133 36 -10 c78 -21 115 -29 118
-26 2 2 -18 45 -45 97 -26 52 -62 125 -78 164 -18 42 -32 64 -36 55z"/>
<path d="M2510 975 c0 -19 5 -25 23 -24 12 0 31 4 42 8 18 7 15 10 -19 25 -48
20 -46 21 -46 -9z"/>
<path d="M4123 969 c-98 -63 -89 -158 28 -270 60 -57 221 -151 235 -136 10 10
34 119 34 157 -1 78 -72 174 -174 235 -69 41 -80 42 -123 14z"/>
<path d="M2557 923 c-44 -13 -48 -17 -43 -41 3 -15 8 -53 11 -84 4 -32 10 -58
14 -58 5 0 29 -16 55 -35 31 -25 46 -43 46 -59 0 -34 119 -269 179 -353 49
-69 193 -202 199 -184 1 5 -7 42 -18 82 -12 41 -25 131 -30 204 -10 144 -45
289 -88 368 -39 72 -107 130 -182 155 -73 25 -78 25 -143 5z"/>
<path d="M3139 920 c-103 -7 -135 -20 -165 -65 -27 -42 -29 -99 -4 -173 36
-106 35 -106 71 -85 55 33 83 70 81 107 -3 37 34 146 48 146 5 0 3 -19 -5 -41
-22 -62 -20 -106 8 -121 31 -17 117 -14 155 6 38 20 51 48 54 116 2 38 -3 54
-25 84 -31 40 -25 40 -218 26z"/>
<path d="M2273 848 c-36 -41 -104 -165 -110 -202 -6 -36 15 -216 25 -216 3 0
27 14 53 31 32 20 50 39 53 57 13 63 35 212 41 280 6 71 6 72 -18 72 -13 0
-33 -10 -44 -22z"/>
<path d="M0 816 c0 -22 3 -27 11 -19 8 8 8 16 0 30 -9 16 -10 14 -11 -11z"/>
<path d="M5078 760 c-47 -39 -125 -142 -154 -205 -34 -71 -32 -77 17 -60 48
17 100 19 147 6 l32 -10 0 150 c0 82 -1 149 -3 149 -1 0 -19 -14 -39 -30z"/>
<path d="M23 761 c-21 -18 -23 -27 -23 -128 l0 -109 34 -16 34 -17 11 56 c17
85 14 148 -9 193 -11 22 -21 40 -23 40 -1 -1 -12 -9 -24 -19z"/>
<path d="M1206 691 c-43 -84 -42 -101 4 -160 22 -28 43 -51 46 -51 3 0 36 18
72 40 67 39 130 59 189 60 l31 0 -21 40 c-19 33 -30 42 -72 54 -27 8 -90 25
-138 39 l-88 24 -23 -46z"/>
<path d="M2536 623 c3 -59 7 -113 9 -119 2 -6 17 -14 35 -17 17 -4 52 -23 77
-42 25 -19 48 -33 51 -31 2 3 -16 47 -41 100 -25 52 -48 108 -52 125 -4 18
-22 43 -45 61 l-39 31 5 -108z"/>
<path d="M4464 640 l-21 -90 72 0 c78 0 87 4 130 63 l29 39 -25 19 c-20 16
-136 59 -158 59 -4 0 -16 -40 -27 -90z"/>
<path d="M3341 675 c-43 -30 -114 -42 -146 -25 -13 7 -27 11 -32 9 -4 -2 -37
-34 -72 -71 -61 -64 -63 -69 -56 -105 7 -39 25 -69 84 -140 40 -49 52 -45 71
21 9 32 9 53 1 82 -16 56 -14 86 9 135 l20 44 0 -80 c0 -105 11 -121 37 -58
12 26 29 74 39 106 23 74 37 60 19 -18 -19 -78 -19 -75 13 -75 47 0 51 8 49
108 -1 50 -2 92 -2 91 0 0 -15 -11 -34 -24z"/>
<path d="M4037 661 c-32 -21 -66 -49 -75 -62 -39 -56 -5 -230 79 -403 l57
-120 46 99 c25 54 46 102 46 107 0 5 -11 31 -25 58 -31 62 -33 121 -4 162 29
41 34 29 9 -20 -25 -47 -22 -62 23 -136 l31 -49 29 34 c34 40 107 160 107 176
0 6 -15 17 -34 23 -47 15 -169 103 -196 140 -12 16 -24 30 -28 30 -4 0 -33
-17 -65 -39z"/>
<path d="M220 652 c-54 -31 -67 -44 -79 -77 -16 -47 -20 -187 -7 -230 9 -28
10 -27 16 25 5 43 21 79 73 165 65 110 86 155 70 155 -4 0 -37 -17 -73 -38z"/>
<path d="M1550 642 c0 -12 99 -124 141 -161 43 -37 50 -38 74 -11 18 20 18 22
-46 86 -35 36 -71 69 -79 73 -24 13 -90 23 -90 13z"/>
<path d="M4657 595 c-16 -25 -42 -54 -58 -66 -16 -11 -27 -24 -24 -29 3 -4 29
-11 58 -15 66 -9 118 -36 150 -76 24 -31 25 -31 32 -10 10 32 -3 79 -37 136
-29 49 -76 105 -87 105 -3 0 -19 -20 -34 -45z"/>
<path d="M760 556 c0 -9 30 -14 35 -6 4 6 -3 10 -14 10 -12 0 -21 -2 -21 -4z"/>
<path d="M1471 549 c-59 -10 -138 -49 -171 -84 l-21 -23 57 -73 c31 -41 59
-73 63 -72 57 20 142 61 163 78 15 13 50 28 77 35 l51 12 -63 69 c-66 73 -65
73 -156 58z"/>
<path d="M690 510 c-19 -11 -43 -19 -52 -20 -10 0 -18 -3 -18 -7 0 -5 25 -43
56 -86 45 -64 65 -82 114 -107 33 -17 64 -30 69 -30 6 0 2 24 -8 53 -10 28
-23 75 -30 103 -17 70 -45 114 -73 114 -13 -1 -39 -9 -58 -20z"/>
<path d="M1157 524 c-9 -10 -9 -124 1 -124 4 0 23 14 42 30 l35 29 -35 36
c-20 20 -39 33 -43 29z"/>
<path d="M4393 458 c-15 -29 -30 -57 -32 -61 -2 -5 19 3 47 17 54 27 112 72
112 87 0 5 -22 9 -50 9 l-50 0 -27 -52z"/>
<path d="M320 482 c-19 -9 -45 -32 -57 -51 -31 -45 -63 -152 -63 -207 0 -43 0
-44 19 -25 10 10 51 31 91 47 83 32 161 97 212 175 17 27 33 49 35 49 9 0 -50
-103 -77 -133 l-29 -34 72 13 c40 7 88 13 107 12 32 0 33 -1 10 -8 -21 -7 -19
-8 18 -9 23 -1 42 2 42 7 -1 4 -24 41 -53 82 l-52 75 -80 12 c-113 16 -155 15
-195 -5z"/>
<path d="M3322 473 c-29 -4 -36 -12 -64 -68 -18 -36 -29 -67 -26 -70 8 -8 74
20 115 48 27 18 33 28 33 60 0 24 -4 36 -12 35 -7 0 -28 -3 -46 -5z"/>
<path d="M0 442 c0 -22 9 -37 35 -56 19 -15 35 -22 35 -16 0 23 -33 81 -51 91
-17 8 -19 6 -19 -19z"/>
<path d="M2540 381 l0 -90 58 -5 c67 -7 147 -21 181 -32 24 -7 24 -7 -6 37
-49 70 -152 155 -210 173 -23 7 -23 6 -23 -83z"/>
<path d="M4942 449 c-53 -27 -67 -52 -86 -166 -17 -95 -40 -171 -74 -241 l-20
-42 27 0 c22 0 34 10 60 49 17 28 39 52 49 55 9 3 37 10 61 16 57 15 88 36
107 72 26 51 54 152 54 199 0 45 -1 47 -40 63 -54 21 -87 20 -138 -5z"/>
<path d="M4507 430 c-14 -11 -58 -38 -99 -61 -80 -45 -138 -95 -138 -118 0
-10 10 -6 33 15 l32 29 -34 -37 c-19 -21 -38 -33 -41 -28 -8 13 -38 -51 -46
-98 l-6 -38 55 0 c30 -1 69 -9 87 -18 18 -9 34 -16 36 -16 1 0 5 14 9 30 4 17
24 54 46 83 39 51 41 58 23 114 -3 10 1 7 10 -7 24 -39 20 -78 -14 -116 -33
-38 -55 -105 -45 -141 6 -24 6 -24 131 -21 l126 3 50 109 c60 129 68 176 40
232 -30 58 -55 76 -130 90 -89 18 -95 17 -125 -6z"/>
<path d="M2245 421 c-45 -27 -61 -50 -78 -111 -9 -30 -35 -85 -57 -123 l-41
-67 47 -60 c32 -42 54 -60 69 -60 22 0 23 4 27 118 4 100 10 132 39 220 19 56
32 102 29 102 -3 0 -18 -8 -35 -19z"/>
<path d="M1202 400 c-52 -37 -59 -71 -42 -201 7 -53 10 -120 7 -148 l-6 -51
34 0 c25 0 35 5 40 21 4 11 27 46 52 76 101 124 100 152 -12 305 -11 15 -23
28 -26 28 -3 0 -24 -13 -47 -30z"/>
<path d="M3014 337 c3 -76 10 -109 28 -145 41 -81 69 -81 82 0 6 34 2 44 -35
93 -22 29 -49 75 -60 102 l-20 48 5 -98z"/>
<path d="M1635 368 c-76 -27 -83 -33 -129 -95 -55 -73 -80 -131 -65 -149 6 -7
6 -22 -1 -38 -5 -15 -10 -41 -10 -57 0 -24 4 -30 18 -27 19 4 22 47 7 83 -17
40 21 -3 40 -45 18 -40 19 -40 72 -40 l55 0 -6 43 -6 42 16 -42 c15 -42 38
-56 47 -30 4 9 7 9 18 -1 7 -6 38 -12 70 -12 l56 0 7 77 c13 164 6 206 -49
271 -43 51 -52 53 -140 20z"/>
<path d="M3054 365 c10 -29 70 -105 74 -94 5 12 -32 71 -59 95 -22 19 -22 19
-15 -1z"/>
<path d="M3356 354 c-11 -8 -45 -23 -75 -35 -31 -11 -64 -27 -73 -36 -21 -19
-45 -91 -51 -154 l-4 -46 49 -12 c27 -6 69 -24 93 -41 35 -24 54 -30 95 -30
51 0 52 0 46 27 -3 16 -15 91 -27 168 -26 174 -28 178 -53 159z"/>
<path d="M0 223 l0 -118 43 -27 c24 -15 52 -37 62 -48 10 -11 21 -20 25 -20
15 0 -29 210 -55 260 -7 14 -27 35 -44 48 l-31 23 0 -118z"/>
<path d="M1453 290 c-36 -22 -53 -48 -53 -83 0 -41 12 -38 42 11 15 26 35 57
44 70 20 27 9 28 -33 2z"/>
<path d="M648 283 c-27 -2 -48 -6 -48 -9 0 -11 75 -70 108 -86 22 -10 29 -18
19 -18 -26 0 -69 24 -122 70 -43 37 -51 40 -105 40 -49 0 -71 -7 -137 -41 -43
-23 -97 -60 -120 -82 -44 -42 -50 -61 -37 -126 l7 -31 234 0 c198 0 234 2 239
15 4 8 11 15 16 15 6 0 8 -7 4 -15 -4 -12 6 -15 58 -15 l64 0 -18 71 c-23 87
-85 220 -102 217 -7 -1 -34 -3 -60 -5z"/>
<path d="M774 232 c24 -48 46 -110 66 -189 l11 -43 49 0 50 0 0 78 c0 70 -3
81 -24 102 l-25 23 -5 -24 c-3 -13 -7 -37 -8 -52 -2 -15 -7 -26 -13 -25 -5 2
-9 5 -9 8 1 3 5 28 9 57 l7 52 -41 21 c-23 11 -53 25 -66 30 l-25 10 24 -48z"/>
<path d="M2525 185 c-9 -105 -4 -113 58 -95 50 14 67 38 67 98 0 48 -8 58 -50
65 -19 3 -42 8 -52 12 -14 6 -17 -5 -23 -80z"/>
<path d="M5108 227 c-3 -19 -2 -25 4 -19 6 6 8 18 6 28 -3 14 -5 12 -10 -9z"/>
<path d="M2665 177 l0 -63 65 12 c36 6 83 15 105 19 l40 7 -27 23 c-30 26
-127 65 -161 65 -20 0 -22 -5 -22 -63z"/>
<path d="M1344 103 c-28 -32 -56 -68 -63 -80 -12 -23 -11 -23 48 -23 47 0 60
4 66 17 11 31 18 143 9 143 -5 0 -32 -26 -60 -57z"/>
<path d="M970 118 c0 -14 3 -46 6 -72 l7 -46 43 0 c24 0 44 3 44 7 0 11 -60
100 -80 118 -19 18 -20 17 -20 -7z"/>
<path d="M5083 115 l-28 -24 33 -1 c28 0 32 3 32 25 0 31 -2 31 -37 0z"/>
<path d="M2380 113 c0 -6 -18 -31 -40 -56 -22 -25 -40 -48 -40 -51 0 -3 17 -6
39 -6 l38 0 7 56 c4 31 4 59 1 62 -3 3 -5 1 -5 -5z"/>
<path d="M2805 105 l-60 -12 49 -13 c30 -8 61 -26 82 -46 31 -32 37 -34 101
-34 l68 0 -62 60 c-67 66 -71 67 -178 45z"/>
<path d="M2016 79 c-39 -29 -65 -58 -66 -71 0 -5 43 -8 95 -8 l96 0 -42 55
c-23 30 -42 55 -43 54 0 0 -18 -13 -40 -30z"/>
<path d="M2672 71 c-12 -3 -31 -21 -42 -38 l-20 -33 138 0 137 1 -28 24 c-37
33 -139 58 -185 46z"/>
<path d="M3560 41 l0 -41 59 0 c49 0 59 3 64 19 3 15 -6 22 -47 35 -28 10 -57
20 -63 23 -9 3 -13 -7 -13 -36z"/>
<path d="M4208 74 c-5 -4 -8 -22 -8 -41 l0 -33 95 0 c92 0 95 1 85 20 -6 11
-23 26 -39 34 -33 18 -123 31 -133 20z"/>
<path d="M2560 32 c-44 -27 -45 -27 -17 -30 30 -4 52 9 68 40 13 25 2 23 -51
-10z"/>
<path d="M4956 45 c-21 -7 -46 -21 -55 -29 -14 -15 -5 -16 102 -16 111 0 117
1 117 20 0 39 -88 52 -164 25z"/>
<path d="M0 20 c0 -16 7 -20 30 -20 17 0 30 2 30 5 0 2 -13 11 -30 20 -29 15
-30 15 -30 -5z"/>
<path d="M1480 15 c0 -8 4 -15 10 -15 5 0 7 7 4 15 -4 8 -8 15 -10 15 -2 0 -4
-7 -4 -15z"/>
<path d="M3150 15 c0 -12 12 -15 53 -14 l52 1 -35 13 c-47 18 -70 18 -70 0z"/>
<path d="M3706 13 c-4 -10 22 -13 122 -12 148 0 138 14 -15 21 -77 3 -104 1
-107 -9z"/>
</g>
</svg>