<?xml version="1.0" standalone="no"?>
<!DOCTYPE svg PUBLIC "-//W3C//DTD SVG 20010904//EN"
 "http://www.w3.org/TR/2001/REC-SVG-20010904/DTD/svg10.dtd">
<svg version="1.0" xmlns="http://www.w3.org/2000/svg"
 width="512.000000pt" height="512.000000pt" viewBox="0 0 512.000000 512.000000"
 preserveAspectRatio="xMidYMid meet">
<metadata>
Created by potrace 1.16, written by Peter Selinger 2001-2019
</metadata>
<g transform="translate(0.000000,512.000000) scale(0.100000,-0.100000)"
fill="#000000" stroke="none">
<path d="M3820 3665 c-8 -2 -49 -9 -90 -15 -142 -23 -323 -94 -440 -173 -132
-89 -222 -190 -316 -355 -79 -138 -103 -165 -182 -204 -62 -31 -73 -33 -167
-33 -122 1 -178 20 -304 107 -321 220 -352 235 -545 250 l-131 11 -255 127
c-140 71 -287 139 -327 154 -213 75 -457 73 -688 -7 -91 -32 -234 -91 -310
-129 -68 -34 -70 -36 -63 -43 2 -3 71 24 152 60 259 115 410 155 591 155 192
0 288 -30 628 -198 l259 -127 -39 -11 c-21 -6 -66 -25 -99 -42 -117 -59 -159
-54 -327 40 -161 91 -263 113 -389 87 -75 -16 -145 -53 -318 -169 -168 -111
-265 -163 -383 -205 -43 -15 -75 -30 -73 -33 8 -8 122 36 221 85 50 24 160 90
245 147 183 122 219 141 303 162 121 31 239 5 400 -89 159 -93 200 -98 326
-37 139 67 168 65 304 -29 60 -42 85 -53 149 -65 43 -8 97 -24 120 -34 34 -15
161 -116 232 -183 5 -5 -24 2 -65 15 -44 13 -107 44 -153 74 -87 57 -157 86
-232 96 -29 3 -82 22 -119 41 -89 47 -156 48 -247 5 -34 -16 -72 -30 -84 -30
-32 0 -169 43 -269 85 -123 52 -177 65 -266 65 -82 0 -179 -24 -259 -65 -25
-13 -126 -82 -225 -154 -99 -71 -227 -157 -285 -191 -58 -33 -99 -60 -91 -60
33 0 221 118 441 276 194 139 303 180 455 172 112 -7 259 -62 372 -140 51 -35
114 -58 157 -58 33 0 184 48 155 49 -8 1 -37 -6 -63 -15 -69 -24 -158 -16
-219 20 -26 16 -46 30 -43 33 2 2 28 -3 57 -11 74 -22 100 -20 172 14 93 44
165 40 256 -14 l34 -20 -58 -13 c-32 -7 -117 -41 -189 -76 -122 -58 -136 -62
-201 -62 -57 0 -93 9 -195 45 -114 40 -133 44 -220 44 -87 1 -102 -2 -175 -35
-44 -19 -190 -106 -324 -193 -135 -87 -284 -179 -333 -204 -48 -26 -88 -52
-88 -59 0 -18 2 -17 73 18 84 43 179 101 392 239 226 147 255 163 335 190 97
33 190 25 350 -30 171 -58 214 -55 370 24 146 74 214 96 293 96 84 0 154 -25
263 -94 50 -32 118 -65 157 -77 57 -17 80 -31 144 -90 107 -97 166 -124 268
-124 64 0 89 5 125 24 69 37 139 117 209 240 76 135 148 223 250 304 152 121
337 179 479 151 l30 -6 -110 -109 c-60 -60 -114 -109 -119 -109 -30 0 -129
-45 -175 -80 -30 -22 -105 -100 -168 -173 -134 -155 -163 -183 -236 -229 -76
-48 -135 -69 -221 -78 -73 -7 -73 -7 -19 -9 104 -2 219 40 317 118 28 22 103
101 167 175 125 146 195 206 276 237 50 19 51 19 41 0 -6 -10 -43 -54 -83 -98
-108 -115 -120 -133 -64 -88 27 22 86 80 132 129 l83 90 123 4 c117 4 168 -2
263 -33 14 -4 12 -2 -5 9 -48 29 -167 49 -266 44 -51 -3 -91 -2 -88 3 12 20
158 90 207 100 133 24 273 -31 416 -165 105 -98 111 -101 396 -224 116 -50
277 -122 359 -161 82 -40 151 -69 154 -66 8 8 5 10 -133 76 -158 74 -239 110
-459 200 -192 80 -201 85 -313 189 -137 129 -240 175 -378 168 -68 -4 -90 -9
-148 -40 -38 -20 -67 -33 -65 -29 10 24 159 144 212 170 114 56 189 40 391
-82 170 -103 188 -112 400 -196 99 -39 250 -104 335 -145 144 -68 179 -81 154
-56 -14 14 -314 152 -424 194 -52 20 -138 53 -190 74 -52 20 -164 78 -249 129
-84 51 -168 97 -187 103 -59 20 -27 30 94 30 262 0 532 -78 840 -241 63 -33
116 -59 118 -57 7 8 -205 119 -319 168 -282 120 -524 164 -789 142 -88 -7
-130 -16 -170 -35 -51 -23 -62 -24 -176 -19 -110 4 -128 2 -204 -21 -155 -49
-242 -115 -464 -350 -76 -81 -159 -161 -184 -178 -124 -82 -299 -77 -450 13
-30 19 -91 64 -135 101 -102 87 -157 115 -267 137 -72 14 -97 25 -140 57 -29
22 -66 48 -83 57 -30 17 -29 17 63 12 124 -8 219 -45 348 -136 309 -218 321
-224 479 -225 101 0 115 2 172 29 81 37 123 84 213 237 123 207 272 338 490
427 409 167 871 99 1478 -218 73 -39 136 -70 140 -70 29 2 -345 189 -498 250
-251 100 -423 139 -635 145 -82 2 -157 2 -165 0z m-881 -762 c-76 -127 -122
-175 -198 -211 -44 -20 -64 -24 -115 -20 -90 8 -168 53 -294 173 -7 6 18 -3
57 -21 38 -19 89 -38 113 -44 63 -14 167 -12 224 5 50 15 172 93 208 134 29
32 30 26 5 -16z"/>
<path d="M3254 3606 c-138 -43 -279 -163 -354 -300 -57 -104 -89 -139 -158
-173 -46 -22 -69 -27 -127 -27 -89 1 -143 22 -310 120 -167 99 -269 148 -375
182 -75 24 -100 27 -220 27 -82 -1 -145 -5 -160 -13 -22 -10 -19 -10 20 -4 25
4 92 7 150 6 174 -1 312 -51 595 -218 208 -123 315 -142 440 -81 62 30 104 77
160 180 56 102 159 201 264 253 46 23 91 42 100 42 9 0 23 5 31 10 13 9 13 10
0 9 -8 0 -33 -6 -56 -13z"/>
<path d="M2834 3069 c-10 -12 -41 -33 -69 -48 -44 -23 -61 -26 -145 -26 -82 0
-103 4 -152 27 -70 33 -77 28 -9 -6 77 -40 166 -51 242 -31 66 16 133 55 150
87 13 24 6 23 -17 -3z"/>
<path d="M4195 2986 c39 -20 92 -56 120 -81 27 -25 53 -45 58 -45 4 0 6 -4 2
-9 -7 -13 166 -172 263 -240 103 -74 179 -114 288 -150 82 -27 206 -52 194
-38 -3 3 -40 13 -83 22 -139 29 -251 78 -379 167 -77 54 -281 228 -274 235 9
9 156 -56 331 -147 185 -96 358 -165 393 -157 9 2 -7 9 -36 15 -76 17 -211 75
-332 143 -124 69 -234 120 -309 145 -32 10 -74 35 -106 64 -55 47 -130 92
-175 105 -14 3 7 -10 45 -29z"/>
<path d="M3664 2985 c-150 -51 -196 -86 -500 -387 -189 -187 -252 -243 -295
-262 -70 -33 -130 -34 -195 -1 -54 27 -146 114 -195 185 -29 41 -26 40 27 -17
119 -124 201 -158 315 -128 80 20 144 55 214 117 64 58 87 90 190 263 85 144
85 160 -1 22 -148 -239 -204 -301 -324 -360 -55 -27 -75 -32 -140 -32 -98 0
-137 19 -220 109 -132 142 -216 224 -249 241 -19 9 -62 19 -95 21 l-61 3 50
-8 c71 -12 126 -42 175 -98 23 -26 46 -47 50 -46 4 1 16 -8 26 -20 l19 -22
-22 19 c-35 29 -28 11 24 -62 144 -204 283 -268 426 -198 42 20 107 79 283
255 237 236 313 300 424 356 84 42 135 56 240 65 l85 7 -90 1 c-71 1 -105 -4
-161 -23z"/>
<path d="M3912 2930 c57 -9 152 -52 198 -90 19 -15 9 -13 -41 10 -87 40 -171
53 -251 40 -102 -16 -163 -52 -258 -153 -245 -259 -365 -369 -508 -467 -135
-91 -243 -112 -359 -68 -48 17 -75 38 -153 117 -52 53 -127 132 -166 176 -44
50 -91 91 -125 110 -50 28 -62 30 -155 30 -95 0 -103 -2 -175 -37 -40 -20
-106 -65 -145 -100 -52 -46 -93 -72 -151 -96 -106 -43 -169 -82 -391 -243
-227 -166 -432 -305 -572 -389 -132 -80 -364 -194 -452 -222 -37 -12 -66 -24
-63 -26 7 -8 136 39 247 88 205 93 462 254 808 506 244 178 321 227 428 269
70 28 112 54 170 102 42 35 100 75 128 89 106 52 240 52 330 -1 23 -14 83 -71
132 -128 119 -136 217 -228 278 -257 41 -21 64 -25 140 -25 84 0 95 3 165 37
144 72 390 281 536 455 131 157 215 210 348 220 128 10 256 -44 410 -173 107
-90 204 -151 425 -269 91 -48 226 -125 300 -171 74 -46 122 -73 105 -59 -50
42 -248 162 -419 252 -211 113 -331 192 -440 292 -147 135 -222 179 -318 186
l-63 4 57 -9z"/>
<path d="M1700 2914 c-74 -20 -151 -59 -237 -122 -107 -79 -152 -95 -237 -90
-60 4 -84 12 -159 51 -113 60 -171 63 -263 17 -59 -30 -307 -219 -537 -412
-68 -57 -156 -121 -195 -143 -92 -51 -94 -68 -3 -20 38 20 140 96 232 173 200
168 407 329 474 370 105 64 177 65 282 4 103 -61 198 -76 278 -46 22 9 67 20
100 25 33 5 132 30 220 56 132 38 175 46 245 47 47 1 99 -2 115 -7 27 -6 28
-6 10 5 -13 9 -56 13 -125 12 -93 -1 -123 -7 -260 -47 -166 -48 -242 -65 -225
-49 71 66 217 146 307 167 120 28 276 9 373 -46 28 -16 80 -38 116 -50 97 -32
144 -64 260 -175 104 -99 137 -124 189 -138 14 -4 0 7 -30 24 -30 17 -100 75
-155 129 -108 106 -163 143 -255 172 -32 10 -86 32 -119 49 -116 58 -280 76
-401 44z"/>
<path d="M3836 2749 c-100 -24 -154 -67 -386 -299 -124 -124 -256 -249 -295
-278 -181 -136 -333 -168 -473 -101 -58 28 -184 148 -267 254 -34 44 -76 92
-91 107 -63 59 -152 73 -250 39 -57 -21 -79 -34 -374 -237 -600 -412 -700
-477 -830 -538 -30 -14 -44 -23 -30 -20 14 4 66 27 115 52 83 42 213 128 808
531 262 177 317 205 408 205 59 1 72 -3 111 -29 23 -17 77 -74 119 -126 96
-119 190 -206 271 -250 60 -32 68 -34 163 -34 92 0 105 3 169 33 116 54 191
117 441 362 132 130 256 246 276 258 129 78 277 80 409 5 41 -24 220 -188 220
-203 0 -3 -30 8 -67 26 -114 56 -211 77 -328 72 -173 -8 -276 -66 -418 -238
-44 -52 -104 -126 -135 -163 -205 -248 -507 -351 -727 -248 -60 29 -91 54
-221 187 -164 166 -193 185 -280 185 -86 0 -160 -40 -310 -167 -82 -70 -163
-113 -356 -189 -54 -21 -96 -40 -94 -42 6 -6 227 82 313 125 44 23 112 68 149
100 85 74 185 139 233 152 100 28 165 0 269 -113 203 -219 279 -274 412 -298
168 -29 372 44 533 191 37 34 114 119 170 188 212 260 317 322 527 310 154
-10 305 -76 425 -188 33 -31 80 -72 105 -92 25 -20 112 -105 195 -189 203
-209 357 -359 368 -359 5 0 -36 43 -92 96 -55 52 -120 119 -143 147 l-43 52
40 -31 c53 -41 215 -134 234 -134 9 0 -20 21 -64 47 -129 74 -220 148 -390
313 -169 164 -277 254 -290 242 -5 -4 -5 -1 -1 6 5 8 -28 48 -91 111 -81 83
-112 106 -177 137 -63 30 -91 38 -149 40 -40 2 -89 -1 -111 -7z m635 -386 c13
-16 12 -17 -3 -4 -17 13 -22 21 -14 21 2 0 10 -8 17 -17z m40 -30 c13 -16 12
-17 -3 -4 -17 13 -22 21 -14 21 2 0 10 -8 17 -17z"/>
<path d="M1905 2696 c-123 -25 -199 -60 -342 -158 l-71 -49 -105 0 c-137 0
-209 19 -331 89 -189 107 -241 91 -578 -174 -152 -120 -322 -240 -405 -286
-40 -22 -73 -44 -73 -50 0 -27 202 105 460 300 214 162 301 219 367 238 72 21
104 14 231 -51 126 -65 219 -89 332 -83 44 2 80 2 80 1 0 -1 -41 -31 -92 -68
-54 -38 -101 -65 -116 -65 -14 0 -68 14 -121 31 -73 24 -120 33 -196 36 -211
10 -339 -44 -645 -273 -107 -80 -218 -160 -247 -177 -29 -18 -53 -38 -53 -44
0 -7 2 -13 5 -13 14 0 134 83 295 204 218 163 305 215 417 252 80 26 100 29
218 28 114 -1 142 -5 228 -31 l98 -30 -58 -38 c-32 -21 -166 -117 -298 -214
-325 -237 -453 -320 -630 -407 -82 -40 -144 -74 -136 -74 8 0 78 31 155 69
161 79 325 186 646 422 124 91 286 207 360 258 74 51 182 126 240 166 130 91
244 149 335 171 95 23 248 23 298 2 45 -21 49 -15 5 8 -43 22 -183 27 -273 10z"/>
<path d="M442 2575 c-29 -14 -116 -65 -192 -115 -77 -50 -165 -102 -196 -116
-31 -14 -54 -27 -51 -30 11 -11 117 45 249 131 117 78 212 131 258 148 13 5
13 5 0 6 -8 0 -39 -10 -68 -24z"/>
<path d="M4023 2379 c-127 -24 -236 -110 -400 -311 -183 -224 -305 -301 -508
-318 -90 -7 -90 -7 -23 -9 200 -4 359 92 555 336 112 140 187 209 267 248 123
61 242 68 408 26 85 -22 105 -19 27 3 -123 36 -232 44 -326 25z"/>
<path d="M2025 2124 c-44 -7 -154 -44 -160 -55 -8 -12 -3 -12 38 6 20 8 67 19
105 25 142 20 259 -23 414 -151 210 -173 247 -202 309 -238 206 -119 419 -148
622 -84 44 13 77 26 75 28 -2 2 -33 -5 -68 -17 -87 -29 -293 -31 -389 -5 -152
41 -256 102 -438 254 -155 131 -246 193 -314 216 -50 17 -148 27 -194 21z"/>
<path d="M1370 1890 c-8 -5 -10 -10 -5 -10 6 0 17 5 25 10 8 5 11 10 5 10 -5
0 -17 -5 -25 -10z"/>
<path d="M4125 1716 c-23 -34 -5 -66 35 -66 44 0 64 44 34 74 -23 23 -51 20
-69 -8z"/>
</g>
</svg>