<?xml version="1.0" standalone="no"?>
<!DOCTYPE svg PUBLIC "-//W3C//DTD SVG 20010904//EN"
 "http://www.w3.org/TR/2001/REC-SVG-20010904/DTD/svg10.dtd">
<svg version="1.0" xmlns="http://www.w3.org/2000/svg"
 width="512.000000pt" height="512.000000pt" viewBox="0 0 512.000000 512.000000"
 preserveAspectRatio="xMidYMid meet">
<metadata>
Created by potrace 1.16, written by Peter Selinger 2001-2019
</metadata>
<g transform="translate(0.000000,512.000000) scale(0.100000,-0.100000)"
fill="#000000" stroke="none">
<path d="M2407 4489 c-134 -11 -290 -43 -392 -80 -163 -59 -262 -146 -331
-289 -41 -84 -59 -96 -96 -63 -10 9 -18 11 -18 5 0 -6 9 -19 20 -30 19 -18 19
-18 -6 -82 -14 -36 -32 -81 -41 -101 -15 -37 -47 -59 -86 -59 -20 -1 -20 -2
-4 -11 9 -6 26 -7 37 -4 26 8 26 -1 -1 -15 -16 -9 -30 -8 -62 4 l-42 16 66
-63 66 -64 -15 -72 c-15 -68 -15 -76 3 -129 10 -31 27 -73 37 -94 9 -20 30
-85 46 -146 25 -95 35 -117 73 -162 40 -48 44 -50 53 -31 11 26 26 27 26 4 -1
-53 -44 -56 -75 -6 -11 18 -24 32 -29 33 -14 0 3 -64 23 -84 19 -18 18 -19
-15 -48 -67 -59 -73 -179 -18 -320 19 -50 44 -132 55 -181 21 -101 51 -151
104 -173 36 -15 37 -17 50 -184 16 -189 52 -280 152 -378 l63 -62 10 -98 10
-98 -82 -85 c-46 -46 -106 -109 -134 -139 -39 -43 -64 -60 -115 -79 -138 -51
-901 -390 -1088 -484 -92 -46 -109 -84 -147 -332 -7 -49 -12 -91 -10 -92 1 -2
17 50 35 114 50 181 70 239 90 257 17 15 18 12 20 -66 2 -80 30 -329 52 -455
l11 -63 37 0 37 0 -32 181 c-18 99 -41 236 -50 305 -17 120 -17 125 1 138 19
14 233 111 645 294 250 110 380 164 380 155 0 -3 -39 -55 -87 -117 -133 -170
-153 -197 -153 -205 0 -4 34 -31 75 -59 41 -29 76 -56 79 -61 3 -4 -39 -38
-94 -75 -55 -36 -100 -70 -100 -75 0 -17 48 -143 119 -311 l70 -165 45 -3 46
-3 -36 83 c-107 246 -164 384 -164 396 0 6 30 33 67 60 84 60 123 92 123 101
0 5 -38 34 -85 66 -47 32 -85 62 -85 65 0 7 138 185 213 275 23 28 81 88 129
134 82 79 87 82 77 50 -26 -86 -7 -283 92 -944 16 -110 32 -219 36 -242 l6
-43 59 0 60 0 -7 27 c-10 42 -85 500 -85 522 0 11 43 64 101 123 111 114 106
113 134 21 22 -72 19 -98 -26 -206 -48 -117 -86 -277 -95 -399 l-7 -88 268 0
267 0 -6 38 c-24 129 -63 284 -102 398 -24 72 -44 142 -44 156 0 25 68 128
103 157 15 12 20 12 35 -1 9 -8 64 -54 122 -103 58 -48 109 -91 113 -95 4 -4
-10 -72 -32 -151 -40 -145 -101 -383 -101 -393 0 -3 22 -6 48 -6 l49 0 61 237
c126 485 155 593 161 593 3 0 40 -44 81 -97 127 -163 142 -179 230 -243 47
-34 90 -68 96 -76 6 -8 16 -14 22 -14 6 0 9 -10 7 -23 -3 -30 -26 -77 -37 -77
-5 0 -6 -5 -3 -10 3 -5 1 -10 -4 -10 -6 0 -10 -3 -8 -8 4 -12 -35 -92 -45 -92
-5 0 -6 -4 -3 -10 3 -5 -1 -10 -11 -10 -11 0 -15 -6 -11 -20 3 -10 2 -19 -2
-18 -19 2 -31 -3 -26 -12 3 -5 1 -10 -4 -10 -15 0 -14 -27 2 -33 9 -4 9 -6 -1
-6 -7 -1 -10 -5 -7 -11 3 -5 1 -10 -5 -10 -6 0 -8 -4 -5 -10 3 -5 1 -10 -5
-10 -6 0 -8 -4 -5 -10 4 -6 241 -10 651 -10 l644 0 -5 23 c-2 12 -11 62 -20
112 -28 161 -76 344 -98 376 -17 24 -64 50 -222 123 -110 51 -375 181 -590
288 l-390 196 -75 103 c-41 57 -95 125 -120 152 -25 26 -60 64 -78 84 l-34 37
7 109 7 109 55 61 c85 95 136 207 168 369 25 124 19 116 74 110 43 -4 52 -1
84 27 20 18 41 49 48 69 6 20 31 84 54 142 24 58 48 131 55 163 20 97 -4 224
-50 267 l-29 27 19 94 c10 52 33 150 51 219 57 214 43 350 -56 564 -72 155
-159 237 -269 252 -43 6 -46 9 -94 88 -66 107 -111 158 -183 207 -144 98 -368
140 -622 118z m378 -49 c161 -41 282 -118 358 -229 16 -24 25 -41 19 -37 -17
10 -15 -7 4 -48 11 -22 14 -44 10 -62 -7 -28 -7 -27 -35 22 -42 73 -130 150
-214 189 -189 86 -478 116 -667 69 -79 -20 -202 -83 -300 -154 -117 -84 -194
-130 -246 -146 l-44 -13 38 70 c101 189 213 266 472 325 214 48 450 54 605 14z
m-112 -138 c130 -64 222 -209 242 -382 6 -48 4 -59 -16 -84 l-23 -30 -13 84
c-15 95 -46 169 -91 221 -60 68 -193 120 -302 118 l-55 -2 63 -8 c139 -18 252
-71 303 -144 32 -45 58 -136 62 -216 1 -41 -1 -53 -12 -51 -8 2 -11 -3 -8 -12
4 -9 2 -18 -2 -20 -5 -3 -11 22 -14 56 -7 83 -62 194 -124 247 -156 138 -386
146 -600 20 -36 -21 -121 -97 -221 -196 -94 -95 -184 -175 -215 -193 -57 -33
-111 -39 -143 -16 -18 14 -18 16 13 48 19 20 48 74 73 138 23 58 46 111 52
118 6 6 27 12 47 12 53 0 131 41 235 123 134 106 252 164 411 201 11 3 77 4
146 3 119 -3 129 -4 192 -35z m184 -23 c34 -11 88 -37 120 -58 106 -68 183
-179 152 -217 -13 -16 -175 -134 -184 -134 -3 0 -5 15 -5 33 0 50 -38 175 -73
242 -18 33 -56 84 -85 113 l-52 54 32 -7 c18 -3 61 -15 95 -26z m-316 -143
c124 -45 228 -178 237 -305 4 -66 4 -68 -26 -89 -16 -12 -32 -22 -35 -22 -2 0
-7 31 -9 69 -11 150 -119 245 -293 258 -98 8 -182 -10 -283 -58 -70 -34 -102
-58 -215 -167 -72 -71 -159 -149 -192 -174 -33 -25 -93 -76 -132 -113 l-73
-67 0 31 c0 17 7 58 16 90 16 57 17 58 65 70 71 19 153 84 265 212 54 61 121
130 148 151 55 43 190 112 251 127 57 14 221 6 276 -13z m663 -32 c3 -8 2 -12
-4 -9 -6 3 -10 10 -10 16 0 14 7 11 14 -7z m162 -78 c27 -13 66 -42 86 -65 34
-40 105 -161 94 -161 -3 0 -32 24 -66 54 -70 63 -123 90 -205 105 -32 6 -60
12 -61 14 -2 2 8 20 23 40 32 44 56 47 129 13z m-981 -66 c10 -11 16 -20 13
-20 -3 0 -13 9 -23 20 -10 11 -16 20 -13 20 3 0 13 -9 23 -20z m-20 -10 c10
-11 16 -20 13 -20 -3 0 -13 9 -23 20 -10 11 -16 20 -13 20 3 0 13 -9 23 -20z
m928 -19 c37 -11 82 -29 100 -40 78 -49 187 -191 214 -280 18 -60 17 -62 -13
-55 -21 5 -25 4 -20 -7 4 -8 -1 -3 -11 11 -20 28 -66 74 -211 208 -63 58 -121
102 -156 118 l-56 26 22 18 c29 24 47 24 131 1z m-117 -62 c43 -16 75 -39 130
-94 40 -41 99 -93 130 -116 32 -24 68 -54 80 -68 49 -56 108 -203 68 -170 -11
9 -14 7 -14 -15 0 -15 -4 -25 -8 -22 -5 3 -9 -1 -9 -8 0 -8 6 -12 14 -9 7 3
13 1 13 -4 0 -5 -12 -10 -26 -11 -19 -1 -25 2 -21 12 3 8 3 16 -1 18 -4 2 -27
42 -50 90 -51 104 -129 181 -229 229 -46 22 -71 42 -93 74 -16 24 -41 52 -55
63 -27 22 -32 38 -12 45 20 9 24 8 83 -14z m-116 -48 c39 -28 86 -95 111 -158
21 -52 23 -76 24 -218 l1 -160 45 -65 c55 -78 69 -115 69 -186 0 -67 -5 -69
-172 -56 -106 8 -113 9 -50 11 l72 1 -37 49 c-21 28 -46 62 -56 76 -11 15 -22
24 -25 21 -3 -4 0 -12 6 -18 23 -23 11 -25 -45 -6 -60 20 -59 20 -213 -6 -83
-14 -160 -72 -160 -121 0 -17 -9 -29 -30 -40 -16 -8 -34 -15 -39 -15 -19 0
-42 47 -55 116 -12 59 -14 63 -15 29 -1 -55 16 -111 41 -135 12 -11 20 -20 17
-20 -143 -8 -165 -6 -211 19 -32 18 -48 33 -48 46 -1 62 -155 145 -271 145
-75 0 -168 -64 -172 -120 -1 -15 -8 -20 -28 -20 -25 0 -26 2 -23 48 8 114 12
148 19 167 7 18 5 17 -21 -5 l-29 -25 25 28 c25 28 25 31 25 205 0 230 9 269
79 334 28 27 61 51 73 54 15 4 47 -8 100 -37 188 -102 227 -119 303 -129 77
-11 107 -7 260 36 75 21 195 78 282 135 78 51 100 54 148 20z m-620 -21 c0 -5
-2 -10 -4 -10 -3 0 -8 5 -11 10 -3 6 -1 10 4 10 6 0 11 -4 11 -10z m840 -141
c102 -54 172 -148 229 -305 33 -90 43 -151 12 -73 -37 94 -108 174 -224 253
-47 32 -59 47 -68 80 -5 23 -12 49 -15 59 -7 23 -1 22 66 -14z m-1540 -76 c0
-19 -3 -24 -9 -15 -10 17 -30 -5 -33 -39 -2 -14 -15 -32 -33 -42 -16 -11 -47
-35 -67 -54 l-36 -36 7 34 c13 56 29 77 99 129 37 27 68 49 70 50 1 0 2 -12 2
-27z m1620 -199 c18 -31 33 -62 33 -70 0 -8 4 -14 9 -14 5 0 6 -4 3 -10 -3 -5
-3 -10 2 -10 10 0 42 -76 49 -115 5 -26 -30 -95 -48 -95 -3 0 -16 30 -29 68
-12 37 -44 112 -71 167 -44 92 -46 97 -18 65 30 -35 43 -30 15 6 -18 23 -19
38 -3 28 7 -4 2 7 -11 24 -28 39 -37 42 -15 5 l16 -28 -21 24 c-13 15 -21 36
-21 60 l1 36 38 -43 c20 -24 52 -68 71 -98z m-1607 23 c14 8 12 6 -56 -80 -54
-67 -62 -89 -54 -163 7 -66 -8 -63 -17 3 -3 27 -15 77 -26 111 -11 35 -20 70
-20 78 0 22 67 91 113 117 l42 23 3 -49 c2 -34 7 -45 15 -40z m1687 -47 c30
-48 60 -137 60 -179 -1 -20 -3 -22 -9 -11 -5 8 -11 24 -13 35 -1 11 -6 22 -9
25 -4 3 -23 39 -44 80 -21 41 -53 100 -72 130 l-35 55 46 -45 c26 -25 60 -65
76 -90z m-1676 -12 c-4 -7 -20 -32 -36 -55 -38 -57 -35 -61 8 -13 43 47 57 46
21 -2 -13 -18 -28 -44 -32 -58 -5 -19 1 -14 24 18 17 23 33 42 36 42 3 0 -6
-22 -20 -50 -14 -27 -25 -56 -25 -65 0 -9 -7 -30 -17 -48 l-16 -32 -18 40
c-36 78 -24 129 44 203 32 33 43 41 31 20z m1542 -63 c14 -25 24 -52 22 -61
-2 -9 -17 13 -36 51 -36 73 -27 80 14 10z m259 45 c3 -5 2 -10 -4 -10 -5 0
-13 5 -16 10 -3 6 -2 10 4 10 5 0 13 -4 16 -10z m-263 -105 c11 -21 8 -18 -32
30 -24 29 -24 29 -2 10 13 -11 28 -29 34 -40z m-1219 -156 c27 -20 38 -14 15
9 -7 7 -8 12 -2 12 6 0 25 -20 43 -45 18 -25 28 -45 22 -45 -6 0 -18 11 -27
25 -9 14 -19 23 -21 21 -3 -3 -22 4 -41 15 -22 11 -58 19 -87 20 -38 0 -45 3
-30 9 29 14 96 3 128 -21z m750 -23 c-49 -57 -63 -65 -43 -24 10 18 5 16 -24
-11 -20 -19 -36 -31 -36 -26 0 16 52 76 63 72 6 -2 27 7 46 20 18 13 36 23 38
23 2 0 -17 -24 -44 -54z m-91 2 c-16 -24 -32 -50 -35 -58 -4 -10 -6 -8 -6 7
-1 12 13 38 30 58 42 47 46 44 11 -7z m218 33 c-30 -3 -61 -10 -67 -14 -13 -8
-18 5 -6 16 3 4 34 6 67 6 l61 -2 -55 -6z m-882 -39 c23 -12 42 -24 42 -27 0
-2 -25 5 -57 16 -57 19 -127 25 -160 12 -16 -6 -15 -8 7 -14 22 -7 21 -7 -8
-6 l-33 1 28 26 c24 23 32 25 82 20 31 -3 75 -16 99 -28z m148 -24 c8 -15 14
-31 14 -35 -1 -4 -8 6 -17 22 -8 17 -25 41 -37 55 l-21 25 24 -20 c12 -11 29
-32 37 -47z m811 56 c-3 -3 9 -19 26 -36 18 -17 25 -26 16 -19 -9 6 -20 7 -24
3 -5 -4 -5 -2 -2 5 5 8 -5 10 -33 7 -22 -2 -59 -6 -82 -8 -33 -4 -39 -2 -25 5
10 6 44 11 75 12 41 0 50 2 32 8 -35 10 -98 0 -145 -24 l-39 -19 15 22 c16 25
20 26 119 39 36 5 67 9 69 10 2 0 2 -2 -2 -5z m-342 -37 c-8 -13 -13 -26 -10
-29 3 -3 -2 -11 -11 -19 -15 -12 -16 -11 -9 11 7 23 33 60 42 60 2 0 -3 -10
-12 -23z m-504 -19 c17 -24 18 -29 6 -19 -18 14 -42 51 -33 51 3 0 15 -15 27
-32z m69 -12 c0 -12 -5 -7 -19 24 -11 24 -11 24 3 6 9 -11 16 -24 16 -30z
m-323 -2 c-3 -3 -12 -4 -19 -1 -8 3 -5 6 6 6 11 1 17 -2 13 -5z m1442 -80
c-40 -13 -76 -21 -80 -18 -4 2 -10 -2 -12 -8 -3 -7 -6 2 -6 20 -1 28 2 32 25
32 14 0 23 -4 19 -10 -3 -5 -1 -10 4 -10 6 0 11 4 11 9 0 10 75 19 98 12 8 -2
-19 -14 -59 -27z m-1174 -5 c94 -29 115 -52 114 -126 -1 -32 -5 -69 -9 -83 -7
-23 -8 -23 -10 10 l-2 35 -12 -45 c-13 -47 -11 -65 4 -40 6 8 10 10 10 4 0
-26 -49 -81 -93 -103 -39 -19 -64 -23 -135 -24 -112 0 -165 14 -196 56 -53 70
-81 257 -43 294 31 31 78 41 193 42 87 1 127 -4 179 -20z m862 -3 c43 -22 57
-63 50 -144 -12 -135 -46 -198 -117 -220 -67 -20 -224 -12 -275 13 -41 21 -89
81 -100 125 -4 17 2 12 17 -15 17 -31 23 -36 26 -22 5 25 -7 69 -17 63 -5 -3
-8 0 -8 7 1 6 -7 38 -17 69 -16 48 -17 59 -6 73 20 25 66 45 134 61 80 18 271
12 313 -10z m-1272 -6 c0 -16 -28 -25 -50 -16 -9 3 -12 12 -9 21 8 21 59 16
59 -5z m1415 -11 c0 -17 -5 -20 -32 -17 -22 2 -34 9 -36 21 -3 14 4 17 32 17
30 0 36 -4 36 -21z m362 4 c26 -30 39 -88 40 -175 1 -78 -2 -91 -54 -223 -31
-77 -59 -150 -62 -161 -9 -30 -37 -53 -72 -60 -23 -4 -37 0 -61 20 l-30 25
-23 -107 c-43 -203 -90 -327 -151 -397 -17 -19 -81 -79 -143 -133 -102 -89
-108 -93 -74 -47 70 94 87 130 123 270 45 175 62 317 48 400 l-10 60 -2 -47
c-2 -75 -38 -246 -75 -353 -115 -334 -138 -386 -203 -456 -69 -73 -125 -91
-288 -91 -192 1 -285 33 -335 114 -10 16 -59 68 -109 115 -136 126 -170 186
-207 356 -12 59 -44 424 -44 509 l0 29 28 -20 c45 -34 147 -54 233 -48 139 11
192 48 256 182 19 38 31 59 28 45 -3 -14 -14 -81 -25 -150 -10 -69 -21 -132
-24 -140 -3 -8 -10 -35 -16 -58 -11 -41 -13 -43 -38 -37 -61 15 -70 59 -22
107 33 32 34 46 3 30 -36 -20 -56 -51 -57 -91 -1 -45 15 -67 82 -113 23 -16
42 -32 42 -36 0 -4 -45 -7 -99 -7 -96 0 -101 -1 -130 -29 -38 -37 -47 -62 -31
-92 11 -19 10 -26 -1 -40 -13 -15 -11 -17 16 -12 17 3 37 8 46 12 10 5 38 -11
84 -49 109 -90 119 -93 321 -97 148 -2 166 4 274 87 42 33 62 42 82 38 28 -5
35 2 48 48 8 25 4 35 -21 64 -49 55 -86 72 -175 80 -100 8 -116 17 -80 40 57
38 71 109 34 165 -31 45 -61 55 -85 27 -12 -15 -13 -18 -2 -9 33 25 90 -49 74
-98 -3 -11 -20 -21 -41 -25 -23 -4 -56 -25 -95 -61 -51 -47 -64 -54 -100 -54
-35 0 -48 6 -80 39 -44 43 -47 65 -23 132 8 24 24 103 34 174 11 72 23 144 27
160 3 17 7 44 7 60 1 29 2 30 51 30 l50 0 40 -98 c72 -177 127 -218 294 -225
61 -3 127 1 158 8 49 10 56 10 91 -10 l37 -22 -32 30 c-31 30 -31 30 -11 49
26 24 51 74 74 148 10 33 23 66 28 74 6 8 9 24 8 37 -3 18 8 30 50 58 l53 36
13 -77 c8 -51 11 -121 7 -200 -5 -117 -4 -123 14 -123 17 0 20 11 26 118 6 97
11 119 26 130 10 7 26 38 35 70 28 94 103 144 146 95z m-1882 -19 c0 -24 -2
-25 -17 -13 -9 8 -3 -6 13 -31 47 -69 47 -71 27 -63 -10 4 -23 14 -30 22 -10
13 -12 5 -12 -44 0 -33 4 -78 8 -100 l9 -40 1 36 c2 66 12 99 31 99 27 0 32
-27 15 -76 -8 -25 -15 -55 -15 -67 0 -38 20 -94 41 -119 l20 -23 -5 60 c-3 33
-1 67 4 75 5 8 10 11 10 5 0 -5 7 -77 15 -160 8 -86 10 -154 5 -159 -13 -13
-57 19 -75 53 -13 26 -19 58 -29 161 -1 14 -18 57 -37 95 -32 66 -34 76 -34
175 0 118 5 140 35 140 15 0 20 -7 20 -26z m917 -106 c-3 -7 -5 -2 -5 12 0 14
2 19 5 13 2 -7 2 -19 0 -25z m10 -50 c-3 -8 -6 -5 -6 6 -1 11 2 17 5 13 3 -3
4 -12 1 -19z m306 -205 c-23 -2 -64 -2 -90 0 -26 2 -7 3 42 3 50 0 71 -1 48
-3z m-134 -366 c35 -32 35 -32 17 -4 -22 36 -16 43 12 17 12 -12 22 -17 22
-13 0 4 14 -7 30 -26 17 -18 30 -43 30 -55 l-1 -21 -18 22 c-10 12 -22 19 -26
15 -5 -4 -5 1 -2 11 4 11 3 16 -3 12 -6 -3 -10 -12 -10 -19 0 -10 -25 -15 -92
-19 -51 -3 -130 -11 -175 -18 -73 -11 -101 -11 -230 5 -82 11 -161 23 -177 27
-21 6 -32 5 -37 -3 -5 -8 -10 -2 -14 15 -5 20 -2 34 11 49 25 27 56 38 71 26
8 -7 23 -6 45 1 l32 11 -27 -28 c-15 -15 -27 -35 -27 -43 0 -7 17 5 39 29 21
23 42 42 47 42 4 0 -2 -10 -14 -23 -28 -29 -29 -54 -2 -27 12 12 25 18 30 15
5 -3 11 -1 15 5 11 17 25 11 25 -11 0 -17 4 -19 23 -13 21 6 21 6 5 -13 -35
-39 -8 -47 37 -11 l28 22 -5 -27 c-8 -39 10 -44 25 -8 l13 31 22 -23 c29 -31
56 -33 40 -3 -11 20 -10 20 9 3 16 -14 20 -15 20 -2 0 8 -3 15 -7 15 -3 0 -6
9 -7 20 -2 29 12 25 57 -16 44 -40 52 -30 19 22 -30 49 -1 46 42 -3 17 -21 29
-29 25 -19 -5 16 -4 17 9 6 32 -26 13 4 -22 37 l-38 34 50 -6 c37 -4 58 -14
84 -38z m-169 -2 c13 -14 21 -25 18 -25 -2 0 -15 11 -28 25 -13 14 -21 25 -18
25 2 0 15 -11 28 -25z m-325 -125 c4 -6 10 -8 14 -6 4 3 42 -1 84 -8 75 -13
95 -13 270 9 49 7 57 5 57 -8 0 -9 -10 -26 -22 -37 -21 -19 -23 -20 -30 -3 -6
17 -7 17 -7 0 -1 -10 -13 -22 -27 -27 -39 -15 -54 -13 -47 8 3 11 -1 9 -12 -6
-17 -23 -21 -23 -104 -17 -60 5 -89 12 -95 22 -7 13 -10 13 -17 2 -8 -11 -13
-10 -27 7 -10 11 -23 19 -29 17 -11 -4 -43 33 -43 49 0 12 28 10 35 -2z m465
-3 c0 -14 -19 -37 -31 -37 -3 0 -4 11 -1 25 4 25 32 36 32 12z m-447 -640 c35
-28 58 -60 88 -119 45 -90 61 -99 29 -17 -34 91 -34 91 73 83 122 -8 142 -21
142 -95 0 -65 -27 -109 -83 -139 -27 -14 -32 -19 -17 -19 33 -1 118 44 152 80
29 32 37 52 63 156 9 36 19 47 78 86 37 24 92 65 122 90 30 25 58 43 62 41 5
-3 8 -54 8 -114 0 -90 -3 -112 -17 -126 -30 -30 -156 -120 -295 -211 -123 -81
-137 -87 -181 -86 -45 1 -58 8 -180 101 -73 55 -156 122 -185 149 l-54 48 -5
145 -6 145 79 -80 c44 -44 100 -98 127 -118z m824 -24 c13 -35 18 -74 18 -148
-1 -96 -4 -110 -78 -355 -43 -140 -80 -256 -81 -258 -2 -1 -64 61 -137 139
-74 78 -159 163 -190 189 l-56 47 180 119 c246 162 325 236 310 292 -11 42 16
22 34 -25z m-1067 -35 c1 -13 6 -33 13 -45 14 -26 133 -126 275 -231 l102 -76
-88 -91 c-49 -49 -126 -132 -172 -183 -46 -51 -86 -89 -90 -85 -4 4 -24 107
-44 228 -38 231 -47 409 -25 474 13 36 29 41 29 9z m1611 -935 c13 -16 12 -17
-3 -4 -17 13 -22 21 -14 21 2 0 10 -8 17 -17z"/>
<path d="M2620 3408 c-61 -13 -248 -15 -405 -4 -71 4 -140 4 -152 0 -58 -23
512 -24 597 -1 61 16 31 20 -40 5z"/>
<path d="M2665 3334 c-44 -8 -132 -18 -195 -23 l-115 -8 99 -2 c85 -1 159 7
376 42 14 2 0 4 -30 5 -30 0 -91 -6 -135 -14z"/>
<path d="M1956 3285 c-21 -7 -46 -21 -55 -30 -14 -15 -12 -15 19 1 68 34 158
30 330 -15 85 -22 156 -38 158 -36 7 6 -190 66 -266 81 -91 17 -136 17 -186
-1z"/>
<path d="M2804 3260 c-63 -12 -218 -60 -211 -66 2 -3 51 7 108 21 108 28 202
35 279 23 44 -8 44 -7 18 7 -35 19 -128 26 -194 15z"/>
<path d="M3072 3245 c0 -11 4 -33 8 -50 7 -27 8 -27 8 -5 0 14 -4 36 -8 50 -6
20 -8 21 -8 5z"/>
<path d="M2341 3050 c0 -37 2 -41 9 -22 6 13 6 31 0 45 -7 18 -9 14 -9 -23z"/>
<path d="M1717 3382 c-19 -20 -23 -37 -7 -27 10 6 33 45 27 45 -2 0 -11 -8
-20 -18z"/>
<path d="M2023 2905 c-18 -7 -42 -30 -55 -49 -13 -20 -28 -36 -33 -36 -6 0
-27 14 -48 31 -46 38 -55 34 -23 -9 12 -17 25 -29 29 -26 3 3 15 0 28 -6 50
-27 152 -41 254 -34 55 4 94 9 87 12 -10 3 -9 9 5 24 17 19 17 21 -19 53 -57
53 -156 70 -225 40z m97 -45 c0 -5 -7 -10 -15 -10 -8 0 -15 5 -15 10 0 6 7 10
15 10 8 0 15 -4 15 -10z m48 -7 c6 -19 -25 -16 -32 3 -4 11 -1 14 11 12 9 -2
18 -9 21 -15z m-107 -59 c8 -9 1 -10 -31 -2 l-41 11 23 24 22 24 9 -23 c4 -12
12 -27 18 -34z m172 16 c4 -17 0 -20 -26 -20 -24 0 -28 3 -19 12 7 7 12 21 12
31 0 16 3 17 14 8 8 -6 16 -21 19 -31z"/>
<path d="M1877 2780 c13 -14 93 -31 93 -20 0 4 -15 10 -32 13 -18 3 -42 9 -53
13 -16 5 -18 4 -8 -6z"/>
<path d="M1950 2704 c-15 -7 -31 -17 -35 -24 -4 -7 6 -5 24 4 22 12 66 17 158
19 114 3 124 2 88 -9 -22 -7 -76 -13 -120 -14 l-80 -2 55 -9 c30 -4 71 -6 90
-3 46 7 111 35 104 45 -7 12 -252 6 -284 -7z"/>
<path d="M2780 2908 c-46 -13 -66 -32 -74 -70 -3 -18 -14 -40 -23 -50 -15 -17
-14 -18 33 -12 27 3 55 7 62 10 6 2 12 -1 12 -6 0 -13 114 -12 165 1 22 6 60
15 85 22 34 8 40 12 22 15 -16 2 -22 8 -18 19 4 9 -1 17 -14 20 -11 3 -20 8
-20 12 0 4 -17 17 -39 29 -42 24 -127 29 -191 10z m125 -47 c9 -16 -15 -24
-31 -10 -11 9 -18 9 -26 1 -12 -12 -41 -4 -32 9 7 12 81 12 89 0z m-132 -38
c6 -28 4 -33 -13 -33 -28 0 -33 16 -14 45 19 30 19 30 27 -12z m210 -14 c-5
-4 -25 -12 -46 -17 -37 -10 -37 -10 -22 11 8 12 15 30 15 40 0 16 3 16 30 -5
17 -12 27 -25 23 -29z"/>
<path d="M2755 2716 c45 -22 124 -29 175 -16 58 15 84 14 121 -6 17 -8 33 -13
36 -10 4 3 -15 15 -41 27 -41 18 -52 19 -83 8 -34 -11 -113 -9 -203 6 l-35 5
30 -14z"/>
<path d="M2970 2688 c-14 -5 -52 -13 -85 -17 l-60 -8 54 -2 c29 0 71 4 93 11
34 10 44 9 71 -7 26 -15 29 -16 19 -3 -20 25 -63 37 -92 26z"/>
<path d="M3046 2602 l-19 -27 24 22 c12 12 21 24 18 27 -2 2 -13 -8 -23 -22z"/>
<path d="M3500 2828 c-11 -18 -27 -58 -35 -88 -9 -30 -23 -68 -31 -83 -14 -26
-14 -31 0 -62 25 -51 20 -89 -14 -129 l-30 -34 26 -6 c46 -12 63 17 89 151 5
24 0 43 -16 72 -16 29 -19 44 -12 53 6 7 13 29 17 49 6 37 30 67 39 52 3 -4
10 -51 17 -103 9 -78 8 -105 -3 -147 -17 -62 -13 -68 9 -15 22 51 29 204 12
267 -16 62 -39 70 -68 23z"/>
<path d="M3497 2454 c-4 -4 -7 -17 -7 -28 1 -19 1 -20 11 -3 11 19 8 43 -4 31z"/>
<path d="M2108 2352 c-46 -43 -98 -88 -115 -101 -21 -14 -33 -31 -33 -45 0
-35 87 -282 96 -273 2 2 -2 23 -11 46 -8 23 -21 78 -30 123 l-15 82 53 56 c78
81 138 152 132 158 -3 3 0 11 6 19 29 34 -7 6 -83 -65z"/>
<path d="M2730 2401 c5 -11 49 -55 97 -98 49 -43 107 -97 130 -119 61 -59 53
-28 -11 48 -53 62 -118 121 -183 166 -38 27 -47 28 -33 3z"/>
<path d="M3177 2273 c-3 -48 -13 -113 -21 -143 -11 -44 -12 -51 -1 -37 7 10
19 41 25 68 7 30 16 46 23 42 7 -4 8 15 3 62 -11 105 -22 108 -29 8z"/>
<path d="M1899 2298 c-16 -29 -13 -122 5 -178 14 -45 14 -44 15 78 1 67 -1
122 -4 122 -2 0 -10 -10 -16 -22z"/>
<path d="M1961 1925 c0 -5 6 -21 14 -35 8 -14 14 -20 14 -15 0 6 -6 21 -14 35
-8 14 -14 21 -14 15z"/>
<path d="M2060 1915 c0 -5 5 -17 10 -25 5 -8 10 -10 10 -5 0 6 -5 17 -10 25
-5 8 -10 11 -10 5z"/>
<path d="M2675 1862 c-25 -14 -58 -17 -193 -17 -114 0 -158 -3 -146 -10 9 -5
30 -21 46 -34 22 -18 26 -26 17 -37 -10 -12 1 -14 68 -14 122 0 212 -33 271
-99 17 -19 21 -20 14 -6 -14 29 -41 51 -100 83 l-52 28 56 62 c31 34 54 62 52
62 -1 -1 -16 -8 -33 -18z"/>
<path d="M2080 1865 c0 -5 5 -17 10 -25 5 -8 10 -10 10 -5 0 6 -5 17 -10 25
-5 8 -10 11 -10 5z"/>
<path d="M2060 1783 c0 -6 9 -21 21 -34 l20 -24 -17 30 c-24 39 -24 40 -24 28z"/>
<path d="M1721 2490 c14 -31 19 -36 19 -24 0 6 -7 19 -16 30 -14 18 -14 18 -3
-6z"/>
<path d="M2177 2174 c-3 -3 -3 -13 0 -22 4 -10 2 -13 -5 -8 -8 5 -10 2 -6 -8
7 -18 24 -22 24 -5 0 5 6 7 13 3 9 -6 9 -5 0 8 -7 8 -10 17 -7 20 3 3 1 9 -4
12 -5 3 -12 3 -15 0z"/>
<path d="M2738 2154 c6 -11 18 -26 26 -33 12 -10 14 -9 12 5 -2 10 -13 25 -26
33 -22 15 -23 15 -12 -5z"/>
<path d="M2300 2128 c-12 -22 -12 -22 6 -6 10 10 15 20 12 24 -4 3 -12 -5 -18
-18z"/>
<path d="M2312 1301 c18 -32 34 -58 36 -56 5 5 -47 103 -58 110 -6 3 4 -21 22
-54z"/>
<path d="M3282 285 c-17 -38 -17 -39 39 -86 l52 -43 23 29 c13 17 24 35 24 40
-1 12 -99 85 -115 85 -7 0 -17 -11 -23 -25z"/>
</g>
</svg>