<?xml version="1.0" standalone="no"?>
<!DOCTYPE svg PUBLIC "-//W3C//DTD SVG 20010904//EN"
 "http://www.w3.org/TR/2001/REC-SVG-20010904/DTD/svg10.dtd">
<svg version="1.0" xmlns="http://www.w3.org/2000/svg"
 width="512.000000pt" height="512.000000pt" viewBox="0 0 512.000000 512.000000"
 preserveAspectRatio="xMidYMid meet">
<metadata>
Created by potrace 1.16, written by Peter Selinger 2001-2019
</metadata>
<g transform="translate(0.000000,512.000000) scale(0.100000,-0.100000)"
fill="#000000" stroke="none">
<path d="M2438 5013 c12 -2 30 -2 40 0 9 3 -1 5 -23 4 -22 0 -30 -2 -17 -4z"/>
<path d="M2603 5013 c9 -2 25 -2 35 0 9 3 1 5 -18 5 -19 0 -27 -2 -17 -5z"/>
<path d="M2368 5003 c7 -3 16 -2 19 1 4 3 -2 6 -13 5 -11 0 -14 -3 -6 -6z"/>
<path d="M2698 5003 c7 -3 16 -2 19 1 4 3 -2 6 -13 5 -11 0 -14 -3 -6 -6z"/>
<path d="M2308 4993 c7 -3 16 -2 19 1 4 3 -2 6 -13 5 -11 0 -14 -3 -6 -6z"/>
<path d="M1800 4845 c-14 -8 -20 -14 -15 -14 6 0 21 6 35 14 14 8 21 14 15 14
-5 0 -21 -6 -35 -14z"/>
<path d="M1730 4815 c-14 -8 -20 -14 -15 -14 6 0 21 6 35 14 14 8 21 14 15 14
-5 0 -21 -6 -35 -14z"/>
<path d="M2378 4805 c-436 -88 -848 -305 -1154 -610 -303 -301 -488 -645 -526
-975 -3 -21 -8 -25 -34 -25 -26 0 -30 -3 -26 -20 3 -11 10 -24 16 -28 10 -8
-11 -5 -61 9 -22 6 -23 4 -23 -64 l0 -71 50 -27 50 -27 1 -131 c1 -72 4 -119
6 -103 2 15 9 27 15 27 7 0 9 -29 6 -85 -2 -47 0 -85 4 -85 5 0 6 4 3 10 -3 6
1 7 9 4 9 -3 14 -10 11 -14 -3 -4 2 -10 10 -14 10 -4 15 1 15 14 0 14 6 19 22
17 22 -2 23 2 34 156 7 87 14 161 17 163 6 6 114 -53 122 -67 3 -5 8 -253 12
-553 l5 -544 -58 -12 c-93 -18 -88 -20 -95 30 l-6 45 -1 -46 -2 -46 -147 -12
c-82 -6 -167 -14 -190 -16 l-41 -4 -9 67 c-4 37 -8 299 -8 582 0 552 5 627 57
817 11 43 22 96 24 118 3 31 -1 24 -16 -30 -30 -106 -57 -247 -72 -375 -14
-125 -16 -708 -4 -1012 7 -144 6 -168 -7 -168 -23 0 -26 44 -33 490 -6 380 -2
513 21 780 4 49 3 51 -4 15 -25 -112 -33 -342 -29 -804 l4 -480 -26 -5 c-14
-3 -91 -11 -173 -17 -81 -7 -147 -16 -147 -21 0 -11 29 -10 255 11 295 29 540
45 559 38 15 -6 16 -34 14 -283 l-3 -276 -62 -24 c-35 -12 -152 -55 -260 -93
-109 -39 -265 -97 -348 -129 l-150 -58 -3 -36 -3 -36 73 23 c72 23 103 26 423
41 109 5 138 10 178 30 26 14 47 29 47 35 0 15 -64 39 -140 53 -59 11 -62 13
-35 20 17 4 98 34 180 66 172 66 225 78 255 57 19 -13 13 -17 -91 -78 -60 -35
-118 -70 -127 -77 -32 -24 73 31 151 79 84 53 97 57 97 35 0 -18 -44 -51 -130
-99 -120 -66 -106 -69 20 -5 69 36 170 85 225 110 l100 46 308 6 c169 3 307 2
307 -3 0 -7 -134 -161 -213 -244 -30 -33 -34 -42 -25 -57 10 -16 -1 -33 -78
-121 -49 -57 -219 -235 -378 -396 -159 -161 -284 -293 -279 -293 27 0 763 772
763 801 0 5 5 9 10 9 18 0 11 -36 -11 -56 -12 -10 -51 -55 -87 -99 -88 -107
-186 -217 -306 -345 -54 -58 -125 -136 -158 -175 -81 -95 95 87 287 296 149
162 202 211 295 272 104 69 144 77 455 92 154 8 296 15 315 17 19 1 -150 5
-377 8 -226 3 -415 8 -418 12 -4 4 3 21 16 37 l24 31 235 -1 c129 -1 307 0
395 2 97 2 7 6 -228 9 l-388 5 61 62 c106 107 158 123 475 141 125 7 120 7
-107 10 -131 1 -238 6 -238 11 0 24 44 61 73 62 24 1 26 3 10 6 -28 5 -28 11
0 44 12 14 46 55 76 90 29 35 86 98 126 140 l73 76 -76 0 -77 0 62 -6 63 -6
-58 -61 c-31 -33 -75 -82 -97 -108 l-40 -47 -140 3 -140 3 29 20 c17 11 53 23
80 26 l51 6 -42 2 c-45 1 -51 8 -31 31 7 8 -9 -5 -37 -30 -27 -25 -53 -49 -57
-55 -5 -6 41 -12 132 -15 l138 -5 -75 -93 -75 -93 -232 2 -233 3 -11 26 c-19
43 -22 170 -24 935 l-3 740 24 33 25 32 28 -27 c23 -22 25 -29 15 -41 -10 -12
-5 -12 21 2 25 13 32 23 31 44 0 22 -2 24 -8 8 -7 -17 -10 -16 -44 14 -20 17
-37 41 -37 52 0 18 4 17 39 -11 21 -17 41 -31 44 -31 2 0 7 44 10 98 3 53 12
124 21 157 18 66 102 245 115 245 14 0 20 -62 26 -255 11 -379 12 -545 4 -545
-5 0 -9 -126 -9 -280 0 -219 -3 -279 -12 -276 -7 3 -25 7 -40 10 l-28 6 0 108
c-1 145 -15 244 -44 308 -27 58 -42 66 -72 33 -18 -20 -19 -44 -19 -564 0
-299 -3 -538 -7 -532 -5 7 -9 2 -10 -13 -1 -14 -5 117 -8 290 l-5 315 -3 -356
c-2 -347 -1 -356 18 -374 12 -10 18 -25 16 -32 -3 -7 0 -12 6 -10 6 1 15 -11
20 -26 8 -22 6 -32 -6 -46 -16 -17 -14 -19 30 -25 51 -7 108 5 166 35 21 11
38 21 38 22 0 1 -46 1 -102 -1 l-103 -4 -14 33 c-8 19 -16 37 -19 42 -2 4 74
8 170 9 l173 2 -153 3 c-96 2 -151 7 -147 13 3 6 40 10 82 10 96 0 91 9 -5 12
-40 1 -72 5 -72 9 0 10 52 24 135 37 35 6 83 23 113 41 45 26 63 31 118 31 36
0 63 4 60 9 -3 5 -15 7 -26 4 -11 -3 -41 -2 -67 2 -47 8 -47 8 -18 17 42 12
83 47 66 57 -19 12 -9 35 19 42 l25 7 -27 1 c-45 2 -36 31 10 32 20 1 50 4 66
8 28 6 29 7 13 23 -9 9 -17 19 -17 22 0 12 38 6 43 -6 4 -10 6 -10 6 0 1 18
21 15 21 -4 0 -8 4 -12 10 -9 5 3 7 18 4 33 -5 22 -2 28 13 28 10 0 28 4 41 8
18 6 22 4 22 -12 0 -10 -10 -24 -22 -30 -15 -7 -18 -11 -8 -11 43 -2 54 54 14
69 -34 13 -47 13 -38 -2 5 -9 4 -10 -4 -3 -11 10 -22 225 -11 225 3 0 16 -11
28 -24 21 -22 22 -30 15 -105 l-7 -81 30 6 c29 6 30 5 28 -30 -1 -35 16 -49
30 -26 3 5 36 11 73 12 l67 2 -62 3 c-59 4 -63 5 -63 28 0 14 -4 25 -10 25 -6
0 -10 33 -10 80 0 74 -2 81 -29 109 -15 16 -37 31 -47 33 -17 3 -19 14 -20
138 0 74 1 113 3 85 7 -117 15 -175 24 -175 15 0 10 152 -6 206 -8 27 -15 66
-15 86 0 30 -7 42 -37 67 -36 30 -70 44 -45 19 7 -7 12 -21 12 -32 0 -19 -1
-19 -16 -4 -13 13 -15 27 -9 68 l7 53 71 -71 70 -71 1 -193 1 -193 23 1 c12 0
22 -3 22 -8 0 -5 3 -7 8 -5 4 3 6 -39 4 -93 l-3 -99 43 -6 c36 -5 51 -2 88 19
42 24 43 26 18 26 -16 0 -28 4 -28 9 0 12 218 25 273 17 23 -3 57 -9 76 -12
31 -6 32 -5 22 15 -8 13 -11 76 -9 183 3 146 5 163 21 166 16 3 17 -11 17
-191 0 -147 -3 -196 -12 -200 -20 -6 64 -43 90 -39 21 3 22 6 16 86 -6 68 -4
85 10 98 23 24 2 32 -29 12 -26 -17 -26 -19 -19 -96 5 -63 4 -78 -7 -78 -11 0
-13 17 -9 85 5 81 7 86 34 104 l29 19 -2 141 c-2 124 0 141 14 141 14 0 16
-17 13 -145 -2 -118 0 -144 10 -140 8 3 18 5 24 5 8 0 9 54 5 178 l-6 178 105
113 c57 62 104 115 104 118 0 3 -7 3 -15 -1 -11 -4 -15 2 -15 28 0 18 -6 39
-14 45 -11 9 -15 48 -16 177 -1 139 -4 174 -21 219 -55 147 -226 302 -417 380
l-64 26 -56 -21 c-106 -40 -197 -95 -273 -165 -75 -69 -75 -69 8 12 69 69 101
91 186 133 56 27 114 50 130 50 76 0 252 -104 357 -210 122 -123 178 -245 187
-405 5 -74 2 -97 -11 -124 -10 -18 -13 -31 -8 -27 5 3 17 21 26 40 16 34 18
35 83 38 l67 3 9 44 c6 31 4 73 -7 138 -9 52 -14 99 -10 104 3 5 0 9 -6 9 -6
0 -9 3 -6 8 2 4 -2 18 -9 32 -13 23 -13 20 -7 -30 4 -30 7 -109 7 -175 l0
-120 -46 -3 -46 -3 -7 102 c-20 296 -211 563 -486 680 l-73 31 -46 -17 c-226
-85 -380 -222 -487 -435 -55 -109 -82 -233 -90 -409 -4 -83 -9 -151 -11 -151
-2 0 -27 22 -55 50 l-51 50 6 122 c6 144 24 222 77 336 21 45 36 82 34 82 -11
0 -85 -170 -100 -231 -9 -34 -19 -111 -23 -170 -6 -105 -6 -107 -26 -93 -43
32 -25 299 30 449 14 39 23 59 21 45 -5 -24 -4 -24 9 -6 8 11 15 25 15 32 0 7
6 19 13 26 7 7 36 45 64 84 144 196 367 349 586 405 42 10 56 9 131 -15 144
-45 295 -136 400 -240 29 -29 87 -101 129 -159 109 -152 147 -281 147 -494 0
-76 -3 -103 -12 -103 -8 0 -6 -5 4 -10 26 -15 12 -41 -52 -95 l-60 -50 2 -175
2 -175 6 171 5 172 45 40 c25 22 48 37 52 34 10 -10 28 -456 26 -637 -1 -125
-2 -138 -8 -80 -4 39 -8 125 -9 192 0 67 -5 124 -10 127 -19 12 -35 -30 -45
-122 -6 -53 -15 -103 -20 -111 -6 -10 -6 -12 2 -7 19 12 16 -204 -3 -228 -17
-22 -20 -96 -5 -96 6 0 10 -43 10 -110 0 -60 -3 -110 -6 -110 -3 0 -14 5 -25
10 -17 10 -19 22 -19 115 0 73 4 105 13 109 6 3 2 3 -10 0 l-23 -5 0 439 c0
371 2 444 15 468 8 16 15 53 15 82 l0 52 -52 0 -53 0 3 -531 c2 -504 2 -530
-15 -527 -17 3 -18 28 -23 343 -5 331 -9 301 -13 -110 -1 -110 -4 -207 -7
-215 -3 -8 4 -18 18 -25 12 -5 22 -17 22 -26 0 -13 -6 -16 -22 -12 -13 3 -19
1 -13 -4 6 -4 19 -18 30 -31 l19 -23 -49 18 c-41 15 -66 18 -140 13 l-90 -7
105 -2 c69 -1 114 -7 130 -16 14 -8 46 -14 73 -15 47 0 47 0 47 -34 0 -32 -3
-35 -32 -39 l-33 -4 36 -1 c20 -1 42 -9 49 -17 6 -8 20 -17 31 -20 11 -4 60
-31 110 -60 51 -30 97 -56 103 -58 8 -3 7 -9 -3 -20 -7 -9 -11 -30 -9 -46 l4
-29 -53 46 c-56 48 -68 64 -30 40 31 -20 59 -30 52 -18 -10 16 -144 100 -160
100 -8 0 -15 6 -15 13 0 14 -49 39 -62 31 -14 -9 -2 -19 71 -63 39 -23 73 -46
76 -51 4 -6 -43 -10 -129 -10 l-135 0 -48 57 c-26 32 -93 101 -148 153 l-100
95 85 -88 c46 -48 80 -87 75 -87 -6 -1 0 -6 12 -13 21 -12 85 -83 204 -226 54
-66 59 -76 43 -82 -11 -4 -111 -9 -224 -10 l-205 -2 160 -8 c178 -9 296 -28
360 -59 23 -11 69 -49 101 -83 l59 -62 -430 -5 c-346 -4 -392 -6 -235 -10 107
-3 300 -3 428 -1 l233 4 35 -34 c19 -18 34 -37 34 -41 0 -4 -206 -9 -457 -9
-486 -2 -495 -12 -23 -24 146 -3 290 -11 320 -17 74 -14 129 -43 237 -126 79
-62 117 -99 248 -247 54 -60 -103 141 -197 254 -89 106 -111 141 -90 141 4 0
59 -62 122 -137 226 -270 583 -663 602 -663 5 0 -70 84 -168 187 -162 172
-339 373 -534 608 -41 49 -126 143 -189 208 -62 65 -112 120 -110 122 9 8 387
-15 414 -25 17 -7 83 -18 147 -26 107 -12 126 -17 205 -58 49 -25 120 -55 158
-67 39 -12 93 -32 120 -46 55 -26 50 -21 -49 49 -92 67 -88 85 27 117 l66 18
121 -62 121 -61 -55 -17 c-30 -10 -64 -26 -77 -35 l-22 -18 64 -28 c72 -31
205 -48 363 -44 80 1 102 -2 180 -30 49 -18 91 -32 93 -32 2 0 3 17 1 38 l-3
37 -180 68 c-99 37 -282 106 -407 154 l-228 86 0 278 0 279 -106 0 c-109 0
-242 16 -258 30 -23 22 529 -19 944 -70 128 -16 236 -27 239 -25 11 12 -18 18
-185 38 l-179 22 7 80 c12 143 20 767 11 880 -7 85 -8 35 -8 -225 0 -314 -14
-686 -23 -630 -4 24 -5 24 -13 5 -7 -14 -8 -8 -4 20 14 111 26 540 22 794 -3
240 -8 304 -26 401 -12 63 -25 117 -28 120 -3 3 -3 -11 1 -30 43 -217 55 -525
37 -925 -10 -219 -29 -475 -36 -483 -2 -2 -160 13 -242 24 l-43 5 -2 633 -3
632 48 40 c27 21 61 49 75 60 24 19 25 24 14 48 -11 24 -16 26 -82 26 -68 0
-70 1 -70 25 0 46 -31 178 -66 285 -59 178 -198 430 -267 483 -18 14 -93 84
-167 157 -261 257 -435 385 -685 506 -205 99 -364 150 -589 190 -100 17 -96
18 -238 -11z m425 -400 c204 -54 317 -104 492 -220 178 -118 304 -240 419
-408 42 -61 49 -67 40 -39 -5 14 -3 14 10 -2 9 -11 16 -15 16 -8 0 8 7 9 26 2
32 -13 37 -12 29 0 -13 21 7 29 26 11 17 -15 31 -18 70 -15 30 3 49 1 49 -6 0
-5 7 -10 15 -10 8 0 14 -5 12 -12 -1 -6 16 -15 40 -19 69 -13 91 -43 146 -209
41 -122 70 -287 65 -364 l-3 -53 35 22 c48 30 102 47 113 36 11 -11 -20 -84
-33 -76 -14 9 -13 38 3 54 6 7 -9 0 -35 -14 -30 -17 -48 -34 -48 -45 0 -25
-65 -37 -89 -16 -21 19 -157 42 -193 33 -14 -4 -48 -25 -75 -47 -61 -48 -62
-46 -65 78 -2 76 -2 79 -5 25 -2 -35 -8 -63 -12 -63 -33 0 -69 14 -65 25 10
26 -19 184 -52 285 -44 131 -129 283 -203 361 -9 10 -41 45 -71 79 -96 109
-247 220 -420 308 -58 29 -94 50 -80 47 47 -13 195 -79 254 -113 64 -38 76
-34 76 22 0 22 4 27 18 22 40 -14 -27 27 -119 74 -192 97 -365 151 -549 172
-90 10 -123 9 -225 -6 -367 -52 -626 -165 -866 -378 -58 -51 -175 -183 -204
-228 -6 -9 4 0 20 20 70 82 154 169 219 228 l71 62 6 -27 c4 -16 10 -41 13
-56 l7 -28 47 49 c58 60 232 150 356 187 117 33 132 31 28 -5 -139 -48 -238
-107 -434 -258 -44 -34 -70 -70 -61 -85 2 -4 9 -5 14 -2 5 4 9 1 9 -5 0 -6 5
-8 10 -5 16 10 12 -21 -5 -35 -8 -7 -12 -16 -9 -21 3 -5 -1 -9 -8 -10 -9 0
-10 -2 -1 -5 7 -3 -10 -35 -46 -84 -75 -101 -116 -173 -162 -283 -34 -83 -36
-86 -47 -62 -18 39 -27 216 -13 246 10 21 8 20 -14 -6 -66 -77 -140 -276 -152
-411 -5 -69 -5 -72 21 -90 63 -45 68 -50 64 -73 -3 -22 -6 -21 -67 28 -35 28
-68 51 -74 51 -7 0 -7 -3 -1 -8 5 -5 35 -30 67 -56 55 -47 72 -76 43 -76 -8 0
-17 3 -20 8 -2 4 -25 22 -50 40 -76 55 -54 12 24 -46 l70 -52 0 -548 0 -548
-92 -12 c-101 -13 -354 -15 -303 -2 17 4 91 9 165 10 74 2 120 5 102 7 l-34 4
3 637 4 637 -25 3 c-36 5 -50 22 -18 22 23 0 26 5 32 44 6 38 3 51 -28 102
-20 32 -32 61 -27 64 4 3 11 19 15 35 16 66 88 235 137 320 154 272 402 507
689 654 138 71 261 113 407 140 59 11 119 22 133 25 14 3 81 3 150 1 94 -3
149 -10 223 -30z m-141 -259 c148 -28 285 -89 453 -201 44 -29 91 -66 105 -81
21 -23 17 -22 -20 8 -115 90 -309 198 -415 231 -218 68 -355 56 -670 -57 -13
-5 -11 -2 5 8 33 20 189 72 270 90 86 18 181 19 272 2z m265 8 c-3 -3 -12 -4
-19 -1 -8 3 -5 6 6 6 11 1 17 -2 13 -5z m-257 -91 c182 -37 381 -144 558 -303
61 -54 95 -79 79 -59 -15 20 -27 39 -27 43 0 20 33 -6 95 -74 77 -86 143 -182
186 -274 35 -75 79 -242 79 -301 0 -38 -5 -47 -39 -74 l-38 -30 -7 82 c-14
166 -61 299 -160 446 -159 239 -412 426 -681 507 -116 35 -243 37 -357 6 -273
-74 -519 -228 -647 -408 -27 -37 -30 -44 -13 -35 11 6 24 16 27 21 11 18 43
31 50 20 3 -5 -18 -35 -47 -67 -74 -80 -119 -146 -162 -230 -46 -92 -86 -230
-86 -297 0 -28 -3 -61 -6 -73 l-6 -22 -34 26 c-28 21 -34 32 -34 62 0 97 38
237 98 361 16 33 25 63 20 66 -5 3 -4 12 3 20 6 7 15 12 19 9 4 -3 20 14 35
38 15 23 39 55 54 72 14 16 19 24 10 17 -13 -10 -19 -10 -27 1 -8 10 2 27 43
72 45 50 55 57 61 42 4 -11 -1 -26 -12 -40 -11 -12 19 13 65 56 152 142 334
244 536 302 161 46 217 49 365 18z m645 -283 c33 -33 57 -60 54 -60 -2 0 -31
27 -64 60 -33 33 -57 60 -54 60 2 0 31 -27 64 -60z m-4 33 c13 -16 12 -17 -3
-4 -10 7 -18 15 -18 17 0 8 8 3 21 -13z m137 -148 c-3 -3 -9 2 -12 12 -6 14
-5 15 5 6 7 -7 10 -15 7 -18z m-41 -237 c-3 -7 -5 -2 -5 12 0 14 2 19 5 13 2
-7 2 -19 0 -25z m68 -77 c45 -107 66 -207 71 -336 l5 -120 -65 -52 c-36 -29
-68 -53 -71 -53 -7 0 -6 329 2 508 7 169 8 170 58 53z m-845 28 c47 -22 112
-60 146 -84 125 -89 230 -236 241 -337 4 -39 2 -44 -25 -60 -17 -10 -41 -18
-54 -18 -13 0 -18 -3 -12 -8 7 -5 11 -80 12 -227 l2 -220 -30 -35 -29 -35 -1
208 0 207 -92 -1 c-51 -1 -124 -5 -163 -9 -58 -6 -45 -7 81 -8 l151 -2 7 -211
c4 -116 4 -214 1 -217 -3 -3 -5 30 -6 74 -1 55 -3 71 -9 54 -5 -15 -8 31 -9
118 l-1 142 -122 -2 -123 -2 118 -3 117 -4 2 -174 c1 -96 2 -183 2 -192 1 -11
-7 -19 -20 -21 -20 -3 -21 1 -18 45 3 37 2 42 -5 23 l-9 -25 -1 26 c-1 14 -12
46 -24 70 -29 53 -25 79 6 52 19 -16 19 -15 -2 12 -37 48 -85 84 -167 121
l-77 36 -46 -17 c-62 -24 -108 -52 -159 -99 -48 -44 -87 -110 -78 -132 3 -8 1
-14 -4 -14 -6 0 -10 -25 -10 -55 0 -56 -4 -62 -30 -45 -12 8 -16 44 -18 200
l-4 190 129 2 128 2 -105 3 c-124 3 -150 8 -150 28 0 13 27 15 175 15 96 0
175 3 175 8 0 4 -82 9 -183 11 -100 2 -184 7 -185 12 -2 5 -7 7 -11 4 -5 -2
-4 -28 1 -57 11 -66 11 -262 1 -306 l-8 -33 -32 33 -32 33 -3 172 c-2 121 0
174 8 177 13 5 25 66 13 66 -12 0 -38 61 -42 100 -3 30 -4 28 -5 -12 -1 -26 3
-50 8 -53 15 -9 12 -25 -4 -25 -8 0 -17 -7 -20 -16 -5 -14 -4 -15 9 -4 21 17
45 5 45 -22 0 -17 -3 -19 -9 -10 -15 24 -21 -27 -21 -190 0 -152 -6 -182 -29
-140 -5 10 -11 106 -12 212 -2 162 1 205 16 257 9 35 20 61 24 59 4 -3 7 3 7
12 1 9 5 26 9 36 7 15 5 17 -6 11 -8 -5 -11 -5 -6 1 5 5 14 9 20 9 5 0 12 6
15 14 3 9 0 11 -9 6 -8 -5 -11 -4 -6 1 5 5 12 9 16 9 4 0 36 31 71 68 35 38
93 89 128 114 67 48 203 113 238 113 11 0 58 -18 104 -41z m690 20 c0 -5 5 -7
10 -4 6 3 10 1 10 -6 0 -7 10 -9 25 -7 13 3 22 2 20 -3 -3 -4 -1 -10 5 -14 6
-4 10 -112 10 -299 l0 -294 -25 -16 c-50 -33 -55 -26 -55 92 -1 127 -19 236
-56 343 -27 74 -27 80 -15 130 8 29 23 61 35 71 24 20 36 23 36 7z m-2610
-300 c89 -34 108 -44 99 -55 -7 -9 -17 -11 -28 -5 -9 4 -50 16 -91 26 -96 22
-110 30 -103 55 3 11 7 20 9 20 2 0 53 -19 114 -41z m677 -61 c-2 -13 -4 -3
-4 22 0 25 2 35 4 23 2 -13 2 -33 0 -45z m2267 -34 c4 -15 6 -27 4 -28 -2 -1
-22 -17 -44 -34 -50 -38 -54 -39 -54 -10 0 20 64 98 81 98 4 0 10 -12 13 -26z
m324 -46 c-9 -18 -58 -48 -78 -48 -22 0 -8 27 32 62 36 31 44 34 49 20 4 -9 2
-25 -3 -34z m-3042 15 c-10 -10 -19 5 -10 18 6 11 8 11 12 0 2 -7 1 -15 -2
-18z m3351 -15 c-3 -8 -6 -5 -6 6 -1 11 2 17 5 13 3 -3 4 -12 1 -19z m-613
-30 c3 -13 6 -400 6 -860 l0 -837 33 -5 c76 -13 79 -14 31 -13 -62 1 -74 -6
-74 -43 0 -16 -4 -31 -10 -35 -12 -8 -50 31 -50 51 0 14 2 15 18 3 16 -13 16
-13 0 7 -20 23 -24 39 -6 28 7 -5 8 -3 3 6 -4 7 -2 16 5 20 10 6 12 65 11 256
-1 137 -4 259 -8 271 -3 13 -6 197 -8 410 -1 214 -3 442 -5 508 l-4 120 -6
-115 c-3 -63 -7 -109 -8 -103 -1 7 -13 20 -27 29 -24 16 -27 16 -46 -2 -28
-25 -56 -82 -69 -138 -5 -25 -10 -174 -10 -331 l-1 -285 -34 0 -35 0 1 393 0
392 110 84 c73 57 105 87 97 92 -14 9 -13 10 -127 -91 l-83 -74 -19 25 c-18
24 -18 24 3 39 12 8 58 45 102 83 48 39 88 66 98 63 9 -2 32 13 54 35 44 45
50 47 58 17z m317 -43 c6 -25 15 -45 19 -45 4 0 11 -7 14 -16 3 -8 2 -12 -4
-9 -7 4 -10 -179 -10 -529 l0 -536 -30 0 -30 0 0 528 c0 409 3 531 13 541 6 8
7 11 1 8 -8 -5 -44 50 -44 68 0 4 49 33 57 35 2 0 8 -20 14 -45z m-2026 -2
c-4 -10 -11 -94 -15 -188 l-7 -170 -1 165 c-2 167 2 210 20 210 6 0 7 -8 3
-17z m1052 -173 c0 -124 -4 -195 -11 -205 -8 -12 -10 20 -8 125 2 95 0 140 -7
140 -7 0 -11 -51 -12 -152 -2 -136 -3 -145 -10 -78 -4 41 -9 131 -11 201 l-3
125 30 16 c17 8 31 16 31 17 1 0 1 -84 1 -189z m1257 119 c23 -18 26 -28 28
-87 1 -41 3 -53 5 -29 2 20 8 37 14 37 5 0 9 6 9 14 0 8 14 24 30 36 l30 21 0
-321 c0 -284 -2 -320 -15 -307 -8 9 -20 17 -25 19 -6 2 -14 22 -17 46 -3 23
-9 42 -14 42 -5 0 -10 48 -12 108 -1 59 -4 -68 -5 -282 l-2 -389 -37 7 c-21 3
-44 6 -50 6 -10 0 -13 117 -13 550 l0 550 24 0 c13 0 35 -9 50 -21z m-144
-276 c0 -152 -2 -274 -4 -272 -3 2 -6 71 -7 152 -1 81 -6 147 -11 147 -4 0 -8
7 -8 16 0 8 5 12 10 9 6 -4 10 35 10 109 0 64 2 116 5 116 3 0 5 -124 5 -277z
m-198 -180 c-2 -244 -8 -429 -13 -431 -5 -2 -6 -8 -3 -14 3 -5 -3 -12 -15 -15
-18 -4 -21 -14 -24 -82 -1 -42 -4 141 -5 405 -1 265 1 495 4 512 4 19 11 29
19 26 7 -3 15 2 18 10 4 9 10 16 14 16 4 0 6 -192 5 -427z m-985 395 c-3 -8
-6 -5 -6 6 -1 11 2 17 5 13 3 -3 4 -12 1 -19z m1103 18 c0 -2 -7 -9 -15 -16
-12 -10 -15 -10 -15 4 0 9 7 16 15 16 8 0 15 -2 15 -4z m6 -62 c2 -24 1 -25
-16 -7 -18 19 -17 33 3 33 7 0 13 -12 13 -26z m22 -63 c0 -26 7 -62 16 -80 13
-25 14 -31 3 -31 -10 0 -16 -21 -21 -77 -3 -42 -11 -80 -17 -84 -8 -5 -8 -8 0
-13 14 -9 14 -53 0 -62 -6 -3 -8 -16 -5 -29 4 -15 1 -25 -8 -28 -10 -4 -12 0
-8 15 3 15 2 19 -7 14 -9 -6 -11 40 -11 193 1 167 4 201 16 201 8 0 14 -11 15
-27 1 -20 3 -22 6 -8 2 11 6 30 9 43 7 36 13 25 12 -27z m-2291 -16 c-3 -20
-1 -37 5 -41 8 -5 9 -58 4 -174 l-6 -167 25 -11 25 -12 0 78 c0 54 -5 84 -16
100 -11 16 -15 44 -14 105 1 45 -1 90 -5 100 -14 34 0 25 46 -28 38 -44 45
-58 41 -84 -4 -31 -5 -32 -25 -14 -20 17 -20 17 1 -13 20 -29 22 -46 27 -284
5 -201 3 -255 -7 -262 -10 -6 -10 -8 0 -8 8 0 12 -18 12 -56 l0 -55 -32 3
c-26 2 -34 8 -36 27 -2 15 3 28 12 33 18 10 22 43 6 53 -6 4 -10 55 -10 120 0
114 -3 125 -41 125 -5 0 -9 -73 -9 -169 l0 -169 27 -20 c16 -11 24 -24 20 -29
-5 -4 -22 8 -38 27 -27 32 -29 40 -30 125 -3 167 -4 190 -13 204 -6 10 -6 12
2 7 8 -5 12 0 12 13 0 12 -4 21 -10 21 -6 0 -9 42 -7 104 1 57 4 103 7 101 3
-2 6 37 6 86 2 98 12 199 21 199 3 0 3 -16 0 -35z m740 9 c-3 -3 -12 -4 -19
-1 -8 3 -5 6 6 6 11 1 17 -2 13 -5z m-1810 -26 c-3 -8 -6 -5 -6 6 -1 11 2 17
5 13 3 -3 4 -12 1 -19z m1713 -13 c-73 -40 -142 -103 -170 -155 -11 -19 -19
-30 -20 -24 0 20 61 102 97 130 42 32 133 84 148 84 6 0 -19 -16 -55 -35z
m190 0 c59 -30 122 -83 114 -97 -3 -5 -20 7 -37 26 -18 20 -57 49 -87 66 -67
36 -59 40 10 5z m960 -15 c24 -24 25 -38 6 -65 -30 -43 -46 -129 -52 -283 -3
-87 -7 -158 -8 -158 0 -1 -16 -5 -33 -9 l-33 -7 0 171 c0 211 16 294 68 354
19 22 27 22 52 -3z m-979 -31 c64 -32 134 -107 153 -165 22 -69 30 -174 12
-174 -9 0 -15 20 -19 65 -11 116 -55 182 -170 255 l-58 37 -52 -26 c-29 -14
-77 -51 -107 -81 -62 -62 -80 -104 -80 -194 0 -43 -3 -56 -15 -56 -18 0 -20
21 -3 38 9 9 9 15 0 24 -20 20 -14 91 14 146 29 59 65 92 138 129 91 46 101
47 187 2z m-934 -1 c-3 -8 -6 -5 -6 6 -1 11 2 17 5 13 3 -3 4 -12 1 -19z m863
-35 c0 4 21 -6 46 -23 25 -18 43 -34 41 -37 -3 -3 -28 6 -56 19 -37 16 -51 28
-51 43 0 17 2 17 10 5 5 -8 10 -11 10 -7z m-10 -62 c0 -8 -61 -22 -69 -15 -2
1 12 7 30 13 19 5 35 10 37 10 1 1 2 -3 2 -8z m87 -31 c28 -16 55 -35 59 -42
4 -6 -6 -2 -23 10 -18 12 -51 31 -75 42 -24 11 -36 20 -28 20 8 0 38 -14 67
-30z m-97 -3 c0 -8 -17 -19 -39 -25 -55 -17 -128 -85 -142 -133 -16 -52 -24
-43 -9 10 14 53 60 106 119 136 53 28 71 31 71 12z m70 -7 c56 -29 111 -79
126 -117 17 -39 19 -126 3 -121 -6 2 -12 25 -14 51 -4 70 -40 119 -114 154
-33 15 -60 34 -60 41 -1 17 14 15 59 -8z m-160 5 c0 -2 -10 -9 -22 -15 -22
-11 -22 -10 -4 4 21 17 26 19 26 11z m170 -57 c62 -38 90 -83 94 -151 1 -25
-1 -44 -6 -41 -4 3 -8 16 -8 30 0 64 -53 139 -120 169 l-39 18 -51 -33 c-62
-40 -100 -100 -100 -159 0 -39 -1 -41 -20 -31 -22 12 -27 36 -9 42 6 2 11 17
11 33 0 17 11 45 25 63 27 36 117 92 148 92 12 0 45 -15 75 -32z m-763 -85
c-2 -21 -4 -6 -4 32 0 39 2 55 4 38 2 -18 2 -50 0 -70z m223 -87 c0 -190 5
-236 27 -236 8 0 27 -7 43 -15 30 -15 30 -16 30 -105 0 -113 -18 -119 -22 -8
l-3 82 -47 28 c-34 19 -48 23 -48 14 0 -9 -7 -12 -20 -9 -19 5 -20 0 -20 -111
0 -114 0 -117 25 -128 39 -18 31 -38 -15 -38 l-40 0 0 168 c-1 205 -14 363
-35 404 -17 34 -20 98 -6 98 26 0 63 -22 71 -42 8 -17 9 -12 4 22 l-6 45 22
-20 c12 -11 21 -15 20 -10 -5 23 1 46 10 40 6 -4 10 -75 10 -179z m535 124
c28 -11 65 -65 65 -95 -1 -11 -7 -28 -14 -37 -12 -17 -14 -17 -30 1 -25 27
-71 44 -101 37 -28 -7 -95 -62 -95 -79 0 -6 16 6 36 25 19 20 46 39 60 42 26
7 84 -17 84 -35 0 -6 4 -8 9 -4 12 7 41 -34 41 -57 0 -13 -8 -18 -25 -18 -20
0 -25 5 -25 26 0 29 -41 74 -67 74 -23 0 -63 -39 -63 -61 0 -58 -44 -59 -55
-1 -6 33 -3 40 29 69 58 53 108 56 164 8 36 -30 49 -18 28 24 -17 32 -72 71
-102 72 -13 0 -14 2 -5 6 11 5 11 7 0 15 -16 11 24 4 66 -12z m-918 -217 c-1
-43 -3 -8 -3 77 0 85 2 120 3 78 2 -43 2 -113 0 -155z m640 205 c-3 -8 -6 -5
-6 6 -1 11 2 17 5 13 3 -3 4 -12 1 -19z m275 -43 c50 -50 70 -89 23 -45 -13
12 -22 26 -20 30 3 4 -14 10 -37 13 -46 6 -86 -9 -128 -49 l-25 -23 -2 37 c-1
27 1 31 5 14 l7 -24 20 22 c29 32 84 57 111 52 13 -2 34 -15 46 -27z m-379 8
c-7 -2 -19 -2 -25 0 -7 3 -2 5 12 5 14 0 19 -2 13 -5z m44 1 c-3 -3 -12 -4
-19 -1 -8 3 -5 6 6 6 11 1 17 -2 13 -5z m-47 -175 c0 -100 -3 -130 -12 -127
-15 5 -23 156 -13 226 12 82 25 30 25 -99z m80 -11 c0 -68 3 -134 7 -148 5
-21 4 -23 -8 -13 -12 10 -13 -2 -9 -78 3 -57 1 -88 -5 -86 -6 2 -10 45 -10
100 0 94 -1 97 -22 97 -13 0 -23 5 -23 10 0 6 10 10 23 10 22 0 22 1 19 115
-3 99 -1 115 12 115 14 0 16 -18 16 -122z m498 -5 c-2 -90 -7 -128 -15 -131
-10 -3 -13 27 -13 127 0 111 2 131 15 131 13 0 15 -18 13 -127z m-950 -72 l-2
-126 -5 125 c-3 69 -10 132 -15 140 -9 13 -8 13 7 1 15 -11 17 -32 15 -140z
m530 -24 c2 -157 1 -167 -16 -167 -17 0 -19 12 -21 171 -2 160 -1 171 16 167
16 -3 18 -18 21 -171z m31 1 c0 -116 -3 -154 -10 -133 -8 27 -1 295 7 295 2 0
4 -73 3 -162z m281 -9 c0 -99 -4 -159 -10 -159 -6 0 -10 62 -10 166 0 107 3
163 10 159 6 -4 10 -70 10 -166z m-96 129 c3 -13 6 -40 6 -61 l0 -38 -31 21
c-28 20 -31 21 -48 6 -10 -9 -21 -16 -24 -16 -9 0 -9 38 -1 79 6 29 9 31 49
31 36 0 44 -4 49 -22z m-158 -33 c-3 -9 3 -19 14 -25 18 -10 20 -22 20 -105 0
-95 0 -95 -25 -95 l-25 0 0 120 c0 81 4 120 11 120 6 0 9 -7 5 -15z m224 -110
c0 -108 -1 -115 -20 -115 -16 0 -20 7 -20 33 0 17 -3 69 -7 115 l-6 82 27 0
26 0 0 -115z m893 13 c6 -102 -1 -121 -42 -116 -26 3 -26 4 -29 100 -3 104 -5
99 54 107 7 1 13 -32 17 -91z m-1905 57 c13 -4 22 -14 22 -26 0 -17 -5 -19
-37 -15 l-38 5 38 -11 c37 -11 37 -12 37 -65 l0 -53 -40 0 -40 0 0 91 c0 98
-5 92 58 74z m402 -211 c0 -86 -3 -104 -15 -104 -12 0 -15 19 -15 110 0 93 2
109 15 104 12 -5 15 -27 15 -110z m-489 77 l24 -19 -42 -40 c-23 -23 -39 -34
-36 -26 3 7 0 14 -7 14 -7 0 -9 8 -4 23 23 75 28 78 65 48z m156 -95 l42 -43
0 -171 1 -170 -35 -21 c-20 -12 -38 -21 -41 -21 -2 0 -4 60 -4 134 l0 133 33
11 32 11 -32 -5 c-33 -6 -33 -5 -33 34 0 39 -13 61 -84 151 -9 11 -3 12 34 7
35 -6 54 -17 87 -50z m1664 34 c5 0 2 -11 -7 -25 -14 -21 -15 -32 -6 -63 6
-20 11 -103 12 -184 0 -81 3 -155 7 -164 5 -13 2 -15 -18 -9 -13 4 -25 8 -26
9 -4 3 -6 257 -1 261 7 8 -3 54 -13 61 -5 3 -9 -8 -9 -24 0 -26 -3 -30 -22
-26 l-23 5 23 -10 c21 -10 22 -16 22 -131 l0 -120 -25 16 c-24 16 -25 21 -25
114 0 53 -2 124 -5 156 l-5 59 43 35 c25 19 42 39 39 44 -3 5 3 6 12 3 10 -4
22 -7 27 -7z m119 -40 c-46 -45 -50 -53 -50 -95 0 -42 -2 -46 -21 -43 -29 4
-57 101 -37 127 42 56 51 61 104 61 l53 0 -49 -50z m-1580 -91 c0 -68 -3 -90
-12 -87 -8 3 -14 30 -16 74 -2 38 -7 73 -13 79 -16 16 -10 25 16 25 25 0 25
-1 25 -91z m-70 -68 c0 -97 3 -128 13 -127 21 2 23 -19 1 -22 -19 -3 -22 3
-27 50 -10 83 -8 228 3 228 6 0 10 -50 10 -129z m30 9 c0 -73 -4 -120 -10
-120 -6 0 -10 47 -10 120 0 73 4 120 10 120 6 0 10 -47 10 -120z m-626 14 c3
-26 6 -156 6 -290 l0 -244 -61 -31 c-34 -16 -64 -27 -68 -24 -3 4 -7 144 -9
311 l-3 304 -42 2 c-23 1 -1 5 48 8 50 3 97 7 106 8 12 2 18 -10 23 -44z
m2826 20 l53 -7 -7 -306 c-4 -168 -9 -308 -12 -310 -3 -3 -34 9 -70 27 -91 45
-93 39 -4 -11 67 -38 75 -45 72 -69 l-3 -27 -72 45 c-40 24 -81 51 -92 60 -19
14 -19 16 -3 28 16 12 18 44 24 300 l7 288 27 -6 c15 -3 51 -8 80 -12z m-631
-40 l31 -6 0 -154 c0 -85 -3 -154 -6 -154 -4 0 -22 9 -40 21 l-34 21 0 139 c0
76 4 139 9 139 5 0 23 -3 40 -6z m-57 -389 l55 -50 -56 -6 -56 -6 70 -2 c44
-2 85 -10 110 -22 l40 -19 -175 6 -175 5 -53 57 c-91 99 -94 94 56 90 l129 -3
55 -50z"/>
<path d="M3330 4067 c0 -2 26 -24 58 -48 31 -23 97 -84 147 -133 54 -54 73
-70 47 -39 -55 67 -252 239 -252 220z"/>
<path d="M3620 3786 c0 -2 8 -10 18 -17 15 -13 16 -12 3 4 -13 16 -21 21 -21
13z"/>
<path d="M3700 3670 c6 -11 13 -20 16 -20 2 0 0 9 -6 20 -6 11 -13 20 -16 20
-2 0 0 -9 6 -20z"/>
<path d="M1313 3668 c-41 -52 -150 -274 -140 -284 2 -2 14 22 27 54 13 31 47
99 76 150 49 87 59 108 37 80z"/>
<path d="M3752 3575 c18 -35 34 -63 36 -61 4 5 -56 126 -63 126 -3 0 10 -29
27 -65z"/>
<path d="M1156 3355 c-3 -9 -6 -22 -5 -28 0 -7 5 -1 10 12 5 13 8 26 5 28 -2
2 -6 -3 -10 -12z"/>
<path d="M1136 3284 c-4 -14 -5 -28 -3 -31 3 -2 8 8 11 23 4 14 5 28 3 31 -3
2 -8 -8 -11 -23z"/>
<path d="M3841 3284 c0 -11 3 -14 6 -6 3 7 2 16 -1 19 -3 4 -6 -2 -5 -13z"/>
<path d="M1122 3220 c0 -14 2 -19 5 -12 2 6 2 18 0 25 -3 6 -5 1 -5 -13z"/>
<path d="M3852 3220 c0 -14 2 -19 5 -12 2 6 2 18 0 25 -3 6 -5 1 -5 -13z"/>
<path d="M1111 3174 c0 -11 3 -14 6 -6 3 7 2 16 -1 19 -3 4 -6 -2 -5 -13z"/>
<path d="M4255 3030 c3 -5 10 -10 16 -10 5 0 9 5 9 10 0 6 -7 10 -16 10 -8 0
-12 -4 -9 -10z"/>
<path d="M2519 3343 c-3 -18 -2 -33 2 -33 13 0 16 14 9 40 -6 24 -7 24 -11 -7z"/>
<path d="M2504 3288 c-4 -6 -3 -8 4 -4 6 3 13 2 17 -4 3 -5 0 -10 -7 -10 -25
0 -114 -47 -150 -79 -48 -42 -80 -110 -87 -185 -5 -49 -10 -61 -25 -64 -12 -3
-16 0 -11 8 5 9 1 10 -16 5 -62 -18 -59 -19 -59 24 0 49 22 74 61 69 23 -4 26
-2 17 9 -6 7 -19 11 -30 7 -16 -5 -18 -2 -13 23 4 16 -5 5 -20 -26 -20 -43
-26 -70 -26 -125 -1 -124 0 -143 11 -126 5 8 7 25 3 37 -10 42 5 73 35 73 64
0 72 -8 72 -65 l0 -53 108 -3 c59 -2 196 -2 305 0 l197 3 0 24 c0 21 -5 24
-35 24 -28 0 -35 -4 -35 -20 0 -11 -7 -20 -14 -20 -12 0 -14 12 -12 56 4 62
14 74 64 74 31 0 32 -2 32 -40 0 -22 4 -40 8 -40 16 0 2 163 -16 190 -9 14
-20 41 -23 60 l-6 35 -2 -38 c0 -21 -5 -36 -9 -33 -4 2 -13 -4 -20 -14 -10
-17 -9 -18 17 -10 33 9 51 -12 51 -59 0 -25 -4 -29 -32 -33 -18 -3 -41 -9 -52
-13 -17 -7 -18 -4 -15 38 2 25 1 45 -4 44 -4 -1 -18 25 -32 57 -30 74 -79 125
-155 161 -38 18 -57 32 -53 41 6 17 -33 19 -43 2z m92 -53 c90 -37 153 -121
173 -228 8 -43 7 -47 -8 -41 -128 54 -287 64 -398 26 -34 -12 -65 -22 -69 -22
-11 0 7 92 25 135 48 110 179 171 277 130z m119 -267 c60 -26 80 -52 53 -69
-10 -6 -10 -9 0 -9 13 0 16 -48 4 -66 -5 -7 -80 -11 -234 -10 -143 1 -223 5
-217 11 14 14 12 118 -3 113 -8 -3 -13 -22 -14 -46 0 -23 -3 -45 -7 -48 -4 -4
-7 15 -7 43 0 59 13 74 85 97 37 12 80 15 165 13 97 -3 125 -8 175 -29z"/>
<path d="M2486 2955 c-3 -9 -6 -34 -6 -56 0 -55 -18 -49 -22 9 -2 34 -7 47
-18 47 -11 0 -16 -14 -18 -52 l-3 -53 91 0 91 0 -3 53 c-2 38 -7 52 -18 52
-11 0 -16 -13 -18 -47 -2 -33 -8 -48 -17 -48 -10 0 -15 16 -17 52 -2 39 -7 54
-19 56 -9 2 -19 -4 -23 -13z"/>
<path d="M2371 2932 c-6 -11 -11 -36 -11 -55 0 -30 3 -34 20 -30 15 4 20 14
20 42 0 50 -14 71 -29 43z"/>
<path d="M2637 2944 c-4 -4 -7 -27 -7 -51 0 -37 3 -43 21 -43 18 0 20 5 17 47
-3 44 -15 62 -31 47z"/>
<path d="M2708 2895 c-1 -30 -2 -55 -1 -55 1 0 8 -3 17 -6 13 -5 16 2 16 41 0
27 -6 52 -14 61 -12 12 -15 6 -18 -41z"/>
<path d="M2250 3210 c-6 -11 -8 -20 -6 -20 3 0 10 9 16 20 6 11 8 20 6 20 -3
0 -10 -9 -16 -20z"/>
<path d="M2225 3169 c-4 -6 -5 -12 -2 -15 2 -3 7 2 10 11 7 17 1 20 -8 4z"/>
<path d="M2211 2872 c-6 -11 -11 -32 -11 -46 0 -21 5 -26 26 -26 25 0 26 2 21
37 -8 47 -22 61 -36 35z"/>
<path d="M2034 2660 c0 -96 2 -136 3 -87 2 48 2 126 0 175 -1 48 -3 8 -3 -88z"/>
<path d="M2763 2457 c12 -24 23 -40 25 -36 4 10 -25 66 -38 74 -5 3 0 -14 13
-38z"/>
<path d="M2980 2794 c0 -8 5 -12 10 -9 6 4 8 11 5 16 -9 14 -15 11 -15 -7z"/>
<path d="M4302 2650 c0 -14 2 -19 5 -12 2 6 2 18 0 25 -3 6 -5 1 -5 -13z"/>
<path d="M4302 2570 c0 -14 2 -19 5 -12 2 6 2 18 0 25 -3 6 -5 1 -5 -13z"/>
<path d="M1836 2465 c9 -14 26 -31 37 -36 15 -9 13 -3 -9 25 -33 41 -53 49
-28 11z"/>
<path d="M2022 2310 c0 -14 2 -19 5 -12 2 6 2 18 0 25 -3 6 -5 1 -5 -13z"/>
<path d="M1952 2245 c19 -33 24 -59 29 -160 l6 -120 1 118 c2 121 -6 156 -43
187 -11 9 -9 1 7 -25z"/>
<path d="M4081 1654 c0 -11 3 -14 6 -6 3 7 2 16 -1 19 -3 4 -6 -2 -5 -13z"/>
<path d="M1628 4764 c-38 -19 -68 -37 -68 -39 0 -3 32 11 70 30 39 19 70 37
70 40 0 7 3 8 -72 -31z"/>
<path d="M1487 4684 c-31 -19 -57 -38 -57 -41 0 -3 12 3 27 12 14 10 41 26 60
37 28 17 40 28 30 28 -1 0 -28 -16 -60 -36z"/>
<path d="M1333 4579 c-29 -22 -53 -42 -53 -45 0 -2 25 14 55 37 48 36 62 49
53 49 -2 0 -27 -18 -55 -41z"/>
<path d="M775 3740 c-9 -16 -13 -30 -11 -30 3 0 12 14 21 30 9 17 13 30 11 30
-3 0 -12 -13 -21 -30z"/>
<path d="M717 3625 c-24 -50 -20 -58 4 -12 11 22 19 41 17 43 -3 2 -12 -12
-21 -31z"/>
<path d="M4531 3655 c0 -5 6 -21 14 -35 8 -14 14 -20 14 -15 0 6 -6 21 -14 35
-8 14 -14 21 -14 15z"/>
<path d="M2442 3621 c-34 -10 -66 -22 -70 -26 -4 -5 2 -5 12 -1 10 3 47 13 80
22 59 15 64 14 110 -6 27 -11 51 -19 53 -17 5 5 -96 47 -111 46 -6 0 -39 -9
-74 -18z"/>
<path d="M2288 3559 c-32 -16 -58 -32 -58 -34 0 -5 119 52 129 61 13 12 -22
-1 -71 -27z"/>
<path d="M2641 3586 c10 -9 89 -46 89 -41 0 5 -75 45 -86 45 -4 0 -5 -2 -3 -4z"/>
<path d="M4560 3585 c0 -5 5 -17 10 -25 5 -8 10 -10 10 -5 0 6 -5 17 -10 25
-5 8 -10 11 -10 5z"/>
<path d="M676 3524 c-9 -26 -14 -49 -12 -51 2 -2 11 17 20 43 9 26 14 49 12
51 -2 2 -11 -17 -20 -43z"/>
<path d="M4581 3524 c0 -11 3 -14 6 -6 3 7 2 16 -1 19 -3 4 -6 -2 -5 -13z"/>
<path d="M2760 3526 c0 -3 9 -10 20 -16 11 -6 20 -8 20 -6 0 3 -9 10 -20 16
-11 6 -20 8 -20 6z"/>
<path d="M2164 3484 c-63 -48 -138 -119 -176 -169 -17 -22 -3 -10 31 28 35 37
90 88 124 114 72 54 83 63 75 63 -3 0 -27 -16 -54 -36z"/>
<path d="M2810 3497 c0 -2 19 -17 43 -32 23 -16 37 -22 30 -14 -12 15 -73 53
-73 46z"/>
<path d="M2920 3421 c14 -12 50 -43 81 -69 30 -26 70 -65 87 -87 18 -22 39
-49 48 -60 10 -14 10 -9 -3 13 -22 41 -132 150 -193 193 -25 17 -34 21 -20 10z"/>
<path d="M632 3393 c-15 -48 -8 -55 8 -8 7 20 10 38 8 41 -3 2 -10 -13 -16
-33z"/>
<path d="M4631 3364 c0 -11 3 -14 6 -6 3 7 2 16 -1 19 -3 4 -6 -2 -5 -13z"/>
<path d="M611 3304 c0 -11 3 -14 6 -6 3 7 2 16 -1 19 -3 4 -6 -2 -5 -13z"/>
<path d="M4651 3294 c0 -11 3 -14 6 -6 3 7 2 16 -1 19 -3 4 -6 -2 -5 -13z"/>
<path d="M1943 3258 c-15 -20 -25 -38 -20 -38 3 0 12 11 21 25 17 26 16 35 -1
13z"/>
<path d="M4661 3254 c0 -11 3 -14 6 -6 3 7 2 16 -1 19 -3 4 -6 -2 -5 -13z"/>
<path d="M4672 3215 c0 -11 4 -31 8 -45 6 -20 8 -21 8 -5 0 11 -4 31 -8 45 -6
20 -8 21 -8 5z"/>
<path d="M385 3085 c-3 -26 -4 -49 -2 -51 3 -3 8 16 12 41 3 26 4 49 2 51 -3
3 -8 -16 -12 -41z"/>
<path d="M3226 3117 c3 -10 9 -15 12 -12 3 3 0 11 -7 18 -10 9 -11 8 -5 -6z"/>
<path d="M3241 2954 c0 -11 3 -14 6 -6 3 7 2 16 -1 19 -3 4 -6 -2 -5 -13z"/>
<path d="M3252 2895 c0 -16 2 -22 5 -12 2 9 2 23 0 30 -3 6 -5 -1 -5 -18z"/>
<path d="M1406 2782 c-3 -25 -5 -115 -4 -201 l2 -156 7 180 c3 99 7 182 8 183
0 2 23 -16 50 -40 61 -54 181 -131 180 -115 0 7 -41 41 -90 77 -49 36 -103 77
-118 91 l-29 26 -6 -45z"/>
<path d="M3263 2795 c0 -22 2 -30 4 -17 2 12 2 30 0 40 -3 9 -5 -1 -4 -23z"/>
<path d="M670 2555 c0 -49 3 -86 6 -83 3 3 5 41 5 83 0 42 -2 80 -5 83 -3 3
-6 -34 -6 -83z"/>
<path d="M3233 2473 c-16 -27 -18 -183 -3 -183 18 0 21 23 18 116 -3 77 -5 86
-15 67z"/>
<path d="M3000 2403 c-21 -24 -22 -25 -2 -9 28 25 29 10 0 -23 l-22 -26 28 26
c15 15 26 34 24 44 -2 14 -7 12 -28 -12z"/>
<path d="M2962 2360 c0 -14 2 -19 5 -12 2 6 2 18 0 25 -3 6 -5 1 -5 -13z"/>
<path d="M2914 2327 l-29 -32 30 25 c17 14 32 26 34 28 2 1 2 4 -1 7 -2 3 -18
-10 -34 -28z"/>
<path d="M2115 2330 c10 -11 20 -20 23 -20 3 0 -3 9 -13 20 -10 11 -20 20 -23
20 -3 0 3 -9 13 -20z"/>
<path d="M1394 2225 c0 -66 1 -92 3 -57 2 34 2 88 0 120 -2 31 -3 3 -3 -63z"/>
<path d="M2992 2156 c-2 -205 -20 -217 -24 -16 l-3 135 -17 -37 c-13 -27 -18
-64 -19 -135 0 -68 -3 -92 -10 -78 l-9 20 2 -20 c2 -11 -1 -26 -5 -32 -5 -9
-2 -13 8 -13 9 0 13 5 10 10 -7 12 2 12 30 0 18 -8 18 -9 2 -9 -10 -1 -21 -9
-24 -18 -4 -10 -10 -20 -14 -23 -4 -3 -9 -54 -10 -112 -1 -80 -5 -108 -15
-112 -11 -4 -14 15 -14 104 l0 110 -25 0 c-25 0 -25 0 -25 -94 0 -66 -4 -96
-12 -99 -10 -4 -10 -6 0 -6 8 -1 41 -18 75 -38 l61 -38 -80 -6 c-78 -6 -78 -6
24 -5 64 0 101 4 99 11 -2 5 -10 11 -18 11 -8 1 -18 2 -22 3 -4 0 -3 10 3 21
12 22 36 27 42 8 2 -6 10 -8 17 -4 9 6 9 11 1 21 -7 9 -14 120 -19 312 -6 245
-8 268 -9 129z m-2 -227 c0 -24 -4 -38 -10 -34 -5 3 -10 22 -10 41 0 19 5 34
10 34 6 0 10 -18 10 -41z"/>
<path d="M2100 2302 c0 -5 7 -15 15 -22 8 -7 15 -8 15 -2 0 5 -7 15 -15 22 -8
7 -15 8 -15 2z"/>
<path d="M2913 2125 c0 -44 2 -61 4 -37 2 23 2 59 0 80 -2 20 -4 1 -4 -43z"/>
<path d="M803 2110 c0 -25 2 -35 4 -22 2 12 2 32 0 45 -2 12 -4 2 -4 -23z"/>
<path d="M3010 2091 c0 -11 5 -23 10 -26 6 -3 10 3 10 14 0 11 -4 23 -10 26
-5 3 -10 -3 -10 -14z"/>
<path d="M804 1965 c0 -55 1 -76 3 -47 2 29 2 74 0 100 -2 26 -3 2 -3 -53z"/>
<path d="M2863 1963 c-7 -2 -13 -9 -13 -14 0 -14 26 -10 40 6 10 12 10 15 -1
14 -8 0 -20 -3 -26 -6z"/>
<path d="M2399 1733 c-13 -16 -12 -17 4 -4 16 13 21 21 13 21 -2 0 -10 -8 -17
-17z"/>
<path d="M2617 1719 c7 -7 15 -10 18 -7 3 3 -2 9 -12 12 -14 6 -15 5 -6 -5z"/>
<path d="M2370 1701 c0 -4 -27 -38 -61 -75 -33 -36 -57 -66 -52 -66 4 0 14 9
21 20 7 11 19 20 27 20 8 0 15 4 15 9 0 5 16 30 35 55 19 25 30 46 25 46 -6 0
-10 -4 -10 -9z"/>
<path d="M2720 1665 c13 -14 26 -25 28 -25 3 0 -5 11 -18 25 -13 14 -26 25
-28 25 -3 0 5 -11 18 -25z"/>
<path d="M4325 1680 c11 -5 27 -9 35 -9 9 0 8 4 -5 9 -11 5 -27 9 -35 9 -9 0
-8 -4 5 -9z"/>
<path d="M2674 1637 c16 -20 30 -37 33 -37 7 0 -36 58 -49 66 -7 4 1 -9 16
-29z"/>
<path d="M4445 1654 c39 -7 81 -13 95 -12 14 0 -6 6 -45 14 -38 7 -81 13 -95
12 -14 0 7 -6 45 -14z"/>
<path d="M693 1643 c9 -2 25 -2 35 0 9 3 1 5 -18 5 -19 0 -27 -2 -17 -5z"/>
<path d="M3010 1639 c0 -5 5 -7 10 -4 6 3 10 8 10 11 0 2 -4 4 -10 4 -5 0 -10
-5 -10 -11z"/>
<path d="M370 1604 c-129 -18 -239 -36 -245 -38 -25 -11 48 -2 290 34 143 21
244 38 225 38 -19 0 -141 -15 -270 -34z"/>
<path d="M2015 1630 c3 -5 8 -10 11 -10 2 0 4 5 4 10 0 6 -5 10 -11 10 -5 0
-7 -4 -4 -10z"/>
<path d="M4578 1633 c6 -2 18 -2 25 0 6 3 1 5 -13 5 -14 0 -19 -2 -12 -5z"/>
<path d="M2453 1603 c9 -2 23 -2 30 0 6 3 -1 5 -18 5 -16 0 -22 -2 -12 -5z"/>
<path d="M2518 1603 c7 -3 16 -2 19 1 4 3 -2 6 -13 5 -11 0 -14 -3 -6 -6z"/>
<path d="M4705 1594 c23 -9 410 -83 414 -79 10 11 -16 18 -195 51 -165 30
-250 41 -219 28z"/>
<path d="M2710 1566 c0 -9 40 -13 46 -5 3 5 -6 9 -20 9 -14 0 -26 -2 -26 -4z"/>
<path d="M88 1553 c7 -3 16 -2 19 1 4 3 -2 6 -13 5 -11 0 -14 -3 -6 -6z"/>
<path d="M2998 1543 c12 -2 30 -2 40 0 9 3 -1 5 -23 4 -22 0 -30 -2 -17 -4z"/>
<path d="M2780 1506 c0 -22 54 -66 79 -65 25 2 25 2 3 6 -13 3 -37 19 -53 36
-15 18 -29 28 -29 23z"/>
<path d="M1964 1484 c-18 -14 -18 -14 6 -3 31 14 36 19 24 19 -6 0 -19 -7 -30
-16z"/>
<path d="M2298 1493 c29 -2 74 -2 100 0 26 2 2 3 -53 3 -55 0 -76 -1 -47 -3z"/>
<path d="M2468 1493 c6 -2 18 -2 25 0 6 3 1 5 -13 5 -14 0 -19 -2 -12 -5z"/>
<path d="M2216 1461 c-4 -7 -5 -15 -2 -18 9 -9 19 4 14 18 -4 11 -6 11 -12 0z"/>
<path d="M2180 1442 c0 -5 -20 -35 -45 -66 -25 -32 -45 -60 -45 -62 0 -2 69
-3 153 -2 l152 2 -143 3 -143 4 46 64 c25 36 41 65 36 65 -6 0 -11 -4 -11 -8z"/>
<path d="M2298 1433 c34 -2 90 -2 125 0 34 2 6 3 -63 3 -69 0 -97 -1 -62 -3z"/>
<path d="M2658 1433 c23 -2 61 -2 85 0 23 2 4 4 -43 4 -47 0 -66 -2 -42 -4z"/>
<path d="M2874 1395 c9 -14 23 -36 32 -50 l16 -24 -114 -3 -113 -3 126 -5 127
-5 -41 58 c-39 56 -65 81 -33 32z"/>
<path d="M2521 1268 c0 -38 2 -68 7 -68 4 0 6 21 4 48 -5 82 -9 89 -11 20z"/>
<path d="M1668 1313 c7 -3 16 -2 19 1 4 3 -2 6 -13 5 -11 0 -14 -3 -6 -6z"/>
<path d="M1380 1265 c-14 -8 -20 -14 -15 -14 6 0 21 6 35 14 14 8 21 14 15 14
-5 0 -21 -6 -35 -14z"/>
<path d="M1418 1192 c-31 -19 -39 -39 -10 -23 16 9 51 42 41 40 -2 0 -16 -8
-31 -17z"/>
<path d="M2048 1203 c12 -2 30 -2 40 0 9 3 -1 5 -23 4 -22 0 -30 -2 -17 -4z"/>
<path d="M4225 1023 c6 -6 37 -26 70 -44 33 -18 56 -28 50 -22 -5 5 -37 25
-70 43 -33 18 -55 28 -50 23z"/>
<path d="M530 800 c-9 -6 -10 -10 -3 -10 6 0 15 5 18 10 8 12 4 12 -15 0z"/>
<path d="M2534 670 c0 -58 1 -81 3 -52 2 28 2 76 0 105 -2 28 -3 5 -3 -53z"/>
<path d="M4840 656 c0 -3 14 -12 30 -21 17 -9 30 -13 30 -11 0 3 -13 12 -30
21 -16 9 -30 13 -30 11z"/>
<path d="M4990 576 c0 -3 9 -10 20 -16 11 -6 20 -8 20 -6 0 3 -9 10 -20 16
-11 6 -20 8 -20 6z"/>
<path d="M3882 308 c105 -124 260 -298 265 -298 2 0 -30 39 -73 88 -42 48
-113 129 -156 180 -44 50 -82 92 -85 92 -3 0 19 -28 49 -62z"/>
<path d="M989 33 l-24 -28 28 24 c25 23 32 31 24 31 -2 0 -14 -12 -28 -27z"/>
</g>
</svg>