<?xml version="1.0" standalone="no"?>
<!DOCTYPE svg PUBLIC "-//W3C//DTD SVG 20010904//EN"
 "http://www.w3.org/TR/2001/REC-SVG-20010904/DTD/svg10.dtd">
<svg version="1.0" xmlns="http://www.w3.org/2000/svg"
 width="512.000000pt" height="512.000000pt" viewBox="0 0 512.000000 512.000000"
 preserveAspectRatio="xMidYMid meet">
<metadata>
Created by potrace 1.16, written by Peter Selinger 2001-2019
</metadata>
<g transform="translate(0.000000,512.000000) scale(0.100000,-0.100000)"
fill="#000000" stroke="none">
<path d="M2620 4064 c0 -445 10 -724 27 -724 7 0 13 11 13 26 0 14 7 134 16
266 14 216 14 245 0 277 -9 22 -21 115 -32 236 -9 110 -18 202 -20 204 -2 2
-4 -126 -4 -285z"/>
<path d="M3233 4058 c-258 -453 -382 -688 -361 -688 6 0 43 18 80 41 l68 40
94 187 c106 213 147 309 201 472 21 63 47 135 57 159 41 97 3 40 -139 -211z"/>
<path d="M2201 4254 c0 -11 3 -14 6 -6 3 7 2 16 -1 19 -3 4 -6 -2 -5 -13z"/>
<path d="M2210 4216 c0 -8 32 -139 70 -292 127 -503 160 -607 185 -582 6 6
-57 305 -96 462 -32 126 -51 173 -79 193 -11 8 -28 54 -45 123 -26 103 -35
129 -35 96z"/>
<path d="M1770 4219 c0 -8 88 -208 214 -489 182 -404 210 -460 229 -460 9 0
17 4 17 10 0 33 -459 971 -460 939z"/>
<path d="M2845 3938 c-15 -51 -29 -104 -31 -118 -1 -14 -11 -78 -23 -144 -30
-171 -25 -172 20 -1 38 149 75 342 67 350 -2 2 -17 -37 -33 -87z"/>
<path d="M3453 3803 c-132 -166 -167 -213 -160 -213 3 0 54 62 114 138 132
165 167 212 160 212 -3 0 -54 -62 -114 -137z"/>
<path d="M2425 3840 c8 -79 51 -298 64 -331 12 -27 11 -13 -9 141 -11 82 -46
240 -57 250 -2 3 -2 -24 2 -60z"/>
<path d="M1415 3820 c36 -42 329 -350 493 -519 41 -42 70 -68 65 -59 -20 39
-167 198 -374 403 -123 121 -205 200 -184 175z"/>
<path d="M3950 3727 c-271 -201 -688 -518 -701 -533 -9 -11 -8 -14 5 -14 9 0
30 -7 46 -15 29 -15 30 -15 217 113 103 71 240 162 303 203 l115 74 -47 9 -47
9 142 138 c78 76 140 138 137 138 -3 0 -79 -55 -170 -122z"/>
<path d="M1780 3776 c53 -87 110 -164 145 -196 25 -23 24 -19 -10 35 -47 74
-139 198 -161 216 -9 7 2 -17 26 -55z"/>
<path d="M2861 3784 c0 -11 3 -14 6 -6 3 7 2 16 -1 19 -3 4 -6 -2 -5 -13z"/>
<path d="M2851 3744 c0 -11 3 -14 6 -6 3 7 2 16 -1 19 -3 4 -6 -2 -5 -13z"/>
<path d="M1960 3738 c0 -20 138 -324 140 -308 0 7 -128 302 -135 308 -3 3 -5
3 -5 0z"/>
<path d="M1500 3668 c179 -228 450 -522 450 -491 0 29 -457 543 -483 543 -5 0
10 -24 33 -52z"/>
<path d="M2842 3700 c0 -14 2 -19 5 -12 2 6 2 18 0 25 -3 6 -5 1 -5 -13z"/>
<path d="M2210 3638 c42 -106 80 -191 80 -182 0 18 -41 146 -56 177 -18 33
-38 37 -24 5z"/>
<path d="M2831 3644 c0 -11 3 -14 6 -6 3 7 2 16 -1 19 -3 4 -6 -2 -5 -13z"/>
<path d="M2181 3570 c0 -8 10 -37 23 -65 14 -27 25 -43 25 -35 0 20 -47 119
-48 100z"/>
<path d="M1040 3555 c8 -10 87 -79 175 -153 201 -170 580 -422 617 -410 17 6
-190 159 -442 328 -118 79 -249 168 -290 198 -41 31 -68 47 -60 37z"/>
<path d="M3293 3512 c-88 -88 -192 -211 -184 -216 12 -8 99 84 190 202 38 48
35 55 -6 14z"/>
<path d="M3578 3504 c-16 -8 -28 -19 -28 -25 0 -11 21 -1 55 25 25 20 8 20
-27 0z"/>
<path d="M1903 3445 c14 -28 34 -61 45 -75 18 -23 20 -23 19 -5 -1 11 -4 22
-8 25 -3 3 -15 21 -27 41 -37 61 -58 71 -29 14z"/>
<path d="M4220 3396 c-69 -34 -226 -116 -350 -180 -467 -244 -504 -266 -453
-266 24 0 283 96 398 147 290 131 341 160 318 184 -7 7 -13 16 -13 20 0 4 48
38 108 75 167 105 166 108 -8 20z"/>
<path d="M1560 3380 c30 -28 73 -66 95 -83 l40 -31 -35 37 c-19 21 -62 58 -95
83 l-60 46 55 -52z"/>
<path d="M2100 3411 c0 -6 4 -13 10 -16 6 -3 7 1 4 9 -7 18 -14 21 -14 7z"/>
<path d="M3300 3319 c-180 -158 -146 -148 52 14 75 61 97 88 70 87 -4 -1 -59
-46 -122 -101z"/>
<path d="M1535 3335 c80 -76 286 -235 303 -235 22 0 -130 127 -293 244 l-80
57 70 -66z"/>
<path d="M2983 3291 c140 -108 238 -227 307 -374 57 -121 73 -199 74 -347 0
-150 -24 -259 -83 -384 -112 -233 -301 -375 -572 -430 -20 -4 -28 -13 -30 -33
-2 -16 -2 -235 1 -488 4 -342 7 -434 13 -357 4 56 8 266 8 465 l-1 363 78 16
c42 8 78 15 78 14 1 0 48 -125 104 -276 154 -412 280 -701 280 -640 0 6 -4 10
-10 10 -5 0 -6 7 -3 17 5 11 3 14 -6 8 -10 -5 -11 -2 -6 14 4 12 2 21 -4 21
-6 0 -8 7 -5 15 4 8 1 15 -5 15 -6 0 -8 7 -5 15 4 8 1 15 -5 15 -6 0 -8 7 -5
15 4 8 1 15 -5 15 -6 0 -8 7 -5 15 4 8 1 15 -6 15 -6 0 -8 5 -5 10 4 6 2 16
-3 23 -6 7 -11 17 -13 22 -1 6 -5 19 -10 30 -35 83 -141 383 -141 398 1 9 -4
17 -9 17 -6 0 -7 5 -4 10 3 6 1 10 -5 10 -7 0 -10 7 -6 15 3 8 1 15 -5 15 -6
0 -9 7 -5 15 3 8 1 15 -5 15 -6 0 -7 4 -4 10 3 5 1 10 -5 10 -7 0 -10 7 -6 15
3 8 1 15 -5 15 -6 0 -9 7 -5 15 3 8 1 15 -4 15 -5 0 -6 7 -3 17 5 12 3 14 -7
8 -10 -6 -12 -4 -7 8 3 10 2 17 -4 17 -6 0 -8 4 -5 9 4 5 0 11 -6 14 -7 2 19
20 57 39 39 20 98 56 132 81 l62 46 38 -47 c139 -171 459 -537 592 -677 88
-93 88 -86 -2 50 -78 116 -289 373 -504 610 l-92 102 41 49 c168 201 233 468
179 730 -47 225 -175 414 -375 553 -100 69 -127 76 -43 12z"/>
<path d="M2360 3314 c-30 -8 -97 -35 -149 -60 -76 -37 -109 -61 -177 -128 -95
-94 -139 -173 -150 -270 -10 -82 6 -72 75 44 71 120 198 251 294 305 111 61
201 85 320 85 176 0 326 -57 451 -171 81 -75 132 -151 173 -261 72 -191 66
-387 -16 -553 -68 -137 -218 -260 -393 -323 -65 -23 -87 -26 -213 -26 -125 0
-148 3 -212 26 -97 35 -156 70 -227 137 -108 102 -168 222 -182 361 -6 63 9
270 22 319 5 16 4 22 -4 17 -6 -3 -29 -54 -52 -112 -36 -93 -41 -116 -42 -188
-2 -287 246 -565 559 -626 71 -14 320 -10 331 5 4 6 50 32 104 58 150 76 273
199 350 352 74 146 82 336 23 524 -76 239 -292 434 -545 490 -67 16 -276 12
-340 -5z"/>
<path d="M3775 3219 c-247 -125 -387 -200 -382 -205 4 -5 486 238 552 278 72
43 -4 11 -170 -73z"/>
<path d="M1355 3201 c16 -16 366 -194 371 -188 5 5 -106 67 -245 137 -97 48
-141 66 -126 51z"/>
<path d="M1339 3160 c29 -24 406 -216 397 -202 -12 19 -391 223 -413 222 -5
-1 3 -10 16 -20z"/>
<path d="M2473 3149 c-158 -26 -304 -133 -383 -280 -22 -42 -100 -294 -100
-325 0 -11 21 -2 48 21 24 20 32 38 42 93 17 100 77 217 152 294 141 145 328
185 501 105 64 -29 112 -69 141 -116 62 -101 102 -263 92 -372 -11 -119 -22
-118 -23 3 0 96 -4 125 -27 193 -41 121 -97 199 -168 236 -33 17 -98 26 -98
14 0 -2 23 -25 50 -51 64 -60 131 -161 160 -241 19 -52 22 -77 18 -145 -8
-151 -83 -264 -216 -326 -50 -24 -69 -27 -157 -27 -87 0 -106 3 -148 25 -62
31 -122 96 -155 168 -24 50 -27 69 -27 162 0 93 3 112 27 162 34 73 98 137
174 173 81 40 186 42 257 5 80 -40 165 -150 167 -215 1 -11 7 -33 16 -50 14
-29 14 -28 10 31 -7 110 -83 223 -179 265 -39 17 -70 23 -127 23 -110 -1 -178
-30 -261 -113 -55 -56 -71 -79 -99 -151 -91 -229 -22 -468 160 -560 154 -78
372 -61 529 40 111 71 202 211 222 344 18 114 -25 265 -112 394 l-31 45 28
-17 27 -18 -28 36 c-32 41 -136 113 -212 144 -46 20 -164 43 -203 41 -8 -1
-38 -5 -67 -10z m-326 -661 c-3 -7 -5 -2 -5 12 0 14 2 19 5 13 2 -7 2 -19 0
-25z m52 -143 c12 -20 16 -33 10 -29 -16 9 -59 105 -58 129 0 11 6 1 14 -22 7
-24 22 -59 34 -78z m57 -77 l29 -33 -32 29 c-31 28 -38 36 -30 36 2 0 16 -15
33 -32z m171 -84 c-3 -3 -12 -4 -19 -1 -8 3 -5 6 6 6 11 1 17 -2 13 -5z m206
-1 c-7 -2 -19 -2 -25 0 -7 3 -2 5 12 5 14 0 19 -2 13 -5z m-86 -10 c-20 -2
-52 -2 -70 0 -17 2 0 4 38 4 39 0 53 -2 32 -4z"/>
<path d="M801 3066 c2 -2 56 -34 119 -71 63 -38 150 -90 192 -117 93 -59 263
-114 628 -202 142 -34 150 -35 150 -20 0 19 -24 30 -173 79 -228 74 -495 171
-704 254 -183 74 -225 89 -212 77z"/>
<path d="M3785 3016 c-168 -65 -322 -130 -332 -141 -13 -13 35 4 206 72 175
70 292 122 276 122 -5 0 -73 -24 -150 -53z"/>
<path d="M3680 3009 c-58 -22 -118 -45 -133 -51 -15 -6 -26 -12 -24 -15 4 -4
267 94 276 103 11 11 -23 0 -119 -37z"/>
<path d="M1030 3021 c37 -27 633 -235 654 -228 9 3 -18 13 -414 151 -281 98
-258 90 -240 77z"/>
<path d="M3715 2829 c-73 -17 -75 -18 -25 -13 71 6 177 32 135 32 -16 0 -66
-9 -110 -19z"/>
<path d="M2525 2821 c-69 -17 -116 -55 -151 -121 -27 -51 -25 -161 4 -217 12
-24 24 -43 26 -43 2 0 -5 27 -15 61 -58 185 37 323 210 306 31 -3 47 -2 36 3
-37 14 -80 18 -110 11z"/>
<path d="M1148 2763 c7 -3 16 -2 19 1 4 3 -2 6 -13 5 -11 0 -14 -3 -6 -6z"/>
<path d="M1205 2749 c17 -5 86 -21 155 -34 69 -14 136 -28 150 -31 17 -4 22
-2 15 5 -11 10 -298 72 -331 70 -12 0 -9 -4 11 -10z"/>
<path d="M1575 2603 c-6 -79 0 -162 21 -290 l6 -41 -68 -21 c-38 -11 -125 -36
-194 -56 -296 -85 -659 -209 -647 -221 10 -11 462 114 697 192 282 93 268 84
250 160 -33 144 -34 334 -1 334 13 1 13 3 -3 15 -44 33 -53 21 -61 -72z"/>
<path d="M2848 2634 c-11 -119 -79 -218 -181 -265 -91 -41 -206 -12 -280 70
-43 48 -54 50 -31 6 57 -110 192 -160 328 -121 60 18 126 69 151 117 23 44 38
158 28 209 l-9 45 -6 -61z"/>
<path d="M3755 2674 c-82 -7 -161 -13 -174 -13 -13 -1 -22 -4 -19 -7 6 -5 493
24 513 31 23 8 -181 2 -320 -11z"/>
<path d="M3915 2644 c-126 -8 -257 -16 -290 -20 l-60 -5 -1 -134 0 -133 160
-31 c180 -34 290 -48 266 -33 -17 11 -199 54 -307 73 l-73 12 0 97 0 97 398 6
c380 5 643 19 707 37 21 6 24 8 10 9 -11 1 -99 10 -195 21 -197 22 -287 23
-615 4z"/>
<path d="M1801 2505 c0 -45 6 -107 14 -139 15 -57 55 -159 60 -154 2 2 -10 43
-27 91 -19 57 -32 123 -37 185 l-8 97 -2 -80z"/>
<path d="M1050 2500 c-54 -4 11 -7 175 -7 153 -1 252 2 240 7 -22 10 -285 10
-415 0z"/>
<path d="M1127 2449 c-168 -11 -192 -24 -61 -35 130 -12 236 -9 361 10 57 9
105 16 108 16 3 0 5 5 5 10 0 12 -221 11 -413 -1z"/>
<path d="M3437 2319 c-3 -11 0 -22 6 -24 137 -39 888 -187 940 -184 66 2 -852
229 -930 229 -6 0 -13 -9 -16 -21z"/>
<path d="M1690 2223 c-216 -73 -429 -148 -450 -159 l-25 -13 27 -1 c17 0 31
-8 38 -19 10 -20 11 -20 63 -2 47 17 135 52 353 143 60 24 71 32 67 48 -6 23
-13 24 -73 3z"/>
<path d="M3356 2119 c34 -39 235 -184 484 -350 l245 -163 160 -53 c87 -29 161
-51 162 -49 4 4 -165 131 -237 177 -30 20 -86 53 -125 74 -81 44 -360 200
-555 309 -74 42 -139 76 -144 76 -5 0 -1 -10 10 -21z"/>
<path d="M3570 2067 c0 -7 165 -106 340 -204 139 -78 210 -115 210 -109 0 5
-218 134 -350 206 -63 35 -134 74 -157 87 -24 14 -43 23 -43 20z"/>
<path d="M1958 2024 c49 -61 220 -202 264 -216 6 -2 -18 -60 -52 -128 -73
-146 -157 -342 -137 -320 17 18 162 270 206 359 29 55 35 63 57 58 43 -8 25
11 -40 41 -87 41 -166 96 -256 178 -57 53 -67 59 -42 28z"/>
<path d="M1733 1932 c-82 -59 -179 -131 -216 -159 -65 -49 -66 -51 -47 -68 19
-17 22 -16 83 41 34 33 127 108 205 168 130 100 158 126 133 126 -5 0 -76 -49
-158 -108z"/>
<path d="M1320 1977 c-118 -54 -160 -76 -148 -77 8 0 234 101 263 118 50 29
-10 7 -115 -41z"/>
<path d="M1753 1873 c-87 -71 -171 -134 -186 -142 -33 -17 -19 -31 31 -31 29
0 50 17 180 144 81 79 144 147 141 150 -3 4 -78 -51 -166 -121z"/>
<path d="M3368 1915 c65 -69 167 -167 241 -229 14 -12 2 8 -25 43 -52 68 -126
139 -227 217 l-62 48 73 -79z"/>
<path d="M2810 1912 c0 -5 12 -19 26 -33 l26 -24 -19 32 c-17 31 -33 43 -33
25z"/>
<path d="M1829 1723 c-91 -93 -193 -206 -228 -253 -58 -77 -42 -64 178 156
132 132 241 246 241 252 0 31 -39 -1 -191 -155z"/>
<path d="M1974 1768 c-49 -46 -185 -177 -302 -293 -192 -188 -218 -218 -252
-286 -21 -42 -68 -120 -104 -174 -36 -54 -66 -100 -66 -103 0 -18 689 695 702
727 4 9 9 29 13 45 3 16 31 55 62 88 38 39 53 62 46 69 -6 6 -39 -18 -99 -73z"/>
<path d="M3050 1787 c0 -12 100 -210 112 -222 13 -14 -4 31 -42 104 -36 73
-70 129 -70 118z"/>
<path d="M2350 1776 c0 -3 15 -16 34 -28 l34 -24 -24 -69 c-42 -119 -227 -595
-231 -592 -3 4 60 192 131 392 57 158 45 154 -18 -5 -75 -192 -217 -657 -216
-706 0 -5 33 68 72 161 39 94 86 193 104 222 59 92 76 135 149 358 l71 220 72
-4 c68 -3 72 -2 72 18 0 18 -6 21 -42 21 -42 0 -155 21 -190 35 -10 4 -18 5
-18 1z"/>
<path d="M3010 1762 c0 -15 48 -112 55 -112 7 0 -26 81 -42 105 -7 11 -13 14
-13 7z"/>
<path d="M3215 1619 c33 -56 159 -240 168 -246 6 -3 0 11 -13 33 -42 69 -142
214 -153 221 -6 4 -7 1 -2 -8z"/>
<path d="M2578 1547 c-5 -10 -7 -87 -7 -170 l2 -152 9 90 c10 103 7 260 -4
232z"/>
<path d="M2814 1537 c-3 -8 6 -36 20 -63 13 -27 30 -70 36 -97 7 -26 16 -49
20 -52 9 -6 -3 55 -32 153 -20 69 -33 87 -44 59z"/>
</g>
</svg>